G75*
%MOIN*%
%OFA0B0*%
%FSLAX25Y25*%
%IPPOS*%
%LPD*%
%AMOC8*
5,1,8,0,0,1.08239X$1,22.5*
%
%ADD10C,0.00500*%
%ADD11C,0.00600*%
%ADD12C,0.00800*%
%ADD13C,0.01181*%
%ADD14R,0.00800X0.00040*%
%ADD15R,0.00600X0.00040*%
%ADD16R,0.01520X0.00040*%
%ADD17R,0.01160X0.00040*%
%ADD18R,0.01960X0.00040*%
%ADD19R,0.01480X0.00040*%
%ADD20R,0.02320X0.00040*%
%ADD21R,0.01720X0.00040*%
%ADD22R,0.01040X0.00040*%
%ADD23R,0.00320X0.00040*%
%ADD24R,0.00360X0.00040*%
%ADD25R,0.02640X0.00040*%
%ADD26R,0.01400X0.00040*%
%ADD27R,0.00520X0.00040*%
%ADD28R,0.00520X0.00040*%
%ADD29R,0.02840X0.00040*%
%ADD30R,0.02120X0.00040*%
%ADD31R,0.01640X0.00040*%
%ADD32R,0.00640X0.00040*%
%ADD33R,0.00680X0.00040*%
%ADD34R,0.03080X0.00040*%
%ADD35R,0.02360X0.00040*%
%ADD36R,0.01840X0.00040*%
%ADD37R,0.00760X0.00040*%
%ADD38R,0.03280X0.00040*%
%ADD39R,0.02520X0.00040*%
%ADD40R,0.00840X0.00040*%
%ADD41R,0.03480X0.00040*%
%ADD42R,0.02680X0.00040*%
%ADD43R,0.02120X0.00040*%
%ADD44R,0.00880X0.00040*%
%ADD45R,0.00920X0.00040*%
%ADD46R,0.03640X0.00040*%
%ADD47R,0.02760X0.00040*%
%ADD48R,0.02240X0.00040*%
%ADD49R,0.00960X0.00040*%
%ADD50R,0.01000X0.00040*%
%ADD51R,0.03800X0.00040*%
%ADD52R,0.02920X0.00040*%
%ADD53R,0.02320X0.00040*%
%ADD54R,0.00960X0.00040*%
%ADD55R,0.01000X0.00040*%
%ADD56R,0.03960X0.00040*%
%ADD57R,0.03040X0.00040*%
%ADD58R,0.02400X0.00040*%
%ADD59R,0.04080X0.00040*%
%ADD60R,0.03160X0.00040*%
%ADD61R,0.02520X0.00040*%
%ADD62R,0.01040X0.00040*%
%ADD63R,0.04240X0.00040*%
%ADD64R,0.02560X0.00040*%
%ADD65R,0.04360X0.00040*%
%ADD66R,0.03360X0.00040*%
%ADD67R,0.04480X0.00040*%
%ADD68R,0.03480X0.00040*%
%ADD69R,0.02680X0.00040*%
%ADD70R,0.01040X0.00040*%
%ADD71R,0.04600X0.00040*%
%ADD72R,0.03560X0.00040*%
%ADD73R,0.02720X0.00040*%
%ADD74R,0.04680X0.00040*%
%ADD75R,0.04760X0.00040*%
%ADD76R,0.03760X0.00040*%
%ADD77R,0.02800X0.00040*%
%ADD78R,0.04920X0.00040*%
%ADD79R,0.03880X0.00040*%
%ADD80R,0.05000X0.00040*%
%ADD81R,0.03960X0.00040*%
%ADD82R,0.05120X0.00040*%
%ADD83R,0.04080X0.00040*%
%ADD84R,0.02840X0.00040*%
%ADD85R,0.05200X0.00040*%
%ADD86R,0.04160X0.00040*%
%ADD87R,0.02840X0.00040*%
%ADD88R,0.05280X0.00040*%
%ADD89R,0.04240X0.00040*%
%ADD90R,0.01880X0.00040*%
%ADD91R,0.02000X0.00040*%
%ADD92R,0.01720X0.00040*%
%ADD93R,0.01720X0.00040*%
%ADD94R,0.02800X0.00040*%
%ADD95R,0.01880X0.00040*%
%ADD96R,0.01640X0.00040*%
%ADD97R,0.01800X0.00040*%
%ADD98R,0.01560X0.00040*%
%ADD99R,0.01760X0.00040*%
%ADD100R,0.01520X0.00040*%
%ADD101R,0.01600X0.00040*%
%ADD102R,0.01440X0.00040*%
%ADD103R,0.01680X0.00040*%
%ADD104R,0.01560X0.00040*%
%ADD105R,0.01440X0.00040*%
%ADD106R,0.01400X0.00040*%
%ADD107R,0.01320X0.00040*%
%ADD108R,0.01280X0.00040*%
%ADD109R,0.01360X0.00040*%
%ADD110R,0.01360X0.00040*%
%ADD111R,0.01240X0.00040*%
%ADD112R,0.01440X0.00040*%
%ADD113R,0.01320X0.00040*%
%ADD114R,0.01320X0.00040*%
%ADD115R,0.01200X0.00040*%
%ADD116R,0.01360X0.00040*%
%ADD117R,0.01280X0.00040*%
%ADD118R,0.01280X0.00040*%
%ADD119R,0.01160X0.00040*%
%ADD120R,0.01280X0.00040*%
%ADD121R,0.01240X0.00040*%
%ADD122R,0.01120X0.00040*%
%ADD123R,0.01120X0.00040*%
%ADD124R,0.01080X0.00040*%
%ADD125R,0.01200X0.00040*%
%ADD126R,0.01240X0.00040*%
%ADD127R,0.01080X0.00040*%
%ADD128R,0.01160X0.00040*%
%ADD129R,0.01080X0.00040*%
%ADD130R,0.01120X0.00040*%
%ADD131R,0.00920X0.00040*%
%ADD132R,0.01080X0.00040*%
%ADD133R,0.01040X0.00040*%
%ADD134R,0.00640X0.00040*%
%ADD135R,0.00600X0.00040*%
%ADD136R,0.00440X0.00040*%
%ADD137R,0.00320X0.00040*%
%ADD138R,0.01480X0.00040*%
%ADD139R,0.01520X0.00040*%
%ADD140R,0.01680X0.00040*%
%ADD141R,0.01720X0.00040*%
%ADD142R,0.01760X0.00040*%
%ADD143R,0.01840X0.00040*%
%ADD144R,0.01920X0.00040*%
%ADD145R,0.01960X0.00040*%
%ADD146R,0.01120X0.00040*%
%ADD147R,0.01160X0.00040*%
%ADD148R,0.02040X0.00040*%
%ADD149R,0.02160X0.00040*%
%ADD150R,0.02280X0.00040*%
%ADD151R,0.02440X0.00040*%
%ADD152R,0.02480X0.00040*%
%ADD153R,0.02560X0.00040*%
%ADD154R,0.01360X0.00040*%
%ADD155R,0.02600X0.00040*%
%ADD156R,0.02680X0.00040*%
%ADD157R,0.02720X0.00040*%
%ADD158R,0.02720X0.00040*%
%ADD159R,0.01520X0.00040*%
%ADD160R,0.01560X0.00040*%
%ADD161R,0.02760X0.00040*%
%ADD162R,0.02760X0.00040*%
%ADD163R,0.01320X0.00040*%
%ADD164R,0.01760X0.00040*%
%ADD165R,0.01920X0.00040*%
%ADD166R,0.01480X0.00040*%
%ADD167R,0.02040X0.00040*%
%ADD168R,0.01640X0.00040*%
%ADD169R,0.01680X0.00040*%
%ADD170R,0.02560X0.00040*%
%ADD171R,0.01880X0.00040*%
%ADD172R,0.01880X0.00040*%
%ADD173R,0.01440X0.00040*%
%ADD174R,0.01920X0.00040*%
%ADD175R,0.04280X0.00040*%
%ADD176R,0.03120X0.00040*%
%ADD177R,0.02440X0.00040*%
%ADD178R,0.03200X0.00040*%
%ADD179R,0.03840X0.00040*%
%ADD180R,0.02360X0.00040*%
%ADD181R,0.04200X0.00040*%
%ADD182R,0.03240X0.00040*%
%ADD183R,0.03800X0.00040*%
%ADD184R,0.02280X0.00040*%
%ADD185R,0.04040X0.00040*%
%ADD186R,0.03280X0.00040*%
%ADD187R,0.03680X0.00040*%
%ADD188R,0.02200X0.00040*%
%ADD189R,0.03320X0.00040*%
%ADD190R,0.03600X0.00040*%
%ADD191R,0.03320X0.00040*%
%ADD192R,0.03520X0.00040*%
%ADD193R,0.02080X0.00040*%
%ADD194R,0.03440X0.00040*%
%ADD195R,0.02000X0.00040*%
%ADD196R,0.03680X0.00040*%
%ADD197R,0.03360X0.00040*%
%ADD198R,0.03200X0.00040*%
%ADD199R,0.03000X0.00040*%
%ADD200R,0.02880X0.00040*%
%ADD201R,0.02880X0.00040*%
%ADD202R,0.02640X0.00040*%
%ADD203R,0.02280X0.00040*%
%ADD204R,0.02120X0.00040*%
%ADD205R,0.03240X0.00040*%
%ADD206R,0.01920X0.00040*%
%ADD207R,0.00960X0.00040*%
%ADD208R,0.00240X0.00040*%
%ADD209R,0.00240X0.00040*%
%ADD210R,0.00080X0.00040*%
%ADD211R,0.00480X0.00040*%
%ADD212R,0.00680X0.00040*%
%ADD213R,0.00880X0.00040*%
%ADD214R,0.05240X0.00040*%
%ADD215R,0.05160X0.00040*%
%ADD216R,0.05080X0.00040*%
%ADD217R,0.05040X0.00040*%
%ADD218R,0.04960X0.00040*%
%ADD219R,0.00840X0.00040*%
%ADD220R,0.04920X0.00040*%
%ADD221R,0.04800X0.00040*%
%ADD222R,0.04720X0.00040*%
%ADD223R,0.03880X0.00040*%
%ADD224R,0.03720X0.00040*%
%ADD225R,0.03400X0.00040*%
%ADD226R,0.02960X0.00040*%
%ADD227R,0.02320X0.00040*%
%ADD228R,0.00560X0.00040*%
%ADD229R,0.00880X0.00040*%
%ADD230R,0.00800X0.00040*%
%ADD231R,0.00720X0.00040*%
D10*
X0117144Y0085077D02*
X0118645Y0085077D01*
X0117894Y0085077D02*
X0117894Y0089581D01*
X0117144Y0089581D02*
X0118645Y0089581D01*
X0120213Y0088830D02*
X0120213Y0085827D01*
X0120964Y0085077D01*
X0122465Y0085077D01*
X0123216Y0085827D01*
X0124817Y0085077D02*
X0127820Y0088079D01*
X0127820Y0088830D01*
X0127069Y0089581D01*
X0125568Y0089581D01*
X0124817Y0088830D01*
X0123216Y0088830D02*
X0122465Y0089581D01*
X0120964Y0089581D01*
X0120213Y0088830D01*
X0124817Y0085077D02*
X0127820Y0085077D01*
X0160569Y0079226D02*
X0162070Y0079226D01*
X0161320Y0079226D02*
X0161320Y0074722D01*
X0162070Y0074722D02*
X0160569Y0074722D01*
X0163638Y0075473D02*
X0163638Y0078476D01*
X0164389Y0079226D01*
X0165890Y0079226D01*
X0166641Y0078476D01*
X0168242Y0077725D02*
X0169743Y0079226D01*
X0169743Y0074722D01*
X0168242Y0074722D02*
X0171245Y0074722D01*
X0166641Y0075473D02*
X0165890Y0074722D01*
X0164389Y0074722D01*
X0163638Y0075473D01*
X0091958Y0120568D02*
X0091958Y0121318D01*
X0091207Y0122069D01*
X0087454Y0122069D01*
X0087454Y0121318D02*
X0087454Y0122820D01*
X0087454Y0124421D02*
X0087454Y0126673D01*
X0088205Y0127423D01*
X0089706Y0127423D01*
X0090457Y0126673D01*
X0090457Y0124421D01*
X0091958Y0124421D02*
X0087454Y0124421D01*
X0091958Y0120568D02*
X0091207Y0119817D01*
X0091958Y0129025D02*
X0091958Y0132027D01*
X0091958Y0130526D02*
X0087454Y0130526D01*
X0088955Y0129025D01*
X0117144Y0159486D02*
X0118645Y0159486D01*
X0117894Y0159486D02*
X0117894Y0163990D01*
X0117144Y0163990D02*
X0118645Y0163990D01*
X0120213Y0163239D02*
X0120213Y0160237D01*
X0120964Y0159486D01*
X0122465Y0159486D01*
X0123216Y0160237D01*
X0124817Y0159486D02*
X0127820Y0162489D01*
X0127820Y0163239D01*
X0127069Y0163990D01*
X0125568Y0163990D01*
X0124817Y0163239D01*
X0123216Y0163239D02*
X0122465Y0163990D01*
X0120964Y0163990D01*
X0120213Y0163239D01*
X0124817Y0159486D02*
X0127820Y0159486D01*
X0160569Y0153636D02*
X0162070Y0153636D01*
X0161320Y0153636D02*
X0161320Y0149132D01*
X0162070Y0149132D02*
X0160569Y0149132D01*
X0163638Y0149883D02*
X0163638Y0152885D01*
X0164389Y0153636D01*
X0165890Y0153636D01*
X0166641Y0152885D01*
X0168242Y0152134D02*
X0169743Y0153636D01*
X0169743Y0149132D01*
X0168242Y0149132D02*
X0171245Y0149132D01*
X0166641Y0149883D02*
X0165890Y0149132D01*
X0164389Y0149132D01*
X0163638Y0149883D01*
X0164389Y0223541D02*
X0165890Y0223541D01*
X0166641Y0224292D01*
X0168242Y0223541D02*
X0171245Y0223541D01*
X0169743Y0223541D02*
X0169743Y0228045D01*
X0168242Y0226544D01*
X0166641Y0227295D02*
X0165890Y0228045D01*
X0164389Y0228045D01*
X0163638Y0227295D01*
X0163638Y0224292D01*
X0164389Y0223541D01*
X0162070Y0223541D02*
X0160569Y0223541D01*
X0161320Y0223541D02*
X0161320Y0228045D01*
X0162070Y0228045D02*
X0160569Y0228045D01*
X0127820Y0233896D02*
X0124817Y0233896D01*
X0127820Y0236898D01*
X0127820Y0237649D01*
X0127069Y0238400D01*
X0125568Y0238400D01*
X0124817Y0237649D01*
X0123216Y0237649D02*
X0122465Y0238400D01*
X0120964Y0238400D01*
X0120213Y0237649D01*
X0120213Y0234646D01*
X0120964Y0233896D01*
X0122465Y0233896D01*
X0123216Y0234646D01*
X0118645Y0233896D02*
X0117144Y0233896D01*
X0117894Y0233896D02*
X0117894Y0238400D01*
X0117144Y0238400D02*
X0118645Y0238400D01*
X0089632Y0268636D02*
X0090383Y0269386D01*
X0090383Y0270137D01*
X0089632Y0270888D01*
X0085879Y0270888D01*
X0085879Y0271638D02*
X0085879Y0270137D01*
X0085879Y0273240D02*
X0085879Y0275492D01*
X0086630Y0276242D01*
X0088131Y0276242D01*
X0088882Y0275492D01*
X0088882Y0273240D01*
X0090383Y0273240D02*
X0085879Y0273240D01*
X0087380Y0277844D02*
X0085879Y0279345D01*
X0090383Y0279345D01*
X0090383Y0277844D02*
X0090383Y0280846D01*
X0091170Y0206437D02*
X0091170Y0203434D01*
X0091170Y0204936D02*
X0086667Y0204936D01*
X0088168Y0203434D01*
X0087417Y0201833D02*
X0088919Y0201833D01*
X0089669Y0201082D01*
X0089669Y0198830D01*
X0091170Y0198830D02*
X0086667Y0198830D01*
X0086667Y0201082D01*
X0087417Y0201833D01*
X0086667Y0197229D02*
X0086667Y0195728D01*
X0086667Y0196478D02*
X0090420Y0196478D01*
X0091170Y0195728D01*
X0091170Y0194977D01*
X0090420Y0194226D01*
D11*
X0104689Y0205874D02*
X0112189Y0205874D01*
X0112191Y0205748D01*
X0112197Y0205623D01*
X0112207Y0205498D01*
X0112221Y0205373D01*
X0112238Y0205248D01*
X0112260Y0205124D01*
X0112285Y0205001D01*
X0112315Y0204879D01*
X0112348Y0204758D01*
X0112385Y0204638D01*
X0112425Y0204519D01*
X0112470Y0204402D01*
X0112518Y0204285D01*
X0112570Y0204171D01*
X0112625Y0204058D01*
X0112684Y0203947D01*
X0112746Y0203838D01*
X0112812Y0203731D01*
X0112881Y0203626D01*
X0112953Y0203523D01*
X0113028Y0203422D01*
X0113107Y0203324D01*
X0113189Y0203229D01*
X0113273Y0203136D01*
X0113361Y0203046D01*
X0113451Y0202958D01*
X0113544Y0202874D01*
X0113639Y0202792D01*
X0113737Y0202713D01*
X0113838Y0202638D01*
X0113941Y0202566D01*
X0114046Y0202497D01*
X0114153Y0202431D01*
X0114262Y0202369D01*
X0114373Y0202310D01*
X0114486Y0202255D01*
X0114600Y0202203D01*
X0114717Y0202155D01*
X0114834Y0202110D01*
X0114953Y0202070D01*
X0115073Y0202033D01*
X0115194Y0202000D01*
X0115316Y0201970D01*
X0115439Y0201945D01*
X0115563Y0201923D01*
X0115688Y0201906D01*
X0115813Y0201892D01*
X0115938Y0201882D01*
X0116063Y0201876D01*
X0116189Y0201874D01*
X0116315Y0201876D01*
X0116440Y0201882D01*
X0116565Y0201892D01*
X0116690Y0201906D01*
X0116815Y0201923D01*
X0116939Y0201945D01*
X0117062Y0201970D01*
X0117184Y0202000D01*
X0117305Y0202033D01*
X0117425Y0202070D01*
X0117544Y0202110D01*
X0117661Y0202155D01*
X0117778Y0202203D01*
X0117892Y0202255D01*
X0118005Y0202310D01*
X0118116Y0202369D01*
X0118225Y0202431D01*
X0118332Y0202497D01*
X0118437Y0202566D01*
X0118540Y0202638D01*
X0118641Y0202713D01*
X0118739Y0202792D01*
X0118834Y0202874D01*
X0118927Y0202958D01*
X0119017Y0203046D01*
X0119105Y0203136D01*
X0119189Y0203229D01*
X0119271Y0203324D01*
X0119350Y0203422D01*
X0119425Y0203523D01*
X0119497Y0203626D01*
X0119566Y0203731D01*
X0119632Y0203838D01*
X0119694Y0203947D01*
X0119753Y0204058D01*
X0119808Y0204171D01*
X0119860Y0204285D01*
X0119908Y0204402D01*
X0119953Y0204519D01*
X0119993Y0204638D01*
X0120030Y0204758D01*
X0120063Y0204879D01*
X0120093Y0205001D01*
X0120118Y0205124D01*
X0120140Y0205248D01*
X0120157Y0205373D01*
X0120171Y0205498D01*
X0120181Y0205623D01*
X0120187Y0205748D01*
X0120189Y0205874D01*
X0127689Y0205874D01*
X0127689Y0165874D01*
X0104689Y0165874D01*
X0104689Y0205874D01*
X0104689Y0240283D02*
X0127689Y0240283D01*
X0127689Y0280283D01*
X0120189Y0280283D01*
X0120187Y0280157D01*
X0120181Y0280032D01*
X0120171Y0279907D01*
X0120157Y0279782D01*
X0120140Y0279657D01*
X0120118Y0279533D01*
X0120093Y0279410D01*
X0120063Y0279288D01*
X0120030Y0279167D01*
X0119993Y0279047D01*
X0119953Y0278928D01*
X0119908Y0278811D01*
X0119860Y0278694D01*
X0119808Y0278580D01*
X0119753Y0278467D01*
X0119694Y0278356D01*
X0119632Y0278247D01*
X0119566Y0278140D01*
X0119497Y0278035D01*
X0119425Y0277932D01*
X0119350Y0277831D01*
X0119271Y0277733D01*
X0119189Y0277638D01*
X0119105Y0277545D01*
X0119017Y0277455D01*
X0118927Y0277367D01*
X0118834Y0277283D01*
X0118739Y0277201D01*
X0118641Y0277122D01*
X0118540Y0277047D01*
X0118437Y0276975D01*
X0118332Y0276906D01*
X0118225Y0276840D01*
X0118116Y0276778D01*
X0118005Y0276719D01*
X0117892Y0276664D01*
X0117778Y0276612D01*
X0117661Y0276564D01*
X0117544Y0276519D01*
X0117425Y0276479D01*
X0117305Y0276442D01*
X0117184Y0276409D01*
X0117062Y0276379D01*
X0116939Y0276354D01*
X0116815Y0276332D01*
X0116690Y0276315D01*
X0116565Y0276301D01*
X0116440Y0276291D01*
X0116315Y0276285D01*
X0116189Y0276283D01*
X0116063Y0276285D01*
X0115938Y0276291D01*
X0115813Y0276301D01*
X0115688Y0276315D01*
X0115563Y0276332D01*
X0115439Y0276354D01*
X0115316Y0276379D01*
X0115194Y0276409D01*
X0115073Y0276442D01*
X0114953Y0276479D01*
X0114834Y0276519D01*
X0114717Y0276564D01*
X0114600Y0276612D01*
X0114486Y0276664D01*
X0114373Y0276719D01*
X0114262Y0276778D01*
X0114153Y0276840D01*
X0114046Y0276906D01*
X0113941Y0276975D01*
X0113838Y0277047D01*
X0113737Y0277122D01*
X0113639Y0277201D01*
X0113544Y0277283D01*
X0113451Y0277367D01*
X0113361Y0277455D01*
X0113273Y0277545D01*
X0113189Y0277638D01*
X0113107Y0277733D01*
X0113028Y0277831D01*
X0112953Y0277932D01*
X0112881Y0278035D01*
X0112812Y0278140D01*
X0112746Y0278247D01*
X0112684Y0278356D01*
X0112625Y0278467D01*
X0112570Y0278580D01*
X0112518Y0278694D01*
X0112470Y0278811D01*
X0112425Y0278928D01*
X0112385Y0279047D01*
X0112348Y0279167D01*
X0112315Y0279288D01*
X0112285Y0279410D01*
X0112260Y0279533D01*
X0112238Y0279657D01*
X0112221Y0279782D01*
X0112207Y0279907D01*
X0112197Y0280032D01*
X0112191Y0280157D01*
X0112189Y0280283D01*
X0104689Y0280283D01*
X0104689Y0240283D01*
X0147327Y0230165D02*
X0170327Y0230165D01*
X0170327Y0280165D01*
X0162827Y0280165D01*
X0162825Y0280039D01*
X0162819Y0279914D01*
X0162809Y0279789D01*
X0162795Y0279664D01*
X0162778Y0279539D01*
X0162756Y0279415D01*
X0162731Y0279292D01*
X0162701Y0279170D01*
X0162668Y0279049D01*
X0162631Y0278929D01*
X0162591Y0278810D01*
X0162546Y0278693D01*
X0162498Y0278576D01*
X0162446Y0278462D01*
X0162391Y0278349D01*
X0162332Y0278238D01*
X0162270Y0278129D01*
X0162204Y0278022D01*
X0162135Y0277917D01*
X0162063Y0277814D01*
X0161988Y0277713D01*
X0161909Y0277615D01*
X0161827Y0277520D01*
X0161743Y0277427D01*
X0161655Y0277337D01*
X0161565Y0277249D01*
X0161472Y0277165D01*
X0161377Y0277083D01*
X0161279Y0277004D01*
X0161178Y0276929D01*
X0161075Y0276857D01*
X0160970Y0276788D01*
X0160863Y0276722D01*
X0160754Y0276660D01*
X0160643Y0276601D01*
X0160530Y0276546D01*
X0160416Y0276494D01*
X0160299Y0276446D01*
X0160182Y0276401D01*
X0160063Y0276361D01*
X0159943Y0276324D01*
X0159822Y0276291D01*
X0159700Y0276261D01*
X0159577Y0276236D01*
X0159453Y0276214D01*
X0159328Y0276197D01*
X0159203Y0276183D01*
X0159078Y0276173D01*
X0158953Y0276167D01*
X0158827Y0276165D01*
X0158701Y0276167D01*
X0158576Y0276173D01*
X0158451Y0276183D01*
X0158326Y0276197D01*
X0158201Y0276214D01*
X0158077Y0276236D01*
X0157954Y0276261D01*
X0157832Y0276291D01*
X0157711Y0276324D01*
X0157591Y0276361D01*
X0157472Y0276401D01*
X0157355Y0276446D01*
X0157238Y0276494D01*
X0157124Y0276546D01*
X0157011Y0276601D01*
X0156900Y0276660D01*
X0156791Y0276722D01*
X0156684Y0276788D01*
X0156579Y0276857D01*
X0156476Y0276929D01*
X0156375Y0277004D01*
X0156277Y0277083D01*
X0156182Y0277165D01*
X0156089Y0277249D01*
X0155999Y0277337D01*
X0155911Y0277427D01*
X0155827Y0277520D01*
X0155745Y0277615D01*
X0155666Y0277713D01*
X0155591Y0277814D01*
X0155519Y0277917D01*
X0155450Y0278022D01*
X0155384Y0278129D01*
X0155322Y0278238D01*
X0155263Y0278349D01*
X0155208Y0278462D01*
X0155156Y0278576D01*
X0155108Y0278693D01*
X0155063Y0278810D01*
X0155023Y0278929D01*
X0154986Y0279049D01*
X0154953Y0279170D01*
X0154923Y0279292D01*
X0154898Y0279415D01*
X0154876Y0279539D01*
X0154859Y0279664D01*
X0154845Y0279789D01*
X0154835Y0279914D01*
X0154829Y0280039D01*
X0154827Y0280165D01*
X0147327Y0280165D01*
X0147327Y0230165D01*
X0147327Y0205756D02*
X0154827Y0205756D01*
X0154829Y0205630D01*
X0154835Y0205505D01*
X0154845Y0205380D01*
X0154859Y0205255D01*
X0154876Y0205130D01*
X0154898Y0205006D01*
X0154923Y0204883D01*
X0154953Y0204761D01*
X0154986Y0204640D01*
X0155023Y0204520D01*
X0155063Y0204401D01*
X0155108Y0204284D01*
X0155156Y0204167D01*
X0155208Y0204053D01*
X0155263Y0203940D01*
X0155322Y0203829D01*
X0155384Y0203720D01*
X0155450Y0203613D01*
X0155519Y0203508D01*
X0155591Y0203405D01*
X0155666Y0203304D01*
X0155745Y0203206D01*
X0155827Y0203111D01*
X0155911Y0203018D01*
X0155999Y0202928D01*
X0156089Y0202840D01*
X0156182Y0202756D01*
X0156277Y0202674D01*
X0156375Y0202595D01*
X0156476Y0202520D01*
X0156579Y0202448D01*
X0156684Y0202379D01*
X0156791Y0202313D01*
X0156900Y0202251D01*
X0157011Y0202192D01*
X0157124Y0202137D01*
X0157238Y0202085D01*
X0157355Y0202037D01*
X0157472Y0201992D01*
X0157591Y0201952D01*
X0157711Y0201915D01*
X0157832Y0201882D01*
X0157954Y0201852D01*
X0158077Y0201827D01*
X0158201Y0201805D01*
X0158326Y0201788D01*
X0158451Y0201774D01*
X0158576Y0201764D01*
X0158701Y0201758D01*
X0158827Y0201756D01*
X0158953Y0201758D01*
X0159078Y0201764D01*
X0159203Y0201774D01*
X0159328Y0201788D01*
X0159453Y0201805D01*
X0159577Y0201827D01*
X0159700Y0201852D01*
X0159822Y0201882D01*
X0159943Y0201915D01*
X0160063Y0201952D01*
X0160182Y0201992D01*
X0160299Y0202037D01*
X0160416Y0202085D01*
X0160530Y0202137D01*
X0160643Y0202192D01*
X0160754Y0202251D01*
X0160863Y0202313D01*
X0160970Y0202379D01*
X0161075Y0202448D01*
X0161178Y0202520D01*
X0161279Y0202595D01*
X0161377Y0202674D01*
X0161472Y0202756D01*
X0161565Y0202840D01*
X0161655Y0202928D01*
X0161743Y0203018D01*
X0161827Y0203111D01*
X0161909Y0203206D01*
X0161988Y0203304D01*
X0162063Y0203405D01*
X0162135Y0203508D01*
X0162204Y0203613D01*
X0162270Y0203720D01*
X0162332Y0203829D01*
X0162391Y0203940D01*
X0162446Y0204053D01*
X0162498Y0204167D01*
X0162546Y0204284D01*
X0162591Y0204401D01*
X0162631Y0204520D01*
X0162668Y0204640D01*
X0162701Y0204761D01*
X0162731Y0204883D01*
X0162756Y0205006D01*
X0162778Y0205130D01*
X0162795Y0205255D01*
X0162809Y0205380D01*
X0162819Y0205505D01*
X0162825Y0205630D01*
X0162827Y0205756D01*
X0170327Y0205756D01*
X0170327Y0155756D01*
X0147327Y0155756D01*
X0147327Y0205756D01*
X0147327Y0131346D02*
X0154827Y0131346D01*
X0154829Y0131220D01*
X0154835Y0131095D01*
X0154845Y0130970D01*
X0154859Y0130845D01*
X0154876Y0130720D01*
X0154898Y0130596D01*
X0154923Y0130473D01*
X0154953Y0130351D01*
X0154986Y0130230D01*
X0155023Y0130110D01*
X0155063Y0129991D01*
X0155108Y0129874D01*
X0155156Y0129757D01*
X0155208Y0129643D01*
X0155263Y0129530D01*
X0155322Y0129419D01*
X0155384Y0129310D01*
X0155450Y0129203D01*
X0155519Y0129098D01*
X0155591Y0128995D01*
X0155666Y0128894D01*
X0155745Y0128796D01*
X0155827Y0128701D01*
X0155911Y0128608D01*
X0155999Y0128518D01*
X0156089Y0128430D01*
X0156182Y0128346D01*
X0156277Y0128264D01*
X0156375Y0128185D01*
X0156476Y0128110D01*
X0156579Y0128038D01*
X0156684Y0127969D01*
X0156791Y0127903D01*
X0156900Y0127841D01*
X0157011Y0127782D01*
X0157124Y0127727D01*
X0157238Y0127675D01*
X0157355Y0127627D01*
X0157472Y0127582D01*
X0157591Y0127542D01*
X0157711Y0127505D01*
X0157832Y0127472D01*
X0157954Y0127442D01*
X0158077Y0127417D01*
X0158201Y0127395D01*
X0158326Y0127378D01*
X0158451Y0127364D01*
X0158576Y0127354D01*
X0158701Y0127348D01*
X0158827Y0127346D01*
X0158953Y0127348D01*
X0159078Y0127354D01*
X0159203Y0127364D01*
X0159328Y0127378D01*
X0159453Y0127395D01*
X0159577Y0127417D01*
X0159700Y0127442D01*
X0159822Y0127472D01*
X0159943Y0127505D01*
X0160063Y0127542D01*
X0160182Y0127582D01*
X0160299Y0127627D01*
X0160416Y0127675D01*
X0160530Y0127727D01*
X0160643Y0127782D01*
X0160754Y0127841D01*
X0160863Y0127903D01*
X0160970Y0127969D01*
X0161075Y0128038D01*
X0161178Y0128110D01*
X0161279Y0128185D01*
X0161377Y0128264D01*
X0161472Y0128346D01*
X0161565Y0128430D01*
X0161655Y0128518D01*
X0161743Y0128608D01*
X0161827Y0128701D01*
X0161909Y0128796D01*
X0161988Y0128894D01*
X0162063Y0128995D01*
X0162135Y0129098D01*
X0162204Y0129203D01*
X0162270Y0129310D01*
X0162332Y0129419D01*
X0162391Y0129530D01*
X0162446Y0129643D01*
X0162498Y0129757D01*
X0162546Y0129874D01*
X0162591Y0129991D01*
X0162631Y0130110D01*
X0162668Y0130230D01*
X0162701Y0130351D01*
X0162731Y0130473D01*
X0162756Y0130596D01*
X0162778Y0130720D01*
X0162795Y0130845D01*
X0162809Y0130970D01*
X0162819Y0131095D01*
X0162825Y0131220D01*
X0162827Y0131346D01*
X0170327Y0131346D01*
X0170327Y0081346D01*
X0147327Y0081346D01*
X0147327Y0131346D01*
X0127689Y0131465D02*
X0120189Y0131465D01*
X0120187Y0131339D01*
X0120181Y0131214D01*
X0120171Y0131089D01*
X0120157Y0130964D01*
X0120140Y0130839D01*
X0120118Y0130715D01*
X0120093Y0130592D01*
X0120063Y0130470D01*
X0120030Y0130349D01*
X0119993Y0130229D01*
X0119953Y0130110D01*
X0119908Y0129993D01*
X0119860Y0129876D01*
X0119808Y0129762D01*
X0119753Y0129649D01*
X0119694Y0129538D01*
X0119632Y0129429D01*
X0119566Y0129322D01*
X0119497Y0129217D01*
X0119425Y0129114D01*
X0119350Y0129013D01*
X0119271Y0128915D01*
X0119189Y0128820D01*
X0119105Y0128727D01*
X0119017Y0128637D01*
X0118927Y0128549D01*
X0118834Y0128465D01*
X0118739Y0128383D01*
X0118641Y0128304D01*
X0118540Y0128229D01*
X0118437Y0128157D01*
X0118332Y0128088D01*
X0118225Y0128022D01*
X0118116Y0127960D01*
X0118005Y0127901D01*
X0117892Y0127846D01*
X0117778Y0127794D01*
X0117661Y0127746D01*
X0117544Y0127701D01*
X0117425Y0127661D01*
X0117305Y0127624D01*
X0117184Y0127591D01*
X0117062Y0127561D01*
X0116939Y0127536D01*
X0116815Y0127514D01*
X0116690Y0127497D01*
X0116565Y0127483D01*
X0116440Y0127473D01*
X0116315Y0127467D01*
X0116189Y0127465D01*
X0116063Y0127467D01*
X0115938Y0127473D01*
X0115813Y0127483D01*
X0115688Y0127497D01*
X0115563Y0127514D01*
X0115439Y0127536D01*
X0115316Y0127561D01*
X0115194Y0127591D01*
X0115073Y0127624D01*
X0114953Y0127661D01*
X0114834Y0127701D01*
X0114717Y0127746D01*
X0114600Y0127794D01*
X0114486Y0127846D01*
X0114373Y0127901D01*
X0114262Y0127960D01*
X0114153Y0128022D01*
X0114046Y0128088D01*
X0113941Y0128157D01*
X0113838Y0128229D01*
X0113737Y0128304D01*
X0113639Y0128383D01*
X0113544Y0128465D01*
X0113451Y0128549D01*
X0113361Y0128637D01*
X0113273Y0128727D01*
X0113189Y0128820D01*
X0113107Y0128915D01*
X0113028Y0129013D01*
X0112953Y0129114D01*
X0112881Y0129217D01*
X0112812Y0129322D01*
X0112746Y0129429D01*
X0112684Y0129538D01*
X0112625Y0129649D01*
X0112570Y0129762D01*
X0112518Y0129876D01*
X0112470Y0129993D01*
X0112425Y0130110D01*
X0112385Y0130229D01*
X0112348Y0130349D01*
X0112315Y0130470D01*
X0112285Y0130592D01*
X0112260Y0130715D01*
X0112238Y0130839D01*
X0112221Y0130964D01*
X0112207Y0131089D01*
X0112197Y0131214D01*
X0112191Y0131339D01*
X0112189Y0131465D01*
X0104689Y0131465D01*
X0104689Y0091465D01*
X0127689Y0091465D01*
X0127689Y0131465D01*
D12*
X0082094Y0063768D02*
X0084594Y0061268D01*
X0089594Y0061268D01*
X0092094Y0063768D01*
X0092094Y0068768D01*
X0089594Y0071268D01*
X0092094Y0073768D01*
X0092094Y0078768D01*
X0089594Y0081268D01*
X0092094Y0083768D01*
X0092094Y0088768D01*
X0089594Y0091268D01*
X0092094Y0093768D01*
X0092094Y0098768D01*
X0089594Y0101268D01*
X0092094Y0103768D01*
X0092094Y0108768D01*
X0089594Y0111268D01*
X0092094Y0113768D01*
X0092094Y0118768D01*
X0089594Y0121268D01*
X0084594Y0121268D01*
X0082094Y0118768D01*
X0082094Y0113768D01*
X0084594Y0111268D01*
X0082094Y0108768D01*
X0082094Y0103768D01*
X0084594Y0101268D01*
X0082094Y0098768D01*
X0082094Y0093768D01*
X0084594Y0091268D01*
X0082094Y0088768D01*
X0082094Y0083768D01*
X0084594Y0081268D01*
X0082094Y0078768D01*
X0082094Y0073768D01*
X0084594Y0071268D01*
X0082094Y0068768D01*
X0082094Y0063768D01*
X0084594Y0135677D02*
X0089594Y0135677D01*
X0092094Y0138177D01*
X0092094Y0143177D01*
X0089594Y0145677D01*
X0092094Y0148177D01*
X0092094Y0153177D01*
X0089594Y0155677D01*
X0092094Y0158177D01*
X0092094Y0163177D01*
X0089594Y0165677D01*
X0092094Y0168177D01*
X0092094Y0173177D01*
X0089594Y0175677D01*
X0092094Y0178177D01*
X0092094Y0183177D01*
X0089594Y0185677D01*
X0092094Y0188177D01*
X0092094Y0193177D01*
X0089594Y0195677D01*
X0084594Y0195677D01*
X0082094Y0193177D01*
X0082094Y0188177D01*
X0084594Y0185677D01*
X0082094Y0183177D01*
X0082094Y0178177D01*
X0084594Y0175677D01*
X0082094Y0173177D01*
X0082094Y0168177D01*
X0084594Y0165677D01*
X0082094Y0163177D01*
X0082094Y0158177D01*
X0084594Y0155677D01*
X0082094Y0153177D01*
X0082094Y0148177D01*
X0084594Y0145677D01*
X0082094Y0143177D01*
X0082094Y0138177D01*
X0084594Y0135677D01*
X0084594Y0210087D02*
X0089594Y0210087D01*
X0092094Y0212587D01*
X0092094Y0217587D01*
X0089594Y0220087D01*
X0092094Y0222587D01*
X0092094Y0227587D01*
X0089594Y0230087D01*
X0092094Y0232587D01*
X0092094Y0237587D01*
X0089594Y0240087D01*
X0092094Y0242587D01*
X0092094Y0247587D01*
X0089594Y0250087D01*
X0092094Y0252587D01*
X0092094Y0257587D01*
X0089594Y0260087D01*
X0092094Y0262587D01*
X0092094Y0267587D01*
X0089594Y0270087D01*
X0084594Y0270087D01*
X0082094Y0267587D01*
X0082094Y0262587D01*
X0084594Y0260087D01*
X0082094Y0257587D01*
X0082094Y0252587D01*
X0084594Y0250087D01*
X0082094Y0247587D01*
X0082094Y0242587D01*
X0084594Y0240087D01*
X0082094Y0237587D01*
X0082094Y0232587D01*
X0084594Y0230087D01*
X0082094Y0227587D01*
X0082094Y0222587D01*
X0084594Y0220087D01*
X0082094Y0217587D01*
X0082094Y0212587D01*
X0084594Y0210087D01*
D13*
X0183315Y0207724D02*
X0183315Y0181346D01*
X0183315Y0169535D02*
X0183315Y0167173D01*
X0194732Y0167173D01*
X0194732Y0136858D01*
X0272291Y0136858D01*
X0272291Y0144732D01*
X0272291Y0133315D02*
X0272291Y0105756D01*
X0272291Y0094732D02*
X0272291Y0082134D01*
X0272291Y0070323D02*
X0272291Y0062449D01*
X0194732Y0062449D01*
X0194732Y0092764D01*
X0183315Y0092764D01*
X0183315Y0095126D01*
X0183315Y0106937D02*
X0183315Y0133315D01*
X0272291Y0133315D01*
X0272291Y0156543D02*
X0272291Y0169142D01*
X0272291Y0180165D02*
X0272291Y0207724D01*
X0183315Y0207724D01*
X0194732Y0211268D02*
X0194732Y0241583D01*
X0183315Y0241583D01*
X0183315Y0243945D01*
X0183315Y0255756D02*
X0183315Y0282134D01*
X0272291Y0282134D01*
X0272291Y0254575D01*
X0272291Y0243551D02*
X0272291Y0230953D01*
X0272291Y0219142D02*
X0272291Y0211268D01*
X0194732Y0211268D01*
D14*
X0106298Y0228554D03*
X0103818Y0218354D03*
X0106298Y0154145D03*
X0103818Y0143945D03*
X0106298Y0079735D03*
X0103818Y0069535D03*
D15*
X0111398Y0069535D03*
X0111398Y0143945D03*
X0111398Y0218354D03*
D16*
X0112938Y0219474D03*
X0105938Y0223314D03*
X0103778Y0218394D03*
X0101498Y0219634D03*
X0101978Y0225634D03*
X0102098Y0228674D03*
X0102098Y0154265D03*
X0101978Y0151225D03*
X0105938Y0148905D03*
X0103778Y0143985D03*
X0101498Y0145225D03*
X0112938Y0145065D03*
X0102098Y0079855D03*
X0101978Y0076815D03*
X0105938Y0074495D03*
X0103778Y0069575D03*
X0101498Y0070815D03*
X0112938Y0070655D03*
D17*
X0113518Y0071295D03*
X0113598Y0071415D03*
X0111398Y0069575D03*
X0109358Y0071175D03*
X0109318Y0071215D03*
X0109318Y0071255D03*
X0109278Y0071295D03*
X0106318Y0071375D03*
X0106278Y0071295D03*
X0106398Y0073775D03*
X0109278Y0075375D03*
X0113598Y0075255D03*
X0113598Y0075215D03*
X0116718Y0070975D03*
X0116758Y0070895D03*
X0122358Y0076055D03*
X0125758Y0075215D03*
X0125758Y0075175D03*
X0101598Y0077375D03*
X0101558Y0077415D03*
X0101558Y0077455D03*
X0101518Y0077575D03*
X0101678Y0079415D03*
X0101718Y0079455D03*
X0101198Y0071175D03*
X0111398Y0143985D03*
X0109358Y0145585D03*
X0109318Y0145625D03*
X0109318Y0145665D03*
X0109278Y0145705D03*
X0106318Y0145785D03*
X0106278Y0145705D03*
X0106398Y0148185D03*
X0109278Y0149785D03*
X0113598Y0149665D03*
X0113598Y0149625D03*
X0113598Y0145825D03*
X0113518Y0145705D03*
X0116718Y0145385D03*
X0116758Y0145305D03*
X0122358Y0150465D03*
X0125758Y0149625D03*
X0125758Y0149585D03*
X0101598Y0151785D03*
X0101558Y0151825D03*
X0101558Y0151865D03*
X0101518Y0151985D03*
X0101678Y0153825D03*
X0101718Y0153865D03*
X0101198Y0145585D03*
X0111398Y0218394D03*
X0109358Y0219994D03*
X0109318Y0220034D03*
X0109318Y0220074D03*
X0109278Y0220114D03*
X0106318Y0220194D03*
X0106278Y0220114D03*
X0106398Y0222594D03*
X0109278Y0224194D03*
X0113598Y0224074D03*
X0113598Y0224034D03*
X0113598Y0220234D03*
X0113518Y0220114D03*
X0116718Y0219794D03*
X0116758Y0219714D03*
X0122358Y0224874D03*
X0125758Y0224034D03*
X0125758Y0223994D03*
X0101598Y0226194D03*
X0101558Y0226234D03*
X0101558Y0226274D03*
X0101518Y0226394D03*
X0101678Y0228234D03*
X0101718Y0228274D03*
X0101198Y0219994D03*
D18*
X0101918Y0219394D03*
X0103798Y0218434D03*
X0102398Y0225314D03*
X0111398Y0218514D03*
X0118278Y0218634D03*
X0102398Y0150905D03*
X0101918Y0144985D03*
X0103798Y0144025D03*
X0111398Y0144105D03*
X0118278Y0144225D03*
X0102398Y0076495D03*
X0101918Y0070575D03*
X0103798Y0069615D03*
X0111398Y0069695D03*
X0118278Y0069815D03*
D19*
X0121398Y0075495D03*
X0125278Y0075855D03*
X0111398Y0069615D03*
X0105998Y0074415D03*
X0101438Y0070855D03*
X0111398Y0144025D03*
X0105998Y0148825D03*
X0101438Y0145265D03*
X0121398Y0149905D03*
X0125278Y0150265D03*
X0111398Y0218434D03*
X0105998Y0223234D03*
X0101438Y0219674D03*
X0121398Y0224314D03*
X0125278Y0224674D03*
D20*
X0103778Y0218474D03*
X0103778Y0144065D03*
X0103778Y0069655D03*
D21*
X0105678Y0070655D03*
X0111398Y0069655D03*
X0110038Y0076095D03*
X0102278Y0079975D03*
X0101678Y0070695D03*
X0111398Y0144065D03*
X0105678Y0145065D03*
X0101678Y0145105D03*
X0102278Y0154385D03*
X0110038Y0150505D03*
X0111398Y0218474D03*
X0105678Y0219474D03*
X0101678Y0219514D03*
X0102278Y0228794D03*
X0110038Y0224914D03*
D22*
X0106538Y0222074D03*
X0106538Y0220994D03*
X0106538Y0220914D03*
X0106538Y0220874D03*
X0106538Y0220834D03*
X0101138Y0220114D03*
X0116538Y0220234D03*
X0116538Y0220274D03*
X0116538Y0220314D03*
X0116538Y0220394D03*
X0116538Y0220434D03*
X0118538Y0218474D03*
X0125938Y0223474D03*
X0125938Y0223514D03*
X0125938Y0149105D03*
X0125938Y0149065D03*
X0118538Y0144065D03*
X0116538Y0145825D03*
X0116538Y0145865D03*
X0116538Y0145905D03*
X0116538Y0145985D03*
X0116538Y0146025D03*
X0106538Y0146425D03*
X0106538Y0146465D03*
X0106538Y0146505D03*
X0106538Y0146585D03*
X0106538Y0147665D03*
X0101138Y0145705D03*
X0106538Y0073255D03*
X0106538Y0072175D03*
X0106538Y0072095D03*
X0106538Y0072055D03*
X0106538Y0072015D03*
X0101138Y0071295D03*
X0116538Y0071415D03*
X0116538Y0071455D03*
X0116538Y0071495D03*
X0116538Y0071575D03*
X0116538Y0071615D03*
X0118538Y0069655D03*
X0125938Y0074655D03*
X0125938Y0074695D03*
D23*
X0121178Y0069655D03*
X0106378Y0079575D03*
X0121178Y0144065D03*
X0106378Y0153985D03*
X0121178Y0218474D03*
X0106378Y0228394D03*
D24*
X0125998Y0218474D03*
X0125998Y0144065D03*
X0125998Y0069655D03*
D25*
X0118058Y0070095D03*
X0103778Y0069695D03*
X0103258Y0076015D03*
X0103778Y0144105D03*
X0103258Y0150425D03*
X0118058Y0144505D03*
X0118058Y0218914D03*
X0103778Y0218514D03*
X0103258Y0224834D03*
D26*
X0101838Y0225794D03*
X0101998Y0228594D03*
X0106038Y0223194D03*
X0109678Y0224674D03*
X0113118Y0224674D03*
X0113158Y0224634D03*
X0113198Y0224594D03*
X0113078Y0219594D03*
X0109718Y0219594D03*
X0118438Y0218514D03*
X0121358Y0224234D03*
X0125358Y0224594D03*
X0101998Y0154185D03*
X0101838Y0151385D03*
X0106038Y0148785D03*
X0109678Y0150265D03*
X0113118Y0150265D03*
X0113158Y0150225D03*
X0113198Y0150185D03*
X0113078Y0145185D03*
X0109718Y0145185D03*
X0118438Y0144105D03*
X0121358Y0149825D03*
X0125358Y0150185D03*
X0101998Y0079775D03*
X0101838Y0076975D03*
X0106038Y0074375D03*
X0109678Y0075855D03*
X0113118Y0075855D03*
X0113158Y0075815D03*
X0113198Y0075775D03*
X0113078Y0070775D03*
X0109718Y0070775D03*
X0118438Y0069695D03*
X0121358Y0075415D03*
X0125358Y0075775D03*
D27*
X0121158Y0069695D03*
X0121158Y0144105D03*
X0121158Y0218514D03*
D28*
X0125998Y0218514D03*
X0101078Y0220474D03*
X0101078Y0146065D03*
X0125998Y0144105D03*
X0125998Y0069695D03*
X0101078Y0071655D03*
D29*
X0103758Y0069735D03*
X0117918Y0070335D03*
X0117918Y0144745D03*
X0103758Y0144145D03*
X0103758Y0218554D03*
X0117918Y0219154D03*
D30*
X0111398Y0218554D03*
X0102038Y0219354D03*
X0102038Y0144945D03*
X0111398Y0144145D03*
X0102038Y0070535D03*
X0111398Y0069735D03*
D31*
X0118358Y0069735D03*
X0118358Y0144145D03*
X0118358Y0218554D03*
D32*
X0121178Y0218554D03*
X0121178Y0144145D03*
X0121178Y0069735D03*
D33*
X0125998Y0069735D03*
X0101078Y0071535D03*
X0125998Y0144145D03*
X0101078Y0145945D03*
X0101078Y0220354D03*
X0125998Y0218554D03*
D34*
X0123758Y0225394D03*
X0117558Y0225834D03*
X0103758Y0218594D03*
X0117558Y0151425D03*
X0123758Y0150985D03*
X0103758Y0144185D03*
X0117558Y0077015D03*
X0123758Y0076575D03*
X0103758Y0069775D03*
D35*
X0102198Y0070495D03*
X0104958Y0075175D03*
X0102718Y0080095D03*
X0111398Y0069775D03*
X0111398Y0144185D03*
X0104958Y0149585D03*
X0102718Y0154505D03*
X0102198Y0144905D03*
X0111398Y0218594D03*
X0104958Y0223994D03*
X0102198Y0219314D03*
X0102718Y0228914D03*
D36*
X0102378Y0228834D03*
X0118298Y0218594D03*
X0121578Y0224634D03*
X0102378Y0154425D03*
X0118298Y0144185D03*
X0121578Y0150225D03*
X0102378Y0080015D03*
X0118298Y0069775D03*
X0121578Y0075815D03*
D37*
X0121158Y0069775D03*
X0125998Y0069775D03*
X0116518Y0080375D03*
X0101078Y0071495D03*
X0121158Y0144185D03*
X0125998Y0144185D03*
X0116518Y0154785D03*
X0101078Y0145905D03*
X0101078Y0220314D03*
X0116518Y0229194D03*
X0121158Y0218594D03*
X0125998Y0218594D03*
D38*
X0123778Y0225314D03*
X0111378Y0225434D03*
X0111378Y0218874D03*
X0103778Y0218634D03*
X0111378Y0151025D03*
X0111378Y0144465D03*
X0103778Y0144225D03*
X0123778Y0150905D03*
X0123778Y0076495D03*
X0111378Y0076615D03*
X0111378Y0070055D03*
X0103778Y0069815D03*
D39*
X0111398Y0069815D03*
X0111398Y0144225D03*
X0111398Y0218634D03*
D40*
X0121158Y0218634D03*
X0125998Y0218634D03*
X0101078Y0220274D03*
X0101078Y0145865D03*
X0121158Y0144225D03*
X0125998Y0144225D03*
X0125998Y0069815D03*
X0121158Y0069815D03*
X0101078Y0071455D03*
D41*
X0103758Y0069855D03*
X0103758Y0144265D03*
X0103758Y0218674D03*
D42*
X0104438Y0224274D03*
X0104278Y0229714D03*
X0111398Y0218674D03*
X0117678Y0219394D03*
X0104278Y0155305D03*
X0104438Y0149865D03*
X0111398Y0144265D03*
X0117678Y0144985D03*
X0104278Y0080895D03*
X0104438Y0075455D03*
X0111398Y0069855D03*
X0117678Y0070575D03*
D43*
X0118238Y0069855D03*
X0105238Y0075015D03*
X0102598Y0076375D03*
X0118238Y0144265D03*
X0105238Y0149425D03*
X0102598Y0150785D03*
X0118238Y0218674D03*
X0105238Y0223834D03*
X0102598Y0225194D03*
D44*
X0101098Y0220234D03*
X0121178Y0218674D03*
X0101098Y0145825D03*
X0121178Y0144265D03*
X0121178Y0069855D03*
X0101098Y0071415D03*
D45*
X0125998Y0069855D03*
X0125998Y0144265D03*
X0125998Y0218674D03*
D46*
X0111398Y0219034D03*
X0103758Y0218714D03*
X0103758Y0144305D03*
X0111398Y0144625D03*
X0111398Y0070215D03*
X0103758Y0069895D03*
D47*
X0104118Y0075575D03*
X0103958Y0075655D03*
X0103878Y0075695D03*
X0103558Y0075855D03*
X0111398Y0076775D03*
X0111398Y0069895D03*
X0117998Y0070215D03*
X0123758Y0076695D03*
X0117998Y0144625D03*
X0111398Y0144305D03*
X0111398Y0151185D03*
X0104118Y0149985D03*
X0103958Y0150065D03*
X0103878Y0150105D03*
X0103558Y0150265D03*
X0123758Y0151105D03*
X0117998Y0219034D03*
X0111398Y0218714D03*
X0111398Y0225594D03*
X0104118Y0224394D03*
X0103958Y0224474D03*
X0103878Y0224514D03*
X0103558Y0224674D03*
X0123758Y0225514D03*
D48*
X0123778Y0225674D03*
X0118218Y0218714D03*
X0105258Y0219314D03*
X0105098Y0223914D03*
X0105098Y0149505D03*
X0105258Y0144905D03*
X0118218Y0144305D03*
X0123778Y0151265D03*
X0123778Y0076855D03*
X0118218Y0069895D03*
X0105258Y0070495D03*
X0105098Y0075095D03*
D49*
X0116498Y0080255D03*
X0121178Y0081255D03*
X0121178Y0081295D03*
X0121178Y0069895D03*
X0121178Y0144305D03*
X0116498Y0154665D03*
X0121178Y0155665D03*
X0121178Y0155705D03*
X0121178Y0218714D03*
X0121178Y0230074D03*
X0121178Y0230114D03*
X0116498Y0229074D03*
D50*
X0116518Y0229034D03*
X0116518Y0228994D03*
X0116518Y0228914D03*
X0116518Y0228874D03*
X0116518Y0228834D03*
X0116518Y0228794D03*
X0116518Y0228714D03*
X0116518Y0228674D03*
X0116518Y0228634D03*
X0116518Y0228594D03*
X0116518Y0228514D03*
X0116518Y0228474D03*
X0116518Y0228434D03*
X0116518Y0228394D03*
X0116518Y0228314D03*
X0116518Y0228274D03*
X0116518Y0228234D03*
X0116518Y0228194D03*
X0116518Y0228114D03*
X0116518Y0228074D03*
X0116518Y0228034D03*
X0116518Y0227994D03*
X0116518Y0227914D03*
X0116518Y0227874D03*
X0116518Y0227834D03*
X0116518Y0227794D03*
X0116518Y0227714D03*
X0116518Y0227674D03*
X0116518Y0227634D03*
X0116518Y0227594D03*
X0116518Y0227514D03*
X0116518Y0227474D03*
X0116518Y0227434D03*
X0116518Y0227394D03*
X0116518Y0227314D03*
X0116518Y0227274D03*
X0116518Y0227234D03*
X0116518Y0227194D03*
X0116518Y0227114D03*
X0116518Y0227074D03*
X0116518Y0227034D03*
X0116518Y0226994D03*
X0116518Y0226914D03*
X0116518Y0226874D03*
X0116518Y0226834D03*
X0116518Y0226794D03*
X0116518Y0226714D03*
X0116518Y0226674D03*
X0116518Y0226634D03*
X0116518Y0226594D03*
X0116518Y0226514D03*
X0116518Y0226474D03*
X0116518Y0226434D03*
X0116518Y0226394D03*
X0116518Y0226314D03*
X0116518Y0226274D03*
X0116518Y0226234D03*
X0116518Y0226194D03*
X0116518Y0226114D03*
X0116518Y0226074D03*
X0116518Y0226034D03*
X0116518Y0225994D03*
X0116518Y0225914D03*
X0116518Y0225874D03*
X0116518Y0224914D03*
X0116518Y0224874D03*
X0116518Y0224834D03*
X0116518Y0224794D03*
X0116518Y0224714D03*
X0116518Y0224674D03*
X0116518Y0224634D03*
X0116518Y0224594D03*
X0116518Y0224514D03*
X0116518Y0224474D03*
X0116518Y0224434D03*
X0116518Y0224394D03*
X0116518Y0224314D03*
X0116518Y0224274D03*
X0116518Y0224234D03*
X0116518Y0224194D03*
X0116518Y0224114D03*
X0116518Y0224074D03*
X0116518Y0224034D03*
X0116518Y0223994D03*
X0116518Y0223914D03*
X0116518Y0223874D03*
X0116518Y0223834D03*
X0116518Y0223794D03*
X0116518Y0223714D03*
X0116518Y0223674D03*
X0116518Y0223634D03*
X0116518Y0223594D03*
X0116518Y0223514D03*
X0116518Y0223474D03*
X0116518Y0223434D03*
X0116518Y0223394D03*
X0116518Y0223314D03*
X0116518Y0223274D03*
X0116518Y0223234D03*
X0116518Y0223194D03*
X0116518Y0223114D03*
X0116518Y0223074D03*
X0116518Y0223034D03*
X0116518Y0222994D03*
X0116518Y0222914D03*
X0116518Y0222874D03*
X0116518Y0222834D03*
X0116518Y0222794D03*
X0116518Y0222714D03*
X0116518Y0222674D03*
X0116518Y0222634D03*
X0116518Y0222594D03*
X0116518Y0222514D03*
X0116518Y0222474D03*
X0116518Y0222434D03*
X0116518Y0222394D03*
X0116518Y0222314D03*
X0116518Y0222274D03*
X0116518Y0222234D03*
X0116518Y0222194D03*
X0116518Y0222114D03*
X0116518Y0222074D03*
X0116518Y0222034D03*
X0116518Y0221994D03*
X0116518Y0221914D03*
X0116518Y0221874D03*
X0116518Y0221834D03*
X0116518Y0221794D03*
X0116518Y0221714D03*
X0116518Y0221674D03*
X0116518Y0221634D03*
X0116518Y0221594D03*
X0116518Y0221514D03*
X0116518Y0221474D03*
X0116518Y0221434D03*
X0116518Y0221394D03*
X0116518Y0221314D03*
X0116518Y0221274D03*
X0116518Y0221234D03*
X0116518Y0221194D03*
X0116518Y0221114D03*
X0116518Y0221074D03*
X0116518Y0221034D03*
X0116518Y0220994D03*
X0116518Y0220914D03*
X0116518Y0220874D03*
X0116518Y0220834D03*
X0116518Y0220794D03*
X0116518Y0220714D03*
X0116518Y0220674D03*
X0116518Y0220634D03*
X0116518Y0220594D03*
X0116518Y0220514D03*
X0116518Y0220474D03*
X0113838Y0220994D03*
X0113838Y0221034D03*
X0113838Y0221074D03*
X0113838Y0221114D03*
X0113838Y0221194D03*
X0113878Y0221274D03*
X0113878Y0221314D03*
X0113878Y0221394D03*
X0113878Y0221434D03*
X0113878Y0221474D03*
X0113878Y0221514D03*
X0113878Y0221594D03*
X0113878Y0221634D03*
X0113878Y0221674D03*
X0113878Y0221714D03*
X0113878Y0221794D03*
X0113878Y0221834D03*
X0113878Y0221874D03*
X0113878Y0221914D03*
X0113878Y0221994D03*
X0113878Y0222034D03*
X0113878Y0222074D03*
X0113878Y0222114D03*
X0113878Y0222194D03*
X0113878Y0222234D03*
X0113878Y0222274D03*
X0113878Y0222314D03*
X0113878Y0222394D03*
X0113878Y0222434D03*
X0113878Y0222474D03*
X0113878Y0222514D03*
X0113878Y0222594D03*
X0113878Y0222634D03*
X0113878Y0222674D03*
X0113878Y0222714D03*
X0113878Y0222794D03*
X0113878Y0222834D03*
X0113878Y0222874D03*
X0113878Y0222914D03*
X0113878Y0222994D03*
X0113878Y0223034D03*
X0113838Y0223194D03*
X0113838Y0223234D03*
X0113838Y0223274D03*
X0113838Y0223314D03*
X0108958Y0223234D03*
X0108958Y0223194D03*
X0108958Y0223114D03*
X0108958Y0223074D03*
X0108958Y0223034D03*
X0108958Y0222994D03*
X0108958Y0222914D03*
X0108958Y0222874D03*
X0108958Y0222834D03*
X0108958Y0222794D03*
X0108958Y0222714D03*
X0108958Y0222674D03*
X0108958Y0222634D03*
X0108958Y0222594D03*
X0108958Y0222514D03*
X0108958Y0222474D03*
X0108958Y0222434D03*
X0108958Y0222394D03*
X0108958Y0222314D03*
X0108958Y0222274D03*
X0108958Y0222234D03*
X0108958Y0222194D03*
X0108958Y0222114D03*
X0108958Y0222074D03*
X0108958Y0222034D03*
X0108958Y0221994D03*
X0108958Y0221914D03*
X0108958Y0221874D03*
X0108958Y0221834D03*
X0108958Y0221794D03*
X0108958Y0221714D03*
X0108958Y0221674D03*
X0108958Y0221634D03*
X0108958Y0221594D03*
X0108958Y0221514D03*
X0108958Y0221474D03*
X0108958Y0221434D03*
X0108958Y0221394D03*
X0108958Y0221314D03*
X0108958Y0221274D03*
X0108958Y0221234D03*
X0108958Y0221194D03*
X0108958Y0221114D03*
X0108958Y0221074D03*
X0106238Y0228634D03*
X0121158Y0230034D03*
X0122238Y0224794D03*
X0125998Y0223114D03*
X0125998Y0223074D03*
X0125998Y0223034D03*
X0125998Y0222994D03*
X0125998Y0222914D03*
X0125998Y0222874D03*
X0125998Y0222834D03*
X0125998Y0222794D03*
X0125998Y0222714D03*
X0125998Y0222674D03*
X0125998Y0222634D03*
X0125998Y0222594D03*
X0125998Y0222514D03*
X0125998Y0222474D03*
X0125998Y0222434D03*
X0125998Y0222394D03*
X0125998Y0222314D03*
X0125998Y0222274D03*
X0125998Y0222234D03*
X0125998Y0222194D03*
X0125998Y0222114D03*
X0125998Y0222074D03*
X0125998Y0222034D03*
X0125998Y0221994D03*
X0125998Y0221914D03*
X0125998Y0221874D03*
X0125998Y0221834D03*
X0125998Y0221794D03*
X0125998Y0221714D03*
X0125998Y0221674D03*
X0125998Y0221634D03*
X0125998Y0221594D03*
X0125998Y0221514D03*
X0125998Y0221474D03*
X0125998Y0221434D03*
X0125998Y0221394D03*
X0125998Y0221314D03*
X0125998Y0221274D03*
X0125998Y0221234D03*
X0125998Y0221194D03*
X0125998Y0221114D03*
X0125998Y0221074D03*
X0125998Y0221034D03*
X0125998Y0220994D03*
X0125998Y0220914D03*
X0125998Y0220874D03*
X0125998Y0220834D03*
X0125998Y0220794D03*
X0125998Y0220714D03*
X0125998Y0220674D03*
X0125998Y0220634D03*
X0125998Y0220594D03*
X0125998Y0220514D03*
X0125998Y0220474D03*
X0125998Y0220434D03*
X0125998Y0220394D03*
X0125998Y0220314D03*
X0125998Y0220274D03*
X0125998Y0220234D03*
X0125998Y0220194D03*
X0125998Y0220114D03*
X0125998Y0220074D03*
X0125998Y0220034D03*
X0125998Y0219994D03*
X0125998Y0219914D03*
X0125998Y0219874D03*
X0125998Y0219834D03*
X0125998Y0219794D03*
X0125998Y0219714D03*
X0125998Y0219674D03*
X0125998Y0219634D03*
X0125998Y0219594D03*
X0125998Y0219514D03*
X0125998Y0219474D03*
X0125998Y0219434D03*
X0125998Y0219394D03*
X0125998Y0219314D03*
X0125998Y0219274D03*
X0125998Y0219234D03*
X0125998Y0219194D03*
X0125998Y0219114D03*
X0125998Y0219074D03*
X0125998Y0219034D03*
X0125998Y0218994D03*
X0125998Y0218914D03*
X0125998Y0218874D03*
X0125998Y0218834D03*
X0125998Y0218794D03*
X0125998Y0218714D03*
X0121158Y0218794D03*
X0121158Y0155625D03*
X0116518Y0154625D03*
X0116518Y0154585D03*
X0116518Y0154505D03*
X0116518Y0154465D03*
X0116518Y0154425D03*
X0116518Y0154385D03*
X0116518Y0154305D03*
X0116518Y0154265D03*
X0116518Y0154225D03*
X0116518Y0154185D03*
X0116518Y0154105D03*
X0116518Y0154065D03*
X0116518Y0154025D03*
X0116518Y0153985D03*
X0116518Y0153905D03*
X0116518Y0153865D03*
X0116518Y0153825D03*
X0116518Y0153785D03*
X0116518Y0153705D03*
X0116518Y0153665D03*
X0116518Y0153625D03*
X0116518Y0153585D03*
X0116518Y0153505D03*
X0116518Y0153465D03*
X0116518Y0153425D03*
X0116518Y0153385D03*
X0116518Y0153305D03*
X0116518Y0153265D03*
X0116518Y0153225D03*
X0116518Y0153185D03*
X0116518Y0153105D03*
X0116518Y0153065D03*
X0116518Y0153025D03*
X0116518Y0152985D03*
X0116518Y0152905D03*
X0116518Y0152865D03*
X0116518Y0152825D03*
X0116518Y0152785D03*
X0116518Y0152705D03*
X0116518Y0152665D03*
X0116518Y0152625D03*
X0116518Y0152585D03*
X0116518Y0152505D03*
X0116518Y0152465D03*
X0116518Y0152425D03*
X0116518Y0152385D03*
X0116518Y0152305D03*
X0116518Y0152265D03*
X0116518Y0152225D03*
X0116518Y0152185D03*
X0116518Y0152105D03*
X0116518Y0152065D03*
X0116518Y0152025D03*
X0116518Y0151985D03*
X0116518Y0151905D03*
X0116518Y0151865D03*
X0116518Y0151825D03*
X0116518Y0151785D03*
X0116518Y0151705D03*
X0116518Y0151665D03*
X0116518Y0151625D03*
X0116518Y0151585D03*
X0116518Y0151505D03*
X0116518Y0151465D03*
X0116518Y0150505D03*
X0116518Y0150465D03*
X0116518Y0150425D03*
X0116518Y0150385D03*
X0116518Y0150305D03*
X0116518Y0150265D03*
X0116518Y0150225D03*
X0116518Y0150185D03*
X0116518Y0150105D03*
X0116518Y0150065D03*
X0116518Y0150025D03*
X0116518Y0149985D03*
X0116518Y0149905D03*
X0116518Y0149865D03*
X0116518Y0149825D03*
X0116518Y0149785D03*
X0116518Y0149705D03*
X0116518Y0149665D03*
X0116518Y0149625D03*
X0116518Y0149585D03*
X0116518Y0149505D03*
X0116518Y0149465D03*
X0116518Y0149425D03*
X0116518Y0149385D03*
X0116518Y0149305D03*
X0116518Y0149265D03*
X0116518Y0149225D03*
X0116518Y0149185D03*
X0116518Y0149105D03*
X0116518Y0149065D03*
X0116518Y0149025D03*
X0116518Y0148985D03*
X0116518Y0148905D03*
X0116518Y0148865D03*
X0116518Y0148825D03*
X0116518Y0148785D03*
X0116518Y0148705D03*
X0116518Y0148665D03*
X0116518Y0148625D03*
X0116518Y0148585D03*
X0116518Y0148505D03*
X0116518Y0148465D03*
X0116518Y0148425D03*
X0116518Y0148385D03*
X0116518Y0148305D03*
X0116518Y0148265D03*
X0116518Y0148225D03*
X0116518Y0148185D03*
X0116518Y0148105D03*
X0116518Y0148065D03*
X0116518Y0148025D03*
X0116518Y0147985D03*
X0116518Y0147905D03*
X0116518Y0147865D03*
X0116518Y0147825D03*
X0116518Y0147785D03*
X0116518Y0147705D03*
X0116518Y0147665D03*
X0116518Y0147625D03*
X0116518Y0147585D03*
X0116518Y0147505D03*
X0116518Y0147465D03*
X0116518Y0147425D03*
X0116518Y0147385D03*
X0116518Y0147305D03*
X0116518Y0147265D03*
X0116518Y0147225D03*
X0116518Y0147185D03*
X0116518Y0147105D03*
X0116518Y0147065D03*
X0116518Y0147025D03*
X0116518Y0146985D03*
X0116518Y0146905D03*
X0116518Y0146865D03*
X0116518Y0146825D03*
X0116518Y0146785D03*
X0116518Y0146705D03*
X0116518Y0146665D03*
X0116518Y0146625D03*
X0116518Y0146585D03*
X0116518Y0146505D03*
X0116518Y0146465D03*
X0116518Y0146425D03*
X0116518Y0146385D03*
X0116518Y0146305D03*
X0116518Y0146265D03*
X0116518Y0146225D03*
X0116518Y0146185D03*
X0116518Y0146105D03*
X0116518Y0146065D03*
X0113838Y0146585D03*
X0113838Y0146625D03*
X0113838Y0146665D03*
X0113838Y0146705D03*
X0113838Y0146785D03*
X0113878Y0146865D03*
X0113878Y0146905D03*
X0113878Y0146985D03*
X0113878Y0147025D03*
X0113878Y0147065D03*
X0113878Y0147105D03*
X0113878Y0147185D03*
X0113878Y0147225D03*
X0113878Y0147265D03*
X0113878Y0147305D03*
X0113878Y0147385D03*
X0113878Y0147425D03*
X0113878Y0147465D03*
X0113878Y0147505D03*
X0113878Y0147585D03*
X0113878Y0147625D03*
X0113878Y0147665D03*
X0113878Y0147705D03*
X0113878Y0147785D03*
X0113878Y0147825D03*
X0113878Y0147865D03*
X0113878Y0147905D03*
X0113878Y0147985D03*
X0113878Y0148025D03*
X0113878Y0148065D03*
X0113878Y0148105D03*
X0113878Y0148185D03*
X0113878Y0148225D03*
X0113878Y0148265D03*
X0113878Y0148305D03*
X0113878Y0148385D03*
X0113878Y0148425D03*
X0113878Y0148465D03*
X0113878Y0148505D03*
X0113878Y0148585D03*
X0113878Y0148625D03*
X0113838Y0148785D03*
X0113838Y0148825D03*
X0113838Y0148865D03*
X0113838Y0148905D03*
X0108958Y0148825D03*
X0108958Y0148785D03*
X0108958Y0148705D03*
X0108958Y0148665D03*
X0108958Y0148625D03*
X0108958Y0148585D03*
X0108958Y0148505D03*
X0108958Y0148465D03*
X0108958Y0148425D03*
X0108958Y0148385D03*
X0108958Y0148305D03*
X0108958Y0148265D03*
X0108958Y0148225D03*
X0108958Y0148185D03*
X0108958Y0148105D03*
X0108958Y0148065D03*
X0108958Y0148025D03*
X0108958Y0147985D03*
X0108958Y0147905D03*
X0108958Y0147865D03*
X0108958Y0147825D03*
X0108958Y0147785D03*
X0108958Y0147705D03*
X0108958Y0147665D03*
X0108958Y0147625D03*
X0108958Y0147585D03*
X0108958Y0147505D03*
X0108958Y0147465D03*
X0108958Y0147425D03*
X0108958Y0147385D03*
X0108958Y0147305D03*
X0108958Y0147265D03*
X0108958Y0147225D03*
X0108958Y0147185D03*
X0108958Y0147105D03*
X0108958Y0147065D03*
X0108958Y0147025D03*
X0108958Y0146985D03*
X0108958Y0146905D03*
X0108958Y0146865D03*
X0108958Y0146825D03*
X0108958Y0146785D03*
X0108958Y0146705D03*
X0108958Y0146665D03*
X0106238Y0154225D03*
X0122238Y0150385D03*
X0125998Y0148705D03*
X0125998Y0148665D03*
X0125998Y0148625D03*
X0125998Y0148585D03*
X0125998Y0148505D03*
X0125998Y0148465D03*
X0125998Y0148425D03*
X0125998Y0148385D03*
X0125998Y0148305D03*
X0125998Y0148265D03*
X0125998Y0148225D03*
X0125998Y0148185D03*
X0125998Y0148105D03*
X0125998Y0148065D03*
X0125998Y0148025D03*
X0125998Y0147985D03*
X0125998Y0147905D03*
X0125998Y0147865D03*
X0125998Y0147825D03*
X0125998Y0147785D03*
X0125998Y0147705D03*
X0125998Y0147665D03*
X0125998Y0147625D03*
X0125998Y0147585D03*
X0125998Y0147505D03*
X0125998Y0147465D03*
X0125998Y0147425D03*
X0125998Y0147385D03*
X0125998Y0147305D03*
X0125998Y0147265D03*
X0125998Y0147225D03*
X0125998Y0147185D03*
X0125998Y0147105D03*
X0125998Y0147065D03*
X0125998Y0147025D03*
X0125998Y0146985D03*
X0125998Y0146905D03*
X0125998Y0146865D03*
X0125998Y0146825D03*
X0125998Y0146785D03*
X0125998Y0146705D03*
X0125998Y0146665D03*
X0125998Y0146625D03*
X0125998Y0146585D03*
X0125998Y0146505D03*
X0125998Y0146465D03*
X0125998Y0146425D03*
X0125998Y0146385D03*
X0125998Y0146305D03*
X0125998Y0146265D03*
X0125998Y0146225D03*
X0125998Y0146185D03*
X0125998Y0146105D03*
X0125998Y0146065D03*
X0125998Y0146025D03*
X0125998Y0145985D03*
X0125998Y0145905D03*
X0125998Y0145865D03*
X0125998Y0145825D03*
X0125998Y0145785D03*
X0125998Y0145705D03*
X0125998Y0145665D03*
X0125998Y0145625D03*
X0125998Y0145585D03*
X0125998Y0145505D03*
X0125998Y0145465D03*
X0125998Y0145425D03*
X0125998Y0145385D03*
X0125998Y0145305D03*
X0125998Y0145265D03*
X0125998Y0145225D03*
X0125998Y0145185D03*
X0125998Y0145105D03*
X0125998Y0145065D03*
X0125998Y0145025D03*
X0125998Y0144985D03*
X0125998Y0144905D03*
X0125998Y0144865D03*
X0125998Y0144825D03*
X0125998Y0144785D03*
X0125998Y0144705D03*
X0125998Y0144665D03*
X0125998Y0144625D03*
X0125998Y0144585D03*
X0125998Y0144505D03*
X0125998Y0144465D03*
X0125998Y0144425D03*
X0125998Y0144385D03*
X0125998Y0144305D03*
X0121158Y0144385D03*
X0121158Y0081215D03*
X0116518Y0080215D03*
X0116518Y0080175D03*
X0116518Y0080095D03*
X0116518Y0080055D03*
X0116518Y0080015D03*
X0116518Y0079975D03*
X0116518Y0079895D03*
X0116518Y0079855D03*
X0116518Y0079815D03*
X0116518Y0079775D03*
X0116518Y0079695D03*
X0116518Y0079655D03*
X0116518Y0079615D03*
X0116518Y0079575D03*
X0116518Y0079495D03*
X0116518Y0079455D03*
X0116518Y0079415D03*
X0116518Y0079375D03*
X0116518Y0079295D03*
X0116518Y0079255D03*
X0116518Y0079215D03*
X0116518Y0079175D03*
X0116518Y0079095D03*
X0116518Y0079055D03*
X0116518Y0079015D03*
X0116518Y0078975D03*
X0116518Y0078895D03*
X0116518Y0078855D03*
X0116518Y0078815D03*
X0116518Y0078775D03*
X0116518Y0078695D03*
X0116518Y0078655D03*
X0116518Y0078615D03*
X0116518Y0078575D03*
X0116518Y0078495D03*
X0116518Y0078455D03*
X0116518Y0078415D03*
X0116518Y0078375D03*
X0116518Y0078295D03*
X0116518Y0078255D03*
X0116518Y0078215D03*
X0116518Y0078175D03*
X0116518Y0078095D03*
X0116518Y0078055D03*
X0116518Y0078015D03*
X0116518Y0077975D03*
X0116518Y0077895D03*
X0116518Y0077855D03*
X0116518Y0077815D03*
X0116518Y0077775D03*
X0116518Y0077695D03*
X0116518Y0077655D03*
X0116518Y0077615D03*
X0116518Y0077575D03*
X0116518Y0077495D03*
X0116518Y0077455D03*
X0116518Y0077415D03*
X0116518Y0077375D03*
X0116518Y0077295D03*
X0116518Y0077255D03*
X0116518Y0077215D03*
X0116518Y0077175D03*
X0116518Y0077095D03*
X0116518Y0077055D03*
X0116518Y0076095D03*
X0116518Y0076055D03*
X0116518Y0076015D03*
X0116518Y0075975D03*
X0116518Y0075895D03*
X0116518Y0075855D03*
X0116518Y0075815D03*
X0116518Y0075775D03*
X0116518Y0075695D03*
X0116518Y0075655D03*
X0116518Y0075615D03*
X0116518Y0075575D03*
X0116518Y0075495D03*
X0116518Y0075455D03*
X0116518Y0075415D03*
X0116518Y0075375D03*
X0116518Y0075295D03*
X0116518Y0075255D03*
X0116518Y0075215D03*
X0116518Y0075175D03*
X0116518Y0075095D03*
X0116518Y0075055D03*
X0116518Y0075015D03*
X0116518Y0074975D03*
X0116518Y0074895D03*
X0116518Y0074855D03*
X0116518Y0074815D03*
X0116518Y0074775D03*
X0116518Y0074695D03*
X0116518Y0074655D03*
X0116518Y0074615D03*
X0116518Y0074575D03*
X0116518Y0074495D03*
X0116518Y0074455D03*
X0116518Y0074415D03*
X0116518Y0074375D03*
X0116518Y0074295D03*
X0116518Y0074255D03*
X0116518Y0074215D03*
X0116518Y0074175D03*
X0116518Y0074095D03*
X0116518Y0074055D03*
X0116518Y0074015D03*
X0116518Y0073975D03*
X0116518Y0073895D03*
X0116518Y0073855D03*
X0116518Y0073815D03*
X0116518Y0073775D03*
X0116518Y0073695D03*
X0116518Y0073655D03*
X0116518Y0073615D03*
X0116518Y0073575D03*
X0116518Y0073495D03*
X0116518Y0073455D03*
X0116518Y0073415D03*
X0116518Y0073375D03*
X0116518Y0073295D03*
X0116518Y0073255D03*
X0116518Y0073215D03*
X0116518Y0073175D03*
X0116518Y0073095D03*
X0116518Y0073055D03*
X0116518Y0073015D03*
X0116518Y0072975D03*
X0116518Y0072895D03*
X0116518Y0072855D03*
X0116518Y0072815D03*
X0116518Y0072775D03*
X0116518Y0072695D03*
X0116518Y0072655D03*
X0116518Y0072615D03*
X0116518Y0072575D03*
X0116518Y0072495D03*
X0116518Y0072455D03*
X0116518Y0072415D03*
X0116518Y0072375D03*
X0116518Y0072295D03*
X0116518Y0072255D03*
X0116518Y0072215D03*
X0116518Y0072175D03*
X0116518Y0072095D03*
X0116518Y0072055D03*
X0116518Y0072015D03*
X0116518Y0071975D03*
X0116518Y0071895D03*
X0116518Y0071855D03*
X0116518Y0071815D03*
X0116518Y0071775D03*
X0116518Y0071695D03*
X0116518Y0071655D03*
X0113838Y0072175D03*
X0113838Y0072215D03*
X0113838Y0072255D03*
X0113838Y0072295D03*
X0113838Y0072375D03*
X0113878Y0072455D03*
X0113878Y0072495D03*
X0113878Y0072575D03*
X0113878Y0072615D03*
X0113878Y0072655D03*
X0113878Y0072695D03*
X0113878Y0072775D03*
X0113878Y0072815D03*
X0113878Y0072855D03*
X0113878Y0072895D03*
X0113878Y0072975D03*
X0113878Y0073015D03*
X0113878Y0073055D03*
X0113878Y0073095D03*
X0113878Y0073175D03*
X0113878Y0073215D03*
X0113878Y0073255D03*
X0113878Y0073295D03*
X0113878Y0073375D03*
X0113878Y0073415D03*
X0113878Y0073455D03*
X0113878Y0073495D03*
X0113878Y0073575D03*
X0113878Y0073615D03*
X0113878Y0073655D03*
X0113878Y0073695D03*
X0113878Y0073775D03*
X0113878Y0073815D03*
X0113878Y0073855D03*
X0113878Y0073895D03*
X0113878Y0073975D03*
X0113878Y0074015D03*
X0113878Y0074055D03*
X0113878Y0074095D03*
X0113878Y0074175D03*
X0113878Y0074215D03*
X0113838Y0074375D03*
X0113838Y0074415D03*
X0113838Y0074455D03*
X0113838Y0074495D03*
X0108958Y0074415D03*
X0108958Y0074375D03*
X0108958Y0074295D03*
X0108958Y0074255D03*
X0108958Y0074215D03*
X0108958Y0074175D03*
X0108958Y0074095D03*
X0108958Y0074055D03*
X0108958Y0074015D03*
X0108958Y0073975D03*
X0108958Y0073895D03*
X0108958Y0073855D03*
X0108958Y0073815D03*
X0108958Y0073775D03*
X0108958Y0073695D03*
X0108958Y0073655D03*
X0108958Y0073615D03*
X0108958Y0073575D03*
X0108958Y0073495D03*
X0108958Y0073455D03*
X0108958Y0073415D03*
X0108958Y0073375D03*
X0108958Y0073295D03*
X0108958Y0073255D03*
X0108958Y0073215D03*
X0108958Y0073175D03*
X0108958Y0073095D03*
X0108958Y0073055D03*
X0108958Y0073015D03*
X0108958Y0072975D03*
X0108958Y0072895D03*
X0108958Y0072855D03*
X0108958Y0072815D03*
X0108958Y0072775D03*
X0108958Y0072695D03*
X0108958Y0072655D03*
X0108958Y0072615D03*
X0108958Y0072575D03*
X0108958Y0072495D03*
X0108958Y0072455D03*
X0108958Y0072415D03*
X0108958Y0072375D03*
X0108958Y0072295D03*
X0108958Y0072255D03*
X0106238Y0079815D03*
X0122238Y0075975D03*
X0125998Y0074295D03*
X0125998Y0074255D03*
X0125998Y0074215D03*
X0125998Y0074175D03*
X0125998Y0074095D03*
X0125998Y0074055D03*
X0125998Y0074015D03*
X0125998Y0073975D03*
X0125998Y0073895D03*
X0125998Y0073855D03*
X0125998Y0073815D03*
X0125998Y0073775D03*
X0125998Y0073695D03*
X0125998Y0073655D03*
X0125998Y0073615D03*
X0125998Y0073575D03*
X0125998Y0073495D03*
X0125998Y0073455D03*
X0125998Y0073415D03*
X0125998Y0073375D03*
X0125998Y0073295D03*
X0125998Y0073255D03*
X0125998Y0073215D03*
X0125998Y0073175D03*
X0125998Y0073095D03*
X0125998Y0073055D03*
X0125998Y0073015D03*
X0125998Y0072975D03*
X0125998Y0072895D03*
X0125998Y0072855D03*
X0125998Y0072815D03*
X0125998Y0072775D03*
X0125998Y0072695D03*
X0125998Y0072655D03*
X0125998Y0072615D03*
X0125998Y0072575D03*
X0125998Y0072495D03*
X0125998Y0072455D03*
X0125998Y0072415D03*
X0125998Y0072375D03*
X0125998Y0072295D03*
X0125998Y0072255D03*
X0125998Y0072215D03*
X0125998Y0072175D03*
X0125998Y0072095D03*
X0125998Y0072055D03*
X0125998Y0072015D03*
X0125998Y0071975D03*
X0125998Y0071895D03*
X0125998Y0071855D03*
X0125998Y0071815D03*
X0125998Y0071775D03*
X0125998Y0071695D03*
X0125998Y0071655D03*
X0125998Y0071615D03*
X0125998Y0071575D03*
X0125998Y0071495D03*
X0125998Y0071455D03*
X0125998Y0071415D03*
X0125998Y0071375D03*
X0125998Y0071295D03*
X0125998Y0071255D03*
X0125998Y0071215D03*
X0125998Y0071175D03*
X0125998Y0071095D03*
X0125998Y0071055D03*
X0125998Y0071015D03*
X0125998Y0070975D03*
X0125998Y0070895D03*
X0125998Y0070855D03*
X0125998Y0070815D03*
X0125998Y0070775D03*
X0125998Y0070695D03*
X0125998Y0070655D03*
X0125998Y0070615D03*
X0125998Y0070575D03*
X0125998Y0070495D03*
X0125998Y0070455D03*
X0125998Y0070415D03*
X0125998Y0070375D03*
X0125998Y0070295D03*
X0125998Y0070255D03*
X0125998Y0070215D03*
X0125998Y0070175D03*
X0125998Y0070095D03*
X0125998Y0070055D03*
X0125998Y0070015D03*
X0125998Y0069975D03*
X0125998Y0069895D03*
X0121158Y0069975D03*
D51*
X0103758Y0069935D03*
X0103758Y0144345D03*
X0103758Y0218754D03*
D52*
X0111398Y0218754D03*
X0111398Y0144345D03*
X0111398Y0069935D03*
D53*
X0118178Y0069935D03*
X0118178Y0144345D03*
X0118178Y0218754D03*
D54*
X0121178Y0218754D03*
X0121178Y0144345D03*
X0121178Y0069935D03*
D55*
X0116518Y0071735D03*
X0116518Y0071935D03*
X0116518Y0072135D03*
X0116518Y0072335D03*
X0116518Y0072535D03*
X0116518Y0072735D03*
X0116518Y0072935D03*
X0116518Y0073135D03*
X0116518Y0073335D03*
X0116518Y0073535D03*
X0116518Y0073735D03*
X0116518Y0073935D03*
X0116518Y0074135D03*
X0116518Y0074335D03*
X0116518Y0074535D03*
X0116518Y0074735D03*
X0116518Y0074935D03*
X0116518Y0075135D03*
X0116518Y0075335D03*
X0116518Y0075535D03*
X0116518Y0075735D03*
X0116518Y0075935D03*
X0116518Y0076135D03*
X0116518Y0077135D03*
X0116518Y0077335D03*
X0116518Y0077535D03*
X0116518Y0077735D03*
X0116518Y0077935D03*
X0116518Y0078135D03*
X0116518Y0078335D03*
X0116518Y0078535D03*
X0116518Y0078735D03*
X0116518Y0078935D03*
X0116518Y0079135D03*
X0116518Y0079335D03*
X0116518Y0079535D03*
X0116518Y0079735D03*
X0116518Y0079935D03*
X0116518Y0080135D03*
X0113838Y0074535D03*
X0113838Y0074335D03*
X0113878Y0074135D03*
X0113878Y0073935D03*
X0113878Y0073735D03*
X0113878Y0073535D03*
X0113878Y0073335D03*
X0113878Y0073135D03*
X0113878Y0072935D03*
X0113878Y0072735D03*
X0113878Y0072535D03*
X0113838Y0072335D03*
X0113838Y0072135D03*
X0108958Y0072335D03*
X0108958Y0072535D03*
X0108958Y0072735D03*
X0108958Y0072935D03*
X0108958Y0073135D03*
X0108958Y0073335D03*
X0108958Y0073535D03*
X0108958Y0073735D03*
X0108958Y0073935D03*
X0108958Y0074135D03*
X0108958Y0074335D03*
X0101118Y0071335D03*
X0125998Y0071335D03*
X0125998Y0071135D03*
X0125998Y0070935D03*
X0125998Y0070735D03*
X0125998Y0070535D03*
X0125998Y0070335D03*
X0125998Y0070135D03*
X0125998Y0069935D03*
X0125998Y0071535D03*
X0125998Y0071735D03*
X0125998Y0071935D03*
X0125998Y0072135D03*
X0125998Y0072335D03*
X0125998Y0072535D03*
X0125998Y0072735D03*
X0125998Y0072935D03*
X0125998Y0073135D03*
X0125998Y0073335D03*
X0125998Y0073535D03*
X0125998Y0073735D03*
X0125998Y0073935D03*
X0125998Y0074135D03*
X0125998Y0074335D03*
X0125998Y0144345D03*
X0125998Y0144545D03*
X0125998Y0144745D03*
X0125998Y0144945D03*
X0125998Y0145145D03*
X0125998Y0145345D03*
X0125998Y0145545D03*
X0125998Y0145745D03*
X0125998Y0145945D03*
X0125998Y0146145D03*
X0125998Y0146345D03*
X0125998Y0146545D03*
X0125998Y0146745D03*
X0125998Y0146945D03*
X0125998Y0147145D03*
X0125998Y0147345D03*
X0125998Y0147545D03*
X0125998Y0147745D03*
X0125998Y0147945D03*
X0125998Y0148145D03*
X0125998Y0148345D03*
X0125998Y0148545D03*
X0125998Y0148745D03*
X0116518Y0148745D03*
X0116518Y0148945D03*
X0116518Y0149145D03*
X0116518Y0149345D03*
X0116518Y0149545D03*
X0116518Y0149745D03*
X0116518Y0149945D03*
X0116518Y0150145D03*
X0116518Y0150345D03*
X0116518Y0150545D03*
X0116518Y0151545D03*
X0116518Y0151745D03*
X0116518Y0151945D03*
X0116518Y0152145D03*
X0116518Y0152345D03*
X0116518Y0152545D03*
X0116518Y0152745D03*
X0116518Y0152945D03*
X0116518Y0153145D03*
X0116518Y0153345D03*
X0116518Y0153545D03*
X0116518Y0153745D03*
X0116518Y0153945D03*
X0116518Y0154145D03*
X0116518Y0154345D03*
X0116518Y0154545D03*
X0113838Y0148945D03*
X0113838Y0148745D03*
X0113878Y0148545D03*
X0113878Y0148345D03*
X0113878Y0148145D03*
X0113878Y0147945D03*
X0113878Y0147745D03*
X0113878Y0147545D03*
X0113878Y0147345D03*
X0113878Y0147145D03*
X0113878Y0146945D03*
X0113838Y0146745D03*
X0113838Y0146545D03*
X0116518Y0146545D03*
X0116518Y0146745D03*
X0116518Y0146945D03*
X0116518Y0147145D03*
X0116518Y0147345D03*
X0116518Y0147545D03*
X0116518Y0147745D03*
X0116518Y0147945D03*
X0116518Y0148145D03*
X0116518Y0148345D03*
X0116518Y0148545D03*
X0116518Y0146345D03*
X0116518Y0146145D03*
X0108958Y0146745D03*
X0108958Y0146945D03*
X0108958Y0147145D03*
X0108958Y0147345D03*
X0108958Y0147545D03*
X0108958Y0147745D03*
X0108958Y0147945D03*
X0108958Y0148145D03*
X0108958Y0148345D03*
X0108958Y0148545D03*
X0108958Y0148745D03*
X0101118Y0145745D03*
X0101118Y0220154D03*
X0108958Y0221154D03*
X0108958Y0221354D03*
X0108958Y0221554D03*
X0108958Y0221754D03*
X0108958Y0221954D03*
X0108958Y0222154D03*
X0108958Y0222354D03*
X0108958Y0222554D03*
X0108958Y0222754D03*
X0108958Y0222954D03*
X0108958Y0223154D03*
X0113838Y0223154D03*
X0113838Y0223354D03*
X0113878Y0222954D03*
X0113878Y0222754D03*
X0113878Y0222554D03*
X0113878Y0222354D03*
X0113878Y0222154D03*
X0113878Y0221954D03*
X0113878Y0221754D03*
X0113878Y0221554D03*
X0113878Y0221354D03*
X0113838Y0221154D03*
X0113838Y0220954D03*
X0116518Y0220954D03*
X0116518Y0220754D03*
X0116518Y0220554D03*
X0116518Y0221154D03*
X0116518Y0221354D03*
X0116518Y0221554D03*
X0116518Y0221754D03*
X0116518Y0221954D03*
X0116518Y0222154D03*
X0116518Y0222354D03*
X0116518Y0222554D03*
X0116518Y0222754D03*
X0116518Y0222954D03*
X0116518Y0223154D03*
X0116518Y0223354D03*
X0116518Y0223554D03*
X0116518Y0223754D03*
X0116518Y0223954D03*
X0116518Y0224154D03*
X0116518Y0224354D03*
X0116518Y0224554D03*
X0116518Y0224754D03*
X0116518Y0224954D03*
X0116518Y0225954D03*
X0116518Y0226154D03*
X0116518Y0226354D03*
X0116518Y0226554D03*
X0116518Y0226754D03*
X0116518Y0226954D03*
X0116518Y0227154D03*
X0116518Y0227354D03*
X0116518Y0227554D03*
X0116518Y0227754D03*
X0116518Y0227954D03*
X0116518Y0228154D03*
X0116518Y0228354D03*
X0116518Y0228554D03*
X0116518Y0228754D03*
X0116518Y0228954D03*
X0125998Y0223154D03*
X0125998Y0222954D03*
X0125998Y0222754D03*
X0125998Y0222554D03*
X0125998Y0222354D03*
X0125998Y0222154D03*
X0125998Y0221954D03*
X0125998Y0221754D03*
X0125998Y0221554D03*
X0125998Y0221354D03*
X0125998Y0221154D03*
X0125998Y0220954D03*
X0125998Y0220754D03*
X0125998Y0220554D03*
X0125998Y0220354D03*
X0125998Y0220154D03*
X0125998Y0219954D03*
X0125998Y0219754D03*
X0125998Y0219554D03*
X0125998Y0219354D03*
X0125998Y0219154D03*
X0125998Y0218954D03*
X0125998Y0218754D03*
D56*
X0103758Y0218794D03*
X0103758Y0144385D03*
X0103758Y0069975D03*
D57*
X0111378Y0069975D03*
X0111378Y0144385D03*
X0111378Y0218794D03*
D58*
X0118138Y0218794D03*
X0123778Y0225634D03*
X0104898Y0224034D03*
X0104898Y0149625D03*
X0118138Y0144385D03*
X0123778Y0151225D03*
X0123778Y0076815D03*
X0118138Y0069975D03*
X0104898Y0075215D03*
D59*
X0103738Y0070015D03*
X0103738Y0144425D03*
X0103738Y0218834D03*
D60*
X0111398Y0218834D03*
X0111398Y0225474D03*
X0111398Y0151065D03*
X0111398Y0144425D03*
X0111398Y0076655D03*
X0111398Y0070015D03*
D61*
X0118118Y0070015D03*
X0123758Y0076775D03*
X0118118Y0144425D03*
X0123758Y0151185D03*
X0118118Y0218834D03*
X0123758Y0225594D03*
D62*
X0121178Y0225594D03*
X0121178Y0225634D03*
X0121178Y0225674D03*
X0121178Y0225714D03*
X0121178Y0225794D03*
X0121178Y0225834D03*
X0121178Y0225874D03*
X0121178Y0225914D03*
X0121178Y0225994D03*
X0121178Y0226034D03*
X0121178Y0226074D03*
X0121178Y0226114D03*
X0121178Y0226194D03*
X0121178Y0226234D03*
X0121178Y0226274D03*
X0121178Y0226314D03*
X0121178Y0226394D03*
X0121178Y0226434D03*
X0121178Y0226474D03*
X0121178Y0226514D03*
X0121178Y0226594D03*
X0121178Y0226634D03*
X0121178Y0226674D03*
X0121178Y0226714D03*
X0121178Y0226794D03*
X0121178Y0226834D03*
X0121178Y0226874D03*
X0121178Y0226914D03*
X0121178Y0226994D03*
X0121178Y0227034D03*
X0121178Y0227074D03*
X0121178Y0227114D03*
X0121178Y0227194D03*
X0121178Y0227234D03*
X0121178Y0227274D03*
X0121178Y0227314D03*
X0121178Y0227394D03*
X0121178Y0227434D03*
X0121178Y0227474D03*
X0121178Y0227514D03*
X0121178Y0227594D03*
X0121178Y0227634D03*
X0121178Y0227674D03*
X0121178Y0227714D03*
X0121178Y0227794D03*
X0121178Y0227834D03*
X0121178Y0227874D03*
X0121178Y0227914D03*
X0121178Y0227994D03*
X0121178Y0228034D03*
X0121178Y0228074D03*
X0121178Y0228114D03*
X0121178Y0228194D03*
X0121178Y0228234D03*
X0121178Y0228274D03*
X0121178Y0228314D03*
X0121178Y0228394D03*
X0121178Y0228434D03*
X0121178Y0228474D03*
X0121178Y0228514D03*
X0121178Y0228594D03*
X0121178Y0228634D03*
X0121178Y0228674D03*
X0121178Y0228714D03*
X0121178Y0228794D03*
X0121178Y0228834D03*
X0121178Y0228874D03*
X0121178Y0228914D03*
X0121178Y0228994D03*
X0121178Y0229034D03*
X0121178Y0229074D03*
X0121178Y0229114D03*
X0121178Y0229194D03*
X0121178Y0229234D03*
X0121178Y0229274D03*
X0121178Y0229314D03*
X0121178Y0229394D03*
X0121178Y0229434D03*
X0121178Y0229474D03*
X0121178Y0229514D03*
X0121178Y0229594D03*
X0121178Y0229634D03*
X0121178Y0229674D03*
X0121178Y0229714D03*
X0121178Y0229794D03*
X0121178Y0229834D03*
X0121178Y0229874D03*
X0121178Y0229914D03*
X0121178Y0229994D03*
X0121178Y0225514D03*
X0121178Y0225474D03*
X0121178Y0225434D03*
X0121178Y0225394D03*
X0121178Y0225314D03*
X0121178Y0225274D03*
X0121178Y0225234D03*
X0121178Y0225194D03*
X0121178Y0225114D03*
X0121178Y0225074D03*
X0121178Y0225034D03*
X0121178Y0224994D03*
X0121178Y0224914D03*
X0121178Y0224874D03*
X0121178Y0224834D03*
X0121178Y0224794D03*
X0121178Y0223394D03*
X0121178Y0223314D03*
X0121178Y0223274D03*
X0121178Y0223234D03*
X0121178Y0223194D03*
X0121178Y0223114D03*
X0121178Y0223074D03*
X0121178Y0223034D03*
X0121178Y0222994D03*
X0121178Y0222914D03*
X0121178Y0222874D03*
X0121178Y0222834D03*
X0121178Y0222794D03*
X0121178Y0222714D03*
X0121178Y0222674D03*
X0121178Y0222634D03*
X0121178Y0222594D03*
X0121178Y0222514D03*
X0121178Y0222474D03*
X0121178Y0222434D03*
X0121178Y0222394D03*
X0121178Y0222314D03*
X0121178Y0222274D03*
X0121178Y0222234D03*
X0121178Y0222194D03*
X0121178Y0222114D03*
X0121178Y0222074D03*
X0121178Y0222034D03*
X0121178Y0221994D03*
X0121178Y0221914D03*
X0121178Y0221874D03*
X0121178Y0221834D03*
X0121178Y0221794D03*
X0121178Y0221714D03*
X0121178Y0221674D03*
X0121178Y0221634D03*
X0121178Y0221594D03*
X0121178Y0221514D03*
X0121178Y0221474D03*
X0121178Y0221434D03*
X0121178Y0221394D03*
X0121178Y0221314D03*
X0121178Y0221274D03*
X0121178Y0221234D03*
X0121178Y0221194D03*
X0121178Y0221114D03*
X0121178Y0221074D03*
X0121178Y0221034D03*
X0121178Y0220994D03*
X0121178Y0220914D03*
X0121178Y0220874D03*
X0121178Y0220834D03*
X0121178Y0220794D03*
X0121178Y0220714D03*
X0121178Y0220674D03*
X0121178Y0220634D03*
X0121178Y0220594D03*
X0121178Y0220514D03*
X0121178Y0220474D03*
X0121178Y0220434D03*
X0121178Y0220394D03*
X0121178Y0220314D03*
X0121178Y0220274D03*
X0121178Y0220234D03*
X0121178Y0220194D03*
X0121178Y0220114D03*
X0121178Y0220074D03*
X0121178Y0220034D03*
X0121178Y0219994D03*
X0121178Y0219914D03*
X0121178Y0219874D03*
X0121178Y0219834D03*
X0121178Y0219794D03*
X0121178Y0219714D03*
X0121178Y0219674D03*
X0121178Y0219634D03*
X0121178Y0219594D03*
X0121178Y0219514D03*
X0121178Y0219474D03*
X0121178Y0219434D03*
X0121178Y0219394D03*
X0121178Y0219314D03*
X0121178Y0219274D03*
X0121178Y0219234D03*
X0121178Y0219194D03*
X0121178Y0219114D03*
X0121178Y0219074D03*
X0121178Y0219034D03*
X0121178Y0218994D03*
X0121178Y0218914D03*
X0121178Y0218874D03*
X0121178Y0218834D03*
X0116618Y0219994D03*
X0116578Y0220114D03*
X0116578Y0220194D03*
X0113818Y0220794D03*
X0113818Y0220834D03*
X0113818Y0220874D03*
X0113818Y0220914D03*
X0113778Y0220674D03*
X0113858Y0221234D03*
X0113858Y0223074D03*
X0113858Y0223114D03*
X0113818Y0223394D03*
X0113818Y0223434D03*
X0113818Y0223474D03*
X0113818Y0223514D03*
X0113778Y0223634D03*
X0111378Y0225874D03*
X0109018Y0223514D03*
X0108978Y0223434D03*
X0108978Y0223394D03*
X0108978Y0223314D03*
X0108978Y0223274D03*
X0108978Y0221034D03*
X0108978Y0220994D03*
X0108978Y0220914D03*
X0108978Y0220874D03*
X0109018Y0220794D03*
X0109018Y0220714D03*
X0109058Y0220594D03*
X0106578Y0221034D03*
X0106578Y0221074D03*
X0106578Y0221114D03*
X0106578Y0221194D03*
X0106578Y0221234D03*
X0106578Y0221274D03*
X0106578Y0221314D03*
X0106578Y0221394D03*
X0106578Y0221434D03*
X0106578Y0221474D03*
X0106578Y0221514D03*
X0106578Y0221594D03*
X0106578Y0221634D03*
X0106578Y0221674D03*
X0106578Y0221714D03*
X0106578Y0221794D03*
X0106578Y0221834D03*
X0106498Y0220714D03*
X0106498Y0220674D03*
X0106458Y0220514D03*
X0101418Y0226834D03*
X0101418Y0226874D03*
X0101418Y0226914D03*
X0101418Y0226994D03*
X0101418Y0227034D03*
X0101418Y0227074D03*
X0101418Y0227114D03*
X0101418Y0227194D03*
X0101418Y0227234D03*
X0101418Y0227274D03*
X0101418Y0227314D03*
X0101418Y0227394D03*
X0101418Y0227434D03*
X0101458Y0227474D03*
X0101458Y0227514D03*
X0101458Y0227594D03*
X0101458Y0227634D03*
X0101498Y0227794D03*
X0125978Y0223394D03*
X0125978Y0223314D03*
X0125978Y0223274D03*
X0125978Y0223234D03*
X0125978Y0223194D03*
X0121178Y0155585D03*
X0121178Y0155505D03*
X0121178Y0155465D03*
X0121178Y0155425D03*
X0121178Y0155385D03*
X0121178Y0155305D03*
X0121178Y0155265D03*
X0121178Y0155225D03*
X0121178Y0155185D03*
X0121178Y0155105D03*
X0121178Y0155065D03*
X0121178Y0155025D03*
X0121178Y0154985D03*
X0121178Y0154905D03*
X0121178Y0154865D03*
X0121178Y0154825D03*
X0121178Y0154785D03*
X0121178Y0154705D03*
X0121178Y0154665D03*
X0121178Y0154625D03*
X0121178Y0154585D03*
X0121178Y0154505D03*
X0121178Y0154465D03*
X0121178Y0154425D03*
X0121178Y0154385D03*
X0121178Y0154305D03*
X0121178Y0154265D03*
X0121178Y0154225D03*
X0121178Y0154185D03*
X0121178Y0154105D03*
X0121178Y0154065D03*
X0121178Y0154025D03*
X0121178Y0153985D03*
X0121178Y0153905D03*
X0121178Y0153865D03*
X0121178Y0153825D03*
X0121178Y0153785D03*
X0121178Y0153705D03*
X0121178Y0153665D03*
X0121178Y0153625D03*
X0121178Y0153585D03*
X0121178Y0153505D03*
X0121178Y0153465D03*
X0121178Y0153425D03*
X0121178Y0153385D03*
X0121178Y0153305D03*
X0121178Y0153265D03*
X0121178Y0153225D03*
X0121178Y0153185D03*
X0121178Y0153105D03*
X0121178Y0153065D03*
X0121178Y0153025D03*
X0121178Y0152985D03*
X0121178Y0152905D03*
X0121178Y0152865D03*
X0121178Y0152825D03*
X0121178Y0152785D03*
X0121178Y0152705D03*
X0121178Y0152665D03*
X0121178Y0152625D03*
X0121178Y0152585D03*
X0121178Y0152505D03*
X0121178Y0152465D03*
X0121178Y0152425D03*
X0121178Y0152385D03*
X0121178Y0152305D03*
X0121178Y0152265D03*
X0121178Y0152225D03*
X0121178Y0152185D03*
X0121178Y0152105D03*
X0121178Y0152065D03*
X0121178Y0152025D03*
X0121178Y0151985D03*
X0121178Y0151905D03*
X0121178Y0151865D03*
X0121178Y0151825D03*
X0121178Y0151785D03*
X0121178Y0151705D03*
X0121178Y0151665D03*
X0121178Y0151625D03*
X0121178Y0151585D03*
X0121178Y0151505D03*
X0121178Y0151465D03*
X0121178Y0151425D03*
X0121178Y0151385D03*
X0121178Y0151305D03*
X0121178Y0151265D03*
X0121178Y0151225D03*
X0121178Y0151185D03*
X0121178Y0151105D03*
X0121178Y0151065D03*
X0121178Y0151025D03*
X0121178Y0150985D03*
X0121178Y0150905D03*
X0121178Y0150865D03*
X0121178Y0150825D03*
X0121178Y0150785D03*
X0121178Y0150705D03*
X0121178Y0150665D03*
X0121178Y0150625D03*
X0121178Y0150585D03*
X0121178Y0150505D03*
X0121178Y0150465D03*
X0121178Y0150425D03*
X0121178Y0150385D03*
X0121178Y0148985D03*
X0121178Y0148905D03*
X0121178Y0148865D03*
X0121178Y0148825D03*
X0121178Y0148785D03*
X0121178Y0148705D03*
X0121178Y0148665D03*
X0121178Y0148625D03*
X0121178Y0148585D03*
X0121178Y0148505D03*
X0121178Y0148465D03*
X0121178Y0148425D03*
X0121178Y0148385D03*
X0121178Y0148305D03*
X0121178Y0148265D03*
X0121178Y0148225D03*
X0121178Y0148185D03*
X0121178Y0148105D03*
X0121178Y0148065D03*
X0121178Y0148025D03*
X0121178Y0147985D03*
X0121178Y0147905D03*
X0121178Y0147865D03*
X0121178Y0147825D03*
X0121178Y0147785D03*
X0121178Y0147705D03*
X0121178Y0147665D03*
X0121178Y0147625D03*
X0121178Y0147585D03*
X0121178Y0147505D03*
X0121178Y0147465D03*
X0121178Y0147425D03*
X0121178Y0147385D03*
X0121178Y0147305D03*
X0121178Y0147265D03*
X0121178Y0147225D03*
X0121178Y0147185D03*
X0121178Y0147105D03*
X0121178Y0147065D03*
X0121178Y0147025D03*
X0121178Y0146985D03*
X0121178Y0146905D03*
X0121178Y0146865D03*
X0121178Y0146825D03*
X0121178Y0146785D03*
X0121178Y0146705D03*
X0121178Y0146665D03*
X0121178Y0146625D03*
X0121178Y0146585D03*
X0121178Y0146505D03*
X0121178Y0146465D03*
X0121178Y0146425D03*
X0121178Y0146385D03*
X0121178Y0146305D03*
X0121178Y0146265D03*
X0121178Y0146225D03*
X0121178Y0146185D03*
X0121178Y0146105D03*
X0121178Y0146065D03*
X0121178Y0146025D03*
X0121178Y0145985D03*
X0121178Y0145905D03*
X0121178Y0145865D03*
X0121178Y0145825D03*
X0121178Y0145785D03*
X0121178Y0145705D03*
X0121178Y0145665D03*
X0121178Y0145625D03*
X0121178Y0145585D03*
X0121178Y0145505D03*
X0121178Y0145465D03*
X0121178Y0145425D03*
X0121178Y0145385D03*
X0121178Y0145305D03*
X0121178Y0145265D03*
X0121178Y0145225D03*
X0121178Y0145185D03*
X0121178Y0145105D03*
X0121178Y0145065D03*
X0121178Y0145025D03*
X0121178Y0144985D03*
X0121178Y0144905D03*
X0121178Y0144865D03*
X0121178Y0144825D03*
X0121178Y0144785D03*
X0121178Y0144705D03*
X0121178Y0144665D03*
X0121178Y0144625D03*
X0121178Y0144585D03*
X0121178Y0144505D03*
X0121178Y0144465D03*
X0121178Y0144425D03*
X0116618Y0145585D03*
X0116578Y0145705D03*
X0116578Y0145785D03*
X0113818Y0146385D03*
X0113818Y0146425D03*
X0113818Y0146465D03*
X0113818Y0146505D03*
X0113778Y0146265D03*
X0113858Y0146825D03*
X0113858Y0148665D03*
X0113858Y0148705D03*
X0113818Y0148985D03*
X0113818Y0149025D03*
X0113818Y0149065D03*
X0113818Y0149105D03*
X0113778Y0149225D03*
X0111378Y0151465D03*
X0109018Y0149105D03*
X0108978Y0149025D03*
X0108978Y0148985D03*
X0108978Y0148905D03*
X0108978Y0148865D03*
X0108978Y0146625D03*
X0108978Y0146585D03*
X0108978Y0146505D03*
X0108978Y0146465D03*
X0109018Y0146385D03*
X0109018Y0146305D03*
X0109058Y0146185D03*
X0106578Y0146625D03*
X0106578Y0146665D03*
X0106578Y0146705D03*
X0106578Y0146785D03*
X0106578Y0146825D03*
X0106578Y0146865D03*
X0106578Y0146905D03*
X0106578Y0146985D03*
X0106578Y0147025D03*
X0106578Y0147065D03*
X0106578Y0147105D03*
X0106578Y0147185D03*
X0106578Y0147225D03*
X0106578Y0147265D03*
X0106578Y0147305D03*
X0106578Y0147385D03*
X0106578Y0147425D03*
X0106498Y0146305D03*
X0106498Y0146265D03*
X0106458Y0146105D03*
X0101418Y0152425D03*
X0101418Y0152465D03*
X0101418Y0152505D03*
X0101418Y0152585D03*
X0101418Y0152625D03*
X0101418Y0152665D03*
X0101418Y0152705D03*
X0101418Y0152785D03*
X0101418Y0152825D03*
X0101418Y0152865D03*
X0101418Y0152905D03*
X0101418Y0152985D03*
X0101418Y0153025D03*
X0101458Y0153065D03*
X0101458Y0153105D03*
X0101458Y0153185D03*
X0101458Y0153225D03*
X0101498Y0153385D03*
X0125978Y0148985D03*
X0125978Y0148905D03*
X0125978Y0148865D03*
X0125978Y0148825D03*
X0125978Y0148785D03*
X0121178Y0081175D03*
X0121178Y0081095D03*
X0121178Y0081055D03*
X0121178Y0081015D03*
X0121178Y0080975D03*
X0121178Y0080895D03*
X0121178Y0080855D03*
X0121178Y0080815D03*
X0121178Y0080775D03*
X0121178Y0080695D03*
X0121178Y0080655D03*
X0121178Y0080615D03*
X0121178Y0080575D03*
X0121178Y0080495D03*
X0121178Y0080455D03*
X0121178Y0080415D03*
X0121178Y0080375D03*
X0121178Y0080295D03*
X0121178Y0080255D03*
X0121178Y0080215D03*
X0121178Y0080175D03*
X0121178Y0080095D03*
X0121178Y0080055D03*
X0121178Y0080015D03*
X0121178Y0079975D03*
X0121178Y0079895D03*
X0121178Y0079855D03*
X0121178Y0079815D03*
X0121178Y0079775D03*
X0121178Y0079695D03*
X0121178Y0079655D03*
X0121178Y0079615D03*
X0121178Y0079575D03*
X0121178Y0079495D03*
X0121178Y0079455D03*
X0121178Y0079415D03*
X0121178Y0079375D03*
X0121178Y0079295D03*
X0121178Y0079255D03*
X0121178Y0079215D03*
X0121178Y0079175D03*
X0121178Y0079095D03*
X0121178Y0079055D03*
X0121178Y0079015D03*
X0121178Y0078975D03*
X0121178Y0078895D03*
X0121178Y0078855D03*
X0121178Y0078815D03*
X0121178Y0078775D03*
X0121178Y0078695D03*
X0121178Y0078655D03*
X0121178Y0078615D03*
X0121178Y0078575D03*
X0121178Y0078495D03*
X0121178Y0078455D03*
X0121178Y0078415D03*
X0121178Y0078375D03*
X0121178Y0078295D03*
X0121178Y0078255D03*
X0121178Y0078215D03*
X0121178Y0078175D03*
X0121178Y0078095D03*
X0121178Y0078055D03*
X0121178Y0078015D03*
X0121178Y0077975D03*
X0121178Y0077895D03*
X0121178Y0077855D03*
X0121178Y0077815D03*
X0121178Y0077775D03*
X0121178Y0077695D03*
X0121178Y0077655D03*
X0121178Y0077615D03*
X0121178Y0077575D03*
X0121178Y0077495D03*
X0121178Y0077455D03*
X0121178Y0077415D03*
X0121178Y0077375D03*
X0121178Y0077295D03*
X0121178Y0077255D03*
X0121178Y0077215D03*
X0121178Y0077175D03*
X0121178Y0077095D03*
X0121178Y0077055D03*
X0121178Y0077015D03*
X0121178Y0076975D03*
X0121178Y0076895D03*
X0121178Y0076855D03*
X0121178Y0076815D03*
X0121178Y0076775D03*
X0121178Y0076695D03*
X0121178Y0076655D03*
X0121178Y0076615D03*
X0121178Y0076575D03*
X0121178Y0076495D03*
X0121178Y0076455D03*
X0121178Y0076415D03*
X0121178Y0076375D03*
X0121178Y0076295D03*
X0121178Y0076255D03*
X0121178Y0076215D03*
X0121178Y0076175D03*
X0121178Y0076095D03*
X0121178Y0076055D03*
X0121178Y0076015D03*
X0121178Y0075975D03*
X0121178Y0074575D03*
X0121178Y0074495D03*
X0121178Y0074455D03*
X0121178Y0074415D03*
X0121178Y0074375D03*
X0121178Y0074295D03*
X0121178Y0074255D03*
X0121178Y0074215D03*
X0121178Y0074175D03*
X0121178Y0074095D03*
X0121178Y0074055D03*
X0121178Y0074015D03*
X0121178Y0073975D03*
X0121178Y0073895D03*
X0121178Y0073855D03*
X0121178Y0073815D03*
X0121178Y0073775D03*
X0121178Y0073695D03*
X0121178Y0073655D03*
X0121178Y0073615D03*
X0121178Y0073575D03*
X0121178Y0073495D03*
X0121178Y0073455D03*
X0121178Y0073415D03*
X0121178Y0073375D03*
X0121178Y0073295D03*
X0121178Y0073255D03*
X0121178Y0073215D03*
X0121178Y0073175D03*
X0121178Y0073095D03*
X0121178Y0073055D03*
X0121178Y0073015D03*
X0121178Y0072975D03*
X0121178Y0072895D03*
X0121178Y0072855D03*
X0121178Y0072815D03*
X0121178Y0072775D03*
X0121178Y0072695D03*
X0121178Y0072655D03*
X0121178Y0072615D03*
X0121178Y0072575D03*
X0121178Y0072495D03*
X0121178Y0072455D03*
X0121178Y0072415D03*
X0121178Y0072375D03*
X0121178Y0072295D03*
X0121178Y0072255D03*
X0121178Y0072215D03*
X0121178Y0072175D03*
X0121178Y0072095D03*
X0121178Y0072055D03*
X0121178Y0072015D03*
X0121178Y0071975D03*
X0121178Y0071895D03*
X0121178Y0071855D03*
X0121178Y0071815D03*
X0121178Y0071775D03*
X0121178Y0071695D03*
X0121178Y0071655D03*
X0121178Y0071615D03*
X0121178Y0071575D03*
X0121178Y0071495D03*
X0121178Y0071455D03*
X0121178Y0071415D03*
X0121178Y0071375D03*
X0121178Y0071295D03*
X0121178Y0071255D03*
X0121178Y0071215D03*
X0121178Y0071175D03*
X0121178Y0071095D03*
X0121178Y0071055D03*
X0121178Y0071015D03*
X0121178Y0070975D03*
X0121178Y0070895D03*
X0121178Y0070855D03*
X0121178Y0070815D03*
X0121178Y0070775D03*
X0121178Y0070695D03*
X0121178Y0070655D03*
X0121178Y0070615D03*
X0121178Y0070575D03*
X0121178Y0070495D03*
X0121178Y0070455D03*
X0121178Y0070415D03*
X0121178Y0070375D03*
X0121178Y0070295D03*
X0121178Y0070255D03*
X0121178Y0070215D03*
X0121178Y0070175D03*
X0121178Y0070095D03*
X0121178Y0070055D03*
X0121178Y0070015D03*
X0116618Y0071175D03*
X0116578Y0071295D03*
X0116578Y0071375D03*
X0113818Y0071975D03*
X0113818Y0072015D03*
X0113818Y0072055D03*
X0113818Y0072095D03*
X0113778Y0071855D03*
X0113858Y0072415D03*
X0113858Y0074255D03*
X0113858Y0074295D03*
X0113818Y0074575D03*
X0113818Y0074615D03*
X0113818Y0074655D03*
X0113818Y0074695D03*
X0113778Y0074815D03*
X0111378Y0077055D03*
X0109018Y0074695D03*
X0108978Y0074615D03*
X0108978Y0074575D03*
X0108978Y0074495D03*
X0108978Y0074455D03*
X0108978Y0072215D03*
X0108978Y0072175D03*
X0108978Y0072095D03*
X0108978Y0072055D03*
X0109018Y0071975D03*
X0109018Y0071895D03*
X0109058Y0071775D03*
X0106578Y0072215D03*
X0106578Y0072255D03*
X0106578Y0072295D03*
X0106578Y0072375D03*
X0106578Y0072415D03*
X0106578Y0072455D03*
X0106578Y0072495D03*
X0106578Y0072575D03*
X0106578Y0072615D03*
X0106578Y0072655D03*
X0106578Y0072695D03*
X0106578Y0072775D03*
X0106578Y0072815D03*
X0106578Y0072855D03*
X0106578Y0072895D03*
X0106578Y0072975D03*
X0106578Y0073015D03*
X0106498Y0071895D03*
X0106498Y0071855D03*
X0106458Y0071695D03*
X0101418Y0078015D03*
X0101418Y0078055D03*
X0101418Y0078095D03*
X0101418Y0078175D03*
X0101418Y0078215D03*
X0101418Y0078255D03*
X0101418Y0078295D03*
X0101418Y0078375D03*
X0101418Y0078415D03*
X0101418Y0078455D03*
X0101418Y0078495D03*
X0101418Y0078575D03*
X0101418Y0078615D03*
X0101458Y0078655D03*
X0101458Y0078695D03*
X0101458Y0078775D03*
X0101458Y0078815D03*
X0101498Y0078975D03*
X0125978Y0074575D03*
X0125978Y0074495D03*
X0125978Y0074455D03*
X0125978Y0074415D03*
X0125978Y0074375D03*
D63*
X0103738Y0070055D03*
X0103738Y0144465D03*
X0103738Y0218874D03*
D64*
X0118098Y0218874D03*
X0118098Y0144465D03*
X0118098Y0070055D03*
D65*
X0103758Y0070095D03*
X0104318Y0080575D03*
X0103758Y0144505D03*
X0104318Y0154985D03*
X0103758Y0218914D03*
X0104318Y0229394D03*
D66*
X0111418Y0225394D03*
X0117698Y0225394D03*
X0117698Y0225434D03*
X0117698Y0225474D03*
X0117698Y0225514D03*
X0117698Y0225594D03*
X0117698Y0225314D03*
X0117698Y0225274D03*
X0117698Y0225234D03*
X0123778Y0225274D03*
X0111418Y0218914D03*
X0111418Y0150985D03*
X0117698Y0150985D03*
X0117698Y0151025D03*
X0117698Y0151065D03*
X0117698Y0151105D03*
X0117698Y0151185D03*
X0117698Y0150905D03*
X0117698Y0150865D03*
X0117698Y0150825D03*
X0123778Y0150865D03*
X0111418Y0144505D03*
X0111418Y0076575D03*
X0117698Y0076575D03*
X0117698Y0076615D03*
X0117698Y0076655D03*
X0117698Y0076695D03*
X0117698Y0076775D03*
X0117698Y0076495D03*
X0117698Y0076455D03*
X0117698Y0076415D03*
X0123778Y0076455D03*
X0111418Y0070095D03*
D67*
X0103738Y0070135D03*
X0104338Y0080535D03*
X0103738Y0144545D03*
X0104338Y0154945D03*
X0103738Y0218954D03*
X0104338Y0229354D03*
D68*
X0111398Y0225354D03*
X0111398Y0218954D03*
X0111398Y0150945D03*
X0111398Y0144545D03*
X0111398Y0076535D03*
X0111398Y0070135D03*
D69*
X0118038Y0070135D03*
X0103438Y0075935D03*
X0118038Y0144545D03*
X0103438Y0150345D03*
X0118038Y0218954D03*
X0103438Y0224754D03*
D70*
X0101418Y0226954D03*
X0101418Y0227154D03*
X0101418Y0227354D03*
X0101458Y0227554D03*
X0101498Y0227754D03*
X0106578Y0221754D03*
X0106578Y0221554D03*
X0106578Y0221354D03*
X0106578Y0221154D03*
X0108978Y0220954D03*
X0109018Y0220754D03*
X0108978Y0223354D03*
X0109018Y0223554D03*
X0116578Y0220154D03*
X0121178Y0220154D03*
X0121178Y0219954D03*
X0121178Y0219754D03*
X0121178Y0219554D03*
X0121178Y0219354D03*
X0121178Y0219154D03*
X0121178Y0218954D03*
X0121178Y0220354D03*
X0121178Y0220554D03*
X0121178Y0220754D03*
X0121178Y0220954D03*
X0121178Y0221154D03*
X0121178Y0221354D03*
X0121178Y0221554D03*
X0121178Y0221754D03*
X0121178Y0221954D03*
X0121178Y0222154D03*
X0121178Y0222354D03*
X0121178Y0222554D03*
X0121178Y0222754D03*
X0121178Y0222954D03*
X0121178Y0223154D03*
X0121178Y0223354D03*
X0121178Y0224954D03*
X0121178Y0225154D03*
X0121178Y0225354D03*
X0121178Y0225554D03*
X0121178Y0225754D03*
X0121178Y0225954D03*
X0121178Y0226154D03*
X0121178Y0226354D03*
X0121178Y0226554D03*
X0121178Y0226754D03*
X0121178Y0226954D03*
X0121178Y0227154D03*
X0121178Y0227354D03*
X0121178Y0227554D03*
X0121178Y0227754D03*
X0121178Y0227954D03*
X0121178Y0228154D03*
X0121178Y0228354D03*
X0121178Y0228554D03*
X0121178Y0228754D03*
X0121178Y0228954D03*
X0121178Y0229154D03*
X0121178Y0229354D03*
X0121178Y0229554D03*
X0121178Y0229754D03*
X0121178Y0229954D03*
X0125978Y0223354D03*
X0121178Y0155545D03*
X0121178Y0155345D03*
X0121178Y0155145D03*
X0121178Y0154945D03*
X0121178Y0154745D03*
X0121178Y0154545D03*
X0121178Y0154345D03*
X0121178Y0154145D03*
X0121178Y0153945D03*
X0121178Y0153745D03*
X0121178Y0153545D03*
X0121178Y0153345D03*
X0121178Y0153145D03*
X0121178Y0152945D03*
X0121178Y0152745D03*
X0121178Y0152545D03*
X0121178Y0152345D03*
X0121178Y0152145D03*
X0121178Y0151945D03*
X0121178Y0151745D03*
X0121178Y0151545D03*
X0121178Y0151345D03*
X0121178Y0151145D03*
X0121178Y0150945D03*
X0121178Y0150745D03*
X0121178Y0150545D03*
X0121178Y0148945D03*
X0121178Y0148745D03*
X0121178Y0148545D03*
X0121178Y0148345D03*
X0121178Y0148145D03*
X0121178Y0147945D03*
X0121178Y0147745D03*
X0121178Y0147545D03*
X0121178Y0147345D03*
X0121178Y0147145D03*
X0121178Y0146945D03*
X0121178Y0146745D03*
X0121178Y0146545D03*
X0121178Y0146345D03*
X0121178Y0146145D03*
X0121178Y0145945D03*
X0121178Y0145745D03*
X0121178Y0145545D03*
X0121178Y0145345D03*
X0121178Y0145145D03*
X0121178Y0144945D03*
X0121178Y0144745D03*
X0121178Y0144545D03*
X0116578Y0145745D03*
X0109018Y0146345D03*
X0108978Y0146545D03*
X0108978Y0148945D03*
X0109018Y0149145D03*
X0106578Y0147345D03*
X0106578Y0147145D03*
X0106578Y0146945D03*
X0106578Y0146745D03*
X0101418Y0152545D03*
X0101418Y0152745D03*
X0101418Y0152945D03*
X0101458Y0153145D03*
X0101498Y0153345D03*
X0125978Y0148945D03*
X0121178Y0081135D03*
X0121178Y0080935D03*
X0121178Y0080735D03*
X0121178Y0080535D03*
X0121178Y0080335D03*
X0121178Y0080135D03*
X0121178Y0079935D03*
X0121178Y0079735D03*
X0121178Y0079535D03*
X0121178Y0079335D03*
X0121178Y0079135D03*
X0121178Y0078935D03*
X0121178Y0078735D03*
X0121178Y0078535D03*
X0121178Y0078335D03*
X0121178Y0078135D03*
X0121178Y0077935D03*
X0121178Y0077735D03*
X0121178Y0077535D03*
X0121178Y0077335D03*
X0121178Y0077135D03*
X0121178Y0076935D03*
X0121178Y0076735D03*
X0121178Y0076535D03*
X0121178Y0076335D03*
X0121178Y0076135D03*
X0121178Y0074535D03*
X0121178Y0074335D03*
X0121178Y0074135D03*
X0121178Y0073935D03*
X0121178Y0073735D03*
X0121178Y0073535D03*
X0121178Y0073335D03*
X0121178Y0073135D03*
X0121178Y0072935D03*
X0121178Y0072735D03*
X0121178Y0072535D03*
X0121178Y0072335D03*
X0121178Y0072135D03*
X0121178Y0071935D03*
X0121178Y0071735D03*
X0121178Y0071535D03*
X0121178Y0071335D03*
X0121178Y0071135D03*
X0121178Y0070935D03*
X0121178Y0070735D03*
X0121178Y0070535D03*
X0121178Y0070335D03*
X0121178Y0070135D03*
X0116578Y0071335D03*
X0109018Y0071935D03*
X0108978Y0072135D03*
X0108978Y0074535D03*
X0109018Y0074735D03*
X0106578Y0072935D03*
X0106578Y0072735D03*
X0106578Y0072535D03*
X0106578Y0072335D03*
X0101418Y0078135D03*
X0101418Y0078335D03*
X0101418Y0078535D03*
X0101458Y0078735D03*
X0101498Y0078935D03*
X0125978Y0074535D03*
D71*
X0104318Y0080495D03*
X0103718Y0070175D03*
X0103718Y0144585D03*
X0104318Y0154905D03*
X0103718Y0218994D03*
X0104318Y0229314D03*
D72*
X0111398Y0225314D03*
X0111398Y0218994D03*
X0111398Y0150905D03*
X0111398Y0144585D03*
X0111398Y0076495D03*
X0111398Y0070175D03*
D73*
X0118018Y0070175D03*
X0118018Y0144585D03*
X0118018Y0218994D03*
D74*
X0103718Y0219034D03*
X0103718Y0144625D03*
X0103718Y0070215D03*
D75*
X0103718Y0070255D03*
X0103718Y0144665D03*
X0103718Y0219074D03*
D76*
X0111418Y0219074D03*
X0111418Y0144665D03*
X0111418Y0070255D03*
D77*
X0117778Y0070495D03*
X0117818Y0070455D03*
X0117938Y0070295D03*
X0117978Y0070255D03*
X0103738Y0075775D03*
X0103658Y0075815D03*
X0117978Y0144665D03*
X0117938Y0144705D03*
X0117818Y0144865D03*
X0117778Y0144905D03*
X0103738Y0150185D03*
X0103658Y0150225D03*
X0117978Y0219074D03*
X0117938Y0219114D03*
X0117818Y0219274D03*
X0117778Y0219314D03*
X0103738Y0224594D03*
X0103658Y0224634D03*
D78*
X0103718Y0219114D03*
X0103718Y0144705D03*
X0103718Y0070295D03*
D79*
X0111398Y0070295D03*
X0111398Y0076375D03*
X0123798Y0076175D03*
X0111398Y0144705D03*
X0111398Y0150785D03*
X0123798Y0150585D03*
X0111398Y0219114D03*
X0111398Y0225194D03*
X0123798Y0224994D03*
D80*
X0103718Y0219154D03*
X0103718Y0144745D03*
X0103718Y0070335D03*
D81*
X0111398Y0070335D03*
X0111398Y0076335D03*
X0111398Y0144745D03*
X0111398Y0150745D03*
X0111398Y0219154D03*
X0111398Y0225154D03*
D82*
X0103698Y0219194D03*
X0103698Y0144785D03*
X0103698Y0070375D03*
D83*
X0111418Y0070375D03*
X0111418Y0144785D03*
X0111418Y0219194D03*
D84*
X0117878Y0219194D03*
X0117878Y0144785D03*
X0117878Y0070375D03*
D85*
X0103698Y0070415D03*
X0104218Y0080175D03*
X0103698Y0144825D03*
X0104218Y0154585D03*
X0103698Y0219234D03*
X0104218Y0228994D03*
D86*
X0111418Y0219234D03*
X0111418Y0144825D03*
X0111418Y0070415D03*
D87*
X0117838Y0070415D03*
X0117838Y0144825D03*
X0117838Y0219234D03*
D88*
X0103698Y0219274D03*
X0103698Y0144865D03*
X0103698Y0070455D03*
D89*
X0111418Y0070455D03*
X0111418Y0144865D03*
X0111418Y0219274D03*
D90*
X0112598Y0219314D03*
X0110198Y0219314D03*
X0101838Y0219434D03*
X0101838Y0145025D03*
X0110198Y0144905D03*
X0112598Y0144905D03*
X0112598Y0070495D03*
X0110198Y0070495D03*
X0101838Y0070615D03*
D91*
X0105378Y0074935D03*
X0105418Y0070535D03*
X0105418Y0144945D03*
X0105378Y0149345D03*
X0105418Y0219354D03*
X0105378Y0223754D03*
D92*
X0110078Y0219354D03*
X0110078Y0144945D03*
X0110078Y0070535D03*
D93*
X0112718Y0070535D03*
X0112718Y0144945D03*
X0112718Y0219354D03*
D94*
X0117738Y0219354D03*
X0117738Y0144945D03*
X0117738Y0070535D03*
D95*
X0105518Y0070575D03*
X0105518Y0144985D03*
X0105518Y0219394D03*
D96*
X0109998Y0219394D03*
X0112798Y0219394D03*
X0109958Y0224874D03*
X0102158Y0225474D03*
X0121478Y0224474D03*
X0125078Y0224834D03*
X0125078Y0150425D03*
X0121478Y0150065D03*
X0112798Y0144985D03*
X0109998Y0144985D03*
X0109958Y0150465D03*
X0102158Y0151065D03*
X0102158Y0076655D03*
X0109958Y0076055D03*
X0109998Y0070575D03*
X0112798Y0070575D03*
X0121478Y0075655D03*
X0125078Y0076015D03*
D97*
X0124918Y0076095D03*
X0121558Y0075775D03*
X0111398Y0076975D03*
X0105598Y0074775D03*
X0105598Y0070615D03*
X0101758Y0070655D03*
X0101758Y0145065D03*
X0105598Y0145025D03*
X0105598Y0149185D03*
X0111398Y0151385D03*
X0121558Y0150185D03*
X0124918Y0150505D03*
X0105598Y0219434D03*
X0105598Y0223594D03*
X0111398Y0225794D03*
X0121558Y0224594D03*
X0124918Y0224914D03*
X0101758Y0219474D03*
D98*
X0101558Y0219594D03*
X0109918Y0219434D03*
X0112878Y0219434D03*
X0112958Y0224794D03*
X0109878Y0224834D03*
X0102158Y0228714D03*
X0125118Y0224794D03*
X0102158Y0154305D03*
X0109878Y0150425D03*
X0112958Y0150385D03*
X0112878Y0145025D03*
X0109918Y0145025D03*
X0101558Y0145185D03*
X0125118Y0150385D03*
X0102158Y0079895D03*
X0109878Y0076015D03*
X0112958Y0075975D03*
X0112878Y0070615D03*
X0109918Y0070615D03*
X0101558Y0070775D03*
X0125118Y0075975D03*
D99*
X0117178Y0070615D03*
X0102258Y0076575D03*
X0117178Y0145025D03*
X0102258Y0150985D03*
X0117178Y0219434D03*
X0102258Y0225394D03*
D100*
X0102018Y0225594D03*
X0105858Y0219594D03*
X0109858Y0219474D03*
X0109818Y0224794D03*
X0117058Y0219474D03*
X0125218Y0224714D03*
X0125218Y0150305D03*
X0117058Y0145065D03*
X0109858Y0145065D03*
X0105858Y0145185D03*
X0109818Y0150385D03*
X0102018Y0151185D03*
X0102018Y0076775D03*
X0105858Y0070775D03*
X0109858Y0070655D03*
X0109818Y0075975D03*
X0117058Y0070655D03*
X0125218Y0075895D03*
D101*
X0121458Y0075615D03*
X0112898Y0076015D03*
X0111378Y0077015D03*
X0105858Y0074575D03*
X0105818Y0074615D03*
X0105738Y0070695D03*
X0102098Y0076695D03*
X0105738Y0145105D03*
X0105858Y0148985D03*
X0105818Y0149025D03*
X0102098Y0151105D03*
X0111378Y0151425D03*
X0112898Y0150425D03*
X0121458Y0150025D03*
X0105738Y0219514D03*
X0105858Y0223394D03*
X0105818Y0223434D03*
X0102098Y0225514D03*
X0111378Y0225834D03*
X0112898Y0224834D03*
X0121458Y0224434D03*
D102*
X0121378Y0224274D03*
X0125298Y0224634D03*
X0116978Y0219514D03*
X0112978Y0219514D03*
X0109818Y0219514D03*
X0105978Y0219714D03*
X0105898Y0219634D03*
X0101418Y0219714D03*
X0101898Y0225714D03*
X0102058Y0228634D03*
X0104258Y0229834D03*
X0113058Y0224714D03*
X0104258Y0155425D03*
X0102058Y0154225D03*
X0101898Y0151305D03*
X0101418Y0145305D03*
X0105898Y0145225D03*
X0105978Y0145305D03*
X0109818Y0145105D03*
X0112978Y0145105D03*
X0116978Y0145105D03*
X0121378Y0149865D03*
X0125298Y0150225D03*
X0113058Y0150305D03*
X0104258Y0081015D03*
X0102058Y0079815D03*
X0101898Y0076895D03*
X0101418Y0070895D03*
X0105898Y0070815D03*
X0105978Y0070895D03*
X0109818Y0070695D03*
X0112978Y0070695D03*
X0116978Y0070695D03*
X0121378Y0075455D03*
X0125298Y0075815D03*
X0113058Y0075895D03*
D103*
X0102218Y0079935D03*
X0101618Y0070735D03*
X0101618Y0145145D03*
X0102218Y0154345D03*
X0101618Y0219554D03*
X0102218Y0228754D03*
D104*
X0102078Y0225554D03*
X0105798Y0219554D03*
X0102078Y0151145D03*
X0105798Y0145145D03*
X0102078Y0076735D03*
X0105798Y0070735D03*
D105*
X0109778Y0070735D03*
X0101378Y0070935D03*
X0109778Y0145145D03*
X0101378Y0145345D03*
X0101378Y0219754D03*
X0109778Y0219554D03*
D106*
X0113038Y0219554D03*
X0106078Y0223154D03*
X0101878Y0225754D03*
X0101958Y0228554D03*
X0106078Y0228754D03*
X0106078Y0154345D03*
X0106078Y0148745D03*
X0101878Y0151345D03*
X0101958Y0154145D03*
X0113038Y0145145D03*
X0106078Y0079935D03*
X0101958Y0079735D03*
X0101878Y0076935D03*
X0106078Y0074335D03*
X0113038Y0070735D03*
D107*
X0116918Y0070735D03*
X0109558Y0075735D03*
X0116918Y0145145D03*
X0109558Y0150145D03*
X0116918Y0219554D03*
X0109558Y0224554D03*
D108*
X0109458Y0224434D03*
X0106258Y0222874D03*
X0106218Y0222914D03*
X0101258Y0219874D03*
X0116858Y0219594D03*
X0122418Y0224914D03*
X0122418Y0150505D03*
X0116858Y0145185D03*
X0109458Y0150025D03*
X0106258Y0148465D03*
X0106218Y0148505D03*
X0101258Y0145465D03*
X0122418Y0076095D03*
X0116858Y0070775D03*
X0109458Y0075615D03*
X0106258Y0074055D03*
X0106218Y0074095D03*
X0101258Y0071055D03*
D109*
X0101298Y0071015D03*
X0106098Y0074295D03*
X0109618Y0075775D03*
X0109658Y0075815D03*
X0109658Y0070815D03*
X0101818Y0077015D03*
X0125418Y0075695D03*
X0125458Y0075655D03*
X0109658Y0145225D03*
X0109618Y0150185D03*
X0109658Y0150225D03*
X0106098Y0148705D03*
X0101818Y0151425D03*
X0101298Y0145425D03*
X0125418Y0150105D03*
X0125458Y0150065D03*
X0109658Y0219634D03*
X0106098Y0223114D03*
X0109618Y0224594D03*
X0109658Y0224634D03*
X0101818Y0225834D03*
X0101298Y0219834D03*
X0125418Y0224514D03*
X0125458Y0224474D03*
D110*
X0121338Y0224194D03*
X0113138Y0219634D03*
X0106138Y0223074D03*
X0101338Y0219794D03*
X0106138Y0148665D03*
X0101338Y0145385D03*
X0113138Y0145225D03*
X0121338Y0149785D03*
X0121338Y0075375D03*
X0113138Y0070815D03*
X0106138Y0074255D03*
X0101338Y0070975D03*
D111*
X0101238Y0071095D03*
X0101638Y0077255D03*
X0101838Y0079615D03*
X0109438Y0075575D03*
X0113438Y0075495D03*
X0116838Y0070815D03*
X0109438Y0071055D03*
X0125638Y0075415D03*
X0116838Y0145225D03*
X0113438Y0149905D03*
X0109438Y0149985D03*
X0109438Y0145465D03*
X0101238Y0145505D03*
X0101638Y0151665D03*
X0101838Y0154025D03*
X0125638Y0149825D03*
X0116838Y0219634D03*
X0113438Y0224314D03*
X0109438Y0224394D03*
X0109438Y0219874D03*
X0101238Y0219914D03*
X0101638Y0226074D03*
X0101838Y0228434D03*
X0125638Y0224234D03*
D112*
X0123738Y0225834D03*
X0109738Y0224714D03*
X0105938Y0219674D03*
X0101938Y0225674D03*
X0101938Y0151265D03*
X0105938Y0145265D03*
X0109738Y0150305D03*
X0123738Y0151425D03*
X0123738Y0077015D03*
X0109738Y0075895D03*
X0105938Y0070855D03*
X0101938Y0076855D03*
D113*
X0101878Y0079655D03*
X0106198Y0074175D03*
X0106078Y0071015D03*
X0106038Y0070975D03*
X0109598Y0070895D03*
X0109638Y0070855D03*
X0113198Y0070895D03*
X0113278Y0075695D03*
X0125478Y0075615D03*
X0109638Y0145265D03*
X0109598Y0145305D03*
X0106078Y0145425D03*
X0106038Y0145385D03*
X0106198Y0148585D03*
X0101878Y0154065D03*
X0113278Y0150105D03*
X0113198Y0145305D03*
X0125478Y0150025D03*
X0113198Y0219714D03*
X0109638Y0219674D03*
X0109598Y0219714D03*
X0106078Y0219834D03*
X0106038Y0219794D03*
X0106198Y0222994D03*
X0101878Y0228474D03*
X0113278Y0224514D03*
X0125478Y0224434D03*
D114*
X0125518Y0224394D03*
X0121318Y0224114D03*
X0113318Y0224474D03*
X0113158Y0219674D03*
X0106158Y0223034D03*
X0101758Y0225874D03*
X0101918Y0228514D03*
X0101918Y0154105D03*
X0101758Y0151465D03*
X0106158Y0148625D03*
X0113318Y0150065D03*
X0113158Y0145265D03*
X0121318Y0149705D03*
X0125518Y0149985D03*
X0101918Y0079695D03*
X0101758Y0077055D03*
X0106158Y0074215D03*
X0113318Y0075655D03*
X0113158Y0070855D03*
X0121318Y0075295D03*
X0125518Y0075575D03*
D115*
X0125658Y0075375D03*
X0125698Y0075295D03*
X0125738Y0075255D03*
X0121258Y0075055D03*
X0121258Y0075015D03*
X0116778Y0070855D03*
X0113498Y0071255D03*
X0113458Y0071215D03*
X0113458Y0071175D03*
X0109418Y0071095D03*
X0106258Y0071255D03*
X0106218Y0071175D03*
X0106378Y0073815D03*
X0106378Y0073855D03*
X0106338Y0073895D03*
X0109298Y0075415D03*
X0109338Y0075455D03*
X0113498Y0075415D03*
X0113538Y0075375D03*
X0113578Y0075295D03*
X0101658Y0077215D03*
X0101618Y0077295D03*
X0101738Y0079495D03*
X0116778Y0145265D03*
X0113498Y0145665D03*
X0113458Y0145625D03*
X0113458Y0145585D03*
X0109418Y0145505D03*
X0106258Y0145665D03*
X0106218Y0145585D03*
X0106378Y0148225D03*
X0106378Y0148265D03*
X0106338Y0148305D03*
X0109298Y0149825D03*
X0109338Y0149865D03*
X0113498Y0149825D03*
X0113538Y0149785D03*
X0113578Y0149705D03*
X0121258Y0149465D03*
X0121258Y0149425D03*
X0125658Y0149785D03*
X0125698Y0149705D03*
X0125738Y0149665D03*
X0101658Y0151625D03*
X0101618Y0151705D03*
X0101738Y0153905D03*
X0106218Y0219994D03*
X0106258Y0220074D03*
X0106378Y0222634D03*
X0106378Y0222674D03*
X0106338Y0222714D03*
X0109298Y0224234D03*
X0109338Y0224274D03*
X0113498Y0224234D03*
X0113538Y0224194D03*
X0113578Y0224114D03*
X0113498Y0220074D03*
X0113458Y0220034D03*
X0113458Y0219994D03*
X0116778Y0219674D03*
X0121258Y0223834D03*
X0121258Y0223874D03*
X0125658Y0224194D03*
X0125698Y0224114D03*
X0125738Y0224074D03*
X0109418Y0219914D03*
X0101658Y0226034D03*
X0101618Y0226114D03*
X0101738Y0228314D03*
D116*
X0106018Y0219754D03*
X0125378Y0224554D03*
X0125378Y0150145D03*
X0106018Y0145345D03*
X0125378Y0075735D03*
X0106018Y0070935D03*
D117*
X0109578Y0070935D03*
X0101698Y0077135D03*
X0125538Y0075535D03*
X0109578Y0145345D03*
X0101698Y0151545D03*
X0125538Y0149945D03*
X0109578Y0219754D03*
X0101698Y0225954D03*
X0125538Y0224354D03*
D118*
X0113258Y0219754D03*
X0106218Y0222954D03*
X0106218Y0148545D03*
X0113258Y0145345D03*
X0106218Y0074135D03*
X0113258Y0070935D03*
D119*
X0113558Y0071335D03*
X0116718Y0070935D03*
X0109158Y0075135D03*
X0106318Y0071335D03*
X0101598Y0077335D03*
X0125798Y0075135D03*
X0116718Y0145345D03*
X0113558Y0145745D03*
X0109158Y0149545D03*
X0106318Y0145745D03*
X0101598Y0151745D03*
X0125798Y0149545D03*
X0116718Y0219754D03*
X0113558Y0220154D03*
X0109158Y0223954D03*
X0106318Y0220154D03*
X0101598Y0226154D03*
X0125798Y0223954D03*
D120*
X0121298Y0223994D03*
X0121298Y0224034D03*
X0121298Y0224074D03*
X0113378Y0224394D03*
X0113338Y0224434D03*
X0109538Y0224514D03*
X0109498Y0224474D03*
X0109538Y0219794D03*
X0106138Y0219874D03*
X0101738Y0225914D03*
X0106138Y0228714D03*
X0106138Y0154305D03*
X0109538Y0150105D03*
X0109498Y0150065D03*
X0113338Y0150025D03*
X0113378Y0149985D03*
X0109538Y0145385D03*
X0106138Y0145465D03*
X0101738Y0151505D03*
X0121298Y0149665D03*
X0121298Y0149625D03*
X0121298Y0149585D03*
X0106138Y0079895D03*
X0101738Y0077095D03*
X0106138Y0071055D03*
X0109538Y0070975D03*
X0109498Y0075655D03*
X0109538Y0075695D03*
X0113338Y0075615D03*
X0113378Y0075575D03*
X0121298Y0075255D03*
X0121298Y0075215D03*
X0121298Y0075175D03*
D121*
X0121278Y0075095D03*
X0125598Y0075455D03*
X0125598Y0075495D03*
X0113478Y0075455D03*
X0109358Y0075495D03*
X0106318Y0073975D03*
X0106278Y0074015D03*
X0106158Y0071095D03*
X0109478Y0071015D03*
X0113278Y0070975D03*
X0113318Y0071015D03*
X0113358Y0071055D03*
X0113398Y0071095D03*
X0101678Y0077175D03*
X0101798Y0079575D03*
X0106158Y0145505D03*
X0106318Y0148385D03*
X0106278Y0148425D03*
X0109358Y0149905D03*
X0113478Y0149865D03*
X0113398Y0145505D03*
X0113358Y0145465D03*
X0113318Y0145425D03*
X0113278Y0145385D03*
X0109478Y0145425D03*
X0101678Y0151585D03*
X0101798Y0153985D03*
X0121278Y0149505D03*
X0125598Y0149865D03*
X0125598Y0149905D03*
X0113278Y0219794D03*
X0113318Y0219834D03*
X0113358Y0219874D03*
X0113398Y0219914D03*
X0109478Y0219834D03*
X0106158Y0219914D03*
X0106318Y0222794D03*
X0106278Y0222834D03*
X0109358Y0224314D03*
X0113478Y0224274D03*
X0121278Y0223914D03*
X0125598Y0224274D03*
X0125598Y0224314D03*
X0101678Y0225994D03*
X0101798Y0228394D03*
D122*
X0101578Y0228034D03*
X0101498Y0226474D03*
X0101498Y0226434D03*
X0101538Y0226314D03*
X0106178Y0228674D03*
X0109178Y0224034D03*
X0109178Y0223994D03*
X0109138Y0223914D03*
X0109138Y0223874D03*
X0109098Y0223834D03*
X0109098Y0223794D03*
X0106498Y0222314D03*
X0106498Y0222274D03*
X0106498Y0222234D03*
X0106378Y0220314D03*
X0106378Y0220274D03*
X0106338Y0220234D03*
X0109138Y0220394D03*
X0109178Y0220314D03*
X0113578Y0220194D03*
X0113698Y0220434D03*
X0116698Y0219834D03*
X0113698Y0223834D03*
X0113698Y0223874D03*
X0122298Y0224834D03*
X0125898Y0223674D03*
X0101178Y0220034D03*
X0106178Y0154265D03*
X0109178Y0149625D03*
X0109178Y0149585D03*
X0109138Y0149505D03*
X0109138Y0149465D03*
X0109098Y0149425D03*
X0109098Y0149385D03*
X0106498Y0147905D03*
X0106498Y0147865D03*
X0106498Y0147825D03*
X0106378Y0145905D03*
X0106378Y0145865D03*
X0106338Y0145825D03*
X0109138Y0145985D03*
X0109178Y0145905D03*
X0113578Y0145785D03*
X0113698Y0146025D03*
X0116698Y0145425D03*
X0113698Y0149425D03*
X0113698Y0149465D03*
X0122298Y0150425D03*
X0125898Y0149265D03*
X0101538Y0151905D03*
X0101498Y0152025D03*
X0101498Y0152065D03*
X0101578Y0153625D03*
X0101178Y0145625D03*
X0106178Y0079855D03*
X0101578Y0079215D03*
X0101498Y0077655D03*
X0101498Y0077615D03*
X0101538Y0077495D03*
X0101178Y0071215D03*
X0106338Y0071415D03*
X0106378Y0071455D03*
X0106378Y0071495D03*
X0106498Y0073415D03*
X0106498Y0073455D03*
X0106498Y0073495D03*
X0109098Y0074975D03*
X0109098Y0075015D03*
X0109138Y0075055D03*
X0109138Y0075095D03*
X0109178Y0075175D03*
X0109178Y0075215D03*
X0109138Y0071575D03*
X0109178Y0071495D03*
X0113578Y0071375D03*
X0113698Y0071615D03*
X0116698Y0071015D03*
X0113698Y0075015D03*
X0113698Y0075055D03*
X0122298Y0076015D03*
X0125898Y0074855D03*
D123*
X0125858Y0074975D03*
X0125858Y0075015D03*
X0125818Y0075055D03*
X0125818Y0075095D03*
X0121218Y0074855D03*
X0121218Y0074815D03*
X0121218Y0074775D03*
X0116658Y0071055D03*
X0113618Y0071455D03*
X0113618Y0071495D03*
X0113658Y0075095D03*
X0109218Y0075255D03*
X0106458Y0073655D03*
X0106458Y0073615D03*
X0106458Y0073575D03*
X0106418Y0071575D03*
X0109218Y0071415D03*
X0109218Y0071375D03*
X0101618Y0079295D03*
X0101658Y0079375D03*
X0106418Y0145985D03*
X0106458Y0147985D03*
X0106458Y0148025D03*
X0106458Y0148065D03*
X0109218Y0149665D03*
X0109218Y0145825D03*
X0109218Y0145785D03*
X0113618Y0145865D03*
X0113618Y0145905D03*
X0116658Y0145465D03*
X0113658Y0149505D03*
X0121218Y0149265D03*
X0121218Y0149225D03*
X0121218Y0149185D03*
X0125818Y0149465D03*
X0125818Y0149505D03*
X0125858Y0149425D03*
X0125858Y0149385D03*
X0101658Y0153785D03*
X0101618Y0153705D03*
X0106418Y0220394D03*
X0106458Y0222394D03*
X0106458Y0222434D03*
X0106458Y0222474D03*
X0109218Y0224074D03*
X0109218Y0220234D03*
X0109218Y0220194D03*
X0113618Y0220274D03*
X0113618Y0220314D03*
X0116658Y0219874D03*
X0113658Y0223914D03*
X0121218Y0223674D03*
X0121218Y0223634D03*
X0121218Y0223594D03*
X0125818Y0223874D03*
X0125818Y0223914D03*
X0125858Y0223834D03*
X0125858Y0223794D03*
X0101658Y0228194D03*
X0101618Y0228114D03*
D124*
X0101598Y0228074D03*
X0101478Y0227714D03*
X0101478Y0227674D03*
X0101438Y0226794D03*
X0101438Y0226714D03*
X0101438Y0226674D03*
X0101438Y0226634D03*
X0101478Y0226594D03*
X0101478Y0226514D03*
X0106478Y0220634D03*
X0106478Y0220594D03*
X0106438Y0220474D03*
X0106438Y0220434D03*
X0108998Y0220834D03*
X0109038Y0220674D03*
X0109038Y0220634D03*
X0109078Y0220514D03*
X0109198Y0220274D03*
X0108998Y0223474D03*
X0109038Y0223594D03*
X0109038Y0223634D03*
X0109038Y0223674D03*
X0109078Y0223714D03*
X0113798Y0223594D03*
X0113798Y0220714D03*
X0113678Y0220394D03*
X0116598Y0220074D03*
X0116598Y0220034D03*
X0116638Y0219914D03*
X0121198Y0223434D03*
X0121198Y0223474D03*
X0121198Y0223514D03*
X0125878Y0223714D03*
X0101598Y0153665D03*
X0101478Y0153305D03*
X0101478Y0153265D03*
X0101438Y0152385D03*
X0101438Y0152305D03*
X0101438Y0152265D03*
X0101438Y0152225D03*
X0101478Y0152185D03*
X0101478Y0152105D03*
X0106478Y0146225D03*
X0106478Y0146185D03*
X0106438Y0146065D03*
X0106438Y0146025D03*
X0108998Y0146425D03*
X0109038Y0146265D03*
X0109038Y0146225D03*
X0109078Y0146105D03*
X0109198Y0145865D03*
X0108998Y0149065D03*
X0109038Y0149185D03*
X0109038Y0149225D03*
X0109038Y0149265D03*
X0109078Y0149305D03*
X0113798Y0149185D03*
X0113798Y0146305D03*
X0113678Y0145985D03*
X0116598Y0145665D03*
X0116598Y0145625D03*
X0116638Y0145505D03*
X0121198Y0149025D03*
X0121198Y0149065D03*
X0121198Y0149105D03*
X0125878Y0149305D03*
X0101598Y0079255D03*
X0101478Y0078895D03*
X0101478Y0078855D03*
X0101438Y0077975D03*
X0101438Y0077895D03*
X0101438Y0077855D03*
X0101438Y0077815D03*
X0101478Y0077775D03*
X0101478Y0077695D03*
X0106478Y0071815D03*
X0106478Y0071775D03*
X0106438Y0071655D03*
X0106438Y0071615D03*
X0108998Y0072015D03*
X0109038Y0071855D03*
X0109038Y0071815D03*
X0109078Y0071695D03*
X0109198Y0071455D03*
X0108998Y0074655D03*
X0109038Y0074775D03*
X0109038Y0074815D03*
X0109038Y0074855D03*
X0109078Y0074895D03*
X0113798Y0074775D03*
X0113798Y0071895D03*
X0113678Y0071575D03*
X0116598Y0071255D03*
X0116598Y0071215D03*
X0116638Y0071095D03*
X0121198Y0074615D03*
X0121198Y0074655D03*
X0121198Y0074695D03*
X0125878Y0074895D03*
D125*
X0125698Y0075335D03*
X0113538Y0075335D03*
X0113418Y0071135D03*
X0109378Y0071135D03*
X0106338Y0073935D03*
X0109258Y0075335D03*
X0101778Y0079535D03*
X0101218Y0071135D03*
X0101218Y0145545D03*
X0106338Y0148345D03*
X0109258Y0149745D03*
X0109378Y0145545D03*
X0113418Y0145545D03*
X0113538Y0149745D03*
X0125698Y0149745D03*
X0101778Y0153945D03*
X0101218Y0219954D03*
X0106338Y0222754D03*
X0109258Y0224154D03*
X0109378Y0219954D03*
X0113418Y0219954D03*
X0113538Y0224154D03*
X0125698Y0224154D03*
X0101778Y0228354D03*
D126*
X0109398Y0224354D03*
X0113398Y0224354D03*
X0121278Y0223954D03*
X0106198Y0219954D03*
X0109398Y0149945D03*
X0113398Y0149945D03*
X0121278Y0149545D03*
X0106198Y0145545D03*
X0109398Y0075535D03*
X0113398Y0075535D03*
X0121278Y0075135D03*
X0106198Y0071135D03*
D127*
X0106398Y0071535D03*
X0106478Y0071735D03*
X0106478Y0073535D03*
X0109078Y0074935D03*
X0109078Y0071735D03*
X0113798Y0071935D03*
X0113798Y0074735D03*
X0116638Y0071135D03*
X0121198Y0074735D03*
X0125878Y0074935D03*
X0101478Y0077735D03*
X0101438Y0077935D03*
X0106398Y0145945D03*
X0106478Y0146145D03*
X0106478Y0147945D03*
X0109078Y0149345D03*
X0109078Y0146145D03*
X0113798Y0146345D03*
X0113798Y0149145D03*
X0116638Y0145545D03*
X0121198Y0149145D03*
X0125878Y0149345D03*
X0101478Y0152145D03*
X0101438Y0152345D03*
X0106398Y0220354D03*
X0106478Y0220554D03*
X0106478Y0222354D03*
X0109078Y0223754D03*
X0109078Y0220554D03*
X0113798Y0220754D03*
X0113798Y0223554D03*
X0116638Y0219954D03*
X0121198Y0223554D03*
X0125878Y0223754D03*
X0101478Y0226554D03*
X0101438Y0226754D03*
D128*
X0106438Y0222514D03*
X0106238Y0220034D03*
X0109238Y0224114D03*
X0113638Y0223994D03*
X0121238Y0223794D03*
X0121238Y0223714D03*
X0121238Y0149385D03*
X0121238Y0149305D03*
X0113638Y0149585D03*
X0109238Y0149705D03*
X0106438Y0148105D03*
X0106238Y0145625D03*
X0109238Y0075295D03*
X0106438Y0073695D03*
X0106238Y0071215D03*
X0113638Y0075175D03*
X0121238Y0074975D03*
X0121238Y0074895D03*
D129*
X0125918Y0074815D03*
X0125918Y0074775D03*
X0125958Y0074615D03*
X0113758Y0074855D03*
X0113758Y0074895D03*
X0113718Y0074975D03*
X0113758Y0071815D03*
X0113758Y0071775D03*
X0113718Y0071695D03*
X0113718Y0071655D03*
X0109118Y0071655D03*
X0109118Y0071615D03*
X0106518Y0071975D03*
X0106558Y0073055D03*
X0106558Y0073095D03*
X0106558Y0073175D03*
X0106558Y0073215D03*
X0106518Y0073295D03*
X0106518Y0073375D03*
X0101158Y0071255D03*
X0101518Y0079015D03*
X0101518Y0079055D03*
X0101558Y0079095D03*
X0101558Y0079175D03*
X0101158Y0145665D03*
X0106518Y0146385D03*
X0106558Y0147465D03*
X0106558Y0147505D03*
X0106558Y0147585D03*
X0106558Y0147625D03*
X0106518Y0147705D03*
X0106518Y0147785D03*
X0109118Y0146065D03*
X0109118Y0146025D03*
X0113718Y0146065D03*
X0113718Y0146105D03*
X0113758Y0146185D03*
X0113758Y0146225D03*
X0113758Y0149265D03*
X0113758Y0149305D03*
X0113718Y0149385D03*
X0125918Y0149225D03*
X0125918Y0149185D03*
X0125958Y0149025D03*
X0101558Y0153505D03*
X0101518Y0153465D03*
X0101518Y0153425D03*
X0101558Y0153585D03*
X0101158Y0220074D03*
X0106518Y0220794D03*
X0106558Y0221874D03*
X0106558Y0221914D03*
X0106558Y0221994D03*
X0106558Y0222034D03*
X0106518Y0222114D03*
X0106518Y0222194D03*
X0109118Y0220474D03*
X0109118Y0220434D03*
X0113718Y0220474D03*
X0113718Y0220514D03*
X0113758Y0220594D03*
X0113758Y0220634D03*
X0113758Y0223674D03*
X0113758Y0223714D03*
X0113718Y0223794D03*
X0125918Y0223634D03*
X0125918Y0223594D03*
X0125958Y0223434D03*
X0101558Y0227914D03*
X0101518Y0227874D03*
X0101518Y0227834D03*
X0101558Y0227994D03*
D130*
X0101658Y0228154D03*
X0106418Y0222554D03*
X0109258Y0220154D03*
X0113658Y0220354D03*
X0113658Y0223954D03*
X0101658Y0153745D03*
X0106418Y0148145D03*
X0109258Y0145745D03*
X0113658Y0145945D03*
X0113658Y0149545D03*
X0101658Y0079335D03*
X0106418Y0073735D03*
X0109258Y0071335D03*
X0113658Y0071535D03*
X0113658Y0075135D03*
D131*
X0116518Y0080295D03*
X0101118Y0071375D03*
X0101118Y0145785D03*
X0116518Y0154705D03*
X0101118Y0220194D03*
X0116518Y0229114D03*
D132*
X0109158Y0220354D03*
X0106518Y0220754D03*
X0106558Y0221954D03*
X0106518Y0222154D03*
X0101558Y0227954D03*
X0101558Y0153545D03*
X0106518Y0147745D03*
X0106558Y0147545D03*
X0106518Y0146345D03*
X0109158Y0145945D03*
X0101558Y0079135D03*
X0106518Y0073335D03*
X0106558Y0073135D03*
X0106518Y0071935D03*
X0109158Y0071535D03*
D133*
X0106538Y0072135D03*
X0113738Y0071735D03*
X0116538Y0071535D03*
X0125938Y0074735D03*
X0116538Y0145945D03*
X0113738Y0146145D03*
X0106538Y0146545D03*
X0125938Y0149145D03*
X0116538Y0220354D03*
X0113738Y0220554D03*
X0106538Y0220954D03*
X0125938Y0223554D03*
D134*
X0116498Y0229234D03*
X0101058Y0220394D03*
X0116498Y0154825D03*
X0101058Y0145985D03*
X0116498Y0080415D03*
X0101058Y0071575D03*
D135*
X0101078Y0071615D03*
X0106358Y0079655D03*
X0121158Y0081455D03*
X0101078Y0146025D03*
X0106358Y0154065D03*
X0121158Y0155865D03*
X0101078Y0220434D03*
X0106358Y0228474D03*
X0121158Y0230274D03*
D136*
X0121158Y0230314D03*
X0101078Y0220514D03*
X0121158Y0155905D03*
X0101078Y0146105D03*
X0121158Y0081495D03*
X0101078Y0071695D03*
D137*
X0101058Y0071735D03*
X0101058Y0146145D03*
X0101058Y0220554D03*
D138*
X0105958Y0223274D03*
X0105958Y0148865D03*
X0105958Y0074455D03*
D139*
X0105898Y0074535D03*
X0125178Y0075935D03*
X0125178Y0150345D03*
X0105898Y0148945D03*
X0105898Y0223354D03*
X0125178Y0224754D03*
D140*
X0121498Y0224514D03*
X0105778Y0223474D03*
X0105978Y0228834D03*
X0105978Y0154425D03*
X0105778Y0149065D03*
X0121498Y0150105D03*
X0105978Y0080015D03*
X0105778Y0074655D03*
X0121498Y0075695D03*
D141*
X0123758Y0076975D03*
X0112758Y0076095D03*
X0105718Y0074695D03*
X0105718Y0149105D03*
X0112758Y0150505D03*
X0123758Y0151385D03*
X0105718Y0223514D03*
X0112758Y0224914D03*
X0123758Y0225794D03*
D142*
X0105658Y0223554D03*
X0105658Y0149145D03*
X0105658Y0074735D03*
D143*
X0105538Y0074815D03*
X0105538Y0149225D03*
X0105538Y0223634D03*
D144*
X0105498Y0223674D03*
X0105498Y0149265D03*
X0105498Y0074855D03*
D145*
X0105438Y0074895D03*
X0105838Y0080055D03*
X0121638Y0075895D03*
X0121638Y0150305D03*
X0105438Y0149305D03*
X0105838Y0154465D03*
X0105438Y0223714D03*
X0105838Y0228874D03*
X0121638Y0224714D03*
D146*
X0113738Y0223754D03*
X0101538Y0226354D03*
X0101538Y0151945D03*
X0113738Y0149345D03*
X0101538Y0077535D03*
X0113738Y0074935D03*
D147*
X0121238Y0074935D03*
X0121238Y0149345D03*
X0121238Y0223754D03*
D148*
X0105318Y0223794D03*
X0105318Y0149385D03*
X0105318Y0074975D03*
D149*
X0105178Y0075055D03*
X0105178Y0149465D03*
X0105178Y0223874D03*
D150*
X0105038Y0223954D03*
X0105038Y0149545D03*
X0105038Y0075135D03*
D151*
X0104838Y0075255D03*
X0104838Y0149665D03*
X0104838Y0224074D03*
D152*
X0104738Y0224114D03*
X0102978Y0224994D03*
X0102978Y0150585D03*
X0104738Y0149705D03*
X0102978Y0076175D03*
X0104738Y0075295D03*
D153*
X0104658Y0075335D03*
X0103058Y0076135D03*
X0104658Y0149745D03*
X0103058Y0150545D03*
X0104658Y0224154D03*
X0103058Y0224954D03*
D154*
X0121338Y0224154D03*
X0121338Y0149745D03*
X0121338Y0075335D03*
D155*
X0111398Y0076815D03*
X0104598Y0075375D03*
X0103198Y0076055D03*
X0104598Y0149785D03*
X0103198Y0150465D03*
X0111398Y0151225D03*
X0104598Y0224194D03*
X0103198Y0224874D03*
X0111398Y0225634D03*
D156*
X0104518Y0224234D03*
X0103358Y0224794D03*
X0103358Y0150385D03*
X0104518Y0149825D03*
X0103358Y0075975D03*
X0104518Y0075415D03*
D157*
X0104338Y0075495D03*
X0103498Y0075895D03*
X0104338Y0149905D03*
X0103498Y0150305D03*
X0104338Y0224314D03*
X0103498Y0224714D03*
D158*
X0104218Y0224354D03*
X0104218Y0149945D03*
X0104218Y0075535D03*
D159*
X0113018Y0075935D03*
X0121418Y0075535D03*
X0121418Y0149945D03*
X0113018Y0150345D03*
X0121418Y0224354D03*
X0113018Y0224754D03*
D160*
X0106038Y0228794D03*
X0121438Y0224394D03*
X0106038Y0154385D03*
X0121438Y0149985D03*
X0106038Y0079975D03*
X0121438Y0075575D03*
D161*
X0104038Y0075615D03*
X0104038Y0150025D03*
X0104038Y0224434D03*
D162*
X0103798Y0224554D03*
X0103798Y0150145D03*
X0103798Y0075735D03*
D163*
X0113238Y0075735D03*
X0113238Y0150145D03*
X0113238Y0224554D03*
D164*
X0121538Y0224554D03*
X0121538Y0150145D03*
X0121538Y0075735D03*
D165*
X0121618Y0075855D03*
X0104258Y0080975D03*
X0121618Y0150265D03*
X0104258Y0155385D03*
X0121618Y0224674D03*
X0104258Y0229794D03*
D166*
X0109758Y0224754D03*
X0109758Y0150345D03*
X0109758Y0075935D03*
D167*
X0111398Y0076935D03*
X0121678Y0075935D03*
X0121678Y0150345D03*
X0111398Y0151345D03*
X0121678Y0224754D03*
X0111398Y0225754D03*
D168*
X0112838Y0224874D03*
X0112838Y0150465D03*
X0112838Y0076055D03*
D169*
X0102218Y0076615D03*
X0125018Y0076055D03*
X0125018Y0150465D03*
X0102218Y0151025D03*
X0102218Y0225434D03*
X0125018Y0224874D03*
D170*
X0103138Y0224914D03*
X0103138Y0150505D03*
X0103138Y0076095D03*
D171*
X0102318Y0076535D03*
X0110158Y0076135D03*
X0110158Y0150545D03*
X0102318Y0150945D03*
X0102318Y0225354D03*
X0110158Y0224954D03*
D172*
X0112638Y0224954D03*
X0112638Y0150545D03*
X0112638Y0076135D03*
D173*
X0122538Y0076135D03*
X0122538Y0150545D03*
X0122538Y0224954D03*
D174*
X0124818Y0224954D03*
X0124818Y0150545D03*
X0124818Y0076135D03*
D175*
X0111398Y0076175D03*
X0111398Y0076215D03*
X0111398Y0150585D03*
X0111398Y0150625D03*
X0111398Y0224994D03*
X0111398Y0225034D03*
D176*
X0117578Y0224994D03*
X0117578Y0150585D03*
X0117578Y0076175D03*
D177*
X0111398Y0076855D03*
X0102918Y0076215D03*
X0102918Y0150625D03*
X0111398Y0151265D03*
X0102918Y0225034D03*
X0111398Y0225674D03*
D178*
X0117618Y0225794D03*
X0117618Y0225034D03*
X0104298Y0229634D03*
X0104298Y0155225D03*
X0117618Y0151385D03*
X0117618Y0150625D03*
X0104298Y0080815D03*
X0117618Y0076975D03*
X0117618Y0076215D03*
D179*
X0123818Y0076215D03*
X0123818Y0150625D03*
X0123818Y0225034D03*
D180*
X0105638Y0228914D03*
X0102838Y0225074D03*
X0105638Y0154505D03*
X0102838Y0150665D03*
X0105638Y0080095D03*
X0102838Y0076255D03*
D181*
X0104318Y0080615D03*
X0111398Y0076255D03*
X0111398Y0150665D03*
X0104318Y0155025D03*
X0111398Y0225074D03*
X0104318Y0229434D03*
D182*
X0117638Y0225074D03*
X0117638Y0150665D03*
X0117638Y0076255D03*
D183*
X0123798Y0076255D03*
X0111398Y0076415D03*
X0111398Y0150825D03*
X0123798Y0150665D03*
X0123798Y0225074D03*
X0111398Y0225234D03*
D184*
X0102718Y0225114D03*
X0102718Y0150705D03*
X0102718Y0076295D03*
D185*
X0104318Y0080655D03*
X0111398Y0076295D03*
X0111398Y0150705D03*
X0104318Y0155065D03*
X0111398Y0225114D03*
X0104318Y0229474D03*
D186*
X0117658Y0225714D03*
X0117658Y0225674D03*
X0117658Y0225114D03*
X0117658Y0151305D03*
X0117658Y0151265D03*
X0117658Y0150705D03*
X0117658Y0076895D03*
X0117658Y0076855D03*
X0117658Y0076295D03*
D187*
X0123778Y0076295D03*
X0123778Y0150705D03*
X0123778Y0225114D03*
D188*
X0102678Y0225154D03*
X0102678Y0150745D03*
X0102678Y0076335D03*
D189*
X0117678Y0076335D03*
X0117678Y0150745D03*
X0117678Y0225154D03*
D190*
X0123778Y0225154D03*
X0123778Y0150745D03*
X0123778Y0076335D03*
D191*
X0117678Y0076375D03*
X0117678Y0076815D03*
X0117678Y0150785D03*
X0117678Y0151225D03*
X0117678Y0225194D03*
X0117678Y0225634D03*
D192*
X0123778Y0225194D03*
X0123778Y0150785D03*
X0123778Y0076375D03*
D193*
X0102538Y0076415D03*
X0102538Y0080055D03*
X0102538Y0150825D03*
X0102538Y0154465D03*
X0102538Y0225234D03*
X0102538Y0228874D03*
D194*
X0123778Y0225234D03*
X0123778Y0150825D03*
X0123778Y0076415D03*
D195*
X0102458Y0076455D03*
X0102458Y0150865D03*
X0102458Y0225274D03*
D196*
X0111418Y0225274D03*
X0111418Y0150865D03*
X0111418Y0076455D03*
D197*
X0117698Y0076535D03*
X0117698Y0076735D03*
X0117698Y0150945D03*
X0117698Y0151145D03*
X0117698Y0225354D03*
X0117698Y0225554D03*
D198*
X0123778Y0225354D03*
X0123778Y0150945D03*
X0123778Y0076535D03*
D199*
X0123758Y0076615D03*
X0111398Y0076695D03*
X0111398Y0151105D03*
X0123758Y0151025D03*
X0123758Y0225434D03*
X0111398Y0225514D03*
D200*
X0123778Y0225474D03*
X0123778Y0151065D03*
X0123778Y0076655D03*
D201*
X0111378Y0076735D03*
X0111378Y0151145D03*
X0111378Y0225554D03*
D202*
X0123778Y0225554D03*
X0123778Y0151145D03*
X0123778Y0076735D03*
D203*
X0111398Y0076895D03*
X0111398Y0151305D03*
X0111398Y0225714D03*
D204*
X0123758Y0225714D03*
X0123758Y0151305D03*
X0123758Y0076895D03*
D205*
X0117638Y0076935D03*
X0117638Y0151345D03*
X0117638Y0225754D03*
D206*
X0123738Y0225754D03*
X0123738Y0151345D03*
X0123738Y0076935D03*
D207*
X0123738Y0077055D03*
X0123738Y0151465D03*
X0123738Y0225874D03*
D208*
X0116498Y0229314D03*
X0111378Y0225914D03*
X0116498Y0154905D03*
X0111378Y0151505D03*
X0116498Y0080495D03*
X0111378Y0077095D03*
D209*
X0123738Y0077095D03*
X0123738Y0151505D03*
X0123738Y0225914D03*
D210*
X0106378Y0228354D03*
X0106378Y0153945D03*
X0106378Y0079535D03*
D211*
X0106378Y0079615D03*
X0116498Y0080455D03*
X0106378Y0154025D03*
X0116498Y0154865D03*
X0106378Y0228434D03*
X0116498Y0229274D03*
D212*
X0106318Y0228514D03*
X0106318Y0154105D03*
X0106318Y0079695D03*
D213*
X0106258Y0079775D03*
X0106258Y0154185D03*
X0106258Y0228594D03*
D214*
X0104198Y0228954D03*
X0104198Y0154545D03*
X0104198Y0080135D03*
D215*
X0104238Y0080215D03*
X0104238Y0154625D03*
X0104238Y0229034D03*
D216*
X0104238Y0229074D03*
X0104238Y0154665D03*
X0104238Y0080255D03*
D217*
X0104258Y0080295D03*
X0104258Y0154705D03*
X0104258Y0229114D03*
D218*
X0104258Y0229154D03*
X0104258Y0154745D03*
X0104258Y0080335D03*
D219*
X0116518Y0080335D03*
X0116518Y0154745D03*
X0116518Y0229154D03*
D220*
X0104278Y0229194D03*
X0104278Y0154785D03*
X0104278Y0080375D03*
D221*
X0104298Y0080415D03*
X0104298Y0154825D03*
X0104298Y0229234D03*
D222*
X0104298Y0229274D03*
X0104298Y0154865D03*
X0104298Y0080455D03*
D223*
X0104318Y0080695D03*
X0104318Y0155105D03*
X0104318Y0229514D03*
D224*
X0104318Y0229554D03*
X0104318Y0155145D03*
X0104318Y0080735D03*
D225*
X0104318Y0080775D03*
X0104318Y0155185D03*
X0104318Y0229594D03*
D226*
X0104298Y0229674D03*
X0104298Y0155265D03*
X0104298Y0080855D03*
D227*
X0104258Y0080935D03*
X0104258Y0155345D03*
X0104258Y0229754D03*
D228*
X0104218Y0229874D03*
X0104218Y0155465D03*
X0104218Y0081055D03*
D229*
X0121178Y0081335D03*
X0121178Y0155745D03*
X0121178Y0230154D03*
D230*
X0121178Y0230194D03*
X0121178Y0155785D03*
X0121178Y0081375D03*
D231*
X0121178Y0081415D03*
X0121178Y0155825D03*
X0121178Y0230234D03*
M02*
