G75*
%MOIN*%
%OFA0B0*%
%FSLAX25Y25*%
%IPPOS*%
%LPD*%
%AMOC8*
5,1,8,0,0,1.08239X$1,22.5*
%
%ADD10C,0.01600*%
%ADD11C,0.05200*%
%ADD12C,0.07400*%
%ADD13R,0.11811X0.04331*%
%ADD14R,0.07874X0.07874*%
%ADD15C,0.03962*%
%ADD16C,0.00394*%
D10*
X0023079Y0013236D02*
X0338039Y0013236D01*
X0338039Y0328197D01*
X0023079Y0328197D01*
X0023079Y0013236D01*
X0087094Y0066268D02*
X0136346Y0066268D01*
X0136858Y0066780D01*
X0134102Y0073866D02*
X0144732Y0073866D01*
X0151819Y0066780D01*
X0156150Y0077803D02*
X0168748Y0065205D01*
X0187252Y0065205D01*
X0187252Y0071110D02*
X0178591Y0071110D01*
X0173827Y0075874D01*
X0173827Y0086346D01*
X0171583Y0086071D01*
X0165992Y0086071D01*
X0162055Y0090008D01*
X0162055Y0106150D01*
X0151858Y0116346D01*
X0143827Y0116346D01*
X0143827Y0126346D01*
X0143827Y0116346D02*
X0141740Y0116465D01*
X0131189Y0116465D01*
X0129142Y0116386D01*
X0119929Y0116386D01*
X0119535Y0115992D01*
X0119535Y0103000D01*
X0126071Y0096465D01*
X0131189Y0096465D01*
X0128906Y0106150D02*
X0131189Y0106465D01*
X0119929Y0116386D02*
X0110874Y0116386D01*
X0100953Y0106465D01*
X0101189Y0106465D01*
X0099142Y0106543D01*
X0097094Y0106543D01*
X0087370Y0116268D01*
X0087094Y0116268D01*
X0087094Y0106268D02*
X0087134Y0106268D01*
X0096701Y0096701D01*
X0098984Y0096701D01*
X0101189Y0096465D01*
X0117016Y0096465D01*
X0127016Y0086465D01*
X0141740Y0086465D01*
X0143827Y0086346D01*
X0149063Y0079378D02*
X0136858Y0079378D01*
X0134102Y0082134D01*
X0124260Y0082134D01*
X0116386Y0090008D01*
X0094339Y0090008D01*
X0089220Y0095126D01*
X0088236Y0095126D01*
X0087094Y0096268D01*
X0087094Y0076268D02*
X0131701Y0076268D01*
X0134102Y0073866D01*
X0149063Y0079378D02*
X0153787Y0084102D01*
X0153787Y0101819D01*
X0149260Y0106346D01*
X0143827Y0106346D01*
X0131189Y0126465D02*
X0134102Y0131346D01*
X0166858Y0131346D01*
X0173827Y0126346D01*
X0168748Y0139614D02*
X0187252Y0139614D01*
X0187252Y0145520D02*
X0178591Y0145520D01*
X0173827Y0150283D01*
X0173827Y0160756D01*
X0171583Y0160480D01*
X0165992Y0160480D01*
X0162055Y0164417D01*
X0162055Y0180559D01*
X0151858Y0190756D01*
X0143827Y0190756D01*
X0143827Y0200756D01*
X0143827Y0190756D02*
X0141740Y0190874D01*
X0131189Y0190874D01*
X0129142Y0190795D01*
X0119929Y0190795D01*
X0119535Y0190402D01*
X0119535Y0177409D01*
X0126071Y0170874D01*
X0131189Y0170874D01*
X0128906Y0180559D02*
X0131189Y0180874D01*
X0119929Y0190795D02*
X0110874Y0190795D01*
X0100953Y0180874D01*
X0101189Y0180874D01*
X0099142Y0180953D01*
X0097094Y0180953D01*
X0087370Y0190677D01*
X0087094Y0190677D01*
X0087094Y0180677D02*
X0087134Y0180677D01*
X0096701Y0171110D01*
X0098984Y0171110D01*
X0101189Y0170874D01*
X0117016Y0170874D01*
X0127016Y0160874D01*
X0141740Y0160874D01*
X0143827Y0160756D01*
X0149063Y0153787D02*
X0136858Y0153787D01*
X0134102Y0156543D01*
X0124260Y0156543D01*
X0116386Y0164417D01*
X0094339Y0164417D01*
X0089220Y0169535D01*
X0088236Y0169535D01*
X0087094Y0170677D01*
X0087094Y0150677D02*
X0131701Y0150677D01*
X0134102Y0148276D01*
X0144732Y0148276D01*
X0151819Y0141189D01*
X0156150Y0152213D02*
X0168748Y0139614D01*
X0153787Y0158512D02*
X0149063Y0153787D01*
X0153787Y0158512D02*
X0153787Y0176228D01*
X0149260Y0180756D01*
X0143827Y0180756D01*
X0131189Y0200874D02*
X0134102Y0205756D01*
X0166858Y0205756D01*
X0173827Y0200756D01*
X0168748Y0214024D02*
X0187252Y0214024D01*
X0187252Y0219929D02*
X0178591Y0219929D01*
X0173827Y0224693D01*
X0173827Y0235165D01*
X0171583Y0234890D01*
X0165992Y0234890D01*
X0162055Y0238827D01*
X0162055Y0254969D01*
X0151858Y0265165D01*
X0143827Y0265165D01*
X0143827Y0275165D01*
X0143827Y0265165D02*
X0141740Y0265283D01*
X0131189Y0265283D01*
X0129142Y0265205D01*
X0119929Y0265205D01*
X0119535Y0264811D01*
X0119535Y0251819D01*
X0126071Y0245283D01*
X0131189Y0245283D01*
X0128906Y0254969D02*
X0131189Y0255283D01*
X0119929Y0265205D02*
X0110874Y0265205D01*
X0100953Y0255283D01*
X0101189Y0255283D01*
X0099142Y0255362D01*
X0097094Y0255362D01*
X0087370Y0265087D01*
X0087094Y0265087D01*
X0087094Y0255087D02*
X0087134Y0255087D01*
X0096701Y0245520D01*
X0098984Y0245520D01*
X0101189Y0245283D01*
X0117016Y0245283D01*
X0127016Y0235283D01*
X0141740Y0235283D01*
X0143827Y0235165D01*
X0149063Y0228197D02*
X0136858Y0228197D01*
X0134102Y0230953D01*
X0124260Y0230953D01*
X0116386Y0238827D01*
X0094339Y0238827D01*
X0089220Y0243945D01*
X0088236Y0243945D01*
X0087094Y0245087D01*
X0087094Y0225087D02*
X0131701Y0225087D01*
X0134102Y0222685D01*
X0144732Y0222685D01*
X0151819Y0215598D01*
X0156150Y0226622D02*
X0168748Y0214024D01*
X0153787Y0232921D02*
X0149063Y0228197D01*
X0153787Y0232921D02*
X0153787Y0250638D01*
X0149260Y0255165D01*
X0143827Y0255165D01*
X0131189Y0275283D02*
X0134102Y0280165D01*
X0166858Y0280165D01*
X0173827Y0275165D01*
X0198669Y0241189D02*
X0195126Y0237646D01*
X0187252Y0237646D01*
X0187252Y0231740D02*
X0202213Y0231740D01*
X0136858Y0215598D02*
X0136346Y0215087D01*
X0087094Y0215087D01*
X0087094Y0140677D02*
X0136346Y0140677D01*
X0136858Y0141189D01*
X0187252Y0157331D02*
X0202213Y0157331D01*
X0195126Y0163236D02*
X0187252Y0163236D01*
X0195126Y0163236D02*
X0198669Y0166780D01*
X0198669Y0092370D02*
X0195126Y0088827D01*
X0187252Y0088827D01*
X0187252Y0082921D02*
X0202213Y0082921D01*
D11*
X0176427Y0086346D02*
X0171227Y0086346D01*
X0171227Y0096346D02*
X0176427Y0096346D01*
X0176427Y0106346D02*
X0171227Y0106346D01*
X0171227Y0116346D02*
X0176427Y0116346D01*
X0176427Y0126346D02*
X0171227Y0126346D01*
X0146427Y0126346D02*
X0141227Y0126346D01*
X0133789Y0126465D02*
X0128589Y0126465D01*
X0128589Y0116465D02*
X0133789Y0116465D01*
X0141227Y0116346D02*
X0146427Y0116346D01*
X0146427Y0106346D02*
X0141227Y0106346D01*
X0133789Y0106465D02*
X0128589Y0106465D01*
X0128589Y0096465D02*
X0133789Y0096465D01*
X0141227Y0096346D02*
X0146427Y0096346D01*
X0146427Y0086346D02*
X0141227Y0086346D01*
X0103789Y0096465D02*
X0098589Y0096465D01*
X0098589Y0106465D02*
X0103789Y0106465D01*
X0103789Y0116465D02*
X0098589Y0116465D01*
X0098589Y0126465D02*
X0103789Y0126465D01*
X0141227Y0160756D02*
X0146427Y0160756D01*
X0146427Y0170756D02*
X0141227Y0170756D01*
X0133789Y0170874D02*
X0128589Y0170874D01*
X0128589Y0180874D02*
X0133789Y0180874D01*
X0141227Y0180756D02*
X0146427Y0180756D01*
X0146427Y0190756D02*
X0141227Y0190756D01*
X0133789Y0190874D02*
X0128589Y0190874D01*
X0128589Y0200874D02*
X0133789Y0200874D01*
X0141227Y0200756D02*
X0146427Y0200756D01*
X0171227Y0200756D02*
X0176427Y0200756D01*
X0176427Y0190756D02*
X0171227Y0190756D01*
X0171227Y0180756D02*
X0176427Y0180756D01*
X0176427Y0170756D02*
X0171227Y0170756D01*
X0171227Y0160756D02*
X0176427Y0160756D01*
X0103789Y0170874D02*
X0098589Y0170874D01*
X0098589Y0180874D02*
X0103789Y0180874D01*
X0103789Y0190874D02*
X0098589Y0190874D01*
X0098589Y0200874D02*
X0103789Y0200874D01*
X0141227Y0235165D02*
X0146427Y0235165D01*
X0146427Y0245165D02*
X0141227Y0245165D01*
X0133789Y0245283D02*
X0128589Y0245283D01*
X0128589Y0255283D02*
X0133789Y0255283D01*
X0141227Y0255165D02*
X0146427Y0255165D01*
X0146427Y0265165D02*
X0141227Y0265165D01*
X0133789Y0265283D02*
X0128589Y0265283D01*
X0128589Y0275283D02*
X0133789Y0275283D01*
X0141227Y0275165D02*
X0146427Y0275165D01*
X0171227Y0275165D02*
X0176427Y0275165D01*
X0176427Y0265165D02*
X0171227Y0265165D01*
X0171227Y0255165D02*
X0176427Y0255165D01*
X0176427Y0245165D02*
X0171227Y0245165D01*
X0171227Y0235165D02*
X0176427Y0235165D01*
X0103789Y0245283D02*
X0098589Y0245283D01*
X0098589Y0255283D02*
X0103789Y0255283D01*
X0103789Y0265283D02*
X0098589Y0265283D01*
X0098589Y0275283D02*
X0103789Y0275283D01*
D12*
X0087094Y0265087D03*
X0087094Y0255087D03*
X0087094Y0245087D03*
X0087094Y0235087D03*
X0087094Y0225087D03*
X0087094Y0215087D03*
X0087094Y0190677D03*
X0087094Y0180677D03*
X0087094Y0170677D03*
X0087094Y0160677D03*
X0087094Y0150677D03*
X0087094Y0140677D03*
X0087094Y0116268D03*
X0087094Y0106268D03*
X0087094Y0096268D03*
X0087094Y0086268D03*
X0087094Y0076268D03*
X0087094Y0066268D03*
D13*
X0187252Y0065205D03*
X0187252Y0071110D03*
X0187252Y0077016D03*
X0187252Y0082921D03*
X0187252Y0088827D03*
X0187252Y0139614D03*
X0187252Y0145520D03*
X0187252Y0151425D03*
X0187252Y0157331D03*
X0187252Y0163236D03*
X0187252Y0214024D03*
X0187252Y0219929D03*
X0187252Y0225835D03*
X0187252Y0231740D03*
X0187252Y0237646D03*
D14*
X0184496Y0249850D03*
X0184496Y0175441D03*
X0184496Y0101031D03*
X0270717Y0100244D03*
X0270717Y0076228D03*
X0270717Y0150638D03*
X0270717Y0174654D03*
X0270717Y0225047D03*
X0270717Y0249063D03*
D15*
X0202213Y0231740D03*
X0198669Y0241189D03*
X0156150Y0226622D03*
X0151819Y0215598D03*
X0136858Y0215598D03*
X0117016Y0245283D03*
X0117016Y0170874D03*
X0136858Y0141189D03*
X0151819Y0141189D03*
X0156150Y0152213D03*
X0198669Y0166780D03*
X0202213Y0157331D03*
X0198669Y0092370D03*
X0202213Y0082921D03*
X0156150Y0077803D03*
X0151819Y0066780D03*
X0136858Y0066780D03*
X0117016Y0096465D03*
D16*
X0119768Y0099131D02*
X0106492Y0099131D01*
X0106738Y0098885D02*
X0106209Y0099414D01*
X0105587Y0099829D01*
X0104896Y0100115D01*
X0104163Y0100261D01*
X0101386Y0100261D01*
X0101386Y0096661D01*
X0107586Y0096661D01*
X0107586Y0096839D01*
X0107440Y0097572D01*
X0107154Y0098263D01*
X0106738Y0098885D01*
X0106836Y0098738D02*
X0120160Y0098738D01*
X0120552Y0098346D02*
X0107098Y0098346D01*
X0107282Y0097954D02*
X0120945Y0097954D01*
X0121337Y0097562D02*
X0107442Y0097562D01*
X0107520Y0097170D02*
X0121729Y0097170D01*
X0122121Y0096777D02*
X0107586Y0096777D01*
X0107586Y0096268D02*
X0101386Y0096268D01*
X0101386Y0096661D01*
X0100992Y0096661D01*
X0100992Y0096268D01*
X0094792Y0096268D01*
X0094792Y0096091D01*
X0094938Y0095357D01*
X0095224Y0094666D01*
X0095640Y0094044D01*
X0096169Y0093515D01*
X0096790Y0093100D01*
X0097481Y0092814D01*
X0098215Y0092668D01*
X0100992Y0092668D01*
X0100992Y0096268D01*
X0101386Y0096268D01*
X0101386Y0092668D01*
X0104163Y0092668D01*
X0104896Y0092814D01*
X0105587Y0093100D01*
X0106209Y0093515D01*
X0106738Y0094044D01*
X0107154Y0094666D01*
X0107440Y0095357D01*
X0107586Y0096091D01*
X0107586Y0096268D01*
X0107566Y0095993D02*
X0122906Y0095993D01*
X0123298Y0095601D02*
X0107488Y0095601D01*
X0107378Y0095209D02*
X0123690Y0095209D01*
X0124082Y0094816D02*
X0107216Y0094816D01*
X0106992Y0094424D02*
X0124474Y0094424D01*
X0124614Y0094284D02*
X0124790Y0094211D01*
X0124883Y0093988D01*
X0126113Y0092758D01*
X0127719Y0092093D01*
X0134659Y0092093D01*
X0136265Y0092758D01*
X0137479Y0093972D01*
X0137521Y0093870D01*
X0138750Y0092640D01*
X0140357Y0091975D01*
X0147296Y0091975D01*
X0148903Y0092640D01*
X0150133Y0093870D01*
X0150798Y0095477D01*
X0150798Y0097216D01*
X0150133Y0098823D01*
X0148903Y0100053D01*
X0147296Y0100718D01*
X0140357Y0100718D01*
X0138750Y0100053D01*
X0137537Y0098839D01*
X0137495Y0098941D01*
X0136265Y0100171D01*
X0134659Y0100836D01*
X0127719Y0100836D01*
X0126113Y0100171D01*
X0126057Y0100115D01*
X0122107Y0104065D01*
X0122107Y0113814D01*
X0125057Y0113814D01*
X0126113Y0112758D01*
X0127719Y0112093D01*
X0134659Y0112093D01*
X0136265Y0112758D01*
X0137400Y0113893D01*
X0137511Y0113893D01*
X0137521Y0113870D01*
X0138750Y0112640D01*
X0140357Y0111975D01*
X0147296Y0111975D01*
X0148903Y0112640D01*
X0150038Y0113775D01*
X0150793Y0113775D01*
X0159483Y0105084D01*
X0159483Y0089496D01*
X0159875Y0088551D01*
X0163812Y0084614D01*
X0164535Y0083891D01*
X0165481Y0083499D01*
X0167892Y0083499D01*
X0168750Y0082640D01*
X0170357Y0081975D01*
X0171255Y0081975D01*
X0171255Y0075362D01*
X0171647Y0074417D01*
X0176410Y0069654D01*
X0177134Y0068930D01*
X0178079Y0068539D01*
X0179575Y0068539D01*
X0179575Y0068211D01*
X0180173Y0067613D01*
X0180150Y0067528D01*
X0180150Y0065402D01*
X0187055Y0065402D01*
X0187055Y0065008D01*
X0180150Y0065008D01*
X0180150Y0062882D01*
X0180231Y0062577D01*
X0180305Y0062449D01*
X0091014Y0062449D01*
X0091733Y0063168D01*
X0091952Y0063696D01*
X0134635Y0063696D01*
X0134732Y0063598D01*
X0136112Y0063027D01*
X0137605Y0063027D01*
X0138984Y0063598D01*
X0140040Y0064654D01*
X0140611Y0066033D01*
X0140611Y0067526D01*
X0140040Y0068905D01*
X0138984Y0069961D01*
X0137605Y0070532D01*
X0136112Y0070532D01*
X0134732Y0069961D01*
X0133677Y0068905D01*
X0133650Y0068839D01*
X0091952Y0068839D01*
X0091733Y0069367D01*
X0090194Y0070906D01*
X0089322Y0071268D01*
X0090194Y0071629D01*
X0091733Y0073168D01*
X0091952Y0073696D01*
X0130636Y0073696D01*
X0131922Y0072409D01*
X0132646Y0071686D01*
X0133591Y0071294D01*
X0143667Y0071294D01*
X0148066Y0066895D01*
X0148066Y0066033D01*
X0148637Y0064654D01*
X0149693Y0063598D01*
X0151072Y0063027D01*
X0152565Y0063027D01*
X0153945Y0063598D01*
X0155000Y0064654D01*
X0155572Y0066033D01*
X0155572Y0067526D01*
X0155000Y0068905D01*
X0153945Y0069961D01*
X0152565Y0070532D01*
X0151703Y0070532D01*
X0146189Y0076046D01*
X0145244Y0076438D01*
X0135168Y0076438D01*
X0133158Y0078448D01*
X0132212Y0078839D01*
X0091952Y0078839D01*
X0091733Y0079367D01*
X0090194Y0080906D01*
X0089322Y0081268D01*
X0090194Y0081629D01*
X0091733Y0083168D01*
X0092566Y0085179D01*
X0092566Y0087356D01*
X0092009Y0088700D01*
X0092882Y0087828D01*
X0093827Y0087436D01*
X0115321Y0087436D01*
X0122803Y0079954D01*
X0123748Y0079562D01*
X0133037Y0079562D01*
X0135402Y0077198D01*
X0136347Y0076806D01*
X0149575Y0076806D01*
X0150520Y0077198D01*
X0155968Y0082646D01*
X0156359Y0083591D01*
X0156359Y0102330D01*
X0155968Y0103276D01*
X0155244Y0103999D01*
X0150717Y0108527D01*
X0150160Y0108757D01*
X0150133Y0108823D01*
X0148903Y0110053D01*
X0147296Y0110718D01*
X0140357Y0110718D01*
X0138750Y0110053D01*
X0137521Y0108823D01*
X0137221Y0108100D01*
X0137154Y0108263D01*
X0136738Y0108885D01*
X0136209Y0109414D01*
X0135587Y0109829D01*
X0134896Y0110115D01*
X0134163Y0110261D01*
X0131386Y0110261D01*
X0131386Y0106661D01*
X0130992Y0106661D01*
X0130992Y0106268D01*
X0124792Y0106268D01*
X0124792Y0106091D01*
X0124938Y0105357D01*
X0125224Y0104666D01*
X0125640Y0104044D01*
X0126169Y0103515D01*
X0126790Y0103100D01*
X0127481Y0102814D01*
X0128215Y0102668D01*
X0130992Y0102668D01*
X0130992Y0106268D01*
X0131386Y0106268D01*
X0131386Y0102668D01*
X0134163Y0102668D01*
X0134896Y0102814D01*
X0135587Y0103100D01*
X0136209Y0103515D01*
X0136738Y0104044D01*
X0137154Y0104666D01*
X0137172Y0104711D01*
X0137521Y0103870D01*
X0138750Y0102640D01*
X0140357Y0101975D01*
X0147296Y0101975D01*
X0148903Y0102640D01*
X0149116Y0102853D01*
X0151216Y0100754D01*
X0151216Y0085168D01*
X0147998Y0081950D01*
X0137923Y0081950D01*
X0136282Y0083591D01*
X0135559Y0084314D01*
X0134614Y0084705D01*
X0125325Y0084705D01*
X0118566Y0091465D01*
X0117843Y0092188D01*
X0116897Y0092580D01*
X0095404Y0092580D01*
X0092566Y0095417D01*
X0092566Y0097356D01*
X0091733Y0099367D01*
X0090194Y0100906D01*
X0088544Y0101590D01*
X0088974Y0101730D01*
X0089661Y0102080D01*
X0090285Y0102533D01*
X0090830Y0103078D01*
X0091283Y0103701D01*
X0091633Y0104388D01*
X0091871Y0105121D01*
X0091991Y0105882D01*
X0091991Y0106071D01*
X0087291Y0106071D01*
X0087291Y0106465D01*
X0091991Y0106465D01*
X0091991Y0106653D01*
X0091871Y0107414D01*
X0091633Y0108147D01*
X0091403Y0108598D01*
X0094217Y0105784D01*
X0094217Y0105595D01*
X0094883Y0103988D01*
X0096113Y0102758D01*
X0097719Y0102093D01*
X0104659Y0102093D01*
X0106265Y0102758D01*
X0107495Y0103988D01*
X0108161Y0105595D01*
X0108161Y0107334D01*
X0107495Y0108941D01*
X0107281Y0109155D01*
X0111939Y0113814D01*
X0116964Y0113814D01*
X0116964Y0102488D01*
X0117355Y0101543D01*
X0118079Y0100820D01*
X0124614Y0094284D01*
X0124865Y0094032D02*
X0106726Y0094032D01*
X0106334Y0093640D02*
X0125231Y0093640D01*
X0125624Y0093247D02*
X0105808Y0093247D01*
X0104997Y0092855D02*
X0126016Y0092855D01*
X0126826Y0092463D02*
X0117178Y0092463D01*
X0117960Y0092071D02*
X0140125Y0092071D01*
X0139178Y0092463D02*
X0135552Y0092463D01*
X0136362Y0092855D02*
X0138535Y0092855D01*
X0138143Y0093247D02*
X0136754Y0093247D01*
X0137147Y0093640D02*
X0137751Y0093640D01*
X0139428Y0089711D02*
X0138806Y0089296D01*
X0138278Y0088767D01*
X0137862Y0088145D01*
X0137576Y0087454D01*
X0137430Y0086720D01*
X0137430Y0086543D01*
X0143630Y0086543D01*
X0143630Y0086150D01*
X0137430Y0086150D01*
X0137430Y0085972D01*
X0137576Y0085239D01*
X0137862Y0084548D01*
X0138278Y0083926D01*
X0138806Y0083397D01*
X0139428Y0082982D01*
X0140119Y0082696D01*
X0140853Y0082550D01*
X0143630Y0082550D01*
X0143630Y0086150D01*
X0144024Y0086150D01*
X0144024Y0086543D01*
X0150224Y0086543D01*
X0150224Y0086720D01*
X0150078Y0087454D01*
X0149791Y0088145D01*
X0149376Y0088767D01*
X0148847Y0089296D01*
X0148225Y0089711D01*
X0147534Y0089997D01*
X0146801Y0090143D01*
X0144024Y0090143D01*
X0144024Y0086543D01*
X0143630Y0086543D01*
X0143630Y0090143D01*
X0140853Y0090143D01*
X0140119Y0089997D01*
X0139428Y0089711D01*
X0139444Y0089718D02*
X0120313Y0089718D01*
X0119921Y0090110D02*
X0140684Y0090110D01*
X0138851Y0089325D02*
X0120705Y0089325D01*
X0121097Y0088933D02*
X0138444Y0088933D01*
X0138127Y0088541D02*
X0121490Y0088541D01*
X0121882Y0088149D02*
X0137865Y0088149D01*
X0137701Y0087757D02*
X0122274Y0087757D01*
X0122666Y0087364D02*
X0137558Y0087364D01*
X0137480Y0086972D02*
X0123058Y0086972D01*
X0123451Y0086580D02*
X0137430Y0086580D01*
X0137465Y0085795D02*
X0124235Y0085795D01*
X0124627Y0085403D02*
X0137543Y0085403D01*
X0137670Y0085011D02*
X0125020Y0085011D01*
X0123843Y0086188D02*
X0143630Y0086188D01*
X0143630Y0086580D02*
X0144024Y0086580D01*
X0144024Y0086972D02*
X0143630Y0086972D01*
X0143630Y0087364D02*
X0144024Y0087364D01*
X0144024Y0087757D02*
X0143630Y0087757D01*
X0143630Y0088149D02*
X0144024Y0088149D01*
X0144024Y0088541D02*
X0143630Y0088541D01*
X0143630Y0088933D02*
X0144024Y0088933D01*
X0144024Y0089325D02*
X0143630Y0089325D01*
X0143630Y0089718D02*
X0144024Y0089718D01*
X0144024Y0090110D02*
X0143630Y0090110D01*
X0146969Y0090110D02*
X0151216Y0090110D01*
X0151216Y0090502D02*
X0119529Y0090502D01*
X0119136Y0090894D02*
X0151216Y0090894D01*
X0151216Y0091286D02*
X0118744Y0091286D01*
X0118352Y0091679D02*
X0151216Y0091679D01*
X0151216Y0092071D02*
X0147528Y0092071D01*
X0148475Y0092463D02*
X0151216Y0092463D01*
X0151216Y0092855D02*
X0149118Y0092855D01*
X0149510Y0093247D02*
X0151216Y0093247D01*
X0151216Y0093640D02*
X0149902Y0093640D01*
X0150200Y0094032D02*
X0151216Y0094032D01*
X0151216Y0094424D02*
X0150362Y0094424D01*
X0150525Y0094816D02*
X0151216Y0094816D01*
X0151216Y0095209D02*
X0150687Y0095209D01*
X0150798Y0095601D02*
X0151216Y0095601D01*
X0151216Y0095993D02*
X0150798Y0095993D01*
X0150798Y0096385D02*
X0151216Y0096385D01*
X0151216Y0096777D02*
X0150798Y0096777D01*
X0150798Y0097170D02*
X0151216Y0097170D01*
X0151216Y0097562D02*
X0150655Y0097562D01*
X0150493Y0097954D02*
X0151216Y0097954D01*
X0151216Y0098346D02*
X0150330Y0098346D01*
X0150168Y0098738D02*
X0151216Y0098738D01*
X0151216Y0099131D02*
X0149825Y0099131D01*
X0149433Y0099523D02*
X0151216Y0099523D01*
X0151216Y0099915D02*
X0149041Y0099915D01*
X0148288Y0100307D02*
X0151216Y0100307D01*
X0151216Y0100700D02*
X0147341Y0100700D01*
X0148005Y0102268D02*
X0149701Y0102268D01*
X0150093Y0101876D02*
X0124296Y0101876D01*
X0124688Y0101484D02*
X0150485Y0101484D01*
X0150878Y0101092D02*
X0125081Y0101092D01*
X0125473Y0100700D02*
X0127389Y0100700D01*
X0126443Y0100307D02*
X0125865Y0100307D01*
X0123904Y0102268D02*
X0139648Y0102268D01*
X0138730Y0102661D02*
X0123512Y0102661D01*
X0123119Y0103053D02*
X0126904Y0103053D01*
X0126274Y0103445D02*
X0122727Y0103445D01*
X0122335Y0103837D02*
X0125847Y0103837D01*
X0125516Y0104229D02*
X0122107Y0104229D01*
X0122107Y0104622D02*
X0125254Y0104622D01*
X0125080Y0105014D02*
X0122107Y0105014D01*
X0122107Y0105406D02*
X0124928Y0105406D01*
X0124850Y0105798D02*
X0122107Y0105798D01*
X0122107Y0106190D02*
X0124792Y0106190D01*
X0124792Y0106661D02*
X0130992Y0106661D01*
X0130992Y0110261D01*
X0128215Y0110261D01*
X0127481Y0110115D01*
X0126790Y0109829D01*
X0126169Y0109414D01*
X0125640Y0108885D01*
X0125224Y0108263D01*
X0124938Y0107572D01*
X0124792Y0106839D01*
X0124792Y0106661D01*
X0124819Y0106975D02*
X0122107Y0106975D01*
X0122107Y0107367D02*
X0124897Y0107367D01*
X0125016Y0107759D02*
X0122107Y0107759D01*
X0122107Y0108152D02*
X0125178Y0108152D01*
X0125412Y0108544D02*
X0122107Y0108544D01*
X0122107Y0108936D02*
X0125691Y0108936D01*
X0126083Y0109328D02*
X0122107Y0109328D01*
X0122107Y0109720D02*
X0126628Y0109720D01*
X0127475Y0110113D02*
X0122107Y0110113D01*
X0122107Y0110505D02*
X0139842Y0110505D01*
X0138895Y0110113D02*
X0134903Y0110113D01*
X0135750Y0109720D02*
X0138418Y0109720D01*
X0138026Y0109328D02*
X0136295Y0109328D01*
X0136687Y0108936D02*
X0137634Y0108936D01*
X0137405Y0108544D02*
X0136966Y0108544D01*
X0137200Y0108152D02*
X0137243Y0108152D01*
X0137209Y0104622D02*
X0137124Y0104622D01*
X0137372Y0104229D02*
X0136862Y0104229D01*
X0136531Y0103837D02*
X0137554Y0103837D01*
X0137946Y0103445D02*
X0136104Y0103445D01*
X0135474Y0103053D02*
X0138338Y0103053D01*
X0139365Y0100307D02*
X0135935Y0100307D01*
X0136521Y0099915D02*
X0138613Y0099915D01*
X0138221Y0099523D02*
X0136913Y0099523D01*
X0137305Y0099131D02*
X0137829Y0099131D01*
X0140312Y0100700D02*
X0134989Y0100700D01*
X0131386Y0103053D02*
X0130992Y0103053D01*
X0130992Y0103445D02*
X0131386Y0103445D01*
X0131386Y0103837D02*
X0130992Y0103837D01*
X0130992Y0104229D02*
X0131386Y0104229D01*
X0131386Y0104622D02*
X0130992Y0104622D01*
X0130992Y0105014D02*
X0131386Y0105014D01*
X0131386Y0105406D02*
X0130992Y0105406D01*
X0130992Y0105798D02*
X0131386Y0105798D01*
X0131386Y0106190D02*
X0130992Y0106190D01*
X0130992Y0106583D02*
X0122107Y0106583D01*
X0122107Y0110897D02*
X0153671Y0110897D01*
X0154063Y0110505D02*
X0147811Y0110505D01*
X0148758Y0110113D02*
X0154455Y0110113D01*
X0154847Y0109720D02*
X0149235Y0109720D01*
X0149627Y0109328D02*
X0155240Y0109328D01*
X0155632Y0108936D02*
X0150020Y0108936D01*
X0150675Y0108544D02*
X0156024Y0108544D01*
X0156416Y0108152D02*
X0151092Y0108152D01*
X0151484Y0107759D02*
X0156809Y0107759D01*
X0157201Y0107367D02*
X0151876Y0107367D01*
X0152268Y0106975D02*
X0157593Y0106975D01*
X0157985Y0106583D02*
X0152660Y0106583D01*
X0153053Y0106190D02*
X0158377Y0106190D01*
X0158770Y0105798D02*
X0153445Y0105798D01*
X0153837Y0105406D02*
X0159162Y0105406D01*
X0159483Y0105014D02*
X0154229Y0105014D01*
X0154622Y0104622D02*
X0159483Y0104622D01*
X0159483Y0104229D02*
X0155014Y0104229D01*
X0155406Y0103837D02*
X0159483Y0103837D01*
X0159483Y0103445D02*
X0155798Y0103445D01*
X0156060Y0103053D02*
X0159483Y0103053D01*
X0159483Y0102661D02*
X0156222Y0102661D01*
X0156359Y0102268D02*
X0159483Y0102268D01*
X0159483Y0101876D02*
X0156359Y0101876D01*
X0156359Y0101484D02*
X0159483Y0101484D01*
X0159483Y0101092D02*
X0156359Y0101092D01*
X0156359Y0100700D02*
X0159483Y0100700D01*
X0159483Y0100307D02*
X0156359Y0100307D01*
X0156359Y0099915D02*
X0159483Y0099915D01*
X0159483Y0099523D02*
X0156359Y0099523D01*
X0156359Y0099131D02*
X0159483Y0099131D01*
X0159483Y0098738D02*
X0156359Y0098738D01*
X0156359Y0098346D02*
X0159483Y0098346D01*
X0159483Y0097954D02*
X0156359Y0097954D01*
X0156359Y0097562D02*
X0159483Y0097562D01*
X0159483Y0097170D02*
X0156359Y0097170D01*
X0156359Y0096777D02*
X0159483Y0096777D01*
X0159483Y0096385D02*
X0156359Y0096385D01*
X0156359Y0095993D02*
X0159483Y0095993D01*
X0159483Y0095601D02*
X0156359Y0095601D01*
X0156359Y0095209D02*
X0159483Y0095209D01*
X0159483Y0094816D02*
X0156359Y0094816D01*
X0156359Y0094424D02*
X0159483Y0094424D01*
X0159483Y0094032D02*
X0156359Y0094032D01*
X0156359Y0093640D02*
X0159483Y0093640D01*
X0159483Y0093247D02*
X0156359Y0093247D01*
X0156359Y0092855D02*
X0159483Y0092855D01*
X0159483Y0092463D02*
X0156359Y0092463D01*
X0156359Y0092071D02*
X0159483Y0092071D01*
X0159483Y0091679D02*
X0156359Y0091679D01*
X0156359Y0091286D02*
X0159483Y0091286D01*
X0159483Y0090894D02*
X0156359Y0090894D01*
X0156359Y0090502D02*
X0159483Y0090502D01*
X0159483Y0090110D02*
X0156359Y0090110D01*
X0156359Y0089718D02*
X0159483Y0089718D01*
X0159554Y0089325D02*
X0156359Y0089325D01*
X0156359Y0088933D02*
X0159717Y0088933D01*
X0159885Y0088541D02*
X0156359Y0088541D01*
X0156359Y0088149D02*
X0160277Y0088149D01*
X0160670Y0087757D02*
X0156359Y0087757D01*
X0156359Y0087364D02*
X0161062Y0087364D01*
X0161454Y0086972D02*
X0156359Y0086972D01*
X0156359Y0086580D02*
X0161846Y0086580D01*
X0162238Y0086188D02*
X0156359Y0086188D01*
X0156359Y0085795D02*
X0162631Y0085795D01*
X0163023Y0085403D02*
X0156359Y0085403D01*
X0156359Y0085011D02*
X0163415Y0085011D01*
X0163807Y0084619D02*
X0156359Y0084619D01*
X0156359Y0084227D02*
X0164200Y0084227D01*
X0164671Y0083834D02*
X0156359Y0083834D01*
X0156297Y0083442D02*
X0167949Y0083442D01*
X0168341Y0083050D02*
X0156135Y0083050D01*
X0155973Y0082658D02*
X0168733Y0082658D01*
X0169655Y0082266D02*
X0155587Y0082266D01*
X0155195Y0081873D02*
X0171255Y0081873D01*
X0171255Y0081481D02*
X0154803Y0081481D01*
X0154411Y0081089D02*
X0171255Y0081089D01*
X0171255Y0080697D02*
X0154019Y0080697D01*
X0153626Y0080304D02*
X0171255Y0080304D01*
X0171255Y0079912D02*
X0153234Y0079912D01*
X0152842Y0079520D02*
X0171255Y0079520D01*
X0171255Y0079128D02*
X0152450Y0079128D01*
X0152058Y0078736D02*
X0171255Y0078736D01*
X0171255Y0078343D02*
X0151665Y0078343D01*
X0151273Y0077951D02*
X0171255Y0077951D01*
X0171255Y0077559D02*
X0150881Y0077559D01*
X0150445Y0077167D02*
X0171255Y0077167D01*
X0171255Y0076775D02*
X0134831Y0076775D01*
X0134439Y0077167D02*
X0135476Y0077167D01*
X0135040Y0077559D02*
X0134046Y0077559D01*
X0133654Y0077951D02*
X0134648Y0077951D01*
X0134256Y0078343D02*
X0133262Y0078343D01*
X0133864Y0078736D02*
X0132463Y0078736D01*
X0133079Y0079520D02*
X0091580Y0079520D01*
X0091832Y0079128D02*
X0133471Y0079128D01*
X0137608Y0082266D02*
X0148314Y0082266D01*
X0148706Y0082658D02*
X0147344Y0082658D01*
X0147534Y0082696D02*
X0148225Y0082982D01*
X0148847Y0083397D01*
X0149376Y0083926D01*
X0149791Y0084548D01*
X0150078Y0085239D01*
X0150224Y0085972D01*
X0150224Y0086150D01*
X0144024Y0086150D01*
X0144024Y0082550D01*
X0146801Y0082550D01*
X0147534Y0082696D01*
X0148327Y0083050D02*
X0149098Y0083050D01*
X0148892Y0083442D02*
X0149490Y0083442D01*
X0149284Y0083834D02*
X0149883Y0083834D01*
X0149577Y0084227D02*
X0150275Y0084227D01*
X0150667Y0084619D02*
X0149821Y0084619D01*
X0149983Y0085011D02*
X0151059Y0085011D01*
X0151216Y0085403D02*
X0150110Y0085403D01*
X0150188Y0085795D02*
X0151216Y0085795D01*
X0151216Y0086188D02*
X0144024Y0086188D01*
X0144024Y0085795D02*
X0143630Y0085795D01*
X0143630Y0085403D02*
X0144024Y0085403D01*
X0144024Y0085011D02*
X0143630Y0085011D01*
X0143630Y0084619D02*
X0144024Y0084619D01*
X0144024Y0084227D02*
X0143630Y0084227D01*
X0143630Y0083834D02*
X0144024Y0083834D01*
X0144024Y0083442D02*
X0143630Y0083442D01*
X0143630Y0083050D02*
X0144024Y0083050D01*
X0144024Y0082658D02*
X0143630Y0082658D01*
X0140309Y0082658D02*
X0137215Y0082658D01*
X0136823Y0083050D02*
X0139326Y0083050D01*
X0138761Y0083442D02*
X0136431Y0083442D01*
X0136282Y0083591D02*
X0136282Y0083591D01*
X0136039Y0083834D02*
X0138369Y0083834D01*
X0138077Y0084227D02*
X0135646Y0084227D01*
X0134823Y0084619D02*
X0137833Y0084619D01*
X0145378Y0076382D02*
X0171255Y0076382D01*
X0171255Y0075990D02*
X0146245Y0075990D01*
X0146637Y0075598D02*
X0171255Y0075598D01*
X0171320Y0075206D02*
X0147030Y0075206D01*
X0147422Y0074814D02*
X0171482Y0074814D01*
X0171645Y0074421D02*
X0147814Y0074421D01*
X0148206Y0074029D02*
X0172035Y0074029D01*
X0172427Y0073637D02*
X0148598Y0073637D01*
X0148991Y0073245D02*
X0172819Y0073245D01*
X0173211Y0072852D02*
X0149383Y0072852D01*
X0149775Y0072460D02*
X0173604Y0072460D01*
X0173996Y0072068D02*
X0150167Y0072068D01*
X0150559Y0071676D02*
X0174388Y0071676D01*
X0174780Y0071284D02*
X0150952Y0071284D01*
X0151344Y0070891D02*
X0175173Y0070891D01*
X0175565Y0070499D02*
X0152645Y0070499D01*
X0153592Y0070107D02*
X0175957Y0070107D01*
X0176349Y0069715D02*
X0154191Y0069715D01*
X0154583Y0069323D02*
X0176741Y0069323D01*
X0177134Y0068930D02*
X0154975Y0068930D01*
X0155152Y0068538D02*
X0179575Y0068538D01*
X0179640Y0068146D02*
X0155315Y0068146D01*
X0155477Y0067754D02*
X0180032Y0067754D01*
X0180150Y0067361D02*
X0155572Y0067361D01*
X0155572Y0066969D02*
X0180150Y0066969D01*
X0180150Y0066577D02*
X0155572Y0066577D01*
X0155572Y0066185D02*
X0180150Y0066185D01*
X0180150Y0065793D02*
X0155472Y0065793D01*
X0155310Y0065400D02*
X0187055Y0065400D01*
X0187055Y0065008D02*
X0155147Y0065008D01*
X0154963Y0064616D02*
X0180150Y0064616D01*
X0180150Y0064224D02*
X0154570Y0064224D01*
X0154178Y0063832D02*
X0180150Y0063832D01*
X0180150Y0063439D02*
X0153561Y0063439D01*
X0152615Y0063047D02*
X0180150Y0063047D01*
X0180210Y0062655D02*
X0091220Y0062655D01*
X0091612Y0063047D02*
X0136063Y0063047D01*
X0135116Y0063439D02*
X0091845Y0063439D01*
X0091914Y0068930D02*
X0133702Y0068930D01*
X0134094Y0069323D02*
X0091752Y0069323D01*
X0091386Y0069715D02*
X0134486Y0069715D01*
X0135085Y0070107D02*
X0090993Y0070107D01*
X0090601Y0070499D02*
X0136032Y0070499D01*
X0137685Y0070499D02*
X0144462Y0070499D01*
X0144070Y0070891D02*
X0090209Y0070891D01*
X0090241Y0071676D02*
X0132670Y0071676D01*
X0132264Y0072068D02*
X0090633Y0072068D01*
X0091025Y0072460D02*
X0131871Y0072460D01*
X0131479Y0072852D02*
X0091417Y0072852D01*
X0091765Y0073245D02*
X0131087Y0073245D01*
X0130695Y0073637D02*
X0091927Y0073637D01*
X0089360Y0071284D02*
X0143678Y0071284D01*
X0144855Y0070107D02*
X0138631Y0070107D01*
X0139230Y0069715D02*
X0145247Y0069715D01*
X0145639Y0069323D02*
X0139622Y0069323D01*
X0140015Y0068930D02*
X0146031Y0068930D01*
X0146423Y0068538D02*
X0140192Y0068538D01*
X0140354Y0068146D02*
X0146816Y0068146D01*
X0147208Y0067754D02*
X0140517Y0067754D01*
X0140611Y0067361D02*
X0147600Y0067361D01*
X0147992Y0066969D02*
X0140611Y0066969D01*
X0140611Y0066577D02*
X0148066Y0066577D01*
X0148066Y0066185D02*
X0140611Y0066185D01*
X0140511Y0065793D02*
X0148166Y0065793D01*
X0148328Y0065400D02*
X0140349Y0065400D01*
X0140187Y0065008D02*
X0148491Y0065008D01*
X0148675Y0064616D02*
X0140002Y0064616D01*
X0139610Y0064224D02*
X0149067Y0064224D01*
X0149460Y0063832D02*
X0139218Y0063832D01*
X0138601Y0063439D02*
X0150076Y0063439D01*
X0151023Y0063047D02*
X0137654Y0063047D01*
X0122903Y0079912D02*
X0091188Y0079912D01*
X0090796Y0080304D02*
X0122452Y0080304D01*
X0122060Y0080697D02*
X0090404Y0080697D01*
X0089753Y0081089D02*
X0121668Y0081089D01*
X0121276Y0081481D02*
X0089837Y0081481D01*
X0090438Y0081873D02*
X0120883Y0081873D01*
X0120491Y0082266D02*
X0090830Y0082266D01*
X0091223Y0082658D02*
X0120099Y0082658D01*
X0119707Y0083050D02*
X0091615Y0083050D01*
X0091847Y0083442D02*
X0119315Y0083442D01*
X0118922Y0083834D02*
X0092009Y0083834D01*
X0092171Y0084227D02*
X0118530Y0084227D01*
X0118138Y0084619D02*
X0092334Y0084619D01*
X0092496Y0085011D02*
X0117746Y0085011D01*
X0117354Y0085403D02*
X0092566Y0085403D01*
X0092566Y0085795D02*
X0116961Y0085795D01*
X0116569Y0086188D02*
X0092566Y0086188D01*
X0092566Y0086580D02*
X0116177Y0086580D01*
X0115785Y0086972D02*
X0092566Y0086972D01*
X0092563Y0087364D02*
X0115393Y0087364D01*
X0122513Y0096385D02*
X0101386Y0096385D01*
X0101386Y0095993D02*
X0100992Y0095993D01*
X0100992Y0096385D02*
X0092566Y0096385D01*
X0092566Y0095993D02*
X0094812Y0095993D01*
X0094890Y0095601D02*
X0092566Y0095601D01*
X0092775Y0095209D02*
X0095000Y0095209D01*
X0095162Y0094816D02*
X0093167Y0094816D01*
X0093559Y0094424D02*
X0095386Y0094424D01*
X0095652Y0094032D02*
X0093951Y0094032D01*
X0094344Y0093640D02*
X0096044Y0093640D01*
X0096570Y0093247D02*
X0094736Y0093247D01*
X0095128Y0092855D02*
X0097381Y0092855D01*
X0100992Y0092855D02*
X0101386Y0092855D01*
X0101386Y0093247D02*
X0100992Y0093247D01*
X0100992Y0093640D02*
X0101386Y0093640D01*
X0101386Y0094032D02*
X0100992Y0094032D01*
X0100992Y0094424D02*
X0101386Y0094424D01*
X0101386Y0094816D02*
X0100992Y0094816D01*
X0100992Y0095209D02*
X0101386Y0095209D01*
X0101386Y0095601D02*
X0100992Y0095601D01*
X0100992Y0096661D02*
X0094792Y0096661D01*
X0094792Y0096839D01*
X0094938Y0097572D01*
X0095224Y0098263D01*
X0095640Y0098885D01*
X0096169Y0099414D01*
X0096790Y0099829D01*
X0097481Y0100115D01*
X0098215Y0100261D01*
X0100992Y0100261D01*
X0100992Y0096661D01*
X0100992Y0096777D02*
X0101386Y0096777D01*
X0101386Y0097170D02*
X0100992Y0097170D01*
X0100992Y0097562D02*
X0101386Y0097562D01*
X0101386Y0097954D02*
X0100992Y0097954D01*
X0100992Y0098346D02*
X0101386Y0098346D01*
X0101386Y0098738D02*
X0100992Y0098738D01*
X0100992Y0099131D02*
X0101386Y0099131D01*
X0101386Y0099523D02*
X0100992Y0099523D01*
X0100992Y0099915D02*
X0101386Y0099915D01*
X0105380Y0099915D02*
X0118983Y0099915D01*
X0118591Y0100307D02*
X0090793Y0100307D01*
X0091185Y0099915D02*
X0096998Y0099915D01*
X0096332Y0099523D02*
X0091577Y0099523D01*
X0091831Y0099131D02*
X0095886Y0099131D01*
X0095542Y0098738D02*
X0091994Y0098738D01*
X0092156Y0098346D02*
X0095280Y0098346D01*
X0095096Y0097954D02*
X0092318Y0097954D01*
X0092481Y0097562D02*
X0094936Y0097562D01*
X0094858Y0097170D02*
X0092566Y0097170D01*
X0092566Y0096777D02*
X0094792Y0096777D01*
X0090401Y0100700D02*
X0118199Y0100700D01*
X0117807Y0101092D02*
X0089746Y0101092D01*
X0089262Y0101876D02*
X0117217Y0101876D01*
X0117055Y0102268D02*
X0105082Y0102268D01*
X0106029Y0102661D02*
X0116964Y0102661D01*
X0116964Y0103053D02*
X0106560Y0103053D01*
X0106952Y0103445D02*
X0116964Y0103445D01*
X0116964Y0103837D02*
X0107344Y0103837D01*
X0107595Y0104229D02*
X0116964Y0104229D01*
X0116964Y0104622D02*
X0107757Y0104622D01*
X0107920Y0105014D02*
X0116964Y0105014D01*
X0116964Y0105406D02*
X0108082Y0105406D01*
X0108161Y0105798D02*
X0116964Y0105798D01*
X0116964Y0106190D02*
X0108161Y0106190D01*
X0108161Y0106583D02*
X0116964Y0106583D01*
X0116964Y0106975D02*
X0108161Y0106975D01*
X0108147Y0107367D02*
X0116964Y0107367D01*
X0116964Y0107759D02*
X0107984Y0107759D01*
X0107822Y0108152D02*
X0116964Y0108152D01*
X0116964Y0108544D02*
X0107660Y0108544D01*
X0107497Y0108936D02*
X0116964Y0108936D01*
X0116964Y0109328D02*
X0107453Y0109328D01*
X0107845Y0109720D02*
X0116964Y0109720D01*
X0116964Y0110113D02*
X0108238Y0110113D01*
X0108630Y0110505D02*
X0116964Y0110505D01*
X0116964Y0110897D02*
X0109022Y0110897D01*
X0109414Y0111289D02*
X0116964Y0111289D01*
X0116964Y0111681D02*
X0109806Y0111681D01*
X0110199Y0112074D02*
X0116964Y0112074D01*
X0116964Y0112466D02*
X0110591Y0112466D01*
X0110983Y0112858D02*
X0116964Y0112858D01*
X0116964Y0113250D02*
X0111375Y0113250D01*
X0111768Y0113643D02*
X0116964Y0113643D01*
X0122107Y0113643D02*
X0125229Y0113643D01*
X0125621Y0113250D02*
X0122107Y0113250D01*
X0122107Y0112858D02*
X0126013Y0112858D01*
X0126819Y0112466D02*
X0122107Y0112466D01*
X0122107Y0112074D02*
X0140118Y0112074D01*
X0139172Y0112466D02*
X0135559Y0112466D01*
X0136365Y0112858D02*
X0138533Y0112858D01*
X0138140Y0113250D02*
X0136757Y0113250D01*
X0137149Y0113643D02*
X0137748Y0113643D01*
X0137734Y0119036D02*
X0137400Y0119036D01*
X0136265Y0120171D01*
X0134659Y0120836D01*
X0127719Y0120836D01*
X0126113Y0120171D01*
X0124899Y0118957D01*
X0110362Y0118957D01*
X0109417Y0118566D01*
X0108694Y0117843D01*
X0108161Y0117309D01*
X0108161Y0117334D01*
X0107495Y0118941D01*
X0106265Y0120171D01*
X0104659Y0120836D01*
X0097719Y0120836D01*
X0096113Y0120171D01*
X0094883Y0118941D01*
X0094217Y0117334D01*
X0094217Y0115595D01*
X0094883Y0113988D01*
X0096113Y0112758D01*
X0097719Y0112093D01*
X0102944Y0112093D01*
X0101688Y0110836D01*
X0097719Y0110836D01*
X0096814Y0110461D01*
X0092428Y0114846D01*
X0092566Y0115179D01*
X0092566Y0117356D01*
X0091733Y0119367D01*
X0090194Y0120906D01*
X0088183Y0121739D01*
X0086006Y0121739D01*
X0083995Y0120906D01*
X0082456Y0119367D01*
X0081623Y0117356D01*
X0081623Y0115179D01*
X0082456Y0113168D01*
X0083995Y0111629D01*
X0085645Y0110946D01*
X0085215Y0110806D01*
X0084528Y0110456D01*
X0083904Y0110003D01*
X0083359Y0109458D01*
X0082906Y0108834D01*
X0082556Y0108147D01*
X0082318Y0107414D01*
X0082198Y0106653D01*
X0082198Y0106465D01*
X0086898Y0106465D01*
X0086898Y0106071D01*
X0082198Y0106071D01*
X0082198Y0105882D01*
X0082318Y0105121D01*
X0082556Y0104388D01*
X0082906Y0103701D01*
X0083359Y0103078D01*
X0083904Y0102533D01*
X0084528Y0102080D01*
X0085215Y0101730D01*
X0085645Y0101590D01*
X0083995Y0100906D01*
X0082456Y0099367D01*
X0081623Y0097356D01*
X0081623Y0095179D01*
X0082456Y0093168D01*
X0083995Y0091629D01*
X0084867Y0091268D01*
X0083995Y0090906D01*
X0082456Y0089367D01*
X0081623Y0087356D01*
X0081623Y0085179D01*
X0082456Y0083168D01*
X0083995Y0081629D01*
X0084867Y0081268D01*
X0083995Y0080906D01*
X0082456Y0079367D01*
X0081623Y0077356D01*
X0081623Y0075179D01*
X0082456Y0073168D01*
X0083995Y0071629D01*
X0084867Y0071268D01*
X0083995Y0070906D01*
X0082456Y0069367D01*
X0081623Y0067356D01*
X0081623Y0065179D01*
X0082456Y0063168D01*
X0083175Y0062449D01*
X0080165Y0062449D01*
X0080165Y0133315D01*
X0275047Y0133315D01*
X0275047Y0105953D01*
X0266046Y0105953D01*
X0265008Y0104915D01*
X0265008Y0095573D01*
X0266046Y0094535D01*
X0275047Y0094535D01*
X0275047Y0081937D01*
X0266046Y0081937D01*
X0265008Y0080899D01*
X0265008Y0071557D01*
X0266046Y0070520D01*
X0275047Y0070520D01*
X0275047Y0062449D01*
X0194199Y0062449D01*
X0194273Y0062577D01*
X0194354Y0062882D01*
X0194354Y0065008D01*
X0187449Y0065008D01*
X0187449Y0065402D01*
X0194354Y0065402D01*
X0194354Y0067528D01*
X0194331Y0067613D01*
X0194929Y0068211D01*
X0194929Y0074009D01*
X0194876Y0074063D01*
X0194929Y0074117D01*
X0194929Y0079915D01*
X0194876Y0079968D01*
X0194929Y0080022D01*
X0194929Y0080350D01*
X0199477Y0080350D01*
X0200087Y0079740D01*
X0201466Y0079169D01*
X0202959Y0079169D01*
X0204338Y0079740D01*
X0205394Y0080795D01*
X0205965Y0082175D01*
X0205965Y0083668D01*
X0205394Y0085047D01*
X0204338Y0086103D01*
X0202959Y0086674D01*
X0201466Y0086674D01*
X0200087Y0086103D01*
X0199477Y0085493D01*
X0194929Y0085493D01*
X0194929Y0085820D01*
X0194876Y0085874D01*
X0194929Y0085928D01*
X0194929Y0086255D01*
X0195638Y0086255D01*
X0196583Y0086647D01*
X0197306Y0087370D01*
X0198553Y0088617D01*
X0199416Y0088617D01*
X0200795Y0089189D01*
X0201851Y0090244D01*
X0202422Y0091624D01*
X0202422Y0093117D01*
X0201851Y0094496D01*
X0200795Y0095552D01*
X0199416Y0096123D01*
X0197923Y0096123D01*
X0196544Y0095552D01*
X0195488Y0094496D01*
X0194917Y0093117D01*
X0194917Y0092254D01*
X0194659Y0091996D01*
X0193891Y0092764D01*
X0180613Y0092764D01*
X0179575Y0091726D01*
X0179575Y0089381D01*
X0178903Y0090053D01*
X0177296Y0090718D01*
X0170357Y0090718D01*
X0168750Y0090053D01*
X0167521Y0088823D01*
X0167446Y0088643D01*
X0167057Y0088643D01*
X0164627Y0091073D01*
X0164627Y0106661D01*
X0164235Y0107606D01*
X0163512Y0108330D01*
X0153315Y0118527D01*
X0152370Y0118918D01*
X0150038Y0118918D01*
X0148903Y0120053D01*
X0147296Y0120718D01*
X0146398Y0120718D01*
X0146398Y0121975D01*
X0147296Y0121975D01*
X0148903Y0122640D01*
X0150133Y0123870D01*
X0150798Y0125477D01*
X0150798Y0127216D01*
X0150133Y0128823D01*
X0148903Y0130053D01*
X0147296Y0130718D01*
X0140357Y0130718D01*
X0138750Y0130053D01*
X0137521Y0128823D01*
X0137221Y0128100D01*
X0137154Y0128263D01*
X0136738Y0128885D01*
X0136209Y0129414D01*
X0135587Y0129829D01*
X0134896Y0130115D01*
X0134163Y0130261D01*
X0131386Y0130261D01*
X0131386Y0126661D01*
X0130992Y0126661D01*
X0130992Y0126268D01*
X0124792Y0126268D01*
X0124792Y0126091D01*
X0124938Y0125357D01*
X0125224Y0124666D01*
X0125640Y0124044D01*
X0126169Y0123515D01*
X0126790Y0123100D01*
X0127481Y0122814D01*
X0128215Y0122668D01*
X0130992Y0122668D01*
X0130992Y0126268D01*
X0131386Y0126268D01*
X0131386Y0122668D01*
X0134163Y0122668D01*
X0134896Y0122814D01*
X0135587Y0123100D01*
X0136209Y0123515D01*
X0136738Y0124044D01*
X0137154Y0124666D01*
X0137172Y0124711D01*
X0137521Y0123870D01*
X0138750Y0122640D01*
X0140357Y0121975D01*
X0141255Y0121975D01*
X0141255Y0120718D01*
X0140357Y0120718D01*
X0138750Y0120053D01*
X0137734Y0119036D01*
X0137831Y0119133D02*
X0137302Y0119133D01*
X0136910Y0119526D02*
X0138224Y0119526D01*
X0138616Y0119918D02*
X0136518Y0119918D01*
X0135929Y0120310D02*
X0139372Y0120310D01*
X0140319Y0120702D02*
X0134982Y0120702D01*
X0135481Y0123056D02*
X0138335Y0123056D01*
X0137943Y0123448D02*
X0136108Y0123448D01*
X0136534Y0123840D02*
X0137551Y0123840D01*
X0137371Y0124232D02*
X0136864Y0124232D01*
X0137126Y0124624D02*
X0137208Y0124624D01*
X0138727Y0122663D02*
X0106036Y0122663D01*
X0106265Y0122758D02*
X0107495Y0123988D01*
X0108161Y0125595D01*
X0108161Y0127334D01*
X0107495Y0128941D01*
X0106265Y0130171D01*
X0104659Y0130836D01*
X0097719Y0130836D01*
X0096113Y0130171D01*
X0094883Y0128941D01*
X0094217Y0127334D01*
X0094217Y0125595D01*
X0094883Y0123988D01*
X0096113Y0122758D01*
X0097719Y0122093D01*
X0104659Y0122093D01*
X0106265Y0122758D01*
X0106562Y0123056D02*
X0126897Y0123056D01*
X0126270Y0123448D02*
X0106955Y0123448D01*
X0107347Y0123840D02*
X0125844Y0123840D01*
X0125514Y0124232D02*
X0107596Y0124232D01*
X0107759Y0124624D02*
X0125252Y0124624D01*
X0125079Y0125017D02*
X0107921Y0125017D01*
X0108084Y0125409D02*
X0124928Y0125409D01*
X0124850Y0125801D02*
X0108161Y0125801D01*
X0108161Y0126193D02*
X0124792Y0126193D01*
X0124792Y0126661D02*
X0130992Y0126661D01*
X0130992Y0130261D01*
X0128215Y0130261D01*
X0127481Y0130115D01*
X0106321Y0130115D01*
X0106713Y0129723D02*
X0126632Y0129723D01*
X0126790Y0129829D02*
X0126169Y0129414D01*
X0125640Y0128885D01*
X0125224Y0128263D01*
X0124938Y0127572D01*
X0124792Y0126839D01*
X0124792Y0126661D01*
X0124820Y0126978D02*
X0108161Y0126978D01*
X0108146Y0127370D02*
X0124898Y0127370D01*
X0125017Y0127762D02*
X0107983Y0127762D01*
X0107821Y0128154D02*
X0125179Y0128154D01*
X0125414Y0128547D02*
X0107658Y0128547D01*
X0107496Y0128939D02*
X0125694Y0128939D01*
X0126086Y0129331D02*
X0107105Y0129331D01*
X0105452Y0130508D02*
X0139849Y0130508D01*
X0138902Y0130115D02*
X0134897Y0130115D01*
X0135746Y0129723D02*
X0138421Y0129723D01*
X0138029Y0129331D02*
X0136292Y0129331D01*
X0136684Y0128939D02*
X0137637Y0128939D01*
X0137406Y0128547D02*
X0136964Y0128547D01*
X0137199Y0128154D02*
X0137244Y0128154D01*
X0139642Y0122271D02*
X0105089Y0122271D01*
X0104982Y0120702D02*
X0127396Y0120702D01*
X0126449Y0120310D02*
X0105929Y0120310D01*
X0106518Y0119918D02*
X0125860Y0119918D01*
X0125468Y0119526D02*
X0106910Y0119526D01*
X0107302Y0119133D02*
X0125075Y0119133D01*
X0130992Y0123056D02*
X0131386Y0123056D01*
X0131386Y0123448D02*
X0130992Y0123448D01*
X0130992Y0123840D02*
X0131386Y0123840D01*
X0131386Y0124232D02*
X0130992Y0124232D01*
X0130992Y0124624D02*
X0131386Y0124624D01*
X0131386Y0125017D02*
X0130992Y0125017D01*
X0130992Y0125409D02*
X0131386Y0125409D01*
X0131386Y0125801D02*
X0130992Y0125801D01*
X0130992Y0126193D02*
X0131386Y0126193D01*
X0130992Y0126586D02*
X0108161Y0126586D01*
X0107578Y0118741D02*
X0109841Y0118741D01*
X0109200Y0118349D02*
X0107740Y0118349D01*
X0107903Y0117957D02*
X0108808Y0117957D01*
X0108416Y0117565D02*
X0108065Y0117565D01*
X0102925Y0112074D02*
X0095201Y0112074D01*
X0094809Y0112466D02*
X0096819Y0112466D01*
X0096013Y0112858D02*
X0094417Y0112858D01*
X0094024Y0113250D02*
X0095621Y0113250D01*
X0095229Y0113643D02*
X0093632Y0113643D01*
X0093240Y0114035D02*
X0094864Y0114035D01*
X0094701Y0114427D02*
X0092848Y0114427D01*
X0092455Y0114819D02*
X0094539Y0114819D01*
X0094376Y0115211D02*
X0092566Y0115211D01*
X0092566Y0115604D02*
X0094217Y0115604D01*
X0094217Y0115996D02*
X0092566Y0115996D01*
X0092566Y0116388D02*
X0094217Y0116388D01*
X0094217Y0116780D02*
X0092566Y0116780D01*
X0092566Y0117172D02*
X0094217Y0117172D01*
X0094313Y0117565D02*
X0092480Y0117565D01*
X0092317Y0117957D02*
X0094475Y0117957D01*
X0094638Y0118349D02*
X0092155Y0118349D01*
X0091992Y0118741D02*
X0094800Y0118741D01*
X0095075Y0119133D02*
X0091830Y0119133D01*
X0091575Y0119526D02*
X0095468Y0119526D01*
X0095860Y0119918D02*
X0091182Y0119918D01*
X0090790Y0120310D02*
X0096449Y0120310D01*
X0097396Y0120702D02*
X0090398Y0120702D01*
X0089740Y0121095D02*
X0141255Y0121095D01*
X0141255Y0121487D02*
X0088793Y0121487D01*
X0085396Y0121487D02*
X0080165Y0121487D01*
X0080165Y0121879D02*
X0141255Y0121879D01*
X0146398Y0121879D02*
X0275047Y0121879D01*
X0275047Y0122271D02*
X0148012Y0122271D01*
X0148926Y0122663D02*
X0170281Y0122663D01*
X0170119Y0122696D02*
X0170853Y0122550D01*
X0173630Y0122550D01*
X0173630Y0126150D01*
X0167430Y0126150D01*
X0167430Y0125972D01*
X0167576Y0125239D01*
X0167862Y0124548D01*
X0168278Y0123926D01*
X0168806Y0123397D01*
X0169428Y0122982D01*
X0170119Y0122696D01*
X0169318Y0123056D02*
X0149318Y0123056D01*
X0149711Y0123448D02*
X0168756Y0123448D01*
X0168364Y0123840D02*
X0150103Y0123840D01*
X0150283Y0124232D02*
X0168073Y0124232D01*
X0167830Y0124624D02*
X0150445Y0124624D01*
X0150608Y0125017D02*
X0167668Y0125017D01*
X0167542Y0125409D02*
X0150770Y0125409D01*
X0150798Y0125801D02*
X0167464Y0125801D01*
X0167430Y0126543D02*
X0173630Y0126543D01*
X0173630Y0126150D01*
X0174024Y0126150D01*
X0174024Y0126543D01*
X0180224Y0126543D01*
X0180224Y0126720D01*
X0180078Y0127454D01*
X0179791Y0128145D01*
X0179376Y0128767D01*
X0178847Y0129296D01*
X0178225Y0129711D01*
X0177534Y0129997D01*
X0176801Y0130143D01*
X0174024Y0130143D01*
X0174024Y0126543D01*
X0173630Y0126543D01*
X0173630Y0130143D01*
X0170853Y0130143D01*
X0170119Y0129997D01*
X0169428Y0129711D01*
X0168806Y0129296D01*
X0168278Y0128767D01*
X0167862Y0128145D01*
X0167576Y0127454D01*
X0167430Y0126720D01*
X0167430Y0126543D01*
X0167430Y0126586D02*
X0150798Y0126586D01*
X0150798Y0126978D02*
X0167481Y0126978D01*
X0167559Y0127370D02*
X0150735Y0127370D01*
X0150572Y0127762D02*
X0167704Y0127762D01*
X0167868Y0128154D02*
X0150410Y0128154D01*
X0150247Y0128547D02*
X0168130Y0128547D01*
X0168450Y0128939D02*
X0150017Y0128939D01*
X0149625Y0129331D02*
X0168859Y0129331D01*
X0169457Y0129723D02*
X0149232Y0129723D01*
X0148751Y0130115D02*
X0170713Y0130115D01*
X0173630Y0130115D02*
X0174024Y0130115D01*
X0174024Y0129723D02*
X0173630Y0129723D01*
X0173630Y0129331D02*
X0174024Y0129331D01*
X0174024Y0128939D02*
X0173630Y0128939D01*
X0173630Y0128547D02*
X0174024Y0128547D01*
X0174024Y0128154D02*
X0173630Y0128154D01*
X0173630Y0127762D02*
X0174024Y0127762D01*
X0174024Y0127370D02*
X0173630Y0127370D01*
X0173630Y0126978D02*
X0174024Y0126978D01*
X0174024Y0126586D02*
X0173630Y0126586D01*
X0173630Y0126193D02*
X0150798Y0126193D01*
X0147804Y0130508D02*
X0275047Y0130508D01*
X0275047Y0130900D02*
X0080165Y0130900D01*
X0080165Y0131292D02*
X0275047Y0131292D01*
X0275047Y0131684D02*
X0080165Y0131684D01*
X0080165Y0132076D02*
X0275047Y0132076D01*
X0275047Y0132469D02*
X0080165Y0132469D01*
X0080165Y0132861D02*
X0275047Y0132861D01*
X0275047Y0133253D02*
X0080165Y0133253D01*
X0080165Y0130508D02*
X0096926Y0130508D01*
X0096057Y0130115D02*
X0080165Y0130115D01*
X0080165Y0129723D02*
X0095665Y0129723D01*
X0095273Y0129331D02*
X0080165Y0129331D01*
X0080165Y0128939D02*
X0094882Y0128939D01*
X0094720Y0128547D02*
X0080165Y0128547D01*
X0080165Y0128154D02*
X0094557Y0128154D01*
X0094395Y0127762D02*
X0080165Y0127762D01*
X0080165Y0127370D02*
X0094232Y0127370D01*
X0094217Y0126978D02*
X0080165Y0126978D01*
X0080165Y0126586D02*
X0094217Y0126586D01*
X0094217Y0126193D02*
X0080165Y0126193D01*
X0080165Y0125801D02*
X0094217Y0125801D01*
X0094294Y0125409D02*
X0080165Y0125409D01*
X0080165Y0125017D02*
X0094457Y0125017D01*
X0094619Y0124624D02*
X0080165Y0124624D01*
X0080165Y0124232D02*
X0094782Y0124232D01*
X0095031Y0123840D02*
X0080165Y0123840D01*
X0080165Y0123448D02*
X0095423Y0123448D01*
X0095815Y0123056D02*
X0080165Y0123056D01*
X0080165Y0122663D02*
X0096342Y0122663D01*
X0097289Y0122271D02*
X0080165Y0122271D01*
X0080165Y0121095D02*
X0084449Y0121095D01*
X0083791Y0120702D02*
X0080165Y0120702D01*
X0080165Y0120310D02*
X0083399Y0120310D01*
X0083007Y0119918D02*
X0080165Y0119918D01*
X0080165Y0119526D02*
X0082614Y0119526D01*
X0082359Y0119133D02*
X0080165Y0119133D01*
X0080165Y0118741D02*
X0082197Y0118741D01*
X0082034Y0118349D02*
X0080165Y0118349D01*
X0080165Y0117957D02*
X0081872Y0117957D01*
X0081709Y0117565D02*
X0080165Y0117565D01*
X0080165Y0117172D02*
X0081623Y0117172D01*
X0081623Y0116780D02*
X0080165Y0116780D01*
X0080165Y0116388D02*
X0081623Y0116388D01*
X0081623Y0115996D02*
X0080165Y0115996D01*
X0080165Y0115604D02*
X0081623Y0115604D01*
X0081623Y0115211D02*
X0080165Y0115211D01*
X0080165Y0114819D02*
X0081772Y0114819D01*
X0081934Y0114427D02*
X0080165Y0114427D01*
X0080165Y0114035D02*
X0082097Y0114035D01*
X0082259Y0113643D02*
X0080165Y0113643D01*
X0080165Y0113250D02*
X0082422Y0113250D01*
X0082766Y0112858D02*
X0080165Y0112858D01*
X0080165Y0112466D02*
X0083158Y0112466D01*
X0083550Y0112074D02*
X0080165Y0112074D01*
X0080165Y0111681D02*
X0083943Y0111681D01*
X0084815Y0111289D02*
X0080165Y0111289D01*
X0080165Y0110897D02*
X0085496Y0110897D01*
X0084624Y0110505D02*
X0080165Y0110505D01*
X0080165Y0110113D02*
X0084056Y0110113D01*
X0083622Y0109720D02*
X0080165Y0109720D01*
X0080165Y0109328D02*
X0083265Y0109328D01*
X0082980Y0108936D02*
X0080165Y0108936D01*
X0080165Y0108544D02*
X0082758Y0108544D01*
X0082558Y0108152D02*
X0080165Y0108152D01*
X0080165Y0107759D02*
X0082430Y0107759D01*
X0082311Y0107367D02*
X0080165Y0107367D01*
X0080165Y0106975D02*
X0082249Y0106975D01*
X0082198Y0106583D02*
X0080165Y0106583D01*
X0080165Y0106190D02*
X0086898Y0106190D01*
X0087291Y0106190D02*
X0093810Y0106190D01*
X0094203Y0105798D02*
X0091978Y0105798D01*
X0091916Y0105406D02*
X0094296Y0105406D01*
X0094458Y0105014D02*
X0091836Y0105014D01*
X0091708Y0104622D02*
X0094620Y0104622D01*
X0094783Y0104229D02*
X0091552Y0104229D01*
X0091352Y0103837D02*
X0095034Y0103837D01*
X0095426Y0103445D02*
X0091096Y0103445D01*
X0090805Y0103053D02*
X0095818Y0103053D01*
X0096349Y0102661D02*
X0090413Y0102661D01*
X0089921Y0102268D02*
X0097296Y0102268D01*
X0093418Y0106583D02*
X0091991Y0106583D01*
X0091940Y0106975D02*
X0093026Y0106975D01*
X0092634Y0107367D02*
X0091878Y0107367D01*
X0091759Y0107759D02*
X0092242Y0107759D01*
X0091849Y0108152D02*
X0091630Y0108152D01*
X0091457Y0108544D02*
X0091431Y0108544D01*
X0089425Y0110576D02*
X0088974Y0110806D01*
X0088544Y0110946D01*
X0088906Y0111095D01*
X0089425Y0110576D01*
X0089104Y0110897D02*
X0088693Y0110897D01*
X0095593Y0111681D02*
X0102533Y0111681D01*
X0102141Y0111289D02*
X0095985Y0111289D01*
X0096378Y0110897D02*
X0101748Y0110897D01*
X0096919Y0110505D02*
X0096770Y0110505D01*
X0088799Y0101484D02*
X0117415Y0101484D01*
X0119376Y0099523D02*
X0106046Y0099523D01*
X0093054Y0087757D02*
X0092400Y0087757D01*
X0092561Y0088149D02*
X0092238Y0088149D01*
X0092169Y0088541D02*
X0092075Y0088541D01*
X0089527Y0091183D02*
X0089322Y0091268D01*
X0089407Y0091303D01*
X0089527Y0091183D01*
X0089423Y0091286D02*
X0089367Y0091286D01*
X0084822Y0091286D02*
X0080165Y0091286D01*
X0080165Y0090894D02*
X0083983Y0090894D01*
X0083591Y0090502D02*
X0080165Y0090502D01*
X0080165Y0090110D02*
X0083198Y0090110D01*
X0082806Y0089718D02*
X0080165Y0089718D01*
X0080165Y0089325D02*
X0082439Y0089325D01*
X0082276Y0088933D02*
X0080165Y0088933D01*
X0080165Y0088541D02*
X0082114Y0088541D01*
X0081951Y0088149D02*
X0080165Y0088149D01*
X0080165Y0087757D02*
X0081789Y0087757D01*
X0081626Y0087364D02*
X0080165Y0087364D01*
X0080165Y0086972D02*
X0081623Y0086972D01*
X0081623Y0086580D02*
X0080165Y0086580D01*
X0080165Y0086188D02*
X0081623Y0086188D01*
X0081623Y0085795D02*
X0080165Y0085795D01*
X0080165Y0085403D02*
X0081623Y0085403D01*
X0081693Y0085011D02*
X0080165Y0085011D01*
X0080165Y0084619D02*
X0081855Y0084619D01*
X0082017Y0084227D02*
X0080165Y0084227D01*
X0080165Y0083834D02*
X0082180Y0083834D01*
X0082342Y0083442D02*
X0080165Y0083442D01*
X0080165Y0083050D02*
X0082574Y0083050D01*
X0082966Y0082658D02*
X0080165Y0082658D01*
X0080165Y0082266D02*
X0083359Y0082266D01*
X0083751Y0081873D02*
X0080165Y0081873D01*
X0080165Y0081481D02*
X0084352Y0081481D01*
X0084436Y0081089D02*
X0080165Y0081089D01*
X0080165Y0080697D02*
X0083785Y0080697D01*
X0083393Y0080304D02*
X0080165Y0080304D01*
X0080165Y0079912D02*
X0083001Y0079912D01*
X0082609Y0079520D02*
X0080165Y0079520D01*
X0080165Y0079128D02*
X0082357Y0079128D01*
X0082194Y0078736D02*
X0080165Y0078736D01*
X0080165Y0078343D02*
X0082032Y0078343D01*
X0081869Y0077951D02*
X0080165Y0077951D01*
X0080165Y0077559D02*
X0081707Y0077559D01*
X0081623Y0077167D02*
X0080165Y0077167D01*
X0080165Y0076775D02*
X0081623Y0076775D01*
X0081623Y0076382D02*
X0080165Y0076382D01*
X0080165Y0075990D02*
X0081623Y0075990D01*
X0081623Y0075598D02*
X0080165Y0075598D01*
X0080165Y0075206D02*
X0081623Y0075206D01*
X0081774Y0074814D02*
X0080165Y0074814D01*
X0080165Y0074421D02*
X0081937Y0074421D01*
X0082099Y0074029D02*
X0080165Y0074029D01*
X0080165Y0073637D02*
X0082262Y0073637D01*
X0082424Y0073245D02*
X0080165Y0073245D01*
X0080165Y0072852D02*
X0082772Y0072852D01*
X0083164Y0072460D02*
X0080165Y0072460D01*
X0080165Y0072068D02*
X0083556Y0072068D01*
X0083948Y0071676D02*
X0080165Y0071676D01*
X0080165Y0071284D02*
X0084829Y0071284D01*
X0083980Y0070891D02*
X0080165Y0070891D01*
X0080165Y0070499D02*
X0083588Y0070499D01*
X0083196Y0070107D02*
X0080165Y0070107D01*
X0080165Y0069715D02*
X0082803Y0069715D01*
X0082437Y0069323D02*
X0080165Y0069323D01*
X0080165Y0068930D02*
X0082275Y0068930D01*
X0082112Y0068538D02*
X0080165Y0068538D01*
X0080165Y0068146D02*
X0081950Y0068146D01*
X0081788Y0067754D02*
X0080165Y0067754D01*
X0080165Y0067361D02*
X0081625Y0067361D01*
X0081623Y0066969D02*
X0080165Y0066969D01*
X0080165Y0066577D02*
X0081623Y0066577D01*
X0081623Y0066185D02*
X0080165Y0066185D01*
X0080165Y0065793D02*
X0081623Y0065793D01*
X0081623Y0065400D02*
X0080165Y0065400D01*
X0080165Y0065008D02*
X0081694Y0065008D01*
X0081856Y0064616D02*
X0080165Y0064616D01*
X0080165Y0064224D02*
X0082019Y0064224D01*
X0082181Y0063832D02*
X0080165Y0063832D01*
X0080165Y0063439D02*
X0082344Y0063439D01*
X0082577Y0063047D02*
X0080165Y0063047D01*
X0080165Y0062655D02*
X0082969Y0062655D01*
X0083945Y0091679D02*
X0080165Y0091679D01*
X0080165Y0092071D02*
X0083553Y0092071D01*
X0083161Y0092463D02*
X0080165Y0092463D01*
X0080165Y0092855D02*
X0082769Y0092855D01*
X0082423Y0093247D02*
X0080165Y0093247D01*
X0080165Y0093640D02*
X0082261Y0093640D01*
X0082098Y0094032D02*
X0080165Y0094032D01*
X0080165Y0094424D02*
X0081936Y0094424D01*
X0081773Y0094816D02*
X0080165Y0094816D01*
X0080165Y0095209D02*
X0081623Y0095209D01*
X0081623Y0095601D02*
X0080165Y0095601D01*
X0080165Y0095993D02*
X0081623Y0095993D01*
X0081623Y0096385D02*
X0080165Y0096385D01*
X0080165Y0096777D02*
X0081623Y0096777D01*
X0081623Y0097170D02*
X0080165Y0097170D01*
X0080165Y0097562D02*
X0081708Y0097562D01*
X0081871Y0097954D02*
X0080165Y0097954D01*
X0080165Y0098346D02*
X0082033Y0098346D01*
X0082195Y0098738D02*
X0080165Y0098738D01*
X0080165Y0099131D02*
X0082358Y0099131D01*
X0082612Y0099523D02*
X0080165Y0099523D01*
X0080165Y0099915D02*
X0083004Y0099915D01*
X0083396Y0100307D02*
X0080165Y0100307D01*
X0080165Y0100700D02*
X0083788Y0100700D01*
X0084443Y0101092D02*
X0080165Y0101092D01*
X0080165Y0101484D02*
X0085389Y0101484D01*
X0084927Y0101876D02*
X0080165Y0101876D01*
X0080165Y0102268D02*
X0084268Y0102268D01*
X0083776Y0102661D02*
X0080165Y0102661D01*
X0080165Y0103053D02*
X0083384Y0103053D01*
X0083092Y0103445D02*
X0080165Y0103445D01*
X0080165Y0103837D02*
X0082837Y0103837D01*
X0082637Y0104229D02*
X0080165Y0104229D01*
X0080165Y0104622D02*
X0082480Y0104622D01*
X0082353Y0105014D02*
X0080165Y0105014D01*
X0080165Y0105406D02*
X0082273Y0105406D01*
X0082211Y0105798D02*
X0080165Y0105798D01*
X0080165Y0136858D02*
X0080165Y0207724D01*
X0275047Y0207724D01*
X0275047Y0180362D01*
X0266046Y0180362D01*
X0265008Y0179324D01*
X0265008Y0169983D01*
X0266046Y0168945D01*
X0275047Y0168945D01*
X0275047Y0156346D01*
X0266046Y0156346D01*
X0265008Y0155309D01*
X0265008Y0145967D01*
X0266046Y0144929D01*
X0275047Y0144929D01*
X0275047Y0136858D01*
X0194199Y0136858D01*
X0194273Y0136987D01*
X0194354Y0137291D01*
X0194354Y0139417D01*
X0187449Y0139417D01*
X0187449Y0139811D01*
X0194354Y0139811D01*
X0194354Y0141937D01*
X0194331Y0142023D01*
X0194929Y0142620D01*
X0194929Y0148419D01*
X0194876Y0148472D01*
X0194929Y0148526D01*
X0194929Y0154324D01*
X0194876Y0154378D01*
X0194929Y0154432D01*
X0194929Y0154759D01*
X0199477Y0154759D01*
X0200087Y0154149D01*
X0201466Y0153578D01*
X0202959Y0153578D01*
X0204338Y0154149D01*
X0205394Y0155205D01*
X0205965Y0156584D01*
X0205965Y0158077D01*
X0205394Y0159456D01*
X0204338Y0160512D01*
X0202959Y0161083D01*
X0201466Y0161083D01*
X0200087Y0160512D01*
X0199477Y0159902D01*
X0194929Y0159902D01*
X0194929Y0160230D01*
X0194876Y0160283D01*
X0194929Y0160337D01*
X0194929Y0160665D01*
X0195638Y0160665D01*
X0196583Y0161056D01*
X0197306Y0161779D01*
X0198553Y0163027D01*
X0199416Y0163027D01*
X0200795Y0163598D01*
X0201851Y0164654D01*
X0202422Y0166033D01*
X0202422Y0167526D01*
X0201851Y0168905D01*
X0200795Y0169961D01*
X0199416Y0170532D01*
X0197923Y0170532D01*
X0196544Y0169961D01*
X0195488Y0168905D01*
X0194917Y0167526D01*
X0194917Y0166664D01*
X0194659Y0166406D01*
X0193891Y0167173D01*
X0180613Y0167173D01*
X0179575Y0166135D01*
X0179575Y0163790D01*
X0178903Y0164462D01*
X0177296Y0165128D01*
X0170357Y0165128D01*
X0168750Y0164462D01*
X0167521Y0163232D01*
X0167446Y0163052D01*
X0167057Y0163052D01*
X0164627Y0165483D01*
X0164627Y0181071D01*
X0164235Y0182016D01*
X0163512Y0182739D01*
X0153315Y0192936D01*
X0152370Y0193328D01*
X0150038Y0193328D01*
X0148903Y0194462D01*
X0147296Y0195128D01*
X0146398Y0195128D01*
X0146398Y0196384D01*
X0147296Y0196384D01*
X0148903Y0197050D01*
X0150133Y0198280D01*
X0150798Y0199886D01*
X0150798Y0201625D01*
X0150133Y0203232D01*
X0148903Y0204462D01*
X0147296Y0205128D01*
X0140357Y0205128D01*
X0138750Y0204462D01*
X0137521Y0203232D01*
X0137221Y0202509D01*
X0137154Y0202672D01*
X0136738Y0203294D01*
X0136209Y0203823D01*
X0135587Y0204239D01*
X0134896Y0204525D01*
X0134163Y0204671D01*
X0131386Y0204671D01*
X0131386Y0201071D01*
X0130992Y0201071D01*
X0130992Y0204671D01*
X0128215Y0204671D01*
X0127481Y0204525D01*
X0126790Y0204239D01*
X0126169Y0203823D01*
X0125640Y0203294D01*
X0125224Y0202672D01*
X0124938Y0201982D01*
X0124792Y0201248D01*
X0124792Y0201071D01*
X0130992Y0201071D01*
X0130992Y0200677D01*
X0131386Y0200677D01*
X0131386Y0197077D01*
X0134163Y0197077D01*
X0134896Y0197223D01*
X0135587Y0197509D01*
X0136209Y0197925D01*
X0136738Y0198454D01*
X0137154Y0199076D01*
X0137172Y0199121D01*
X0137521Y0198280D01*
X0138750Y0197050D01*
X0140357Y0196384D01*
X0141255Y0196384D01*
X0141255Y0195128D01*
X0140357Y0195128D01*
X0138750Y0194462D01*
X0137734Y0193446D01*
X0137400Y0193446D01*
X0136265Y0194580D01*
X0134659Y0195246D01*
X0127719Y0195246D01*
X0126113Y0194580D01*
X0124899Y0193367D01*
X0110362Y0193367D01*
X0109417Y0192975D01*
X0108694Y0192252D01*
X0108161Y0191719D01*
X0108161Y0191744D01*
X0107495Y0193350D01*
X0106265Y0194580D01*
X0104659Y0195246D01*
X0097719Y0195246D01*
X0096113Y0194580D01*
X0094883Y0193350D01*
X0094217Y0191744D01*
X0094217Y0190004D01*
X0094883Y0188398D01*
X0096113Y0187168D01*
X0097719Y0186502D01*
X0102944Y0186502D01*
X0101688Y0185246D01*
X0097719Y0185246D01*
X0096814Y0184870D01*
X0092428Y0189256D01*
X0092566Y0189589D01*
X0092566Y0191766D01*
X0091733Y0193777D01*
X0090194Y0195316D01*
X0088183Y0196149D01*
X0086006Y0196149D01*
X0083995Y0195316D01*
X0082456Y0193777D01*
X0081623Y0191766D01*
X0081623Y0189589D01*
X0082456Y0187578D01*
X0083995Y0186039D01*
X0085645Y0185355D01*
X0085215Y0185215D01*
X0084528Y0184865D01*
X0083904Y0184412D01*
X0083359Y0183867D01*
X0082906Y0183244D01*
X0082556Y0182557D01*
X0082318Y0181824D01*
X0082198Y0181063D01*
X0082198Y0180874D01*
X0086898Y0180874D01*
X0086898Y0180480D01*
X0082198Y0180480D01*
X0082198Y0180292D01*
X0082318Y0179530D01*
X0082556Y0178797D01*
X0082906Y0178111D01*
X0083359Y0177487D01*
X0083904Y0176942D01*
X0084528Y0176489D01*
X0085215Y0176139D01*
X0085645Y0175999D01*
X0083995Y0175316D01*
X0082456Y0173777D01*
X0081623Y0171766D01*
X0081623Y0169589D01*
X0082456Y0167578D01*
X0083995Y0166039D01*
X0084867Y0165677D01*
X0083995Y0165316D01*
X0082456Y0163777D01*
X0081623Y0161766D01*
X0081623Y0159589D01*
X0082456Y0157578D01*
X0083995Y0156039D01*
X0084867Y0155677D01*
X0083995Y0155316D01*
X0082456Y0153777D01*
X0081623Y0151766D01*
X0081623Y0149589D01*
X0082456Y0147578D01*
X0083995Y0146039D01*
X0084867Y0145677D01*
X0083995Y0145316D01*
X0082456Y0143777D01*
X0081623Y0141766D01*
X0081623Y0139589D01*
X0082456Y0137578D01*
X0083175Y0136858D01*
X0080165Y0136858D01*
X0080165Y0137175D02*
X0082858Y0137175D01*
X0082466Y0137567D02*
X0080165Y0137567D01*
X0080165Y0137960D02*
X0082298Y0137960D01*
X0082135Y0138352D02*
X0080165Y0138352D01*
X0080165Y0138744D02*
X0081973Y0138744D01*
X0081810Y0139136D02*
X0080165Y0139136D01*
X0080165Y0139529D02*
X0081648Y0139529D01*
X0081623Y0139921D02*
X0080165Y0139921D01*
X0080165Y0140313D02*
X0081623Y0140313D01*
X0081623Y0140705D02*
X0080165Y0140705D01*
X0080165Y0141097D02*
X0081623Y0141097D01*
X0081623Y0141490D02*
X0080165Y0141490D01*
X0080165Y0141882D02*
X0081671Y0141882D01*
X0081833Y0142274D02*
X0080165Y0142274D01*
X0080165Y0142666D02*
X0081996Y0142666D01*
X0082158Y0143058D02*
X0080165Y0143058D01*
X0080165Y0143451D02*
X0082321Y0143451D01*
X0082522Y0143843D02*
X0080165Y0143843D01*
X0080165Y0144235D02*
X0082914Y0144235D01*
X0083307Y0144627D02*
X0080165Y0144627D01*
X0080165Y0145019D02*
X0083699Y0145019D01*
X0084227Y0145412D02*
X0080165Y0145412D01*
X0080165Y0145804D02*
X0084561Y0145804D01*
X0083837Y0146196D02*
X0080165Y0146196D01*
X0080165Y0146588D02*
X0083445Y0146588D01*
X0083053Y0146981D02*
X0080165Y0146981D01*
X0080165Y0147373D02*
X0082661Y0147373D01*
X0082378Y0147765D02*
X0080165Y0147765D01*
X0080165Y0148157D02*
X0082216Y0148157D01*
X0082053Y0148549D02*
X0080165Y0148549D01*
X0080165Y0148942D02*
X0081891Y0148942D01*
X0081728Y0149334D02*
X0080165Y0149334D01*
X0080165Y0149726D02*
X0081623Y0149726D01*
X0081623Y0150118D02*
X0080165Y0150118D01*
X0080165Y0150510D02*
X0081623Y0150510D01*
X0081623Y0150903D02*
X0080165Y0150903D01*
X0080165Y0151295D02*
X0081623Y0151295D01*
X0081623Y0151687D02*
X0080165Y0151687D01*
X0080165Y0152079D02*
X0081753Y0152079D01*
X0081915Y0152472D02*
X0080165Y0152472D01*
X0080165Y0152864D02*
X0082078Y0152864D01*
X0082240Y0153256D02*
X0080165Y0153256D01*
X0080165Y0153648D02*
X0082403Y0153648D01*
X0082720Y0154040D02*
X0080165Y0154040D01*
X0080165Y0154433D02*
X0083112Y0154433D01*
X0083504Y0154825D02*
X0080165Y0154825D01*
X0080165Y0155217D02*
X0083896Y0155217D01*
X0084085Y0156001D02*
X0080165Y0156001D01*
X0080165Y0155609D02*
X0084703Y0155609D01*
X0083640Y0156394D02*
X0080165Y0156394D01*
X0080165Y0156786D02*
X0083248Y0156786D01*
X0082855Y0157178D02*
X0080165Y0157178D01*
X0080165Y0157570D02*
X0082463Y0157570D01*
X0082296Y0157962D02*
X0080165Y0157962D01*
X0080165Y0158355D02*
X0082134Y0158355D01*
X0081972Y0158747D02*
X0080165Y0158747D01*
X0080165Y0159139D02*
X0081809Y0159139D01*
X0081647Y0159531D02*
X0080165Y0159531D01*
X0080165Y0159924D02*
X0081623Y0159924D01*
X0081623Y0160316D02*
X0080165Y0160316D01*
X0080165Y0160708D02*
X0081623Y0160708D01*
X0081623Y0161100D02*
X0080165Y0161100D01*
X0080165Y0161492D02*
X0081623Y0161492D01*
X0081672Y0161885D02*
X0080165Y0161885D01*
X0080165Y0162277D02*
X0081835Y0162277D01*
X0081997Y0162669D02*
X0080165Y0162669D01*
X0080165Y0163061D02*
X0082160Y0163061D01*
X0082322Y0163453D02*
X0080165Y0163453D01*
X0080165Y0163846D02*
X0082525Y0163846D01*
X0082917Y0164238D02*
X0080165Y0164238D01*
X0080165Y0164630D02*
X0083309Y0164630D01*
X0083702Y0165022D02*
X0080165Y0165022D01*
X0080165Y0165415D02*
X0084233Y0165415D01*
X0084555Y0165807D02*
X0080165Y0165807D01*
X0080165Y0166199D02*
X0083835Y0166199D01*
X0083442Y0166591D02*
X0080165Y0166591D01*
X0080165Y0166983D02*
X0083050Y0166983D01*
X0082658Y0167376D02*
X0080165Y0167376D01*
X0080165Y0167768D02*
X0082377Y0167768D01*
X0082215Y0168160D02*
X0080165Y0168160D01*
X0080165Y0168552D02*
X0082052Y0168552D01*
X0081890Y0168944D02*
X0080165Y0168944D01*
X0080165Y0169337D02*
X0081727Y0169337D01*
X0081623Y0169729D02*
X0080165Y0169729D01*
X0080165Y0170121D02*
X0081623Y0170121D01*
X0081623Y0170513D02*
X0080165Y0170513D01*
X0080165Y0170905D02*
X0081623Y0170905D01*
X0081623Y0171298D02*
X0080165Y0171298D01*
X0080165Y0171690D02*
X0081623Y0171690D01*
X0081754Y0172082D02*
X0080165Y0172082D01*
X0080165Y0172474D02*
X0081916Y0172474D01*
X0082079Y0172867D02*
X0080165Y0172867D01*
X0080165Y0173259D02*
X0082241Y0173259D01*
X0082404Y0173651D02*
X0080165Y0173651D01*
X0080165Y0174043D02*
X0082722Y0174043D01*
X0083115Y0174435D02*
X0080165Y0174435D01*
X0080165Y0174828D02*
X0083507Y0174828D01*
X0083899Y0175220D02*
X0080165Y0175220D01*
X0080165Y0175612D02*
X0084710Y0175612D01*
X0084710Y0176396D02*
X0080165Y0176396D01*
X0080165Y0176004D02*
X0085630Y0176004D01*
X0084116Y0176789D02*
X0080165Y0176789D01*
X0080165Y0177181D02*
X0083666Y0177181D01*
X0083297Y0177573D02*
X0080165Y0177573D01*
X0080165Y0177965D02*
X0083012Y0177965D01*
X0082781Y0178358D02*
X0080165Y0178358D01*
X0080165Y0178750D02*
X0082581Y0178750D01*
X0082444Y0179142D02*
X0080165Y0179142D01*
X0080165Y0179534D02*
X0082318Y0179534D01*
X0082255Y0179926D02*
X0080165Y0179926D01*
X0080165Y0180319D02*
X0082198Y0180319D01*
X0082204Y0181103D02*
X0080165Y0181103D01*
X0080165Y0181495D02*
X0082266Y0181495D01*
X0082339Y0181887D02*
X0080165Y0181887D01*
X0080165Y0182280D02*
X0082466Y0182280D01*
X0082615Y0182672D02*
X0080165Y0182672D01*
X0080165Y0183064D02*
X0082815Y0183064D01*
X0083061Y0183456D02*
X0080165Y0183456D01*
X0080165Y0183848D02*
X0083346Y0183848D01*
X0083733Y0184241D02*
X0080165Y0184241D01*
X0080165Y0184633D02*
X0084208Y0184633D01*
X0084842Y0185025D02*
X0080165Y0185025D01*
X0080165Y0185417D02*
X0085495Y0185417D01*
X0084548Y0185810D02*
X0080165Y0185810D01*
X0080165Y0186202D02*
X0083832Y0186202D01*
X0083440Y0186594D02*
X0080165Y0186594D01*
X0080165Y0186986D02*
X0083047Y0186986D01*
X0082655Y0187378D02*
X0080165Y0187378D01*
X0080165Y0187771D02*
X0082376Y0187771D01*
X0082213Y0188163D02*
X0080165Y0188163D01*
X0080165Y0188555D02*
X0082051Y0188555D01*
X0081889Y0188947D02*
X0080165Y0188947D01*
X0080165Y0189339D02*
X0081726Y0189339D01*
X0081623Y0189732D02*
X0080165Y0189732D01*
X0080165Y0190124D02*
X0081623Y0190124D01*
X0081623Y0190516D02*
X0080165Y0190516D01*
X0080165Y0190908D02*
X0081623Y0190908D01*
X0081623Y0191301D02*
X0080165Y0191301D01*
X0080165Y0191693D02*
X0081623Y0191693D01*
X0081755Y0192085D02*
X0080165Y0192085D01*
X0080165Y0192477D02*
X0081918Y0192477D01*
X0082080Y0192869D02*
X0080165Y0192869D01*
X0080165Y0193262D02*
X0082243Y0193262D01*
X0082405Y0193654D02*
X0080165Y0193654D01*
X0080165Y0194046D02*
X0082725Y0194046D01*
X0083117Y0194438D02*
X0080165Y0194438D01*
X0080165Y0194830D02*
X0083510Y0194830D01*
X0083902Y0195223D02*
X0080165Y0195223D01*
X0080165Y0195615D02*
X0084717Y0195615D01*
X0085664Y0196007D02*
X0080165Y0196007D01*
X0080165Y0196399D02*
X0140321Y0196399D01*
X0141255Y0196007D02*
X0088525Y0196007D01*
X0089472Y0195615D02*
X0141255Y0195615D01*
X0141255Y0195223D02*
X0134714Y0195223D01*
X0135661Y0194830D02*
X0139640Y0194830D01*
X0138727Y0194438D02*
X0136407Y0194438D01*
X0136799Y0194046D02*
X0138334Y0194046D01*
X0137942Y0193654D02*
X0137192Y0193654D01*
X0138617Y0197184D02*
X0134698Y0197184D01*
X0135687Y0197576D02*
X0138224Y0197576D01*
X0137832Y0197968D02*
X0136253Y0197968D01*
X0136645Y0198360D02*
X0137487Y0198360D01*
X0137325Y0198753D02*
X0136938Y0198753D01*
X0139374Y0196791D02*
X0105357Y0196791D01*
X0104659Y0196502D02*
X0106265Y0197168D01*
X0107495Y0198398D01*
X0108161Y0200004D01*
X0108161Y0201744D01*
X0107495Y0203350D01*
X0106265Y0204580D01*
X0104659Y0205246D01*
X0097719Y0205246D01*
X0096113Y0204580D01*
X0094883Y0203350D01*
X0094217Y0201744D01*
X0094217Y0200004D01*
X0094883Y0198398D01*
X0096113Y0197168D01*
X0097719Y0196502D01*
X0104659Y0196502D01*
X0104714Y0195223D02*
X0127664Y0195223D01*
X0126717Y0194830D02*
X0105661Y0194830D01*
X0106407Y0194438D02*
X0125971Y0194438D01*
X0125579Y0194046D02*
X0106799Y0194046D01*
X0107192Y0193654D02*
X0125186Y0193654D01*
X0126790Y0197509D02*
X0127481Y0197223D01*
X0128215Y0197077D01*
X0130992Y0197077D01*
X0130992Y0200677D01*
X0124792Y0200677D01*
X0124792Y0200500D01*
X0124938Y0199767D01*
X0125224Y0199076D01*
X0125640Y0198454D01*
X0126169Y0197925D01*
X0126790Y0197509D01*
X0126691Y0197576D02*
X0106673Y0197576D01*
X0106281Y0197184D02*
X0127679Y0197184D01*
X0126125Y0197968D02*
X0107066Y0197968D01*
X0107458Y0198360D02*
X0125733Y0198360D01*
X0125440Y0198753D02*
X0107642Y0198753D01*
X0107805Y0199145D02*
X0125196Y0199145D01*
X0125033Y0199537D02*
X0107967Y0199537D01*
X0108129Y0199929D02*
X0124906Y0199929D01*
X0124828Y0200321D02*
X0108161Y0200321D01*
X0108161Y0200714D02*
X0130992Y0200714D01*
X0130992Y0201106D02*
X0131386Y0201106D01*
X0131386Y0201498D02*
X0130992Y0201498D01*
X0130992Y0201890D02*
X0131386Y0201890D01*
X0131386Y0202282D02*
X0130992Y0202282D01*
X0130992Y0202675D02*
X0131386Y0202675D01*
X0131386Y0203067D02*
X0130992Y0203067D01*
X0130992Y0203459D02*
X0131386Y0203459D01*
X0131386Y0203851D02*
X0130992Y0203851D01*
X0130992Y0204244D02*
X0131386Y0204244D01*
X0131386Y0204636D02*
X0130992Y0204636D01*
X0128038Y0204636D02*
X0106131Y0204636D01*
X0106602Y0204244D02*
X0126802Y0204244D01*
X0126211Y0203851D02*
X0106994Y0203851D01*
X0107386Y0203459D02*
X0125805Y0203459D01*
X0125488Y0203067D02*
X0107612Y0203067D01*
X0107775Y0202675D02*
X0125226Y0202675D01*
X0125063Y0202282D02*
X0107937Y0202282D01*
X0108100Y0201890D02*
X0124920Y0201890D01*
X0124842Y0201498D02*
X0108161Y0201498D01*
X0108161Y0201106D02*
X0124792Y0201106D01*
X0130992Y0200321D02*
X0131386Y0200321D01*
X0131386Y0199929D02*
X0130992Y0199929D01*
X0130992Y0199537D02*
X0131386Y0199537D01*
X0131386Y0199145D02*
X0130992Y0199145D01*
X0130992Y0198753D02*
X0131386Y0198753D01*
X0131386Y0198360D02*
X0130992Y0198360D01*
X0130992Y0197968D02*
X0131386Y0197968D01*
X0131386Y0197576D02*
X0130992Y0197576D01*
X0130992Y0197184D02*
X0131386Y0197184D01*
X0137152Y0202675D02*
X0137290Y0202675D01*
X0137452Y0203067D02*
X0136890Y0203067D01*
X0136573Y0203459D02*
X0137748Y0203459D01*
X0138140Y0203851D02*
X0136167Y0203851D01*
X0135576Y0204244D02*
X0138532Y0204244D01*
X0139170Y0204636D02*
X0134340Y0204636D01*
X0140117Y0205028D02*
X0105184Y0205028D01*
X0097194Y0205028D02*
X0080165Y0205028D01*
X0080165Y0205420D02*
X0275047Y0205420D01*
X0275047Y0205028D02*
X0147537Y0205028D01*
X0148484Y0204636D02*
X0275047Y0204636D01*
X0275047Y0204244D02*
X0177929Y0204244D01*
X0178225Y0204121D02*
X0177534Y0204407D01*
X0176801Y0204553D01*
X0174024Y0204553D01*
X0174024Y0200953D01*
X0180224Y0200953D01*
X0180224Y0201130D01*
X0180078Y0201863D01*
X0179791Y0202554D01*
X0179376Y0203176D01*
X0178847Y0203705D01*
X0178225Y0204121D01*
X0178628Y0203851D02*
X0275047Y0203851D01*
X0275047Y0203459D02*
X0179093Y0203459D01*
X0179449Y0203067D02*
X0275047Y0203067D01*
X0275047Y0202675D02*
X0179711Y0202675D01*
X0179904Y0202282D02*
X0275047Y0202282D01*
X0275047Y0201890D02*
X0180067Y0201890D01*
X0180150Y0201498D02*
X0275047Y0201498D01*
X0275047Y0201106D02*
X0180224Y0201106D01*
X0180224Y0200559D02*
X0174024Y0200559D01*
X0174024Y0200953D01*
X0173630Y0200953D01*
X0173630Y0204553D01*
X0170853Y0204553D01*
X0170119Y0204407D01*
X0169428Y0204121D01*
X0168806Y0203705D01*
X0168278Y0203176D01*
X0167862Y0202554D01*
X0167576Y0201863D01*
X0167430Y0201130D01*
X0167430Y0200953D01*
X0173630Y0200953D01*
X0173630Y0200559D01*
X0174024Y0200559D01*
X0174024Y0196959D01*
X0176801Y0196959D01*
X0177534Y0197105D01*
X0178225Y0197391D01*
X0178847Y0197807D01*
X0179376Y0198336D01*
X0179791Y0198957D01*
X0180078Y0199648D01*
X0180224Y0200382D01*
X0180224Y0200559D01*
X0180212Y0200321D02*
X0275047Y0200321D01*
X0275047Y0199929D02*
X0180134Y0199929D01*
X0180032Y0199537D02*
X0275047Y0199537D01*
X0275047Y0199145D02*
X0179869Y0199145D01*
X0179655Y0198753D02*
X0275047Y0198753D01*
X0275047Y0198360D02*
X0179393Y0198360D01*
X0179009Y0197968D02*
X0275047Y0197968D01*
X0275047Y0197576D02*
X0178502Y0197576D01*
X0177724Y0197184D02*
X0275047Y0197184D01*
X0275047Y0196791D02*
X0148280Y0196791D01*
X0149037Y0197184D02*
X0169929Y0197184D01*
X0170119Y0197105D02*
X0169428Y0197391D01*
X0168806Y0197807D01*
X0168278Y0198336D01*
X0167862Y0198957D01*
X0167576Y0199648D01*
X0167430Y0200382D01*
X0167430Y0200559D01*
X0173630Y0200559D01*
X0173630Y0196959D01*
X0170853Y0196959D01*
X0170119Y0197105D01*
X0169152Y0197576D02*
X0149429Y0197576D01*
X0149821Y0197968D02*
X0168645Y0197968D01*
X0168261Y0198360D02*
X0150166Y0198360D01*
X0150329Y0198753D02*
X0167999Y0198753D01*
X0167784Y0199145D02*
X0150491Y0199145D01*
X0150654Y0199537D02*
X0167622Y0199537D01*
X0167520Y0199929D02*
X0150798Y0199929D01*
X0150798Y0200321D02*
X0167442Y0200321D01*
X0167430Y0201106D02*
X0150798Y0201106D01*
X0150798Y0201498D02*
X0167503Y0201498D01*
X0167587Y0201890D02*
X0150689Y0201890D01*
X0150526Y0202282D02*
X0167749Y0202282D01*
X0167942Y0202675D02*
X0150364Y0202675D01*
X0150201Y0203067D02*
X0168204Y0203067D01*
X0168560Y0203459D02*
X0149906Y0203459D01*
X0149514Y0203851D02*
X0169025Y0203851D01*
X0169725Y0204244D02*
X0149122Y0204244D01*
X0150798Y0200714D02*
X0173630Y0200714D01*
X0173630Y0201106D02*
X0174024Y0201106D01*
X0174024Y0201498D02*
X0173630Y0201498D01*
X0173630Y0201890D02*
X0174024Y0201890D01*
X0174024Y0202282D02*
X0173630Y0202282D01*
X0173630Y0202675D02*
X0174024Y0202675D01*
X0174024Y0203067D02*
X0173630Y0203067D01*
X0173630Y0203459D02*
X0174024Y0203459D01*
X0174024Y0203851D02*
X0173630Y0203851D01*
X0173630Y0204244D02*
X0174024Y0204244D01*
X0174024Y0200714D02*
X0275047Y0200714D01*
X0275047Y0196399D02*
X0147333Y0196399D01*
X0146398Y0196007D02*
X0275047Y0196007D01*
X0275047Y0195615D02*
X0146398Y0195615D01*
X0146398Y0195223D02*
X0275047Y0195223D01*
X0275047Y0194830D02*
X0178014Y0194830D01*
X0177296Y0195128D02*
X0178903Y0194462D01*
X0180133Y0193232D01*
X0180798Y0191625D01*
X0180798Y0189886D01*
X0180133Y0188280D01*
X0178903Y0187050D01*
X0177296Y0186384D01*
X0170357Y0186384D01*
X0168750Y0187050D01*
X0167521Y0188280D01*
X0166855Y0189886D01*
X0166855Y0191625D01*
X0167521Y0193232D01*
X0168750Y0194462D01*
X0170357Y0195128D01*
X0177296Y0195128D01*
X0178927Y0194438D02*
X0275047Y0194438D01*
X0275047Y0194046D02*
X0179319Y0194046D01*
X0179711Y0193654D02*
X0275047Y0193654D01*
X0275047Y0193262D02*
X0180104Y0193262D01*
X0180283Y0192869D02*
X0275047Y0192869D01*
X0275047Y0192477D02*
X0180446Y0192477D01*
X0180608Y0192085D02*
X0275047Y0192085D01*
X0275047Y0191693D02*
X0180771Y0191693D01*
X0180798Y0191301D02*
X0275047Y0191301D01*
X0275047Y0190908D02*
X0180798Y0190908D01*
X0180798Y0190516D02*
X0275047Y0190516D01*
X0275047Y0190124D02*
X0180798Y0190124D01*
X0180734Y0189732D02*
X0275047Y0189732D01*
X0275047Y0189339D02*
X0180572Y0189339D01*
X0180409Y0188947D02*
X0275047Y0188947D01*
X0275047Y0188555D02*
X0180247Y0188555D01*
X0180016Y0188163D02*
X0275047Y0188163D01*
X0275047Y0187771D02*
X0179624Y0187771D01*
X0179232Y0187378D02*
X0275047Y0187378D01*
X0275047Y0186986D02*
X0178750Y0186986D01*
X0177803Y0186594D02*
X0275047Y0186594D01*
X0275047Y0186202D02*
X0160049Y0186202D01*
X0159657Y0186594D02*
X0169851Y0186594D01*
X0168904Y0186986D02*
X0159265Y0186986D01*
X0158873Y0187378D02*
X0168422Y0187378D01*
X0168030Y0187771D02*
X0158480Y0187771D01*
X0158088Y0188163D02*
X0167637Y0188163D01*
X0167407Y0188555D02*
X0157696Y0188555D01*
X0157304Y0188947D02*
X0167244Y0188947D01*
X0167082Y0189339D02*
X0156912Y0189339D01*
X0156519Y0189732D02*
X0166919Y0189732D01*
X0166855Y0190124D02*
X0156127Y0190124D01*
X0155735Y0190516D02*
X0166855Y0190516D01*
X0166855Y0190908D02*
X0155343Y0190908D01*
X0154951Y0191301D02*
X0166855Y0191301D01*
X0166883Y0191693D02*
X0154558Y0191693D01*
X0154166Y0192085D02*
X0167045Y0192085D01*
X0167208Y0192477D02*
X0153774Y0192477D01*
X0153382Y0192869D02*
X0167370Y0192869D01*
X0167550Y0193262D02*
X0152529Y0193262D01*
X0149711Y0193654D02*
X0167942Y0193654D01*
X0168334Y0194046D02*
X0149319Y0194046D01*
X0148927Y0194438D02*
X0168727Y0194438D01*
X0169640Y0194830D02*
X0148014Y0194830D01*
X0150038Y0188184D02*
X0148903Y0187050D01*
X0147296Y0186384D01*
X0140357Y0186384D01*
X0138750Y0187050D01*
X0137521Y0188280D01*
X0137511Y0188302D01*
X0137400Y0188302D01*
X0136265Y0187168D01*
X0134659Y0186502D01*
X0127719Y0186502D01*
X0126113Y0187168D01*
X0125057Y0188224D01*
X0122107Y0188224D01*
X0122107Y0178475D01*
X0126057Y0174525D01*
X0126113Y0174580D01*
X0127719Y0175246D01*
X0134659Y0175246D01*
X0136265Y0174580D01*
X0137495Y0173350D01*
X0137537Y0173249D01*
X0138750Y0174462D01*
X0140357Y0175128D01*
X0147296Y0175128D01*
X0148903Y0174462D01*
X0150133Y0173232D01*
X0150798Y0171625D01*
X0150798Y0169886D01*
X0150133Y0168280D01*
X0148903Y0167050D01*
X0147296Y0166384D01*
X0140357Y0166384D01*
X0138750Y0167050D01*
X0137521Y0168280D01*
X0137479Y0168381D01*
X0136265Y0167168D01*
X0134659Y0166502D01*
X0127719Y0166502D01*
X0126113Y0167168D01*
X0124883Y0168398D01*
X0124790Y0168621D01*
X0124614Y0168694D01*
X0118079Y0175229D01*
X0117355Y0175953D01*
X0116964Y0176898D01*
X0116964Y0188224D01*
X0111939Y0188224D01*
X0107281Y0183565D01*
X0107495Y0183350D01*
X0108161Y0181744D01*
X0108161Y0180004D01*
X0107495Y0178398D01*
X0106265Y0177168D01*
X0104659Y0176502D01*
X0097719Y0176502D01*
X0096113Y0177168D01*
X0094883Y0178398D01*
X0094217Y0180004D01*
X0094217Y0180193D01*
X0091403Y0183007D01*
X0091633Y0182557D01*
X0091871Y0181824D01*
X0091991Y0181063D01*
X0091991Y0180874D01*
X0087291Y0180874D01*
X0087291Y0180480D01*
X0091991Y0180480D01*
X0091991Y0180292D01*
X0091871Y0179530D01*
X0091633Y0178797D01*
X0091283Y0178111D01*
X0090830Y0177487D01*
X0090285Y0176942D01*
X0089661Y0176489D01*
X0088974Y0176139D01*
X0088544Y0175999D01*
X0090194Y0175316D01*
X0091733Y0173777D01*
X0092566Y0171766D01*
X0092566Y0169827D01*
X0095404Y0166989D01*
X0116897Y0166989D01*
X0117843Y0166597D01*
X0118566Y0165874D01*
X0125325Y0159115D01*
X0134614Y0159115D01*
X0135559Y0158723D01*
X0136282Y0158000D01*
X0137923Y0156359D01*
X0147998Y0156359D01*
X0151216Y0159577D01*
X0151216Y0175163D01*
X0149116Y0177263D01*
X0148903Y0177050D01*
X0147296Y0176384D01*
X0140357Y0176384D01*
X0138750Y0177050D01*
X0137521Y0178280D01*
X0137172Y0179121D01*
X0137154Y0179076D01*
X0136738Y0178454D01*
X0136209Y0177925D01*
X0135587Y0177509D01*
X0134896Y0177223D01*
X0134163Y0177077D01*
X0131386Y0177077D01*
X0131386Y0180677D01*
X0130992Y0180677D01*
X0130992Y0177077D01*
X0128215Y0177077D01*
X0127481Y0177223D01*
X0126790Y0177509D01*
X0126169Y0177925D01*
X0125640Y0178454D01*
X0125224Y0179076D01*
X0124938Y0179767D01*
X0124792Y0180500D01*
X0124792Y0180677D01*
X0130992Y0180677D01*
X0130992Y0181071D01*
X0130992Y0184671D01*
X0128215Y0184671D01*
X0127481Y0184525D01*
X0126790Y0184239D01*
X0126169Y0183823D01*
X0125640Y0183294D01*
X0125224Y0182672D01*
X0122107Y0182672D01*
X0122107Y0183064D02*
X0125486Y0183064D01*
X0125224Y0182672D02*
X0124938Y0181982D01*
X0124792Y0181248D01*
X0124792Y0181071D01*
X0130992Y0181071D01*
X0131386Y0181071D01*
X0131386Y0184671D01*
X0134163Y0184671D01*
X0134896Y0184525D01*
X0135587Y0184239D01*
X0136209Y0183823D01*
X0136738Y0183294D01*
X0137154Y0182672D01*
X0137289Y0182672D01*
X0137154Y0182672D02*
X0137221Y0182509D01*
X0137521Y0183232D01*
X0138750Y0184462D01*
X0140357Y0185128D01*
X0147296Y0185128D01*
X0148903Y0184462D01*
X0150133Y0183232D01*
X0150160Y0183167D01*
X0150717Y0182936D01*
X0155244Y0178408D01*
X0155968Y0177685D01*
X0156359Y0176740D01*
X0156359Y0158000D01*
X0155968Y0157055D01*
X0151243Y0152331D01*
X0150520Y0151607D01*
X0149575Y0151216D01*
X0136347Y0151216D01*
X0135402Y0151607D01*
X0133037Y0153972D01*
X0123748Y0153972D01*
X0122803Y0154363D01*
X0115321Y0161846D01*
X0093827Y0161846D01*
X0092882Y0162237D01*
X0092009Y0163110D01*
X0092566Y0161766D01*
X0092566Y0159589D01*
X0091733Y0157578D01*
X0090194Y0156039D01*
X0089322Y0155677D01*
X0090194Y0155316D01*
X0091733Y0153777D01*
X0091952Y0153249D01*
X0132212Y0153249D01*
X0133158Y0152857D01*
X0135168Y0150847D01*
X0145244Y0150847D01*
X0146189Y0150456D01*
X0151703Y0144942D01*
X0152565Y0144942D01*
X0153945Y0144370D01*
X0155000Y0143315D01*
X0155572Y0141935D01*
X0155572Y0140442D01*
X0155000Y0139063D01*
X0153945Y0138008D01*
X0152565Y0137436D01*
X0151072Y0137436D01*
X0149693Y0138008D01*
X0148637Y0139063D01*
X0148066Y0140442D01*
X0148066Y0141305D01*
X0143667Y0145704D01*
X0133591Y0145704D01*
X0132646Y0146095D01*
X0131922Y0146819D01*
X0130636Y0148106D01*
X0091952Y0148106D01*
X0091733Y0147578D01*
X0090194Y0146039D01*
X0089322Y0145677D01*
X0090194Y0145316D01*
X0091733Y0143777D01*
X0091952Y0143249D01*
X0133650Y0143249D01*
X0133677Y0143315D01*
X0134732Y0144370D01*
X0136112Y0144942D01*
X0137605Y0144942D01*
X0138984Y0144370D01*
X0140040Y0143315D01*
X0140611Y0141935D01*
X0140611Y0140442D01*
X0140040Y0139063D01*
X0138984Y0138008D01*
X0137605Y0137436D01*
X0136112Y0137436D01*
X0134732Y0138008D01*
X0134635Y0138106D01*
X0091952Y0138106D01*
X0091733Y0137578D01*
X0091014Y0136858D01*
X0180305Y0136858D01*
X0180231Y0136987D01*
X0180150Y0137291D01*
X0180150Y0139417D01*
X0187055Y0139417D01*
X0187055Y0139811D01*
X0180150Y0139811D01*
X0180150Y0141937D01*
X0180173Y0142023D01*
X0179575Y0142620D01*
X0179575Y0142948D01*
X0178079Y0142948D01*
X0177134Y0143340D01*
X0176410Y0144063D01*
X0171647Y0148827D01*
X0171255Y0149772D01*
X0171255Y0156384D01*
X0170357Y0156384D01*
X0168750Y0157050D01*
X0167892Y0157909D01*
X0165481Y0157909D01*
X0164535Y0158300D01*
X0163812Y0159024D01*
X0159875Y0162961D01*
X0159483Y0163906D01*
X0159483Y0179494D01*
X0150793Y0188184D01*
X0150038Y0188184D01*
X0150016Y0188163D02*
X0150814Y0188163D01*
X0151207Y0187771D02*
X0149624Y0187771D01*
X0149232Y0187378D02*
X0151599Y0187378D01*
X0151991Y0186986D02*
X0148750Y0186986D01*
X0147803Y0186594D02*
X0152383Y0186594D01*
X0152776Y0186202D02*
X0122107Y0186202D01*
X0122107Y0186594D02*
X0127498Y0186594D01*
X0126551Y0186986D02*
X0122107Y0186986D01*
X0122107Y0187378D02*
X0125902Y0187378D01*
X0125510Y0187771D02*
X0122107Y0187771D01*
X0122107Y0188163D02*
X0125118Y0188163D01*
X0122107Y0185810D02*
X0153168Y0185810D01*
X0153560Y0185417D02*
X0122107Y0185417D01*
X0122107Y0185025D02*
X0140110Y0185025D01*
X0139163Y0184633D02*
X0134354Y0184633D01*
X0135583Y0184241D02*
X0138529Y0184241D01*
X0138137Y0183848D02*
X0136171Y0183848D01*
X0136576Y0183456D02*
X0137745Y0183456D01*
X0137451Y0183064D02*
X0136892Y0183064D01*
X0134880Y0186594D02*
X0139851Y0186594D01*
X0138904Y0186986D02*
X0135827Y0186986D01*
X0136476Y0187378D02*
X0138422Y0187378D01*
X0138030Y0187771D02*
X0136868Y0187771D01*
X0137260Y0188163D02*
X0137637Y0188163D01*
X0131386Y0184633D02*
X0130992Y0184633D01*
X0130992Y0184241D02*
X0131386Y0184241D01*
X0131386Y0183848D02*
X0130992Y0183848D01*
X0130992Y0183456D02*
X0131386Y0183456D01*
X0131386Y0183064D02*
X0130992Y0183064D01*
X0130992Y0182672D02*
X0131386Y0182672D01*
X0131386Y0182280D02*
X0130992Y0182280D01*
X0130992Y0181887D02*
X0131386Y0181887D01*
X0131386Y0181495D02*
X0130992Y0181495D01*
X0130992Y0181103D02*
X0131386Y0181103D01*
X0130992Y0180711D02*
X0122107Y0180711D01*
X0122107Y0181103D02*
X0124792Y0181103D01*
X0124841Y0181495D02*
X0122107Y0181495D01*
X0122107Y0181887D02*
X0124919Y0181887D01*
X0125062Y0182280D02*
X0122107Y0182280D01*
X0122107Y0183456D02*
X0125802Y0183456D01*
X0126206Y0183848D02*
X0122107Y0183848D01*
X0122107Y0184241D02*
X0126795Y0184241D01*
X0128024Y0184633D02*
X0122107Y0184633D01*
X0122107Y0180319D02*
X0124828Y0180319D01*
X0124906Y0179926D02*
X0122107Y0179926D01*
X0122107Y0179534D02*
X0125034Y0179534D01*
X0125197Y0179142D02*
X0122107Y0179142D01*
X0122107Y0178750D02*
X0125442Y0178750D01*
X0125736Y0178358D02*
X0122224Y0178358D01*
X0122616Y0177965D02*
X0126128Y0177965D01*
X0126695Y0177573D02*
X0123009Y0177573D01*
X0123401Y0177181D02*
X0127694Y0177181D01*
X0127657Y0175220D02*
X0125362Y0175220D01*
X0124970Y0175612D02*
X0150767Y0175612D01*
X0151159Y0175220D02*
X0134721Y0175220D01*
X0135668Y0174828D02*
X0139633Y0174828D01*
X0138724Y0174435D02*
X0136410Y0174435D01*
X0136802Y0174043D02*
X0138332Y0174043D01*
X0137939Y0173651D02*
X0137194Y0173651D01*
X0137533Y0173259D02*
X0137547Y0173259D01*
X0139381Y0176789D02*
X0123793Y0176789D01*
X0124185Y0176396D02*
X0140328Y0176396D01*
X0138619Y0177181D02*
X0134684Y0177181D01*
X0135683Y0177573D02*
X0138227Y0177573D01*
X0137835Y0177965D02*
X0136250Y0177965D01*
X0136642Y0178358D02*
X0137488Y0178358D01*
X0137326Y0178750D02*
X0136936Y0178750D01*
X0131386Y0178750D02*
X0130992Y0178750D01*
X0130992Y0179142D02*
X0131386Y0179142D01*
X0131386Y0179534D02*
X0130992Y0179534D01*
X0130992Y0179926D02*
X0131386Y0179926D01*
X0131386Y0180319D02*
X0130992Y0180319D01*
X0130992Y0178358D02*
X0131386Y0178358D01*
X0131386Y0177965D02*
X0130992Y0177965D01*
X0130992Y0177573D02*
X0131386Y0177573D01*
X0131386Y0177181D02*
X0130992Y0177181D01*
X0126710Y0174828D02*
X0125754Y0174828D01*
X0124577Y0176004D02*
X0150375Y0176004D01*
X0149982Y0176396D02*
X0147326Y0176396D01*
X0148273Y0176789D02*
X0149590Y0176789D01*
X0149198Y0177181D02*
X0149034Y0177181D01*
X0148020Y0174828D02*
X0151216Y0174828D01*
X0151216Y0174435D02*
X0148930Y0174435D01*
X0149322Y0174043D02*
X0151216Y0174043D01*
X0151216Y0173651D02*
X0149714Y0173651D01*
X0150106Y0173259D02*
X0151216Y0173259D01*
X0151216Y0172867D02*
X0150284Y0172867D01*
X0150447Y0172474D02*
X0151216Y0172474D01*
X0151216Y0172082D02*
X0150609Y0172082D01*
X0150772Y0171690D02*
X0151216Y0171690D01*
X0151216Y0171298D02*
X0150798Y0171298D01*
X0150798Y0170905D02*
X0151216Y0170905D01*
X0151216Y0170513D02*
X0150798Y0170513D01*
X0150798Y0170121D02*
X0151216Y0170121D01*
X0151216Y0169729D02*
X0150733Y0169729D01*
X0150571Y0169337D02*
X0151216Y0169337D01*
X0151216Y0168944D02*
X0150408Y0168944D01*
X0150246Y0168552D02*
X0151216Y0168552D01*
X0151216Y0168160D02*
X0150013Y0168160D01*
X0149621Y0167768D02*
X0151216Y0167768D01*
X0151216Y0167376D02*
X0149229Y0167376D01*
X0148743Y0166983D02*
X0151216Y0166983D01*
X0151216Y0166591D02*
X0147796Y0166591D01*
X0147534Y0164407D02*
X0146801Y0164553D01*
X0144024Y0164553D01*
X0144024Y0160953D01*
X0150224Y0160953D01*
X0150224Y0161130D01*
X0150078Y0161863D01*
X0149791Y0162554D01*
X0149376Y0163176D01*
X0148847Y0163705D01*
X0148225Y0164121D01*
X0147534Y0164407D01*
X0147942Y0164238D02*
X0151216Y0164238D01*
X0151216Y0164630D02*
X0119810Y0164630D01*
X0120202Y0164238D02*
X0139711Y0164238D01*
X0139428Y0164121D02*
X0138806Y0163705D01*
X0138278Y0163176D01*
X0137862Y0162554D01*
X0137576Y0161863D01*
X0137430Y0161130D01*
X0137430Y0160953D01*
X0143630Y0160953D01*
X0143630Y0164553D01*
X0140853Y0164553D01*
X0140119Y0164407D01*
X0139428Y0164121D01*
X0139017Y0163846D02*
X0120594Y0163846D01*
X0120987Y0163453D02*
X0138555Y0163453D01*
X0138201Y0163061D02*
X0121379Y0163061D01*
X0121771Y0162669D02*
X0137939Y0162669D01*
X0137747Y0162277D02*
X0122163Y0162277D01*
X0122555Y0161885D02*
X0137585Y0161885D01*
X0137502Y0161492D02*
X0122948Y0161492D01*
X0123340Y0161100D02*
X0137430Y0161100D01*
X0137430Y0160559D02*
X0137430Y0160382D01*
X0137576Y0159648D01*
X0137862Y0158957D01*
X0138278Y0158336D01*
X0138806Y0157807D01*
X0139428Y0157391D01*
X0140119Y0157105D01*
X0140853Y0156959D01*
X0143630Y0156959D01*
X0143630Y0160559D01*
X0144024Y0160559D01*
X0144024Y0160953D01*
X0143630Y0160953D01*
X0143630Y0160559D01*
X0137430Y0160559D01*
X0137443Y0160316D02*
X0124124Y0160316D01*
X0123732Y0160708D02*
X0143630Y0160708D01*
X0143630Y0161100D02*
X0144024Y0161100D01*
X0144024Y0160708D02*
X0151216Y0160708D01*
X0151216Y0161100D02*
X0150224Y0161100D01*
X0150152Y0161492D02*
X0151216Y0161492D01*
X0151216Y0161885D02*
X0150069Y0161885D01*
X0149906Y0162277D02*
X0151216Y0162277D01*
X0151216Y0162669D02*
X0149715Y0162669D01*
X0149453Y0163061D02*
X0151216Y0163061D01*
X0151216Y0163453D02*
X0149099Y0163453D01*
X0148637Y0163846D02*
X0151216Y0163846D01*
X0151216Y0165022D02*
X0119418Y0165022D01*
X0119025Y0165415D02*
X0151216Y0165415D01*
X0151216Y0165807D02*
X0118633Y0165807D01*
X0118241Y0166199D02*
X0151216Y0166199D01*
X0156359Y0166199D02*
X0159483Y0166199D01*
X0159483Y0166591D02*
X0156359Y0166591D01*
X0156359Y0166983D02*
X0159483Y0166983D01*
X0159483Y0167376D02*
X0156359Y0167376D01*
X0156359Y0167768D02*
X0159483Y0167768D01*
X0159483Y0168160D02*
X0156359Y0168160D01*
X0156359Y0168552D02*
X0159483Y0168552D01*
X0159483Y0168944D02*
X0156359Y0168944D01*
X0156359Y0169337D02*
X0159483Y0169337D01*
X0159483Y0169729D02*
X0156359Y0169729D01*
X0156359Y0170121D02*
X0159483Y0170121D01*
X0159483Y0170513D02*
X0156359Y0170513D01*
X0156359Y0170905D02*
X0159483Y0170905D01*
X0159483Y0171298D02*
X0156359Y0171298D01*
X0156359Y0171690D02*
X0159483Y0171690D01*
X0159483Y0172082D02*
X0156359Y0172082D01*
X0156359Y0172474D02*
X0159483Y0172474D01*
X0159483Y0172867D02*
X0156359Y0172867D01*
X0156359Y0173259D02*
X0159483Y0173259D01*
X0159483Y0173651D02*
X0156359Y0173651D01*
X0156359Y0174043D02*
X0159483Y0174043D01*
X0159483Y0174435D02*
X0156359Y0174435D01*
X0156359Y0174828D02*
X0159483Y0174828D01*
X0159483Y0175220D02*
X0156359Y0175220D01*
X0156359Y0175612D02*
X0159483Y0175612D01*
X0159483Y0176004D02*
X0156359Y0176004D01*
X0156359Y0176396D02*
X0159483Y0176396D01*
X0159483Y0176789D02*
X0156339Y0176789D01*
X0156176Y0177181D02*
X0159483Y0177181D01*
X0159483Y0177573D02*
X0156014Y0177573D01*
X0155687Y0177965D02*
X0159483Y0177965D01*
X0159483Y0178358D02*
X0155295Y0178358D01*
X0154903Y0178750D02*
X0159483Y0178750D01*
X0159483Y0179142D02*
X0154511Y0179142D01*
X0154118Y0179534D02*
X0159443Y0179534D01*
X0159051Y0179926D02*
X0153726Y0179926D01*
X0153334Y0180319D02*
X0158659Y0180319D01*
X0158267Y0180711D02*
X0152942Y0180711D01*
X0152550Y0181103D02*
X0157874Y0181103D01*
X0157482Y0181495D02*
X0152157Y0181495D01*
X0151765Y0181887D02*
X0157090Y0181887D01*
X0156698Y0182280D02*
X0151373Y0182280D01*
X0150981Y0182672D02*
X0156305Y0182672D01*
X0155913Y0183064D02*
X0150407Y0183064D01*
X0149909Y0183456D02*
X0155521Y0183456D01*
X0155129Y0183848D02*
X0149517Y0183848D01*
X0149124Y0184241D02*
X0154737Y0184241D01*
X0154344Y0184633D02*
X0148491Y0184633D01*
X0147544Y0185025D02*
X0153952Y0185025D01*
X0160441Y0185810D02*
X0275047Y0185810D01*
X0275047Y0185417D02*
X0160834Y0185417D01*
X0161226Y0185025D02*
X0170110Y0185025D01*
X0170357Y0185128D02*
X0168750Y0184462D01*
X0167521Y0183232D01*
X0166855Y0181625D01*
X0166855Y0179886D01*
X0167521Y0178280D01*
X0168750Y0177050D01*
X0170357Y0176384D01*
X0177296Y0176384D01*
X0178787Y0177002D01*
X0178787Y0174510D01*
X0177296Y0175128D01*
X0170357Y0175128D01*
X0168750Y0174462D01*
X0167521Y0173232D01*
X0166855Y0171625D01*
X0166855Y0169886D01*
X0167521Y0168280D01*
X0168750Y0167050D01*
X0170357Y0166384D01*
X0177296Y0166384D01*
X0178903Y0167050D01*
X0180133Y0168280D01*
X0180735Y0169732D01*
X0189167Y0169732D01*
X0190205Y0170770D01*
X0190205Y0180112D01*
X0189167Y0181150D01*
X0180798Y0181150D01*
X0180798Y0181625D01*
X0180133Y0183232D01*
X0178903Y0184462D01*
X0177296Y0185128D01*
X0170357Y0185128D01*
X0169163Y0184633D02*
X0161618Y0184633D01*
X0162010Y0184241D02*
X0168529Y0184241D01*
X0168137Y0183848D02*
X0162403Y0183848D01*
X0162795Y0183456D02*
X0167745Y0183456D01*
X0167451Y0183064D02*
X0163187Y0183064D01*
X0163579Y0182672D02*
X0167289Y0182672D01*
X0167126Y0182280D02*
X0163971Y0182280D01*
X0164288Y0181887D02*
X0166964Y0181887D01*
X0166855Y0181495D02*
X0164451Y0181495D01*
X0164613Y0181103D02*
X0166855Y0181103D01*
X0166855Y0180711D02*
X0164627Y0180711D01*
X0164627Y0180319D02*
X0166855Y0180319D01*
X0166855Y0179926D02*
X0164627Y0179926D01*
X0164627Y0179534D02*
X0167001Y0179534D01*
X0167163Y0179142D02*
X0164627Y0179142D01*
X0164627Y0178750D02*
X0167326Y0178750D01*
X0167488Y0178358D02*
X0164627Y0178358D01*
X0164627Y0177965D02*
X0167835Y0177965D01*
X0168227Y0177573D02*
X0164627Y0177573D01*
X0164627Y0177181D02*
X0168619Y0177181D01*
X0169381Y0176789D02*
X0164627Y0176789D01*
X0164627Y0176396D02*
X0170328Y0176396D01*
X0169633Y0174828D02*
X0164627Y0174828D01*
X0164627Y0175220D02*
X0178787Y0175220D01*
X0178787Y0175612D02*
X0164627Y0175612D01*
X0164627Y0176004D02*
X0178787Y0176004D01*
X0178787Y0176396D02*
X0177326Y0176396D01*
X0178273Y0176789D02*
X0178787Y0176789D01*
X0178787Y0174828D02*
X0178020Y0174828D01*
X0180733Y0169729D02*
X0196311Y0169729D01*
X0195919Y0169337D02*
X0180571Y0169337D01*
X0180408Y0168944D02*
X0195527Y0168944D01*
X0195342Y0168552D02*
X0180246Y0168552D01*
X0180013Y0168160D02*
X0195179Y0168160D01*
X0195017Y0167768D02*
X0179621Y0167768D01*
X0179229Y0167376D02*
X0194917Y0167376D01*
X0194917Y0166983D02*
X0194081Y0166983D01*
X0194473Y0166591D02*
X0194844Y0166591D01*
X0196930Y0170121D02*
X0189556Y0170121D01*
X0189948Y0170513D02*
X0197877Y0170513D01*
X0199462Y0170513D02*
X0265008Y0170513D01*
X0265008Y0170121D02*
X0200409Y0170121D01*
X0201027Y0169729D02*
X0265262Y0169729D01*
X0265654Y0169337D02*
X0201419Y0169337D01*
X0201812Y0168944D02*
X0275047Y0168944D01*
X0275047Y0168552D02*
X0201997Y0168552D01*
X0202159Y0168160D02*
X0275047Y0168160D01*
X0275047Y0167768D02*
X0202322Y0167768D01*
X0202422Y0167376D02*
X0275047Y0167376D01*
X0275047Y0166983D02*
X0202422Y0166983D01*
X0202422Y0166591D02*
X0275047Y0166591D01*
X0275047Y0166199D02*
X0202422Y0166199D01*
X0202328Y0165807D02*
X0275047Y0165807D01*
X0275047Y0165415D02*
X0202166Y0165415D01*
X0202003Y0165022D02*
X0275047Y0165022D01*
X0275047Y0164630D02*
X0201827Y0164630D01*
X0201435Y0164238D02*
X0275047Y0164238D01*
X0275047Y0163846D02*
X0201043Y0163846D01*
X0200446Y0163453D02*
X0275047Y0163453D01*
X0275047Y0163061D02*
X0199499Y0163061D01*
X0198196Y0162669D02*
X0275047Y0162669D01*
X0275047Y0162277D02*
X0197803Y0162277D01*
X0197411Y0161885D02*
X0275047Y0161885D01*
X0275047Y0161492D02*
X0197019Y0161492D01*
X0196627Y0161100D02*
X0275047Y0161100D01*
X0275047Y0160708D02*
X0203866Y0160708D01*
X0204535Y0160316D02*
X0275047Y0160316D01*
X0275047Y0159924D02*
X0204927Y0159924D01*
X0205319Y0159531D02*
X0275047Y0159531D01*
X0275047Y0159139D02*
X0205525Y0159139D01*
X0205688Y0158747D02*
X0275047Y0158747D01*
X0275047Y0158355D02*
X0205850Y0158355D01*
X0205965Y0157962D02*
X0275047Y0157962D01*
X0275047Y0157570D02*
X0205965Y0157570D01*
X0205965Y0157178D02*
X0275047Y0157178D01*
X0275047Y0156786D02*
X0205965Y0156786D01*
X0205886Y0156394D02*
X0275047Y0156394D01*
X0265701Y0156001D02*
X0205724Y0156001D01*
X0205561Y0155609D02*
X0265308Y0155609D01*
X0265008Y0155217D02*
X0205399Y0155217D01*
X0205014Y0154825D02*
X0265008Y0154825D01*
X0265008Y0154433D02*
X0204622Y0154433D01*
X0204075Y0154040D02*
X0265008Y0154040D01*
X0265008Y0153648D02*
X0203129Y0153648D01*
X0201297Y0153648D02*
X0194929Y0153648D01*
X0194929Y0153256D02*
X0265008Y0153256D01*
X0265008Y0152864D02*
X0194929Y0152864D01*
X0194929Y0152472D02*
X0265008Y0152472D01*
X0265008Y0152079D02*
X0194929Y0152079D01*
X0194929Y0151687D02*
X0265008Y0151687D01*
X0265008Y0151295D02*
X0194929Y0151295D01*
X0194929Y0150903D02*
X0265008Y0150903D01*
X0265008Y0150510D02*
X0194929Y0150510D01*
X0194929Y0150118D02*
X0265008Y0150118D01*
X0265008Y0149726D02*
X0194929Y0149726D01*
X0194929Y0149334D02*
X0265008Y0149334D01*
X0265008Y0148942D02*
X0194929Y0148942D01*
X0194929Y0148549D02*
X0265008Y0148549D01*
X0265008Y0148157D02*
X0194929Y0148157D01*
X0194929Y0147765D02*
X0265008Y0147765D01*
X0265008Y0147373D02*
X0194929Y0147373D01*
X0194929Y0146981D02*
X0265008Y0146981D01*
X0265008Y0146588D02*
X0194929Y0146588D01*
X0194929Y0146196D02*
X0265008Y0146196D01*
X0265171Y0145804D02*
X0194929Y0145804D01*
X0194929Y0145412D02*
X0265563Y0145412D01*
X0265955Y0145019D02*
X0194929Y0145019D01*
X0194929Y0144627D02*
X0275047Y0144627D01*
X0275047Y0144235D02*
X0194929Y0144235D01*
X0194929Y0143843D02*
X0275047Y0143843D01*
X0275047Y0143451D02*
X0194929Y0143451D01*
X0194929Y0143058D02*
X0275047Y0143058D01*
X0275047Y0142666D02*
X0194929Y0142666D01*
X0194583Y0142274D02*
X0275047Y0142274D01*
X0275047Y0141882D02*
X0194354Y0141882D01*
X0194354Y0141490D02*
X0275047Y0141490D01*
X0275047Y0141097D02*
X0194354Y0141097D01*
X0194354Y0140705D02*
X0275047Y0140705D01*
X0275047Y0140313D02*
X0194354Y0140313D01*
X0194354Y0139921D02*
X0275047Y0139921D01*
X0275047Y0139529D02*
X0187449Y0139529D01*
X0187055Y0139529D02*
X0155193Y0139529D01*
X0155356Y0139921D02*
X0180150Y0139921D01*
X0180150Y0140313D02*
X0155518Y0140313D01*
X0155572Y0140705D02*
X0180150Y0140705D01*
X0180150Y0141097D02*
X0155572Y0141097D01*
X0155572Y0141490D02*
X0180150Y0141490D01*
X0180150Y0141882D02*
X0155572Y0141882D01*
X0155431Y0142274D02*
X0179921Y0142274D01*
X0179575Y0142666D02*
X0155269Y0142666D01*
X0155106Y0143058D02*
X0177812Y0143058D01*
X0177023Y0143451D02*
X0154864Y0143451D01*
X0154472Y0143843D02*
X0176631Y0143843D01*
X0176238Y0144235D02*
X0154080Y0144235D01*
X0153325Y0144627D02*
X0175846Y0144627D01*
X0175454Y0145019D02*
X0151625Y0145019D01*
X0151233Y0145412D02*
X0175062Y0145412D01*
X0174669Y0145804D02*
X0150841Y0145804D01*
X0150449Y0146196D02*
X0174277Y0146196D01*
X0173885Y0146588D02*
X0150056Y0146588D01*
X0149664Y0146981D02*
X0173493Y0146981D01*
X0173101Y0147373D02*
X0149272Y0147373D01*
X0148880Y0147765D02*
X0172708Y0147765D01*
X0172316Y0148157D02*
X0148488Y0148157D01*
X0148095Y0148549D02*
X0171924Y0148549D01*
X0171599Y0148942D02*
X0147703Y0148942D01*
X0147311Y0149334D02*
X0171437Y0149334D01*
X0171274Y0149726D02*
X0146919Y0149726D01*
X0146526Y0150118D02*
X0171255Y0150118D01*
X0171255Y0150510D02*
X0146057Y0150510D01*
X0143959Y0145412D02*
X0089962Y0145412D01*
X0089627Y0145804D02*
X0133349Y0145804D01*
X0132545Y0146196D02*
X0090352Y0146196D01*
X0090744Y0146588D02*
X0132153Y0146588D01*
X0131761Y0146981D02*
X0091136Y0146981D01*
X0091528Y0147373D02*
X0131368Y0147373D01*
X0130976Y0147765D02*
X0091811Y0147765D01*
X0090490Y0145019D02*
X0144352Y0145019D01*
X0144744Y0144627D02*
X0138364Y0144627D01*
X0139119Y0144235D02*
X0145136Y0144235D01*
X0145528Y0143843D02*
X0139512Y0143843D01*
X0139904Y0143451D02*
X0145920Y0143451D01*
X0146313Y0143058D02*
X0140146Y0143058D01*
X0140308Y0142666D02*
X0146705Y0142666D01*
X0147097Y0142274D02*
X0140471Y0142274D01*
X0140611Y0141882D02*
X0147489Y0141882D01*
X0147881Y0141490D02*
X0140611Y0141490D01*
X0140611Y0141097D02*
X0148066Y0141097D01*
X0148066Y0140705D02*
X0140611Y0140705D01*
X0140557Y0140313D02*
X0148120Y0140313D01*
X0148282Y0139921D02*
X0140395Y0139921D01*
X0140232Y0139529D02*
X0148445Y0139529D01*
X0148607Y0139136D02*
X0140070Y0139136D01*
X0139721Y0138744D02*
X0148957Y0138744D01*
X0149349Y0138352D02*
X0139328Y0138352D01*
X0138868Y0137960D02*
X0149809Y0137960D01*
X0150756Y0137567D02*
X0137922Y0137567D01*
X0135795Y0137567D02*
X0091723Y0137567D01*
X0091891Y0137960D02*
X0134848Y0137960D01*
X0133813Y0143451D02*
X0091868Y0143451D01*
X0091667Y0143843D02*
X0134205Y0143843D01*
X0134597Y0144235D02*
X0091275Y0144235D01*
X0090882Y0144627D02*
X0135353Y0144627D01*
X0135112Y0150903D02*
X0171255Y0150903D01*
X0171255Y0151295D02*
X0149766Y0151295D01*
X0150600Y0151687D02*
X0171255Y0151687D01*
X0171255Y0152079D02*
X0150992Y0152079D01*
X0151384Y0152472D02*
X0171255Y0152472D01*
X0171255Y0152864D02*
X0151776Y0152864D01*
X0152168Y0153256D02*
X0171255Y0153256D01*
X0171255Y0153648D02*
X0152561Y0153648D01*
X0152953Y0154040D02*
X0171255Y0154040D01*
X0171255Y0154433D02*
X0153345Y0154433D01*
X0153737Y0154825D02*
X0171255Y0154825D01*
X0171255Y0155217D02*
X0154129Y0155217D01*
X0154522Y0155609D02*
X0171255Y0155609D01*
X0171255Y0156001D02*
X0154914Y0156001D01*
X0155306Y0156394D02*
X0170335Y0156394D01*
X0169388Y0156786D02*
X0155698Y0156786D01*
X0156018Y0157178D02*
X0168622Y0157178D01*
X0168230Y0157570D02*
X0156181Y0157570D01*
X0156343Y0157962D02*
X0165351Y0157962D01*
X0164481Y0158355D02*
X0156359Y0158355D01*
X0156359Y0158747D02*
X0164089Y0158747D01*
X0163696Y0159139D02*
X0156359Y0159139D01*
X0156359Y0159531D02*
X0163304Y0159531D01*
X0162912Y0159924D02*
X0156359Y0159924D01*
X0156359Y0160316D02*
X0162520Y0160316D01*
X0162128Y0160708D02*
X0156359Y0160708D01*
X0156359Y0161100D02*
X0161735Y0161100D01*
X0161343Y0161492D02*
X0156359Y0161492D01*
X0156359Y0161885D02*
X0160951Y0161885D01*
X0160559Y0162277D02*
X0156359Y0162277D01*
X0156359Y0162669D02*
X0160167Y0162669D01*
X0159833Y0163061D02*
X0156359Y0163061D01*
X0156359Y0163453D02*
X0159671Y0163453D01*
X0159508Y0163846D02*
X0156359Y0163846D01*
X0156359Y0164238D02*
X0159483Y0164238D01*
X0159483Y0164630D02*
X0156359Y0164630D01*
X0156359Y0165022D02*
X0159483Y0165022D01*
X0159483Y0165415D02*
X0156359Y0165415D01*
X0156359Y0165807D02*
X0159483Y0165807D01*
X0164627Y0165807D02*
X0179575Y0165807D01*
X0179575Y0165415D02*
X0164695Y0165415D01*
X0165087Y0165022D02*
X0170103Y0165022D01*
X0169156Y0164630D02*
X0165479Y0164630D01*
X0165871Y0164238D02*
X0168526Y0164238D01*
X0168134Y0163846D02*
X0166264Y0163846D01*
X0166656Y0163453D02*
X0167742Y0163453D01*
X0167450Y0163061D02*
X0167048Y0163061D01*
X0164627Y0166199D02*
X0179638Y0166199D01*
X0180031Y0166591D02*
X0177796Y0166591D01*
X0178743Y0166983D02*
X0180423Y0166983D01*
X0179575Y0165022D02*
X0177550Y0165022D01*
X0178497Y0164630D02*
X0179575Y0164630D01*
X0179575Y0164238D02*
X0179127Y0164238D01*
X0179519Y0163846D02*
X0179575Y0163846D01*
X0179575Y0157721D02*
X0179575Y0154432D01*
X0179628Y0154378D01*
X0179575Y0154324D01*
X0179575Y0148526D01*
X0179628Y0148472D01*
X0179575Y0148419D01*
X0179575Y0148172D01*
X0176398Y0151349D01*
X0176398Y0156384D01*
X0177296Y0156384D01*
X0178903Y0157050D01*
X0179575Y0157721D01*
X0179575Y0157570D02*
X0179424Y0157570D01*
X0179575Y0157178D02*
X0179031Y0157178D01*
X0179575Y0156786D02*
X0178266Y0156786D01*
X0177319Y0156394D02*
X0179575Y0156394D01*
X0179575Y0156001D02*
X0176398Y0156001D01*
X0176398Y0155609D02*
X0179575Y0155609D01*
X0179575Y0155217D02*
X0176398Y0155217D01*
X0176398Y0154825D02*
X0179575Y0154825D01*
X0179575Y0154433D02*
X0176398Y0154433D01*
X0176398Y0154040D02*
X0179575Y0154040D01*
X0179575Y0153648D02*
X0176398Y0153648D01*
X0176398Y0153256D02*
X0179575Y0153256D01*
X0179575Y0152864D02*
X0176398Y0152864D01*
X0176398Y0152472D02*
X0179575Y0152472D01*
X0179575Y0152079D02*
X0176398Y0152079D01*
X0176398Y0151687D02*
X0179575Y0151687D01*
X0179575Y0151295D02*
X0176452Y0151295D01*
X0176844Y0150903D02*
X0179575Y0150903D01*
X0179575Y0150510D02*
X0177237Y0150510D01*
X0177629Y0150118D02*
X0179575Y0150118D01*
X0179575Y0149726D02*
X0178021Y0149726D01*
X0178413Y0149334D02*
X0179575Y0149334D01*
X0179575Y0148942D02*
X0178805Y0148942D01*
X0179198Y0148549D02*
X0179575Y0148549D01*
X0180150Y0139136D02*
X0155031Y0139136D01*
X0154681Y0138744D02*
X0180150Y0138744D01*
X0180150Y0138352D02*
X0154289Y0138352D01*
X0153829Y0137960D02*
X0180150Y0137960D01*
X0180150Y0137567D02*
X0152882Y0137567D01*
X0136156Y0151295D02*
X0134720Y0151295D01*
X0134328Y0151687D02*
X0135322Y0151687D01*
X0134929Y0152079D02*
X0133935Y0152079D01*
X0133543Y0152472D02*
X0134537Y0152472D01*
X0134145Y0152864D02*
X0133142Y0152864D01*
X0133753Y0153256D02*
X0091949Y0153256D01*
X0091786Y0153648D02*
X0133361Y0153648D01*
X0137104Y0157178D02*
X0139943Y0157178D01*
X0139160Y0157570D02*
X0136712Y0157570D01*
X0136320Y0157962D02*
X0138651Y0157962D01*
X0138265Y0158355D02*
X0135928Y0158355D01*
X0135502Y0158747D02*
X0138003Y0158747D01*
X0137787Y0159139D02*
X0125301Y0159139D01*
X0124909Y0159531D02*
X0137624Y0159531D01*
X0137521Y0159924D02*
X0124516Y0159924D01*
X0120773Y0156394D02*
X0090549Y0156394D01*
X0090941Y0156786D02*
X0120380Y0156786D01*
X0119988Y0157178D02*
X0091333Y0157178D01*
X0091726Y0157570D02*
X0119596Y0157570D01*
X0119204Y0157962D02*
X0091892Y0157962D01*
X0092055Y0158355D02*
X0118812Y0158355D01*
X0118419Y0158747D02*
X0092217Y0158747D01*
X0092380Y0159139D02*
X0118027Y0159139D01*
X0117635Y0159531D02*
X0092542Y0159531D01*
X0092566Y0159924D02*
X0117243Y0159924D01*
X0116851Y0160316D02*
X0092566Y0160316D01*
X0092566Y0160708D02*
X0116458Y0160708D01*
X0116066Y0161100D02*
X0092566Y0161100D01*
X0092566Y0161492D02*
X0115674Y0161492D01*
X0121165Y0156001D02*
X0090104Y0156001D01*
X0089486Y0155609D02*
X0121557Y0155609D01*
X0121949Y0155217D02*
X0090293Y0155217D01*
X0090685Y0154825D02*
X0122341Y0154825D01*
X0122734Y0154433D02*
X0091077Y0154433D01*
X0091469Y0154040D02*
X0123582Y0154040D01*
X0127505Y0166591D02*
X0117849Y0166591D01*
X0116911Y0166983D02*
X0126558Y0166983D01*
X0125905Y0167376D02*
X0105265Y0167376D01*
X0105587Y0167509D02*
X0104896Y0167223D01*
X0104163Y0167077D01*
X0101386Y0167077D01*
X0101386Y0170677D01*
X0101386Y0171071D01*
X0107586Y0171071D01*
X0107586Y0171248D01*
X0107440Y0171982D01*
X0107154Y0172672D01*
X0106738Y0173294D01*
X0106209Y0173823D01*
X0105587Y0174239D01*
X0104896Y0174525D01*
X0104163Y0174671D01*
X0101386Y0174671D01*
X0101386Y0171071D01*
X0100992Y0171071D01*
X0100992Y0174671D01*
X0098215Y0174671D01*
X0097481Y0174525D01*
X0096790Y0174239D01*
X0096169Y0173823D01*
X0095640Y0173294D01*
X0095224Y0172672D01*
X0094938Y0171982D01*
X0094792Y0171248D01*
X0094792Y0171071D01*
X0100992Y0171071D01*
X0100992Y0170677D01*
X0101386Y0170677D01*
X0107586Y0170677D01*
X0107586Y0170500D01*
X0107440Y0169767D01*
X0107154Y0169076D01*
X0106738Y0168454D01*
X0106209Y0167925D01*
X0105587Y0167509D01*
X0105974Y0167768D02*
X0125513Y0167768D01*
X0125121Y0168160D02*
X0106445Y0168160D01*
X0106804Y0168552D02*
X0124819Y0168552D01*
X0124364Y0168944D02*
X0107066Y0168944D01*
X0107262Y0169337D02*
X0123971Y0169337D01*
X0123579Y0169729D02*
X0107424Y0169729D01*
X0107510Y0170121D02*
X0123187Y0170121D01*
X0122795Y0170513D02*
X0107586Y0170513D01*
X0107576Y0171298D02*
X0122010Y0171298D01*
X0121618Y0171690D02*
X0107498Y0171690D01*
X0107398Y0172082D02*
X0121226Y0172082D01*
X0120834Y0172474D02*
X0107236Y0172474D01*
X0107024Y0172867D02*
X0120441Y0172867D01*
X0120049Y0173259D02*
X0106762Y0173259D01*
X0106382Y0173651D02*
X0119657Y0173651D01*
X0119265Y0174043D02*
X0105880Y0174043D01*
X0105113Y0174435D02*
X0118873Y0174435D01*
X0118480Y0174828D02*
X0090682Y0174828D01*
X0090290Y0175220D02*
X0118088Y0175220D01*
X0117696Y0175612D02*
X0089479Y0175612D01*
X0089479Y0176396D02*
X0117171Y0176396D01*
X0117334Y0176004D02*
X0088559Y0176004D01*
X0090073Y0176789D02*
X0097028Y0176789D01*
X0096100Y0177181D02*
X0090523Y0177181D01*
X0090892Y0177573D02*
X0095707Y0177573D01*
X0095315Y0177965D02*
X0091177Y0177965D01*
X0091408Y0178358D02*
X0094923Y0178358D01*
X0094737Y0178750D02*
X0091608Y0178750D01*
X0091745Y0179142D02*
X0094575Y0179142D01*
X0094412Y0179534D02*
X0091871Y0179534D01*
X0091933Y0179926D02*
X0094250Y0179926D01*
X0094092Y0180319D02*
X0091991Y0180319D01*
X0091985Y0181103D02*
X0093307Y0181103D01*
X0092915Y0181495D02*
X0091923Y0181495D01*
X0091850Y0181887D02*
X0092523Y0181887D01*
X0092131Y0182280D02*
X0091723Y0182280D01*
X0091739Y0182672D02*
X0091574Y0182672D01*
X0093700Y0180711D02*
X0087291Y0180711D01*
X0086898Y0180711D02*
X0080165Y0180711D01*
X0088544Y0185355D02*
X0088906Y0185505D01*
X0089425Y0184986D01*
X0088974Y0185215D01*
X0088544Y0185355D01*
X0088694Y0185417D02*
X0088993Y0185417D01*
X0089347Y0185025D02*
X0089385Y0185025D01*
X0093129Y0188555D02*
X0094818Y0188555D01*
X0094655Y0188947D02*
X0092737Y0188947D01*
X0092463Y0189339D02*
X0094493Y0189339D01*
X0094330Y0189732D02*
X0092566Y0189732D01*
X0092566Y0190124D02*
X0094217Y0190124D01*
X0094217Y0190516D02*
X0092566Y0190516D01*
X0092566Y0190908D02*
X0094217Y0190908D01*
X0094217Y0191301D02*
X0092566Y0191301D01*
X0092566Y0191693D02*
X0094217Y0191693D01*
X0094359Y0192085D02*
X0092434Y0192085D01*
X0092271Y0192477D02*
X0094521Y0192477D01*
X0094684Y0192869D02*
X0092109Y0192869D01*
X0091946Y0193262D02*
X0094846Y0193262D01*
X0095186Y0193654D02*
X0091784Y0193654D01*
X0091464Y0194046D02*
X0095579Y0194046D01*
X0095971Y0194438D02*
X0091072Y0194438D01*
X0090679Y0194830D02*
X0096717Y0194830D01*
X0097664Y0195223D02*
X0090287Y0195223D01*
X0094920Y0198360D02*
X0080165Y0198360D01*
X0080165Y0197968D02*
X0095312Y0197968D01*
X0095705Y0197576D02*
X0080165Y0197576D01*
X0080165Y0197184D02*
X0096097Y0197184D01*
X0097021Y0196791D02*
X0080165Y0196791D01*
X0080165Y0198753D02*
X0094736Y0198753D01*
X0094573Y0199145D02*
X0080165Y0199145D01*
X0080165Y0199537D02*
X0094411Y0199537D01*
X0094248Y0199929D02*
X0080165Y0199929D01*
X0080165Y0200321D02*
X0094217Y0200321D01*
X0094217Y0200714D02*
X0080165Y0200714D01*
X0080165Y0201106D02*
X0094217Y0201106D01*
X0094217Y0201498D02*
X0080165Y0201498D01*
X0080165Y0201890D02*
X0094278Y0201890D01*
X0094441Y0202282D02*
X0080165Y0202282D01*
X0080165Y0202675D02*
X0094603Y0202675D01*
X0094765Y0203067D02*
X0080165Y0203067D01*
X0080165Y0203459D02*
X0094992Y0203459D01*
X0095384Y0203851D02*
X0080165Y0203851D01*
X0080165Y0204244D02*
X0095776Y0204244D01*
X0096247Y0204636D02*
X0080165Y0204636D01*
X0080165Y0205812D02*
X0275047Y0205812D01*
X0275047Y0206205D02*
X0080165Y0206205D01*
X0080165Y0206597D02*
X0275047Y0206597D01*
X0275047Y0206989D02*
X0080165Y0206989D01*
X0080165Y0207381D02*
X0275047Y0207381D01*
X0275047Y0211268D02*
X0194199Y0211268D01*
X0194273Y0211396D01*
X0194354Y0211701D01*
X0194354Y0213827D01*
X0187449Y0213827D01*
X0187449Y0214220D01*
X0194354Y0214220D01*
X0194354Y0216347D01*
X0194331Y0216432D01*
X0194929Y0217030D01*
X0194929Y0222828D01*
X0194876Y0222882D01*
X0194929Y0222935D01*
X0194929Y0228734D01*
X0194876Y0228787D01*
X0194929Y0228841D01*
X0194929Y0229169D01*
X0199477Y0229169D01*
X0200087Y0228559D01*
X0201466Y0227987D01*
X0202959Y0227987D01*
X0204338Y0228559D01*
X0205394Y0229614D01*
X0205965Y0230994D01*
X0205965Y0232487D01*
X0205394Y0233866D01*
X0204338Y0234922D01*
X0202959Y0235493D01*
X0201466Y0235493D01*
X0200087Y0234922D01*
X0199477Y0234312D01*
X0194929Y0234312D01*
X0194929Y0234639D01*
X0194876Y0234693D01*
X0194929Y0234746D01*
X0194929Y0235074D01*
X0195638Y0235074D01*
X0196583Y0235466D01*
X0197306Y0236189D01*
X0198553Y0237436D01*
X0199416Y0237436D01*
X0200795Y0238008D01*
X0201851Y0239063D01*
X0202422Y0240442D01*
X0202422Y0241935D01*
X0201851Y0243315D01*
X0200795Y0244370D01*
X0199416Y0244942D01*
X0197923Y0244942D01*
X0196544Y0244370D01*
X0195488Y0243315D01*
X0194917Y0241935D01*
X0194917Y0241073D01*
X0194659Y0240815D01*
X0193891Y0241583D01*
X0180613Y0241583D01*
X0179575Y0240545D01*
X0179575Y0238200D01*
X0178903Y0238871D01*
X0177296Y0239537D01*
X0170357Y0239537D01*
X0168750Y0238871D01*
X0167521Y0237642D01*
X0167446Y0237461D01*
X0167057Y0237461D01*
X0164627Y0239892D01*
X0164627Y0255480D01*
X0164235Y0256425D01*
X0163512Y0257149D01*
X0153315Y0267345D01*
X0152370Y0267737D01*
X0150038Y0267737D01*
X0148903Y0268871D01*
X0147296Y0269537D01*
X0146398Y0269537D01*
X0146398Y0270794D01*
X0147296Y0270794D01*
X0148903Y0271459D01*
X0150133Y0272689D01*
X0150798Y0274296D01*
X0150798Y0276035D01*
X0150133Y0277642D01*
X0148903Y0278871D01*
X0147296Y0279537D01*
X0140357Y0279537D01*
X0138750Y0278871D01*
X0137521Y0277642D01*
X0137221Y0276919D01*
X0137154Y0277082D01*
X0136738Y0277704D01*
X0136209Y0278233D01*
X0135587Y0278648D01*
X0134896Y0278934D01*
X0134163Y0279080D01*
X0131386Y0279080D01*
X0131386Y0275480D01*
X0130992Y0275480D01*
X0130992Y0275087D01*
X0124792Y0275087D01*
X0124792Y0274909D01*
X0124938Y0274176D01*
X0125224Y0273485D01*
X0125640Y0272863D01*
X0126169Y0272334D01*
X0126790Y0271919D01*
X0127481Y0271633D01*
X0128215Y0271487D01*
X0130992Y0271487D01*
X0130992Y0275087D01*
X0131386Y0275087D01*
X0131386Y0271487D01*
X0134163Y0271487D01*
X0134896Y0271633D01*
X0135587Y0271919D01*
X0136209Y0272334D01*
X0136738Y0272863D01*
X0137154Y0273485D01*
X0137172Y0273530D01*
X0137521Y0272689D01*
X0138750Y0271459D01*
X0140357Y0270794D01*
X0141255Y0270794D01*
X0141255Y0269537D01*
X0140357Y0269537D01*
X0138750Y0268871D01*
X0137734Y0267855D01*
X0137400Y0267855D01*
X0136265Y0268990D01*
X0134659Y0269655D01*
X0127719Y0269655D01*
X0126113Y0268990D01*
X0124899Y0267776D01*
X0110362Y0267776D01*
X0109417Y0267385D01*
X0108694Y0266661D01*
X0108161Y0266128D01*
X0108161Y0266153D01*
X0107495Y0267760D01*
X0106265Y0268990D01*
X0104659Y0269655D01*
X0097719Y0269655D01*
X0096113Y0268990D01*
X0094883Y0267760D01*
X0094217Y0266153D01*
X0094217Y0264414D01*
X0094883Y0262807D01*
X0096113Y0261577D01*
X0097719Y0260912D01*
X0102944Y0260912D01*
X0101688Y0259655D01*
X0097719Y0259655D01*
X0096814Y0259280D01*
X0092428Y0263665D01*
X0092566Y0263998D01*
X0092566Y0266175D01*
X0091733Y0268186D01*
X0090194Y0269725D01*
X0088183Y0270558D01*
X0086006Y0270558D01*
X0083995Y0269725D01*
X0082456Y0268186D01*
X0081623Y0266175D01*
X0081623Y0263998D01*
X0082456Y0261987D01*
X0083995Y0260448D01*
X0085645Y0259765D01*
X0085215Y0259625D01*
X0084528Y0259275D01*
X0083904Y0258822D01*
X0083359Y0258277D01*
X0082906Y0257653D01*
X0082556Y0256966D01*
X0082318Y0256233D01*
X0082198Y0255472D01*
X0082198Y0255283D01*
X0086898Y0255283D01*
X0086898Y0254890D01*
X0082198Y0254890D01*
X0082198Y0254701D01*
X0082318Y0253940D01*
X0082556Y0253207D01*
X0082906Y0252520D01*
X0083359Y0251897D01*
X0083904Y0251352D01*
X0084528Y0250898D01*
X0085215Y0250549D01*
X0085645Y0250409D01*
X0083995Y0249725D01*
X0082456Y0248186D01*
X0081623Y0246175D01*
X0081623Y0243998D01*
X0082456Y0241987D01*
X0083995Y0240448D01*
X0084867Y0240087D01*
X0083995Y0239725D01*
X0082456Y0238186D01*
X0081623Y0236175D01*
X0081623Y0233998D01*
X0082456Y0231987D01*
X0083995Y0230448D01*
X0084867Y0230087D01*
X0083995Y0229725D01*
X0082456Y0228186D01*
X0081623Y0226175D01*
X0081623Y0223998D01*
X0082456Y0221987D01*
X0083995Y0220448D01*
X0084867Y0220087D01*
X0083995Y0219725D01*
X0082456Y0218186D01*
X0081623Y0216175D01*
X0081623Y0213998D01*
X0082456Y0211987D01*
X0083175Y0211268D01*
X0080165Y0211268D01*
X0080165Y0282134D01*
X0275047Y0282134D01*
X0275047Y0254772D01*
X0266046Y0254772D01*
X0265008Y0253734D01*
X0265008Y0244392D01*
X0266046Y0243354D01*
X0275047Y0243354D01*
X0275047Y0230756D01*
X0266046Y0230756D01*
X0265008Y0229718D01*
X0265008Y0220376D01*
X0266046Y0219339D01*
X0275047Y0219339D01*
X0275047Y0211268D01*
X0275047Y0211303D02*
X0194219Y0211303D01*
X0194353Y0211696D02*
X0275047Y0211696D01*
X0275047Y0212088D02*
X0194354Y0212088D01*
X0194354Y0212480D02*
X0275047Y0212480D01*
X0275047Y0212872D02*
X0194354Y0212872D01*
X0194354Y0213264D02*
X0275047Y0213264D01*
X0275047Y0213657D02*
X0194354Y0213657D01*
X0194354Y0214441D02*
X0275047Y0214441D01*
X0275047Y0214049D02*
X0187449Y0214049D01*
X0187055Y0214049D02*
X0155239Y0214049D01*
X0155401Y0214441D02*
X0180150Y0214441D01*
X0180150Y0214220D02*
X0187055Y0214220D01*
X0187055Y0213827D01*
X0180150Y0213827D01*
X0180150Y0211701D01*
X0180231Y0211396D01*
X0180305Y0211268D01*
X0091014Y0211268D01*
X0091733Y0211987D01*
X0091952Y0212515D01*
X0134635Y0212515D01*
X0134732Y0212417D01*
X0136112Y0211846D01*
X0137605Y0211846D01*
X0138984Y0212417D01*
X0140040Y0213473D01*
X0140611Y0214852D01*
X0140611Y0216345D01*
X0140040Y0217724D01*
X0138984Y0218780D01*
X0137605Y0219351D01*
X0136112Y0219351D01*
X0134732Y0218780D01*
X0133677Y0217724D01*
X0133650Y0217658D01*
X0091952Y0217658D01*
X0091733Y0218186D01*
X0090194Y0219725D01*
X0089321Y0220087D01*
X0090194Y0220448D01*
X0091733Y0221987D01*
X0091952Y0222515D01*
X0130636Y0222515D01*
X0131922Y0221228D01*
X0132646Y0220505D01*
X0133591Y0220113D01*
X0143667Y0220113D01*
X0148066Y0215714D01*
X0148066Y0214852D01*
X0148637Y0213473D01*
X0149693Y0212417D01*
X0151072Y0211846D01*
X0152565Y0211846D01*
X0153945Y0212417D01*
X0155000Y0213473D01*
X0155572Y0214852D01*
X0155572Y0216345D01*
X0155000Y0217724D01*
X0153945Y0218780D01*
X0152565Y0219351D01*
X0151703Y0219351D01*
X0146189Y0224865D01*
X0145244Y0225257D01*
X0135168Y0225257D01*
X0133158Y0227267D01*
X0132212Y0227658D01*
X0091952Y0227658D01*
X0091733Y0228186D01*
X0090194Y0229725D01*
X0089321Y0230087D01*
X0090194Y0230448D01*
X0091733Y0231987D01*
X0092566Y0233998D01*
X0092566Y0236175D01*
X0092009Y0237519D01*
X0092882Y0236647D01*
X0093827Y0236255D01*
X0115321Y0236255D01*
X0122803Y0228773D01*
X0123748Y0228381D01*
X0133037Y0228381D01*
X0135402Y0226017D01*
X0136347Y0225625D01*
X0149575Y0225625D01*
X0150520Y0226017D01*
X0151243Y0226740D01*
X0155968Y0231465D01*
X0156359Y0232410D01*
X0156359Y0251149D01*
X0155968Y0252095D01*
X0155244Y0252818D01*
X0150717Y0257345D01*
X0150160Y0257576D01*
X0150133Y0257642D01*
X0148903Y0258871D01*
X0147296Y0259537D01*
X0140357Y0259537D01*
X0138750Y0258871D01*
X0137521Y0257642D01*
X0137221Y0256919D01*
X0137154Y0257082D01*
X0136738Y0257704D01*
X0136209Y0258233D01*
X0135587Y0258648D01*
X0134896Y0258934D01*
X0134163Y0259080D01*
X0131386Y0259080D01*
X0131386Y0255480D01*
X0130992Y0255480D01*
X0130992Y0255087D01*
X0124792Y0255087D01*
X0124792Y0254909D01*
X0124938Y0254176D01*
X0125224Y0253485D01*
X0125640Y0252863D01*
X0126169Y0252334D01*
X0126790Y0251919D01*
X0127481Y0251633D01*
X0128215Y0251487D01*
X0130992Y0251487D01*
X0130992Y0255087D01*
X0131386Y0255087D01*
X0131386Y0251487D01*
X0134163Y0251487D01*
X0134896Y0251633D01*
X0135587Y0251919D01*
X0136209Y0252334D01*
X0136738Y0252863D01*
X0137154Y0253485D01*
X0137172Y0253530D01*
X0137521Y0252689D01*
X0138750Y0251459D01*
X0140357Y0250794D01*
X0147296Y0250794D01*
X0148903Y0251459D01*
X0149116Y0251672D01*
X0151216Y0249573D01*
X0151216Y0233986D01*
X0147998Y0230768D01*
X0137923Y0230768D01*
X0136282Y0232409D01*
X0135559Y0233133D01*
X0134614Y0233524D01*
X0125325Y0233524D01*
X0118566Y0240283D01*
X0117843Y0241007D01*
X0116897Y0241398D01*
X0095404Y0241398D01*
X0092566Y0244236D01*
X0092566Y0246175D01*
X0091733Y0248186D01*
X0090194Y0249725D01*
X0088544Y0250409D01*
X0088974Y0250549D01*
X0089661Y0250898D01*
X0090285Y0251352D01*
X0090830Y0251897D01*
X0091283Y0252520D01*
X0091633Y0253207D01*
X0091871Y0253940D01*
X0091991Y0254701D01*
X0091991Y0254890D01*
X0087291Y0254890D01*
X0087291Y0255283D01*
X0091991Y0255283D01*
X0091991Y0255472D01*
X0091871Y0256233D01*
X0091633Y0256966D01*
X0091403Y0257417D01*
X0094217Y0254602D01*
X0094217Y0254414D01*
X0094883Y0252807D01*
X0096113Y0251577D01*
X0097719Y0250912D01*
X0104659Y0250912D01*
X0106265Y0251577D01*
X0107495Y0252807D01*
X0108161Y0254414D01*
X0108161Y0256153D01*
X0107495Y0257760D01*
X0107281Y0257974D01*
X0111939Y0262633D01*
X0116964Y0262633D01*
X0116964Y0251307D01*
X0117355Y0250362D01*
X0118079Y0249639D01*
X0124614Y0243103D01*
X0124790Y0243030D01*
X0124883Y0242807D01*
X0126113Y0241577D01*
X0127719Y0240912D01*
X0134659Y0240912D01*
X0136265Y0241577D01*
X0137479Y0242791D01*
X0137521Y0242689D01*
X0138750Y0241459D01*
X0140357Y0240794D01*
X0147296Y0240794D01*
X0148903Y0241459D01*
X0150133Y0242689D01*
X0150798Y0244296D01*
X0150798Y0246035D01*
X0150133Y0247642D01*
X0148903Y0248871D01*
X0147296Y0249537D01*
X0140357Y0249537D01*
X0138750Y0248871D01*
X0137537Y0247658D01*
X0137495Y0247760D01*
X0136265Y0248990D01*
X0134659Y0249655D01*
X0127719Y0249655D01*
X0126113Y0248990D01*
X0126057Y0248934D01*
X0122107Y0252884D01*
X0122107Y0262633D01*
X0125057Y0262633D01*
X0126113Y0261577D01*
X0127719Y0260912D01*
X0134659Y0260912D01*
X0136265Y0261577D01*
X0137400Y0262712D01*
X0137511Y0262712D01*
X0137521Y0262689D01*
X0138750Y0261459D01*
X0140357Y0260794D01*
X0147296Y0260794D01*
X0148903Y0261459D01*
X0150038Y0262594D01*
X0150793Y0262594D01*
X0159483Y0253903D01*
X0159483Y0238315D01*
X0159875Y0237370D01*
X0163812Y0233433D01*
X0164535Y0232710D01*
X0165481Y0232318D01*
X0167892Y0232318D01*
X0168750Y0231459D01*
X0170357Y0230794D01*
X0171255Y0230794D01*
X0171255Y0224181D01*
X0171647Y0223236D01*
X0176410Y0218472D01*
X0177134Y0217749D01*
X0178079Y0217357D01*
X0179575Y0217357D01*
X0179575Y0217030D01*
X0180173Y0216432D01*
X0180150Y0216347D01*
X0180150Y0214220D01*
X0180150Y0213657D02*
X0155077Y0213657D01*
X0154792Y0213264D02*
X0180150Y0213264D01*
X0180150Y0212872D02*
X0154400Y0212872D01*
X0154008Y0212480D02*
X0180150Y0212480D01*
X0180150Y0212088D02*
X0153150Y0212088D01*
X0150488Y0212088D02*
X0138189Y0212088D01*
X0139047Y0212480D02*
X0149630Y0212480D01*
X0149238Y0212872D02*
X0139439Y0212872D01*
X0139831Y0213264D02*
X0148846Y0213264D01*
X0148561Y0213657D02*
X0140116Y0213657D01*
X0140278Y0214049D02*
X0148399Y0214049D01*
X0148236Y0214441D02*
X0140441Y0214441D01*
X0140603Y0214833D02*
X0148074Y0214833D01*
X0148066Y0215225D02*
X0140611Y0215225D01*
X0140611Y0215618D02*
X0148066Y0215618D01*
X0147771Y0216010D02*
X0140611Y0216010D01*
X0140587Y0216402D02*
X0147378Y0216402D01*
X0146986Y0216794D02*
X0140425Y0216794D01*
X0140262Y0217187D02*
X0146594Y0217187D01*
X0146202Y0217579D02*
X0140100Y0217579D01*
X0139793Y0217971D02*
X0145810Y0217971D01*
X0145417Y0218363D02*
X0139401Y0218363D01*
X0139009Y0218755D02*
X0145025Y0218755D01*
X0144633Y0219148D02*
X0138096Y0219148D01*
X0135620Y0219148D02*
X0090772Y0219148D01*
X0090379Y0219540D02*
X0144241Y0219540D01*
X0143848Y0219932D02*
X0089695Y0219932D01*
X0089895Y0220324D02*
X0133082Y0220324D01*
X0132434Y0220716D02*
X0090462Y0220716D01*
X0090855Y0221109D02*
X0132042Y0221109D01*
X0131650Y0221501D02*
X0091247Y0221501D01*
X0091639Y0221893D02*
X0131257Y0221893D01*
X0130865Y0222285D02*
X0091857Y0222285D01*
X0091164Y0218755D02*
X0134708Y0218755D01*
X0134316Y0218363D02*
X0091556Y0218363D01*
X0091822Y0217971D02*
X0133924Y0217971D01*
X0134670Y0212480D02*
X0091937Y0212480D01*
X0091775Y0212088D02*
X0135527Y0212088D01*
X0135001Y0225423D02*
X0171255Y0225423D01*
X0171255Y0225815D02*
X0150033Y0225815D01*
X0150710Y0226207D02*
X0171255Y0226207D01*
X0171255Y0226600D02*
X0151103Y0226600D01*
X0151495Y0226992D02*
X0171255Y0226992D01*
X0171255Y0227384D02*
X0151887Y0227384D01*
X0152279Y0227776D02*
X0171255Y0227776D01*
X0171255Y0228168D02*
X0152671Y0228168D01*
X0153064Y0228561D02*
X0171255Y0228561D01*
X0171255Y0228953D02*
X0153456Y0228953D01*
X0153848Y0229345D02*
X0171255Y0229345D01*
X0171255Y0229737D02*
X0154240Y0229737D01*
X0154633Y0230130D02*
X0171255Y0230130D01*
X0171255Y0230522D02*
X0155025Y0230522D01*
X0155417Y0230914D02*
X0170067Y0230914D01*
X0169120Y0231306D02*
X0155809Y0231306D01*
X0156064Y0231698D02*
X0168511Y0231698D01*
X0168119Y0232091D02*
X0156227Y0232091D01*
X0156359Y0232483D02*
X0165083Y0232483D01*
X0164370Y0232875D02*
X0156359Y0232875D01*
X0156359Y0233267D02*
X0163978Y0233267D01*
X0163586Y0233659D02*
X0156359Y0233659D01*
X0156359Y0234052D02*
X0163193Y0234052D01*
X0162801Y0234444D02*
X0156359Y0234444D01*
X0156359Y0234836D02*
X0162409Y0234836D01*
X0162017Y0235228D02*
X0156359Y0235228D01*
X0156359Y0235620D02*
X0161625Y0235620D01*
X0161232Y0236013D02*
X0156359Y0236013D01*
X0156359Y0236405D02*
X0160840Y0236405D01*
X0160448Y0236797D02*
X0156359Y0236797D01*
X0156359Y0237189D02*
X0160056Y0237189D01*
X0159787Y0237582D02*
X0156359Y0237582D01*
X0156359Y0237974D02*
X0159625Y0237974D01*
X0159483Y0238366D02*
X0156359Y0238366D01*
X0156359Y0238758D02*
X0159483Y0238758D01*
X0159483Y0239150D02*
X0156359Y0239150D01*
X0156359Y0239543D02*
X0159483Y0239543D01*
X0159483Y0239935D02*
X0156359Y0239935D01*
X0156359Y0240327D02*
X0159483Y0240327D01*
X0159483Y0240719D02*
X0156359Y0240719D01*
X0156359Y0241111D02*
X0159483Y0241111D01*
X0159483Y0241504D02*
X0156359Y0241504D01*
X0156359Y0241896D02*
X0159483Y0241896D01*
X0159483Y0242288D02*
X0156359Y0242288D01*
X0156359Y0242680D02*
X0159483Y0242680D01*
X0159483Y0243073D02*
X0156359Y0243073D01*
X0156359Y0243465D02*
X0159483Y0243465D01*
X0159483Y0243857D02*
X0156359Y0243857D01*
X0156359Y0244249D02*
X0159483Y0244249D01*
X0159483Y0244641D02*
X0156359Y0244641D01*
X0156359Y0245034D02*
X0159483Y0245034D01*
X0159483Y0245426D02*
X0156359Y0245426D01*
X0156359Y0245818D02*
X0159483Y0245818D01*
X0159483Y0246210D02*
X0156359Y0246210D01*
X0156359Y0246602D02*
X0159483Y0246602D01*
X0159483Y0246995D02*
X0156359Y0246995D01*
X0156359Y0247387D02*
X0159483Y0247387D01*
X0159483Y0247779D02*
X0156359Y0247779D01*
X0156359Y0248171D02*
X0159483Y0248171D01*
X0159483Y0248563D02*
X0156359Y0248563D01*
X0156359Y0248956D02*
X0159483Y0248956D01*
X0159483Y0249348D02*
X0156359Y0249348D01*
X0156359Y0249740D02*
X0159483Y0249740D01*
X0159483Y0250132D02*
X0156359Y0250132D01*
X0156359Y0250525D02*
X0159483Y0250525D01*
X0159483Y0250917D02*
X0156359Y0250917D01*
X0156293Y0251309D02*
X0159483Y0251309D01*
X0159483Y0251701D02*
X0156130Y0251701D01*
X0155968Y0252093D02*
X0159483Y0252093D01*
X0159483Y0252486D02*
X0155576Y0252486D01*
X0155184Y0252878D02*
X0159483Y0252878D01*
X0159483Y0253270D02*
X0154792Y0253270D01*
X0154400Y0253662D02*
X0159483Y0253662D01*
X0159332Y0254054D02*
X0154008Y0254054D01*
X0153615Y0254447D02*
X0158940Y0254447D01*
X0158548Y0254839D02*
X0153223Y0254839D01*
X0152831Y0255231D02*
X0158156Y0255231D01*
X0157763Y0255623D02*
X0152439Y0255623D01*
X0152047Y0256016D02*
X0157371Y0256016D01*
X0156979Y0256408D02*
X0151654Y0256408D01*
X0151262Y0256800D02*
X0156587Y0256800D01*
X0156195Y0257192D02*
X0150870Y0257192D01*
X0150157Y0257584D02*
X0155802Y0257584D01*
X0155410Y0257977D02*
X0149798Y0257977D01*
X0149406Y0258369D02*
X0155018Y0258369D01*
X0154626Y0258761D02*
X0149014Y0258761D01*
X0148223Y0259153D02*
X0154234Y0259153D01*
X0153841Y0259545D02*
X0122107Y0259545D01*
X0122107Y0259153D02*
X0139431Y0259153D01*
X0138640Y0258761D02*
X0135315Y0258761D01*
X0136006Y0258369D02*
X0138248Y0258369D01*
X0137856Y0257977D02*
X0136465Y0257977D01*
X0136818Y0257584D02*
X0137497Y0257584D01*
X0137334Y0257192D02*
X0137080Y0257192D01*
X0137010Y0253270D02*
X0137280Y0253270D01*
X0137442Y0252878D02*
X0136748Y0252878D01*
X0136361Y0252486D02*
X0137724Y0252486D01*
X0138116Y0252093D02*
X0135849Y0252093D01*
X0135062Y0251701D02*
X0138508Y0251701D01*
X0139113Y0251309D02*
X0123682Y0251309D01*
X0123290Y0251701D02*
X0127316Y0251701D01*
X0126529Y0252093D02*
X0122898Y0252093D01*
X0122506Y0252486D02*
X0126017Y0252486D01*
X0125630Y0252878D02*
X0122113Y0252878D01*
X0122107Y0253270D02*
X0125368Y0253270D01*
X0125151Y0253662D02*
X0122107Y0253662D01*
X0122107Y0254054D02*
X0124988Y0254054D01*
X0124884Y0254447D02*
X0122107Y0254447D01*
X0122107Y0254839D02*
X0124806Y0254839D01*
X0124792Y0255480D02*
X0130992Y0255480D01*
X0130992Y0259080D01*
X0128215Y0259080D01*
X0127481Y0258934D01*
X0126790Y0258648D01*
X0126169Y0258233D01*
X0125640Y0257704D01*
X0125224Y0257082D01*
X0124938Y0256391D01*
X0124792Y0255657D01*
X0124792Y0255480D01*
X0124792Y0255623D02*
X0122107Y0255623D01*
X0122107Y0255231D02*
X0130992Y0255231D01*
X0130992Y0254839D02*
X0131386Y0254839D01*
X0131386Y0254447D02*
X0130992Y0254447D01*
X0130992Y0254054D02*
X0131386Y0254054D01*
X0131386Y0253662D02*
X0130992Y0253662D01*
X0130992Y0253270D02*
X0131386Y0253270D01*
X0131386Y0252878D02*
X0130992Y0252878D01*
X0130992Y0252486D02*
X0131386Y0252486D01*
X0131386Y0252093D02*
X0130992Y0252093D01*
X0130992Y0251701D02*
X0131386Y0251701D01*
X0131386Y0255623D02*
X0130992Y0255623D01*
X0130992Y0256016D02*
X0131386Y0256016D01*
X0131386Y0256408D02*
X0130992Y0256408D01*
X0130992Y0256800D02*
X0131386Y0256800D01*
X0131386Y0257192D02*
X0130992Y0257192D01*
X0130992Y0257584D02*
X0131386Y0257584D01*
X0131386Y0257977D02*
X0130992Y0257977D01*
X0130992Y0258369D02*
X0131386Y0258369D01*
X0131386Y0258761D02*
X0130992Y0258761D01*
X0127063Y0258761D02*
X0122107Y0258761D01*
X0122107Y0258369D02*
X0126372Y0258369D01*
X0125913Y0257977D02*
X0122107Y0257977D01*
X0122107Y0257584D02*
X0125560Y0257584D01*
X0125298Y0257192D02*
X0122107Y0257192D01*
X0122107Y0256800D02*
X0125107Y0256800D01*
X0124945Y0256408D02*
X0122107Y0256408D01*
X0122107Y0256016D02*
X0124863Y0256016D01*
X0122107Y0259938D02*
X0153449Y0259938D01*
X0153057Y0260330D02*
X0122107Y0260330D01*
X0122107Y0260722D02*
X0152665Y0260722D01*
X0152272Y0261114D02*
X0148070Y0261114D01*
X0148950Y0261506D02*
X0151880Y0261506D01*
X0151488Y0261899D02*
X0149343Y0261899D01*
X0149735Y0262291D02*
X0151096Y0262291D01*
X0154840Y0265821D02*
X0166855Y0265821D01*
X0166855Y0266035D02*
X0166855Y0264296D01*
X0167521Y0262689D01*
X0168750Y0261459D01*
X0170357Y0260794D01*
X0177296Y0260794D01*
X0178903Y0261459D01*
X0180133Y0262689D01*
X0180798Y0264296D01*
X0180798Y0266035D01*
X0180133Y0267642D01*
X0178903Y0268871D01*
X0177296Y0269537D01*
X0170357Y0269537D01*
X0168750Y0268871D01*
X0167521Y0267642D01*
X0166855Y0266035D01*
X0166929Y0266213D02*
X0154447Y0266213D01*
X0154055Y0266605D02*
X0167091Y0266605D01*
X0167254Y0266997D02*
X0153663Y0266997D01*
X0153208Y0267390D02*
X0167416Y0267390D01*
X0167661Y0267782D02*
X0149993Y0267782D01*
X0149600Y0268174D02*
X0168053Y0268174D01*
X0168445Y0268566D02*
X0149208Y0268566D01*
X0148693Y0268959D02*
X0168961Y0268959D01*
X0169907Y0269351D02*
X0147746Y0269351D01*
X0146398Y0269743D02*
X0275047Y0269743D01*
X0275047Y0270135D02*
X0146398Y0270135D01*
X0146398Y0270527D02*
X0275047Y0270527D01*
X0275047Y0270920D02*
X0147600Y0270920D01*
X0148547Y0271312D02*
X0275047Y0271312D01*
X0275047Y0271704D02*
X0177992Y0271704D01*
X0178225Y0271801D02*
X0178847Y0272216D01*
X0179376Y0272745D01*
X0179791Y0273367D01*
X0180078Y0274058D01*
X0180224Y0274791D01*
X0180224Y0274969D01*
X0174024Y0274969D01*
X0174024Y0275362D01*
X0180224Y0275362D01*
X0180224Y0275539D01*
X0180078Y0276273D01*
X0179791Y0276964D01*
X0179376Y0277586D01*
X0178847Y0278115D01*
X0178225Y0278530D01*
X0177534Y0278816D01*
X0176801Y0278962D01*
X0174024Y0278962D01*
X0174024Y0275362D01*
X0173630Y0275362D01*
X0173630Y0274969D01*
X0167430Y0274969D01*
X0167430Y0274791D01*
X0167576Y0274058D01*
X0167862Y0273367D01*
X0168278Y0272745D01*
X0168806Y0272216D01*
X0169428Y0271801D01*
X0170119Y0271514D01*
X0170853Y0271369D01*
X0173630Y0271369D01*
X0173630Y0274968D01*
X0174024Y0274968D01*
X0174024Y0271369D01*
X0176801Y0271369D01*
X0177534Y0271514D01*
X0178225Y0271801D01*
X0178668Y0272096D02*
X0275047Y0272096D01*
X0275047Y0272488D02*
X0179119Y0272488D01*
X0179467Y0272881D02*
X0275047Y0272881D01*
X0275047Y0273273D02*
X0179729Y0273273D01*
X0179915Y0273665D02*
X0275047Y0273665D01*
X0275047Y0274057D02*
X0180077Y0274057D01*
X0180156Y0274449D02*
X0275047Y0274449D01*
X0275047Y0274842D02*
X0180224Y0274842D01*
X0180206Y0275626D02*
X0275047Y0275626D01*
X0275047Y0275234D02*
X0174024Y0275234D01*
X0174024Y0275626D02*
X0173630Y0275626D01*
X0173630Y0275362D02*
X0173630Y0278962D01*
X0170853Y0278962D01*
X0170119Y0278816D01*
X0169428Y0278530D01*
X0168806Y0278115D01*
X0168278Y0277586D01*
X0167862Y0276964D01*
X0167576Y0276273D01*
X0167430Y0275539D01*
X0167430Y0275362D01*
X0173630Y0275362D01*
X0173630Y0275234D02*
X0150798Y0275234D01*
X0150798Y0275626D02*
X0167447Y0275626D01*
X0167525Y0276018D02*
X0150798Y0276018D01*
X0150643Y0276411D02*
X0167633Y0276411D01*
X0167795Y0276803D02*
X0150480Y0276803D01*
X0150318Y0277195D02*
X0168016Y0277195D01*
X0168279Y0277587D02*
X0150155Y0277587D01*
X0149795Y0277979D02*
X0168671Y0277979D01*
X0169191Y0278372D02*
X0149403Y0278372D01*
X0149011Y0278764D02*
X0169993Y0278764D01*
X0167430Y0274842D02*
X0150798Y0274842D01*
X0150798Y0274449D02*
X0167498Y0274449D01*
X0167576Y0274057D02*
X0150700Y0274057D01*
X0150537Y0273665D02*
X0167739Y0273665D01*
X0167925Y0273273D02*
X0150375Y0273273D01*
X0150212Y0272881D02*
X0168187Y0272881D01*
X0168534Y0272488D02*
X0149932Y0272488D01*
X0149540Y0272096D02*
X0168986Y0272096D01*
X0169662Y0271704D02*
X0149148Y0271704D01*
X0148216Y0279156D02*
X0275047Y0279156D01*
X0275047Y0278764D02*
X0177661Y0278764D01*
X0178462Y0278372D02*
X0275047Y0278372D01*
X0275047Y0277979D02*
X0178982Y0277979D01*
X0179374Y0277587D02*
X0275047Y0277587D01*
X0275047Y0277195D02*
X0179637Y0277195D01*
X0179858Y0276803D02*
X0275047Y0276803D01*
X0275047Y0276411D02*
X0180021Y0276411D01*
X0180128Y0276018D02*
X0275047Y0276018D01*
X0275047Y0279548D02*
X0104917Y0279548D01*
X0104659Y0279655D02*
X0106265Y0278990D01*
X0107495Y0277760D01*
X0108161Y0276153D01*
X0108161Y0274414D01*
X0107495Y0272807D01*
X0106265Y0271577D01*
X0104659Y0270912D01*
X0097719Y0270912D01*
X0096113Y0271577D01*
X0094883Y0272807D01*
X0094217Y0274414D01*
X0094217Y0276153D01*
X0094883Y0277760D01*
X0096113Y0278990D01*
X0097719Y0279655D01*
X0104659Y0279655D01*
X0105863Y0279156D02*
X0139437Y0279156D01*
X0138643Y0278764D02*
X0135308Y0278764D01*
X0136001Y0278372D02*
X0138251Y0278372D01*
X0137858Y0277979D02*
X0136463Y0277979D01*
X0136816Y0277587D02*
X0137498Y0277587D01*
X0137336Y0277195D02*
X0137078Y0277195D01*
X0137012Y0273273D02*
X0137279Y0273273D01*
X0137441Y0272881D02*
X0136750Y0272881D01*
X0136363Y0272488D02*
X0137721Y0272488D01*
X0138113Y0272096D02*
X0135853Y0272096D01*
X0135069Y0271704D02*
X0138506Y0271704D01*
X0139106Y0271312D02*
X0105624Y0271312D01*
X0106392Y0271704D02*
X0127309Y0271704D01*
X0126525Y0272096D02*
X0106784Y0272096D01*
X0107176Y0272488D02*
X0126014Y0272488D01*
X0125628Y0272881D02*
X0107526Y0272881D01*
X0107688Y0273273D02*
X0125366Y0273273D01*
X0125150Y0273665D02*
X0107850Y0273665D01*
X0108013Y0274057D02*
X0124987Y0274057D01*
X0124884Y0274449D02*
X0108161Y0274449D01*
X0108161Y0274842D02*
X0124806Y0274842D01*
X0124792Y0275480D02*
X0130992Y0275480D01*
X0130992Y0279080D01*
X0128215Y0279080D01*
X0127481Y0278934D01*
X0126790Y0278648D01*
X0126169Y0278233D01*
X0125640Y0277704D01*
X0125224Y0277082D01*
X0124938Y0276391D01*
X0124792Y0275657D01*
X0124792Y0275480D01*
X0124792Y0275626D02*
X0108161Y0275626D01*
X0108161Y0275234D02*
X0130992Y0275234D01*
X0130992Y0275626D02*
X0131386Y0275626D01*
X0131386Y0276018D02*
X0130992Y0276018D01*
X0130992Y0276411D02*
X0131386Y0276411D01*
X0131386Y0276803D02*
X0130992Y0276803D01*
X0130992Y0277195D02*
X0131386Y0277195D01*
X0131386Y0277587D02*
X0130992Y0277587D01*
X0130992Y0277979D02*
X0131386Y0277979D01*
X0131386Y0278372D02*
X0130992Y0278372D01*
X0130992Y0278764D02*
X0131386Y0278764D01*
X0131386Y0274842D02*
X0130992Y0274842D01*
X0130992Y0274449D02*
X0131386Y0274449D01*
X0131386Y0274057D02*
X0130992Y0274057D01*
X0130992Y0273665D02*
X0131386Y0273665D01*
X0131386Y0273273D02*
X0130992Y0273273D01*
X0130992Y0272881D02*
X0131386Y0272881D01*
X0131386Y0272488D02*
X0130992Y0272488D01*
X0130992Y0272096D02*
X0131386Y0272096D01*
X0131386Y0271704D02*
X0130992Y0271704D01*
X0126985Y0269351D02*
X0105393Y0269351D01*
X0106296Y0268959D02*
X0126082Y0268959D01*
X0125689Y0268566D02*
X0106689Y0268566D01*
X0107081Y0268174D02*
X0125297Y0268174D01*
X0124905Y0267782D02*
X0107473Y0267782D01*
X0107648Y0267390D02*
X0109429Y0267390D01*
X0109030Y0266997D02*
X0107811Y0266997D01*
X0107973Y0266605D02*
X0108638Y0266605D01*
X0108694Y0266661D02*
X0108694Y0266661D01*
X0108245Y0266213D02*
X0108136Y0266213D01*
X0111597Y0262291D02*
X0116964Y0262291D01*
X0116964Y0261899D02*
X0111205Y0261899D01*
X0110813Y0261506D02*
X0116964Y0261506D01*
X0116964Y0261114D02*
X0110420Y0261114D01*
X0110028Y0260722D02*
X0116964Y0260722D01*
X0116964Y0260330D02*
X0109636Y0260330D01*
X0109244Y0259938D02*
X0116964Y0259938D01*
X0116964Y0259545D02*
X0108852Y0259545D01*
X0108459Y0259153D02*
X0116964Y0259153D01*
X0116964Y0258761D02*
X0108067Y0258761D01*
X0107675Y0258369D02*
X0116964Y0258369D01*
X0116964Y0257977D02*
X0107283Y0257977D01*
X0107568Y0257584D02*
X0116964Y0257584D01*
X0116964Y0257192D02*
X0107730Y0257192D01*
X0107893Y0256800D02*
X0116964Y0256800D01*
X0116964Y0256408D02*
X0108055Y0256408D01*
X0108161Y0256016D02*
X0116964Y0256016D01*
X0116964Y0255623D02*
X0108161Y0255623D01*
X0108161Y0255231D02*
X0116964Y0255231D01*
X0116964Y0254839D02*
X0108161Y0254839D01*
X0108161Y0254447D02*
X0116964Y0254447D01*
X0116964Y0254054D02*
X0108012Y0254054D01*
X0107849Y0253662D02*
X0116964Y0253662D01*
X0116964Y0253270D02*
X0107687Y0253270D01*
X0107524Y0252878D02*
X0116964Y0252878D01*
X0116964Y0252486D02*
X0107174Y0252486D01*
X0106781Y0252093D02*
X0116964Y0252093D01*
X0116964Y0251701D02*
X0106389Y0251701D01*
X0105617Y0251309D02*
X0116964Y0251309D01*
X0117126Y0250917D02*
X0104670Y0250917D01*
X0104163Y0249080D02*
X0101386Y0249080D01*
X0101386Y0245480D01*
X0107586Y0245480D01*
X0107586Y0245657D01*
X0107440Y0246391D01*
X0107154Y0247082D01*
X0106738Y0247704D01*
X0106209Y0248233D01*
X0105587Y0248648D01*
X0104896Y0248934D01*
X0104163Y0249080D01*
X0104789Y0248956D02*
X0118762Y0248956D01*
X0118370Y0249348D02*
X0090571Y0249348D01*
X0090963Y0248956D02*
X0097589Y0248956D01*
X0097481Y0248934D02*
X0096790Y0248648D01*
X0096169Y0248233D01*
X0095640Y0247704D01*
X0095224Y0247082D01*
X0094938Y0246391D01*
X0094792Y0245657D01*
X0094792Y0245480D01*
X0100992Y0245480D01*
X0100992Y0245087D01*
X0094792Y0245087D01*
X0094792Y0244909D01*
X0094938Y0244176D01*
X0095224Y0243485D01*
X0095640Y0242863D01*
X0096169Y0242334D01*
X0096790Y0241919D01*
X0097481Y0241633D01*
X0098215Y0241487D01*
X0100992Y0241487D01*
X0100992Y0245087D01*
X0101386Y0245087D01*
X0101386Y0245480D01*
X0100992Y0245480D01*
X0100992Y0249080D01*
X0098215Y0249080D01*
X0097481Y0248934D01*
X0096664Y0248563D02*
X0091356Y0248563D01*
X0091739Y0248171D02*
X0096107Y0248171D01*
X0095715Y0247779D02*
X0091902Y0247779D01*
X0092064Y0247387D02*
X0095428Y0247387D01*
X0095188Y0246995D02*
X0092227Y0246995D01*
X0092389Y0246602D02*
X0095026Y0246602D01*
X0094902Y0246210D02*
X0092552Y0246210D01*
X0092566Y0245818D02*
X0094824Y0245818D01*
X0094792Y0245034D02*
X0092566Y0245034D01*
X0092566Y0245426D02*
X0100992Y0245426D01*
X0100992Y0245818D02*
X0101386Y0245818D01*
X0101386Y0246210D02*
X0100992Y0246210D01*
X0100992Y0246602D02*
X0101386Y0246602D01*
X0101386Y0246995D02*
X0100992Y0246995D01*
X0100992Y0247387D02*
X0101386Y0247387D01*
X0101386Y0247779D02*
X0100992Y0247779D01*
X0100992Y0248171D02*
X0101386Y0248171D01*
X0101386Y0248563D02*
X0100992Y0248563D01*
X0100992Y0248956D02*
X0101386Y0248956D01*
X0101386Y0245426D02*
X0122292Y0245426D01*
X0122684Y0245034D02*
X0107586Y0245034D01*
X0107586Y0245087D02*
X0101386Y0245087D01*
X0101386Y0241487D01*
X0104163Y0241487D01*
X0104896Y0241633D01*
X0105587Y0241919D01*
X0106209Y0242334D01*
X0106738Y0242863D01*
X0107154Y0243485D01*
X0107440Y0244176D01*
X0107586Y0244909D01*
X0107586Y0245087D01*
X0107532Y0244641D02*
X0123076Y0244641D01*
X0123468Y0244249D02*
X0107454Y0244249D01*
X0107308Y0243857D02*
X0123861Y0243857D01*
X0124253Y0243465D02*
X0107140Y0243465D01*
X0106878Y0243073D02*
X0124689Y0243073D01*
X0125010Y0242680D02*
X0106555Y0242680D01*
X0106140Y0242288D02*
X0125402Y0242288D01*
X0125794Y0241896D02*
X0105532Y0241896D01*
X0104249Y0241504D02*
X0126291Y0241504D01*
X0127237Y0241111D02*
X0117590Y0241111D01*
X0118130Y0240719D02*
X0151216Y0240719D01*
X0151216Y0240327D02*
X0118522Y0240327D01*
X0118915Y0239935D02*
X0151216Y0239935D01*
X0151216Y0239543D02*
X0119307Y0239543D01*
X0119699Y0239150D02*
X0151216Y0239150D01*
X0151216Y0238758D02*
X0147675Y0238758D01*
X0147534Y0238816D02*
X0146801Y0238962D01*
X0144024Y0238962D01*
X0144024Y0235362D01*
X0150224Y0235362D01*
X0150224Y0235539D01*
X0150078Y0236273D01*
X0149791Y0236964D01*
X0149376Y0237586D01*
X0148847Y0238115D01*
X0148225Y0238530D01*
X0147534Y0238816D01*
X0148471Y0238366D02*
X0151216Y0238366D01*
X0151216Y0237974D02*
X0148988Y0237974D01*
X0149379Y0237582D02*
X0151216Y0237582D01*
X0151216Y0237189D02*
X0149641Y0237189D01*
X0149861Y0236797D02*
X0151216Y0236797D01*
X0151216Y0236405D02*
X0150023Y0236405D01*
X0150129Y0236013D02*
X0151216Y0236013D01*
X0151216Y0235620D02*
X0150207Y0235620D01*
X0150224Y0234969D02*
X0144024Y0234969D01*
X0144024Y0235362D01*
X0143630Y0235362D01*
X0143630Y0234969D01*
X0137430Y0234969D01*
X0137430Y0234791D01*
X0137576Y0234058D01*
X0137862Y0233367D01*
X0138278Y0232745D01*
X0138806Y0232216D01*
X0139428Y0231801D01*
X0140119Y0231514D01*
X0140853Y0231369D01*
X0143630Y0231369D01*
X0143630Y0234968D01*
X0144024Y0234968D01*
X0144024Y0231369D01*
X0146801Y0231369D01*
X0147534Y0231514D01*
X0148225Y0231801D01*
X0148847Y0232216D01*
X0149376Y0232745D01*
X0149791Y0233367D01*
X0150078Y0234058D01*
X0150224Y0234791D01*
X0150224Y0234969D01*
X0150224Y0234836D02*
X0151216Y0234836D01*
X0151216Y0234444D02*
X0150154Y0234444D01*
X0150075Y0234052D02*
X0151216Y0234052D01*
X0150889Y0233659D02*
X0149913Y0233659D01*
X0149725Y0233267D02*
X0150496Y0233267D01*
X0150104Y0232875D02*
X0149463Y0232875D01*
X0149712Y0232483D02*
X0149114Y0232483D01*
X0149320Y0232091D02*
X0148659Y0232091D01*
X0148928Y0231698D02*
X0147978Y0231698D01*
X0148535Y0231306D02*
X0137386Y0231306D01*
X0137778Y0230914D02*
X0148143Y0230914D01*
X0144024Y0231698D02*
X0143630Y0231698D01*
X0143630Y0232091D02*
X0144024Y0232091D01*
X0144024Y0232483D02*
X0143630Y0232483D01*
X0143630Y0232875D02*
X0144024Y0232875D01*
X0144024Y0233267D02*
X0143630Y0233267D01*
X0143630Y0233659D02*
X0144024Y0233659D01*
X0144024Y0234052D02*
X0143630Y0234052D01*
X0143630Y0234444D02*
X0144024Y0234444D01*
X0144024Y0234836D02*
X0143630Y0234836D01*
X0143630Y0235228D02*
X0123621Y0235228D01*
X0124013Y0234836D02*
X0137430Y0234836D01*
X0137499Y0234444D02*
X0124406Y0234444D01*
X0124798Y0234052D02*
X0137578Y0234052D01*
X0137741Y0233659D02*
X0125190Y0233659D01*
X0123229Y0235620D02*
X0137446Y0235620D01*
X0137430Y0235539D02*
X0137430Y0235362D01*
X0143630Y0235362D01*
X0143630Y0238962D01*
X0140853Y0238962D01*
X0140119Y0238816D01*
X0139428Y0238530D01*
X0138806Y0238115D01*
X0138278Y0237586D01*
X0137862Y0236964D01*
X0137576Y0236273D01*
X0137430Y0235539D01*
X0137524Y0236013D02*
X0122837Y0236013D01*
X0122445Y0236405D02*
X0137631Y0236405D01*
X0137793Y0236797D02*
X0122052Y0236797D01*
X0121660Y0237189D02*
X0138013Y0237189D01*
X0138275Y0237582D02*
X0121268Y0237582D01*
X0120876Y0237974D02*
X0138666Y0237974D01*
X0139183Y0238366D02*
X0120483Y0238366D01*
X0120091Y0238758D02*
X0139979Y0238758D01*
X0139590Y0241111D02*
X0135141Y0241111D01*
X0136087Y0241504D02*
X0138706Y0241504D01*
X0138314Y0241896D02*
X0136584Y0241896D01*
X0136976Y0242288D02*
X0137922Y0242288D01*
X0137529Y0242680D02*
X0137368Y0242680D01*
X0137476Y0247779D02*
X0137658Y0247779D01*
X0138050Y0248171D02*
X0137084Y0248171D01*
X0136691Y0248563D02*
X0138442Y0248563D01*
X0138954Y0248956D02*
X0136299Y0248956D01*
X0135400Y0249348D02*
X0139901Y0249348D01*
X0140060Y0250917D02*
X0124074Y0250917D01*
X0124467Y0250525D02*
X0150264Y0250525D01*
X0149872Y0250917D02*
X0147593Y0250917D01*
X0148540Y0251309D02*
X0149479Y0251309D01*
X0150656Y0250132D02*
X0124859Y0250132D01*
X0125251Y0249740D02*
X0151048Y0249740D01*
X0151216Y0249348D02*
X0147753Y0249348D01*
X0148700Y0248956D02*
X0151216Y0248956D01*
X0151216Y0248563D02*
X0149211Y0248563D01*
X0149603Y0248171D02*
X0151216Y0248171D01*
X0151216Y0247779D02*
X0149996Y0247779D01*
X0150238Y0247387D02*
X0151216Y0247387D01*
X0151216Y0246995D02*
X0150401Y0246995D01*
X0150563Y0246602D02*
X0151216Y0246602D01*
X0151216Y0246210D02*
X0150726Y0246210D01*
X0150798Y0245818D02*
X0151216Y0245818D01*
X0151216Y0245426D02*
X0150798Y0245426D01*
X0150798Y0245034D02*
X0151216Y0245034D01*
X0151216Y0244641D02*
X0150798Y0244641D01*
X0150779Y0244249D02*
X0151216Y0244249D01*
X0151216Y0243857D02*
X0150617Y0243857D01*
X0150454Y0243465D02*
X0151216Y0243465D01*
X0151216Y0243073D02*
X0150292Y0243073D01*
X0150124Y0242680D02*
X0151216Y0242680D01*
X0151216Y0242288D02*
X0149732Y0242288D01*
X0149340Y0241896D02*
X0151216Y0241896D01*
X0151216Y0241504D02*
X0148948Y0241504D01*
X0148063Y0241111D02*
X0151216Y0241111D01*
X0151216Y0235228D02*
X0144024Y0235228D01*
X0144024Y0235620D02*
X0143630Y0235620D01*
X0143630Y0236013D02*
X0144024Y0236013D01*
X0144024Y0236405D02*
X0143630Y0236405D01*
X0143630Y0236797D02*
X0144024Y0236797D01*
X0144024Y0237189D02*
X0143630Y0237189D01*
X0143630Y0237582D02*
X0144024Y0237582D01*
X0144024Y0237974D02*
X0143630Y0237974D01*
X0143630Y0238366D02*
X0144024Y0238366D01*
X0144024Y0238758D02*
X0143630Y0238758D01*
X0137929Y0233267D02*
X0135235Y0233267D01*
X0135817Y0232875D02*
X0138191Y0232875D01*
X0138540Y0232483D02*
X0136209Y0232483D01*
X0136601Y0232091D02*
X0138994Y0232091D01*
X0139675Y0231698D02*
X0136994Y0231698D01*
X0133250Y0228168D02*
X0091740Y0228168D01*
X0091903Y0227776D02*
X0133642Y0227776D01*
X0134034Y0227384D02*
X0132874Y0227384D01*
X0133432Y0226992D02*
X0134426Y0226992D01*
X0134819Y0226600D02*
X0133825Y0226600D01*
X0134217Y0226207D02*
X0135211Y0226207D01*
X0134609Y0225815D02*
X0135888Y0225815D01*
X0145789Y0225031D02*
X0171255Y0225031D01*
X0171255Y0224639D02*
X0146416Y0224639D01*
X0146808Y0224246D02*
X0171255Y0224246D01*
X0171391Y0223854D02*
X0147200Y0223854D01*
X0147592Y0223462D02*
X0171553Y0223462D01*
X0171813Y0223070D02*
X0147984Y0223070D01*
X0148377Y0222677D02*
X0172205Y0222677D01*
X0172598Y0222285D02*
X0148769Y0222285D01*
X0149161Y0221893D02*
X0172990Y0221893D01*
X0173382Y0221501D02*
X0149553Y0221501D01*
X0149946Y0221109D02*
X0173774Y0221109D01*
X0174166Y0220716D02*
X0150338Y0220716D01*
X0150730Y0220324D02*
X0174559Y0220324D01*
X0174951Y0219932D02*
X0151122Y0219932D01*
X0151514Y0219540D02*
X0175343Y0219540D01*
X0175735Y0219148D02*
X0153057Y0219148D01*
X0153969Y0218755D02*
X0176127Y0218755D01*
X0176520Y0218363D02*
X0154361Y0218363D01*
X0154754Y0217971D02*
X0176912Y0217971D01*
X0177545Y0217579D02*
X0155061Y0217579D01*
X0155223Y0217187D02*
X0179575Y0217187D01*
X0179810Y0216794D02*
X0155385Y0216794D01*
X0155548Y0216402D02*
X0180165Y0216402D01*
X0180150Y0216010D02*
X0155572Y0216010D01*
X0155572Y0215618D02*
X0180150Y0215618D01*
X0180150Y0215225D02*
X0155572Y0215225D01*
X0155564Y0214833D02*
X0180150Y0214833D01*
X0180151Y0211696D02*
X0091441Y0211696D01*
X0091049Y0211303D02*
X0180285Y0211303D01*
X0174024Y0200321D02*
X0173630Y0200321D01*
X0173630Y0199929D02*
X0174024Y0199929D01*
X0174024Y0199537D02*
X0173630Y0199537D01*
X0173630Y0199145D02*
X0174024Y0199145D01*
X0174024Y0198753D02*
X0173630Y0198753D01*
X0173630Y0198360D02*
X0174024Y0198360D01*
X0174024Y0197968D02*
X0173630Y0197968D01*
X0173630Y0197576D02*
X0174024Y0197576D01*
X0174024Y0197184D02*
X0173630Y0197184D01*
X0177544Y0185025D02*
X0275047Y0185025D01*
X0275047Y0184633D02*
X0178491Y0184633D01*
X0179124Y0184241D02*
X0275047Y0184241D01*
X0275047Y0183848D02*
X0179517Y0183848D01*
X0179909Y0183456D02*
X0275047Y0183456D01*
X0275047Y0183064D02*
X0180203Y0183064D01*
X0180365Y0182672D02*
X0275047Y0182672D01*
X0275047Y0182280D02*
X0180527Y0182280D01*
X0180690Y0181887D02*
X0275047Y0181887D01*
X0275047Y0181495D02*
X0180798Y0181495D01*
X0189213Y0181103D02*
X0275047Y0181103D01*
X0275047Y0180711D02*
X0189606Y0180711D01*
X0189998Y0180319D02*
X0266002Y0180319D01*
X0265610Y0179926D02*
X0190205Y0179926D01*
X0190205Y0179534D02*
X0265218Y0179534D01*
X0265008Y0179142D02*
X0190205Y0179142D01*
X0190205Y0178750D02*
X0265008Y0178750D01*
X0265008Y0178358D02*
X0190205Y0178358D01*
X0190205Y0177965D02*
X0265008Y0177965D01*
X0265008Y0177573D02*
X0190205Y0177573D01*
X0190205Y0177181D02*
X0265008Y0177181D01*
X0265008Y0176789D02*
X0190205Y0176789D01*
X0190205Y0176396D02*
X0265008Y0176396D01*
X0265008Y0176004D02*
X0190205Y0176004D01*
X0190205Y0175612D02*
X0265008Y0175612D01*
X0265008Y0175220D02*
X0190205Y0175220D01*
X0190205Y0174828D02*
X0265008Y0174828D01*
X0265008Y0174435D02*
X0190205Y0174435D01*
X0190205Y0174043D02*
X0265008Y0174043D01*
X0265008Y0173651D02*
X0190205Y0173651D01*
X0190205Y0173259D02*
X0265008Y0173259D01*
X0265008Y0172867D02*
X0190205Y0172867D01*
X0190205Y0172474D02*
X0265008Y0172474D01*
X0265008Y0172082D02*
X0190205Y0172082D01*
X0190205Y0171690D02*
X0265008Y0171690D01*
X0265008Y0171298D02*
X0190205Y0171298D01*
X0190205Y0170905D02*
X0265008Y0170905D01*
X0275047Y0139136D02*
X0194354Y0139136D01*
X0194354Y0138744D02*
X0275047Y0138744D01*
X0275047Y0138352D02*
X0194354Y0138352D01*
X0194354Y0137960D02*
X0275047Y0137960D01*
X0275047Y0137567D02*
X0194354Y0137567D01*
X0194323Y0137175D02*
X0275047Y0137175D01*
X0275047Y0130115D02*
X0176941Y0130115D01*
X0178196Y0129723D02*
X0275047Y0129723D01*
X0275047Y0129331D02*
X0178794Y0129331D01*
X0179204Y0128939D02*
X0275047Y0128939D01*
X0275047Y0128547D02*
X0179523Y0128547D01*
X0179785Y0128154D02*
X0275047Y0128154D01*
X0275047Y0127762D02*
X0179950Y0127762D01*
X0180094Y0127370D02*
X0275047Y0127370D01*
X0275047Y0126978D02*
X0180172Y0126978D01*
X0180224Y0126586D02*
X0275047Y0126586D01*
X0275047Y0126193D02*
X0174024Y0126193D01*
X0174024Y0126150D02*
X0180224Y0126150D01*
X0180224Y0125972D01*
X0180078Y0125239D01*
X0179791Y0124548D01*
X0179376Y0123926D01*
X0178847Y0123397D01*
X0178225Y0122982D01*
X0177534Y0122696D01*
X0176801Y0122550D01*
X0174024Y0122550D01*
X0174024Y0126150D01*
X0174024Y0125801D02*
X0173630Y0125801D01*
X0173630Y0125409D02*
X0174024Y0125409D01*
X0174024Y0125017D02*
X0173630Y0125017D01*
X0173630Y0124624D02*
X0174024Y0124624D01*
X0174024Y0124232D02*
X0173630Y0124232D01*
X0173630Y0123840D02*
X0174024Y0123840D01*
X0174024Y0123448D02*
X0173630Y0123448D01*
X0173630Y0123056D02*
X0174024Y0123056D01*
X0174024Y0122663D02*
X0173630Y0122663D01*
X0177373Y0122663D02*
X0275047Y0122663D01*
X0275047Y0123056D02*
X0178336Y0123056D01*
X0178898Y0123448D02*
X0275047Y0123448D01*
X0275047Y0123840D02*
X0179290Y0123840D01*
X0179581Y0124232D02*
X0275047Y0124232D01*
X0275047Y0124624D02*
X0179823Y0124624D01*
X0179986Y0125017D02*
X0275047Y0125017D01*
X0275047Y0125409D02*
X0180111Y0125409D01*
X0180190Y0125801D02*
X0275047Y0125801D01*
X0275047Y0121487D02*
X0146398Y0121487D01*
X0146398Y0121095D02*
X0275047Y0121095D01*
X0275047Y0120702D02*
X0177334Y0120702D01*
X0177296Y0120718D02*
X0178903Y0120053D01*
X0180133Y0118823D01*
X0180798Y0117216D01*
X0180798Y0115477D01*
X0180133Y0113870D01*
X0178903Y0112640D01*
X0177296Y0111975D01*
X0170357Y0111975D01*
X0168750Y0112640D01*
X0167521Y0113870D01*
X0166855Y0115477D01*
X0166855Y0117216D01*
X0167521Y0118823D01*
X0168750Y0120053D01*
X0170357Y0120718D01*
X0177296Y0120718D01*
X0178281Y0120310D02*
X0275047Y0120310D01*
X0275047Y0119918D02*
X0179038Y0119918D01*
X0179430Y0119526D02*
X0275047Y0119526D01*
X0275047Y0119133D02*
X0179822Y0119133D01*
X0180167Y0118741D02*
X0275047Y0118741D01*
X0275047Y0118349D02*
X0180329Y0118349D01*
X0180492Y0117957D02*
X0275047Y0117957D01*
X0275047Y0117565D02*
X0180654Y0117565D01*
X0180798Y0117172D02*
X0275047Y0117172D01*
X0275047Y0116780D02*
X0180798Y0116780D01*
X0180798Y0116388D02*
X0275047Y0116388D01*
X0275047Y0115996D02*
X0180798Y0115996D01*
X0180798Y0115604D02*
X0275047Y0115604D01*
X0275047Y0115211D02*
X0180688Y0115211D01*
X0180526Y0114819D02*
X0275047Y0114819D01*
X0275047Y0114427D02*
X0180364Y0114427D01*
X0180201Y0114035D02*
X0275047Y0114035D01*
X0275047Y0113643D02*
X0179905Y0113643D01*
X0179513Y0113250D02*
X0275047Y0113250D01*
X0275047Y0112858D02*
X0179121Y0112858D01*
X0178482Y0112466D02*
X0275047Y0112466D01*
X0275047Y0112074D02*
X0177535Y0112074D01*
X0177296Y0110718D02*
X0170357Y0110718D01*
X0168750Y0110053D01*
X0167521Y0108823D01*
X0166855Y0107216D01*
X0166855Y0105477D01*
X0167521Y0103870D01*
X0168750Y0102640D01*
X0170357Y0101975D01*
X0177296Y0101975D01*
X0178787Y0102592D01*
X0178787Y0100100D01*
X0177296Y0100718D01*
X0170357Y0100718D01*
X0168750Y0100053D01*
X0167521Y0098823D01*
X0166855Y0097216D01*
X0166855Y0095477D01*
X0167521Y0093870D01*
X0168750Y0092640D01*
X0170357Y0091975D01*
X0177296Y0091975D01*
X0178903Y0092640D01*
X0180133Y0093870D01*
X0180735Y0095323D01*
X0189167Y0095323D01*
X0190205Y0096361D01*
X0190205Y0105702D01*
X0189167Y0106740D01*
X0180798Y0106740D01*
X0180798Y0107216D01*
X0180133Y0108823D01*
X0178903Y0110053D01*
X0177296Y0110718D01*
X0177811Y0110505D02*
X0275047Y0110505D01*
X0275047Y0110897D02*
X0160945Y0110897D01*
X0161337Y0110505D02*
X0169842Y0110505D01*
X0168895Y0110113D02*
X0161729Y0110113D01*
X0162121Y0109720D02*
X0168418Y0109720D01*
X0168026Y0109328D02*
X0162513Y0109328D01*
X0162906Y0108936D02*
X0167634Y0108936D01*
X0167405Y0108544D02*
X0163298Y0108544D01*
X0163690Y0108152D02*
X0167243Y0108152D01*
X0167080Y0107759D02*
X0164082Y0107759D01*
X0164334Y0107367D02*
X0166918Y0107367D01*
X0166855Y0106975D02*
X0164497Y0106975D01*
X0164627Y0106583D02*
X0166855Y0106583D01*
X0166855Y0106190D02*
X0164627Y0106190D01*
X0164627Y0105798D02*
X0166855Y0105798D01*
X0166884Y0105406D02*
X0164627Y0105406D01*
X0164627Y0105014D02*
X0167047Y0105014D01*
X0167209Y0104622D02*
X0164627Y0104622D01*
X0164627Y0104229D02*
X0167372Y0104229D01*
X0167554Y0103837D02*
X0164627Y0103837D01*
X0164627Y0103445D02*
X0167946Y0103445D01*
X0168338Y0103053D02*
X0164627Y0103053D01*
X0164627Y0102661D02*
X0168730Y0102661D01*
X0169648Y0102268D02*
X0164627Y0102268D01*
X0164627Y0101876D02*
X0178787Y0101876D01*
X0178787Y0101484D02*
X0164627Y0101484D01*
X0164627Y0101092D02*
X0178787Y0101092D01*
X0178787Y0100700D02*
X0177341Y0100700D01*
X0178288Y0100307D02*
X0178787Y0100307D01*
X0178787Y0102268D02*
X0178005Y0102268D01*
X0180798Y0106975D02*
X0275047Y0106975D01*
X0275047Y0107367D02*
X0180736Y0107367D01*
X0180573Y0107759D02*
X0275047Y0107759D01*
X0275047Y0108152D02*
X0180411Y0108152D01*
X0180248Y0108544D02*
X0275047Y0108544D01*
X0275047Y0108936D02*
X0180020Y0108936D01*
X0179627Y0109328D02*
X0275047Y0109328D01*
X0275047Y0109720D02*
X0179235Y0109720D01*
X0178758Y0110113D02*
X0275047Y0110113D01*
X0275047Y0111289D02*
X0160552Y0111289D01*
X0160160Y0111681D02*
X0275047Y0111681D01*
X0275047Y0106583D02*
X0189324Y0106583D01*
X0189717Y0106190D02*
X0275047Y0106190D01*
X0265891Y0105798D02*
X0190109Y0105798D01*
X0190205Y0105406D02*
X0265499Y0105406D01*
X0265107Y0105014D02*
X0190205Y0105014D01*
X0190205Y0104622D02*
X0265008Y0104622D01*
X0265008Y0104229D02*
X0190205Y0104229D01*
X0190205Y0103837D02*
X0265008Y0103837D01*
X0265008Y0103445D02*
X0190205Y0103445D01*
X0190205Y0103053D02*
X0265008Y0103053D01*
X0265008Y0102661D02*
X0190205Y0102661D01*
X0190205Y0102268D02*
X0265008Y0102268D01*
X0265008Y0101876D02*
X0190205Y0101876D01*
X0190205Y0101484D02*
X0265008Y0101484D01*
X0265008Y0101092D02*
X0190205Y0101092D01*
X0190205Y0100700D02*
X0265008Y0100700D01*
X0265008Y0100307D02*
X0190205Y0100307D01*
X0190205Y0099915D02*
X0265008Y0099915D01*
X0265008Y0099523D02*
X0190205Y0099523D01*
X0190205Y0099131D02*
X0265008Y0099131D01*
X0265008Y0098738D02*
X0190205Y0098738D01*
X0190205Y0098346D02*
X0265008Y0098346D01*
X0265008Y0097954D02*
X0190205Y0097954D01*
X0190205Y0097562D02*
X0265008Y0097562D01*
X0265008Y0097170D02*
X0190205Y0097170D01*
X0190205Y0096777D02*
X0265008Y0096777D01*
X0265008Y0096385D02*
X0190205Y0096385D01*
X0189837Y0095993D02*
X0197609Y0095993D01*
X0196662Y0095601D02*
X0189445Y0095601D01*
X0194192Y0092463D02*
X0194917Y0092463D01*
X0194917Y0092855D02*
X0179118Y0092855D01*
X0179510Y0093247D02*
X0194971Y0093247D01*
X0195133Y0093640D02*
X0179902Y0093640D01*
X0180200Y0094032D02*
X0195296Y0094032D01*
X0195458Y0094424D02*
X0180362Y0094424D01*
X0180525Y0094816D02*
X0195808Y0094816D01*
X0196201Y0095209D02*
X0180687Y0095209D01*
X0180312Y0092463D02*
X0178475Y0092463D01*
X0177528Y0092071D02*
X0179920Y0092071D01*
X0179575Y0091679D02*
X0164627Y0091679D01*
X0164627Y0092071D02*
X0170125Y0092071D01*
X0169178Y0092463D02*
X0164627Y0092463D01*
X0164627Y0092855D02*
X0168535Y0092855D01*
X0168143Y0093247D02*
X0164627Y0093247D01*
X0164627Y0093640D02*
X0167751Y0093640D01*
X0167454Y0094032D02*
X0164627Y0094032D01*
X0164627Y0094424D02*
X0167291Y0094424D01*
X0167129Y0094816D02*
X0164627Y0094816D01*
X0164627Y0095209D02*
X0166966Y0095209D01*
X0166855Y0095601D02*
X0164627Y0095601D01*
X0164627Y0095993D02*
X0166855Y0095993D01*
X0166855Y0096385D02*
X0164627Y0096385D01*
X0164627Y0096777D02*
X0166855Y0096777D01*
X0166855Y0097170D02*
X0164627Y0097170D01*
X0164627Y0097562D02*
X0166998Y0097562D01*
X0167161Y0097954D02*
X0164627Y0097954D01*
X0164627Y0098346D02*
X0167323Y0098346D01*
X0167486Y0098738D02*
X0164627Y0098738D01*
X0164627Y0099131D02*
X0167829Y0099131D01*
X0168221Y0099523D02*
X0164627Y0099523D01*
X0164627Y0099915D02*
X0168613Y0099915D01*
X0169365Y0100307D02*
X0164627Y0100307D01*
X0164627Y0100700D02*
X0170312Y0100700D01*
X0169835Y0090502D02*
X0165198Y0090502D01*
X0165590Y0090110D02*
X0168889Y0090110D01*
X0168415Y0089718D02*
X0165982Y0089718D01*
X0166374Y0089325D02*
X0168023Y0089325D01*
X0167631Y0088933D02*
X0166767Y0088933D01*
X0164806Y0090894D02*
X0179575Y0090894D01*
X0179575Y0090502D02*
X0177818Y0090502D01*
X0178765Y0090110D02*
X0179575Y0090110D01*
X0179575Y0089718D02*
X0179238Y0089718D01*
X0179575Y0091286D02*
X0164627Y0091286D01*
X0176398Y0081975D02*
X0176398Y0076939D01*
X0179575Y0073763D01*
X0179575Y0074009D01*
X0179628Y0074063D01*
X0179575Y0074117D01*
X0179575Y0079915D01*
X0179628Y0079968D01*
X0179575Y0080022D01*
X0179575Y0083312D01*
X0178903Y0082640D01*
X0177296Y0081975D01*
X0176398Y0081975D01*
X0176398Y0081873D02*
X0179575Y0081873D01*
X0179575Y0081481D02*
X0176398Y0081481D01*
X0176398Y0081089D02*
X0179575Y0081089D01*
X0179575Y0080697D02*
X0176398Y0080697D01*
X0176398Y0080304D02*
X0179575Y0080304D01*
X0179575Y0079912D02*
X0176398Y0079912D01*
X0176398Y0079520D02*
X0179575Y0079520D01*
X0179575Y0079128D02*
X0176398Y0079128D01*
X0176398Y0078736D02*
X0179575Y0078736D01*
X0179575Y0078343D02*
X0176398Y0078343D01*
X0176398Y0077951D02*
X0179575Y0077951D01*
X0179575Y0077559D02*
X0176398Y0077559D01*
X0176398Y0077167D02*
X0179575Y0077167D01*
X0179575Y0076775D02*
X0176563Y0076775D01*
X0176955Y0076382D02*
X0179575Y0076382D01*
X0179575Y0075990D02*
X0177347Y0075990D01*
X0177740Y0075598D02*
X0179575Y0075598D01*
X0179575Y0075206D02*
X0178132Y0075206D01*
X0178524Y0074814D02*
X0179575Y0074814D01*
X0179575Y0074421D02*
X0178916Y0074421D01*
X0179309Y0074029D02*
X0179594Y0074029D01*
X0179575Y0082266D02*
X0177998Y0082266D01*
X0178921Y0082658D02*
X0179575Y0082658D01*
X0179575Y0083050D02*
X0179313Y0083050D01*
X0194929Y0085795D02*
X0199780Y0085795D01*
X0200292Y0086188D02*
X0194929Y0086188D01*
X0196422Y0086580D02*
X0201239Y0086580D01*
X0203186Y0086580D02*
X0275047Y0086580D01*
X0275047Y0086972D02*
X0196908Y0086972D01*
X0197300Y0087364D02*
X0275047Y0087364D01*
X0275047Y0087757D02*
X0197693Y0087757D01*
X0198085Y0088149D02*
X0275047Y0088149D01*
X0275047Y0088541D02*
X0198477Y0088541D01*
X0200178Y0088933D02*
X0275047Y0088933D01*
X0275047Y0089325D02*
X0200932Y0089325D01*
X0201324Y0089718D02*
X0275047Y0089718D01*
X0275047Y0090110D02*
X0201716Y0090110D01*
X0201957Y0090502D02*
X0275047Y0090502D01*
X0275047Y0090894D02*
X0202120Y0090894D01*
X0202282Y0091286D02*
X0275047Y0091286D01*
X0275047Y0091679D02*
X0202422Y0091679D01*
X0202422Y0092071D02*
X0275047Y0092071D01*
X0275047Y0092463D02*
X0202422Y0092463D01*
X0202422Y0092855D02*
X0275047Y0092855D01*
X0275047Y0093247D02*
X0202368Y0093247D01*
X0202205Y0093640D02*
X0275047Y0093640D01*
X0275047Y0094032D02*
X0202043Y0094032D01*
X0201880Y0094424D02*
X0275047Y0094424D01*
X0275047Y0086188D02*
X0204133Y0086188D01*
X0204646Y0085795D02*
X0275047Y0085795D01*
X0275047Y0085403D02*
X0205038Y0085403D01*
X0205409Y0085011D02*
X0275047Y0085011D01*
X0275047Y0084619D02*
X0205571Y0084619D01*
X0205734Y0084227D02*
X0275047Y0084227D01*
X0275047Y0083834D02*
X0205896Y0083834D01*
X0205965Y0083442D02*
X0275047Y0083442D01*
X0275047Y0083050D02*
X0205965Y0083050D01*
X0205965Y0082658D02*
X0275047Y0082658D01*
X0275047Y0082266D02*
X0205965Y0082266D01*
X0205840Y0081873D02*
X0265982Y0081873D01*
X0265590Y0081481D02*
X0205678Y0081481D01*
X0205516Y0081089D02*
X0265198Y0081089D01*
X0265008Y0080697D02*
X0205295Y0080697D01*
X0204903Y0080304D02*
X0265008Y0080304D01*
X0265008Y0079912D02*
X0204511Y0079912D01*
X0203808Y0079520D02*
X0265008Y0079520D01*
X0265008Y0079128D02*
X0194929Y0079128D01*
X0194929Y0079520D02*
X0200617Y0079520D01*
X0199914Y0079912D02*
X0194929Y0079912D01*
X0194929Y0080304D02*
X0199522Y0080304D01*
X0194929Y0078736D02*
X0265008Y0078736D01*
X0265008Y0078343D02*
X0194929Y0078343D01*
X0194929Y0077951D02*
X0265008Y0077951D01*
X0265008Y0077559D02*
X0194929Y0077559D01*
X0194929Y0077167D02*
X0265008Y0077167D01*
X0265008Y0076775D02*
X0194929Y0076775D01*
X0194929Y0076382D02*
X0265008Y0076382D01*
X0265008Y0075990D02*
X0194929Y0075990D01*
X0194929Y0075598D02*
X0265008Y0075598D01*
X0265008Y0075206D02*
X0194929Y0075206D01*
X0194929Y0074814D02*
X0265008Y0074814D01*
X0265008Y0074421D02*
X0194929Y0074421D01*
X0194909Y0074029D02*
X0265008Y0074029D01*
X0265008Y0073637D02*
X0194929Y0073637D01*
X0194929Y0073245D02*
X0265008Y0073245D01*
X0265008Y0072852D02*
X0194929Y0072852D01*
X0194929Y0072460D02*
X0265008Y0072460D01*
X0265008Y0072068D02*
X0194929Y0072068D01*
X0194929Y0071676D02*
X0265008Y0071676D01*
X0265282Y0071284D02*
X0194929Y0071284D01*
X0194929Y0070891D02*
X0265674Y0070891D01*
X0275047Y0070499D02*
X0194929Y0070499D01*
X0194929Y0070107D02*
X0275047Y0070107D01*
X0275047Y0069715D02*
X0194929Y0069715D01*
X0194929Y0069323D02*
X0275047Y0069323D01*
X0275047Y0068930D02*
X0194929Y0068930D01*
X0194929Y0068538D02*
X0275047Y0068538D01*
X0275047Y0068146D02*
X0194864Y0068146D01*
X0194472Y0067754D02*
X0275047Y0067754D01*
X0275047Y0067361D02*
X0194354Y0067361D01*
X0194354Y0066969D02*
X0275047Y0066969D01*
X0275047Y0066577D02*
X0194354Y0066577D01*
X0194354Y0066185D02*
X0275047Y0066185D01*
X0275047Y0065793D02*
X0194354Y0065793D01*
X0194354Y0064616D02*
X0275047Y0064616D01*
X0275047Y0064224D02*
X0194354Y0064224D01*
X0194354Y0063832D02*
X0275047Y0063832D01*
X0275047Y0063439D02*
X0194354Y0063439D01*
X0194354Y0063047D02*
X0275047Y0063047D01*
X0275047Y0062655D02*
X0194294Y0062655D01*
X0187449Y0065008D02*
X0275047Y0065008D01*
X0275047Y0065400D02*
X0187449Y0065400D01*
X0194584Y0092071D02*
X0194733Y0092071D01*
X0199729Y0095993D02*
X0265008Y0095993D01*
X0265008Y0095601D02*
X0200676Y0095601D01*
X0201138Y0095209D02*
X0265373Y0095209D01*
X0265765Y0094816D02*
X0201530Y0094816D01*
X0170118Y0112074D02*
X0159768Y0112074D01*
X0159376Y0112466D02*
X0169172Y0112466D01*
X0168533Y0112858D02*
X0158983Y0112858D01*
X0158591Y0113250D02*
X0168140Y0113250D01*
X0167748Y0113643D02*
X0158199Y0113643D01*
X0157807Y0114035D02*
X0167452Y0114035D01*
X0167290Y0114427D02*
X0157415Y0114427D01*
X0157022Y0114819D02*
X0167128Y0114819D01*
X0166965Y0115211D02*
X0156630Y0115211D01*
X0156238Y0115604D02*
X0166855Y0115604D01*
X0166855Y0115996D02*
X0155846Y0115996D01*
X0155454Y0116388D02*
X0166855Y0116388D01*
X0166855Y0116780D02*
X0155061Y0116780D01*
X0154669Y0117172D02*
X0166855Y0117172D01*
X0167000Y0117565D02*
X0154277Y0117565D01*
X0153885Y0117957D02*
X0167162Y0117957D01*
X0167324Y0118349D02*
X0153493Y0118349D01*
X0152797Y0118741D02*
X0167487Y0118741D01*
X0167831Y0119133D02*
X0149822Y0119133D01*
X0149430Y0119526D02*
X0168224Y0119526D01*
X0168616Y0119918D02*
X0149038Y0119918D01*
X0148281Y0120310D02*
X0169372Y0120310D01*
X0170319Y0120702D02*
X0147334Y0120702D01*
X0149905Y0113643D02*
X0150925Y0113643D01*
X0151318Y0113250D02*
X0149513Y0113250D01*
X0149121Y0112858D02*
X0151710Y0112858D01*
X0152102Y0112466D02*
X0148482Y0112466D01*
X0147535Y0112074D02*
X0152494Y0112074D01*
X0152886Y0111681D02*
X0122107Y0111681D01*
X0122107Y0111289D02*
X0153279Y0111289D01*
X0149309Y0102661D02*
X0148923Y0102661D01*
X0148210Y0089718D02*
X0151216Y0089718D01*
X0151216Y0089325D02*
X0148803Y0089325D01*
X0149210Y0088933D02*
X0151216Y0088933D01*
X0151216Y0088541D02*
X0149527Y0088541D01*
X0149789Y0088149D02*
X0151216Y0088149D01*
X0151216Y0087757D02*
X0149952Y0087757D01*
X0150096Y0087364D02*
X0151216Y0087364D01*
X0151216Y0086972D02*
X0150174Y0086972D01*
X0150224Y0086580D02*
X0151216Y0086580D01*
X0131386Y0106975D02*
X0130992Y0106975D01*
X0130992Y0107367D02*
X0131386Y0107367D01*
X0131386Y0107759D02*
X0130992Y0107759D01*
X0130992Y0108152D02*
X0131386Y0108152D01*
X0131386Y0108544D02*
X0130992Y0108544D01*
X0130992Y0108936D02*
X0131386Y0108936D01*
X0131386Y0109328D02*
X0130992Y0109328D01*
X0130992Y0109720D02*
X0131386Y0109720D01*
X0131386Y0110113D02*
X0130992Y0110113D01*
X0130992Y0126978D02*
X0131386Y0126978D01*
X0131386Y0127370D02*
X0130992Y0127370D01*
X0130992Y0127762D02*
X0131386Y0127762D01*
X0131386Y0128154D02*
X0130992Y0128154D01*
X0130992Y0128547D02*
X0131386Y0128547D01*
X0131386Y0128939D02*
X0130992Y0128939D01*
X0130992Y0129331D02*
X0131386Y0129331D01*
X0131386Y0129723D02*
X0130992Y0129723D01*
X0130992Y0130115D02*
X0131386Y0130115D01*
X0127481Y0130115D02*
X0126790Y0129829D01*
X0137889Y0156394D02*
X0148032Y0156394D01*
X0148425Y0156786D02*
X0137497Y0156786D01*
X0143630Y0157178D02*
X0144024Y0157178D01*
X0144024Y0156959D02*
X0146801Y0156959D01*
X0147534Y0157105D01*
X0148225Y0157391D01*
X0148847Y0157807D01*
X0149376Y0158336D01*
X0149791Y0158957D01*
X0150078Y0159648D01*
X0150224Y0160382D01*
X0150224Y0160559D01*
X0144024Y0160559D01*
X0144024Y0156959D01*
X0144024Y0157570D02*
X0143630Y0157570D01*
X0143630Y0157962D02*
X0144024Y0157962D01*
X0144024Y0158355D02*
X0143630Y0158355D01*
X0143630Y0158747D02*
X0144024Y0158747D01*
X0144024Y0159139D02*
X0143630Y0159139D01*
X0143630Y0159531D02*
X0144024Y0159531D01*
X0144024Y0159924D02*
X0143630Y0159924D01*
X0143630Y0160316D02*
X0144024Y0160316D01*
X0144024Y0161492D02*
X0143630Y0161492D01*
X0143630Y0161885D02*
X0144024Y0161885D01*
X0144024Y0162277D02*
X0143630Y0162277D01*
X0143630Y0162669D02*
X0144024Y0162669D01*
X0144024Y0163061D02*
X0143630Y0163061D01*
X0143630Y0163453D02*
X0144024Y0163453D01*
X0144024Y0163846D02*
X0143630Y0163846D01*
X0143630Y0164238D02*
X0144024Y0164238D01*
X0139858Y0166591D02*
X0134873Y0166591D01*
X0135820Y0166983D02*
X0138911Y0166983D01*
X0138425Y0167376D02*
X0136473Y0167376D01*
X0136865Y0167768D02*
X0138032Y0167768D01*
X0137640Y0168160D02*
X0137257Y0168160D01*
X0147711Y0157178D02*
X0148817Y0157178D01*
X0148493Y0157570D02*
X0149209Y0157570D01*
X0149003Y0157962D02*
X0149601Y0157962D01*
X0149389Y0158355D02*
X0149993Y0158355D01*
X0149651Y0158747D02*
X0150386Y0158747D01*
X0150778Y0159139D02*
X0149867Y0159139D01*
X0150029Y0159531D02*
X0151170Y0159531D01*
X0151216Y0159924D02*
X0150132Y0159924D01*
X0150210Y0160316D02*
X0151216Y0160316D01*
X0164627Y0166591D02*
X0169858Y0166591D01*
X0168911Y0166983D02*
X0164627Y0166983D01*
X0164627Y0167376D02*
X0168425Y0167376D01*
X0168032Y0167768D02*
X0164627Y0167768D01*
X0164627Y0168160D02*
X0167640Y0168160D01*
X0167408Y0168552D02*
X0164627Y0168552D01*
X0164627Y0168944D02*
X0167245Y0168944D01*
X0167083Y0169337D02*
X0164627Y0169337D01*
X0164627Y0169729D02*
X0166920Y0169729D01*
X0166855Y0170121D02*
X0164627Y0170121D01*
X0164627Y0170513D02*
X0166855Y0170513D01*
X0166855Y0170905D02*
X0164627Y0170905D01*
X0164627Y0171298D02*
X0166855Y0171298D01*
X0166882Y0171690D02*
X0164627Y0171690D01*
X0164627Y0172082D02*
X0167044Y0172082D01*
X0167207Y0172474D02*
X0164627Y0172474D01*
X0164627Y0172867D02*
X0167369Y0172867D01*
X0167547Y0173259D02*
X0164627Y0173259D01*
X0164627Y0173651D02*
X0167939Y0173651D01*
X0168332Y0174043D02*
X0164627Y0174043D01*
X0164627Y0174435D02*
X0168724Y0174435D01*
X0194908Y0160316D02*
X0199890Y0160316D01*
X0199498Y0159924D02*
X0194929Y0159924D01*
X0195742Y0160708D02*
X0200560Y0160708D01*
X0199804Y0154433D02*
X0194929Y0154433D01*
X0194929Y0154040D02*
X0200350Y0154040D01*
X0180181Y0137175D02*
X0091331Y0137175D01*
X0092517Y0161885D02*
X0093733Y0161885D01*
X0092842Y0162277D02*
X0092354Y0162277D01*
X0092450Y0162669D02*
X0092192Y0162669D01*
X0092058Y0163061D02*
X0092029Y0163061D01*
X0089527Y0165592D02*
X0089322Y0165677D01*
X0089407Y0165712D01*
X0089527Y0165592D01*
X0093056Y0169337D02*
X0095116Y0169337D01*
X0095224Y0169076D02*
X0094938Y0169767D01*
X0094792Y0170500D01*
X0094792Y0170677D01*
X0100992Y0170677D01*
X0100992Y0167077D01*
X0098215Y0167077D01*
X0097481Y0167223D01*
X0096790Y0167509D01*
X0096169Y0167925D01*
X0095640Y0168454D01*
X0095224Y0169076D01*
X0095312Y0168944D02*
X0093448Y0168944D01*
X0093841Y0168552D02*
X0095574Y0168552D01*
X0095933Y0168160D02*
X0094233Y0168160D01*
X0094625Y0167768D02*
X0096404Y0167768D01*
X0097113Y0167376D02*
X0095017Y0167376D01*
X0094954Y0169729D02*
X0092664Y0169729D01*
X0092566Y0170121D02*
X0094868Y0170121D01*
X0094792Y0170513D02*
X0092566Y0170513D01*
X0092566Y0170905D02*
X0100992Y0170905D01*
X0100992Y0170513D02*
X0101386Y0170513D01*
X0101386Y0170121D02*
X0100992Y0170121D01*
X0100992Y0169729D02*
X0101386Y0169729D01*
X0101386Y0169337D02*
X0100992Y0169337D01*
X0100992Y0168944D02*
X0101386Y0168944D01*
X0101386Y0168552D02*
X0100992Y0168552D01*
X0100992Y0168160D02*
X0101386Y0168160D01*
X0101386Y0167768D02*
X0100992Y0167768D01*
X0100992Y0167376D02*
X0101386Y0167376D01*
X0101386Y0170905D02*
X0122403Y0170905D01*
X0117009Y0176789D02*
X0105350Y0176789D01*
X0106278Y0177181D02*
X0116964Y0177181D01*
X0116964Y0177573D02*
X0106671Y0177573D01*
X0107063Y0177965D02*
X0116964Y0177965D01*
X0116964Y0178358D02*
X0107455Y0178358D01*
X0107641Y0178750D02*
X0116964Y0178750D01*
X0116964Y0179142D02*
X0107803Y0179142D01*
X0107966Y0179534D02*
X0116964Y0179534D01*
X0116964Y0179926D02*
X0108128Y0179926D01*
X0108161Y0180319D02*
X0116964Y0180319D01*
X0116964Y0180711D02*
X0108161Y0180711D01*
X0108161Y0181103D02*
X0116964Y0181103D01*
X0116964Y0181495D02*
X0108161Y0181495D01*
X0108101Y0181887D02*
X0116964Y0181887D01*
X0116964Y0182280D02*
X0107939Y0182280D01*
X0107776Y0182672D02*
X0116964Y0182672D01*
X0116964Y0183064D02*
X0107614Y0183064D01*
X0107389Y0183456D02*
X0116964Y0183456D01*
X0116964Y0183848D02*
X0107564Y0183848D01*
X0107956Y0184241D02*
X0116964Y0184241D01*
X0116964Y0184633D02*
X0108348Y0184633D01*
X0108741Y0185025D02*
X0116964Y0185025D01*
X0116964Y0185417D02*
X0109133Y0185417D01*
X0109525Y0185810D02*
X0116964Y0185810D01*
X0116964Y0186202D02*
X0109917Y0186202D01*
X0110310Y0186594D02*
X0116964Y0186594D01*
X0116964Y0186986D02*
X0110702Y0186986D01*
X0111094Y0187378D02*
X0116964Y0187378D01*
X0116964Y0187771D02*
X0111486Y0187771D01*
X0111878Y0188163D02*
X0116964Y0188163D01*
X0110108Y0193262D02*
X0107532Y0193262D01*
X0107694Y0192869D02*
X0109311Y0192869D01*
X0108919Y0192477D02*
X0107857Y0192477D01*
X0108019Y0192085D02*
X0108527Y0192085D01*
X0102644Y0186202D02*
X0095482Y0186202D01*
X0095090Y0186594D02*
X0097498Y0186594D01*
X0096551Y0186986D02*
X0094698Y0186986D01*
X0094306Y0187378D02*
X0095902Y0187378D01*
X0095510Y0187771D02*
X0093913Y0187771D01*
X0093521Y0188163D02*
X0095118Y0188163D01*
X0095875Y0185810D02*
X0102251Y0185810D01*
X0101859Y0185417D02*
X0096267Y0185417D01*
X0096659Y0185025D02*
X0097187Y0185025D01*
X0097265Y0174435D02*
X0091074Y0174435D01*
X0091467Y0174043D02*
X0096498Y0174043D01*
X0095996Y0173651D02*
X0091785Y0173651D01*
X0091948Y0173259D02*
X0095616Y0173259D01*
X0095354Y0172867D02*
X0092110Y0172867D01*
X0092273Y0172474D02*
X0095142Y0172474D01*
X0094980Y0172082D02*
X0092435Y0172082D01*
X0092566Y0171690D02*
X0094880Y0171690D01*
X0094802Y0171298D02*
X0092566Y0171298D01*
X0100992Y0171298D02*
X0101386Y0171298D01*
X0101386Y0171690D02*
X0100992Y0171690D01*
X0100992Y0172082D02*
X0101386Y0172082D01*
X0101386Y0172474D02*
X0100992Y0172474D01*
X0100992Y0172867D02*
X0101386Y0172867D01*
X0101386Y0173259D02*
X0100992Y0173259D01*
X0100992Y0173651D02*
X0101386Y0173651D01*
X0101386Y0174043D02*
X0100992Y0174043D01*
X0100992Y0174435D02*
X0101386Y0174435D01*
X0083140Y0211303D02*
X0080165Y0211303D01*
X0080165Y0211696D02*
X0082747Y0211696D01*
X0082414Y0212088D02*
X0080165Y0212088D01*
X0080165Y0212480D02*
X0082252Y0212480D01*
X0082089Y0212872D02*
X0080165Y0212872D01*
X0080165Y0213264D02*
X0081927Y0213264D01*
X0081764Y0213657D02*
X0080165Y0213657D01*
X0080165Y0214049D02*
X0081623Y0214049D01*
X0081623Y0214441D02*
X0080165Y0214441D01*
X0080165Y0214833D02*
X0081623Y0214833D01*
X0081623Y0215225D02*
X0080165Y0215225D01*
X0080165Y0215618D02*
X0081623Y0215618D01*
X0081623Y0216010D02*
X0080165Y0216010D01*
X0080165Y0216402D02*
X0081717Y0216402D01*
X0081879Y0216794D02*
X0080165Y0216794D01*
X0080165Y0217187D02*
X0082042Y0217187D01*
X0082204Y0217579D02*
X0080165Y0217579D01*
X0080165Y0217971D02*
X0082367Y0217971D01*
X0082633Y0218363D02*
X0080165Y0218363D01*
X0080165Y0218755D02*
X0083025Y0218755D01*
X0083417Y0219148D02*
X0080165Y0219148D01*
X0080165Y0219540D02*
X0083810Y0219540D01*
X0084494Y0219932D02*
X0080165Y0219932D01*
X0080165Y0220324D02*
X0084294Y0220324D01*
X0083727Y0220716D02*
X0080165Y0220716D01*
X0080165Y0221109D02*
X0083334Y0221109D01*
X0082942Y0221501D02*
X0080165Y0221501D01*
X0080165Y0221893D02*
X0082550Y0221893D01*
X0082332Y0222285D02*
X0080165Y0222285D01*
X0080165Y0222677D02*
X0082170Y0222677D01*
X0082007Y0223070D02*
X0080165Y0223070D01*
X0080165Y0223462D02*
X0081845Y0223462D01*
X0081683Y0223854D02*
X0080165Y0223854D01*
X0080165Y0224246D02*
X0081623Y0224246D01*
X0081623Y0224639D02*
X0080165Y0224639D01*
X0080165Y0225031D02*
X0081623Y0225031D01*
X0081623Y0225423D02*
X0080165Y0225423D01*
X0080165Y0225815D02*
X0081623Y0225815D01*
X0081636Y0226207D02*
X0080165Y0226207D01*
X0080165Y0226600D02*
X0081799Y0226600D01*
X0081961Y0226992D02*
X0080165Y0226992D01*
X0080165Y0227384D02*
X0082124Y0227384D01*
X0082286Y0227776D02*
X0080165Y0227776D01*
X0080165Y0228168D02*
X0082449Y0228168D01*
X0082830Y0228561D02*
X0080165Y0228561D01*
X0080165Y0228953D02*
X0083223Y0228953D01*
X0083615Y0229345D02*
X0080165Y0229345D01*
X0080165Y0229737D02*
X0084024Y0229737D01*
X0083921Y0230522D02*
X0080165Y0230522D01*
X0080165Y0230914D02*
X0083529Y0230914D01*
X0083137Y0231306D02*
X0080165Y0231306D01*
X0080165Y0231698D02*
X0082745Y0231698D01*
X0082413Y0232091D02*
X0080165Y0232091D01*
X0080165Y0232483D02*
X0082251Y0232483D01*
X0082088Y0232875D02*
X0080165Y0232875D01*
X0080165Y0233267D02*
X0081926Y0233267D01*
X0081763Y0233659D02*
X0080165Y0233659D01*
X0080165Y0234052D02*
X0081623Y0234052D01*
X0081623Y0234444D02*
X0080165Y0234444D01*
X0080165Y0234836D02*
X0081623Y0234836D01*
X0081623Y0235228D02*
X0080165Y0235228D01*
X0080165Y0235620D02*
X0081623Y0235620D01*
X0081623Y0236013D02*
X0080165Y0236013D01*
X0080165Y0236405D02*
X0081718Y0236405D01*
X0081881Y0236797D02*
X0080165Y0236797D01*
X0080165Y0237189D02*
X0082043Y0237189D01*
X0082205Y0237582D02*
X0080165Y0237582D01*
X0080165Y0237974D02*
X0082368Y0237974D01*
X0082636Y0238366D02*
X0080165Y0238366D01*
X0080165Y0238758D02*
X0083028Y0238758D01*
X0083420Y0239150D02*
X0080165Y0239150D01*
X0080165Y0239543D02*
X0083812Y0239543D01*
X0084501Y0239935D02*
X0080165Y0239935D01*
X0080165Y0240327D02*
X0084287Y0240327D01*
X0083724Y0240719D02*
X0080165Y0240719D01*
X0080165Y0241111D02*
X0083332Y0241111D01*
X0082939Y0241504D02*
X0080165Y0241504D01*
X0080165Y0241896D02*
X0082547Y0241896D01*
X0082331Y0242288D02*
X0080165Y0242288D01*
X0080165Y0242680D02*
X0082169Y0242680D01*
X0082006Y0243073D02*
X0080165Y0243073D01*
X0080165Y0243465D02*
X0081844Y0243465D01*
X0081681Y0243857D02*
X0080165Y0243857D01*
X0080165Y0244249D02*
X0081623Y0244249D01*
X0081623Y0244641D02*
X0080165Y0244641D01*
X0080165Y0245034D02*
X0081623Y0245034D01*
X0081623Y0245426D02*
X0080165Y0245426D01*
X0080165Y0245818D02*
X0081623Y0245818D01*
X0081637Y0246210D02*
X0080165Y0246210D01*
X0080165Y0246602D02*
X0081800Y0246602D01*
X0081962Y0246995D02*
X0080165Y0246995D01*
X0080165Y0247387D02*
X0082125Y0247387D01*
X0082287Y0247779D02*
X0080165Y0247779D01*
X0080165Y0248171D02*
X0082450Y0248171D01*
X0082833Y0248563D02*
X0080165Y0248563D01*
X0080165Y0248956D02*
X0083225Y0248956D01*
X0083618Y0249348D02*
X0080165Y0249348D01*
X0080165Y0249740D02*
X0084031Y0249740D01*
X0084978Y0250132D02*
X0080165Y0250132D01*
X0080165Y0250525D02*
X0085289Y0250525D01*
X0084503Y0250917D02*
X0080165Y0250917D01*
X0080165Y0251309D02*
X0083963Y0251309D01*
X0083555Y0251701D02*
X0080165Y0251701D01*
X0080165Y0252093D02*
X0083216Y0252093D01*
X0082931Y0252486D02*
X0080165Y0252486D01*
X0080165Y0252878D02*
X0082724Y0252878D01*
X0082536Y0253270D02*
X0080165Y0253270D01*
X0080165Y0253662D02*
X0082408Y0253662D01*
X0082300Y0254054D02*
X0080165Y0254054D01*
X0080165Y0254447D02*
X0082238Y0254447D01*
X0082198Y0254839D02*
X0080165Y0254839D01*
X0080165Y0255231D02*
X0086898Y0255231D01*
X0087291Y0255231D02*
X0093589Y0255231D01*
X0093981Y0254839D02*
X0091991Y0254839D01*
X0091951Y0254447D02*
X0094217Y0254447D01*
X0094366Y0254054D02*
X0091889Y0254054D01*
X0091781Y0253662D02*
X0094529Y0253662D01*
X0094691Y0253270D02*
X0091653Y0253270D01*
X0091465Y0252878D02*
X0094854Y0252878D01*
X0095204Y0252486D02*
X0091258Y0252486D01*
X0090973Y0252093D02*
X0095597Y0252093D01*
X0095989Y0251701D02*
X0090634Y0251701D01*
X0090226Y0251309D02*
X0096761Y0251309D01*
X0097707Y0250917D02*
X0089686Y0250917D01*
X0088900Y0250525D02*
X0117288Y0250525D01*
X0117585Y0250132D02*
X0089211Y0250132D01*
X0090158Y0249740D02*
X0117977Y0249740D01*
X0119154Y0248563D02*
X0105714Y0248563D01*
X0106271Y0248171D02*
X0119546Y0248171D01*
X0119938Y0247779D02*
X0106663Y0247779D01*
X0106950Y0247387D02*
X0120331Y0247387D01*
X0120723Y0246995D02*
X0107190Y0246995D01*
X0107352Y0246602D02*
X0121115Y0246602D01*
X0121507Y0246210D02*
X0107476Y0246210D01*
X0107554Y0245818D02*
X0121899Y0245818D01*
X0125643Y0249348D02*
X0126978Y0249348D01*
X0126079Y0248956D02*
X0126035Y0248956D01*
X0127231Y0261114D02*
X0122107Y0261114D01*
X0122107Y0261506D02*
X0126284Y0261506D01*
X0125791Y0261899D02*
X0122107Y0261899D01*
X0122107Y0262291D02*
X0125399Y0262291D01*
X0135147Y0261114D02*
X0139583Y0261114D01*
X0138703Y0261506D02*
X0136094Y0261506D01*
X0136587Y0261899D02*
X0138311Y0261899D01*
X0137919Y0262291D02*
X0136979Y0262291D01*
X0137371Y0262683D02*
X0137527Y0262683D01*
X0137081Y0268174D02*
X0138053Y0268174D01*
X0138445Y0268566D02*
X0136689Y0268566D01*
X0136296Y0268959D02*
X0138961Y0268959D01*
X0139907Y0269351D02*
X0135393Y0269351D01*
X0140053Y0270920D02*
X0104677Y0270920D01*
X0108161Y0276018D02*
X0124864Y0276018D01*
X0124946Y0276411D02*
X0108054Y0276411D01*
X0107891Y0276803D02*
X0125109Y0276803D01*
X0125300Y0277195D02*
X0107729Y0277195D01*
X0107567Y0277587D02*
X0125562Y0277587D01*
X0125915Y0277979D02*
X0107275Y0277979D01*
X0106883Y0278372D02*
X0126377Y0278372D01*
X0127070Y0278764D02*
X0106491Y0278764D01*
X0097461Y0279548D02*
X0080165Y0279548D01*
X0080165Y0279156D02*
X0096515Y0279156D01*
X0095887Y0278764D02*
X0080165Y0278764D01*
X0080165Y0278372D02*
X0095495Y0278372D01*
X0095102Y0277979D02*
X0080165Y0277979D01*
X0080165Y0277587D02*
X0094811Y0277587D01*
X0094649Y0277195D02*
X0080165Y0277195D01*
X0080165Y0276803D02*
X0094486Y0276803D01*
X0094324Y0276411D02*
X0080165Y0276411D01*
X0080165Y0276018D02*
X0094217Y0276018D01*
X0094217Y0275626D02*
X0080165Y0275626D01*
X0080165Y0275234D02*
X0094217Y0275234D01*
X0094217Y0274842D02*
X0080165Y0274842D01*
X0080165Y0274449D02*
X0094217Y0274449D01*
X0094365Y0274057D02*
X0080165Y0274057D01*
X0080165Y0273665D02*
X0094527Y0273665D01*
X0094690Y0273273D02*
X0080165Y0273273D01*
X0080165Y0272881D02*
X0094852Y0272881D01*
X0095202Y0272488D02*
X0080165Y0272488D01*
X0080165Y0272096D02*
X0095594Y0272096D01*
X0095986Y0271704D02*
X0080165Y0271704D01*
X0080165Y0271312D02*
X0096754Y0271312D01*
X0097701Y0270920D02*
X0080165Y0270920D01*
X0080165Y0270527D02*
X0085932Y0270527D01*
X0084985Y0270135D02*
X0080165Y0270135D01*
X0080165Y0269743D02*
X0084038Y0269743D01*
X0083621Y0269351D02*
X0080165Y0269351D01*
X0080165Y0268959D02*
X0083228Y0268959D01*
X0082836Y0268566D02*
X0080165Y0268566D01*
X0080165Y0268174D02*
X0082451Y0268174D01*
X0082288Y0267782D02*
X0080165Y0267782D01*
X0080165Y0267390D02*
X0082126Y0267390D01*
X0081964Y0266997D02*
X0080165Y0266997D01*
X0080165Y0266605D02*
X0081801Y0266605D01*
X0081639Y0266213D02*
X0080165Y0266213D01*
X0080165Y0265821D02*
X0081623Y0265821D01*
X0081623Y0265429D02*
X0080165Y0265429D01*
X0080165Y0265036D02*
X0081623Y0265036D01*
X0081623Y0264644D02*
X0080165Y0264644D01*
X0080165Y0264252D02*
X0081623Y0264252D01*
X0081680Y0263860D02*
X0080165Y0263860D01*
X0080165Y0263468D02*
X0081843Y0263468D01*
X0082005Y0263075D02*
X0080165Y0263075D01*
X0080165Y0262683D02*
X0082168Y0262683D01*
X0082330Y0262291D02*
X0080165Y0262291D01*
X0080165Y0261899D02*
X0082544Y0261899D01*
X0082937Y0261506D02*
X0080165Y0261506D01*
X0080165Y0261114D02*
X0083329Y0261114D01*
X0083721Y0260722D02*
X0080165Y0260722D01*
X0080165Y0260330D02*
X0084280Y0260330D01*
X0085227Y0259938D02*
X0080165Y0259938D01*
X0080165Y0259545D02*
X0085059Y0259545D01*
X0084361Y0259153D02*
X0080165Y0259153D01*
X0080165Y0258761D02*
X0083844Y0258761D01*
X0083451Y0258369D02*
X0080165Y0258369D01*
X0080165Y0257977D02*
X0083141Y0257977D01*
X0082871Y0257584D02*
X0080165Y0257584D01*
X0080165Y0257192D02*
X0082671Y0257192D01*
X0082502Y0256800D02*
X0080165Y0256800D01*
X0080165Y0256408D02*
X0082375Y0256408D01*
X0082284Y0256016D02*
X0080165Y0256016D01*
X0080165Y0255623D02*
X0082222Y0255623D01*
X0088544Y0259765D02*
X0088906Y0259914D01*
X0089425Y0259395D01*
X0088974Y0259625D01*
X0088544Y0259765D01*
X0089130Y0259545D02*
X0089274Y0259545D01*
X0091518Y0257192D02*
X0091628Y0257192D01*
X0091687Y0256800D02*
X0092020Y0256800D01*
X0091814Y0256408D02*
X0092412Y0256408D01*
X0092804Y0256016D02*
X0091905Y0256016D01*
X0091967Y0255623D02*
X0093197Y0255623D01*
X0096548Y0259545D02*
X0097455Y0259545D01*
X0096156Y0259938D02*
X0101970Y0259938D01*
X0102362Y0260330D02*
X0095764Y0260330D01*
X0095371Y0260722D02*
X0102755Y0260722D01*
X0097231Y0261114D02*
X0094979Y0261114D01*
X0094587Y0261506D02*
X0096284Y0261506D01*
X0095791Y0261899D02*
X0094195Y0261899D01*
X0093803Y0262291D02*
X0095399Y0262291D01*
X0095007Y0262683D02*
X0093410Y0262683D01*
X0093018Y0263075D02*
X0094772Y0263075D01*
X0094609Y0263468D02*
X0092626Y0263468D01*
X0092509Y0263860D02*
X0094447Y0263860D01*
X0094284Y0264252D02*
X0092566Y0264252D01*
X0092566Y0264644D02*
X0094217Y0264644D01*
X0094217Y0265036D02*
X0092566Y0265036D01*
X0092566Y0265429D02*
X0094217Y0265429D01*
X0094217Y0265821D02*
X0092566Y0265821D01*
X0092550Y0266213D02*
X0094242Y0266213D01*
X0094405Y0266605D02*
X0092388Y0266605D01*
X0092225Y0266997D02*
X0094567Y0266997D01*
X0094730Y0267390D02*
X0092063Y0267390D01*
X0091901Y0267782D02*
X0094905Y0267782D01*
X0095297Y0268174D02*
X0091738Y0268174D01*
X0091353Y0268566D02*
X0095689Y0268566D01*
X0096082Y0268959D02*
X0090961Y0268959D01*
X0090568Y0269351D02*
X0096985Y0269351D01*
X0090151Y0269743D02*
X0141255Y0269743D01*
X0141255Y0270135D02*
X0089204Y0270135D01*
X0088257Y0270527D02*
X0141255Y0270527D01*
X0155232Y0265429D02*
X0166855Y0265429D01*
X0166855Y0265036D02*
X0155624Y0265036D01*
X0156016Y0264644D02*
X0166855Y0264644D01*
X0166873Y0264252D02*
X0156409Y0264252D01*
X0156801Y0263860D02*
X0167036Y0263860D01*
X0167198Y0263468D02*
X0157193Y0263468D01*
X0157585Y0263075D02*
X0167361Y0263075D01*
X0167527Y0262683D02*
X0157977Y0262683D01*
X0158370Y0262291D02*
X0167919Y0262291D01*
X0168311Y0261899D02*
X0158762Y0261899D01*
X0159154Y0261506D02*
X0168703Y0261506D01*
X0169583Y0261114D02*
X0159546Y0261114D01*
X0159938Y0260722D02*
X0275047Y0260722D01*
X0275047Y0260330D02*
X0160331Y0260330D01*
X0160723Y0259938D02*
X0275047Y0259938D01*
X0275047Y0259545D02*
X0161115Y0259545D01*
X0161507Y0259153D02*
X0169431Y0259153D01*
X0168750Y0258871D02*
X0167521Y0257642D01*
X0166855Y0256035D01*
X0166855Y0254296D01*
X0167521Y0252689D01*
X0168750Y0251459D01*
X0170357Y0250794D01*
X0177296Y0250794D01*
X0178787Y0251411D01*
X0178787Y0248919D01*
X0177296Y0249537D01*
X0170357Y0249537D01*
X0168750Y0248871D01*
X0167521Y0247642D01*
X0166855Y0246035D01*
X0166855Y0244296D01*
X0167521Y0242689D01*
X0168750Y0241459D01*
X0170357Y0240794D01*
X0177296Y0240794D01*
X0178903Y0241459D01*
X0180133Y0242689D01*
X0180735Y0244142D01*
X0189167Y0244142D01*
X0190205Y0245180D01*
X0190205Y0254521D01*
X0189167Y0255559D01*
X0180798Y0255559D01*
X0180798Y0256035D01*
X0180133Y0257642D01*
X0178903Y0258871D01*
X0177296Y0259537D01*
X0170357Y0259537D01*
X0168750Y0258871D01*
X0168640Y0258761D02*
X0161899Y0258761D01*
X0162292Y0258369D02*
X0168248Y0258369D01*
X0167856Y0257977D02*
X0162684Y0257977D01*
X0163076Y0257584D02*
X0167497Y0257584D01*
X0167334Y0257192D02*
X0163468Y0257192D01*
X0163861Y0256800D02*
X0167172Y0256800D01*
X0167010Y0256408D02*
X0164243Y0256408D01*
X0164405Y0256016D02*
X0166855Y0256016D01*
X0166855Y0255623D02*
X0164567Y0255623D01*
X0164627Y0255231D02*
X0166855Y0255231D01*
X0166855Y0254839D02*
X0164627Y0254839D01*
X0164627Y0254447D02*
X0166855Y0254447D01*
X0166955Y0254054D02*
X0164627Y0254054D01*
X0164627Y0253662D02*
X0167118Y0253662D01*
X0167280Y0253270D02*
X0164627Y0253270D01*
X0164627Y0252878D02*
X0167442Y0252878D01*
X0167724Y0252486D02*
X0164627Y0252486D01*
X0164627Y0252093D02*
X0168116Y0252093D01*
X0168508Y0251701D02*
X0164627Y0251701D01*
X0164627Y0251309D02*
X0169113Y0251309D01*
X0170060Y0250917D02*
X0164627Y0250917D01*
X0164627Y0250525D02*
X0178787Y0250525D01*
X0178787Y0250917D02*
X0177593Y0250917D01*
X0178540Y0251309D02*
X0178787Y0251309D01*
X0178787Y0250132D02*
X0164627Y0250132D01*
X0164627Y0249740D02*
X0178787Y0249740D01*
X0178787Y0249348D02*
X0177753Y0249348D01*
X0178700Y0248956D02*
X0178787Y0248956D01*
X0180617Y0243857D02*
X0196030Y0243857D01*
X0196422Y0244249D02*
X0189274Y0244249D01*
X0189667Y0244641D02*
X0197198Y0244641D01*
X0195638Y0243465D02*
X0180454Y0243465D01*
X0180292Y0243073D02*
X0195388Y0243073D01*
X0195225Y0242680D02*
X0180124Y0242680D01*
X0179732Y0242288D02*
X0195063Y0242288D01*
X0194917Y0241896D02*
X0179340Y0241896D01*
X0178948Y0241504D02*
X0180534Y0241504D01*
X0180141Y0241111D02*
X0178063Y0241111D01*
X0179575Y0240327D02*
X0164627Y0240327D01*
X0164627Y0239935D02*
X0179575Y0239935D01*
X0179575Y0239543D02*
X0164976Y0239543D01*
X0165368Y0239150D02*
X0169424Y0239150D01*
X0168637Y0238758D02*
X0165761Y0238758D01*
X0166153Y0238366D02*
X0168245Y0238366D01*
X0167853Y0237974D02*
X0166545Y0237974D01*
X0166937Y0237582D02*
X0167496Y0237582D01*
X0164627Y0240719D02*
X0179749Y0240719D01*
X0179575Y0239150D02*
X0178230Y0239150D01*
X0179016Y0238758D02*
X0179575Y0238758D01*
X0179575Y0238366D02*
X0179409Y0238366D01*
X0179575Y0232131D02*
X0179575Y0228841D01*
X0179628Y0228787D01*
X0179575Y0228734D01*
X0179575Y0222935D01*
X0179628Y0222882D01*
X0179575Y0222828D01*
X0179575Y0222582D01*
X0176398Y0225758D01*
X0176398Y0230794D01*
X0177296Y0230794D01*
X0178903Y0231459D01*
X0179575Y0232131D01*
X0179575Y0232091D02*
X0179534Y0232091D01*
X0179575Y0231698D02*
X0179142Y0231698D01*
X0179575Y0231306D02*
X0178534Y0231306D01*
X0177587Y0230914D02*
X0179575Y0230914D01*
X0179575Y0230522D02*
X0176398Y0230522D01*
X0176398Y0230130D02*
X0179575Y0230130D01*
X0179575Y0229737D02*
X0176398Y0229737D01*
X0176398Y0229345D02*
X0179575Y0229345D01*
X0179575Y0228953D02*
X0176398Y0228953D01*
X0176398Y0228561D02*
X0179575Y0228561D01*
X0179575Y0228168D02*
X0176398Y0228168D01*
X0176398Y0227776D02*
X0179575Y0227776D01*
X0179575Y0227384D02*
X0176398Y0227384D01*
X0176398Y0226992D02*
X0179575Y0226992D01*
X0179575Y0226600D02*
X0176398Y0226600D01*
X0176398Y0226207D02*
X0179575Y0226207D01*
X0179575Y0225815D02*
X0176398Y0225815D01*
X0176734Y0225423D02*
X0179575Y0225423D01*
X0179575Y0225031D02*
X0177126Y0225031D01*
X0177518Y0224639D02*
X0179575Y0224639D01*
X0179575Y0224246D02*
X0177910Y0224246D01*
X0178302Y0223854D02*
X0179575Y0223854D01*
X0179575Y0223462D02*
X0178695Y0223462D01*
X0179087Y0223070D02*
X0179575Y0223070D01*
X0179575Y0222677D02*
X0179479Y0222677D01*
X0194929Y0222677D02*
X0265008Y0222677D01*
X0265008Y0222285D02*
X0194929Y0222285D01*
X0194929Y0221893D02*
X0265008Y0221893D01*
X0265008Y0221501D02*
X0194929Y0221501D01*
X0194929Y0221109D02*
X0265008Y0221109D01*
X0265008Y0220716D02*
X0194929Y0220716D01*
X0194929Y0220324D02*
X0265060Y0220324D01*
X0265452Y0219932D02*
X0194929Y0219932D01*
X0194929Y0219540D02*
X0265844Y0219540D01*
X0265008Y0223070D02*
X0194929Y0223070D01*
X0194929Y0223462D02*
X0265008Y0223462D01*
X0265008Y0223854D02*
X0194929Y0223854D01*
X0194929Y0224246D02*
X0265008Y0224246D01*
X0265008Y0224639D02*
X0194929Y0224639D01*
X0194929Y0225031D02*
X0265008Y0225031D01*
X0265008Y0225423D02*
X0194929Y0225423D01*
X0194929Y0225815D02*
X0265008Y0225815D01*
X0265008Y0226207D02*
X0194929Y0226207D01*
X0194929Y0226600D02*
X0265008Y0226600D01*
X0265008Y0226992D02*
X0194929Y0226992D01*
X0194929Y0227384D02*
X0265008Y0227384D01*
X0265008Y0227776D02*
X0194929Y0227776D01*
X0194929Y0228168D02*
X0201029Y0228168D01*
X0200085Y0228561D02*
X0194929Y0228561D01*
X0194929Y0228953D02*
X0199693Y0228953D01*
X0203396Y0228168D02*
X0265008Y0228168D01*
X0265008Y0228561D02*
X0204340Y0228561D01*
X0204733Y0228953D02*
X0265008Y0228953D01*
X0265008Y0229345D02*
X0205125Y0229345D01*
X0205445Y0229737D02*
X0265027Y0229737D01*
X0265419Y0230130D02*
X0205607Y0230130D01*
X0205770Y0230522D02*
X0265812Y0230522D01*
X0275047Y0230914D02*
X0205932Y0230914D01*
X0205965Y0231306D02*
X0275047Y0231306D01*
X0275047Y0231698D02*
X0205965Y0231698D01*
X0205965Y0232091D02*
X0275047Y0232091D01*
X0275047Y0232483D02*
X0205965Y0232483D01*
X0205804Y0232875D02*
X0275047Y0232875D01*
X0275047Y0233267D02*
X0205642Y0233267D01*
X0205480Y0233659D02*
X0275047Y0233659D01*
X0275047Y0234052D02*
X0205208Y0234052D01*
X0204816Y0234444D02*
X0275047Y0234444D01*
X0275047Y0234836D02*
X0204424Y0234836D01*
X0203598Y0235228D02*
X0275047Y0235228D01*
X0275047Y0235620D02*
X0196738Y0235620D01*
X0197130Y0236013D02*
X0275047Y0236013D01*
X0275047Y0236405D02*
X0197522Y0236405D01*
X0197914Y0236797D02*
X0275047Y0236797D01*
X0275047Y0237189D02*
X0198307Y0237189D01*
X0199767Y0237582D02*
X0275047Y0237582D01*
X0275047Y0237974D02*
X0200713Y0237974D01*
X0201153Y0238366D02*
X0275047Y0238366D01*
X0275047Y0238758D02*
X0201546Y0238758D01*
X0201887Y0239150D02*
X0275047Y0239150D01*
X0275047Y0239543D02*
X0202049Y0239543D01*
X0202212Y0239935D02*
X0275047Y0239935D01*
X0275047Y0240327D02*
X0202374Y0240327D01*
X0202422Y0240719D02*
X0275047Y0240719D01*
X0275047Y0241111D02*
X0202422Y0241111D01*
X0202422Y0241504D02*
X0275047Y0241504D01*
X0275047Y0241896D02*
X0202422Y0241896D01*
X0202276Y0242288D02*
X0275047Y0242288D01*
X0275047Y0242680D02*
X0202114Y0242680D01*
X0201951Y0243073D02*
X0275047Y0243073D01*
X0265935Y0243465D02*
X0201701Y0243465D01*
X0201309Y0243857D02*
X0265543Y0243857D01*
X0265151Y0244249D02*
X0200916Y0244249D01*
X0200141Y0244641D02*
X0265008Y0244641D01*
X0265008Y0245034D02*
X0190059Y0245034D01*
X0190205Y0245426D02*
X0265008Y0245426D01*
X0265008Y0245818D02*
X0190205Y0245818D01*
X0190205Y0246210D02*
X0265008Y0246210D01*
X0265008Y0246602D02*
X0190205Y0246602D01*
X0190205Y0246995D02*
X0265008Y0246995D01*
X0265008Y0247387D02*
X0190205Y0247387D01*
X0190205Y0247779D02*
X0265008Y0247779D01*
X0265008Y0248171D02*
X0190205Y0248171D01*
X0190205Y0248563D02*
X0265008Y0248563D01*
X0265008Y0248956D02*
X0190205Y0248956D01*
X0190205Y0249348D02*
X0265008Y0249348D01*
X0265008Y0249740D02*
X0190205Y0249740D01*
X0190205Y0250132D02*
X0265008Y0250132D01*
X0265008Y0250525D02*
X0190205Y0250525D01*
X0190205Y0250917D02*
X0265008Y0250917D01*
X0265008Y0251309D02*
X0190205Y0251309D01*
X0190205Y0251701D02*
X0265008Y0251701D01*
X0265008Y0252093D02*
X0190205Y0252093D01*
X0190205Y0252486D02*
X0265008Y0252486D01*
X0265008Y0252878D02*
X0190205Y0252878D01*
X0190205Y0253270D02*
X0265008Y0253270D01*
X0265008Y0253662D02*
X0190205Y0253662D01*
X0190205Y0254054D02*
X0265328Y0254054D01*
X0265721Y0254447D02*
X0190205Y0254447D01*
X0189887Y0254839D02*
X0275047Y0254839D01*
X0275047Y0255231D02*
X0189495Y0255231D01*
X0180798Y0255623D02*
X0275047Y0255623D01*
X0275047Y0256016D02*
X0180798Y0256016D01*
X0180644Y0256408D02*
X0275047Y0256408D01*
X0275047Y0256800D02*
X0180482Y0256800D01*
X0180319Y0257192D02*
X0275047Y0257192D01*
X0275047Y0257584D02*
X0180157Y0257584D01*
X0179798Y0257977D02*
X0275047Y0257977D01*
X0275047Y0258369D02*
X0179406Y0258369D01*
X0179014Y0258761D02*
X0275047Y0258761D01*
X0275047Y0259153D02*
X0178223Y0259153D01*
X0178070Y0261114D02*
X0275047Y0261114D01*
X0275047Y0261506D02*
X0178950Y0261506D01*
X0179343Y0261899D02*
X0275047Y0261899D01*
X0275047Y0262291D02*
X0179735Y0262291D01*
X0180127Y0262683D02*
X0275047Y0262683D01*
X0275047Y0263075D02*
X0180293Y0263075D01*
X0180455Y0263468D02*
X0275047Y0263468D01*
X0275047Y0263860D02*
X0180618Y0263860D01*
X0180780Y0264252D02*
X0275047Y0264252D01*
X0275047Y0264644D02*
X0180798Y0264644D01*
X0180798Y0265036D02*
X0275047Y0265036D01*
X0275047Y0265429D02*
X0180798Y0265429D01*
X0180798Y0265821D02*
X0275047Y0265821D01*
X0275047Y0266213D02*
X0180725Y0266213D01*
X0180562Y0266605D02*
X0275047Y0266605D01*
X0275047Y0266997D02*
X0180400Y0266997D01*
X0180237Y0267390D02*
X0275047Y0267390D01*
X0275047Y0267782D02*
X0179993Y0267782D01*
X0179600Y0268174D02*
X0275047Y0268174D01*
X0275047Y0268566D02*
X0179208Y0268566D01*
X0178693Y0268959D02*
X0275047Y0268959D01*
X0275047Y0269351D02*
X0177746Y0269351D01*
X0174024Y0271704D02*
X0173630Y0271704D01*
X0173630Y0272096D02*
X0174024Y0272096D01*
X0174024Y0272488D02*
X0173630Y0272488D01*
X0173630Y0272881D02*
X0174024Y0272881D01*
X0174024Y0273273D02*
X0173630Y0273273D01*
X0173630Y0273665D02*
X0174024Y0273665D01*
X0174024Y0274057D02*
X0173630Y0274057D01*
X0173630Y0274449D02*
X0174024Y0274449D01*
X0174024Y0274842D02*
X0173630Y0274842D01*
X0173630Y0276018D02*
X0174024Y0276018D01*
X0174024Y0276411D02*
X0173630Y0276411D01*
X0173630Y0276803D02*
X0174024Y0276803D01*
X0174024Y0277195D02*
X0173630Y0277195D01*
X0173630Y0277587D02*
X0174024Y0277587D01*
X0174024Y0277979D02*
X0173630Y0277979D01*
X0173630Y0278372D02*
X0174024Y0278372D01*
X0174024Y0278764D02*
X0173630Y0278764D01*
X0169901Y0249348D02*
X0164627Y0249348D01*
X0164627Y0248956D02*
X0168954Y0248956D01*
X0168442Y0248563D02*
X0164627Y0248563D01*
X0164627Y0248171D02*
X0168050Y0248171D01*
X0167658Y0247779D02*
X0164627Y0247779D01*
X0164627Y0247387D02*
X0167415Y0247387D01*
X0167253Y0246995D02*
X0164627Y0246995D01*
X0164627Y0246602D02*
X0167090Y0246602D01*
X0166928Y0246210D02*
X0164627Y0246210D01*
X0164627Y0245818D02*
X0166855Y0245818D01*
X0166855Y0245426D02*
X0164627Y0245426D01*
X0164627Y0245034D02*
X0166855Y0245034D01*
X0166855Y0244641D02*
X0164627Y0244641D01*
X0164627Y0244249D02*
X0166874Y0244249D01*
X0167037Y0243857D02*
X0164627Y0243857D01*
X0164627Y0243465D02*
X0167199Y0243465D01*
X0167362Y0243073D02*
X0164627Y0243073D01*
X0164627Y0242680D02*
X0167529Y0242680D01*
X0167922Y0242288D02*
X0164627Y0242288D01*
X0164627Y0241896D02*
X0168314Y0241896D01*
X0168706Y0241504D02*
X0164627Y0241504D01*
X0164627Y0241111D02*
X0169590Y0241111D01*
X0193970Y0241504D02*
X0194917Y0241504D01*
X0194917Y0241111D02*
X0194363Y0241111D01*
X0196010Y0235228D02*
X0200827Y0235228D01*
X0200001Y0234836D02*
X0194929Y0234836D01*
X0194929Y0234444D02*
X0199609Y0234444D01*
X0194929Y0219148D02*
X0275047Y0219148D01*
X0275047Y0218755D02*
X0194929Y0218755D01*
X0194929Y0218363D02*
X0275047Y0218363D01*
X0275047Y0217971D02*
X0194929Y0217971D01*
X0194929Y0217579D02*
X0275047Y0217579D01*
X0275047Y0217187D02*
X0194929Y0217187D01*
X0194693Y0216794D02*
X0275047Y0216794D01*
X0275047Y0216402D02*
X0194339Y0216402D01*
X0194354Y0216010D02*
X0275047Y0216010D01*
X0275047Y0215618D02*
X0194354Y0215618D01*
X0194354Y0215225D02*
X0275047Y0215225D01*
X0275047Y0214833D02*
X0194354Y0214833D01*
X0123315Y0228561D02*
X0091359Y0228561D01*
X0090966Y0228953D02*
X0122623Y0228953D01*
X0122231Y0229345D02*
X0090574Y0229345D01*
X0090165Y0229737D02*
X0121838Y0229737D01*
X0121446Y0230130D02*
X0089425Y0230130D01*
X0090268Y0230522D02*
X0121054Y0230522D01*
X0120662Y0230914D02*
X0090660Y0230914D01*
X0091052Y0231306D02*
X0120270Y0231306D01*
X0119877Y0231698D02*
X0091444Y0231698D01*
X0091776Y0232091D02*
X0119485Y0232091D01*
X0119093Y0232483D02*
X0091938Y0232483D01*
X0092101Y0232875D02*
X0118701Y0232875D01*
X0118309Y0233267D02*
X0092263Y0233267D01*
X0092426Y0233659D02*
X0117916Y0233659D01*
X0117524Y0234052D02*
X0092566Y0234052D01*
X0092566Y0234444D02*
X0117132Y0234444D01*
X0116740Y0234836D02*
X0092566Y0234836D01*
X0092566Y0235228D02*
X0116347Y0235228D01*
X0115955Y0235620D02*
X0092566Y0235620D01*
X0092566Y0236013D02*
X0115563Y0236013D01*
X0101386Y0241504D02*
X0100992Y0241504D01*
X0100992Y0241896D02*
X0101386Y0241896D01*
X0101386Y0242288D02*
X0100992Y0242288D01*
X0100992Y0242680D02*
X0101386Y0242680D01*
X0101386Y0243073D02*
X0100992Y0243073D01*
X0100992Y0243465D02*
X0101386Y0243465D01*
X0101386Y0243857D02*
X0100992Y0243857D01*
X0100992Y0244249D02*
X0101386Y0244249D01*
X0101386Y0244641D02*
X0100992Y0244641D01*
X0100992Y0245034D02*
X0101386Y0245034D01*
X0098129Y0241504D02*
X0095299Y0241504D01*
X0094906Y0241896D02*
X0096846Y0241896D01*
X0096238Y0242288D02*
X0094514Y0242288D01*
X0094122Y0242680D02*
X0095823Y0242680D01*
X0095500Y0243073D02*
X0093730Y0243073D01*
X0093337Y0243465D02*
X0095238Y0243465D01*
X0095070Y0243857D02*
X0092945Y0243857D01*
X0092566Y0244249D02*
X0094923Y0244249D01*
X0094845Y0244641D02*
X0092566Y0244641D01*
X0089407Y0240122D02*
X0089527Y0240001D01*
X0089321Y0240087D01*
X0089407Y0240122D01*
X0092146Y0237189D02*
X0092339Y0237189D01*
X0092308Y0236797D02*
X0092731Y0236797D01*
X0092471Y0236405D02*
X0093465Y0236405D01*
X0084764Y0230130D02*
X0080165Y0230130D01*
X0080165Y0279940D02*
X0275047Y0279940D01*
X0275047Y0280333D02*
X0080165Y0280333D01*
X0080165Y0280725D02*
X0275047Y0280725D01*
X0275047Y0281117D02*
X0080165Y0281117D01*
X0080165Y0281509D02*
X0275047Y0281509D01*
X0275047Y0281902D02*
X0080165Y0281902D01*
M02*
