G75*
%MOIN*%
%OFA0B0*%
%FSLAX25Y25*%
%IPPOS*%
%LPD*%
%AMOC8*
5,1,8,0,0,1.08239X$1,22.5*
%
%ADD10C,0.01600*%
%ADD11C,0.05200*%
%ADD12C,0.07400*%
%ADD13C,0.03962*%
%ADD14C,0.00394*%
D10*
X0023079Y0013236D02*
X0338039Y0013236D01*
X0338039Y0328197D01*
X0023079Y0328197D01*
X0023079Y0013236D01*
X0087094Y0086268D02*
X0088236Y0086268D01*
X0092370Y0090402D01*
X0106150Y0090402D01*
X0110874Y0095126D01*
X0110874Y0110087D01*
X0104575Y0116386D01*
X0101268Y0116386D01*
X0101189Y0116465D01*
X0104496Y0116465D01*
X0111268Y0109693D01*
X0111268Y0095520D01*
X0115992Y0090795D01*
X0136465Y0090795D01*
X0140795Y0095126D01*
X0142606Y0095126D01*
X0143827Y0096346D01*
X0143827Y0086346D02*
X0143827Y0083039D01*
X0156150Y0077803D01*
X0151819Y0066780D02*
X0186071Y0066780D01*
X0202213Y0082921D01*
X0198669Y0092370D02*
X0179378Y0073079D01*
X0143551Y0073079D01*
X0137252Y0066780D01*
X0136858Y0066780D01*
X0117016Y0096465D02*
X0117016Y0096937D01*
X0126228Y0106150D01*
X0128906Y0106150D01*
X0131189Y0106465D01*
X0126228Y0106150D02*
X0125441Y0106150D01*
X0120323Y0111268D01*
X0120323Y0122291D01*
X0124496Y0126465D01*
X0131189Y0126465D01*
X0136858Y0141189D02*
X0137252Y0141189D01*
X0143551Y0147488D01*
X0179378Y0147488D01*
X0198669Y0166780D01*
X0202213Y0157331D02*
X0186071Y0141189D01*
X0151819Y0141189D01*
X0156150Y0152213D02*
X0143827Y0157449D01*
X0143827Y0160756D01*
X0136465Y0165205D02*
X0140795Y0169535D01*
X0142606Y0169535D01*
X0143827Y0170756D01*
X0136465Y0165205D02*
X0115992Y0165205D01*
X0111268Y0169929D01*
X0111268Y0184102D01*
X0104496Y0190874D01*
X0101189Y0190874D01*
X0101268Y0190795D01*
X0104575Y0190795D01*
X0110874Y0184496D01*
X0110874Y0169535D01*
X0106150Y0164811D01*
X0092370Y0164811D01*
X0088236Y0160677D01*
X0087094Y0160677D01*
X0087094Y0170677D02*
X0087213Y0170677D01*
X0093157Y0176622D01*
X0093157Y0195913D01*
X0097882Y0200638D01*
X0100953Y0200638D01*
X0101189Y0200874D01*
X0120323Y0196701D02*
X0120323Y0185677D01*
X0125441Y0180559D01*
X0126228Y0180559D01*
X0117016Y0171346D01*
X0117016Y0170874D01*
X0126228Y0180559D02*
X0128906Y0180559D01*
X0131189Y0180874D01*
X0120323Y0196701D02*
X0124496Y0200874D01*
X0131189Y0200874D01*
X0136858Y0215598D02*
X0137252Y0215598D01*
X0143551Y0221898D01*
X0179378Y0221898D01*
X0198669Y0241189D01*
X0202213Y0231740D02*
X0186071Y0215598D01*
X0151819Y0215598D01*
X0156150Y0226622D02*
X0143827Y0231858D01*
X0143827Y0235165D01*
X0136465Y0239614D02*
X0140795Y0243945D01*
X0142606Y0243945D01*
X0143827Y0245165D01*
X0136465Y0239614D02*
X0115992Y0239614D01*
X0111268Y0244339D01*
X0111268Y0258512D01*
X0104496Y0265283D01*
X0101189Y0265283D01*
X0101268Y0265205D01*
X0104575Y0265205D01*
X0110874Y0258906D01*
X0110874Y0243945D01*
X0106150Y0239220D01*
X0092370Y0239220D01*
X0088236Y0235087D01*
X0087094Y0235087D01*
X0087094Y0245087D02*
X0087213Y0245087D01*
X0093157Y0251031D01*
X0093157Y0270323D01*
X0097882Y0275047D01*
X0100953Y0275047D01*
X0101189Y0275283D01*
X0120323Y0271110D02*
X0120323Y0260087D01*
X0125441Y0254969D01*
X0126228Y0254969D01*
X0117016Y0245756D01*
X0117016Y0245283D01*
X0126228Y0254969D02*
X0128906Y0254969D01*
X0131189Y0255283D01*
X0120323Y0271110D02*
X0124496Y0275283D01*
X0131189Y0275283D01*
X0101189Y0126465D02*
X0100953Y0126228D01*
X0097882Y0126228D01*
X0093157Y0121504D01*
X0093157Y0102213D01*
X0087213Y0096268D01*
X0087094Y0096268D01*
D11*
X0098589Y0096465D02*
X0103789Y0096465D01*
X0103789Y0106465D02*
X0098589Y0106465D01*
X0098589Y0116465D02*
X0103789Y0116465D01*
X0103789Y0126465D02*
X0098589Y0126465D01*
X0128589Y0126465D02*
X0133789Y0126465D01*
X0141227Y0126346D02*
X0146427Y0126346D01*
X0146427Y0116346D02*
X0141227Y0116346D01*
X0133789Y0116465D02*
X0128589Y0116465D01*
X0128589Y0106465D02*
X0133789Y0106465D01*
X0141227Y0106346D02*
X0146427Y0106346D01*
X0146427Y0096346D02*
X0141227Y0096346D01*
X0133789Y0096465D02*
X0128589Y0096465D01*
X0141227Y0086346D02*
X0146427Y0086346D01*
X0171227Y0086346D02*
X0176427Y0086346D01*
X0176427Y0096346D02*
X0171227Y0096346D01*
X0171227Y0106346D02*
X0176427Y0106346D01*
X0176427Y0116346D02*
X0171227Y0116346D01*
X0171227Y0126346D02*
X0176427Y0126346D01*
X0176427Y0160756D02*
X0171227Y0160756D01*
X0171227Y0170756D02*
X0176427Y0170756D01*
X0176427Y0180756D02*
X0171227Y0180756D01*
X0171227Y0190756D02*
X0176427Y0190756D01*
X0176427Y0200756D02*
X0171227Y0200756D01*
X0146427Y0200756D02*
X0141227Y0200756D01*
X0133789Y0200874D02*
X0128589Y0200874D01*
X0128589Y0190874D02*
X0133789Y0190874D01*
X0141227Y0190756D02*
X0146427Y0190756D01*
X0146427Y0180756D02*
X0141227Y0180756D01*
X0133789Y0180874D02*
X0128589Y0180874D01*
X0128589Y0170874D02*
X0133789Y0170874D01*
X0141227Y0170756D02*
X0146427Y0170756D01*
X0146427Y0160756D02*
X0141227Y0160756D01*
X0103789Y0170874D02*
X0098589Y0170874D01*
X0098589Y0180874D02*
X0103789Y0180874D01*
X0103789Y0190874D02*
X0098589Y0190874D01*
X0098589Y0200874D02*
X0103789Y0200874D01*
X0141227Y0235165D02*
X0146427Y0235165D01*
X0146427Y0245165D02*
X0141227Y0245165D01*
X0133789Y0245283D02*
X0128589Y0245283D01*
X0128589Y0255283D02*
X0133789Y0255283D01*
X0141227Y0255165D02*
X0146427Y0255165D01*
X0146427Y0265165D02*
X0141227Y0265165D01*
X0133789Y0265283D02*
X0128589Y0265283D01*
X0128589Y0275283D02*
X0133789Y0275283D01*
X0141227Y0275165D02*
X0146427Y0275165D01*
X0171227Y0275165D02*
X0176427Y0275165D01*
X0176427Y0265165D02*
X0171227Y0265165D01*
X0171227Y0255165D02*
X0176427Y0255165D01*
X0176427Y0245165D02*
X0171227Y0245165D01*
X0171227Y0235165D02*
X0176427Y0235165D01*
X0103789Y0245283D02*
X0098589Y0245283D01*
X0098589Y0255283D02*
X0103789Y0255283D01*
X0103789Y0265283D02*
X0098589Y0265283D01*
X0098589Y0275283D02*
X0103789Y0275283D01*
D12*
X0087094Y0265087D03*
X0087094Y0255087D03*
X0087094Y0245087D03*
X0087094Y0235087D03*
X0087094Y0225087D03*
X0087094Y0215087D03*
X0087094Y0190677D03*
X0087094Y0180677D03*
X0087094Y0170677D03*
X0087094Y0160677D03*
X0087094Y0150677D03*
X0087094Y0140677D03*
X0087094Y0116268D03*
X0087094Y0106268D03*
X0087094Y0096268D03*
X0087094Y0086268D03*
X0087094Y0076268D03*
X0087094Y0066268D03*
D13*
X0117016Y0096465D03*
X0136858Y0066780D03*
X0151819Y0066780D03*
X0156150Y0077803D03*
X0198669Y0092370D03*
X0202213Y0082921D03*
X0151819Y0141189D03*
X0156150Y0152213D03*
X0136858Y0141189D03*
X0117016Y0170874D03*
X0136858Y0215598D03*
X0151819Y0215598D03*
X0156150Y0226622D03*
X0117016Y0245283D03*
X0198669Y0241189D03*
X0202213Y0231740D03*
X0198669Y0166780D03*
X0202213Y0157331D03*
D14*
X0205688Y0158747D02*
X0275047Y0158747D01*
X0275047Y0159139D02*
X0205525Y0159139D01*
X0205394Y0159456D02*
X0204338Y0160512D01*
X0202959Y0161083D01*
X0201466Y0161083D01*
X0200087Y0160512D01*
X0199031Y0159456D01*
X0198460Y0158077D01*
X0198460Y0157215D01*
X0185006Y0143761D01*
X0154554Y0143761D01*
X0153945Y0144370D01*
X0152626Y0144917D01*
X0179889Y0144917D01*
X0180835Y0145308D01*
X0198553Y0163027D01*
X0199416Y0163027D01*
X0200795Y0163598D01*
X0201851Y0164654D01*
X0202422Y0166033D01*
X0202422Y0167526D01*
X0201851Y0168905D01*
X0200795Y0169961D01*
X0199416Y0170532D01*
X0197923Y0170532D01*
X0196544Y0169961D01*
X0195488Y0168905D01*
X0194917Y0167526D01*
X0194917Y0166664D01*
X0178313Y0150060D01*
X0143040Y0150060D01*
X0142094Y0149668D01*
X0141371Y0148945D01*
X0137368Y0144942D01*
X0136112Y0144942D01*
X0134732Y0144370D01*
X0133677Y0143315D01*
X0133106Y0141935D01*
X0133106Y0140442D01*
X0133677Y0139063D01*
X0134732Y0138008D01*
X0136112Y0137436D01*
X0137605Y0137436D01*
X0138984Y0138008D01*
X0140040Y0139063D01*
X0140611Y0140442D01*
X0140611Y0140911D01*
X0144616Y0144917D01*
X0151012Y0144917D01*
X0149693Y0144370D01*
X0148637Y0143315D01*
X0148066Y0141935D01*
X0148066Y0140442D01*
X0148637Y0139063D01*
X0149693Y0138008D01*
X0151072Y0137436D01*
X0152565Y0137436D01*
X0153945Y0138008D01*
X0154554Y0138617D01*
X0186582Y0138617D01*
X0187528Y0139009D01*
X0202097Y0153578D01*
X0202959Y0153578D01*
X0204338Y0154149D01*
X0205394Y0155205D01*
X0205965Y0156584D01*
X0205965Y0158077D01*
X0205394Y0159456D01*
X0205319Y0159531D02*
X0275047Y0159531D01*
X0275047Y0159924D02*
X0204927Y0159924D01*
X0204535Y0160316D02*
X0275047Y0160316D01*
X0275047Y0160708D02*
X0203866Y0160708D01*
X0205850Y0158355D02*
X0275047Y0158355D01*
X0275047Y0157962D02*
X0205965Y0157962D01*
X0205965Y0157570D02*
X0275047Y0157570D01*
X0275047Y0157178D02*
X0205965Y0157178D01*
X0205965Y0156786D02*
X0275047Y0156786D01*
X0275047Y0156394D02*
X0205886Y0156394D01*
X0205724Y0156001D02*
X0275047Y0156001D01*
X0275047Y0155609D02*
X0205561Y0155609D01*
X0205399Y0155217D02*
X0275047Y0155217D01*
X0275047Y0154825D02*
X0205014Y0154825D01*
X0204622Y0154433D02*
X0275047Y0154433D01*
X0275047Y0154040D02*
X0204075Y0154040D01*
X0203129Y0153648D02*
X0275047Y0153648D01*
X0275047Y0153256D02*
X0201775Y0153256D01*
X0201382Y0152864D02*
X0275047Y0152864D01*
X0275047Y0152472D02*
X0200990Y0152472D01*
X0200598Y0152079D02*
X0275047Y0152079D01*
X0275047Y0151687D02*
X0200206Y0151687D01*
X0199814Y0151295D02*
X0275047Y0151295D01*
X0275047Y0150903D02*
X0199421Y0150903D01*
X0199029Y0150510D02*
X0275047Y0150510D01*
X0275047Y0150118D02*
X0198637Y0150118D01*
X0198245Y0149726D02*
X0275047Y0149726D01*
X0275047Y0149334D02*
X0197853Y0149334D01*
X0197460Y0148942D02*
X0275047Y0148942D01*
X0275047Y0148549D02*
X0197068Y0148549D01*
X0196676Y0148157D02*
X0275047Y0148157D01*
X0275047Y0147765D02*
X0196284Y0147765D01*
X0195892Y0147373D02*
X0275047Y0147373D01*
X0275047Y0146981D02*
X0195499Y0146981D01*
X0195107Y0146588D02*
X0275047Y0146588D01*
X0275047Y0146196D02*
X0194715Y0146196D01*
X0194323Y0145804D02*
X0275047Y0145804D01*
X0275047Y0145412D02*
X0193930Y0145412D01*
X0193538Y0145019D02*
X0275047Y0145019D01*
X0275047Y0144627D02*
X0193146Y0144627D01*
X0192754Y0144235D02*
X0275047Y0144235D01*
X0275047Y0143843D02*
X0192362Y0143843D01*
X0191969Y0143451D02*
X0275047Y0143451D01*
X0275047Y0143058D02*
X0191577Y0143058D01*
X0191185Y0142666D02*
X0275047Y0142666D01*
X0275047Y0142274D02*
X0190793Y0142274D01*
X0190401Y0141882D02*
X0275047Y0141882D01*
X0275047Y0141490D02*
X0190008Y0141490D01*
X0189616Y0141097D02*
X0275047Y0141097D01*
X0275047Y0140705D02*
X0189224Y0140705D01*
X0188832Y0140313D02*
X0275047Y0140313D01*
X0275047Y0139921D02*
X0188439Y0139921D01*
X0188047Y0139529D02*
X0275047Y0139529D01*
X0275047Y0139136D02*
X0187655Y0139136D01*
X0186888Y0138744D02*
X0275047Y0138744D01*
X0275047Y0138352D02*
X0154289Y0138352D01*
X0153829Y0137960D02*
X0275047Y0137960D01*
X0275047Y0137567D02*
X0152882Y0137567D01*
X0150756Y0137567D02*
X0137922Y0137567D01*
X0138868Y0137960D02*
X0149809Y0137960D01*
X0149349Y0138352D02*
X0139328Y0138352D01*
X0139721Y0138744D02*
X0148957Y0138744D01*
X0148607Y0139136D02*
X0140070Y0139136D01*
X0140232Y0139529D02*
X0148445Y0139529D01*
X0148282Y0139921D02*
X0140395Y0139921D01*
X0140557Y0140313D02*
X0148120Y0140313D01*
X0148066Y0140705D02*
X0140611Y0140705D01*
X0140797Y0141097D02*
X0148066Y0141097D01*
X0148066Y0141490D02*
X0141189Y0141490D01*
X0141582Y0141882D02*
X0148066Y0141882D01*
X0148206Y0142274D02*
X0141974Y0142274D01*
X0142366Y0142666D02*
X0148369Y0142666D01*
X0148531Y0143058D02*
X0142758Y0143058D01*
X0143150Y0143451D02*
X0148773Y0143451D01*
X0149166Y0143843D02*
X0143543Y0143843D01*
X0143935Y0144235D02*
X0149558Y0144235D01*
X0150313Y0144627D02*
X0144327Y0144627D01*
X0140583Y0148157D02*
X0091973Y0148157D01*
X0091811Y0147765D02*
X0140191Y0147765D01*
X0139799Y0147373D02*
X0091528Y0147373D01*
X0091733Y0147578D02*
X0092566Y0149589D01*
X0092566Y0151766D01*
X0091733Y0153777D01*
X0090194Y0155316D01*
X0089321Y0155677D01*
X0090194Y0156039D01*
X0091733Y0157578D01*
X0092566Y0159589D01*
X0092566Y0161370D01*
X0093435Y0162239D01*
X0106661Y0162239D01*
X0107606Y0162631D01*
X0111268Y0166292D01*
X0113812Y0163748D01*
X0114535Y0163025D01*
X0115481Y0162633D01*
X0136976Y0162633D01*
X0137921Y0163025D01*
X0141281Y0166384D01*
X0147296Y0166384D01*
X0148903Y0167050D01*
X0150133Y0168280D01*
X0150798Y0169886D01*
X0150798Y0171625D01*
X0150133Y0173232D01*
X0148903Y0174462D01*
X0147296Y0175128D01*
X0140357Y0175128D01*
X0138750Y0174462D01*
X0137537Y0173249D01*
X0137495Y0173350D01*
X0136265Y0174580D01*
X0134659Y0175246D01*
X0127719Y0175246D01*
X0126113Y0174580D01*
X0124883Y0173350D01*
X0124217Y0171744D01*
X0124217Y0170004D01*
X0124883Y0168398D01*
X0125504Y0167776D01*
X0117057Y0167776D01*
X0113839Y0170994D01*
X0113839Y0184614D01*
X0113448Y0185559D01*
X0112724Y0186282D01*
X0108161Y0190846D01*
X0108161Y0191744D01*
X0107495Y0193350D01*
X0106265Y0194580D01*
X0104659Y0195246D01*
X0097719Y0195246D01*
X0096113Y0194580D01*
X0095729Y0194197D01*
X0095729Y0194848D01*
X0097482Y0196601D01*
X0097719Y0196502D01*
X0104659Y0196502D01*
X0106265Y0197168D01*
X0107495Y0198398D01*
X0108161Y0200004D01*
X0108161Y0201744D01*
X0107495Y0203350D01*
X0106265Y0204580D01*
X0104659Y0205246D01*
X0097719Y0205246D01*
X0096113Y0204580D01*
X0094883Y0203350D01*
X0094217Y0201744D01*
X0094217Y0200610D01*
X0090977Y0197370D01*
X0090586Y0196425D01*
X0090586Y0194924D01*
X0090194Y0195316D01*
X0088183Y0196149D01*
X0086006Y0196149D01*
X0083995Y0195316D01*
X0082456Y0193777D01*
X0081623Y0191766D01*
X0081623Y0189589D01*
X0082456Y0187578D01*
X0083995Y0186039D01*
X0085645Y0185355D01*
X0085215Y0185215D01*
X0084528Y0184865D01*
X0083904Y0184412D01*
X0083359Y0183867D01*
X0082906Y0183244D01*
X0082556Y0182557D01*
X0082318Y0181824D01*
X0082198Y0181063D01*
X0082198Y0180874D01*
X0086898Y0180874D01*
X0086898Y0180480D01*
X0082198Y0180480D01*
X0082198Y0180292D01*
X0082318Y0179530D01*
X0082556Y0178797D01*
X0082906Y0178111D01*
X0083359Y0177487D01*
X0083904Y0176942D01*
X0084528Y0176489D01*
X0085215Y0176139D01*
X0085645Y0175999D01*
X0083995Y0175316D01*
X0082456Y0173777D01*
X0081623Y0171766D01*
X0081623Y0169589D01*
X0082456Y0167578D01*
X0083995Y0166039D01*
X0084867Y0165677D01*
X0083995Y0165316D01*
X0082456Y0163777D01*
X0081623Y0161766D01*
X0081623Y0159589D01*
X0082456Y0157578D01*
X0083995Y0156039D01*
X0084867Y0155677D01*
X0083995Y0155316D01*
X0082456Y0153777D01*
X0081623Y0151766D01*
X0081623Y0149589D01*
X0082456Y0147578D01*
X0083995Y0146039D01*
X0084867Y0145677D01*
X0083995Y0145316D01*
X0082456Y0143777D01*
X0081623Y0141766D01*
X0081623Y0139589D01*
X0082456Y0137578D01*
X0083175Y0136858D01*
X0080165Y0136858D01*
X0080165Y0207724D01*
X0275047Y0207724D01*
X0275047Y0136858D01*
X0091014Y0136858D01*
X0091733Y0137578D01*
X0092566Y0139589D01*
X0092566Y0141766D01*
X0091733Y0143777D01*
X0090194Y0145316D01*
X0089321Y0145677D01*
X0090194Y0146039D01*
X0091733Y0147578D01*
X0091136Y0146981D02*
X0139407Y0146981D01*
X0139014Y0146588D02*
X0090744Y0146588D01*
X0090352Y0146196D02*
X0138622Y0146196D01*
X0138230Y0145804D02*
X0089627Y0145804D01*
X0089962Y0145412D02*
X0137838Y0145412D01*
X0137446Y0145019D02*
X0090490Y0145019D01*
X0090882Y0144627D02*
X0135353Y0144627D01*
X0134597Y0144235D02*
X0091275Y0144235D01*
X0091667Y0143843D02*
X0134205Y0143843D01*
X0133813Y0143451D02*
X0091868Y0143451D01*
X0092031Y0143058D02*
X0133571Y0143058D01*
X0133408Y0142666D02*
X0092193Y0142666D01*
X0092356Y0142274D02*
X0133246Y0142274D01*
X0133106Y0141882D02*
X0092518Y0141882D01*
X0092566Y0141490D02*
X0133106Y0141490D01*
X0133106Y0141097D02*
X0092566Y0141097D01*
X0092566Y0140705D02*
X0133106Y0140705D01*
X0133159Y0140313D02*
X0092566Y0140313D01*
X0092566Y0139921D02*
X0133322Y0139921D01*
X0133484Y0139529D02*
X0092541Y0139529D01*
X0092379Y0139136D02*
X0133647Y0139136D01*
X0133996Y0138744D02*
X0092216Y0138744D01*
X0092054Y0138352D02*
X0134388Y0138352D01*
X0134848Y0137960D02*
X0091891Y0137960D01*
X0091723Y0137567D02*
X0135795Y0137567D01*
X0134163Y0130261D02*
X0131386Y0130261D01*
X0131386Y0126661D01*
X0130992Y0126661D01*
X0130992Y0126268D01*
X0124792Y0126268D01*
X0124792Y0126091D01*
X0124938Y0125357D01*
X0125224Y0124666D01*
X0125640Y0124044D01*
X0126169Y0123515D01*
X0126790Y0123100D01*
X0127481Y0122814D01*
X0128215Y0122668D01*
X0130992Y0122668D01*
X0130992Y0126268D01*
X0131386Y0126268D01*
X0131386Y0122668D01*
X0134163Y0122668D01*
X0134896Y0122814D01*
X0135587Y0123100D01*
X0136209Y0123515D01*
X0136738Y0124044D01*
X0137154Y0124666D01*
X0137172Y0124711D01*
X0137521Y0123870D01*
X0138750Y0122640D01*
X0140357Y0121975D01*
X0147296Y0121975D01*
X0148903Y0122640D01*
X0150133Y0123870D01*
X0150798Y0125477D01*
X0150798Y0127216D01*
X0150133Y0128823D01*
X0148903Y0130053D01*
X0147296Y0130718D01*
X0140357Y0130718D01*
X0138750Y0130053D01*
X0137521Y0128823D01*
X0137221Y0128100D01*
X0137154Y0128263D01*
X0136738Y0128885D01*
X0136209Y0129414D01*
X0135587Y0129829D01*
X0134896Y0130115D01*
X0134163Y0130261D01*
X0134897Y0130115D02*
X0138902Y0130115D01*
X0138421Y0129723D02*
X0135746Y0129723D01*
X0136292Y0129331D02*
X0138029Y0129331D01*
X0137637Y0128939D02*
X0136684Y0128939D01*
X0136964Y0128547D02*
X0137406Y0128547D01*
X0137244Y0128154D02*
X0137199Y0128154D01*
X0137126Y0124624D02*
X0137208Y0124624D01*
X0137371Y0124232D02*
X0136864Y0124232D01*
X0136534Y0123840D02*
X0137551Y0123840D01*
X0137943Y0123448D02*
X0136108Y0123448D01*
X0135481Y0123056D02*
X0138335Y0123056D01*
X0138727Y0122663D02*
X0106036Y0122663D01*
X0106265Y0122758D02*
X0107495Y0123988D01*
X0108161Y0125595D01*
X0108161Y0127334D01*
X0107495Y0128941D01*
X0106265Y0130171D01*
X0104659Y0130836D01*
X0097719Y0130836D01*
X0096113Y0130171D01*
X0094883Y0128941D01*
X0094217Y0127334D01*
X0094217Y0126201D01*
X0090977Y0122961D01*
X0090586Y0122015D01*
X0090586Y0120514D01*
X0090194Y0120906D01*
X0088183Y0121739D01*
X0086006Y0121739D01*
X0083995Y0120906D01*
X0082456Y0119367D01*
X0081623Y0117356D01*
X0081623Y0115179D01*
X0082456Y0113168D01*
X0083995Y0111629D01*
X0085645Y0110946D01*
X0085215Y0110806D01*
X0084528Y0110456D01*
X0083904Y0110003D01*
X0083359Y0109458D01*
X0082906Y0108834D01*
X0082556Y0108147D01*
X0082318Y0107414D01*
X0082198Y0106653D01*
X0082198Y0106465D01*
X0086898Y0106465D01*
X0086898Y0106071D01*
X0082198Y0106071D01*
X0082198Y0105882D01*
X0082318Y0105121D01*
X0082556Y0104388D01*
X0082906Y0103701D01*
X0083359Y0103078D01*
X0083904Y0102533D01*
X0084528Y0102080D01*
X0085215Y0101730D01*
X0085645Y0101590D01*
X0083995Y0100906D01*
X0082456Y0099367D01*
X0081623Y0097356D01*
X0081623Y0095179D01*
X0082456Y0093168D01*
X0083995Y0091629D01*
X0084867Y0091268D01*
X0083995Y0090906D01*
X0082456Y0089367D01*
X0081623Y0087356D01*
X0081623Y0085179D01*
X0082456Y0083168D01*
X0083995Y0081629D01*
X0084867Y0081268D01*
X0083995Y0080906D01*
X0082456Y0079367D01*
X0081623Y0077356D01*
X0081623Y0075179D01*
X0082456Y0073168D01*
X0083995Y0071629D01*
X0084867Y0071268D01*
X0083995Y0070906D01*
X0082456Y0069367D01*
X0081623Y0067356D01*
X0081623Y0065179D01*
X0082456Y0063168D01*
X0083175Y0062449D01*
X0080165Y0062449D01*
X0080165Y0133315D01*
X0275047Y0133315D01*
X0275047Y0062449D01*
X0091014Y0062449D01*
X0091733Y0063168D01*
X0092566Y0065179D01*
X0092566Y0067356D01*
X0091733Y0069367D01*
X0090194Y0070906D01*
X0089322Y0071268D01*
X0090194Y0071629D01*
X0091733Y0073168D01*
X0092566Y0075179D01*
X0092566Y0077356D01*
X0091733Y0079367D01*
X0090194Y0080906D01*
X0089322Y0081268D01*
X0090194Y0081629D01*
X0091733Y0083168D01*
X0092566Y0085179D01*
X0092566Y0086961D01*
X0093435Y0087830D01*
X0106661Y0087830D01*
X0107606Y0088221D01*
X0111268Y0091883D01*
X0113812Y0089339D01*
X0114535Y0088615D01*
X0115481Y0088224D01*
X0136976Y0088224D01*
X0137921Y0088615D01*
X0141281Y0091975D01*
X0147296Y0091975D01*
X0148903Y0092640D01*
X0150133Y0093870D01*
X0150798Y0095477D01*
X0150798Y0097216D01*
X0150133Y0098823D01*
X0148903Y0100053D01*
X0147296Y0100718D01*
X0140357Y0100718D01*
X0138750Y0100053D01*
X0137537Y0098839D01*
X0137495Y0098941D01*
X0136265Y0100171D01*
X0134659Y0100836D01*
X0127719Y0100836D01*
X0126113Y0100171D01*
X0124883Y0098941D01*
X0124217Y0097334D01*
X0124217Y0095595D01*
X0124883Y0093988D01*
X0125504Y0093367D01*
X0117057Y0093367D01*
X0113839Y0096585D01*
X0113839Y0110204D01*
X0113448Y0111150D01*
X0112724Y0111873D01*
X0108161Y0116437D01*
X0108161Y0117334D01*
X0107495Y0118941D01*
X0106265Y0120171D01*
X0104659Y0120836D01*
X0097719Y0120836D01*
X0096113Y0120171D01*
X0095729Y0119787D01*
X0095729Y0120439D01*
X0097482Y0122191D01*
X0097719Y0122093D01*
X0104659Y0122093D01*
X0106265Y0122758D01*
X0106562Y0123056D02*
X0126897Y0123056D01*
X0126270Y0123448D02*
X0106955Y0123448D01*
X0107347Y0123840D02*
X0125844Y0123840D01*
X0125514Y0124232D02*
X0107596Y0124232D01*
X0107759Y0124624D02*
X0125252Y0124624D01*
X0125079Y0125017D02*
X0107921Y0125017D01*
X0108084Y0125409D02*
X0124928Y0125409D01*
X0124850Y0125801D02*
X0108161Y0125801D01*
X0108161Y0126193D02*
X0124792Y0126193D01*
X0124792Y0126661D02*
X0130992Y0126661D01*
X0130992Y0130261D01*
X0128215Y0130261D01*
X0127481Y0130115D01*
X0106321Y0130115D01*
X0106713Y0129723D02*
X0126632Y0129723D01*
X0126790Y0129829D02*
X0126169Y0129414D01*
X0125640Y0128885D01*
X0125224Y0128263D01*
X0124938Y0127572D01*
X0124792Y0126839D01*
X0124792Y0126661D01*
X0124820Y0126978D02*
X0108161Y0126978D01*
X0108146Y0127370D02*
X0124898Y0127370D01*
X0125017Y0127762D02*
X0107983Y0127762D01*
X0107821Y0128154D02*
X0125179Y0128154D01*
X0125414Y0128547D02*
X0107658Y0128547D01*
X0107496Y0128939D02*
X0125694Y0128939D01*
X0126086Y0129331D02*
X0107105Y0129331D01*
X0105452Y0130508D02*
X0139849Y0130508D01*
X0147804Y0130508D02*
X0275047Y0130508D01*
X0275047Y0130900D02*
X0080165Y0130900D01*
X0080165Y0131292D02*
X0275047Y0131292D01*
X0275047Y0131684D02*
X0080165Y0131684D01*
X0080165Y0132076D02*
X0275047Y0132076D01*
X0275047Y0132469D02*
X0080165Y0132469D01*
X0080165Y0132861D02*
X0275047Y0132861D01*
X0275047Y0133253D02*
X0080165Y0133253D01*
X0080165Y0130508D02*
X0096926Y0130508D01*
X0096057Y0130115D02*
X0080165Y0130115D01*
X0080165Y0129723D02*
X0095665Y0129723D01*
X0095273Y0129331D02*
X0080165Y0129331D01*
X0080165Y0128939D02*
X0094882Y0128939D01*
X0094720Y0128547D02*
X0080165Y0128547D01*
X0080165Y0128154D02*
X0094557Y0128154D01*
X0094395Y0127762D02*
X0080165Y0127762D01*
X0080165Y0127370D02*
X0094232Y0127370D01*
X0094217Y0126978D02*
X0080165Y0126978D01*
X0080165Y0126586D02*
X0094217Y0126586D01*
X0094210Y0126193D02*
X0080165Y0126193D01*
X0080165Y0125801D02*
X0093818Y0125801D01*
X0093426Y0125409D02*
X0080165Y0125409D01*
X0080165Y0125017D02*
X0093033Y0125017D01*
X0092641Y0124624D02*
X0080165Y0124624D01*
X0080165Y0124232D02*
X0092249Y0124232D01*
X0091857Y0123840D02*
X0080165Y0123840D01*
X0080165Y0123448D02*
X0091465Y0123448D01*
X0091072Y0123056D02*
X0080165Y0123056D01*
X0080165Y0122663D02*
X0090854Y0122663D01*
X0090692Y0122271D02*
X0080165Y0122271D01*
X0080165Y0121879D02*
X0090586Y0121879D01*
X0090586Y0121487D02*
X0088793Y0121487D01*
X0089740Y0121095D02*
X0090586Y0121095D01*
X0090586Y0120702D02*
X0090398Y0120702D01*
X0085396Y0121487D02*
X0080165Y0121487D01*
X0080165Y0121095D02*
X0084449Y0121095D01*
X0083791Y0120702D02*
X0080165Y0120702D01*
X0080165Y0120310D02*
X0083399Y0120310D01*
X0083007Y0119918D02*
X0080165Y0119918D01*
X0080165Y0119526D02*
X0082614Y0119526D01*
X0082359Y0119133D02*
X0080165Y0119133D01*
X0080165Y0118741D02*
X0082197Y0118741D01*
X0082034Y0118349D02*
X0080165Y0118349D01*
X0080165Y0117957D02*
X0081872Y0117957D01*
X0081709Y0117565D02*
X0080165Y0117565D01*
X0080165Y0117172D02*
X0081623Y0117172D01*
X0081623Y0116780D02*
X0080165Y0116780D01*
X0080165Y0116388D02*
X0081623Y0116388D01*
X0081623Y0115996D02*
X0080165Y0115996D01*
X0080165Y0115604D02*
X0081623Y0115604D01*
X0081623Y0115211D02*
X0080165Y0115211D01*
X0080165Y0114819D02*
X0081772Y0114819D01*
X0081934Y0114427D02*
X0080165Y0114427D01*
X0080165Y0114035D02*
X0082097Y0114035D01*
X0082259Y0113643D02*
X0080165Y0113643D01*
X0080165Y0113250D02*
X0082422Y0113250D01*
X0082766Y0112858D02*
X0080165Y0112858D01*
X0080165Y0112466D02*
X0083158Y0112466D01*
X0083550Y0112074D02*
X0080165Y0112074D01*
X0080165Y0111681D02*
X0083943Y0111681D01*
X0084815Y0111289D02*
X0080165Y0111289D01*
X0080165Y0110897D02*
X0085496Y0110897D01*
X0084624Y0110505D02*
X0080165Y0110505D01*
X0080165Y0110113D02*
X0084056Y0110113D01*
X0083622Y0109720D02*
X0080165Y0109720D01*
X0080165Y0109328D02*
X0083265Y0109328D01*
X0082980Y0108936D02*
X0080165Y0108936D01*
X0080165Y0108544D02*
X0082758Y0108544D01*
X0082558Y0108152D02*
X0080165Y0108152D01*
X0080165Y0107759D02*
X0082430Y0107759D01*
X0082311Y0107367D02*
X0080165Y0107367D01*
X0080165Y0106975D02*
X0082249Y0106975D01*
X0082198Y0106583D02*
X0080165Y0106583D01*
X0080165Y0106190D02*
X0086898Y0106190D01*
X0082480Y0104622D02*
X0080165Y0104622D01*
X0080165Y0105014D02*
X0082353Y0105014D01*
X0082273Y0105406D02*
X0080165Y0105406D01*
X0080165Y0105798D02*
X0082211Y0105798D01*
X0082637Y0104229D02*
X0080165Y0104229D01*
X0080165Y0103837D02*
X0082837Y0103837D01*
X0083092Y0103445D02*
X0080165Y0103445D01*
X0080165Y0103053D02*
X0083384Y0103053D01*
X0083776Y0102661D02*
X0080165Y0102661D01*
X0080165Y0102268D02*
X0084268Y0102268D01*
X0084927Y0101876D02*
X0080165Y0101876D01*
X0080165Y0101484D02*
X0085389Y0101484D01*
X0084443Y0101092D02*
X0080165Y0101092D01*
X0080165Y0100700D02*
X0083788Y0100700D01*
X0083396Y0100307D02*
X0080165Y0100307D01*
X0080165Y0099915D02*
X0083004Y0099915D01*
X0082612Y0099523D02*
X0080165Y0099523D01*
X0080165Y0099131D02*
X0082358Y0099131D01*
X0082195Y0098738D02*
X0080165Y0098738D01*
X0080165Y0098346D02*
X0082033Y0098346D01*
X0081871Y0097954D02*
X0080165Y0097954D01*
X0080165Y0097562D02*
X0081708Y0097562D01*
X0081623Y0097170D02*
X0080165Y0097170D01*
X0080165Y0096777D02*
X0081623Y0096777D01*
X0081623Y0096385D02*
X0080165Y0096385D01*
X0080165Y0095993D02*
X0081623Y0095993D01*
X0081623Y0095601D02*
X0080165Y0095601D01*
X0080165Y0095209D02*
X0081623Y0095209D01*
X0081773Y0094816D02*
X0080165Y0094816D01*
X0080165Y0094424D02*
X0081936Y0094424D01*
X0082098Y0094032D02*
X0080165Y0094032D01*
X0080165Y0093640D02*
X0082261Y0093640D01*
X0082423Y0093247D02*
X0080165Y0093247D01*
X0080165Y0092855D02*
X0082769Y0092855D01*
X0083161Y0092463D02*
X0080165Y0092463D01*
X0080165Y0092071D02*
X0083553Y0092071D01*
X0083945Y0091679D02*
X0080165Y0091679D01*
X0080165Y0091286D02*
X0084822Y0091286D01*
X0083983Y0090894D02*
X0080165Y0090894D01*
X0080165Y0090502D02*
X0083591Y0090502D01*
X0083198Y0090110D02*
X0080165Y0090110D01*
X0080165Y0089718D02*
X0082806Y0089718D01*
X0082439Y0089325D02*
X0080165Y0089325D01*
X0080165Y0088933D02*
X0082276Y0088933D01*
X0082114Y0088541D02*
X0080165Y0088541D01*
X0080165Y0088149D02*
X0081951Y0088149D01*
X0081789Y0087757D02*
X0080165Y0087757D01*
X0080165Y0087364D02*
X0081626Y0087364D01*
X0081623Y0086972D02*
X0080165Y0086972D01*
X0080165Y0086580D02*
X0081623Y0086580D01*
X0081623Y0086188D02*
X0080165Y0086188D01*
X0080165Y0085795D02*
X0081623Y0085795D01*
X0081623Y0085403D02*
X0080165Y0085403D01*
X0080165Y0085011D02*
X0081693Y0085011D01*
X0081855Y0084619D02*
X0080165Y0084619D01*
X0080165Y0084227D02*
X0082017Y0084227D01*
X0082180Y0083834D02*
X0080165Y0083834D01*
X0080165Y0083442D02*
X0082342Y0083442D01*
X0082574Y0083050D02*
X0080165Y0083050D01*
X0080165Y0082658D02*
X0082966Y0082658D01*
X0083359Y0082266D02*
X0080165Y0082266D01*
X0080165Y0081873D02*
X0083751Y0081873D01*
X0084352Y0081481D02*
X0080165Y0081481D01*
X0080165Y0081089D02*
X0084436Y0081089D01*
X0083785Y0080697D02*
X0080165Y0080697D01*
X0080165Y0080304D02*
X0083393Y0080304D01*
X0083001Y0079912D02*
X0080165Y0079912D01*
X0080165Y0079520D02*
X0082609Y0079520D01*
X0082357Y0079128D02*
X0080165Y0079128D01*
X0080165Y0078736D02*
X0082194Y0078736D01*
X0082032Y0078343D02*
X0080165Y0078343D01*
X0080165Y0077951D02*
X0081869Y0077951D01*
X0081707Y0077559D02*
X0080165Y0077559D01*
X0080165Y0077167D02*
X0081623Y0077167D01*
X0081623Y0076775D02*
X0080165Y0076775D01*
X0080165Y0076382D02*
X0081623Y0076382D01*
X0081623Y0075990D02*
X0080165Y0075990D01*
X0080165Y0075598D02*
X0081623Y0075598D01*
X0081623Y0075206D02*
X0080165Y0075206D01*
X0080165Y0074814D02*
X0081774Y0074814D01*
X0081937Y0074421D02*
X0080165Y0074421D01*
X0080165Y0074029D02*
X0082099Y0074029D01*
X0082262Y0073637D02*
X0080165Y0073637D01*
X0080165Y0073245D02*
X0082424Y0073245D01*
X0082772Y0072852D02*
X0080165Y0072852D01*
X0080165Y0072460D02*
X0083164Y0072460D01*
X0083556Y0072068D02*
X0080165Y0072068D01*
X0080165Y0071676D02*
X0083948Y0071676D01*
X0083980Y0070891D02*
X0080165Y0070891D01*
X0080165Y0070499D02*
X0083588Y0070499D01*
X0083196Y0070107D02*
X0080165Y0070107D01*
X0080165Y0069715D02*
X0082803Y0069715D01*
X0082437Y0069323D02*
X0080165Y0069323D01*
X0080165Y0068930D02*
X0082275Y0068930D01*
X0082112Y0068538D02*
X0080165Y0068538D01*
X0080165Y0068146D02*
X0081950Y0068146D01*
X0081788Y0067754D02*
X0080165Y0067754D01*
X0080165Y0067361D02*
X0081625Y0067361D01*
X0081623Y0066969D02*
X0080165Y0066969D01*
X0080165Y0066577D02*
X0081623Y0066577D01*
X0081623Y0066185D02*
X0080165Y0066185D01*
X0080165Y0065793D02*
X0081623Y0065793D01*
X0081623Y0065400D02*
X0080165Y0065400D01*
X0080165Y0065008D02*
X0081694Y0065008D01*
X0081856Y0064616D02*
X0080165Y0064616D01*
X0080165Y0064224D02*
X0082019Y0064224D01*
X0082181Y0063832D02*
X0080165Y0063832D01*
X0080165Y0063439D02*
X0082344Y0063439D01*
X0082577Y0063047D02*
X0080165Y0063047D01*
X0080165Y0062655D02*
X0082969Y0062655D01*
X0091220Y0062655D02*
X0275047Y0062655D01*
X0275047Y0063047D02*
X0152615Y0063047D01*
X0152565Y0063027D02*
X0153945Y0063598D01*
X0154554Y0064208D01*
X0186582Y0064208D01*
X0187528Y0064599D01*
X0202097Y0079169D01*
X0202959Y0079169D01*
X0204338Y0079740D01*
X0205394Y0080795D01*
X0205965Y0082175D01*
X0205965Y0083668D01*
X0205394Y0085047D01*
X0204338Y0086103D01*
X0202959Y0086674D01*
X0201466Y0086674D01*
X0200087Y0086103D01*
X0199031Y0085047D01*
X0198460Y0083668D01*
X0198460Y0082805D01*
X0185006Y0069351D01*
X0154554Y0069351D01*
X0153945Y0069961D01*
X0152626Y0070507D01*
X0179889Y0070507D01*
X0180835Y0070899D01*
X0198553Y0088617D01*
X0199416Y0088617D01*
X0200795Y0089189D01*
X0201851Y0090244D01*
X0202422Y0091624D01*
X0202422Y0093117D01*
X0201851Y0094496D01*
X0200795Y0095552D01*
X0199416Y0096123D01*
X0197923Y0096123D01*
X0196544Y0095552D01*
X0195488Y0094496D01*
X0194917Y0093117D01*
X0194917Y0092254D01*
X0178313Y0075650D01*
X0143040Y0075650D01*
X0142094Y0075259D01*
X0141371Y0074535D01*
X0137368Y0070532D01*
X0136112Y0070532D01*
X0134732Y0069961D01*
X0133677Y0068905D01*
X0133106Y0067526D01*
X0133106Y0066033D01*
X0133677Y0064654D01*
X0134732Y0063598D01*
X0136112Y0063027D01*
X0137605Y0063027D01*
X0138984Y0063598D01*
X0140040Y0064654D01*
X0140611Y0066033D01*
X0140611Y0066502D01*
X0144616Y0070507D01*
X0151012Y0070507D01*
X0149693Y0069961D01*
X0148637Y0068905D01*
X0148066Y0067526D01*
X0148066Y0066033D01*
X0148637Y0064654D01*
X0149693Y0063598D01*
X0151072Y0063027D01*
X0152565Y0063027D01*
X0153561Y0063439D02*
X0275047Y0063439D01*
X0275047Y0063832D02*
X0154178Y0063832D01*
X0151023Y0063047D02*
X0137654Y0063047D01*
X0138601Y0063439D02*
X0150076Y0063439D01*
X0149460Y0063832D02*
X0139218Y0063832D01*
X0139610Y0064224D02*
X0149067Y0064224D01*
X0148675Y0064616D02*
X0140002Y0064616D01*
X0140187Y0065008D02*
X0148491Y0065008D01*
X0148328Y0065400D02*
X0140349Y0065400D01*
X0140511Y0065793D02*
X0148166Y0065793D01*
X0148066Y0066185D02*
X0140611Y0066185D01*
X0140686Y0066577D02*
X0148066Y0066577D01*
X0148066Y0066969D02*
X0141079Y0066969D01*
X0141471Y0067361D02*
X0148066Y0067361D01*
X0148160Y0067754D02*
X0141863Y0067754D01*
X0142255Y0068146D02*
X0148323Y0068146D01*
X0148485Y0068538D02*
X0142647Y0068538D01*
X0143040Y0068930D02*
X0148663Y0068930D01*
X0149055Y0069323D02*
X0143432Y0069323D01*
X0143824Y0069715D02*
X0149447Y0069715D01*
X0150046Y0070107D02*
X0144216Y0070107D01*
X0144608Y0070499D02*
X0150993Y0070499D01*
X0152645Y0070499D02*
X0186154Y0070499D01*
X0186546Y0070891D02*
X0180817Y0070891D01*
X0181220Y0071284D02*
X0186938Y0071284D01*
X0187330Y0071676D02*
X0181612Y0071676D01*
X0182004Y0072068D02*
X0187723Y0072068D01*
X0188115Y0072460D02*
X0182396Y0072460D01*
X0182789Y0072852D02*
X0188507Y0072852D01*
X0188899Y0073245D02*
X0183181Y0073245D01*
X0183573Y0073637D02*
X0189291Y0073637D01*
X0189684Y0074029D02*
X0183965Y0074029D01*
X0184357Y0074421D02*
X0190076Y0074421D01*
X0190468Y0074814D02*
X0184750Y0074814D01*
X0185142Y0075206D02*
X0190860Y0075206D01*
X0191252Y0075598D02*
X0185534Y0075598D01*
X0185926Y0075990D02*
X0191645Y0075990D01*
X0192037Y0076382D02*
X0186318Y0076382D01*
X0186711Y0076775D02*
X0192429Y0076775D01*
X0192821Y0077167D02*
X0187103Y0077167D01*
X0187495Y0077559D02*
X0193213Y0077559D01*
X0193606Y0077951D02*
X0187887Y0077951D01*
X0188280Y0078343D02*
X0193998Y0078343D01*
X0194390Y0078736D02*
X0188672Y0078736D01*
X0189064Y0079128D02*
X0194782Y0079128D01*
X0195175Y0079520D02*
X0189456Y0079520D01*
X0189848Y0079912D02*
X0195567Y0079912D01*
X0195959Y0080304D02*
X0190241Y0080304D01*
X0190633Y0080697D02*
X0196351Y0080697D01*
X0196743Y0081089D02*
X0191025Y0081089D01*
X0191417Y0081481D02*
X0197136Y0081481D01*
X0197528Y0081873D02*
X0191809Y0081873D01*
X0192202Y0082266D02*
X0197920Y0082266D01*
X0198312Y0082658D02*
X0192594Y0082658D01*
X0192986Y0083050D02*
X0198460Y0083050D01*
X0198460Y0083442D02*
X0193378Y0083442D01*
X0193770Y0083834D02*
X0198529Y0083834D01*
X0198691Y0084227D02*
X0194163Y0084227D01*
X0194555Y0084619D02*
X0198854Y0084619D01*
X0199016Y0085011D02*
X0194947Y0085011D01*
X0195339Y0085403D02*
X0199387Y0085403D01*
X0199780Y0085795D02*
X0195732Y0085795D01*
X0196124Y0086188D02*
X0200292Y0086188D01*
X0201239Y0086580D02*
X0196516Y0086580D01*
X0196908Y0086972D02*
X0275047Y0086972D01*
X0275047Y0086580D02*
X0203186Y0086580D01*
X0204133Y0086188D02*
X0275047Y0086188D01*
X0275047Y0085795D02*
X0204646Y0085795D01*
X0205038Y0085403D02*
X0275047Y0085403D01*
X0275047Y0085011D02*
X0205409Y0085011D01*
X0205571Y0084619D02*
X0275047Y0084619D01*
X0275047Y0084227D02*
X0205734Y0084227D01*
X0205896Y0083834D02*
X0275047Y0083834D01*
X0275047Y0083442D02*
X0205965Y0083442D01*
X0205965Y0083050D02*
X0275047Y0083050D01*
X0275047Y0082658D02*
X0205965Y0082658D01*
X0205965Y0082266D02*
X0275047Y0082266D01*
X0275047Y0081873D02*
X0205840Y0081873D01*
X0205678Y0081481D02*
X0275047Y0081481D01*
X0275047Y0081089D02*
X0205516Y0081089D01*
X0205295Y0080697D02*
X0275047Y0080697D01*
X0275047Y0080304D02*
X0204903Y0080304D01*
X0204511Y0079912D02*
X0275047Y0079912D01*
X0275047Y0079520D02*
X0203808Y0079520D01*
X0202056Y0079128D02*
X0275047Y0079128D01*
X0275047Y0078736D02*
X0201664Y0078736D01*
X0201272Y0078343D02*
X0275047Y0078343D01*
X0275047Y0077951D02*
X0200879Y0077951D01*
X0200487Y0077559D02*
X0275047Y0077559D01*
X0275047Y0077167D02*
X0200095Y0077167D01*
X0199703Y0076775D02*
X0275047Y0076775D01*
X0275047Y0076382D02*
X0199311Y0076382D01*
X0198918Y0075990D02*
X0275047Y0075990D01*
X0275047Y0075598D02*
X0198526Y0075598D01*
X0198134Y0075206D02*
X0275047Y0075206D01*
X0275047Y0074814D02*
X0197742Y0074814D01*
X0197350Y0074421D02*
X0275047Y0074421D01*
X0275047Y0074029D02*
X0196957Y0074029D01*
X0196565Y0073637D02*
X0275047Y0073637D01*
X0275047Y0073245D02*
X0196173Y0073245D01*
X0195781Y0072852D02*
X0275047Y0072852D01*
X0275047Y0072460D02*
X0195388Y0072460D01*
X0194996Y0072068D02*
X0275047Y0072068D01*
X0275047Y0071676D02*
X0194604Y0071676D01*
X0194212Y0071284D02*
X0275047Y0071284D01*
X0275047Y0070891D02*
X0193820Y0070891D01*
X0193427Y0070499D02*
X0275047Y0070499D01*
X0275047Y0070107D02*
X0193035Y0070107D01*
X0192643Y0069715D02*
X0275047Y0069715D01*
X0275047Y0069323D02*
X0192251Y0069323D01*
X0191859Y0068930D02*
X0275047Y0068930D01*
X0275047Y0068538D02*
X0191466Y0068538D01*
X0191074Y0068146D02*
X0275047Y0068146D01*
X0275047Y0067754D02*
X0190682Y0067754D01*
X0190290Y0067361D02*
X0275047Y0067361D01*
X0275047Y0066969D02*
X0189897Y0066969D01*
X0189505Y0066577D02*
X0275047Y0066577D01*
X0275047Y0066185D02*
X0189113Y0066185D01*
X0188721Y0065793D02*
X0275047Y0065793D01*
X0275047Y0065400D02*
X0188329Y0065400D01*
X0187936Y0065008D02*
X0275047Y0065008D01*
X0275047Y0064616D02*
X0187544Y0064616D01*
X0186621Y0064224D02*
X0275047Y0064224D01*
X0275047Y0087364D02*
X0197300Y0087364D01*
X0197693Y0087757D02*
X0275047Y0087757D01*
X0275047Y0088149D02*
X0198085Y0088149D01*
X0198477Y0088541D02*
X0275047Y0088541D01*
X0275047Y0088933D02*
X0200178Y0088933D01*
X0200932Y0089325D02*
X0275047Y0089325D01*
X0275047Y0089718D02*
X0201324Y0089718D01*
X0201716Y0090110D02*
X0275047Y0090110D01*
X0275047Y0090502D02*
X0201957Y0090502D01*
X0202120Y0090894D02*
X0275047Y0090894D01*
X0275047Y0091286D02*
X0202282Y0091286D01*
X0202422Y0091679D02*
X0275047Y0091679D01*
X0275047Y0092071D02*
X0202422Y0092071D01*
X0202422Y0092463D02*
X0275047Y0092463D01*
X0275047Y0092855D02*
X0202422Y0092855D01*
X0202368Y0093247D02*
X0275047Y0093247D01*
X0275047Y0093640D02*
X0202205Y0093640D01*
X0202043Y0094032D02*
X0275047Y0094032D01*
X0275047Y0094424D02*
X0201880Y0094424D01*
X0201530Y0094816D02*
X0275047Y0094816D01*
X0275047Y0095209D02*
X0201138Y0095209D01*
X0200676Y0095601D02*
X0275047Y0095601D01*
X0275047Y0095993D02*
X0199729Y0095993D01*
X0197609Y0095993D02*
X0180798Y0095993D01*
X0180798Y0096385D02*
X0275047Y0096385D01*
X0275047Y0096777D02*
X0180798Y0096777D01*
X0180798Y0097170D02*
X0275047Y0097170D01*
X0275047Y0097562D02*
X0180655Y0097562D01*
X0180798Y0097216D02*
X0180133Y0098823D01*
X0178903Y0100053D01*
X0177296Y0100718D01*
X0170357Y0100718D01*
X0168750Y0100053D01*
X0167521Y0098823D01*
X0166855Y0097216D01*
X0166855Y0095477D01*
X0167521Y0093870D01*
X0168750Y0092640D01*
X0170357Y0091975D01*
X0177296Y0091975D01*
X0178903Y0092640D01*
X0180133Y0093870D01*
X0180798Y0095477D01*
X0180798Y0097216D01*
X0180493Y0097954D02*
X0275047Y0097954D01*
X0275047Y0098346D02*
X0180330Y0098346D01*
X0180168Y0098738D02*
X0275047Y0098738D01*
X0275047Y0099131D02*
X0179825Y0099131D01*
X0179433Y0099523D02*
X0275047Y0099523D01*
X0275047Y0099915D02*
X0179041Y0099915D01*
X0178288Y0100307D02*
X0275047Y0100307D01*
X0275047Y0100700D02*
X0177341Y0100700D01*
X0177296Y0101975D02*
X0178903Y0102640D01*
X0180133Y0103870D01*
X0180798Y0105477D01*
X0180798Y0107216D01*
X0180133Y0108823D01*
X0178903Y0110053D01*
X0177296Y0110718D01*
X0170357Y0110718D01*
X0168750Y0110053D01*
X0167521Y0108823D01*
X0166855Y0107216D01*
X0166855Y0105477D01*
X0167521Y0103870D01*
X0168750Y0102640D01*
X0170357Y0101975D01*
X0177296Y0101975D01*
X0178005Y0102268D02*
X0275047Y0102268D01*
X0275047Y0101876D02*
X0113839Y0101876D01*
X0113839Y0101484D02*
X0275047Y0101484D01*
X0275047Y0101092D02*
X0113839Y0101092D01*
X0113839Y0100700D02*
X0127389Y0100700D01*
X0126443Y0100307D02*
X0113839Y0100307D01*
X0113839Y0099915D02*
X0125857Y0099915D01*
X0125465Y0099523D02*
X0113839Y0099523D01*
X0113839Y0099131D02*
X0125073Y0099131D01*
X0124799Y0098738D02*
X0113839Y0098738D01*
X0113839Y0098346D02*
X0124637Y0098346D01*
X0124474Y0097954D02*
X0113839Y0097954D01*
X0113839Y0097562D02*
X0124312Y0097562D01*
X0124217Y0097170D02*
X0113839Y0097170D01*
X0113839Y0096777D02*
X0124217Y0096777D01*
X0124217Y0096385D02*
X0114039Y0096385D01*
X0114431Y0095993D02*
X0124217Y0095993D01*
X0124217Y0095601D02*
X0114823Y0095601D01*
X0115216Y0095209D02*
X0124377Y0095209D01*
X0124540Y0094816D02*
X0115608Y0094816D01*
X0116000Y0094424D02*
X0124702Y0094424D01*
X0124865Y0094032D02*
X0116392Y0094032D01*
X0116785Y0093640D02*
X0125231Y0093640D01*
X0127481Y0102814D02*
X0128215Y0102668D01*
X0130992Y0102668D01*
X0130992Y0106268D01*
X0124792Y0106268D01*
X0124792Y0106091D01*
X0124938Y0105357D01*
X0125224Y0104666D01*
X0125640Y0104044D01*
X0126169Y0103515D01*
X0126790Y0103100D01*
X0127481Y0102814D01*
X0126904Y0103053D02*
X0113839Y0103053D01*
X0113839Y0103445D02*
X0126274Y0103445D01*
X0125847Y0103837D02*
X0113839Y0103837D01*
X0113839Y0104229D02*
X0125516Y0104229D01*
X0125254Y0104622D02*
X0113839Y0104622D01*
X0113839Y0105014D02*
X0125080Y0105014D01*
X0124928Y0105406D02*
X0113839Y0105406D01*
X0113839Y0105798D02*
X0124850Y0105798D01*
X0124792Y0106190D02*
X0113839Y0106190D01*
X0113839Y0106583D02*
X0130992Y0106583D01*
X0130992Y0106661D02*
X0130992Y0106268D01*
X0131386Y0106268D01*
X0131386Y0102668D01*
X0134163Y0102668D01*
X0134896Y0102814D01*
X0135587Y0103100D01*
X0136209Y0103515D01*
X0136738Y0104044D01*
X0137154Y0104666D01*
X0137172Y0104711D01*
X0137521Y0103870D01*
X0138750Y0102640D01*
X0140357Y0101975D01*
X0147296Y0101975D01*
X0148903Y0102640D01*
X0150133Y0103870D01*
X0150798Y0105477D01*
X0150798Y0107216D01*
X0150133Y0108823D01*
X0148903Y0110053D01*
X0147296Y0110718D01*
X0140357Y0110718D01*
X0138750Y0110053D01*
X0137521Y0108823D01*
X0137221Y0108100D01*
X0137154Y0108263D01*
X0136738Y0108885D01*
X0136209Y0109414D01*
X0135587Y0109829D01*
X0134896Y0110115D01*
X0134163Y0110261D01*
X0131386Y0110261D01*
X0131386Y0106661D01*
X0130992Y0106661D01*
X0124792Y0106661D01*
X0124792Y0106839D01*
X0124938Y0107572D01*
X0125224Y0108263D01*
X0125640Y0108885D01*
X0126169Y0109414D01*
X0126790Y0109829D01*
X0127481Y0110115D01*
X0128215Y0110261D01*
X0130992Y0110261D01*
X0130992Y0106661D01*
X0130992Y0106975D02*
X0131386Y0106975D01*
X0131386Y0107367D02*
X0130992Y0107367D01*
X0130992Y0107759D02*
X0131386Y0107759D01*
X0131386Y0108152D02*
X0130992Y0108152D01*
X0130992Y0108544D02*
X0131386Y0108544D01*
X0131386Y0108936D02*
X0130992Y0108936D01*
X0130992Y0109328D02*
X0131386Y0109328D01*
X0131386Y0109720D02*
X0130992Y0109720D01*
X0130992Y0110113D02*
X0131386Y0110113D01*
X0134903Y0110113D02*
X0138895Y0110113D01*
X0138418Y0109720D02*
X0135750Y0109720D01*
X0136295Y0109328D02*
X0138026Y0109328D01*
X0137634Y0108936D02*
X0136687Y0108936D01*
X0136966Y0108544D02*
X0137405Y0108544D01*
X0137243Y0108152D02*
X0137200Y0108152D01*
X0137124Y0104622D02*
X0137209Y0104622D01*
X0137372Y0104229D02*
X0136862Y0104229D01*
X0136531Y0103837D02*
X0137554Y0103837D01*
X0137946Y0103445D02*
X0136104Y0103445D01*
X0135474Y0103053D02*
X0138338Y0103053D01*
X0138730Y0102661D02*
X0113839Y0102661D01*
X0113839Y0102268D02*
X0139648Y0102268D01*
X0140312Y0100700D02*
X0134989Y0100700D01*
X0135935Y0100307D02*
X0139365Y0100307D01*
X0138613Y0099915D02*
X0136521Y0099915D01*
X0136913Y0099523D02*
X0138221Y0099523D01*
X0137829Y0099131D02*
X0137305Y0099131D01*
X0131386Y0103053D02*
X0130992Y0103053D01*
X0130992Y0103445D02*
X0131386Y0103445D01*
X0131386Y0103837D02*
X0130992Y0103837D01*
X0130992Y0104229D02*
X0131386Y0104229D01*
X0131386Y0104622D02*
X0130992Y0104622D01*
X0130992Y0105014D02*
X0131386Y0105014D01*
X0131386Y0105406D02*
X0130992Y0105406D01*
X0130992Y0105798D02*
X0131386Y0105798D01*
X0131386Y0106190D02*
X0130992Y0106190D01*
X0127475Y0110113D02*
X0113839Y0110113D01*
X0113839Y0109720D02*
X0126628Y0109720D01*
X0126083Y0109328D02*
X0113839Y0109328D01*
X0113839Y0108936D02*
X0125691Y0108936D01*
X0125412Y0108544D02*
X0113839Y0108544D01*
X0113839Y0108152D02*
X0125178Y0108152D01*
X0125016Y0107759D02*
X0113839Y0107759D01*
X0113839Y0107367D02*
X0124897Y0107367D01*
X0124819Y0106975D02*
X0113839Y0106975D01*
X0113715Y0110505D02*
X0139842Y0110505D01*
X0140357Y0111975D02*
X0147296Y0111975D01*
X0148903Y0112640D01*
X0150133Y0113870D01*
X0150798Y0115477D01*
X0150798Y0117216D01*
X0150133Y0118823D01*
X0148903Y0120053D01*
X0147296Y0120718D01*
X0140357Y0120718D01*
X0138750Y0120053D01*
X0137537Y0118839D01*
X0137495Y0118941D01*
X0136265Y0120171D01*
X0134659Y0120836D01*
X0127719Y0120836D01*
X0126113Y0120171D01*
X0124883Y0118941D01*
X0124217Y0117334D01*
X0124217Y0115595D01*
X0124883Y0113988D01*
X0126113Y0112758D01*
X0127719Y0112093D01*
X0134659Y0112093D01*
X0136265Y0112758D01*
X0137479Y0113972D01*
X0137521Y0113870D01*
X0138750Y0112640D01*
X0140357Y0111975D01*
X0140118Y0112074D02*
X0112524Y0112074D01*
X0112132Y0112466D02*
X0126819Y0112466D01*
X0126013Y0112858D02*
X0111739Y0112858D01*
X0111347Y0113250D02*
X0125621Y0113250D01*
X0125229Y0113643D02*
X0110955Y0113643D01*
X0110563Y0114035D02*
X0124864Y0114035D01*
X0124701Y0114427D02*
X0110171Y0114427D01*
X0109778Y0114819D02*
X0124539Y0114819D01*
X0124376Y0115211D02*
X0109386Y0115211D01*
X0108994Y0115604D02*
X0124217Y0115604D01*
X0124217Y0115996D02*
X0108602Y0115996D01*
X0108209Y0116388D02*
X0124217Y0116388D01*
X0124217Y0116780D02*
X0108161Y0116780D01*
X0108161Y0117172D02*
X0124217Y0117172D01*
X0124313Y0117565D02*
X0108065Y0117565D01*
X0107903Y0117957D02*
X0124475Y0117957D01*
X0124638Y0118349D02*
X0107740Y0118349D01*
X0107578Y0118741D02*
X0124800Y0118741D01*
X0125075Y0119133D02*
X0107302Y0119133D01*
X0106910Y0119526D02*
X0125468Y0119526D01*
X0125860Y0119918D02*
X0106518Y0119918D01*
X0105929Y0120310D02*
X0126449Y0120310D01*
X0127396Y0120702D02*
X0104982Y0120702D01*
X0105089Y0122271D02*
X0139642Y0122271D01*
X0140319Y0120702D02*
X0134982Y0120702D01*
X0135929Y0120310D02*
X0139372Y0120310D01*
X0138616Y0119918D02*
X0136518Y0119918D01*
X0136910Y0119526D02*
X0138224Y0119526D01*
X0137831Y0119133D02*
X0137302Y0119133D01*
X0137149Y0113643D02*
X0137748Y0113643D01*
X0138140Y0113250D02*
X0136757Y0113250D01*
X0136365Y0112858D02*
X0138533Y0112858D01*
X0139172Y0112466D02*
X0135559Y0112466D01*
X0131386Y0123056D02*
X0130992Y0123056D01*
X0130992Y0123448D02*
X0131386Y0123448D01*
X0131386Y0123840D02*
X0130992Y0123840D01*
X0130992Y0124232D02*
X0131386Y0124232D01*
X0131386Y0124624D02*
X0130992Y0124624D01*
X0130992Y0125017D02*
X0131386Y0125017D01*
X0131386Y0125409D02*
X0130992Y0125409D01*
X0130992Y0125801D02*
X0131386Y0125801D01*
X0131386Y0126193D02*
X0130992Y0126193D01*
X0130992Y0126586D02*
X0108161Y0126586D01*
X0097169Y0121879D02*
X0275047Y0121879D01*
X0275047Y0122271D02*
X0148012Y0122271D01*
X0148926Y0122663D02*
X0170281Y0122663D01*
X0170119Y0122696D02*
X0170853Y0122550D01*
X0173630Y0122550D01*
X0173630Y0126150D01*
X0167430Y0126150D01*
X0167430Y0125972D01*
X0167576Y0125239D01*
X0167862Y0124548D01*
X0168278Y0123926D01*
X0168806Y0123397D01*
X0169428Y0122982D01*
X0170119Y0122696D01*
X0169318Y0123056D02*
X0149318Y0123056D01*
X0149711Y0123448D02*
X0168756Y0123448D01*
X0168364Y0123840D02*
X0150103Y0123840D01*
X0150283Y0124232D02*
X0168073Y0124232D01*
X0167830Y0124624D02*
X0150445Y0124624D01*
X0150608Y0125017D02*
X0167668Y0125017D01*
X0167542Y0125409D02*
X0150770Y0125409D01*
X0150798Y0125801D02*
X0167464Y0125801D01*
X0167430Y0126543D02*
X0173630Y0126543D01*
X0173630Y0126150D01*
X0174024Y0126150D01*
X0174024Y0126543D01*
X0180224Y0126543D01*
X0180224Y0126720D01*
X0180078Y0127454D01*
X0179791Y0128145D01*
X0179376Y0128767D01*
X0178847Y0129296D01*
X0178225Y0129711D01*
X0177534Y0129997D01*
X0176801Y0130143D01*
X0174024Y0130143D01*
X0174024Y0126543D01*
X0173630Y0126543D01*
X0173630Y0130143D01*
X0170853Y0130143D01*
X0170119Y0129997D01*
X0169428Y0129711D01*
X0168806Y0129296D01*
X0168278Y0128767D01*
X0167862Y0128145D01*
X0167576Y0127454D01*
X0167430Y0126720D01*
X0167430Y0126543D01*
X0167430Y0126586D02*
X0150798Y0126586D01*
X0150798Y0126978D02*
X0167481Y0126978D01*
X0167559Y0127370D02*
X0150735Y0127370D01*
X0150572Y0127762D02*
X0167704Y0127762D01*
X0167868Y0128154D02*
X0150410Y0128154D01*
X0150247Y0128547D02*
X0168130Y0128547D01*
X0168450Y0128939D02*
X0150017Y0128939D01*
X0149625Y0129331D02*
X0168859Y0129331D01*
X0169457Y0129723D02*
X0149232Y0129723D01*
X0148751Y0130115D02*
X0170713Y0130115D01*
X0173630Y0130115D02*
X0174024Y0130115D01*
X0174024Y0129723D02*
X0173630Y0129723D01*
X0173630Y0129331D02*
X0174024Y0129331D01*
X0174024Y0128939D02*
X0173630Y0128939D01*
X0173630Y0128547D02*
X0174024Y0128547D01*
X0174024Y0128154D02*
X0173630Y0128154D01*
X0173630Y0127762D02*
X0174024Y0127762D01*
X0174024Y0127370D02*
X0173630Y0127370D01*
X0173630Y0126978D02*
X0174024Y0126978D01*
X0174024Y0126586D02*
X0173630Y0126586D01*
X0173630Y0126193D02*
X0150798Y0126193D01*
X0148281Y0120310D02*
X0169372Y0120310D01*
X0168750Y0120053D02*
X0167521Y0118823D01*
X0166855Y0117216D01*
X0166855Y0115477D01*
X0167521Y0113870D01*
X0168750Y0112640D01*
X0170357Y0111975D01*
X0177296Y0111975D01*
X0178903Y0112640D01*
X0180133Y0113870D01*
X0180798Y0115477D01*
X0180798Y0117216D01*
X0180133Y0118823D01*
X0178903Y0120053D01*
X0177296Y0120718D01*
X0170357Y0120718D01*
X0168750Y0120053D01*
X0168616Y0119918D02*
X0149038Y0119918D01*
X0149430Y0119526D02*
X0168224Y0119526D01*
X0167831Y0119133D02*
X0149822Y0119133D01*
X0150167Y0118741D02*
X0167487Y0118741D01*
X0167324Y0118349D02*
X0150329Y0118349D01*
X0150492Y0117957D02*
X0167162Y0117957D01*
X0167000Y0117565D02*
X0150654Y0117565D01*
X0150798Y0117172D02*
X0166855Y0117172D01*
X0166855Y0116780D02*
X0150798Y0116780D01*
X0150798Y0116388D02*
X0166855Y0116388D01*
X0166855Y0115996D02*
X0150798Y0115996D01*
X0150798Y0115604D02*
X0166855Y0115604D01*
X0166965Y0115211D02*
X0150688Y0115211D01*
X0150526Y0114819D02*
X0167128Y0114819D01*
X0167290Y0114427D02*
X0150364Y0114427D01*
X0150201Y0114035D02*
X0167452Y0114035D01*
X0167748Y0113643D02*
X0149905Y0113643D01*
X0149513Y0113250D02*
X0168140Y0113250D01*
X0168533Y0112858D02*
X0149121Y0112858D01*
X0148482Y0112466D02*
X0169172Y0112466D01*
X0170118Y0112074D02*
X0147535Y0112074D01*
X0147811Y0110505D02*
X0169842Y0110505D01*
X0168895Y0110113D02*
X0148758Y0110113D01*
X0149235Y0109720D02*
X0168418Y0109720D01*
X0168026Y0109328D02*
X0149627Y0109328D01*
X0150020Y0108936D02*
X0167634Y0108936D01*
X0167405Y0108544D02*
X0150248Y0108544D01*
X0150411Y0108152D02*
X0167243Y0108152D01*
X0167080Y0107759D02*
X0150573Y0107759D01*
X0150736Y0107367D02*
X0166918Y0107367D01*
X0166855Y0106975D02*
X0150798Y0106975D01*
X0150798Y0106583D02*
X0166855Y0106583D01*
X0166855Y0106190D02*
X0150798Y0106190D01*
X0150798Y0105798D02*
X0166855Y0105798D01*
X0166884Y0105406D02*
X0150769Y0105406D01*
X0150607Y0105014D02*
X0167047Y0105014D01*
X0167209Y0104622D02*
X0150444Y0104622D01*
X0150282Y0104229D02*
X0167372Y0104229D01*
X0167554Y0103837D02*
X0150100Y0103837D01*
X0149708Y0103445D02*
X0167946Y0103445D01*
X0168338Y0103053D02*
X0149316Y0103053D01*
X0148923Y0102661D02*
X0168730Y0102661D01*
X0169648Y0102268D02*
X0148005Y0102268D01*
X0147341Y0100700D02*
X0170312Y0100700D01*
X0169365Y0100307D02*
X0148288Y0100307D01*
X0149041Y0099915D02*
X0168613Y0099915D01*
X0168221Y0099523D02*
X0149433Y0099523D01*
X0149825Y0099131D02*
X0167829Y0099131D01*
X0167486Y0098738D02*
X0150168Y0098738D01*
X0150330Y0098346D02*
X0167323Y0098346D01*
X0167161Y0097954D02*
X0150493Y0097954D01*
X0150655Y0097562D02*
X0166998Y0097562D01*
X0166855Y0097170D02*
X0150798Y0097170D01*
X0150798Y0096777D02*
X0166855Y0096777D01*
X0166855Y0096385D02*
X0150798Y0096385D01*
X0150798Y0095993D02*
X0166855Y0095993D01*
X0166855Y0095601D02*
X0150798Y0095601D01*
X0150687Y0095209D02*
X0166966Y0095209D01*
X0167129Y0094816D02*
X0150525Y0094816D01*
X0150362Y0094424D02*
X0167291Y0094424D01*
X0167454Y0094032D02*
X0150200Y0094032D01*
X0149902Y0093640D02*
X0167751Y0093640D01*
X0168143Y0093247D02*
X0149510Y0093247D01*
X0149118Y0092855D02*
X0168535Y0092855D01*
X0169178Y0092463D02*
X0148475Y0092463D01*
X0147528Y0092071D02*
X0170125Y0092071D01*
X0170357Y0090718D02*
X0168750Y0090053D01*
X0167521Y0088823D01*
X0166855Y0087216D01*
X0166855Y0085477D01*
X0167521Y0083870D01*
X0168750Y0082640D01*
X0170357Y0081975D01*
X0177296Y0081975D01*
X0178903Y0082640D01*
X0180133Y0083870D01*
X0180798Y0085477D01*
X0180798Y0087216D01*
X0180133Y0088823D01*
X0178903Y0090053D01*
X0177296Y0090718D01*
X0170357Y0090718D01*
X0169835Y0090502D02*
X0139808Y0090502D01*
X0139416Y0090110D02*
X0140684Y0090110D01*
X0140853Y0090143D02*
X0140119Y0089997D01*
X0139428Y0089711D01*
X0138806Y0089296D01*
X0138278Y0088767D01*
X0137862Y0088145D01*
X0137576Y0087454D01*
X0137430Y0086720D01*
X0137430Y0086543D01*
X0143630Y0086543D01*
X0143630Y0086150D01*
X0137430Y0086150D01*
X0137430Y0085972D01*
X0137576Y0085239D01*
X0137862Y0084548D01*
X0138278Y0083926D01*
X0138806Y0083397D01*
X0139428Y0082982D01*
X0140119Y0082696D01*
X0140853Y0082550D01*
X0143630Y0082550D01*
X0143630Y0086150D01*
X0144024Y0086150D01*
X0144024Y0086543D01*
X0150224Y0086543D01*
X0150224Y0086720D01*
X0150078Y0087454D01*
X0149791Y0088145D01*
X0149376Y0088767D01*
X0148847Y0089296D01*
X0148225Y0089711D01*
X0147534Y0089997D01*
X0146801Y0090143D01*
X0144024Y0090143D01*
X0144024Y0086543D01*
X0143630Y0086543D01*
X0143630Y0090143D01*
X0140853Y0090143D01*
X0140200Y0090894D02*
X0193557Y0090894D01*
X0193949Y0091286D02*
X0140593Y0091286D01*
X0140985Y0091679D02*
X0194341Y0091679D01*
X0194733Y0092071D02*
X0177528Y0092071D01*
X0178475Y0092463D02*
X0194917Y0092463D01*
X0194917Y0092855D02*
X0179118Y0092855D01*
X0179510Y0093247D02*
X0194971Y0093247D01*
X0195133Y0093640D02*
X0179902Y0093640D01*
X0180200Y0094032D02*
X0195296Y0094032D01*
X0195458Y0094424D02*
X0180362Y0094424D01*
X0180525Y0094816D02*
X0195808Y0094816D01*
X0196201Y0095209D02*
X0180687Y0095209D01*
X0180798Y0095601D02*
X0196662Y0095601D01*
X0193164Y0090502D02*
X0177818Y0090502D01*
X0178765Y0090110D02*
X0192772Y0090110D01*
X0192380Y0089718D02*
X0179238Y0089718D01*
X0179630Y0089325D02*
X0191988Y0089325D01*
X0191596Y0088933D02*
X0180023Y0088933D01*
X0180250Y0088541D02*
X0191203Y0088541D01*
X0190811Y0088149D02*
X0180412Y0088149D01*
X0180575Y0087757D02*
X0190419Y0087757D01*
X0190027Y0087364D02*
X0180737Y0087364D01*
X0180798Y0086972D02*
X0189634Y0086972D01*
X0189242Y0086580D02*
X0180798Y0086580D01*
X0180798Y0086188D02*
X0188850Y0086188D01*
X0188458Y0085795D02*
X0180798Y0085795D01*
X0180768Y0085403D02*
X0188066Y0085403D01*
X0187673Y0085011D02*
X0180605Y0085011D01*
X0180443Y0084619D02*
X0187281Y0084619D01*
X0186889Y0084227D02*
X0180281Y0084227D01*
X0180097Y0083834D02*
X0186497Y0083834D01*
X0186105Y0083442D02*
X0179705Y0083442D01*
X0179313Y0083050D02*
X0185712Y0083050D01*
X0185320Y0082658D02*
X0178921Y0082658D01*
X0177998Y0082266D02*
X0184928Y0082266D01*
X0184536Y0081873D02*
X0090438Y0081873D01*
X0090830Y0082266D02*
X0169655Y0082266D01*
X0168733Y0082658D02*
X0147344Y0082658D01*
X0147534Y0082696D02*
X0148225Y0082982D01*
X0148847Y0083397D01*
X0149376Y0083926D01*
X0149791Y0084548D01*
X0150078Y0085239D01*
X0150224Y0085972D01*
X0150224Y0086150D01*
X0144024Y0086150D01*
X0144024Y0082550D01*
X0146801Y0082550D01*
X0147534Y0082696D01*
X0148327Y0083050D02*
X0168341Y0083050D01*
X0167949Y0083442D02*
X0148892Y0083442D01*
X0149284Y0083834D02*
X0167556Y0083834D01*
X0167373Y0084227D02*
X0149577Y0084227D01*
X0149821Y0084619D02*
X0167211Y0084619D01*
X0167048Y0085011D02*
X0149983Y0085011D01*
X0150110Y0085403D02*
X0166886Y0085403D01*
X0166855Y0085795D02*
X0150188Y0085795D01*
X0150224Y0086580D02*
X0166855Y0086580D01*
X0166855Y0086972D02*
X0150174Y0086972D01*
X0150096Y0087364D02*
X0166917Y0087364D01*
X0167079Y0087757D02*
X0149952Y0087757D01*
X0149789Y0088149D02*
X0167241Y0088149D01*
X0167404Y0088541D02*
X0149527Y0088541D01*
X0149210Y0088933D02*
X0167631Y0088933D01*
X0168023Y0089325D02*
X0148803Y0089325D01*
X0148210Y0089718D02*
X0168415Y0089718D01*
X0168889Y0090110D02*
X0146969Y0090110D01*
X0144024Y0090110D02*
X0143630Y0090110D01*
X0143630Y0089718D02*
X0144024Y0089718D01*
X0144024Y0089325D02*
X0143630Y0089325D01*
X0143630Y0088933D02*
X0144024Y0088933D01*
X0144024Y0088541D02*
X0143630Y0088541D01*
X0143630Y0088149D02*
X0144024Y0088149D01*
X0144024Y0087757D02*
X0143630Y0087757D01*
X0143630Y0087364D02*
X0144024Y0087364D01*
X0144024Y0086972D02*
X0143630Y0086972D01*
X0143630Y0086580D02*
X0144024Y0086580D01*
X0144024Y0086188D02*
X0166855Y0086188D01*
X0178653Y0075990D02*
X0092566Y0075990D01*
X0092566Y0075598D02*
X0142913Y0075598D01*
X0142041Y0075206D02*
X0092566Y0075206D01*
X0092415Y0074814D02*
X0141649Y0074814D01*
X0141257Y0074421D02*
X0092252Y0074421D01*
X0092090Y0074029D02*
X0140865Y0074029D01*
X0140472Y0073637D02*
X0091927Y0073637D01*
X0091765Y0073245D02*
X0140080Y0073245D01*
X0139688Y0072852D02*
X0091417Y0072852D01*
X0091025Y0072460D02*
X0139296Y0072460D01*
X0138904Y0072068D02*
X0090633Y0072068D01*
X0090241Y0071676D02*
X0138511Y0071676D01*
X0138119Y0071284D02*
X0089360Y0071284D01*
X0090209Y0070891D02*
X0137727Y0070891D01*
X0136032Y0070499D02*
X0090601Y0070499D01*
X0090993Y0070107D02*
X0135085Y0070107D01*
X0134486Y0069715D02*
X0091386Y0069715D01*
X0091752Y0069323D02*
X0134094Y0069323D01*
X0133702Y0068930D02*
X0091914Y0068930D01*
X0092077Y0068538D02*
X0133525Y0068538D01*
X0133362Y0068146D02*
X0092239Y0068146D01*
X0092401Y0067754D02*
X0133200Y0067754D01*
X0133106Y0067361D02*
X0092564Y0067361D01*
X0092566Y0066969D02*
X0133106Y0066969D01*
X0133106Y0066577D02*
X0092566Y0066577D01*
X0092566Y0066185D02*
X0133106Y0066185D01*
X0133205Y0065793D02*
X0092566Y0065793D01*
X0092566Y0065400D02*
X0133368Y0065400D01*
X0133530Y0065008D02*
X0092495Y0065008D01*
X0092333Y0064616D02*
X0133715Y0064616D01*
X0134107Y0064224D02*
X0092170Y0064224D01*
X0092008Y0063832D02*
X0134499Y0063832D01*
X0135116Y0063439D02*
X0091845Y0063439D01*
X0091612Y0063047D02*
X0136063Y0063047D01*
X0153592Y0070107D02*
X0185761Y0070107D01*
X0185369Y0069715D02*
X0154191Y0069715D01*
X0144024Y0082658D02*
X0143630Y0082658D01*
X0143630Y0083050D02*
X0144024Y0083050D01*
X0144024Y0083442D02*
X0143630Y0083442D01*
X0143630Y0083834D02*
X0144024Y0083834D01*
X0144024Y0084227D02*
X0143630Y0084227D01*
X0143630Y0084619D02*
X0144024Y0084619D01*
X0144024Y0085011D02*
X0143630Y0085011D01*
X0143630Y0085403D02*
X0144024Y0085403D01*
X0144024Y0085795D02*
X0143630Y0085795D01*
X0143630Y0086188D02*
X0092566Y0086188D01*
X0092566Y0086580D02*
X0137430Y0086580D01*
X0137480Y0086972D02*
X0092577Y0086972D01*
X0092970Y0087364D02*
X0137558Y0087364D01*
X0137701Y0087757D02*
X0093362Y0087757D01*
X0092566Y0085795D02*
X0137465Y0085795D01*
X0137543Y0085403D02*
X0092566Y0085403D01*
X0092496Y0085011D02*
X0137670Y0085011D01*
X0137833Y0084619D02*
X0092334Y0084619D01*
X0092171Y0084227D02*
X0138077Y0084227D01*
X0138369Y0083834D02*
X0092009Y0083834D01*
X0091847Y0083442D02*
X0138761Y0083442D01*
X0139326Y0083050D02*
X0091615Y0083050D01*
X0091223Y0082658D02*
X0140309Y0082658D01*
X0137865Y0088149D02*
X0107431Y0088149D01*
X0107926Y0088541D02*
X0114714Y0088541D01*
X0114217Y0088933D02*
X0108318Y0088933D01*
X0108710Y0089325D02*
X0113825Y0089325D01*
X0113433Y0089718D02*
X0109102Y0089718D01*
X0109495Y0090110D02*
X0113041Y0090110D01*
X0112649Y0090502D02*
X0109887Y0090502D01*
X0110279Y0090894D02*
X0112256Y0090894D01*
X0111864Y0091286D02*
X0110671Y0091286D01*
X0111064Y0091679D02*
X0111472Y0091679D01*
X0107712Y0095601D02*
X0107488Y0095601D01*
X0107440Y0095357D02*
X0107586Y0096091D01*
X0107586Y0096268D01*
X0101386Y0096268D01*
X0101386Y0096661D01*
X0107586Y0096661D01*
X0107586Y0096839D01*
X0107440Y0097572D01*
X0107154Y0098263D01*
X0106738Y0098885D01*
X0106209Y0099414D01*
X0105587Y0099829D01*
X0104896Y0100115D01*
X0104163Y0100261D01*
X0101386Y0100261D01*
X0101386Y0096661D01*
X0100992Y0096661D01*
X0100992Y0096268D01*
X0094792Y0096268D01*
X0094792Y0096091D01*
X0094938Y0095357D01*
X0095224Y0094666D01*
X0095640Y0094044D01*
X0096169Y0093515D01*
X0096790Y0093100D01*
X0097096Y0092973D01*
X0091859Y0092973D01*
X0091311Y0092747D01*
X0091733Y0093168D01*
X0092566Y0095179D01*
X0092566Y0097356D01*
X0092382Y0097800D01*
X0094614Y0100032D01*
X0095338Y0100756D01*
X0095729Y0101701D01*
X0095729Y0103142D01*
X0096113Y0102758D01*
X0097719Y0102093D01*
X0104659Y0102093D01*
X0106265Y0102758D01*
X0107495Y0103988D01*
X0108161Y0105595D01*
X0108161Y0107334D01*
X0107495Y0108941D01*
X0106265Y0110171D01*
X0104659Y0110836D01*
X0097719Y0110836D01*
X0096113Y0110171D01*
X0095729Y0109787D01*
X0095729Y0113142D01*
X0096113Y0112758D01*
X0097719Y0112093D01*
X0104659Y0112093D01*
X0105063Y0112261D01*
X0108302Y0109021D01*
X0108302Y0096191D01*
X0107420Y0095309D01*
X0107440Y0095357D01*
X0107566Y0095993D02*
X0108104Y0095993D01*
X0108302Y0096385D02*
X0101386Y0096385D01*
X0101386Y0096777D02*
X0100992Y0096777D01*
X0100992Y0096661D02*
X0100992Y0100261D01*
X0098215Y0100261D01*
X0097481Y0100115D01*
X0096790Y0099829D01*
X0096169Y0099414D01*
X0095640Y0098885D01*
X0095224Y0098263D01*
X0094938Y0097572D01*
X0094792Y0096839D01*
X0094792Y0096661D01*
X0100992Y0096661D01*
X0100992Y0096385D02*
X0092566Y0096385D01*
X0092566Y0095993D02*
X0094812Y0095993D01*
X0094890Y0095601D02*
X0092566Y0095601D01*
X0092566Y0095209D02*
X0095000Y0095209D01*
X0095162Y0094816D02*
X0092416Y0094816D01*
X0092253Y0094424D02*
X0095386Y0094424D01*
X0095652Y0094032D02*
X0092091Y0094032D01*
X0091928Y0093640D02*
X0096044Y0093640D01*
X0096570Y0093247D02*
X0091766Y0093247D01*
X0091574Y0092855D02*
X0091420Y0092855D01*
X0089796Y0091464D02*
X0089518Y0091186D01*
X0089322Y0091268D01*
X0089796Y0091464D01*
X0089618Y0091286D02*
X0089367Y0091286D01*
X0092566Y0096777D02*
X0094792Y0096777D01*
X0094858Y0097170D02*
X0092566Y0097170D01*
X0092481Y0097562D02*
X0094936Y0097562D01*
X0095096Y0097954D02*
X0092536Y0097954D01*
X0092928Y0098346D02*
X0095280Y0098346D01*
X0095542Y0098738D02*
X0093320Y0098738D01*
X0093712Y0099131D02*
X0095886Y0099131D01*
X0096332Y0099523D02*
X0094105Y0099523D01*
X0094497Y0099915D02*
X0096998Y0099915D01*
X0095281Y0100700D02*
X0108302Y0100700D01*
X0108302Y0101092D02*
X0095477Y0101092D01*
X0095639Y0101484D02*
X0108302Y0101484D01*
X0108302Y0101876D02*
X0095729Y0101876D01*
X0095729Y0102268D02*
X0097296Y0102268D01*
X0096349Y0102661D02*
X0095729Y0102661D01*
X0095729Y0103053D02*
X0095818Y0103053D01*
X0094889Y0100307D02*
X0108302Y0100307D01*
X0108302Y0099915D02*
X0105380Y0099915D01*
X0106046Y0099523D02*
X0108302Y0099523D01*
X0108302Y0099131D02*
X0106492Y0099131D01*
X0106836Y0098738D02*
X0108302Y0098738D01*
X0108302Y0098346D02*
X0107098Y0098346D01*
X0107282Y0097954D02*
X0108302Y0097954D01*
X0108302Y0097562D02*
X0107442Y0097562D01*
X0107520Y0097170D02*
X0108302Y0097170D01*
X0108302Y0096777D02*
X0107586Y0096777D01*
X0108302Y0102268D02*
X0105082Y0102268D01*
X0106029Y0102661D02*
X0108302Y0102661D01*
X0108302Y0103053D02*
X0106560Y0103053D01*
X0106952Y0103445D02*
X0108302Y0103445D01*
X0108302Y0103837D02*
X0107344Y0103837D01*
X0107595Y0104229D02*
X0108302Y0104229D01*
X0108302Y0104622D02*
X0107757Y0104622D01*
X0107920Y0105014D02*
X0108302Y0105014D01*
X0108302Y0105406D02*
X0108082Y0105406D01*
X0108161Y0105798D02*
X0108302Y0105798D01*
X0108302Y0106190D02*
X0108161Y0106190D01*
X0108161Y0106583D02*
X0108302Y0106583D01*
X0108302Y0106975D02*
X0108161Y0106975D01*
X0108147Y0107367D02*
X0108302Y0107367D01*
X0108302Y0107759D02*
X0107984Y0107759D01*
X0107822Y0108152D02*
X0108302Y0108152D01*
X0108302Y0108544D02*
X0107660Y0108544D01*
X0107497Y0108936D02*
X0108302Y0108936D01*
X0107996Y0109328D02*
X0107108Y0109328D01*
X0106716Y0109720D02*
X0107603Y0109720D01*
X0107211Y0110113D02*
X0106323Y0110113D01*
X0106819Y0110505D02*
X0105459Y0110505D01*
X0106035Y0111289D02*
X0095729Y0111289D01*
X0095729Y0110897D02*
X0106427Y0110897D01*
X0105642Y0111681D02*
X0095729Y0111681D01*
X0095729Y0112074D02*
X0105250Y0112074D01*
X0096819Y0112466D02*
X0095729Y0112466D01*
X0095729Y0112858D02*
X0096013Y0112858D01*
X0095729Y0110505D02*
X0096919Y0110505D01*
X0096055Y0110113D02*
X0095729Y0110113D01*
X0090586Y0110113D02*
X0090133Y0110113D01*
X0090285Y0110003D02*
X0090586Y0109702D01*
X0090586Y0112021D01*
X0090194Y0111629D01*
X0088544Y0110946D01*
X0088974Y0110806D01*
X0089661Y0110456D01*
X0090285Y0110003D01*
X0090567Y0109720D02*
X0090586Y0109720D01*
X0090586Y0110505D02*
X0089565Y0110505D01*
X0089373Y0111289D02*
X0090586Y0111289D01*
X0090586Y0110897D02*
X0088693Y0110897D01*
X0090246Y0111681D02*
X0090586Y0111681D01*
X0095729Y0119918D02*
X0095860Y0119918D01*
X0095729Y0120310D02*
X0096449Y0120310D01*
X0095993Y0120702D02*
X0097396Y0120702D01*
X0096777Y0121487D02*
X0275047Y0121487D01*
X0275047Y0121095D02*
X0096385Y0121095D01*
X0091331Y0137175D02*
X0275047Y0137175D01*
X0275047Y0130115D02*
X0176941Y0130115D01*
X0178196Y0129723D02*
X0275047Y0129723D01*
X0275047Y0129331D02*
X0178794Y0129331D01*
X0179204Y0128939D02*
X0275047Y0128939D01*
X0275047Y0128547D02*
X0179523Y0128547D01*
X0179785Y0128154D02*
X0275047Y0128154D01*
X0275047Y0127762D02*
X0179950Y0127762D01*
X0180094Y0127370D02*
X0275047Y0127370D01*
X0275047Y0126978D02*
X0180172Y0126978D01*
X0180224Y0126586D02*
X0275047Y0126586D01*
X0275047Y0126193D02*
X0174024Y0126193D01*
X0174024Y0126150D02*
X0180224Y0126150D01*
X0180224Y0125972D01*
X0180078Y0125239D01*
X0179791Y0124548D01*
X0179376Y0123926D01*
X0178847Y0123397D01*
X0178225Y0122982D01*
X0177534Y0122696D01*
X0176801Y0122550D01*
X0174024Y0122550D01*
X0174024Y0126150D01*
X0174024Y0125801D02*
X0173630Y0125801D01*
X0173630Y0125409D02*
X0174024Y0125409D01*
X0174024Y0125017D02*
X0173630Y0125017D01*
X0173630Y0124624D02*
X0174024Y0124624D01*
X0174024Y0124232D02*
X0173630Y0124232D01*
X0173630Y0123840D02*
X0174024Y0123840D01*
X0174024Y0123448D02*
X0173630Y0123448D01*
X0173630Y0123056D02*
X0174024Y0123056D01*
X0174024Y0122663D02*
X0173630Y0122663D01*
X0177373Y0122663D02*
X0275047Y0122663D01*
X0275047Y0123056D02*
X0178336Y0123056D01*
X0178898Y0123448D02*
X0275047Y0123448D01*
X0275047Y0123840D02*
X0179290Y0123840D01*
X0179581Y0124232D02*
X0275047Y0124232D01*
X0275047Y0124624D02*
X0179823Y0124624D01*
X0179986Y0125017D02*
X0275047Y0125017D01*
X0275047Y0125409D02*
X0180111Y0125409D01*
X0180190Y0125801D02*
X0275047Y0125801D01*
X0275047Y0120702D02*
X0177334Y0120702D01*
X0178281Y0120310D02*
X0275047Y0120310D01*
X0275047Y0119918D02*
X0179038Y0119918D01*
X0179430Y0119526D02*
X0275047Y0119526D01*
X0275047Y0119133D02*
X0179822Y0119133D01*
X0180167Y0118741D02*
X0275047Y0118741D01*
X0275047Y0118349D02*
X0180329Y0118349D01*
X0180492Y0117957D02*
X0275047Y0117957D01*
X0275047Y0117565D02*
X0180654Y0117565D01*
X0180798Y0117172D02*
X0275047Y0117172D01*
X0275047Y0116780D02*
X0180798Y0116780D01*
X0180798Y0116388D02*
X0275047Y0116388D01*
X0275047Y0115996D02*
X0180798Y0115996D01*
X0180798Y0115604D02*
X0275047Y0115604D01*
X0275047Y0115211D02*
X0180688Y0115211D01*
X0180526Y0114819D02*
X0275047Y0114819D01*
X0275047Y0114427D02*
X0180364Y0114427D01*
X0180201Y0114035D02*
X0275047Y0114035D01*
X0275047Y0113643D02*
X0179905Y0113643D01*
X0179513Y0113250D02*
X0275047Y0113250D01*
X0275047Y0112858D02*
X0179121Y0112858D01*
X0178482Y0112466D02*
X0275047Y0112466D01*
X0275047Y0112074D02*
X0177535Y0112074D01*
X0177811Y0110505D02*
X0275047Y0110505D01*
X0275047Y0110897D02*
X0113552Y0110897D01*
X0113308Y0111289D02*
X0275047Y0111289D01*
X0275047Y0111681D02*
X0112916Y0111681D01*
X0101386Y0099915D02*
X0100992Y0099915D01*
X0100992Y0099523D02*
X0101386Y0099523D01*
X0101386Y0099131D02*
X0100992Y0099131D01*
X0100992Y0098738D02*
X0101386Y0098738D01*
X0101386Y0098346D02*
X0100992Y0098346D01*
X0100992Y0097954D02*
X0101386Y0097954D01*
X0101386Y0097562D02*
X0100992Y0097562D01*
X0100992Y0097170D02*
X0101386Y0097170D01*
X0089104Y0101796D02*
X0088794Y0101486D01*
X0088544Y0101590D01*
X0088974Y0101730D01*
X0089104Y0101796D01*
X0089837Y0081481D02*
X0184143Y0081481D01*
X0183751Y0081089D02*
X0089753Y0081089D01*
X0090404Y0080697D02*
X0183359Y0080697D01*
X0182967Y0080304D02*
X0090796Y0080304D01*
X0091188Y0079912D02*
X0182575Y0079912D01*
X0182182Y0079520D02*
X0091580Y0079520D01*
X0091832Y0079128D02*
X0181790Y0079128D01*
X0181398Y0078736D02*
X0091995Y0078736D01*
X0092157Y0078343D02*
X0181006Y0078343D01*
X0180614Y0077951D02*
X0092320Y0077951D01*
X0092482Y0077559D02*
X0180221Y0077559D01*
X0179829Y0077167D02*
X0092566Y0077167D01*
X0092566Y0076775D02*
X0179437Y0076775D01*
X0179045Y0076382D02*
X0092566Y0076382D01*
X0084829Y0071284D02*
X0080165Y0071284D01*
X0137742Y0088541D02*
X0138127Y0088541D01*
X0138239Y0088933D02*
X0138444Y0088933D01*
X0138632Y0089325D02*
X0138851Y0089325D01*
X0139024Y0089718D02*
X0139444Y0089718D01*
X0147334Y0120702D02*
X0170319Y0120702D01*
X0178758Y0110113D02*
X0275047Y0110113D01*
X0275047Y0109720D02*
X0179235Y0109720D01*
X0179627Y0109328D02*
X0275047Y0109328D01*
X0275047Y0108936D02*
X0180020Y0108936D01*
X0180248Y0108544D02*
X0275047Y0108544D01*
X0275047Y0108152D02*
X0180411Y0108152D01*
X0180573Y0107759D02*
X0275047Y0107759D01*
X0275047Y0107367D02*
X0180736Y0107367D01*
X0180798Y0106975D02*
X0275047Y0106975D01*
X0275047Y0106583D02*
X0180798Y0106583D01*
X0180798Y0106190D02*
X0275047Y0106190D01*
X0275047Y0105798D02*
X0180798Y0105798D01*
X0180769Y0105406D02*
X0275047Y0105406D01*
X0275047Y0105014D02*
X0180607Y0105014D01*
X0180444Y0104622D02*
X0275047Y0104622D01*
X0275047Y0104229D02*
X0180282Y0104229D01*
X0180100Y0103837D02*
X0275047Y0103837D01*
X0275047Y0103445D02*
X0179708Y0103445D01*
X0179316Y0103053D02*
X0275047Y0103053D01*
X0275047Y0102661D02*
X0178923Y0102661D01*
X0185088Y0143843D02*
X0154472Y0143843D01*
X0154080Y0144235D02*
X0185480Y0144235D01*
X0185872Y0144627D02*
X0153324Y0144627D01*
X0142234Y0149726D02*
X0092566Y0149726D01*
X0092566Y0150118D02*
X0178371Y0150118D01*
X0178763Y0150510D02*
X0092566Y0150510D01*
X0092566Y0150903D02*
X0179156Y0150903D01*
X0179548Y0151295D02*
X0092566Y0151295D01*
X0092566Y0151687D02*
X0179940Y0151687D01*
X0180332Y0152079D02*
X0092436Y0152079D01*
X0092274Y0152472D02*
X0180724Y0152472D01*
X0181117Y0152864D02*
X0092111Y0152864D01*
X0091949Y0153256D02*
X0181509Y0153256D01*
X0181901Y0153648D02*
X0091786Y0153648D01*
X0091469Y0154040D02*
X0182293Y0154040D01*
X0182685Y0154433D02*
X0091077Y0154433D01*
X0090685Y0154825D02*
X0183078Y0154825D01*
X0183470Y0155217D02*
X0090293Y0155217D01*
X0090104Y0156001D02*
X0184254Y0156001D01*
X0183862Y0155609D02*
X0089486Y0155609D01*
X0090549Y0156394D02*
X0170335Y0156394D01*
X0170357Y0156384D02*
X0177296Y0156384D01*
X0178903Y0157050D01*
X0180133Y0158280D01*
X0180798Y0159886D01*
X0180798Y0161625D01*
X0180133Y0163232D01*
X0178903Y0164462D01*
X0177296Y0165128D01*
X0170357Y0165128D01*
X0168750Y0164462D01*
X0167521Y0163232D01*
X0166855Y0161625D01*
X0166855Y0159886D01*
X0167521Y0158280D01*
X0168750Y0157050D01*
X0170357Y0156384D01*
X0169388Y0156786D02*
X0090941Y0156786D01*
X0091333Y0157178D02*
X0139943Y0157178D01*
X0140119Y0157105D02*
X0140853Y0156959D01*
X0143630Y0156959D01*
X0143630Y0160559D01*
X0144024Y0160559D01*
X0144024Y0160953D01*
X0150224Y0160953D01*
X0150224Y0161130D01*
X0150078Y0161863D01*
X0149791Y0162554D01*
X0149376Y0163176D01*
X0148847Y0163705D01*
X0148225Y0164121D01*
X0147534Y0164407D01*
X0146801Y0164553D01*
X0144024Y0164553D01*
X0144024Y0160953D01*
X0143630Y0160953D01*
X0143630Y0164553D01*
X0140853Y0164553D01*
X0140119Y0164407D01*
X0139428Y0164121D01*
X0138806Y0163705D01*
X0138278Y0163176D01*
X0137862Y0162554D01*
X0137576Y0161863D01*
X0137430Y0161130D01*
X0137430Y0160953D01*
X0143630Y0160953D01*
X0143630Y0160559D01*
X0137430Y0160559D01*
X0137430Y0160382D01*
X0137576Y0159648D01*
X0137862Y0158957D01*
X0138278Y0158336D01*
X0138806Y0157807D01*
X0139428Y0157391D01*
X0140119Y0157105D01*
X0139160Y0157570D02*
X0091726Y0157570D01*
X0091892Y0157962D02*
X0138651Y0157962D01*
X0138265Y0158355D02*
X0092055Y0158355D01*
X0092217Y0158747D02*
X0138003Y0158747D01*
X0137787Y0159139D02*
X0092380Y0159139D01*
X0092542Y0159531D02*
X0137624Y0159531D01*
X0137521Y0159924D02*
X0092566Y0159924D01*
X0092566Y0160316D02*
X0137443Y0160316D01*
X0137430Y0161100D02*
X0092566Y0161100D01*
X0092566Y0160708D02*
X0143630Y0160708D01*
X0143630Y0161100D02*
X0144024Y0161100D01*
X0144024Y0160708D02*
X0166855Y0160708D01*
X0166855Y0161100D02*
X0150224Y0161100D01*
X0150152Y0161492D02*
X0166855Y0161492D01*
X0166962Y0161885D02*
X0150069Y0161885D01*
X0149906Y0162277D02*
X0167125Y0162277D01*
X0167287Y0162669D02*
X0149715Y0162669D01*
X0149453Y0163061D02*
X0167450Y0163061D01*
X0167742Y0163453D02*
X0149099Y0163453D01*
X0148637Y0163846D02*
X0168134Y0163846D01*
X0168526Y0164238D02*
X0147942Y0164238D01*
X0147796Y0166591D02*
X0169858Y0166591D01*
X0170357Y0166384D02*
X0168750Y0167050D01*
X0167521Y0168280D01*
X0166855Y0169886D01*
X0166855Y0171625D01*
X0167521Y0173232D01*
X0168750Y0174462D01*
X0170357Y0175128D01*
X0177296Y0175128D01*
X0178903Y0174462D01*
X0180133Y0173232D01*
X0180798Y0171625D01*
X0180798Y0169886D01*
X0180133Y0168280D01*
X0178903Y0167050D01*
X0177296Y0166384D01*
X0170357Y0166384D01*
X0170103Y0165022D02*
X0139919Y0165022D01*
X0139527Y0164630D02*
X0169156Y0164630D01*
X0168911Y0166983D02*
X0148743Y0166983D01*
X0149229Y0167376D02*
X0168425Y0167376D01*
X0168032Y0167768D02*
X0149621Y0167768D01*
X0150013Y0168160D02*
X0167640Y0168160D01*
X0167408Y0168552D02*
X0150246Y0168552D01*
X0150408Y0168944D02*
X0167245Y0168944D01*
X0167083Y0169337D02*
X0150571Y0169337D01*
X0150733Y0169729D02*
X0166920Y0169729D01*
X0166855Y0170121D02*
X0150798Y0170121D01*
X0150798Y0170513D02*
X0166855Y0170513D01*
X0166855Y0170905D02*
X0150798Y0170905D01*
X0150798Y0171298D02*
X0166855Y0171298D01*
X0166882Y0171690D02*
X0150772Y0171690D01*
X0150609Y0172082D02*
X0167044Y0172082D01*
X0167207Y0172474D02*
X0150447Y0172474D01*
X0150284Y0172867D02*
X0167369Y0172867D01*
X0167547Y0173259D02*
X0150106Y0173259D01*
X0149714Y0173651D02*
X0167939Y0173651D01*
X0168332Y0174043D02*
X0149322Y0174043D01*
X0148930Y0174435D02*
X0168724Y0174435D01*
X0169633Y0174828D02*
X0148020Y0174828D01*
X0147326Y0176396D02*
X0170328Y0176396D01*
X0170357Y0176384D02*
X0177296Y0176384D01*
X0178903Y0177050D01*
X0180133Y0178280D01*
X0180798Y0179886D01*
X0180798Y0181625D01*
X0180133Y0183232D01*
X0178903Y0184462D01*
X0177296Y0185128D01*
X0170357Y0185128D01*
X0168750Y0184462D01*
X0167521Y0183232D01*
X0166855Y0181625D01*
X0166855Y0179886D01*
X0167521Y0178280D01*
X0168750Y0177050D01*
X0170357Y0176384D01*
X0169381Y0176789D02*
X0148273Y0176789D01*
X0148903Y0177050D02*
X0150133Y0178280D01*
X0150798Y0179886D01*
X0150798Y0181625D01*
X0150133Y0183232D01*
X0148903Y0184462D01*
X0147296Y0185128D01*
X0140357Y0185128D01*
X0138750Y0184462D01*
X0137521Y0183232D01*
X0137221Y0182509D01*
X0137154Y0182672D01*
X0137289Y0182672D01*
X0137154Y0182672D02*
X0136738Y0183294D01*
X0136209Y0183823D01*
X0135587Y0184239D01*
X0134896Y0184525D01*
X0134163Y0184671D01*
X0131386Y0184671D01*
X0131386Y0181071D01*
X0130992Y0181071D01*
X0130992Y0184671D01*
X0128215Y0184671D01*
X0127481Y0184525D01*
X0126790Y0184239D01*
X0126169Y0183823D01*
X0125640Y0183294D01*
X0125224Y0182672D01*
X0113839Y0182672D01*
X0113839Y0183064D02*
X0125486Y0183064D01*
X0125224Y0182672D02*
X0124938Y0181982D01*
X0124792Y0181248D01*
X0124792Y0181071D01*
X0130992Y0181071D01*
X0130992Y0180677D01*
X0131386Y0180677D01*
X0131386Y0177077D01*
X0134163Y0177077D01*
X0134896Y0177223D01*
X0135587Y0177509D01*
X0136209Y0177925D01*
X0136738Y0178454D01*
X0137154Y0179076D01*
X0137172Y0179121D01*
X0137521Y0178280D01*
X0138750Y0177050D01*
X0140357Y0176384D01*
X0147296Y0176384D01*
X0148903Y0177050D01*
X0149034Y0177181D02*
X0168619Y0177181D01*
X0168227Y0177573D02*
X0149426Y0177573D01*
X0149819Y0177965D02*
X0167835Y0177965D01*
X0167488Y0178358D02*
X0150165Y0178358D01*
X0150328Y0178750D02*
X0167326Y0178750D01*
X0167163Y0179142D02*
X0150490Y0179142D01*
X0150653Y0179534D02*
X0167001Y0179534D01*
X0166855Y0179926D02*
X0150798Y0179926D01*
X0150798Y0180319D02*
X0166855Y0180319D01*
X0166855Y0180711D02*
X0150798Y0180711D01*
X0150798Y0181103D02*
X0166855Y0181103D01*
X0166855Y0181495D02*
X0150798Y0181495D01*
X0150690Y0181887D02*
X0166964Y0181887D01*
X0167126Y0182280D02*
X0150527Y0182280D01*
X0150365Y0182672D02*
X0167289Y0182672D01*
X0167451Y0183064D02*
X0150203Y0183064D01*
X0149909Y0183456D02*
X0167745Y0183456D01*
X0168137Y0183848D02*
X0149517Y0183848D01*
X0149124Y0184241D02*
X0168529Y0184241D01*
X0169163Y0184633D02*
X0148491Y0184633D01*
X0147544Y0185025D02*
X0170110Y0185025D01*
X0170357Y0186384D02*
X0177296Y0186384D01*
X0178903Y0187050D01*
X0180133Y0188280D01*
X0180798Y0189886D01*
X0180798Y0191625D01*
X0180133Y0193232D01*
X0178903Y0194462D01*
X0177296Y0195128D01*
X0170357Y0195128D01*
X0168750Y0194462D01*
X0167521Y0193232D01*
X0166855Y0191625D01*
X0166855Y0189886D01*
X0167521Y0188280D01*
X0168750Y0187050D01*
X0170357Y0186384D01*
X0169851Y0186594D02*
X0147803Y0186594D01*
X0147296Y0186384D02*
X0148903Y0187050D01*
X0150133Y0188280D01*
X0150798Y0189886D01*
X0150798Y0191625D01*
X0150133Y0193232D01*
X0148903Y0194462D01*
X0147296Y0195128D01*
X0140357Y0195128D01*
X0138750Y0194462D01*
X0137537Y0193249D01*
X0137495Y0193350D01*
X0136265Y0194580D01*
X0134659Y0195246D01*
X0127719Y0195246D01*
X0126113Y0194580D01*
X0124883Y0193350D01*
X0124217Y0191744D01*
X0124217Y0190004D01*
X0124883Y0188398D01*
X0126113Y0187168D01*
X0127719Y0186502D01*
X0134659Y0186502D01*
X0136265Y0187168D01*
X0137479Y0188381D01*
X0137521Y0188280D01*
X0138750Y0187050D01*
X0140357Y0186384D01*
X0147296Y0186384D01*
X0148750Y0186986D02*
X0168904Y0186986D01*
X0168422Y0187378D02*
X0149232Y0187378D01*
X0149624Y0187771D02*
X0168030Y0187771D01*
X0167637Y0188163D02*
X0150016Y0188163D01*
X0150247Y0188555D02*
X0167407Y0188555D01*
X0167244Y0188947D02*
X0150409Y0188947D01*
X0150572Y0189339D02*
X0167082Y0189339D01*
X0166919Y0189732D02*
X0150734Y0189732D01*
X0150798Y0190124D02*
X0166855Y0190124D01*
X0166855Y0190516D02*
X0150798Y0190516D01*
X0150798Y0190908D02*
X0166855Y0190908D01*
X0166855Y0191301D02*
X0150798Y0191301D01*
X0150771Y0191693D02*
X0166883Y0191693D01*
X0167045Y0192085D02*
X0150608Y0192085D01*
X0150446Y0192477D02*
X0167208Y0192477D01*
X0167370Y0192869D02*
X0150283Y0192869D01*
X0150104Y0193262D02*
X0167550Y0193262D01*
X0167942Y0193654D02*
X0149711Y0193654D01*
X0149319Y0194046D02*
X0168334Y0194046D01*
X0168727Y0194438D02*
X0148927Y0194438D01*
X0148014Y0194830D02*
X0169640Y0194830D01*
X0170119Y0197105D02*
X0169428Y0197391D01*
X0168806Y0197807D01*
X0168278Y0198336D01*
X0167862Y0198957D01*
X0167576Y0199648D01*
X0167430Y0200382D01*
X0167430Y0200559D01*
X0173630Y0200559D01*
X0174024Y0200559D01*
X0174024Y0200953D01*
X0180224Y0200953D01*
X0180224Y0201130D01*
X0180078Y0201863D01*
X0179791Y0202554D01*
X0179376Y0203176D01*
X0178847Y0203705D01*
X0178225Y0204121D01*
X0177534Y0204407D01*
X0176801Y0204553D01*
X0174024Y0204553D01*
X0174024Y0200953D01*
X0173630Y0200953D01*
X0173630Y0204553D01*
X0170853Y0204553D01*
X0170119Y0204407D01*
X0169428Y0204121D01*
X0168806Y0203705D01*
X0168278Y0203176D01*
X0167862Y0202554D01*
X0167576Y0201863D01*
X0167430Y0201130D01*
X0167430Y0200953D01*
X0173630Y0200953D01*
X0173630Y0200559D01*
X0173630Y0196959D01*
X0170853Y0196959D01*
X0170119Y0197105D01*
X0169929Y0197184D02*
X0149037Y0197184D01*
X0148903Y0197050D02*
X0150133Y0198280D01*
X0150798Y0199886D01*
X0150798Y0201625D01*
X0150133Y0203232D01*
X0148903Y0204462D01*
X0147296Y0205128D01*
X0140357Y0205128D01*
X0138750Y0204462D01*
X0137521Y0203232D01*
X0137221Y0202509D01*
X0137154Y0202672D01*
X0136738Y0203294D01*
X0136209Y0203823D01*
X0135587Y0204239D01*
X0134896Y0204525D01*
X0134163Y0204671D01*
X0131386Y0204671D01*
X0131386Y0201071D01*
X0130992Y0201071D01*
X0130992Y0204671D01*
X0128215Y0204671D01*
X0127481Y0204525D01*
X0126790Y0204239D01*
X0126169Y0203823D01*
X0125640Y0203294D01*
X0125224Y0202672D01*
X0124938Y0201982D01*
X0124792Y0201248D01*
X0124792Y0201071D01*
X0130992Y0201071D01*
X0130992Y0200677D01*
X0131386Y0200677D01*
X0131386Y0197077D01*
X0134163Y0197077D01*
X0134896Y0197223D01*
X0135587Y0197509D01*
X0136209Y0197925D01*
X0136738Y0198454D01*
X0137154Y0199076D01*
X0137172Y0199121D01*
X0137521Y0198280D01*
X0138750Y0197050D01*
X0140357Y0196384D01*
X0147296Y0196384D01*
X0148903Y0197050D01*
X0148280Y0196791D02*
X0275047Y0196791D01*
X0275047Y0196399D02*
X0147333Y0196399D01*
X0149429Y0197576D02*
X0169152Y0197576D01*
X0168645Y0197968D02*
X0149821Y0197968D01*
X0150166Y0198360D02*
X0168261Y0198360D01*
X0167999Y0198753D02*
X0150329Y0198753D01*
X0150491Y0199145D02*
X0167784Y0199145D01*
X0167622Y0199537D02*
X0150654Y0199537D01*
X0150798Y0199929D02*
X0167520Y0199929D01*
X0167442Y0200321D02*
X0150798Y0200321D01*
X0150798Y0200714D02*
X0173630Y0200714D01*
X0173630Y0201106D02*
X0174024Y0201106D01*
X0174024Y0201498D02*
X0173630Y0201498D01*
X0173630Y0201890D02*
X0174024Y0201890D01*
X0174024Y0202282D02*
X0173630Y0202282D01*
X0173630Y0202675D02*
X0174024Y0202675D01*
X0174024Y0203067D02*
X0173630Y0203067D01*
X0173630Y0203459D02*
X0174024Y0203459D01*
X0174024Y0203851D02*
X0173630Y0203851D01*
X0173630Y0204244D02*
X0174024Y0204244D01*
X0174024Y0200714D02*
X0275047Y0200714D01*
X0275047Y0201106D02*
X0180224Y0201106D01*
X0180150Y0201498D02*
X0275047Y0201498D01*
X0275047Y0201890D02*
X0180067Y0201890D01*
X0179904Y0202282D02*
X0275047Y0202282D01*
X0275047Y0202675D02*
X0179711Y0202675D01*
X0179449Y0203067D02*
X0275047Y0203067D01*
X0275047Y0203459D02*
X0179093Y0203459D01*
X0178628Y0203851D02*
X0275047Y0203851D01*
X0275047Y0204244D02*
X0177929Y0204244D01*
X0180224Y0200559D02*
X0174024Y0200559D01*
X0174024Y0196959D01*
X0176801Y0196959D01*
X0177534Y0197105D01*
X0178225Y0197391D01*
X0178847Y0197807D01*
X0179376Y0198336D01*
X0179791Y0198957D01*
X0180078Y0199648D01*
X0180224Y0200382D01*
X0180224Y0200559D01*
X0180212Y0200321D02*
X0275047Y0200321D01*
X0275047Y0199929D02*
X0180134Y0199929D01*
X0180032Y0199537D02*
X0275047Y0199537D01*
X0275047Y0199145D02*
X0179869Y0199145D01*
X0179655Y0198753D02*
X0275047Y0198753D01*
X0275047Y0198360D02*
X0179393Y0198360D01*
X0179009Y0197968D02*
X0275047Y0197968D01*
X0275047Y0197576D02*
X0178502Y0197576D01*
X0177724Y0197184D02*
X0275047Y0197184D01*
X0275047Y0196007D02*
X0096888Y0196007D01*
X0096496Y0195615D02*
X0275047Y0195615D01*
X0275047Y0195223D02*
X0134714Y0195223D01*
X0135661Y0194830D02*
X0139640Y0194830D01*
X0138727Y0194438D02*
X0136407Y0194438D01*
X0136799Y0194046D02*
X0138334Y0194046D01*
X0137942Y0193654D02*
X0137192Y0193654D01*
X0137532Y0193262D02*
X0137550Y0193262D01*
X0139374Y0196791D02*
X0105357Y0196791D01*
X0106281Y0197184D02*
X0127679Y0197184D01*
X0127481Y0197223D02*
X0128215Y0197077D01*
X0130992Y0197077D01*
X0130992Y0200677D01*
X0124792Y0200677D01*
X0124792Y0200500D01*
X0124938Y0199767D01*
X0125224Y0199076D01*
X0125640Y0198454D01*
X0126169Y0197925D01*
X0126790Y0197509D01*
X0127481Y0197223D01*
X0126691Y0197576D02*
X0106673Y0197576D01*
X0107066Y0197968D02*
X0126125Y0197968D01*
X0125733Y0198360D02*
X0107458Y0198360D01*
X0107642Y0198753D02*
X0125440Y0198753D01*
X0125196Y0199145D02*
X0107805Y0199145D01*
X0107967Y0199537D02*
X0125033Y0199537D01*
X0124906Y0199929D02*
X0108129Y0199929D01*
X0108161Y0200321D02*
X0124828Y0200321D01*
X0124792Y0201106D02*
X0108161Y0201106D01*
X0108161Y0201498D02*
X0124842Y0201498D01*
X0124920Y0201890D02*
X0108100Y0201890D01*
X0107937Y0202282D02*
X0125063Y0202282D01*
X0125226Y0202675D02*
X0107775Y0202675D01*
X0107612Y0203067D02*
X0125488Y0203067D01*
X0125805Y0203459D02*
X0107386Y0203459D01*
X0106994Y0203851D02*
X0126211Y0203851D01*
X0126802Y0204244D02*
X0106602Y0204244D01*
X0106131Y0204636D02*
X0128038Y0204636D01*
X0130992Y0204636D02*
X0131386Y0204636D01*
X0131386Y0204244D02*
X0130992Y0204244D01*
X0130992Y0203851D02*
X0131386Y0203851D01*
X0131386Y0203459D02*
X0130992Y0203459D01*
X0130992Y0203067D02*
X0131386Y0203067D01*
X0131386Y0202675D02*
X0130992Y0202675D01*
X0130992Y0202282D02*
X0131386Y0202282D01*
X0131386Y0201890D02*
X0130992Y0201890D01*
X0130992Y0201498D02*
X0131386Y0201498D01*
X0131386Y0201106D02*
X0130992Y0201106D01*
X0130992Y0200714D02*
X0108161Y0200714D01*
X0105661Y0194830D02*
X0126717Y0194830D01*
X0125971Y0194438D02*
X0106407Y0194438D01*
X0106799Y0194046D02*
X0125579Y0194046D01*
X0125186Y0193654D02*
X0107192Y0193654D01*
X0107532Y0193262D02*
X0124846Y0193262D01*
X0124684Y0192869D02*
X0107694Y0192869D01*
X0107857Y0192477D02*
X0124521Y0192477D01*
X0124359Y0192085D02*
X0108019Y0192085D01*
X0108161Y0191693D02*
X0124217Y0191693D01*
X0124217Y0191301D02*
X0108161Y0191301D01*
X0108161Y0190908D02*
X0124217Y0190908D01*
X0124217Y0190516D02*
X0108491Y0190516D01*
X0108883Y0190124D02*
X0124217Y0190124D01*
X0124330Y0189732D02*
X0109275Y0189732D01*
X0109667Y0189339D02*
X0124493Y0189339D01*
X0124655Y0188947D02*
X0110060Y0188947D01*
X0110452Y0188555D02*
X0124818Y0188555D01*
X0125118Y0188163D02*
X0110844Y0188163D01*
X0111236Y0187771D02*
X0125510Y0187771D01*
X0125902Y0187378D02*
X0111629Y0187378D01*
X0112021Y0186986D02*
X0126551Y0186986D01*
X0127498Y0186594D02*
X0112413Y0186594D01*
X0112805Y0186202D02*
X0275047Y0186202D01*
X0275047Y0186594D02*
X0177803Y0186594D01*
X0178750Y0186986D02*
X0275047Y0186986D01*
X0275047Y0187378D02*
X0179232Y0187378D01*
X0179624Y0187771D02*
X0275047Y0187771D01*
X0275047Y0188163D02*
X0180016Y0188163D01*
X0180247Y0188555D02*
X0275047Y0188555D01*
X0275047Y0188947D02*
X0180409Y0188947D01*
X0180572Y0189339D02*
X0275047Y0189339D01*
X0275047Y0189732D02*
X0180734Y0189732D01*
X0180798Y0190124D02*
X0275047Y0190124D01*
X0275047Y0190516D02*
X0180798Y0190516D01*
X0180798Y0190908D02*
X0275047Y0190908D01*
X0275047Y0191301D02*
X0180798Y0191301D01*
X0180771Y0191693D02*
X0275047Y0191693D01*
X0275047Y0192085D02*
X0180608Y0192085D01*
X0180446Y0192477D02*
X0275047Y0192477D01*
X0275047Y0192869D02*
X0180283Y0192869D01*
X0180104Y0193262D02*
X0275047Y0193262D01*
X0275047Y0193654D02*
X0179711Y0193654D01*
X0179319Y0194046D02*
X0275047Y0194046D01*
X0275047Y0194438D02*
X0178927Y0194438D01*
X0178014Y0194830D02*
X0275047Y0194830D01*
X0275047Y0204636D02*
X0148484Y0204636D01*
X0149122Y0204244D02*
X0169725Y0204244D01*
X0169025Y0203851D02*
X0149514Y0203851D01*
X0149906Y0203459D02*
X0168560Y0203459D01*
X0168204Y0203067D02*
X0150201Y0203067D01*
X0150364Y0202675D02*
X0167942Y0202675D01*
X0167749Y0202282D02*
X0150526Y0202282D01*
X0150689Y0201890D02*
X0167587Y0201890D01*
X0167503Y0201498D02*
X0150798Y0201498D01*
X0150798Y0201106D02*
X0167430Y0201106D01*
X0173630Y0200321D02*
X0174024Y0200321D01*
X0174024Y0199929D02*
X0173630Y0199929D01*
X0173630Y0199537D02*
X0174024Y0199537D01*
X0174024Y0199145D02*
X0173630Y0199145D01*
X0173630Y0198753D02*
X0174024Y0198753D01*
X0174024Y0198360D02*
X0173630Y0198360D01*
X0173630Y0197968D02*
X0174024Y0197968D01*
X0174024Y0197576D02*
X0173630Y0197576D01*
X0173630Y0197184D02*
X0174024Y0197184D01*
X0177544Y0185025D02*
X0275047Y0185025D01*
X0275047Y0184633D02*
X0178491Y0184633D01*
X0179124Y0184241D02*
X0275047Y0184241D01*
X0275047Y0183848D02*
X0179517Y0183848D01*
X0179909Y0183456D02*
X0275047Y0183456D01*
X0275047Y0183064D02*
X0180203Y0183064D01*
X0180365Y0182672D02*
X0275047Y0182672D01*
X0275047Y0182280D02*
X0180527Y0182280D01*
X0180690Y0181887D02*
X0275047Y0181887D01*
X0275047Y0181495D02*
X0180798Y0181495D01*
X0180798Y0181103D02*
X0275047Y0181103D01*
X0275047Y0180711D02*
X0180798Y0180711D01*
X0180798Y0180319D02*
X0275047Y0180319D01*
X0275047Y0179926D02*
X0180798Y0179926D01*
X0180653Y0179534D02*
X0275047Y0179534D01*
X0275047Y0179142D02*
X0180490Y0179142D01*
X0180328Y0178750D02*
X0275047Y0178750D01*
X0275047Y0178358D02*
X0180165Y0178358D01*
X0179819Y0177965D02*
X0275047Y0177965D01*
X0275047Y0177573D02*
X0179426Y0177573D01*
X0179034Y0177181D02*
X0275047Y0177181D01*
X0275047Y0176789D02*
X0178273Y0176789D01*
X0177326Y0176396D02*
X0275047Y0176396D01*
X0275047Y0176004D02*
X0113839Y0176004D01*
X0113839Y0175612D02*
X0275047Y0175612D01*
X0275047Y0175220D02*
X0134721Y0175220D01*
X0135668Y0174828D02*
X0139633Y0174828D01*
X0138724Y0174435D02*
X0136410Y0174435D01*
X0136802Y0174043D02*
X0138332Y0174043D01*
X0137939Y0173651D02*
X0137194Y0173651D01*
X0137533Y0173259D02*
X0137547Y0173259D01*
X0139381Y0176789D02*
X0113839Y0176789D01*
X0113839Y0177181D02*
X0127694Y0177181D01*
X0127481Y0177223D02*
X0128215Y0177077D01*
X0130992Y0177077D01*
X0130992Y0180677D01*
X0124792Y0180677D01*
X0124792Y0180500D01*
X0124938Y0179767D01*
X0125224Y0179076D01*
X0125640Y0178454D01*
X0126169Y0177925D01*
X0126790Y0177509D01*
X0127481Y0177223D01*
X0126695Y0177573D02*
X0113839Y0177573D01*
X0113839Y0177965D02*
X0126128Y0177965D01*
X0125736Y0178358D02*
X0113839Y0178358D01*
X0113839Y0178750D02*
X0125442Y0178750D01*
X0125197Y0179142D02*
X0113839Y0179142D01*
X0113839Y0179534D02*
X0125034Y0179534D01*
X0124906Y0179926D02*
X0113839Y0179926D01*
X0113839Y0180319D02*
X0124828Y0180319D01*
X0124792Y0181103D02*
X0113839Y0181103D01*
X0113839Y0181495D02*
X0124841Y0181495D01*
X0124919Y0181887D02*
X0113839Y0181887D01*
X0113839Y0182280D02*
X0125062Y0182280D01*
X0125802Y0183456D02*
X0113839Y0183456D01*
X0113839Y0183848D02*
X0126206Y0183848D01*
X0126795Y0184241D02*
X0113839Y0184241D01*
X0113831Y0184633D02*
X0128024Y0184633D01*
X0130992Y0184633D02*
X0131386Y0184633D01*
X0131386Y0184241D02*
X0130992Y0184241D01*
X0130992Y0183848D02*
X0131386Y0183848D01*
X0131386Y0183456D02*
X0130992Y0183456D01*
X0130992Y0183064D02*
X0131386Y0183064D01*
X0131386Y0182672D02*
X0130992Y0182672D01*
X0130992Y0182280D02*
X0131386Y0182280D01*
X0131386Y0181887D02*
X0130992Y0181887D01*
X0130992Y0181495D02*
X0131386Y0181495D01*
X0131386Y0181103D02*
X0130992Y0181103D01*
X0130992Y0180711D02*
X0113839Y0180711D01*
X0113839Y0176396D02*
X0140328Y0176396D01*
X0138619Y0177181D02*
X0134684Y0177181D01*
X0135683Y0177573D02*
X0138227Y0177573D01*
X0137835Y0177965D02*
X0136250Y0177965D01*
X0136642Y0178358D02*
X0137488Y0178358D01*
X0137326Y0178750D02*
X0136936Y0178750D01*
X0136892Y0183064D02*
X0137451Y0183064D01*
X0137745Y0183456D02*
X0136576Y0183456D01*
X0136171Y0183848D02*
X0138137Y0183848D01*
X0138529Y0184241D02*
X0135583Y0184241D01*
X0134354Y0184633D02*
X0139163Y0184633D01*
X0140110Y0185025D02*
X0113669Y0185025D01*
X0113507Y0185417D02*
X0275047Y0185417D01*
X0275047Y0185810D02*
X0113197Y0185810D01*
X0108302Y0183431D02*
X0108302Y0170601D01*
X0107420Y0169718D01*
X0107440Y0169767D01*
X0107586Y0170500D01*
X0107586Y0170677D01*
X0101386Y0170677D01*
X0101386Y0171071D01*
X0107586Y0171071D01*
X0107586Y0171248D01*
X0107440Y0171982D01*
X0107154Y0172672D01*
X0106738Y0173294D01*
X0106209Y0173823D01*
X0105587Y0174239D01*
X0104896Y0174525D01*
X0104163Y0174671D01*
X0101386Y0174671D01*
X0101386Y0171071D01*
X0100992Y0171071D01*
X0100992Y0174671D01*
X0098215Y0174671D01*
X0097481Y0174525D01*
X0096790Y0174239D01*
X0096169Y0173823D01*
X0095640Y0173294D01*
X0095224Y0172672D01*
X0094938Y0171982D01*
X0094792Y0171248D01*
X0094792Y0171071D01*
X0100992Y0171071D01*
X0100992Y0170677D01*
X0094792Y0170677D01*
X0094792Y0170500D01*
X0094938Y0169767D01*
X0095224Y0169076D01*
X0095640Y0168454D01*
X0096169Y0167925D01*
X0096790Y0167509D01*
X0097096Y0167383D01*
X0091859Y0167383D01*
X0091311Y0167156D01*
X0091733Y0167578D01*
X0092566Y0169589D01*
X0092566Y0171766D01*
X0092382Y0172210D01*
X0094614Y0174442D01*
X0095338Y0175165D01*
X0095729Y0176111D01*
X0095729Y0177551D01*
X0096113Y0177168D01*
X0097719Y0176502D01*
X0104659Y0176502D01*
X0106265Y0177168D01*
X0107495Y0178398D01*
X0108161Y0180004D01*
X0108161Y0181744D01*
X0107495Y0183350D01*
X0106265Y0184580D01*
X0104659Y0185246D01*
X0097719Y0185246D01*
X0096113Y0184580D01*
X0095729Y0184197D01*
X0095729Y0187551D01*
X0096113Y0187168D01*
X0097719Y0186502D01*
X0104659Y0186502D01*
X0105063Y0186670D01*
X0108302Y0183431D01*
X0108277Y0183456D02*
X0107389Y0183456D01*
X0107614Y0183064D02*
X0108302Y0183064D01*
X0108302Y0182672D02*
X0107776Y0182672D01*
X0107939Y0182280D02*
X0108302Y0182280D01*
X0108302Y0181887D02*
X0108101Y0181887D01*
X0108161Y0181495D02*
X0108302Y0181495D01*
X0108302Y0181103D02*
X0108161Y0181103D01*
X0108161Y0180711D02*
X0108302Y0180711D01*
X0108302Y0180319D02*
X0108161Y0180319D01*
X0108128Y0179926D02*
X0108302Y0179926D01*
X0108302Y0179534D02*
X0107966Y0179534D01*
X0107803Y0179142D02*
X0108302Y0179142D01*
X0108302Y0178750D02*
X0107641Y0178750D01*
X0107455Y0178358D02*
X0108302Y0178358D01*
X0108302Y0177965D02*
X0107063Y0177965D01*
X0106671Y0177573D02*
X0108302Y0177573D01*
X0108302Y0177181D02*
X0106278Y0177181D01*
X0105350Y0176789D02*
X0108302Y0176789D01*
X0108302Y0176396D02*
X0095729Y0176396D01*
X0095729Y0176789D02*
X0097028Y0176789D01*
X0096100Y0177181D02*
X0095729Y0177181D01*
X0095685Y0176004D02*
X0108302Y0176004D01*
X0108302Y0175612D02*
X0095523Y0175612D01*
X0095360Y0175220D02*
X0108302Y0175220D01*
X0108302Y0174828D02*
X0095000Y0174828D01*
X0094608Y0174435D02*
X0097265Y0174435D01*
X0096498Y0174043D02*
X0094215Y0174043D01*
X0093823Y0173651D02*
X0095996Y0173651D01*
X0095616Y0173259D02*
X0093431Y0173259D01*
X0093039Y0172867D02*
X0095354Y0172867D01*
X0095142Y0172474D02*
X0092647Y0172474D01*
X0092435Y0172082D02*
X0094980Y0172082D01*
X0094880Y0171690D02*
X0092566Y0171690D01*
X0092566Y0171298D02*
X0094802Y0171298D01*
X0094792Y0170513D02*
X0092566Y0170513D01*
X0092566Y0170121D02*
X0094868Y0170121D01*
X0094954Y0169729D02*
X0092566Y0169729D01*
X0092462Y0169337D02*
X0095116Y0169337D01*
X0095312Y0168944D02*
X0092299Y0168944D01*
X0092137Y0168552D02*
X0095574Y0168552D01*
X0095933Y0168160D02*
X0091974Y0168160D01*
X0091812Y0167768D02*
X0096404Y0167768D01*
X0091841Y0167376D02*
X0091531Y0167376D01*
X0089796Y0165874D02*
X0089518Y0165596D01*
X0089322Y0165677D01*
X0089796Y0165874D01*
X0089729Y0165807D02*
X0089634Y0165807D01*
X0093081Y0161885D02*
X0137585Y0161885D01*
X0137502Y0161492D02*
X0092688Y0161492D01*
X0084555Y0165807D02*
X0080165Y0165807D01*
X0080165Y0166199D02*
X0083835Y0166199D01*
X0083442Y0166591D02*
X0080165Y0166591D01*
X0080165Y0166983D02*
X0083050Y0166983D01*
X0082658Y0167376D02*
X0080165Y0167376D01*
X0080165Y0167768D02*
X0082377Y0167768D01*
X0082215Y0168160D02*
X0080165Y0168160D01*
X0080165Y0168552D02*
X0082052Y0168552D01*
X0081890Y0168944D02*
X0080165Y0168944D01*
X0080165Y0169337D02*
X0081727Y0169337D01*
X0081623Y0169729D02*
X0080165Y0169729D01*
X0080165Y0170121D02*
X0081623Y0170121D01*
X0081623Y0170513D02*
X0080165Y0170513D01*
X0080165Y0170905D02*
X0081623Y0170905D01*
X0081623Y0171298D02*
X0080165Y0171298D01*
X0080165Y0171690D02*
X0081623Y0171690D01*
X0081754Y0172082D02*
X0080165Y0172082D01*
X0080165Y0172474D02*
X0081916Y0172474D01*
X0082079Y0172867D02*
X0080165Y0172867D01*
X0080165Y0173259D02*
X0082241Y0173259D01*
X0082404Y0173651D02*
X0080165Y0173651D01*
X0080165Y0174043D02*
X0082722Y0174043D01*
X0083115Y0174435D02*
X0080165Y0174435D01*
X0080165Y0174828D02*
X0083507Y0174828D01*
X0083899Y0175220D02*
X0080165Y0175220D01*
X0080165Y0175612D02*
X0084710Y0175612D01*
X0084710Y0176396D02*
X0080165Y0176396D01*
X0080165Y0176004D02*
X0085630Y0176004D01*
X0084116Y0176789D02*
X0080165Y0176789D01*
X0080165Y0177181D02*
X0083666Y0177181D01*
X0083297Y0177573D02*
X0080165Y0177573D01*
X0080165Y0177965D02*
X0083012Y0177965D01*
X0082781Y0178358D02*
X0080165Y0178358D01*
X0080165Y0178750D02*
X0082581Y0178750D01*
X0082444Y0179142D02*
X0080165Y0179142D01*
X0080165Y0179534D02*
X0082318Y0179534D01*
X0082255Y0179926D02*
X0080165Y0179926D01*
X0080165Y0180319D02*
X0082198Y0180319D01*
X0082204Y0181103D02*
X0080165Y0181103D01*
X0080165Y0181495D02*
X0082266Y0181495D01*
X0082339Y0181887D02*
X0080165Y0181887D01*
X0080165Y0182280D02*
X0082466Y0182280D01*
X0082615Y0182672D02*
X0080165Y0182672D01*
X0080165Y0183064D02*
X0082815Y0183064D01*
X0083061Y0183456D02*
X0080165Y0183456D01*
X0080165Y0183848D02*
X0083346Y0183848D01*
X0083733Y0184241D02*
X0080165Y0184241D01*
X0080165Y0184633D02*
X0084208Y0184633D01*
X0084842Y0185025D02*
X0080165Y0185025D01*
X0080165Y0185417D02*
X0085495Y0185417D01*
X0084548Y0185810D02*
X0080165Y0185810D01*
X0080165Y0186202D02*
X0083832Y0186202D01*
X0083440Y0186594D02*
X0080165Y0186594D01*
X0080165Y0186986D02*
X0083047Y0186986D01*
X0082655Y0187378D02*
X0080165Y0187378D01*
X0080165Y0187771D02*
X0082376Y0187771D01*
X0082213Y0188163D02*
X0080165Y0188163D01*
X0080165Y0188555D02*
X0082051Y0188555D01*
X0081889Y0188947D02*
X0080165Y0188947D01*
X0080165Y0189339D02*
X0081726Y0189339D01*
X0081623Y0189732D02*
X0080165Y0189732D01*
X0080165Y0190124D02*
X0081623Y0190124D01*
X0081623Y0190516D02*
X0080165Y0190516D01*
X0080165Y0190908D02*
X0081623Y0190908D01*
X0081623Y0191301D02*
X0080165Y0191301D01*
X0080165Y0191693D02*
X0081623Y0191693D01*
X0081755Y0192085D02*
X0080165Y0192085D01*
X0080165Y0192477D02*
X0081918Y0192477D01*
X0082080Y0192869D02*
X0080165Y0192869D01*
X0080165Y0193262D02*
X0082243Y0193262D01*
X0082405Y0193654D02*
X0080165Y0193654D01*
X0080165Y0194046D02*
X0082725Y0194046D01*
X0083117Y0194438D02*
X0080165Y0194438D01*
X0080165Y0194830D02*
X0083510Y0194830D01*
X0083902Y0195223D02*
X0080165Y0195223D01*
X0080165Y0195615D02*
X0084717Y0195615D01*
X0085664Y0196007D02*
X0080165Y0196007D01*
X0080165Y0196399D02*
X0090586Y0196399D01*
X0090586Y0196007D02*
X0088525Y0196007D01*
X0089472Y0195615D02*
X0090586Y0195615D01*
X0090586Y0195223D02*
X0090287Y0195223D01*
X0090738Y0196791D02*
X0080165Y0196791D01*
X0080165Y0197184D02*
X0090900Y0197184D01*
X0091183Y0197576D02*
X0080165Y0197576D01*
X0080165Y0197968D02*
X0091575Y0197968D01*
X0091968Y0198360D02*
X0080165Y0198360D01*
X0080165Y0198753D02*
X0092360Y0198753D01*
X0092752Y0199145D02*
X0080165Y0199145D01*
X0080165Y0199537D02*
X0093144Y0199537D01*
X0093536Y0199929D02*
X0080165Y0199929D01*
X0080165Y0200321D02*
X0093929Y0200321D01*
X0094217Y0200714D02*
X0080165Y0200714D01*
X0080165Y0201106D02*
X0094217Y0201106D01*
X0094217Y0201498D02*
X0080165Y0201498D01*
X0080165Y0201890D02*
X0094278Y0201890D01*
X0094441Y0202282D02*
X0080165Y0202282D01*
X0080165Y0202675D02*
X0094603Y0202675D01*
X0094765Y0203067D02*
X0080165Y0203067D01*
X0080165Y0203459D02*
X0094992Y0203459D01*
X0095384Y0203851D02*
X0080165Y0203851D01*
X0080165Y0204244D02*
X0095776Y0204244D01*
X0096247Y0204636D02*
X0080165Y0204636D01*
X0080165Y0205028D02*
X0097194Y0205028D01*
X0105184Y0205028D02*
X0140117Y0205028D01*
X0139170Y0204636D02*
X0134340Y0204636D01*
X0135576Y0204244D02*
X0138532Y0204244D01*
X0138140Y0203851D02*
X0136167Y0203851D01*
X0136573Y0203459D02*
X0137748Y0203459D01*
X0137452Y0203067D02*
X0136890Y0203067D01*
X0137152Y0202675D02*
X0137290Y0202675D01*
X0137325Y0198753D02*
X0136938Y0198753D01*
X0136645Y0198360D02*
X0137487Y0198360D01*
X0137832Y0197968D02*
X0136253Y0197968D01*
X0135687Y0197576D02*
X0138224Y0197576D01*
X0138617Y0197184D02*
X0134698Y0197184D01*
X0131386Y0197184D02*
X0130992Y0197184D01*
X0130992Y0197576D02*
X0131386Y0197576D01*
X0131386Y0197968D02*
X0130992Y0197968D01*
X0130992Y0198360D02*
X0131386Y0198360D01*
X0131386Y0198753D02*
X0130992Y0198753D01*
X0130992Y0199145D02*
X0131386Y0199145D01*
X0131386Y0199537D02*
X0130992Y0199537D01*
X0130992Y0199929D02*
X0131386Y0199929D01*
X0131386Y0200321D02*
X0130992Y0200321D01*
X0127664Y0195223D02*
X0104714Y0195223D01*
X0097664Y0195223D02*
X0096104Y0195223D01*
X0095729Y0194830D02*
X0096717Y0194830D01*
X0095971Y0194438D02*
X0095729Y0194438D01*
X0097280Y0196399D02*
X0140321Y0196399D01*
X0137637Y0188163D02*
X0137260Y0188163D01*
X0136868Y0187771D02*
X0138030Y0187771D01*
X0138422Y0187378D02*
X0136476Y0187378D01*
X0135827Y0186986D02*
X0138904Y0186986D01*
X0139851Y0186594D02*
X0134880Y0186594D01*
X0131386Y0180319D02*
X0130992Y0180319D01*
X0130992Y0179926D02*
X0131386Y0179926D01*
X0131386Y0179534D02*
X0130992Y0179534D01*
X0130992Y0179142D02*
X0131386Y0179142D01*
X0131386Y0178750D02*
X0130992Y0178750D01*
X0130992Y0178358D02*
X0131386Y0178358D01*
X0131386Y0177965D02*
X0130992Y0177965D01*
X0130992Y0177573D02*
X0131386Y0177573D01*
X0131386Y0177181D02*
X0130992Y0177181D01*
X0127657Y0175220D02*
X0113839Y0175220D01*
X0113839Y0174828D02*
X0126710Y0174828D01*
X0125968Y0174435D02*
X0113839Y0174435D01*
X0113839Y0174043D02*
X0125576Y0174043D01*
X0125183Y0173651D02*
X0113839Y0173651D01*
X0113839Y0173259D02*
X0124845Y0173259D01*
X0124682Y0172867D02*
X0113839Y0172867D01*
X0113839Y0172474D02*
X0124520Y0172474D01*
X0124358Y0172082D02*
X0113839Y0172082D01*
X0113839Y0171690D02*
X0124217Y0171690D01*
X0124217Y0171298D02*
X0113839Y0171298D01*
X0113928Y0170905D02*
X0124217Y0170905D01*
X0124217Y0170513D02*
X0114320Y0170513D01*
X0114713Y0170121D02*
X0124217Y0170121D01*
X0124331Y0169729D02*
X0115105Y0169729D01*
X0115497Y0169337D02*
X0124494Y0169337D01*
X0124656Y0168944D02*
X0115889Y0168944D01*
X0116281Y0168552D02*
X0124819Y0168552D01*
X0125121Y0168160D02*
X0116674Y0168160D01*
X0112930Y0164630D02*
X0109606Y0164630D01*
X0109998Y0165022D02*
X0112538Y0165022D01*
X0112145Y0165415D02*
X0110390Y0165415D01*
X0110782Y0165807D02*
X0111753Y0165807D01*
X0111361Y0166199D02*
X0111174Y0166199D01*
X0109213Y0164238D02*
X0113322Y0164238D01*
X0113714Y0163846D02*
X0108821Y0163846D01*
X0108429Y0163453D02*
X0114107Y0163453D01*
X0114499Y0163061D02*
X0108037Y0163061D01*
X0107644Y0162669D02*
X0115394Y0162669D01*
X0106752Y0162277D02*
X0137747Y0162277D01*
X0137939Y0162669D02*
X0137063Y0162669D01*
X0137958Y0163061D02*
X0138201Y0163061D01*
X0138350Y0163453D02*
X0138555Y0163453D01*
X0138742Y0163846D02*
X0139017Y0163846D01*
X0139135Y0164238D02*
X0139711Y0164238D01*
X0140311Y0165415D02*
X0193667Y0165415D01*
X0194060Y0165807D02*
X0140703Y0165807D01*
X0141096Y0166199D02*
X0194452Y0166199D01*
X0194844Y0166591D02*
X0177796Y0166591D01*
X0178743Y0166983D02*
X0194917Y0166983D01*
X0194917Y0167376D02*
X0179229Y0167376D01*
X0179621Y0167768D02*
X0195017Y0167768D01*
X0195179Y0168160D02*
X0180013Y0168160D01*
X0180246Y0168552D02*
X0195342Y0168552D01*
X0195527Y0168944D02*
X0180408Y0168944D01*
X0180571Y0169337D02*
X0195919Y0169337D01*
X0196311Y0169729D02*
X0180733Y0169729D01*
X0180798Y0170121D02*
X0196930Y0170121D01*
X0197877Y0170513D02*
X0180798Y0170513D01*
X0180798Y0170905D02*
X0275047Y0170905D01*
X0275047Y0170513D02*
X0199462Y0170513D01*
X0200409Y0170121D02*
X0275047Y0170121D01*
X0275047Y0169729D02*
X0201027Y0169729D01*
X0201419Y0169337D02*
X0275047Y0169337D01*
X0275047Y0168944D02*
X0201812Y0168944D01*
X0201997Y0168552D02*
X0275047Y0168552D01*
X0275047Y0168160D02*
X0202159Y0168160D01*
X0202322Y0167768D02*
X0275047Y0167768D01*
X0275047Y0167376D02*
X0202422Y0167376D01*
X0202422Y0166983D02*
X0275047Y0166983D01*
X0275047Y0166591D02*
X0202422Y0166591D01*
X0202422Y0166199D02*
X0275047Y0166199D01*
X0275047Y0165807D02*
X0202328Y0165807D01*
X0202166Y0165415D02*
X0275047Y0165415D01*
X0275047Y0165022D02*
X0202003Y0165022D01*
X0201827Y0164630D02*
X0275047Y0164630D01*
X0275047Y0164238D02*
X0201435Y0164238D01*
X0201043Y0163846D02*
X0275047Y0163846D01*
X0275047Y0163453D02*
X0200446Y0163453D01*
X0199499Y0163061D02*
X0275047Y0163061D01*
X0275047Y0162669D02*
X0198196Y0162669D01*
X0197803Y0162277D02*
X0275047Y0162277D01*
X0275047Y0161885D02*
X0197411Y0161885D01*
X0197019Y0161492D02*
X0275047Y0161492D01*
X0275047Y0161100D02*
X0196627Y0161100D01*
X0196235Y0160708D02*
X0200560Y0160708D01*
X0199890Y0160316D02*
X0195842Y0160316D01*
X0195450Y0159924D02*
X0199498Y0159924D01*
X0199106Y0159531D02*
X0195058Y0159531D01*
X0194666Y0159139D02*
X0198900Y0159139D01*
X0198737Y0158747D02*
X0194274Y0158747D01*
X0193881Y0158355D02*
X0198575Y0158355D01*
X0198460Y0157962D02*
X0193489Y0157962D01*
X0193097Y0157570D02*
X0198460Y0157570D01*
X0198423Y0157178D02*
X0192705Y0157178D01*
X0192312Y0156786D02*
X0198031Y0156786D01*
X0197639Y0156394D02*
X0191920Y0156394D01*
X0191528Y0156001D02*
X0197246Y0156001D01*
X0196854Y0155609D02*
X0191136Y0155609D01*
X0190744Y0155217D02*
X0196462Y0155217D01*
X0196070Y0154825D02*
X0190351Y0154825D01*
X0189959Y0154433D02*
X0195678Y0154433D01*
X0195285Y0154040D02*
X0189567Y0154040D01*
X0189175Y0153648D02*
X0194893Y0153648D01*
X0194501Y0153256D02*
X0188783Y0153256D01*
X0188390Y0152864D02*
X0194109Y0152864D01*
X0193717Y0152472D02*
X0187998Y0152472D01*
X0187606Y0152079D02*
X0193324Y0152079D01*
X0192932Y0151687D02*
X0187214Y0151687D01*
X0186822Y0151295D02*
X0192540Y0151295D01*
X0192148Y0150903D02*
X0186429Y0150903D01*
X0186037Y0150510D02*
X0191755Y0150510D01*
X0191363Y0150118D02*
X0185645Y0150118D01*
X0185253Y0149726D02*
X0190971Y0149726D01*
X0190579Y0149334D02*
X0184860Y0149334D01*
X0184468Y0148942D02*
X0190187Y0148942D01*
X0189794Y0148549D02*
X0184076Y0148549D01*
X0183684Y0148157D02*
X0189402Y0148157D01*
X0189010Y0147765D02*
X0183292Y0147765D01*
X0182899Y0147373D02*
X0188618Y0147373D01*
X0188226Y0146981D02*
X0182507Y0146981D01*
X0182115Y0146588D02*
X0187833Y0146588D01*
X0187441Y0146196D02*
X0181723Y0146196D01*
X0181331Y0145804D02*
X0187049Y0145804D01*
X0186657Y0145412D02*
X0180938Y0145412D01*
X0180138Y0145019D02*
X0186265Y0145019D01*
X0184647Y0156394D02*
X0177319Y0156394D01*
X0178266Y0156786D02*
X0185039Y0156786D01*
X0185431Y0157178D02*
X0179031Y0157178D01*
X0179424Y0157570D02*
X0185823Y0157570D01*
X0186215Y0157962D02*
X0179816Y0157962D01*
X0180164Y0158355D02*
X0186608Y0158355D01*
X0187000Y0158747D02*
X0180326Y0158747D01*
X0180489Y0159139D02*
X0187392Y0159139D01*
X0187784Y0159531D02*
X0180651Y0159531D01*
X0180798Y0159924D02*
X0188176Y0159924D01*
X0188569Y0160316D02*
X0180798Y0160316D01*
X0180798Y0160708D02*
X0188961Y0160708D01*
X0189353Y0161100D02*
X0180798Y0161100D01*
X0180798Y0161492D02*
X0189745Y0161492D01*
X0190138Y0161885D02*
X0180691Y0161885D01*
X0180529Y0162277D02*
X0190530Y0162277D01*
X0190922Y0162669D02*
X0180366Y0162669D01*
X0180204Y0163061D02*
X0191314Y0163061D01*
X0191706Y0163453D02*
X0179912Y0163453D01*
X0179519Y0163846D02*
X0192099Y0163846D01*
X0192491Y0164238D02*
X0179127Y0164238D01*
X0178497Y0164630D02*
X0192883Y0164630D01*
X0193275Y0165022D02*
X0177550Y0165022D01*
X0180798Y0171298D02*
X0275047Y0171298D01*
X0275047Y0171690D02*
X0180772Y0171690D01*
X0180609Y0172082D02*
X0275047Y0172082D01*
X0275047Y0172474D02*
X0180447Y0172474D01*
X0180284Y0172867D02*
X0275047Y0172867D01*
X0275047Y0173259D02*
X0180106Y0173259D01*
X0179714Y0173651D02*
X0275047Y0173651D01*
X0275047Y0174043D02*
X0179322Y0174043D01*
X0178930Y0174435D02*
X0275047Y0174435D01*
X0275047Y0174828D02*
X0178020Y0174828D01*
X0166855Y0160316D02*
X0150210Y0160316D01*
X0150224Y0160382D02*
X0150078Y0159648D01*
X0149791Y0158957D01*
X0149376Y0158336D01*
X0148847Y0157807D01*
X0148225Y0157391D01*
X0147534Y0157105D01*
X0146801Y0156959D01*
X0144024Y0156959D01*
X0144024Y0160559D01*
X0150224Y0160559D01*
X0150224Y0160382D01*
X0150132Y0159924D02*
X0166855Y0159924D01*
X0167002Y0159531D02*
X0150029Y0159531D01*
X0149867Y0159139D02*
X0167165Y0159139D01*
X0167327Y0158747D02*
X0149651Y0158747D01*
X0149389Y0158355D02*
X0167490Y0158355D01*
X0167838Y0157962D02*
X0149003Y0157962D01*
X0148493Y0157570D02*
X0168230Y0157570D01*
X0168622Y0157178D02*
X0147711Y0157178D01*
X0144024Y0157178D02*
X0143630Y0157178D01*
X0143630Y0157570D02*
X0144024Y0157570D01*
X0144024Y0157962D02*
X0143630Y0157962D01*
X0143630Y0158355D02*
X0144024Y0158355D01*
X0144024Y0158747D02*
X0143630Y0158747D01*
X0143630Y0159139D02*
X0144024Y0159139D01*
X0144024Y0159531D02*
X0143630Y0159531D01*
X0143630Y0159924D02*
X0144024Y0159924D01*
X0144024Y0160316D02*
X0143630Y0160316D01*
X0143630Y0161492D02*
X0144024Y0161492D01*
X0144024Y0161885D02*
X0143630Y0161885D01*
X0143630Y0162277D02*
X0144024Y0162277D01*
X0144024Y0162669D02*
X0143630Y0162669D01*
X0143630Y0163061D02*
X0144024Y0163061D01*
X0144024Y0163453D02*
X0143630Y0163453D01*
X0143630Y0163846D02*
X0144024Y0163846D01*
X0144024Y0164238D02*
X0143630Y0164238D01*
X0141760Y0149334D02*
X0092461Y0149334D01*
X0092298Y0148942D02*
X0141368Y0148942D01*
X0140976Y0148549D02*
X0092136Y0148549D01*
X0084561Y0145804D02*
X0080165Y0145804D01*
X0080165Y0146196D02*
X0083837Y0146196D01*
X0083445Y0146588D02*
X0080165Y0146588D01*
X0080165Y0146981D02*
X0083053Y0146981D01*
X0082661Y0147373D02*
X0080165Y0147373D01*
X0080165Y0147765D02*
X0082378Y0147765D01*
X0082216Y0148157D02*
X0080165Y0148157D01*
X0080165Y0148549D02*
X0082053Y0148549D01*
X0081891Y0148942D02*
X0080165Y0148942D01*
X0080165Y0149334D02*
X0081728Y0149334D01*
X0081623Y0149726D02*
X0080165Y0149726D01*
X0080165Y0150118D02*
X0081623Y0150118D01*
X0081623Y0150510D02*
X0080165Y0150510D01*
X0080165Y0150903D02*
X0081623Y0150903D01*
X0081623Y0151295D02*
X0080165Y0151295D01*
X0080165Y0151687D02*
X0081623Y0151687D01*
X0081753Y0152079D02*
X0080165Y0152079D01*
X0080165Y0152472D02*
X0081915Y0152472D01*
X0082078Y0152864D02*
X0080165Y0152864D01*
X0080165Y0153256D02*
X0082240Y0153256D01*
X0082403Y0153648D02*
X0080165Y0153648D01*
X0080165Y0154040D02*
X0082720Y0154040D01*
X0083112Y0154433D02*
X0080165Y0154433D01*
X0080165Y0154825D02*
X0083504Y0154825D01*
X0083896Y0155217D02*
X0080165Y0155217D01*
X0080165Y0155609D02*
X0084703Y0155609D01*
X0084085Y0156001D02*
X0080165Y0156001D01*
X0080165Y0156394D02*
X0083640Y0156394D01*
X0083248Y0156786D02*
X0080165Y0156786D01*
X0080165Y0157178D02*
X0082855Y0157178D01*
X0082463Y0157570D02*
X0080165Y0157570D01*
X0080165Y0157962D02*
X0082296Y0157962D01*
X0082134Y0158355D02*
X0080165Y0158355D01*
X0080165Y0158747D02*
X0081972Y0158747D01*
X0081809Y0159139D02*
X0080165Y0159139D01*
X0080165Y0159531D02*
X0081647Y0159531D01*
X0081623Y0159924D02*
X0080165Y0159924D01*
X0080165Y0160316D02*
X0081623Y0160316D01*
X0081623Y0160708D02*
X0080165Y0160708D01*
X0080165Y0161100D02*
X0081623Y0161100D01*
X0081623Y0161492D02*
X0080165Y0161492D01*
X0080165Y0161885D02*
X0081672Y0161885D01*
X0081835Y0162277D02*
X0080165Y0162277D01*
X0080165Y0162669D02*
X0081997Y0162669D01*
X0082160Y0163061D02*
X0080165Y0163061D01*
X0080165Y0163453D02*
X0082322Y0163453D01*
X0082525Y0163846D02*
X0080165Y0163846D01*
X0080165Y0164238D02*
X0082917Y0164238D01*
X0083309Y0164630D02*
X0080165Y0164630D01*
X0080165Y0165022D02*
X0083702Y0165022D01*
X0084233Y0165415D02*
X0080165Y0165415D01*
X0088544Y0175999D02*
X0088794Y0175896D01*
X0089104Y0176205D01*
X0088974Y0176139D01*
X0088544Y0175999D01*
X0088559Y0176004D02*
X0088903Y0176004D01*
X0086898Y0180711D02*
X0080165Y0180711D01*
X0088544Y0185355D02*
X0090194Y0186039D01*
X0090586Y0186430D01*
X0090586Y0184111D01*
X0090285Y0184412D01*
X0089661Y0184865D01*
X0088974Y0185215D01*
X0088544Y0185355D01*
X0088694Y0185417D02*
X0090586Y0185417D01*
X0090586Y0185025D02*
X0089347Y0185025D01*
X0089981Y0184633D02*
X0090586Y0184633D01*
X0090586Y0184241D02*
X0090456Y0184241D01*
X0090586Y0185810D02*
X0089641Y0185810D01*
X0090357Y0186202D02*
X0090586Y0186202D01*
X0095729Y0186202D02*
X0105531Y0186202D01*
X0105139Y0186594D02*
X0104880Y0186594D01*
X0105924Y0185810D02*
X0095729Y0185810D01*
X0095729Y0185417D02*
X0106316Y0185417D01*
X0106708Y0185025D02*
X0105191Y0185025D01*
X0106138Y0184633D02*
X0107100Y0184633D01*
X0107493Y0184241D02*
X0106605Y0184241D01*
X0106997Y0183848D02*
X0107885Y0183848D01*
X0108302Y0174435D02*
X0105113Y0174435D01*
X0105880Y0174043D02*
X0108302Y0174043D01*
X0108302Y0173651D02*
X0106382Y0173651D01*
X0106762Y0173259D02*
X0108302Y0173259D01*
X0108302Y0172867D02*
X0107024Y0172867D01*
X0107236Y0172474D02*
X0108302Y0172474D01*
X0108302Y0172082D02*
X0107398Y0172082D01*
X0107498Y0171690D02*
X0108302Y0171690D01*
X0108302Y0171298D02*
X0107576Y0171298D01*
X0107586Y0170513D02*
X0108215Y0170513D01*
X0108302Y0170905D02*
X0101386Y0170905D01*
X0101386Y0171298D02*
X0100992Y0171298D01*
X0100992Y0171690D02*
X0101386Y0171690D01*
X0101386Y0172082D02*
X0100992Y0172082D01*
X0100992Y0172474D02*
X0101386Y0172474D01*
X0101386Y0172867D02*
X0100992Y0172867D01*
X0100992Y0173259D02*
X0101386Y0173259D01*
X0101386Y0173651D02*
X0100992Y0173651D01*
X0100992Y0174043D02*
X0101386Y0174043D01*
X0101386Y0174435D02*
X0100992Y0174435D01*
X0100992Y0170905D02*
X0092566Y0170905D01*
X0095729Y0184241D02*
X0095773Y0184241D01*
X0095729Y0184633D02*
X0096240Y0184633D01*
X0095729Y0185025D02*
X0097187Y0185025D01*
X0097498Y0186594D02*
X0095729Y0186594D01*
X0095729Y0186986D02*
X0096551Y0186986D01*
X0095902Y0187378D02*
X0095729Y0187378D01*
X0107510Y0170121D02*
X0107823Y0170121D01*
X0107431Y0169729D02*
X0107424Y0169729D01*
X0084227Y0145412D02*
X0080165Y0145412D01*
X0080165Y0145019D02*
X0083699Y0145019D01*
X0083307Y0144627D02*
X0080165Y0144627D01*
X0080165Y0144235D02*
X0082914Y0144235D01*
X0082522Y0143843D02*
X0080165Y0143843D01*
X0080165Y0143451D02*
X0082321Y0143451D01*
X0082158Y0143058D02*
X0080165Y0143058D01*
X0080165Y0142666D02*
X0081996Y0142666D01*
X0081833Y0142274D02*
X0080165Y0142274D01*
X0080165Y0141882D02*
X0081671Y0141882D01*
X0081623Y0141490D02*
X0080165Y0141490D01*
X0080165Y0141097D02*
X0081623Y0141097D01*
X0081623Y0140705D02*
X0080165Y0140705D01*
X0080165Y0140313D02*
X0081623Y0140313D01*
X0081623Y0139921D02*
X0080165Y0139921D01*
X0080165Y0139529D02*
X0081648Y0139529D01*
X0081810Y0139136D02*
X0080165Y0139136D01*
X0080165Y0138744D02*
X0081973Y0138744D01*
X0082135Y0138352D02*
X0080165Y0138352D01*
X0080165Y0137960D02*
X0082298Y0137960D01*
X0082466Y0137567D02*
X0080165Y0137567D01*
X0080165Y0137175D02*
X0082858Y0137175D01*
X0126790Y0129829D02*
X0127481Y0130115D01*
X0130992Y0130115D02*
X0131386Y0130115D01*
X0131386Y0129723D02*
X0130992Y0129723D01*
X0130992Y0129331D02*
X0131386Y0129331D01*
X0131386Y0128939D02*
X0130992Y0128939D01*
X0130992Y0128547D02*
X0131386Y0128547D01*
X0131386Y0128154D02*
X0130992Y0128154D01*
X0130992Y0127762D02*
X0131386Y0127762D01*
X0131386Y0127370D02*
X0130992Y0127370D01*
X0130992Y0126978D02*
X0131386Y0126978D01*
X0147537Y0205028D02*
X0275047Y0205028D01*
X0275047Y0205420D02*
X0080165Y0205420D01*
X0080165Y0205812D02*
X0275047Y0205812D01*
X0275047Y0206205D02*
X0080165Y0206205D01*
X0080165Y0206597D02*
X0275047Y0206597D01*
X0275047Y0206989D02*
X0080165Y0206989D01*
X0080165Y0207381D02*
X0275047Y0207381D01*
X0275047Y0211268D02*
X0091014Y0211268D01*
X0091733Y0211987D01*
X0092566Y0213998D01*
X0092566Y0216175D01*
X0091733Y0218186D01*
X0090194Y0219725D01*
X0089322Y0220087D01*
X0090194Y0220448D01*
X0091733Y0221987D01*
X0092566Y0223998D01*
X0092566Y0226175D01*
X0091733Y0228186D01*
X0090194Y0229725D01*
X0089322Y0230087D01*
X0090194Y0230448D01*
X0091733Y0231987D01*
X0092566Y0233998D01*
X0092566Y0235780D01*
X0093435Y0236649D01*
X0106661Y0236649D01*
X0107606Y0237040D01*
X0111268Y0240702D01*
X0113812Y0238157D01*
X0114535Y0237434D01*
X0115481Y0237043D01*
X0136976Y0237043D01*
X0137921Y0237434D01*
X0141281Y0240794D01*
X0147296Y0240794D01*
X0148903Y0241459D01*
X0150133Y0242689D01*
X0150798Y0244296D01*
X0150798Y0246035D01*
X0150133Y0247642D01*
X0148903Y0248871D01*
X0147296Y0249537D01*
X0140357Y0249537D01*
X0138750Y0248871D01*
X0137537Y0247658D01*
X0137495Y0247760D01*
X0136265Y0248990D01*
X0134659Y0249655D01*
X0127719Y0249655D01*
X0126113Y0248990D01*
X0124883Y0247760D01*
X0124217Y0246153D01*
X0124217Y0244414D01*
X0124883Y0242807D01*
X0125504Y0242186D01*
X0117057Y0242186D01*
X0113839Y0245404D01*
X0113839Y0259023D01*
X0113448Y0259969D01*
X0112724Y0260692D01*
X0108161Y0265256D01*
X0108161Y0266153D01*
X0107495Y0267760D01*
X0106265Y0268990D01*
X0104659Y0269655D01*
X0097719Y0269655D01*
X0096113Y0268990D01*
X0095729Y0268606D01*
X0095729Y0269258D01*
X0097482Y0271010D01*
X0097719Y0270912D01*
X0104659Y0270912D01*
X0106265Y0271577D01*
X0107495Y0272807D01*
X0108161Y0274414D01*
X0108161Y0276153D01*
X0107495Y0277760D01*
X0106265Y0278990D01*
X0104659Y0279655D01*
X0097719Y0279655D01*
X0096113Y0278990D01*
X0094883Y0277760D01*
X0094217Y0276153D01*
X0094217Y0275020D01*
X0090977Y0271780D01*
X0090586Y0270834D01*
X0090586Y0269333D01*
X0090194Y0269725D01*
X0088183Y0270558D01*
X0086006Y0270558D01*
X0083995Y0269725D01*
X0082456Y0268186D01*
X0081623Y0266175D01*
X0081623Y0263998D01*
X0082456Y0261987D01*
X0083995Y0260448D01*
X0085645Y0259765D01*
X0085215Y0259625D01*
X0084528Y0259275D01*
X0083904Y0258822D01*
X0083359Y0258277D01*
X0082906Y0257653D01*
X0082556Y0256966D01*
X0082318Y0256233D01*
X0082198Y0255472D01*
X0082198Y0255283D01*
X0086898Y0255283D01*
X0086898Y0254890D01*
X0082198Y0254890D01*
X0082198Y0254701D01*
X0082318Y0253940D01*
X0082556Y0253207D01*
X0082906Y0252520D01*
X0083359Y0251897D01*
X0083904Y0251352D01*
X0084528Y0250898D01*
X0085215Y0250549D01*
X0085645Y0250409D01*
X0083995Y0249725D01*
X0082456Y0248186D01*
X0081623Y0246175D01*
X0081623Y0243998D01*
X0082456Y0241987D01*
X0083995Y0240448D01*
X0084867Y0240087D01*
X0083995Y0239725D01*
X0082456Y0238186D01*
X0081623Y0236175D01*
X0081623Y0233998D01*
X0082456Y0231987D01*
X0083995Y0230448D01*
X0084867Y0230087D01*
X0083995Y0229725D01*
X0082456Y0228186D01*
X0081623Y0226175D01*
X0081623Y0223998D01*
X0082456Y0221987D01*
X0083995Y0220448D01*
X0084867Y0220087D01*
X0083995Y0219725D01*
X0082456Y0218186D01*
X0081623Y0216175D01*
X0081623Y0213998D01*
X0082456Y0211987D01*
X0083175Y0211268D01*
X0080165Y0211268D01*
X0080165Y0282134D01*
X0275047Y0282134D01*
X0275047Y0211268D01*
X0275047Y0211303D02*
X0091049Y0211303D01*
X0091441Y0211696D02*
X0275047Y0211696D01*
X0275047Y0212088D02*
X0153150Y0212088D01*
X0152565Y0211846D02*
X0153945Y0212417D01*
X0154554Y0213027D01*
X0186582Y0213027D01*
X0187528Y0213418D01*
X0202097Y0227987D01*
X0202959Y0227987D01*
X0204338Y0228559D01*
X0205394Y0229614D01*
X0205965Y0230994D01*
X0205965Y0232487D01*
X0205394Y0233866D01*
X0204338Y0234922D01*
X0202959Y0235493D01*
X0201466Y0235493D01*
X0200087Y0234922D01*
X0199031Y0233866D01*
X0198460Y0232487D01*
X0198460Y0231624D01*
X0185006Y0218170D01*
X0154554Y0218170D01*
X0153945Y0218780D01*
X0152626Y0219326D01*
X0179889Y0219326D01*
X0180835Y0219717D01*
X0198553Y0237436D01*
X0199416Y0237436D01*
X0200795Y0238008D01*
X0201851Y0239063D01*
X0202422Y0240442D01*
X0202422Y0241935D01*
X0201851Y0243315D01*
X0200795Y0244370D01*
X0199416Y0244942D01*
X0197923Y0244942D01*
X0196544Y0244370D01*
X0195488Y0243315D01*
X0194917Y0241935D01*
X0194917Y0241073D01*
X0178313Y0224469D01*
X0143040Y0224469D01*
X0142094Y0224078D01*
X0141371Y0223354D01*
X0137368Y0219351D01*
X0136112Y0219351D01*
X0134732Y0218780D01*
X0133677Y0217724D01*
X0133106Y0216345D01*
X0133106Y0214852D01*
X0133677Y0213473D01*
X0134732Y0212417D01*
X0136112Y0211846D01*
X0137605Y0211846D01*
X0138984Y0212417D01*
X0140040Y0213473D01*
X0140611Y0214852D01*
X0140611Y0215321D01*
X0144616Y0219326D01*
X0151012Y0219326D01*
X0149693Y0218780D01*
X0148637Y0217724D01*
X0148066Y0216345D01*
X0148066Y0214852D01*
X0148637Y0213473D01*
X0149693Y0212417D01*
X0151072Y0211846D01*
X0152565Y0211846D01*
X0154008Y0212480D02*
X0275047Y0212480D01*
X0275047Y0212872D02*
X0154400Y0212872D01*
X0150488Y0212088D02*
X0138189Y0212088D01*
X0139047Y0212480D02*
X0149630Y0212480D01*
X0149238Y0212872D02*
X0139439Y0212872D01*
X0139831Y0213264D02*
X0148846Y0213264D01*
X0148561Y0213657D02*
X0140116Y0213657D01*
X0140278Y0214049D02*
X0148399Y0214049D01*
X0148236Y0214441D02*
X0140441Y0214441D01*
X0140603Y0214833D02*
X0148074Y0214833D01*
X0148066Y0215225D02*
X0140611Y0215225D01*
X0140908Y0215618D02*
X0148066Y0215618D01*
X0148066Y0216010D02*
X0141300Y0216010D01*
X0141692Y0216402D02*
X0148090Y0216402D01*
X0148252Y0216794D02*
X0142085Y0216794D01*
X0142477Y0217187D02*
X0148415Y0217187D01*
X0148577Y0217579D02*
X0142869Y0217579D01*
X0143261Y0217971D02*
X0148884Y0217971D01*
X0149276Y0218363D02*
X0143654Y0218363D01*
X0144046Y0218755D02*
X0149669Y0218755D01*
X0150581Y0219148D02*
X0144438Y0219148D01*
X0140694Y0222677D02*
X0092019Y0222677D01*
X0091857Y0222285D02*
X0140302Y0222285D01*
X0139910Y0221893D02*
X0091639Y0221893D01*
X0091247Y0221501D02*
X0139518Y0221501D01*
X0139125Y0221109D02*
X0090855Y0221109D01*
X0090462Y0220716D02*
X0138733Y0220716D01*
X0138341Y0220324D02*
X0089895Y0220324D01*
X0089695Y0219932D02*
X0137949Y0219932D01*
X0137556Y0219540D02*
X0090379Y0219540D01*
X0090772Y0219148D02*
X0135620Y0219148D01*
X0134708Y0218755D02*
X0091164Y0218755D01*
X0091556Y0218363D02*
X0134316Y0218363D01*
X0133924Y0217971D02*
X0091822Y0217971D01*
X0091985Y0217579D02*
X0133617Y0217579D01*
X0133454Y0217187D02*
X0092147Y0217187D01*
X0092310Y0216794D02*
X0133292Y0216794D01*
X0133129Y0216402D02*
X0092472Y0216402D01*
X0092566Y0216010D02*
X0133106Y0216010D01*
X0133106Y0215618D02*
X0092566Y0215618D01*
X0092566Y0215225D02*
X0133106Y0215225D01*
X0133113Y0214833D02*
X0092566Y0214833D01*
X0092566Y0214441D02*
X0133276Y0214441D01*
X0133438Y0214049D02*
X0092566Y0214049D01*
X0092425Y0213657D02*
X0133601Y0213657D01*
X0133885Y0213264D02*
X0092262Y0213264D01*
X0092100Y0212872D02*
X0134277Y0212872D01*
X0134670Y0212480D02*
X0091937Y0212480D01*
X0091775Y0212088D02*
X0135527Y0212088D01*
X0141086Y0223070D02*
X0092182Y0223070D01*
X0092344Y0223462D02*
X0141479Y0223462D01*
X0141871Y0223854D02*
X0092506Y0223854D01*
X0092566Y0224246D02*
X0142501Y0224246D01*
X0143630Y0231369D02*
X0140853Y0231369D01*
X0140119Y0231514D01*
X0139428Y0231801D01*
X0138806Y0232216D01*
X0138278Y0232745D01*
X0137862Y0233367D01*
X0137576Y0234058D01*
X0137430Y0234791D01*
X0137430Y0234969D01*
X0143630Y0234969D01*
X0143630Y0235362D01*
X0137430Y0235362D01*
X0137430Y0235539D01*
X0137576Y0236273D01*
X0137862Y0236964D01*
X0138278Y0237586D01*
X0138806Y0238115D01*
X0139428Y0238530D01*
X0140119Y0238816D01*
X0140853Y0238962D01*
X0143630Y0238962D01*
X0143630Y0235362D01*
X0144024Y0235362D01*
X0150224Y0235362D01*
X0150224Y0235539D01*
X0150078Y0236273D01*
X0149791Y0236964D01*
X0149376Y0237586D01*
X0148847Y0238115D01*
X0148225Y0238530D01*
X0147534Y0238816D01*
X0146801Y0238962D01*
X0144024Y0238962D01*
X0144024Y0235362D01*
X0144024Y0234969D01*
X0150224Y0234969D01*
X0150224Y0234791D01*
X0150078Y0234058D01*
X0149791Y0233367D01*
X0149376Y0232745D01*
X0148847Y0232216D01*
X0148225Y0231801D01*
X0147534Y0231514D01*
X0146801Y0231369D01*
X0144024Y0231369D01*
X0144024Y0234968D01*
X0143630Y0234968D01*
X0143630Y0231369D01*
X0143630Y0231698D02*
X0144024Y0231698D01*
X0144024Y0232091D02*
X0143630Y0232091D01*
X0143630Y0232483D02*
X0144024Y0232483D01*
X0144024Y0232875D02*
X0143630Y0232875D01*
X0143630Y0233267D02*
X0144024Y0233267D01*
X0144024Y0233659D02*
X0143630Y0233659D01*
X0143630Y0234052D02*
X0144024Y0234052D01*
X0144024Y0234444D02*
X0143630Y0234444D01*
X0143630Y0234836D02*
X0144024Y0234836D01*
X0144024Y0235228D02*
X0166855Y0235228D01*
X0166855Y0234836D02*
X0150224Y0234836D01*
X0150154Y0234444D02*
X0166855Y0234444D01*
X0166855Y0234296D02*
X0166855Y0236035D01*
X0167521Y0237642D01*
X0168750Y0238871D01*
X0170357Y0239537D01*
X0177296Y0239537D01*
X0178903Y0238871D01*
X0180133Y0237642D01*
X0180798Y0236035D01*
X0180798Y0234296D01*
X0180133Y0232689D01*
X0178903Y0231459D01*
X0177296Y0230794D01*
X0170357Y0230794D01*
X0168750Y0231459D01*
X0167521Y0232689D01*
X0166855Y0234296D01*
X0166956Y0234052D02*
X0150075Y0234052D01*
X0149913Y0233659D02*
X0167119Y0233659D01*
X0167281Y0233267D02*
X0149725Y0233267D01*
X0149463Y0232875D02*
X0167444Y0232875D01*
X0167727Y0232483D02*
X0149114Y0232483D01*
X0148659Y0232091D02*
X0168119Y0232091D01*
X0168511Y0231698D02*
X0147978Y0231698D01*
X0150207Y0235620D02*
X0166855Y0235620D01*
X0166855Y0236013D02*
X0150129Y0236013D01*
X0150023Y0236405D02*
X0167008Y0236405D01*
X0167171Y0236797D02*
X0149861Y0236797D01*
X0149641Y0237189D02*
X0167333Y0237189D01*
X0167496Y0237582D02*
X0149379Y0237582D01*
X0148988Y0237974D02*
X0167853Y0237974D01*
X0168245Y0238366D02*
X0148471Y0238366D01*
X0147675Y0238758D02*
X0168637Y0238758D01*
X0169424Y0239150D02*
X0139638Y0239150D01*
X0139979Y0238758D02*
X0139245Y0238758D01*
X0139183Y0238366D02*
X0138853Y0238366D01*
X0138666Y0237974D02*
X0138461Y0237974D01*
X0138275Y0237582D02*
X0138069Y0237582D01*
X0138013Y0237189D02*
X0137331Y0237189D01*
X0137793Y0236797D02*
X0107019Y0236797D01*
X0107755Y0237189D02*
X0115126Y0237189D01*
X0114388Y0237582D02*
X0108148Y0237582D01*
X0108540Y0237974D02*
X0113996Y0237974D01*
X0113603Y0238366D02*
X0108932Y0238366D01*
X0109324Y0238758D02*
X0113211Y0238758D01*
X0112819Y0239150D02*
X0109716Y0239150D01*
X0110109Y0239543D02*
X0112427Y0239543D01*
X0112035Y0239935D02*
X0110501Y0239935D01*
X0110893Y0240327D02*
X0111642Y0240327D01*
X0115386Y0243857D02*
X0124448Y0243857D01*
X0124286Y0244249D02*
X0114994Y0244249D01*
X0114602Y0244641D02*
X0124217Y0244641D01*
X0124217Y0245034D02*
X0114210Y0245034D01*
X0113839Y0245426D02*
X0124217Y0245426D01*
X0124217Y0245818D02*
X0113839Y0245818D01*
X0113839Y0246210D02*
X0124241Y0246210D01*
X0124403Y0246602D02*
X0113839Y0246602D01*
X0113839Y0246995D02*
X0124566Y0246995D01*
X0124728Y0247387D02*
X0113839Y0247387D01*
X0113839Y0247779D02*
X0124902Y0247779D01*
X0125294Y0248171D02*
X0113839Y0248171D01*
X0113839Y0248563D02*
X0125687Y0248563D01*
X0126079Y0248956D02*
X0113839Y0248956D01*
X0113839Y0249348D02*
X0126978Y0249348D01*
X0127481Y0251633D02*
X0128215Y0251487D01*
X0130992Y0251487D01*
X0130992Y0255087D01*
X0124792Y0255087D01*
X0124792Y0254909D01*
X0124938Y0254176D01*
X0125224Y0253485D01*
X0125640Y0252863D01*
X0126169Y0252334D01*
X0126790Y0251919D01*
X0127481Y0251633D01*
X0127316Y0251701D02*
X0113839Y0251701D01*
X0113839Y0251309D02*
X0139113Y0251309D01*
X0138750Y0251459D02*
X0140357Y0250794D01*
X0147296Y0250794D01*
X0148903Y0251459D01*
X0150133Y0252689D01*
X0150798Y0254296D01*
X0150798Y0256035D01*
X0150133Y0257642D01*
X0148903Y0258871D01*
X0147296Y0259537D01*
X0140357Y0259537D01*
X0138750Y0258871D01*
X0137521Y0257642D01*
X0137221Y0256919D01*
X0137154Y0257082D01*
X0136738Y0257704D01*
X0136209Y0258233D01*
X0135587Y0258648D01*
X0134896Y0258934D01*
X0134163Y0259080D01*
X0131386Y0259080D01*
X0131386Y0255480D01*
X0130992Y0255480D01*
X0130992Y0255087D01*
X0131386Y0255087D01*
X0131386Y0251487D01*
X0134163Y0251487D01*
X0134896Y0251633D01*
X0135587Y0251919D01*
X0136209Y0252334D01*
X0136738Y0252863D01*
X0137154Y0253485D01*
X0137172Y0253530D01*
X0137521Y0252689D01*
X0138750Y0251459D01*
X0138508Y0251701D02*
X0135062Y0251701D01*
X0135849Y0252093D02*
X0138116Y0252093D01*
X0137724Y0252486D02*
X0136361Y0252486D01*
X0136748Y0252878D02*
X0137442Y0252878D01*
X0137280Y0253270D02*
X0137010Y0253270D01*
X0140060Y0250917D02*
X0113839Y0250917D01*
X0113839Y0250525D02*
X0275047Y0250525D01*
X0275047Y0250917D02*
X0177593Y0250917D01*
X0177296Y0250794D02*
X0178903Y0251459D01*
X0180133Y0252689D01*
X0180798Y0254296D01*
X0180798Y0256035D01*
X0180133Y0257642D01*
X0178903Y0258871D01*
X0177296Y0259537D01*
X0170357Y0259537D01*
X0168750Y0258871D01*
X0167521Y0257642D01*
X0166855Y0256035D01*
X0166855Y0254296D01*
X0167521Y0252689D01*
X0168750Y0251459D01*
X0170357Y0250794D01*
X0177296Y0250794D01*
X0177296Y0249537D02*
X0178903Y0248871D01*
X0180133Y0247642D01*
X0180798Y0246035D01*
X0180798Y0244296D01*
X0180133Y0242689D01*
X0178903Y0241459D01*
X0177296Y0240794D01*
X0170357Y0240794D01*
X0168750Y0241459D01*
X0167521Y0242689D01*
X0166855Y0244296D01*
X0166855Y0246035D01*
X0167521Y0247642D01*
X0168750Y0248871D01*
X0170357Y0249537D01*
X0177296Y0249537D01*
X0177753Y0249348D02*
X0275047Y0249348D01*
X0275047Y0249740D02*
X0113839Y0249740D01*
X0113839Y0250132D02*
X0275047Y0250132D01*
X0275047Y0248956D02*
X0178700Y0248956D01*
X0179211Y0248563D02*
X0275047Y0248563D01*
X0275047Y0248171D02*
X0179603Y0248171D01*
X0179996Y0247779D02*
X0275047Y0247779D01*
X0275047Y0247387D02*
X0180238Y0247387D01*
X0180401Y0246995D02*
X0275047Y0246995D01*
X0275047Y0246602D02*
X0180563Y0246602D01*
X0180726Y0246210D02*
X0275047Y0246210D01*
X0275047Y0245818D02*
X0180798Y0245818D01*
X0180798Y0245426D02*
X0275047Y0245426D01*
X0275047Y0245034D02*
X0180798Y0245034D01*
X0180798Y0244641D02*
X0197198Y0244641D01*
X0196422Y0244249D02*
X0180779Y0244249D01*
X0180617Y0243857D02*
X0196030Y0243857D01*
X0195638Y0243465D02*
X0180454Y0243465D01*
X0180292Y0243073D02*
X0195388Y0243073D01*
X0195225Y0242680D02*
X0180124Y0242680D01*
X0179732Y0242288D02*
X0195063Y0242288D01*
X0194917Y0241896D02*
X0179340Y0241896D01*
X0178948Y0241504D02*
X0194917Y0241504D01*
X0194917Y0241111D02*
X0178063Y0241111D01*
X0178230Y0239150D02*
X0192994Y0239150D01*
X0192602Y0238758D02*
X0179016Y0238758D01*
X0179409Y0238366D02*
X0192209Y0238366D01*
X0191817Y0237974D02*
X0179801Y0237974D01*
X0180158Y0237582D02*
X0191425Y0237582D01*
X0191033Y0237189D02*
X0180320Y0237189D01*
X0180483Y0236797D02*
X0190641Y0236797D01*
X0190248Y0236405D02*
X0180645Y0236405D01*
X0180798Y0236013D02*
X0189856Y0236013D01*
X0189464Y0235620D02*
X0180798Y0235620D01*
X0180798Y0235228D02*
X0189072Y0235228D01*
X0188680Y0234836D02*
X0180798Y0234836D01*
X0180798Y0234444D02*
X0188287Y0234444D01*
X0187895Y0234052D02*
X0180697Y0234052D01*
X0180535Y0233659D02*
X0187503Y0233659D01*
X0187111Y0233267D02*
X0180372Y0233267D01*
X0180210Y0232875D02*
X0186718Y0232875D01*
X0186326Y0232483D02*
X0179927Y0232483D01*
X0179534Y0232091D02*
X0185934Y0232091D01*
X0185542Y0231698D02*
X0179142Y0231698D01*
X0178534Y0231306D02*
X0185150Y0231306D01*
X0184757Y0230914D02*
X0177587Y0230914D01*
X0181227Y0227384D02*
X0092065Y0227384D01*
X0091903Y0227776D02*
X0181620Y0227776D01*
X0182012Y0228168D02*
X0091740Y0228168D01*
X0091359Y0228561D02*
X0182404Y0228561D01*
X0182796Y0228953D02*
X0090966Y0228953D01*
X0090574Y0229345D02*
X0183189Y0229345D01*
X0183581Y0229737D02*
X0090165Y0229737D01*
X0090268Y0230522D02*
X0184365Y0230522D01*
X0183973Y0230130D02*
X0089425Y0230130D01*
X0090660Y0230914D02*
X0170067Y0230914D01*
X0169120Y0231306D02*
X0091052Y0231306D01*
X0091444Y0231698D02*
X0139675Y0231698D01*
X0138994Y0232091D02*
X0091776Y0232091D01*
X0091938Y0232483D02*
X0138540Y0232483D01*
X0138191Y0232875D02*
X0092101Y0232875D01*
X0092263Y0233267D02*
X0137929Y0233267D01*
X0137741Y0233659D02*
X0092426Y0233659D01*
X0092566Y0234052D02*
X0137578Y0234052D01*
X0137499Y0234444D02*
X0092566Y0234444D01*
X0092566Y0234836D02*
X0137430Y0234836D01*
X0137446Y0235620D02*
X0092566Y0235620D01*
X0092566Y0235228D02*
X0143630Y0235228D01*
X0143630Y0235620D02*
X0144024Y0235620D01*
X0144024Y0236013D02*
X0143630Y0236013D01*
X0143630Y0236405D02*
X0144024Y0236405D01*
X0144024Y0236797D02*
X0143630Y0236797D01*
X0143630Y0237189D02*
X0144024Y0237189D01*
X0144024Y0237582D02*
X0143630Y0237582D01*
X0143630Y0237974D02*
X0144024Y0237974D01*
X0144024Y0238366D02*
X0143630Y0238366D01*
X0143630Y0238758D02*
X0144024Y0238758D01*
X0141206Y0240719D02*
X0194563Y0240719D01*
X0194170Y0240327D02*
X0140814Y0240327D01*
X0140422Y0239935D02*
X0193778Y0239935D01*
X0193386Y0239543D02*
X0140030Y0239543D01*
X0137631Y0236405D02*
X0093191Y0236405D01*
X0092799Y0236013D02*
X0137524Y0236013D01*
X0148063Y0241111D02*
X0169590Y0241111D01*
X0168706Y0241504D02*
X0148948Y0241504D01*
X0149340Y0241896D02*
X0168314Y0241896D01*
X0167922Y0242288D02*
X0149732Y0242288D01*
X0150124Y0242680D02*
X0167529Y0242680D01*
X0167362Y0243073D02*
X0150292Y0243073D01*
X0150454Y0243465D02*
X0167199Y0243465D01*
X0167037Y0243857D02*
X0150617Y0243857D01*
X0150779Y0244249D02*
X0166874Y0244249D01*
X0166855Y0244641D02*
X0150798Y0244641D01*
X0150798Y0245034D02*
X0166855Y0245034D01*
X0166855Y0245426D02*
X0150798Y0245426D01*
X0150798Y0245818D02*
X0166855Y0245818D01*
X0166928Y0246210D02*
X0150726Y0246210D01*
X0150563Y0246602D02*
X0167090Y0246602D01*
X0167253Y0246995D02*
X0150401Y0246995D01*
X0150238Y0247387D02*
X0167415Y0247387D01*
X0167658Y0247779D02*
X0149996Y0247779D01*
X0149603Y0248171D02*
X0168050Y0248171D01*
X0168442Y0248563D02*
X0149211Y0248563D01*
X0148700Y0248956D02*
X0168954Y0248956D01*
X0169901Y0249348D02*
X0147753Y0249348D01*
X0147593Y0250917D02*
X0170060Y0250917D01*
X0169113Y0251309D02*
X0148540Y0251309D01*
X0149145Y0251701D02*
X0168508Y0251701D01*
X0168116Y0252093D02*
X0149537Y0252093D01*
X0149929Y0252486D02*
X0167724Y0252486D01*
X0167442Y0252878D02*
X0150211Y0252878D01*
X0150374Y0253270D02*
X0167280Y0253270D01*
X0167118Y0253662D02*
X0150536Y0253662D01*
X0150698Y0254054D02*
X0166955Y0254054D01*
X0166855Y0254447D02*
X0150798Y0254447D01*
X0150798Y0254839D02*
X0166855Y0254839D01*
X0166855Y0255231D02*
X0150798Y0255231D01*
X0150798Y0255623D02*
X0166855Y0255623D01*
X0166855Y0256016D02*
X0150798Y0256016D01*
X0150644Y0256408D02*
X0167010Y0256408D01*
X0167172Y0256800D02*
X0150482Y0256800D01*
X0150319Y0257192D02*
X0167334Y0257192D01*
X0167497Y0257584D02*
X0150157Y0257584D01*
X0149798Y0257977D02*
X0167856Y0257977D01*
X0168248Y0258369D02*
X0149406Y0258369D01*
X0149014Y0258761D02*
X0168640Y0258761D01*
X0169431Y0259153D02*
X0148223Y0259153D01*
X0147296Y0260794D02*
X0148903Y0261459D01*
X0150133Y0262689D01*
X0150798Y0264296D01*
X0150798Y0266035D01*
X0150133Y0267642D01*
X0148903Y0268871D01*
X0147296Y0269537D01*
X0140357Y0269537D01*
X0138750Y0268871D01*
X0137537Y0267658D01*
X0137495Y0267760D01*
X0136265Y0268990D01*
X0134659Y0269655D01*
X0127719Y0269655D01*
X0126113Y0268990D01*
X0124883Y0267760D01*
X0124217Y0266153D01*
X0124217Y0264414D01*
X0124883Y0262807D01*
X0126113Y0261577D01*
X0127719Y0260912D01*
X0134659Y0260912D01*
X0136265Y0261577D01*
X0137479Y0262791D01*
X0137521Y0262689D01*
X0138750Y0261459D01*
X0140357Y0260794D01*
X0147296Y0260794D01*
X0148070Y0261114D02*
X0169583Y0261114D01*
X0170357Y0260794D02*
X0168750Y0261459D01*
X0167521Y0262689D01*
X0166855Y0264296D01*
X0166855Y0266035D01*
X0167521Y0267642D01*
X0168750Y0268871D01*
X0170357Y0269537D01*
X0177296Y0269537D01*
X0178903Y0268871D01*
X0180133Y0267642D01*
X0180798Y0266035D01*
X0180798Y0264296D01*
X0180133Y0262689D01*
X0178903Y0261459D01*
X0177296Y0260794D01*
X0170357Y0260794D01*
X0168703Y0261506D02*
X0148950Y0261506D01*
X0149343Y0261899D02*
X0168311Y0261899D01*
X0167919Y0262291D02*
X0149735Y0262291D01*
X0150127Y0262683D02*
X0167527Y0262683D01*
X0167361Y0263075D02*
X0150293Y0263075D01*
X0150455Y0263468D02*
X0167198Y0263468D01*
X0167036Y0263860D02*
X0150618Y0263860D01*
X0150780Y0264252D02*
X0166873Y0264252D01*
X0166855Y0264644D02*
X0150798Y0264644D01*
X0150798Y0265036D02*
X0166855Y0265036D01*
X0166855Y0265429D02*
X0150798Y0265429D01*
X0150798Y0265821D02*
X0166855Y0265821D01*
X0166929Y0266213D02*
X0150725Y0266213D01*
X0150562Y0266605D02*
X0167091Y0266605D01*
X0167254Y0266997D02*
X0150400Y0266997D01*
X0150237Y0267390D02*
X0167416Y0267390D01*
X0167661Y0267782D02*
X0149993Y0267782D01*
X0149600Y0268174D02*
X0168053Y0268174D01*
X0168445Y0268566D02*
X0149208Y0268566D01*
X0148693Y0268959D02*
X0168961Y0268959D01*
X0169907Y0269351D02*
X0147746Y0269351D01*
X0147296Y0270794D02*
X0148903Y0271459D01*
X0150133Y0272689D01*
X0150798Y0274296D01*
X0150798Y0276035D01*
X0150133Y0277642D01*
X0148903Y0278871D01*
X0147296Y0279537D01*
X0140357Y0279537D01*
X0138750Y0278871D01*
X0137521Y0277642D01*
X0137221Y0276919D01*
X0137154Y0277082D01*
X0136738Y0277704D01*
X0136209Y0278233D01*
X0135587Y0278648D01*
X0134896Y0278934D01*
X0134163Y0279080D01*
X0131386Y0279080D01*
X0131386Y0275480D01*
X0130992Y0275480D01*
X0130992Y0275087D01*
X0124792Y0275087D01*
X0124792Y0274909D01*
X0124938Y0274176D01*
X0125224Y0273485D01*
X0125640Y0272863D01*
X0126169Y0272334D01*
X0126790Y0271919D01*
X0127481Y0271633D01*
X0128215Y0271487D01*
X0130992Y0271487D01*
X0130992Y0275087D01*
X0131386Y0275087D01*
X0131386Y0271487D01*
X0134163Y0271487D01*
X0134896Y0271633D01*
X0135587Y0271919D01*
X0136209Y0272334D01*
X0136738Y0272863D01*
X0137154Y0273485D01*
X0137172Y0273530D01*
X0137521Y0272689D01*
X0138750Y0271459D01*
X0140357Y0270794D01*
X0147296Y0270794D01*
X0147600Y0270920D02*
X0275047Y0270920D01*
X0275047Y0271312D02*
X0148547Y0271312D01*
X0149148Y0271704D02*
X0169662Y0271704D01*
X0169428Y0271801D02*
X0170119Y0271514D01*
X0170853Y0271369D01*
X0173630Y0271369D01*
X0173630Y0274968D01*
X0174024Y0274968D01*
X0174024Y0271369D01*
X0176801Y0271369D01*
X0177534Y0271514D01*
X0178225Y0271801D01*
X0178847Y0272216D01*
X0179376Y0272745D01*
X0179791Y0273367D01*
X0180078Y0274058D01*
X0180224Y0274791D01*
X0180224Y0274969D01*
X0174024Y0274969D01*
X0174024Y0275362D01*
X0180224Y0275362D01*
X0180224Y0275539D01*
X0180078Y0276273D01*
X0179791Y0276964D01*
X0179376Y0277586D01*
X0178847Y0278115D01*
X0178225Y0278530D01*
X0177534Y0278816D01*
X0176801Y0278962D01*
X0174024Y0278962D01*
X0174024Y0275362D01*
X0173630Y0275362D01*
X0173630Y0274969D01*
X0167430Y0274969D01*
X0167430Y0274791D01*
X0167576Y0274058D01*
X0167862Y0273367D01*
X0168278Y0272745D01*
X0168806Y0272216D01*
X0169428Y0271801D01*
X0168986Y0272096D02*
X0149540Y0272096D01*
X0149932Y0272488D02*
X0168534Y0272488D01*
X0168187Y0272881D02*
X0150212Y0272881D01*
X0150375Y0273273D02*
X0167925Y0273273D01*
X0167739Y0273665D02*
X0150537Y0273665D01*
X0150700Y0274057D02*
X0167576Y0274057D01*
X0167498Y0274449D02*
X0150798Y0274449D01*
X0150798Y0274842D02*
X0167430Y0274842D01*
X0167430Y0275362D02*
X0173630Y0275362D01*
X0173630Y0278962D01*
X0170853Y0278962D01*
X0170119Y0278816D01*
X0169428Y0278530D01*
X0168806Y0278115D01*
X0168278Y0277586D01*
X0167862Y0276964D01*
X0167576Y0276273D01*
X0167430Y0275539D01*
X0167430Y0275362D01*
X0167447Y0275626D02*
X0150798Y0275626D01*
X0150798Y0275234D02*
X0173630Y0275234D01*
X0173630Y0275626D02*
X0174024Y0275626D01*
X0174024Y0275234D02*
X0275047Y0275234D01*
X0275047Y0275626D02*
X0180206Y0275626D01*
X0180128Y0276018D02*
X0275047Y0276018D01*
X0275047Y0276411D02*
X0180021Y0276411D01*
X0179858Y0276803D02*
X0275047Y0276803D01*
X0275047Y0277195D02*
X0179637Y0277195D01*
X0179374Y0277587D02*
X0275047Y0277587D01*
X0275047Y0277979D02*
X0178982Y0277979D01*
X0178462Y0278372D02*
X0275047Y0278372D01*
X0275047Y0278764D02*
X0177661Y0278764D01*
X0174024Y0278764D02*
X0173630Y0278764D01*
X0173630Y0278372D02*
X0174024Y0278372D01*
X0174024Y0277979D02*
X0173630Y0277979D01*
X0173630Y0277587D02*
X0174024Y0277587D01*
X0174024Y0277195D02*
X0173630Y0277195D01*
X0173630Y0276803D02*
X0174024Y0276803D01*
X0174024Y0276411D02*
X0173630Y0276411D01*
X0173630Y0276018D02*
X0174024Y0276018D01*
X0174024Y0274842D02*
X0173630Y0274842D01*
X0173630Y0274449D02*
X0174024Y0274449D01*
X0174024Y0274057D02*
X0173630Y0274057D01*
X0173630Y0273665D02*
X0174024Y0273665D01*
X0174024Y0273273D02*
X0173630Y0273273D01*
X0173630Y0272881D02*
X0174024Y0272881D01*
X0174024Y0272488D02*
X0173630Y0272488D01*
X0173630Y0272096D02*
X0174024Y0272096D01*
X0174024Y0271704D02*
X0173630Y0271704D01*
X0177992Y0271704D02*
X0275047Y0271704D01*
X0275047Y0272096D02*
X0178668Y0272096D01*
X0179119Y0272488D02*
X0275047Y0272488D01*
X0275047Y0272881D02*
X0179467Y0272881D01*
X0179729Y0273273D02*
X0275047Y0273273D01*
X0275047Y0273665D02*
X0179915Y0273665D01*
X0180077Y0274057D02*
X0275047Y0274057D01*
X0275047Y0274449D02*
X0180156Y0274449D01*
X0180224Y0274842D02*
X0275047Y0274842D01*
X0275047Y0279156D02*
X0148216Y0279156D01*
X0149011Y0278764D02*
X0169993Y0278764D01*
X0169191Y0278372D02*
X0149403Y0278372D01*
X0149795Y0277979D02*
X0168671Y0277979D01*
X0168279Y0277587D02*
X0150155Y0277587D01*
X0150318Y0277195D02*
X0168016Y0277195D01*
X0167795Y0276803D02*
X0150480Y0276803D01*
X0150643Y0276411D02*
X0167633Y0276411D01*
X0167525Y0276018D02*
X0150798Y0276018D01*
X0139437Y0279156D02*
X0105863Y0279156D01*
X0106491Y0278764D02*
X0127070Y0278764D01*
X0126790Y0278648D02*
X0126169Y0278233D01*
X0125640Y0277704D01*
X0125224Y0277082D01*
X0124938Y0276391D01*
X0124792Y0275657D01*
X0124792Y0275480D01*
X0130992Y0275480D01*
X0130992Y0279080D01*
X0128215Y0279080D01*
X0127481Y0278934D01*
X0126790Y0278648D01*
X0126377Y0278372D02*
X0106883Y0278372D01*
X0107275Y0277979D02*
X0125915Y0277979D01*
X0125562Y0277587D02*
X0107567Y0277587D01*
X0107729Y0277195D02*
X0125300Y0277195D01*
X0125109Y0276803D02*
X0107891Y0276803D01*
X0108054Y0276411D02*
X0124946Y0276411D01*
X0124864Y0276018D02*
X0108161Y0276018D01*
X0108161Y0275626D02*
X0124792Y0275626D01*
X0124806Y0274842D02*
X0108161Y0274842D01*
X0108161Y0275234D02*
X0130992Y0275234D01*
X0130992Y0275626D02*
X0131386Y0275626D01*
X0131386Y0276018D02*
X0130992Y0276018D01*
X0130992Y0276411D02*
X0131386Y0276411D01*
X0131386Y0276803D02*
X0130992Y0276803D01*
X0130992Y0277195D02*
X0131386Y0277195D01*
X0131386Y0277587D02*
X0130992Y0277587D01*
X0130992Y0277979D02*
X0131386Y0277979D01*
X0131386Y0278372D02*
X0130992Y0278372D01*
X0130992Y0278764D02*
X0131386Y0278764D01*
X0135308Y0278764D02*
X0138643Y0278764D01*
X0138251Y0278372D02*
X0136001Y0278372D01*
X0136463Y0277979D02*
X0137858Y0277979D01*
X0137498Y0277587D02*
X0136816Y0277587D01*
X0137078Y0277195D02*
X0137336Y0277195D01*
X0137279Y0273273D02*
X0137012Y0273273D01*
X0136750Y0272881D02*
X0137441Y0272881D01*
X0137721Y0272488D02*
X0136363Y0272488D01*
X0135853Y0272096D02*
X0138113Y0272096D01*
X0138506Y0271704D02*
X0135069Y0271704D01*
X0135393Y0269351D02*
X0139907Y0269351D01*
X0138961Y0268959D02*
X0136296Y0268959D01*
X0136689Y0268566D02*
X0138445Y0268566D01*
X0138053Y0268174D02*
X0137081Y0268174D01*
X0137473Y0267782D02*
X0137661Y0267782D01*
X0139106Y0271312D02*
X0105624Y0271312D01*
X0106392Y0271704D02*
X0127309Y0271704D01*
X0126525Y0272096D02*
X0106784Y0272096D01*
X0107176Y0272488D02*
X0126014Y0272488D01*
X0125628Y0272881D02*
X0107526Y0272881D01*
X0107688Y0273273D02*
X0125366Y0273273D01*
X0125150Y0273665D02*
X0107850Y0273665D01*
X0108013Y0274057D02*
X0124987Y0274057D01*
X0124884Y0274449D02*
X0108161Y0274449D01*
X0104677Y0270920D02*
X0140053Y0270920D01*
X0137527Y0262683D02*
X0137371Y0262683D01*
X0136979Y0262291D02*
X0137919Y0262291D01*
X0138311Y0261899D02*
X0136587Y0261899D01*
X0136094Y0261506D02*
X0138703Y0261506D01*
X0139583Y0261114D02*
X0135147Y0261114D01*
X0135315Y0258761D02*
X0138640Y0258761D01*
X0138248Y0258369D02*
X0136006Y0258369D01*
X0136465Y0257977D02*
X0137856Y0257977D01*
X0137497Y0257584D02*
X0136818Y0257584D01*
X0137080Y0257192D02*
X0137334Y0257192D01*
X0139431Y0259153D02*
X0113786Y0259153D01*
X0113839Y0258761D02*
X0127063Y0258761D01*
X0126790Y0258648D02*
X0126169Y0258233D01*
X0125640Y0257704D01*
X0125224Y0257082D01*
X0124938Y0256391D01*
X0124792Y0255657D01*
X0124792Y0255480D01*
X0130992Y0255480D01*
X0130992Y0259080D01*
X0128215Y0259080D01*
X0127481Y0258934D01*
X0126790Y0258648D01*
X0126372Y0258369D02*
X0113839Y0258369D01*
X0113839Y0257977D02*
X0125913Y0257977D01*
X0125560Y0257584D02*
X0113839Y0257584D01*
X0113839Y0257192D02*
X0125298Y0257192D01*
X0125107Y0256800D02*
X0113839Y0256800D01*
X0113839Y0256408D02*
X0124945Y0256408D01*
X0124863Y0256016D02*
X0113839Y0256016D01*
X0113839Y0255623D02*
X0124792Y0255623D01*
X0124806Y0254839D02*
X0113839Y0254839D01*
X0113839Y0255231D02*
X0130992Y0255231D01*
X0130992Y0254839D02*
X0131386Y0254839D01*
X0131386Y0254447D02*
X0130992Y0254447D01*
X0130992Y0254054D02*
X0131386Y0254054D01*
X0131386Y0253662D02*
X0130992Y0253662D01*
X0130992Y0253270D02*
X0131386Y0253270D01*
X0131386Y0252878D02*
X0130992Y0252878D01*
X0130992Y0252486D02*
X0131386Y0252486D01*
X0131386Y0252093D02*
X0130992Y0252093D01*
X0130992Y0251701D02*
X0131386Y0251701D01*
X0131386Y0255623D02*
X0130992Y0255623D01*
X0130992Y0256016D02*
X0131386Y0256016D01*
X0131386Y0256408D02*
X0130992Y0256408D01*
X0130992Y0256800D02*
X0131386Y0256800D01*
X0131386Y0257192D02*
X0130992Y0257192D01*
X0130992Y0257584D02*
X0131386Y0257584D01*
X0131386Y0257977D02*
X0130992Y0257977D01*
X0130992Y0258369D02*
X0131386Y0258369D01*
X0131386Y0258761D02*
X0130992Y0258761D01*
X0127231Y0261114D02*
X0112302Y0261114D01*
X0112694Y0260722D02*
X0275047Y0260722D01*
X0275047Y0260330D02*
X0113087Y0260330D01*
X0113461Y0259938D02*
X0275047Y0259938D01*
X0275047Y0259545D02*
X0113623Y0259545D01*
X0111910Y0261506D02*
X0126284Y0261506D01*
X0125791Y0261899D02*
X0111518Y0261899D01*
X0111125Y0262291D02*
X0125399Y0262291D01*
X0125007Y0262683D02*
X0110733Y0262683D01*
X0110341Y0263075D02*
X0124772Y0263075D01*
X0124609Y0263468D02*
X0109949Y0263468D01*
X0109557Y0263860D02*
X0124447Y0263860D01*
X0124284Y0264252D02*
X0109164Y0264252D01*
X0108772Y0264644D02*
X0124217Y0264644D01*
X0124217Y0265036D02*
X0108380Y0265036D01*
X0108161Y0265429D02*
X0124217Y0265429D01*
X0124217Y0265821D02*
X0108161Y0265821D01*
X0108136Y0266213D02*
X0124242Y0266213D01*
X0124405Y0266605D02*
X0107973Y0266605D01*
X0107811Y0266997D02*
X0124567Y0266997D01*
X0124730Y0267390D02*
X0107648Y0267390D01*
X0107473Y0267782D02*
X0124905Y0267782D01*
X0125297Y0268174D02*
X0107081Y0268174D01*
X0106689Y0268566D02*
X0125689Y0268566D01*
X0126082Y0268959D02*
X0106296Y0268959D01*
X0105393Y0269351D02*
X0126985Y0269351D01*
X0130992Y0271704D02*
X0131386Y0271704D01*
X0131386Y0272096D02*
X0130992Y0272096D01*
X0130992Y0272488D02*
X0131386Y0272488D01*
X0131386Y0272881D02*
X0130992Y0272881D01*
X0130992Y0273273D02*
X0131386Y0273273D01*
X0131386Y0273665D02*
X0130992Y0273665D01*
X0130992Y0274057D02*
X0131386Y0274057D01*
X0131386Y0274449D02*
X0130992Y0274449D01*
X0130992Y0274842D02*
X0131386Y0274842D01*
X0124884Y0254447D02*
X0113839Y0254447D01*
X0113839Y0254054D02*
X0124988Y0254054D01*
X0125151Y0253662D02*
X0113839Y0253662D01*
X0113839Y0253270D02*
X0125368Y0253270D01*
X0125630Y0252878D02*
X0113839Y0252878D01*
X0113839Y0252486D02*
X0126017Y0252486D01*
X0126529Y0252093D02*
X0113839Y0252093D01*
X0108302Y0252093D02*
X0106781Y0252093D01*
X0106389Y0251701D02*
X0108302Y0251701D01*
X0108302Y0251309D02*
X0105617Y0251309D01*
X0106265Y0251577D02*
X0107495Y0252807D01*
X0108161Y0254414D01*
X0108161Y0256153D01*
X0107495Y0257760D01*
X0106265Y0258990D01*
X0104659Y0259655D01*
X0097719Y0259655D01*
X0096113Y0258990D01*
X0095729Y0258606D01*
X0095729Y0261961D01*
X0096113Y0261577D01*
X0097719Y0260912D01*
X0104659Y0260912D01*
X0105063Y0261079D01*
X0108302Y0257840D01*
X0108302Y0245010D01*
X0107420Y0244128D01*
X0107440Y0244176D01*
X0107586Y0244909D01*
X0107586Y0245087D01*
X0101386Y0245087D01*
X0101386Y0245480D01*
X0107586Y0245480D01*
X0107586Y0245657D01*
X0107440Y0246391D01*
X0107154Y0247082D01*
X0106738Y0247704D01*
X0106209Y0248233D01*
X0105587Y0248648D01*
X0104896Y0248934D01*
X0104163Y0249080D01*
X0101386Y0249080D01*
X0101386Y0245480D01*
X0100992Y0245480D01*
X0100992Y0245087D01*
X0094792Y0245087D01*
X0094792Y0244909D01*
X0094938Y0244176D01*
X0095224Y0243485D01*
X0095640Y0242863D01*
X0096169Y0242334D01*
X0096790Y0241919D01*
X0097096Y0241792D01*
X0091859Y0241792D01*
X0091311Y0241565D01*
X0091733Y0241987D01*
X0092566Y0243998D01*
X0092566Y0246175D01*
X0092382Y0246619D01*
X0094614Y0248851D01*
X0094614Y0248851D01*
X0095338Y0249575D01*
X0095729Y0250520D01*
X0095729Y0251961D01*
X0096113Y0251577D01*
X0097719Y0250912D01*
X0104659Y0250912D01*
X0106265Y0251577D01*
X0107174Y0252486D02*
X0108302Y0252486D01*
X0108302Y0252878D02*
X0107524Y0252878D01*
X0107687Y0253270D02*
X0108302Y0253270D01*
X0108302Y0253662D02*
X0107849Y0253662D01*
X0108012Y0254054D02*
X0108302Y0254054D01*
X0108302Y0254447D02*
X0108161Y0254447D01*
X0108161Y0254839D02*
X0108302Y0254839D01*
X0108302Y0255231D02*
X0108161Y0255231D01*
X0108161Y0255623D02*
X0108302Y0255623D01*
X0108302Y0256016D02*
X0108161Y0256016D01*
X0108055Y0256408D02*
X0108302Y0256408D01*
X0108302Y0256800D02*
X0107893Y0256800D01*
X0107730Y0257192D02*
X0108302Y0257192D01*
X0108302Y0257584D02*
X0107568Y0257584D01*
X0107278Y0257977D02*
X0108166Y0257977D01*
X0107774Y0258369D02*
X0106886Y0258369D01*
X0106494Y0258761D02*
X0107382Y0258761D01*
X0106989Y0259153D02*
X0105870Y0259153D01*
X0106597Y0259545D02*
X0104923Y0259545D01*
X0105813Y0260330D02*
X0095729Y0260330D01*
X0095729Y0260722D02*
X0105421Y0260722D01*
X0106205Y0259938D02*
X0095729Y0259938D01*
X0095729Y0259545D02*
X0097455Y0259545D01*
X0096508Y0259153D02*
X0095729Y0259153D01*
X0095729Y0258761D02*
X0095884Y0258761D01*
X0095729Y0261114D02*
X0097231Y0261114D01*
X0096284Y0261506D02*
X0095729Y0261506D01*
X0095729Y0261899D02*
X0095791Y0261899D01*
X0090586Y0260840D02*
X0090586Y0258520D01*
X0090285Y0258822D01*
X0089661Y0259275D01*
X0088974Y0259625D01*
X0088544Y0259765D01*
X0090194Y0260448D01*
X0090586Y0260840D01*
X0090586Y0260722D02*
X0090468Y0260722D01*
X0090586Y0260330D02*
X0089909Y0260330D01*
X0090586Y0259938D02*
X0088962Y0259938D01*
X0089130Y0259545D02*
X0090586Y0259545D01*
X0090586Y0259153D02*
X0089828Y0259153D01*
X0090345Y0258761D02*
X0090586Y0258761D01*
X0086898Y0255231D02*
X0080165Y0255231D01*
X0080165Y0254839D02*
X0082198Y0254839D01*
X0082238Y0254447D02*
X0080165Y0254447D01*
X0080165Y0254054D02*
X0082300Y0254054D01*
X0082408Y0253662D02*
X0080165Y0253662D01*
X0080165Y0253270D02*
X0082536Y0253270D01*
X0082724Y0252878D02*
X0080165Y0252878D01*
X0080165Y0252486D02*
X0082931Y0252486D01*
X0083216Y0252093D02*
X0080165Y0252093D01*
X0080165Y0251701D02*
X0083555Y0251701D01*
X0083963Y0251309D02*
X0080165Y0251309D01*
X0080165Y0250917D02*
X0084503Y0250917D01*
X0085289Y0250525D02*
X0080165Y0250525D01*
X0080165Y0250132D02*
X0084978Y0250132D01*
X0084031Y0249740D02*
X0080165Y0249740D01*
X0080165Y0249348D02*
X0083618Y0249348D01*
X0083225Y0248956D02*
X0080165Y0248956D01*
X0080165Y0248563D02*
X0082833Y0248563D01*
X0082450Y0248171D02*
X0080165Y0248171D01*
X0080165Y0247779D02*
X0082287Y0247779D01*
X0082125Y0247387D02*
X0080165Y0247387D01*
X0080165Y0246995D02*
X0081962Y0246995D01*
X0081800Y0246602D02*
X0080165Y0246602D01*
X0080165Y0246210D02*
X0081637Y0246210D01*
X0081623Y0245818D02*
X0080165Y0245818D01*
X0080165Y0245426D02*
X0081623Y0245426D01*
X0081623Y0245034D02*
X0080165Y0245034D01*
X0080165Y0244641D02*
X0081623Y0244641D01*
X0081623Y0244249D02*
X0080165Y0244249D01*
X0080165Y0243857D02*
X0081681Y0243857D01*
X0081844Y0243465D02*
X0080165Y0243465D01*
X0080165Y0243073D02*
X0082006Y0243073D01*
X0082169Y0242680D02*
X0080165Y0242680D01*
X0080165Y0242288D02*
X0082331Y0242288D01*
X0082547Y0241896D02*
X0080165Y0241896D01*
X0080165Y0241504D02*
X0082939Y0241504D01*
X0083332Y0241111D02*
X0080165Y0241111D01*
X0080165Y0240719D02*
X0083724Y0240719D01*
X0084287Y0240327D02*
X0080165Y0240327D01*
X0080165Y0239935D02*
X0084501Y0239935D01*
X0083812Y0239543D02*
X0080165Y0239543D01*
X0080165Y0239150D02*
X0083420Y0239150D01*
X0083028Y0238758D02*
X0080165Y0238758D01*
X0080165Y0238366D02*
X0082636Y0238366D01*
X0082368Y0237974D02*
X0080165Y0237974D01*
X0080165Y0237582D02*
X0082205Y0237582D01*
X0082043Y0237189D02*
X0080165Y0237189D01*
X0080165Y0236797D02*
X0081881Y0236797D01*
X0081718Y0236405D02*
X0080165Y0236405D01*
X0080165Y0236013D02*
X0081623Y0236013D01*
X0081623Y0235620D02*
X0080165Y0235620D01*
X0080165Y0235228D02*
X0081623Y0235228D01*
X0081623Y0234836D02*
X0080165Y0234836D01*
X0080165Y0234444D02*
X0081623Y0234444D01*
X0081623Y0234052D02*
X0080165Y0234052D01*
X0080165Y0233659D02*
X0081763Y0233659D01*
X0081926Y0233267D02*
X0080165Y0233267D01*
X0080165Y0232875D02*
X0082088Y0232875D01*
X0082251Y0232483D02*
X0080165Y0232483D01*
X0080165Y0232091D02*
X0082413Y0232091D01*
X0082745Y0231698D02*
X0080165Y0231698D01*
X0080165Y0231306D02*
X0083137Y0231306D01*
X0083529Y0230914D02*
X0080165Y0230914D01*
X0080165Y0230522D02*
X0083921Y0230522D01*
X0084024Y0229737D02*
X0080165Y0229737D01*
X0080165Y0229345D02*
X0083615Y0229345D01*
X0083223Y0228953D02*
X0080165Y0228953D01*
X0080165Y0228561D02*
X0082830Y0228561D01*
X0082449Y0228168D02*
X0080165Y0228168D01*
X0080165Y0227776D02*
X0082286Y0227776D01*
X0082124Y0227384D02*
X0080165Y0227384D01*
X0080165Y0226992D02*
X0081961Y0226992D01*
X0081799Y0226600D02*
X0080165Y0226600D01*
X0080165Y0226207D02*
X0081636Y0226207D01*
X0081623Y0225815D02*
X0080165Y0225815D01*
X0080165Y0225423D02*
X0081623Y0225423D01*
X0081623Y0225031D02*
X0080165Y0225031D01*
X0080165Y0224639D02*
X0081623Y0224639D01*
X0081623Y0224246D02*
X0080165Y0224246D01*
X0080165Y0223854D02*
X0081683Y0223854D01*
X0081845Y0223462D02*
X0080165Y0223462D01*
X0080165Y0223070D02*
X0082007Y0223070D01*
X0082170Y0222677D02*
X0080165Y0222677D01*
X0080165Y0222285D02*
X0082332Y0222285D01*
X0082550Y0221893D02*
X0080165Y0221893D01*
X0080165Y0221501D02*
X0082942Y0221501D01*
X0083334Y0221109D02*
X0080165Y0221109D01*
X0080165Y0220716D02*
X0083727Y0220716D01*
X0084294Y0220324D02*
X0080165Y0220324D01*
X0080165Y0219932D02*
X0084494Y0219932D01*
X0083810Y0219540D02*
X0080165Y0219540D01*
X0080165Y0219148D02*
X0083417Y0219148D01*
X0083025Y0218755D02*
X0080165Y0218755D01*
X0080165Y0218363D02*
X0082633Y0218363D01*
X0082367Y0217971D02*
X0080165Y0217971D01*
X0080165Y0217579D02*
X0082204Y0217579D01*
X0082042Y0217187D02*
X0080165Y0217187D01*
X0080165Y0216794D02*
X0081879Y0216794D01*
X0081717Y0216402D02*
X0080165Y0216402D01*
X0080165Y0216010D02*
X0081623Y0216010D01*
X0081623Y0215618D02*
X0080165Y0215618D01*
X0080165Y0215225D02*
X0081623Y0215225D01*
X0081623Y0214833D02*
X0080165Y0214833D01*
X0080165Y0214441D02*
X0081623Y0214441D01*
X0081623Y0214049D02*
X0080165Y0214049D01*
X0080165Y0213657D02*
X0081764Y0213657D01*
X0081927Y0213264D02*
X0080165Y0213264D01*
X0080165Y0212872D02*
X0082089Y0212872D01*
X0082252Y0212480D02*
X0080165Y0212480D01*
X0080165Y0212088D02*
X0082414Y0212088D01*
X0082747Y0211696D02*
X0080165Y0211696D01*
X0080165Y0211303D02*
X0083140Y0211303D01*
X0092566Y0224639D02*
X0178482Y0224639D01*
X0178874Y0225031D02*
X0092566Y0225031D01*
X0092566Y0225423D02*
X0179266Y0225423D01*
X0179659Y0225815D02*
X0092566Y0225815D01*
X0092553Y0226207D02*
X0180051Y0226207D01*
X0180443Y0226600D02*
X0092390Y0226600D01*
X0092228Y0226992D02*
X0180835Y0226992D01*
X0184579Y0223462D02*
X0190297Y0223462D01*
X0189905Y0223070D02*
X0184187Y0223070D01*
X0183795Y0222677D02*
X0189513Y0222677D01*
X0189121Y0222285D02*
X0183402Y0222285D01*
X0183010Y0221893D02*
X0188729Y0221893D01*
X0188336Y0221501D02*
X0182618Y0221501D01*
X0182226Y0221109D02*
X0187944Y0221109D01*
X0187552Y0220716D02*
X0181834Y0220716D01*
X0181441Y0220324D02*
X0187160Y0220324D01*
X0186768Y0219932D02*
X0181049Y0219932D01*
X0180406Y0219540D02*
X0186375Y0219540D01*
X0185983Y0219148D02*
X0153057Y0219148D01*
X0153969Y0218755D02*
X0185591Y0218755D01*
X0185199Y0218363D02*
X0154361Y0218363D01*
X0184971Y0223854D02*
X0190690Y0223854D01*
X0191082Y0224246D02*
X0185364Y0224246D01*
X0185756Y0224639D02*
X0191474Y0224639D01*
X0191866Y0225031D02*
X0186148Y0225031D01*
X0186540Y0225423D02*
X0192259Y0225423D01*
X0192651Y0225815D02*
X0186932Y0225815D01*
X0187325Y0226207D02*
X0193043Y0226207D01*
X0193435Y0226600D02*
X0187717Y0226600D01*
X0188109Y0226992D02*
X0193827Y0226992D01*
X0194220Y0227384D02*
X0188501Y0227384D01*
X0188893Y0227776D02*
X0194612Y0227776D01*
X0195004Y0228168D02*
X0189286Y0228168D01*
X0189678Y0228561D02*
X0195396Y0228561D01*
X0195788Y0228953D02*
X0190070Y0228953D01*
X0190462Y0229345D02*
X0196181Y0229345D01*
X0196573Y0229737D02*
X0190854Y0229737D01*
X0191247Y0230130D02*
X0196965Y0230130D01*
X0197357Y0230522D02*
X0191639Y0230522D01*
X0192031Y0230914D02*
X0197750Y0230914D01*
X0198142Y0231306D02*
X0192423Y0231306D01*
X0192816Y0231698D02*
X0198460Y0231698D01*
X0198460Y0232091D02*
X0193208Y0232091D01*
X0193600Y0232483D02*
X0198460Y0232483D01*
X0198621Y0232875D02*
X0193992Y0232875D01*
X0194384Y0233267D02*
X0198783Y0233267D01*
X0198946Y0233659D02*
X0194777Y0233659D01*
X0195169Y0234052D02*
X0199217Y0234052D01*
X0199609Y0234444D02*
X0195561Y0234444D01*
X0195953Y0234836D02*
X0200001Y0234836D01*
X0200827Y0235228D02*
X0196345Y0235228D01*
X0196738Y0235620D02*
X0275047Y0235620D01*
X0275047Y0235228D02*
X0203598Y0235228D01*
X0204424Y0234836D02*
X0275047Y0234836D01*
X0275047Y0234444D02*
X0204816Y0234444D01*
X0205208Y0234052D02*
X0275047Y0234052D01*
X0275047Y0233659D02*
X0205480Y0233659D01*
X0205642Y0233267D02*
X0275047Y0233267D01*
X0275047Y0232875D02*
X0205804Y0232875D01*
X0205965Y0232483D02*
X0275047Y0232483D01*
X0275047Y0232091D02*
X0205965Y0232091D01*
X0205965Y0231698D02*
X0275047Y0231698D01*
X0275047Y0231306D02*
X0205965Y0231306D01*
X0205932Y0230914D02*
X0275047Y0230914D01*
X0275047Y0230522D02*
X0205770Y0230522D01*
X0205607Y0230130D02*
X0275047Y0230130D01*
X0275047Y0229737D02*
X0205445Y0229737D01*
X0205125Y0229345D02*
X0275047Y0229345D01*
X0275047Y0228953D02*
X0204733Y0228953D01*
X0204340Y0228561D02*
X0275047Y0228561D01*
X0275047Y0228168D02*
X0203396Y0228168D01*
X0201886Y0227776D02*
X0275047Y0227776D01*
X0275047Y0227384D02*
X0201493Y0227384D01*
X0201101Y0226992D02*
X0275047Y0226992D01*
X0275047Y0226600D02*
X0200709Y0226600D01*
X0200317Y0226207D02*
X0275047Y0226207D01*
X0275047Y0225815D02*
X0199924Y0225815D01*
X0199532Y0225423D02*
X0275047Y0225423D01*
X0275047Y0225031D02*
X0199140Y0225031D01*
X0198748Y0224639D02*
X0275047Y0224639D01*
X0275047Y0224246D02*
X0198356Y0224246D01*
X0197963Y0223854D02*
X0275047Y0223854D01*
X0275047Y0223462D02*
X0197571Y0223462D01*
X0197179Y0223070D02*
X0275047Y0223070D01*
X0275047Y0222677D02*
X0196787Y0222677D01*
X0196395Y0222285D02*
X0275047Y0222285D01*
X0275047Y0221893D02*
X0196002Y0221893D01*
X0195610Y0221501D02*
X0275047Y0221501D01*
X0275047Y0221109D02*
X0195218Y0221109D01*
X0194826Y0220716D02*
X0275047Y0220716D01*
X0275047Y0220324D02*
X0194434Y0220324D01*
X0194041Y0219932D02*
X0275047Y0219932D01*
X0275047Y0219540D02*
X0193649Y0219540D01*
X0193257Y0219148D02*
X0275047Y0219148D01*
X0275047Y0218755D02*
X0192865Y0218755D01*
X0192472Y0218363D02*
X0275047Y0218363D01*
X0275047Y0217971D02*
X0192080Y0217971D01*
X0191688Y0217579D02*
X0275047Y0217579D01*
X0275047Y0217187D02*
X0191296Y0217187D01*
X0190904Y0216794D02*
X0275047Y0216794D01*
X0275047Y0216402D02*
X0190511Y0216402D01*
X0190119Y0216010D02*
X0275047Y0216010D01*
X0275047Y0215618D02*
X0189727Y0215618D01*
X0189335Y0215225D02*
X0275047Y0215225D01*
X0275047Y0214833D02*
X0188943Y0214833D01*
X0188550Y0214441D02*
X0275047Y0214441D01*
X0275047Y0214049D02*
X0188158Y0214049D01*
X0187766Y0213657D02*
X0275047Y0213657D01*
X0275047Y0213264D02*
X0187156Y0213264D01*
X0197130Y0236013D02*
X0275047Y0236013D01*
X0275047Y0236405D02*
X0197522Y0236405D01*
X0197914Y0236797D02*
X0275047Y0236797D01*
X0275047Y0237189D02*
X0198307Y0237189D01*
X0199767Y0237582D02*
X0275047Y0237582D01*
X0275047Y0237974D02*
X0200713Y0237974D01*
X0201153Y0238366D02*
X0275047Y0238366D01*
X0275047Y0238758D02*
X0201546Y0238758D01*
X0201887Y0239150D02*
X0275047Y0239150D01*
X0275047Y0239543D02*
X0202049Y0239543D01*
X0202212Y0239935D02*
X0275047Y0239935D01*
X0275047Y0240327D02*
X0202374Y0240327D01*
X0202422Y0240719D02*
X0275047Y0240719D01*
X0275047Y0241111D02*
X0202422Y0241111D01*
X0202422Y0241504D02*
X0275047Y0241504D01*
X0275047Y0241896D02*
X0202422Y0241896D01*
X0202276Y0242288D02*
X0275047Y0242288D01*
X0275047Y0242680D02*
X0202114Y0242680D01*
X0201951Y0243073D02*
X0275047Y0243073D01*
X0275047Y0243465D02*
X0201701Y0243465D01*
X0201309Y0243857D02*
X0275047Y0243857D01*
X0275047Y0244249D02*
X0200916Y0244249D01*
X0200141Y0244641D02*
X0275047Y0244641D01*
X0275047Y0251309D02*
X0178540Y0251309D01*
X0179145Y0251701D02*
X0275047Y0251701D01*
X0275047Y0252093D02*
X0179537Y0252093D01*
X0179929Y0252486D02*
X0275047Y0252486D01*
X0275047Y0252878D02*
X0180211Y0252878D01*
X0180374Y0253270D02*
X0275047Y0253270D01*
X0275047Y0253662D02*
X0180536Y0253662D01*
X0180698Y0254054D02*
X0275047Y0254054D01*
X0275047Y0254447D02*
X0180798Y0254447D01*
X0180798Y0254839D02*
X0275047Y0254839D01*
X0275047Y0255231D02*
X0180798Y0255231D01*
X0180798Y0255623D02*
X0275047Y0255623D01*
X0275047Y0256016D02*
X0180798Y0256016D01*
X0180644Y0256408D02*
X0275047Y0256408D01*
X0275047Y0256800D02*
X0180482Y0256800D01*
X0180319Y0257192D02*
X0275047Y0257192D01*
X0275047Y0257584D02*
X0180157Y0257584D01*
X0179798Y0257977D02*
X0275047Y0257977D01*
X0275047Y0258369D02*
X0179406Y0258369D01*
X0179014Y0258761D02*
X0275047Y0258761D01*
X0275047Y0259153D02*
X0178223Y0259153D01*
X0178070Y0261114D02*
X0275047Y0261114D01*
X0275047Y0261506D02*
X0178950Y0261506D01*
X0179343Y0261899D02*
X0275047Y0261899D01*
X0275047Y0262291D02*
X0179735Y0262291D01*
X0180127Y0262683D02*
X0275047Y0262683D01*
X0275047Y0263075D02*
X0180293Y0263075D01*
X0180455Y0263468D02*
X0275047Y0263468D01*
X0275047Y0263860D02*
X0180618Y0263860D01*
X0180780Y0264252D02*
X0275047Y0264252D01*
X0275047Y0264644D02*
X0180798Y0264644D01*
X0180798Y0265036D02*
X0275047Y0265036D01*
X0275047Y0265429D02*
X0180798Y0265429D01*
X0180798Y0265821D02*
X0275047Y0265821D01*
X0275047Y0266213D02*
X0180725Y0266213D01*
X0180562Y0266605D02*
X0275047Y0266605D01*
X0275047Y0266997D02*
X0180400Y0266997D01*
X0180237Y0267390D02*
X0275047Y0267390D01*
X0275047Y0267782D02*
X0179993Y0267782D01*
X0179600Y0268174D02*
X0275047Y0268174D01*
X0275047Y0268566D02*
X0179208Y0268566D01*
X0178693Y0268959D02*
X0275047Y0268959D01*
X0275047Y0269351D02*
X0177746Y0269351D01*
X0139901Y0249348D02*
X0135400Y0249348D01*
X0136299Y0248956D02*
X0138954Y0248956D01*
X0138442Y0248563D02*
X0136691Y0248563D01*
X0137084Y0248171D02*
X0138050Y0248171D01*
X0137658Y0247779D02*
X0137476Y0247779D01*
X0125402Y0242288D02*
X0116955Y0242288D01*
X0116563Y0242680D02*
X0125010Y0242680D01*
X0124773Y0243073D02*
X0116171Y0243073D01*
X0115778Y0243465D02*
X0124610Y0243465D01*
X0108302Y0245034D02*
X0107586Y0245034D01*
X0107532Y0244641D02*
X0107934Y0244641D01*
X0107541Y0244249D02*
X0107454Y0244249D01*
X0108302Y0245426D02*
X0101386Y0245426D01*
X0101386Y0245818D02*
X0100992Y0245818D01*
X0100992Y0245480D02*
X0100992Y0249080D01*
X0098215Y0249080D01*
X0097481Y0248934D01*
X0096790Y0248648D01*
X0096169Y0248233D01*
X0095640Y0247704D01*
X0095224Y0247082D01*
X0094938Y0246391D01*
X0094792Y0245657D01*
X0094792Y0245480D01*
X0100992Y0245480D01*
X0100992Y0245426D02*
X0092566Y0245426D01*
X0092566Y0245818D02*
X0094824Y0245818D01*
X0094902Y0246210D02*
X0092552Y0246210D01*
X0092389Y0246602D02*
X0095026Y0246602D01*
X0095188Y0246995D02*
X0092757Y0246995D01*
X0093150Y0247387D02*
X0095428Y0247387D01*
X0095715Y0247779D02*
X0093542Y0247779D01*
X0093934Y0248171D02*
X0096107Y0248171D01*
X0096664Y0248563D02*
X0094326Y0248563D01*
X0094719Y0248956D02*
X0097589Y0248956D01*
X0097707Y0250917D02*
X0095729Y0250917D01*
X0095729Y0251309D02*
X0096761Y0251309D01*
X0095989Y0251701D02*
X0095729Y0251701D01*
X0095729Y0250525D02*
X0108302Y0250525D01*
X0108302Y0250917D02*
X0104670Y0250917D01*
X0104789Y0248956D02*
X0108302Y0248956D01*
X0108302Y0249348D02*
X0095111Y0249348D01*
X0095406Y0249740D02*
X0108302Y0249740D01*
X0108302Y0250132D02*
X0095569Y0250132D01*
X0094792Y0245034D02*
X0092566Y0245034D01*
X0092566Y0244641D02*
X0094845Y0244641D01*
X0094923Y0244249D02*
X0092566Y0244249D01*
X0092508Y0243857D02*
X0095070Y0243857D01*
X0095238Y0243465D02*
X0092345Y0243465D01*
X0092183Y0243073D02*
X0095500Y0243073D01*
X0095823Y0242680D02*
X0092020Y0242680D01*
X0091858Y0242288D02*
X0096238Y0242288D01*
X0096846Y0241896D02*
X0091642Y0241896D01*
X0089796Y0240283D02*
X0089518Y0240005D01*
X0089322Y0240087D01*
X0089796Y0240283D01*
X0088794Y0250305D02*
X0088544Y0250409D01*
X0088974Y0250549D01*
X0089104Y0250614D01*
X0088794Y0250305D01*
X0088900Y0250525D02*
X0089014Y0250525D01*
X0082222Y0255623D02*
X0080165Y0255623D01*
X0080165Y0256016D02*
X0082284Y0256016D01*
X0082375Y0256408D02*
X0080165Y0256408D01*
X0080165Y0256800D02*
X0082502Y0256800D01*
X0082671Y0257192D02*
X0080165Y0257192D01*
X0080165Y0257584D02*
X0082871Y0257584D01*
X0083141Y0257977D02*
X0080165Y0257977D01*
X0080165Y0258369D02*
X0083451Y0258369D01*
X0083844Y0258761D02*
X0080165Y0258761D01*
X0080165Y0259153D02*
X0084361Y0259153D01*
X0085059Y0259545D02*
X0080165Y0259545D01*
X0080165Y0259938D02*
X0085227Y0259938D01*
X0084280Y0260330D02*
X0080165Y0260330D01*
X0080165Y0260722D02*
X0083721Y0260722D01*
X0083329Y0261114D02*
X0080165Y0261114D01*
X0080165Y0261506D02*
X0082937Y0261506D01*
X0082544Y0261899D02*
X0080165Y0261899D01*
X0080165Y0262291D02*
X0082330Y0262291D01*
X0082168Y0262683D02*
X0080165Y0262683D01*
X0080165Y0263075D02*
X0082005Y0263075D01*
X0081843Y0263468D02*
X0080165Y0263468D01*
X0080165Y0263860D02*
X0081680Y0263860D01*
X0081623Y0264252D02*
X0080165Y0264252D01*
X0080165Y0264644D02*
X0081623Y0264644D01*
X0081623Y0265036D02*
X0080165Y0265036D01*
X0080165Y0265429D02*
X0081623Y0265429D01*
X0081623Y0265821D02*
X0080165Y0265821D01*
X0080165Y0266213D02*
X0081639Y0266213D01*
X0081801Y0266605D02*
X0080165Y0266605D01*
X0080165Y0266997D02*
X0081964Y0266997D01*
X0082126Y0267390D02*
X0080165Y0267390D01*
X0080165Y0267782D02*
X0082288Y0267782D01*
X0082451Y0268174D02*
X0080165Y0268174D01*
X0080165Y0268566D02*
X0082836Y0268566D01*
X0083228Y0268959D02*
X0080165Y0268959D01*
X0080165Y0269351D02*
X0083621Y0269351D01*
X0084038Y0269743D02*
X0080165Y0269743D01*
X0080165Y0270135D02*
X0084985Y0270135D01*
X0085932Y0270527D02*
X0080165Y0270527D01*
X0080165Y0270920D02*
X0090621Y0270920D01*
X0090586Y0270527D02*
X0088257Y0270527D01*
X0089204Y0270135D02*
X0090586Y0270135D01*
X0090586Y0269743D02*
X0090151Y0269743D01*
X0090568Y0269351D02*
X0090586Y0269351D01*
X0090784Y0271312D02*
X0080165Y0271312D01*
X0080165Y0271704D02*
X0090946Y0271704D01*
X0091294Y0272096D02*
X0080165Y0272096D01*
X0080165Y0272488D02*
X0091686Y0272488D01*
X0092078Y0272881D02*
X0080165Y0272881D01*
X0080165Y0273273D02*
X0092471Y0273273D01*
X0092863Y0273665D02*
X0080165Y0273665D01*
X0080165Y0274057D02*
X0093255Y0274057D01*
X0093647Y0274449D02*
X0080165Y0274449D01*
X0080165Y0274842D02*
X0094039Y0274842D01*
X0094217Y0275234D02*
X0080165Y0275234D01*
X0080165Y0275626D02*
X0094217Y0275626D01*
X0094217Y0276018D02*
X0080165Y0276018D01*
X0080165Y0276411D02*
X0094324Y0276411D01*
X0094486Y0276803D02*
X0080165Y0276803D01*
X0080165Y0277195D02*
X0094649Y0277195D01*
X0094811Y0277587D02*
X0080165Y0277587D01*
X0080165Y0277979D02*
X0095102Y0277979D01*
X0095495Y0278372D02*
X0080165Y0278372D01*
X0080165Y0278764D02*
X0095887Y0278764D01*
X0096515Y0279156D02*
X0080165Y0279156D01*
X0080165Y0279548D02*
X0097461Y0279548D01*
X0104917Y0279548D02*
X0275047Y0279548D01*
X0275047Y0279940D02*
X0080165Y0279940D01*
X0080165Y0280333D02*
X0275047Y0280333D01*
X0275047Y0280725D02*
X0080165Y0280725D01*
X0080165Y0281117D02*
X0275047Y0281117D01*
X0275047Y0281509D02*
X0080165Y0281509D01*
X0080165Y0281902D02*
X0275047Y0281902D01*
X0275047Y0270527D02*
X0096999Y0270527D01*
X0096607Y0270135D02*
X0275047Y0270135D01*
X0275047Y0269743D02*
X0096214Y0269743D01*
X0095822Y0269351D02*
X0096985Y0269351D01*
X0096082Y0268959D02*
X0095729Y0268959D01*
X0097391Y0270920D02*
X0097701Y0270920D01*
X0100992Y0248956D02*
X0101386Y0248956D01*
X0101386Y0248563D02*
X0100992Y0248563D01*
X0100992Y0248171D02*
X0101386Y0248171D01*
X0101386Y0247779D02*
X0100992Y0247779D01*
X0100992Y0247387D02*
X0101386Y0247387D01*
X0101386Y0246995D02*
X0100992Y0246995D01*
X0100992Y0246602D02*
X0101386Y0246602D01*
X0101386Y0246210D02*
X0100992Y0246210D01*
X0105714Y0248563D02*
X0108302Y0248563D01*
X0108302Y0248171D02*
X0106271Y0248171D01*
X0106663Y0247779D02*
X0108302Y0247779D01*
X0108302Y0247387D02*
X0106950Y0247387D01*
X0107190Y0246995D02*
X0108302Y0246995D01*
X0108302Y0246602D02*
X0107352Y0246602D01*
X0107476Y0246210D02*
X0108302Y0246210D01*
X0108302Y0245818D02*
X0107554Y0245818D01*
X0084764Y0230130D02*
X0080165Y0230130D01*
M02*
