%
M48
M72
T01C0.02362
T02C0.03200
T03C0.04000
%
T01
X117016Y96465
X136858Y66780
X151819Y66780
X156150Y77803
X198669Y92370
X202213Y82921
X151819Y141189
X156150Y152213
X136858Y141189
X117016Y170874
X136858Y215598
X151819Y215598
X156150Y226622
X117016Y245283
X198669Y241189
X202213Y231740
X198669Y166780
X202213Y157331
T02
X173827Y160756
X173827Y170756
X173827Y180756
X173827Y190756
X173827Y200756
X143827Y200756
X143827Y190756
X143827Y180756
X143827Y170756
X143827Y160756
X131189Y170874
X131189Y180874
X131189Y190874
X131189Y200874
X101189Y200874
X101189Y190874
X101189Y180874
X101189Y170874
X101189Y126465
X101189Y116465
X101189Y106465
X101189Y96465
X131189Y96465
X131189Y106465
X131189Y116465
X131189Y126465
X143827Y126346
X143827Y116346
X143827Y106346
X143827Y96346
X143827Y86346
X173827Y86346
X173827Y96346
X173827Y106346
X173827Y116346
X173827Y126346
X173827Y235165
X173827Y245165
X173827Y255165
X173827Y265165
X173827Y275165
X143827Y275165
X143827Y265165
X143827Y255165
X143827Y245165
X143827Y235165
X131189Y245283
X131189Y255283
X131189Y265283
X131189Y275283
X101189Y275283
X101189Y265283
X101189Y255283
X101189Y245283
T03
X87094Y66268
X87094Y76268
X87094Y86268
X87094Y96268
X87094Y106268
X87094Y116268
X87094Y140677
X87094Y150677
X87094Y160677
X87094Y170677
X87094Y180677
X87094Y190677
X87094Y215087
X87094Y225087
X87094Y235087
X87094Y245087
X87094Y255087
X87094Y265087
M30
