G75*
%MOIN*%
%OFA0B0*%
%FSLAX25Y25*%
%IPPOS*%
%LPD*%
%AMOC8*
5,1,8,0,0,1.08239X$1,22.5*
%
%ADD10C,0.03937*%
%ADD11C,0.00000*%
%ADD12C,0.12611*%
%ADD13C,0.08200*%
%ADD14R,0.05800X0.03000*%
%ADD15R,0.03000X0.05800*%
%ADD16C,0.06000*%
%ADD17R,0.05524X0.02965*%
%ADD18R,0.05131X0.04737*%
%ADD19R,0.04737X0.05131*%
%ADD20R,0.08200X0.08200*%
%ADD21C,0.04762*%
D10*
X0002969Y0005657D02*
X0215567Y0005657D01*
X0215567Y0092272D01*
X0002969Y0092272D01*
X0002969Y0005657D01*
D11*
X0036433Y0048965D02*
X0036435Y0049118D01*
X0036441Y0049272D01*
X0036451Y0049425D01*
X0036465Y0049577D01*
X0036483Y0049730D01*
X0036505Y0049881D01*
X0036530Y0050032D01*
X0036560Y0050183D01*
X0036594Y0050333D01*
X0036631Y0050481D01*
X0036672Y0050629D01*
X0036717Y0050775D01*
X0036766Y0050921D01*
X0036819Y0051065D01*
X0036875Y0051207D01*
X0036935Y0051348D01*
X0036999Y0051488D01*
X0037066Y0051626D01*
X0037137Y0051762D01*
X0037212Y0051896D01*
X0037289Y0052028D01*
X0037371Y0052158D01*
X0037455Y0052286D01*
X0037543Y0052412D01*
X0037634Y0052535D01*
X0037728Y0052656D01*
X0037826Y0052774D01*
X0037926Y0052890D01*
X0038030Y0053003D01*
X0038136Y0053114D01*
X0038245Y0053222D01*
X0038357Y0053327D01*
X0038471Y0053428D01*
X0038589Y0053527D01*
X0038708Y0053623D01*
X0038830Y0053716D01*
X0038955Y0053805D01*
X0039082Y0053892D01*
X0039211Y0053974D01*
X0039342Y0054054D01*
X0039475Y0054130D01*
X0039610Y0054203D01*
X0039747Y0054272D01*
X0039886Y0054337D01*
X0040026Y0054399D01*
X0040168Y0054457D01*
X0040311Y0054512D01*
X0040456Y0054563D01*
X0040602Y0054610D01*
X0040749Y0054653D01*
X0040897Y0054692D01*
X0041046Y0054728D01*
X0041196Y0054759D01*
X0041347Y0054787D01*
X0041498Y0054811D01*
X0041651Y0054831D01*
X0041803Y0054847D01*
X0041956Y0054859D01*
X0042109Y0054867D01*
X0042262Y0054871D01*
X0042416Y0054871D01*
X0042569Y0054867D01*
X0042722Y0054859D01*
X0042875Y0054847D01*
X0043027Y0054831D01*
X0043180Y0054811D01*
X0043331Y0054787D01*
X0043482Y0054759D01*
X0043632Y0054728D01*
X0043781Y0054692D01*
X0043929Y0054653D01*
X0044076Y0054610D01*
X0044222Y0054563D01*
X0044367Y0054512D01*
X0044510Y0054457D01*
X0044652Y0054399D01*
X0044792Y0054337D01*
X0044931Y0054272D01*
X0045068Y0054203D01*
X0045203Y0054130D01*
X0045336Y0054054D01*
X0045467Y0053974D01*
X0045596Y0053892D01*
X0045723Y0053805D01*
X0045848Y0053716D01*
X0045970Y0053623D01*
X0046089Y0053527D01*
X0046207Y0053428D01*
X0046321Y0053327D01*
X0046433Y0053222D01*
X0046542Y0053114D01*
X0046648Y0053003D01*
X0046752Y0052890D01*
X0046852Y0052774D01*
X0046950Y0052656D01*
X0047044Y0052535D01*
X0047135Y0052412D01*
X0047223Y0052286D01*
X0047307Y0052158D01*
X0047389Y0052028D01*
X0047466Y0051896D01*
X0047541Y0051762D01*
X0047612Y0051626D01*
X0047679Y0051488D01*
X0047743Y0051348D01*
X0047803Y0051207D01*
X0047859Y0051065D01*
X0047912Y0050921D01*
X0047961Y0050775D01*
X0048006Y0050629D01*
X0048047Y0050481D01*
X0048084Y0050333D01*
X0048118Y0050183D01*
X0048148Y0050032D01*
X0048173Y0049881D01*
X0048195Y0049730D01*
X0048213Y0049577D01*
X0048227Y0049425D01*
X0048237Y0049272D01*
X0048243Y0049118D01*
X0048245Y0048965D01*
X0048243Y0048812D01*
X0048237Y0048658D01*
X0048227Y0048505D01*
X0048213Y0048353D01*
X0048195Y0048200D01*
X0048173Y0048049D01*
X0048148Y0047898D01*
X0048118Y0047747D01*
X0048084Y0047597D01*
X0048047Y0047449D01*
X0048006Y0047301D01*
X0047961Y0047155D01*
X0047912Y0047009D01*
X0047859Y0046865D01*
X0047803Y0046723D01*
X0047743Y0046582D01*
X0047679Y0046442D01*
X0047612Y0046304D01*
X0047541Y0046168D01*
X0047466Y0046034D01*
X0047389Y0045902D01*
X0047307Y0045772D01*
X0047223Y0045644D01*
X0047135Y0045518D01*
X0047044Y0045395D01*
X0046950Y0045274D01*
X0046852Y0045156D01*
X0046752Y0045040D01*
X0046648Y0044927D01*
X0046542Y0044816D01*
X0046433Y0044708D01*
X0046321Y0044603D01*
X0046207Y0044502D01*
X0046089Y0044403D01*
X0045970Y0044307D01*
X0045848Y0044214D01*
X0045723Y0044125D01*
X0045596Y0044038D01*
X0045467Y0043956D01*
X0045336Y0043876D01*
X0045203Y0043800D01*
X0045068Y0043727D01*
X0044931Y0043658D01*
X0044792Y0043593D01*
X0044652Y0043531D01*
X0044510Y0043473D01*
X0044367Y0043418D01*
X0044222Y0043367D01*
X0044076Y0043320D01*
X0043929Y0043277D01*
X0043781Y0043238D01*
X0043632Y0043202D01*
X0043482Y0043171D01*
X0043331Y0043143D01*
X0043180Y0043119D01*
X0043027Y0043099D01*
X0042875Y0043083D01*
X0042722Y0043071D01*
X0042569Y0043063D01*
X0042416Y0043059D01*
X0042262Y0043059D01*
X0042109Y0043063D01*
X0041956Y0043071D01*
X0041803Y0043083D01*
X0041651Y0043099D01*
X0041498Y0043119D01*
X0041347Y0043143D01*
X0041196Y0043171D01*
X0041046Y0043202D01*
X0040897Y0043238D01*
X0040749Y0043277D01*
X0040602Y0043320D01*
X0040456Y0043367D01*
X0040311Y0043418D01*
X0040168Y0043473D01*
X0040026Y0043531D01*
X0039886Y0043593D01*
X0039747Y0043658D01*
X0039610Y0043727D01*
X0039475Y0043800D01*
X0039342Y0043876D01*
X0039211Y0043956D01*
X0039082Y0044038D01*
X0038955Y0044125D01*
X0038830Y0044214D01*
X0038708Y0044307D01*
X0038589Y0044403D01*
X0038471Y0044502D01*
X0038357Y0044603D01*
X0038245Y0044708D01*
X0038136Y0044816D01*
X0038030Y0044927D01*
X0037926Y0045040D01*
X0037826Y0045156D01*
X0037728Y0045274D01*
X0037634Y0045395D01*
X0037543Y0045518D01*
X0037455Y0045644D01*
X0037371Y0045772D01*
X0037289Y0045902D01*
X0037212Y0046034D01*
X0037137Y0046168D01*
X0037066Y0046304D01*
X0036999Y0046442D01*
X0036935Y0046582D01*
X0036875Y0046723D01*
X0036819Y0046865D01*
X0036766Y0047009D01*
X0036717Y0047155D01*
X0036672Y0047301D01*
X0036631Y0047449D01*
X0036594Y0047597D01*
X0036560Y0047747D01*
X0036530Y0047898D01*
X0036505Y0048049D01*
X0036483Y0048200D01*
X0036465Y0048353D01*
X0036451Y0048505D01*
X0036441Y0048658D01*
X0036435Y0048812D01*
X0036433Y0048965D01*
X0189976Y0048965D02*
X0189978Y0049118D01*
X0189984Y0049272D01*
X0189994Y0049425D01*
X0190008Y0049577D01*
X0190026Y0049730D01*
X0190048Y0049881D01*
X0190073Y0050032D01*
X0190103Y0050183D01*
X0190137Y0050333D01*
X0190174Y0050481D01*
X0190215Y0050629D01*
X0190260Y0050775D01*
X0190309Y0050921D01*
X0190362Y0051065D01*
X0190418Y0051207D01*
X0190478Y0051348D01*
X0190542Y0051488D01*
X0190609Y0051626D01*
X0190680Y0051762D01*
X0190755Y0051896D01*
X0190832Y0052028D01*
X0190914Y0052158D01*
X0190998Y0052286D01*
X0191086Y0052412D01*
X0191177Y0052535D01*
X0191271Y0052656D01*
X0191369Y0052774D01*
X0191469Y0052890D01*
X0191573Y0053003D01*
X0191679Y0053114D01*
X0191788Y0053222D01*
X0191900Y0053327D01*
X0192014Y0053428D01*
X0192132Y0053527D01*
X0192251Y0053623D01*
X0192373Y0053716D01*
X0192498Y0053805D01*
X0192625Y0053892D01*
X0192754Y0053974D01*
X0192885Y0054054D01*
X0193018Y0054130D01*
X0193153Y0054203D01*
X0193290Y0054272D01*
X0193429Y0054337D01*
X0193569Y0054399D01*
X0193711Y0054457D01*
X0193854Y0054512D01*
X0193999Y0054563D01*
X0194145Y0054610D01*
X0194292Y0054653D01*
X0194440Y0054692D01*
X0194589Y0054728D01*
X0194739Y0054759D01*
X0194890Y0054787D01*
X0195041Y0054811D01*
X0195194Y0054831D01*
X0195346Y0054847D01*
X0195499Y0054859D01*
X0195652Y0054867D01*
X0195805Y0054871D01*
X0195959Y0054871D01*
X0196112Y0054867D01*
X0196265Y0054859D01*
X0196418Y0054847D01*
X0196570Y0054831D01*
X0196723Y0054811D01*
X0196874Y0054787D01*
X0197025Y0054759D01*
X0197175Y0054728D01*
X0197324Y0054692D01*
X0197472Y0054653D01*
X0197619Y0054610D01*
X0197765Y0054563D01*
X0197910Y0054512D01*
X0198053Y0054457D01*
X0198195Y0054399D01*
X0198335Y0054337D01*
X0198474Y0054272D01*
X0198611Y0054203D01*
X0198746Y0054130D01*
X0198879Y0054054D01*
X0199010Y0053974D01*
X0199139Y0053892D01*
X0199266Y0053805D01*
X0199391Y0053716D01*
X0199513Y0053623D01*
X0199632Y0053527D01*
X0199750Y0053428D01*
X0199864Y0053327D01*
X0199976Y0053222D01*
X0200085Y0053114D01*
X0200191Y0053003D01*
X0200295Y0052890D01*
X0200395Y0052774D01*
X0200493Y0052656D01*
X0200587Y0052535D01*
X0200678Y0052412D01*
X0200766Y0052286D01*
X0200850Y0052158D01*
X0200932Y0052028D01*
X0201009Y0051896D01*
X0201084Y0051762D01*
X0201155Y0051626D01*
X0201222Y0051488D01*
X0201286Y0051348D01*
X0201346Y0051207D01*
X0201402Y0051065D01*
X0201455Y0050921D01*
X0201504Y0050775D01*
X0201549Y0050629D01*
X0201590Y0050481D01*
X0201627Y0050333D01*
X0201661Y0050183D01*
X0201691Y0050032D01*
X0201716Y0049881D01*
X0201738Y0049730D01*
X0201756Y0049577D01*
X0201770Y0049425D01*
X0201780Y0049272D01*
X0201786Y0049118D01*
X0201788Y0048965D01*
X0201786Y0048812D01*
X0201780Y0048658D01*
X0201770Y0048505D01*
X0201756Y0048353D01*
X0201738Y0048200D01*
X0201716Y0048049D01*
X0201691Y0047898D01*
X0201661Y0047747D01*
X0201627Y0047597D01*
X0201590Y0047449D01*
X0201549Y0047301D01*
X0201504Y0047155D01*
X0201455Y0047009D01*
X0201402Y0046865D01*
X0201346Y0046723D01*
X0201286Y0046582D01*
X0201222Y0046442D01*
X0201155Y0046304D01*
X0201084Y0046168D01*
X0201009Y0046034D01*
X0200932Y0045902D01*
X0200850Y0045772D01*
X0200766Y0045644D01*
X0200678Y0045518D01*
X0200587Y0045395D01*
X0200493Y0045274D01*
X0200395Y0045156D01*
X0200295Y0045040D01*
X0200191Y0044927D01*
X0200085Y0044816D01*
X0199976Y0044708D01*
X0199864Y0044603D01*
X0199750Y0044502D01*
X0199632Y0044403D01*
X0199513Y0044307D01*
X0199391Y0044214D01*
X0199266Y0044125D01*
X0199139Y0044038D01*
X0199010Y0043956D01*
X0198879Y0043876D01*
X0198746Y0043800D01*
X0198611Y0043727D01*
X0198474Y0043658D01*
X0198335Y0043593D01*
X0198195Y0043531D01*
X0198053Y0043473D01*
X0197910Y0043418D01*
X0197765Y0043367D01*
X0197619Y0043320D01*
X0197472Y0043277D01*
X0197324Y0043238D01*
X0197175Y0043202D01*
X0197025Y0043171D01*
X0196874Y0043143D01*
X0196723Y0043119D01*
X0196570Y0043099D01*
X0196418Y0043083D01*
X0196265Y0043071D01*
X0196112Y0043063D01*
X0195959Y0043059D01*
X0195805Y0043059D01*
X0195652Y0043063D01*
X0195499Y0043071D01*
X0195346Y0043083D01*
X0195194Y0043099D01*
X0195041Y0043119D01*
X0194890Y0043143D01*
X0194739Y0043171D01*
X0194589Y0043202D01*
X0194440Y0043238D01*
X0194292Y0043277D01*
X0194145Y0043320D01*
X0193999Y0043367D01*
X0193854Y0043418D01*
X0193711Y0043473D01*
X0193569Y0043531D01*
X0193429Y0043593D01*
X0193290Y0043658D01*
X0193153Y0043727D01*
X0193018Y0043800D01*
X0192885Y0043876D01*
X0192754Y0043956D01*
X0192625Y0044038D01*
X0192498Y0044125D01*
X0192373Y0044214D01*
X0192251Y0044307D01*
X0192132Y0044403D01*
X0192014Y0044502D01*
X0191900Y0044603D01*
X0191788Y0044708D01*
X0191679Y0044816D01*
X0191573Y0044927D01*
X0191469Y0045040D01*
X0191369Y0045156D01*
X0191271Y0045274D01*
X0191177Y0045395D01*
X0191086Y0045518D01*
X0190998Y0045644D01*
X0190914Y0045772D01*
X0190832Y0045902D01*
X0190755Y0046034D01*
X0190680Y0046168D01*
X0190609Y0046304D01*
X0190542Y0046442D01*
X0190478Y0046582D01*
X0190418Y0046723D01*
X0190362Y0046865D01*
X0190309Y0047009D01*
X0190260Y0047155D01*
X0190215Y0047301D01*
X0190174Y0047449D01*
X0190137Y0047597D01*
X0190103Y0047747D01*
X0190073Y0047898D01*
X0190048Y0048049D01*
X0190026Y0048200D01*
X0190008Y0048353D01*
X0189994Y0048505D01*
X0189984Y0048658D01*
X0189978Y0048812D01*
X0189976Y0048965D01*
D12*
X0195882Y0048965D03*
X0042339Y0048965D03*
D13*
X0046276Y0015500D03*
X0056276Y0015500D03*
X0066276Y0015500D03*
X0079740Y0015500D03*
X0089740Y0015500D03*
X0099740Y0015500D03*
X0113205Y0015500D03*
X0123205Y0015500D03*
X0133205Y0015500D03*
X0146669Y0015500D03*
X0156669Y0015500D03*
X0166669Y0015500D03*
X0180134Y0015500D03*
X0190134Y0015500D03*
X0200134Y0015500D03*
X0195803Y0082429D03*
X0185803Y0082429D03*
X0205803Y0082429D03*
X0032811Y0015500D03*
X0022811Y0015500D03*
X0012811Y0015500D03*
D14*
X0107722Y0047783D03*
X0107722Y0050933D03*
X0107722Y0054083D03*
X0107722Y0057232D03*
X0107722Y0060382D03*
X0107722Y0063531D03*
X0107722Y0066681D03*
X0107722Y0069831D03*
X0141522Y0069831D03*
X0141522Y0066681D03*
X0141522Y0063531D03*
X0141522Y0060382D03*
X0141522Y0057232D03*
X0141522Y0054083D03*
X0141522Y0050933D03*
X0141522Y0047783D03*
D15*
X0135646Y0041907D03*
X0132496Y0041907D03*
X0129346Y0041907D03*
X0126197Y0041907D03*
X0123047Y0041907D03*
X0119898Y0041907D03*
X0116748Y0041907D03*
X0113598Y0041907D03*
X0113598Y0075707D03*
X0116748Y0075707D03*
X0119898Y0075707D03*
X0123047Y0075707D03*
X0126197Y0075707D03*
X0129346Y0075707D03*
X0132496Y0075707D03*
X0135646Y0075707D03*
D16*
X0119387Y0118335D02*
X0114187Y0118335D01*
X0114187Y0128335D02*
X0119387Y0128335D01*
X0119387Y0138335D02*
X0114187Y0138335D01*
X0114187Y0148335D02*
X0119387Y0148335D01*
X0119387Y0158335D02*
X0114187Y0158335D01*
X0089387Y0158335D02*
X0084187Y0158335D01*
X0084187Y0148335D02*
X0089387Y0148335D01*
X0089387Y0138335D02*
X0084187Y0138335D01*
X0084187Y0128335D02*
X0089387Y0128335D01*
X0089387Y0118335D02*
X0084187Y0118335D01*
D17*
X0163598Y0038531D03*
X0163598Y0031051D03*
X0173835Y0031051D03*
X0173835Y0034791D03*
X0173835Y0038531D03*
D18*
X0176000Y0024949D03*
X0182693Y0024949D03*
D19*
X0172457Y0046996D03*
X0165764Y0046996D03*
X0153756Y0038138D03*
X0153756Y0031445D03*
D20*
X0175803Y0082429D03*
D21*
X0154071Y0046681D03*
X0118717Y0048571D03*
X0116748Y0054083D03*
X0099425Y0071799D03*
X0107693Y0076524D03*
M02*
