%
M48
M72
T01C0.02362
T02C0.03200
T03C0.04000
T04C0.11811
%
T01
X99425Y71799
X107693Y76524
X116748Y54083
X118717Y48571
X154071Y46681
T02
X116787Y118335
X116787Y128335
X116787Y138335
X116787Y148335
X116787Y158335
X86787Y158335
X86787Y148335
X86787Y138335
X86787Y128335
X86787Y118335
T03
X12811Y15500
X22811Y15500
X32811Y15500
X46276Y15500
X56276Y15500
X66276Y15500
X79740Y15500
X89740Y15500
X99740Y15500
X113205Y15500
X123205Y15500
X133205Y15500
X146669Y15500
X156669Y15500
X166669Y15500
X180134Y15500
X190134Y15500
X200134Y15500
X195803Y82429
X185803Y82429
X175803Y82429
X205803Y82429
T04
X195882Y48965
X42339Y48965
M30
