G75*
%MOIN*%
%OFA0B0*%
%FSLAX25Y25*%
%IPPOS*%
%LPD*%
%AMOC8*
5,1,8,0,0,1.08239X$1,22.5*
%
%ADD10C,0.03937*%
%ADD11C,0.00600*%
%ADD12C,0.00800*%
%ADD13C,0.00000*%
%ADD14C,0.00500*%
%ADD15C,0.00300*%
%ADD16C,0.00100*%
%ADD17C,0.01000*%
%ADD18C,0.00400*%
D10*
X0002969Y0005657D02*
X0215567Y0005657D01*
X0215567Y0092272D01*
X0002969Y0092272D01*
X0002969Y0005657D01*
D11*
X0028839Y0048965D02*
X0028843Y0049296D01*
X0028855Y0049627D01*
X0028876Y0049958D01*
X0028904Y0050288D01*
X0028941Y0050618D01*
X0028985Y0050946D01*
X0029038Y0051273D01*
X0029098Y0051599D01*
X0029167Y0051923D01*
X0029244Y0052245D01*
X0029328Y0052566D01*
X0029420Y0052884D01*
X0029520Y0053200D01*
X0029628Y0053513D01*
X0029744Y0053824D01*
X0029867Y0054131D01*
X0029997Y0054436D01*
X0030135Y0054737D01*
X0030280Y0055035D01*
X0030433Y0055329D01*
X0030593Y0055619D01*
X0030760Y0055905D01*
X0030933Y0056187D01*
X0031114Y0056465D01*
X0031302Y0056738D01*
X0031496Y0057007D01*
X0031696Y0057271D01*
X0031903Y0057529D01*
X0032117Y0057783D01*
X0032336Y0058031D01*
X0032562Y0058274D01*
X0032793Y0058511D01*
X0033030Y0058742D01*
X0033273Y0058968D01*
X0033521Y0059187D01*
X0033775Y0059401D01*
X0034033Y0059608D01*
X0034297Y0059808D01*
X0034566Y0060002D01*
X0034839Y0060190D01*
X0035117Y0060371D01*
X0035399Y0060544D01*
X0035685Y0060711D01*
X0035975Y0060871D01*
X0036269Y0061024D01*
X0036567Y0061169D01*
X0036868Y0061307D01*
X0037173Y0061437D01*
X0037480Y0061560D01*
X0037791Y0061676D01*
X0038104Y0061784D01*
X0038420Y0061884D01*
X0038738Y0061976D01*
X0039059Y0062060D01*
X0039381Y0062137D01*
X0039705Y0062206D01*
X0040031Y0062266D01*
X0040358Y0062319D01*
X0040686Y0062363D01*
X0041016Y0062400D01*
X0041346Y0062428D01*
X0041677Y0062449D01*
X0042008Y0062461D01*
X0042339Y0062465D01*
X0042670Y0062461D01*
X0043001Y0062449D01*
X0043332Y0062428D01*
X0043662Y0062400D01*
X0043992Y0062363D01*
X0044320Y0062319D01*
X0044647Y0062266D01*
X0044973Y0062206D01*
X0045297Y0062137D01*
X0045619Y0062060D01*
X0045940Y0061976D01*
X0046258Y0061884D01*
X0046574Y0061784D01*
X0046887Y0061676D01*
X0047198Y0061560D01*
X0047505Y0061437D01*
X0047810Y0061307D01*
X0048111Y0061169D01*
X0048409Y0061024D01*
X0048703Y0060871D01*
X0048993Y0060711D01*
X0049279Y0060544D01*
X0049561Y0060371D01*
X0049839Y0060190D01*
X0050112Y0060002D01*
X0050381Y0059808D01*
X0050645Y0059608D01*
X0050903Y0059401D01*
X0051157Y0059187D01*
X0051405Y0058968D01*
X0051648Y0058742D01*
X0051885Y0058511D01*
X0052116Y0058274D01*
X0052342Y0058031D01*
X0052561Y0057783D01*
X0052775Y0057529D01*
X0052982Y0057271D01*
X0053182Y0057007D01*
X0053376Y0056738D01*
X0053564Y0056465D01*
X0053745Y0056187D01*
X0053918Y0055905D01*
X0054085Y0055619D01*
X0054245Y0055329D01*
X0054398Y0055035D01*
X0054543Y0054737D01*
X0054681Y0054436D01*
X0054811Y0054131D01*
X0054934Y0053824D01*
X0055050Y0053513D01*
X0055158Y0053200D01*
X0055258Y0052884D01*
X0055350Y0052566D01*
X0055434Y0052245D01*
X0055511Y0051923D01*
X0055580Y0051599D01*
X0055640Y0051273D01*
X0055693Y0050946D01*
X0055737Y0050618D01*
X0055774Y0050288D01*
X0055802Y0049958D01*
X0055823Y0049627D01*
X0055835Y0049296D01*
X0055839Y0048965D01*
X0055835Y0048634D01*
X0055823Y0048303D01*
X0055802Y0047972D01*
X0055774Y0047642D01*
X0055737Y0047312D01*
X0055693Y0046984D01*
X0055640Y0046657D01*
X0055580Y0046331D01*
X0055511Y0046007D01*
X0055434Y0045685D01*
X0055350Y0045364D01*
X0055258Y0045046D01*
X0055158Y0044730D01*
X0055050Y0044417D01*
X0054934Y0044106D01*
X0054811Y0043799D01*
X0054681Y0043494D01*
X0054543Y0043193D01*
X0054398Y0042895D01*
X0054245Y0042601D01*
X0054085Y0042311D01*
X0053918Y0042025D01*
X0053745Y0041743D01*
X0053564Y0041465D01*
X0053376Y0041192D01*
X0053182Y0040923D01*
X0052982Y0040659D01*
X0052775Y0040401D01*
X0052561Y0040147D01*
X0052342Y0039899D01*
X0052116Y0039656D01*
X0051885Y0039419D01*
X0051648Y0039188D01*
X0051405Y0038962D01*
X0051157Y0038743D01*
X0050903Y0038529D01*
X0050645Y0038322D01*
X0050381Y0038122D01*
X0050112Y0037928D01*
X0049839Y0037740D01*
X0049561Y0037559D01*
X0049279Y0037386D01*
X0048993Y0037219D01*
X0048703Y0037059D01*
X0048409Y0036906D01*
X0048111Y0036761D01*
X0047810Y0036623D01*
X0047505Y0036493D01*
X0047198Y0036370D01*
X0046887Y0036254D01*
X0046574Y0036146D01*
X0046258Y0036046D01*
X0045940Y0035954D01*
X0045619Y0035870D01*
X0045297Y0035793D01*
X0044973Y0035724D01*
X0044647Y0035664D01*
X0044320Y0035611D01*
X0043992Y0035567D01*
X0043662Y0035530D01*
X0043332Y0035502D01*
X0043001Y0035481D01*
X0042670Y0035469D01*
X0042339Y0035465D01*
X0042008Y0035469D01*
X0041677Y0035481D01*
X0041346Y0035502D01*
X0041016Y0035530D01*
X0040686Y0035567D01*
X0040358Y0035611D01*
X0040031Y0035664D01*
X0039705Y0035724D01*
X0039381Y0035793D01*
X0039059Y0035870D01*
X0038738Y0035954D01*
X0038420Y0036046D01*
X0038104Y0036146D01*
X0037791Y0036254D01*
X0037480Y0036370D01*
X0037173Y0036493D01*
X0036868Y0036623D01*
X0036567Y0036761D01*
X0036269Y0036906D01*
X0035975Y0037059D01*
X0035685Y0037219D01*
X0035399Y0037386D01*
X0035117Y0037559D01*
X0034839Y0037740D01*
X0034566Y0037928D01*
X0034297Y0038122D01*
X0034033Y0038322D01*
X0033775Y0038529D01*
X0033521Y0038743D01*
X0033273Y0038962D01*
X0033030Y0039188D01*
X0032793Y0039419D01*
X0032562Y0039656D01*
X0032336Y0039899D01*
X0032117Y0040147D01*
X0031903Y0040401D01*
X0031696Y0040659D01*
X0031496Y0040923D01*
X0031302Y0041192D01*
X0031114Y0041465D01*
X0030933Y0041743D01*
X0030760Y0042025D01*
X0030593Y0042311D01*
X0030433Y0042601D01*
X0030280Y0042895D01*
X0030135Y0043193D01*
X0029997Y0043494D01*
X0029867Y0043799D01*
X0029744Y0044106D01*
X0029628Y0044417D01*
X0029520Y0044730D01*
X0029420Y0045046D01*
X0029328Y0045364D01*
X0029244Y0045685D01*
X0029167Y0046007D01*
X0029098Y0046331D01*
X0029038Y0046657D01*
X0028985Y0046984D01*
X0028941Y0047312D01*
X0028904Y0047642D01*
X0028876Y0047972D01*
X0028855Y0048303D01*
X0028843Y0048634D01*
X0028839Y0048965D01*
X0110823Y0045008D02*
X0137024Y0045008D01*
X0138421Y0046406D01*
X0138421Y0072606D01*
X0110823Y0072606D01*
X0110823Y0045008D01*
X0134008Y0048007D02*
X0134010Y0048082D01*
X0134016Y0048156D01*
X0134026Y0048230D01*
X0134039Y0048303D01*
X0134057Y0048376D01*
X0134078Y0048447D01*
X0134103Y0048518D01*
X0134132Y0048587D01*
X0134165Y0048654D01*
X0134201Y0048719D01*
X0134240Y0048783D01*
X0134282Y0048844D01*
X0134328Y0048903D01*
X0134377Y0048960D01*
X0134429Y0049013D01*
X0134483Y0049064D01*
X0134540Y0049113D01*
X0134600Y0049157D01*
X0134662Y0049199D01*
X0134726Y0049238D01*
X0134792Y0049273D01*
X0134859Y0049304D01*
X0134929Y0049332D01*
X0134999Y0049356D01*
X0135071Y0049377D01*
X0135144Y0049393D01*
X0135217Y0049406D01*
X0135292Y0049415D01*
X0135366Y0049420D01*
X0135441Y0049421D01*
X0135515Y0049418D01*
X0135590Y0049411D01*
X0135663Y0049400D01*
X0135737Y0049386D01*
X0135809Y0049367D01*
X0135880Y0049345D01*
X0135950Y0049319D01*
X0136019Y0049289D01*
X0136085Y0049256D01*
X0136150Y0049219D01*
X0136213Y0049179D01*
X0136274Y0049135D01*
X0136332Y0049089D01*
X0136388Y0049039D01*
X0136441Y0048987D01*
X0136492Y0048932D01*
X0136539Y0048874D01*
X0136583Y0048814D01*
X0136624Y0048751D01*
X0136662Y0048687D01*
X0136696Y0048621D01*
X0136727Y0048552D01*
X0136754Y0048483D01*
X0136777Y0048412D01*
X0136796Y0048340D01*
X0136812Y0048267D01*
X0136824Y0048193D01*
X0136832Y0048119D01*
X0136836Y0048044D01*
X0136836Y0047970D01*
X0136832Y0047895D01*
X0136824Y0047821D01*
X0136812Y0047747D01*
X0136796Y0047674D01*
X0136777Y0047602D01*
X0136754Y0047531D01*
X0136727Y0047462D01*
X0136696Y0047393D01*
X0136662Y0047327D01*
X0136624Y0047263D01*
X0136583Y0047200D01*
X0136539Y0047140D01*
X0136492Y0047082D01*
X0136441Y0047027D01*
X0136388Y0046975D01*
X0136332Y0046925D01*
X0136274Y0046879D01*
X0136213Y0046835D01*
X0136150Y0046795D01*
X0136085Y0046758D01*
X0136019Y0046725D01*
X0135950Y0046695D01*
X0135880Y0046669D01*
X0135809Y0046647D01*
X0135737Y0046628D01*
X0135663Y0046614D01*
X0135590Y0046603D01*
X0135515Y0046596D01*
X0135441Y0046593D01*
X0135366Y0046594D01*
X0135292Y0046599D01*
X0135217Y0046608D01*
X0135144Y0046621D01*
X0135071Y0046637D01*
X0134999Y0046658D01*
X0134929Y0046682D01*
X0134859Y0046710D01*
X0134792Y0046741D01*
X0134726Y0046776D01*
X0134662Y0046815D01*
X0134600Y0046857D01*
X0134540Y0046901D01*
X0134483Y0046950D01*
X0134429Y0047001D01*
X0134377Y0047054D01*
X0134328Y0047111D01*
X0134282Y0047170D01*
X0134240Y0047231D01*
X0134201Y0047295D01*
X0134165Y0047360D01*
X0134132Y0047427D01*
X0134103Y0047496D01*
X0134078Y0047567D01*
X0134057Y0047638D01*
X0134039Y0047711D01*
X0134026Y0047784D01*
X0134016Y0047858D01*
X0134010Y0047932D01*
X0134008Y0048007D01*
X0182382Y0048965D02*
X0182386Y0049296D01*
X0182398Y0049627D01*
X0182419Y0049958D01*
X0182447Y0050288D01*
X0182484Y0050618D01*
X0182528Y0050946D01*
X0182581Y0051273D01*
X0182641Y0051599D01*
X0182710Y0051923D01*
X0182787Y0052245D01*
X0182871Y0052566D01*
X0182963Y0052884D01*
X0183063Y0053200D01*
X0183171Y0053513D01*
X0183287Y0053824D01*
X0183410Y0054131D01*
X0183540Y0054436D01*
X0183678Y0054737D01*
X0183823Y0055035D01*
X0183976Y0055329D01*
X0184136Y0055619D01*
X0184303Y0055905D01*
X0184476Y0056187D01*
X0184657Y0056465D01*
X0184845Y0056738D01*
X0185039Y0057007D01*
X0185239Y0057271D01*
X0185446Y0057529D01*
X0185660Y0057783D01*
X0185879Y0058031D01*
X0186105Y0058274D01*
X0186336Y0058511D01*
X0186573Y0058742D01*
X0186816Y0058968D01*
X0187064Y0059187D01*
X0187318Y0059401D01*
X0187576Y0059608D01*
X0187840Y0059808D01*
X0188109Y0060002D01*
X0188382Y0060190D01*
X0188660Y0060371D01*
X0188942Y0060544D01*
X0189228Y0060711D01*
X0189518Y0060871D01*
X0189812Y0061024D01*
X0190110Y0061169D01*
X0190411Y0061307D01*
X0190716Y0061437D01*
X0191023Y0061560D01*
X0191334Y0061676D01*
X0191647Y0061784D01*
X0191963Y0061884D01*
X0192281Y0061976D01*
X0192602Y0062060D01*
X0192924Y0062137D01*
X0193248Y0062206D01*
X0193574Y0062266D01*
X0193901Y0062319D01*
X0194229Y0062363D01*
X0194559Y0062400D01*
X0194889Y0062428D01*
X0195220Y0062449D01*
X0195551Y0062461D01*
X0195882Y0062465D01*
X0196213Y0062461D01*
X0196544Y0062449D01*
X0196875Y0062428D01*
X0197205Y0062400D01*
X0197535Y0062363D01*
X0197863Y0062319D01*
X0198190Y0062266D01*
X0198516Y0062206D01*
X0198840Y0062137D01*
X0199162Y0062060D01*
X0199483Y0061976D01*
X0199801Y0061884D01*
X0200117Y0061784D01*
X0200430Y0061676D01*
X0200741Y0061560D01*
X0201048Y0061437D01*
X0201353Y0061307D01*
X0201654Y0061169D01*
X0201952Y0061024D01*
X0202246Y0060871D01*
X0202536Y0060711D01*
X0202822Y0060544D01*
X0203104Y0060371D01*
X0203382Y0060190D01*
X0203655Y0060002D01*
X0203924Y0059808D01*
X0204188Y0059608D01*
X0204446Y0059401D01*
X0204700Y0059187D01*
X0204948Y0058968D01*
X0205191Y0058742D01*
X0205428Y0058511D01*
X0205659Y0058274D01*
X0205885Y0058031D01*
X0206104Y0057783D01*
X0206318Y0057529D01*
X0206525Y0057271D01*
X0206725Y0057007D01*
X0206919Y0056738D01*
X0207107Y0056465D01*
X0207288Y0056187D01*
X0207461Y0055905D01*
X0207628Y0055619D01*
X0207788Y0055329D01*
X0207941Y0055035D01*
X0208086Y0054737D01*
X0208224Y0054436D01*
X0208354Y0054131D01*
X0208477Y0053824D01*
X0208593Y0053513D01*
X0208701Y0053200D01*
X0208801Y0052884D01*
X0208893Y0052566D01*
X0208977Y0052245D01*
X0209054Y0051923D01*
X0209123Y0051599D01*
X0209183Y0051273D01*
X0209236Y0050946D01*
X0209280Y0050618D01*
X0209317Y0050288D01*
X0209345Y0049958D01*
X0209366Y0049627D01*
X0209378Y0049296D01*
X0209382Y0048965D01*
X0209378Y0048634D01*
X0209366Y0048303D01*
X0209345Y0047972D01*
X0209317Y0047642D01*
X0209280Y0047312D01*
X0209236Y0046984D01*
X0209183Y0046657D01*
X0209123Y0046331D01*
X0209054Y0046007D01*
X0208977Y0045685D01*
X0208893Y0045364D01*
X0208801Y0045046D01*
X0208701Y0044730D01*
X0208593Y0044417D01*
X0208477Y0044106D01*
X0208354Y0043799D01*
X0208224Y0043494D01*
X0208086Y0043193D01*
X0207941Y0042895D01*
X0207788Y0042601D01*
X0207628Y0042311D01*
X0207461Y0042025D01*
X0207288Y0041743D01*
X0207107Y0041465D01*
X0206919Y0041192D01*
X0206725Y0040923D01*
X0206525Y0040659D01*
X0206318Y0040401D01*
X0206104Y0040147D01*
X0205885Y0039899D01*
X0205659Y0039656D01*
X0205428Y0039419D01*
X0205191Y0039188D01*
X0204948Y0038962D01*
X0204700Y0038743D01*
X0204446Y0038529D01*
X0204188Y0038322D01*
X0203924Y0038122D01*
X0203655Y0037928D01*
X0203382Y0037740D01*
X0203104Y0037559D01*
X0202822Y0037386D01*
X0202536Y0037219D01*
X0202246Y0037059D01*
X0201952Y0036906D01*
X0201654Y0036761D01*
X0201353Y0036623D01*
X0201048Y0036493D01*
X0200741Y0036370D01*
X0200430Y0036254D01*
X0200117Y0036146D01*
X0199801Y0036046D01*
X0199483Y0035954D01*
X0199162Y0035870D01*
X0198840Y0035793D01*
X0198516Y0035724D01*
X0198190Y0035664D01*
X0197863Y0035611D01*
X0197535Y0035567D01*
X0197205Y0035530D01*
X0196875Y0035502D01*
X0196544Y0035481D01*
X0196213Y0035469D01*
X0195882Y0035465D01*
X0195551Y0035469D01*
X0195220Y0035481D01*
X0194889Y0035502D01*
X0194559Y0035530D01*
X0194229Y0035567D01*
X0193901Y0035611D01*
X0193574Y0035664D01*
X0193248Y0035724D01*
X0192924Y0035793D01*
X0192602Y0035870D01*
X0192281Y0035954D01*
X0191963Y0036046D01*
X0191647Y0036146D01*
X0191334Y0036254D01*
X0191023Y0036370D01*
X0190716Y0036493D01*
X0190411Y0036623D01*
X0190110Y0036761D01*
X0189812Y0036906D01*
X0189518Y0037059D01*
X0189228Y0037219D01*
X0188942Y0037386D01*
X0188660Y0037559D01*
X0188382Y0037740D01*
X0188109Y0037928D01*
X0187840Y0038122D01*
X0187576Y0038322D01*
X0187318Y0038529D01*
X0187064Y0038743D01*
X0186816Y0038962D01*
X0186573Y0039188D01*
X0186336Y0039419D01*
X0186105Y0039656D01*
X0185879Y0039899D01*
X0185660Y0040147D01*
X0185446Y0040401D01*
X0185239Y0040659D01*
X0185039Y0040923D01*
X0184845Y0041192D01*
X0184657Y0041465D01*
X0184476Y0041743D01*
X0184303Y0042025D01*
X0184136Y0042311D01*
X0183976Y0042601D01*
X0183823Y0042895D01*
X0183678Y0043193D01*
X0183540Y0043494D01*
X0183410Y0043799D01*
X0183287Y0044106D01*
X0183171Y0044417D01*
X0183063Y0044730D01*
X0182963Y0045046D01*
X0182871Y0045364D01*
X0182787Y0045685D01*
X0182710Y0046007D01*
X0182641Y0046331D01*
X0182581Y0046657D01*
X0182528Y0046984D01*
X0182484Y0047312D01*
X0182447Y0047642D01*
X0182419Y0047972D01*
X0182398Y0048303D01*
X0182386Y0048634D01*
X0182382Y0048965D01*
X0113287Y0113335D02*
X0090287Y0113335D01*
X0090287Y0163335D01*
X0097787Y0163335D01*
X0097789Y0163209D01*
X0097795Y0163084D01*
X0097805Y0162959D01*
X0097819Y0162834D01*
X0097836Y0162709D01*
X0097858Y0162585D01*
X0097883Y0162462D01*
X0097913Y0162340D01*
X0097946Y0162219D01*
X0097983Y0162099D01*
X0098023Y0161980D01*
X0098068Y0161863D01*
X0098116Y0161746D01*
X0098168Y0161632D01*
X0098223Y0161519D01*
X0098282Y0161408D01*
X0098344Y0161299D01*
X0098410Y0161192D01*
X0098479Y0161087D01*
X0098551Y0160984D01*
X0098626Y0160883D01*
X0098705Y0160785D01*
X0098787Y0160690D01*
X0098871Y0160597D01*
X0098959Y0160507D01*
X0099049Y0160419D01*
X0099142Y0160335D01*
X0099237Y0160253D01*
X0099335Y0160174D01*
X0099436Y0160099D01*
X0099539Y0160027D01*
X0099644Y0159958D01*
X0099751Y0159892D01*
X0099860Y0159830D01*
X0099971Y0159771D01*
X0100084Y0159716D01*
X0100198Y0159664D01*
X0100315Y0159616D01*
X0100432Y0159571D01*
X0100551Y0159531D01*
X0100671Y0159494D01*
X0100792Y0159461D01*
X0100914Y0159431D01*
X0101037Y0159406D01*
X0101161Y0159384D01*
X0101286Y0159367D01*
X0101411Y0159353D01*
X0101536Y0159343D01*
X0101661Y0159337D01*
X0101787Y0159335D01*
X0101913Y0159337D01*
X0102038Y0159343D01*
X0102163Y0159353D01*
X0102288Y0159367D01*
X0102413Y0159384D01*
X0102537Y0159406D01*
X0102660Y0159431D01*
X0102782Y0159461D01*
X0102903Y0159494D01*
X0103023Y0159531D01*
X0103142Y0159571D01*
X0103259Y0159616D01*
X0103376Y0159664D01*
X0103490Y0159716D01*
X0103603Y0159771D01*
X0103714Y0159830D01*
X0103823Y0159892D01*
X0103930Y0159958D01*
X0104035Y0160027D01*
X0104138Y0160099D01*
X0104239Y0160174D01*
X0104337Y0160253D01*
X0104432Y0160335D01*
X0104525Y0160419D01*
X0104615Y0160507D01*
X0104703Y0160597D01*
X0104787Y0160690D01*
X0104869Y0160785D01*
X0104948Y0160883D01*
X0105023Y0160984D01*
X0105095Y0161087D01*
X0105164Y0161192D01*
X0105230Y0161299D01*
X0105292Y0161408D01*
X0105351Y0161519D01*
X0105406Y0161632D01*
X0105458Y0161746D01*
X0105506Y0161863D01*
X0105551Y0161980D01*
X0105591Y0162099D01*
X0105628Y0162219D01*
X0105661Y0162340D01*
X0105691Y0162462D01*
X0105716Y0162585D01*
X0105738Y0162709D01*
X0105755Y0162834D01*
X0105769Y0162959D01*
X0105779Y0163084D01*
X0105785Y0163209D01*
X0105787Y0163335D01*
X0113287Y0163335D01*
X0113287Y0113335D01*
D12*
X0170803Y0084929D02*
X0170803Y0079929D01*
X0173303Y0077429D01*
X0178303Y0077429D01*
X0180803Y0079929D01*
X0183303Y0077429D01*
X0188303Y0077429D01*
X0190803Y0079929D01*
X0193303Y0077429D01*
X0198303Y0077429D01*
X0200803Y0079929D01*
X0203303Y0077429D01*
X0208303Y0077429D01*
X0210803Y0079929D01*
X0210803Y0084929D01*
X0208303Y0087429D01*
X0203303Y0087429D01*
X0200803Y0084929D01*
X0198303Y0087429D01*
X0193303Y0087429D01*
X0190803Y0084929D01*
X0188303Y0087429D01*
X0183303Y0087429D01*
X0180803Y0084929D01*
X0178303Y0087429D01*
X0173303Y0087429D01*
X0170803Y0084929D01*
X0189583Y0048965D02*
X0189585Y0049123D01*
X0189591Y0049281D01*
X0189601Y0049439D01*
X0189615Y0049597D01*
X0189633Y0049754D01*
X0189654Y0049911D01*
X0189680Y0050067D01*
X0189710Y0050223D01*
X0189743Y0050378D01*
X0189781Y0050531D01*
X0189822Y0050684D01*
X0189867Y0050836D01*
X0189916Y0050987D01*
X0189969Y0051136D01*
X0190025Y0051284D01*
X0190085Y0051430D01*
X0190149Y0051575D01*
X0190217Y0051718D01*
X0190288Y0051860D01*
X0190362Y0052000D01*
X0190440Y0052137D01*
X0190522Y0052273D01*
X0190606Y0052407D01*
X0190695Y0052538D01*
X0190786Y0052667D01*
X0190881Y0052794D01*
X0190978Y0052919D01*
X0191079Y0053041D01*
X0191183Y0053160D01*
X0191290Y0053277D01*
X0191400Y0053391D01*
X0191513Y0053502D01*
X0191628Y0053611D01*
X0191746Y0053716D01*
X0191867Y0053818D01*
X0191990Y0053918D01*
X0192116Y0054014D01*
X0192244Y0054107D01*
X0192374Y0054197D01*
X0192507Y0054283D01*
X0192642Y0054367D01*
X0192778Y0054446D01*
X0192917Y0054523D01*
X0193058Y0054595D01*
X0193200Y0054665D01*
X0193344Y0054730D01*
X0193490Y0054792D01*
X0193637Y0054850D01*
X0193786Y0054905D01*
X0193936Y0054956D01*
X0194087Y0055003D01*
X0194239Y0055046D01*
X0194392Y0055085D01*
X0194547Y0055121D01*
X0194702Y0055152D01*
X0194858Y0055180D01*
X0195014Y0055204D01*
X0195171Y0055224D01*
X0195329Y0055240D01*
X0195486Y0055252D01*
X0195645Y0055260D01*
X0195803Y0055264D01*
X0195961Y0055264D01*
X0196119Y0055260D01*
X0196278Y0055252D01*
X0196435Y0055240D01*
X0196593Y0055224D01*
X0196750Y0055204D01*
X0196906Y0055180D01*
X0197062Y0055152D01*
X0197217Y0055121D01*
X0197372Y0055085D01*
X0197525Y0055046D01*
X0197677Y0055003D01*
X0197828Y0054956D01*
X0197978Y0054905D01*
X0198127Y0054850D01*
X0198274Y0054792D01*
X0198420Y0054730D01*
X0198564Y0054665D01*
X0198706Y0054595D01*
X0198847Y0054523D01*
X0198986Y0054446D01*
X0199122Y0054367D01*
X0199257Y0054283D01*
X0199390Y0054197D01*
X0199520Y0054107D01*
X0199648Y0054014D01*
X0199774Y0053918D01*
X0199897Y0053818D01*
X0200018Y0053716D01*
X0200136Y0053611D01*
X0200251Y0053502D01*
X0200364Y0053391D01*
X0200474Y0053277D01*
X0200581Y0053160D01*
X0200685Y0053041D01*
X0200786Y0052919D01*
X0200883Y0052794D01*
X0200978Y0052667D01*
X0201069Y0052538D01*
X0201158Y0052407D01*
X0201242Y0052273D01*
X0201324Y0052137D01*
X0201402Y0052000D01*
X0201476Y0051860D01*
X0201547Y0051718D01*
X0201615Y0051575D01*
X0201679Y0051430D01*
X0201739Y0051284D01*
X0201795Y0051136D01*
X0201848Y0050987D01*
X0201897Y0050836D01*
X0201942Y0050684D01*
X0201983Y0050531D01*
X0202021Y0050378D01*
X0202054Y0050223D01*
X0202084Y0050067D01*
X0202110Y0049911D01*
X0202131Y0049754D01*
X0202149Y0049597D01*
X0202163Y0049439D01*
X0202173Y0049281D01*
X0202179Y0049123D01*
X0202181Y0048965D01*
X0202179Y0048807D01*
X0202173Y0048649D01*
X0202163Y0048491D01*
X0202149Y0048333D01*
X0202131Y0048176D01*
X0202110Y0048019D01*
X0202084Y0047863D01*
X0202054Y0047707D01*
X0202021Y0047552D01*
X0201983Y0047399D01*
X0201942Y0047246D01*
X0201897Y0047094D01*
X0201848Y0046943D01*
X0201795Y0046794D01*
X0201739Y0046646D01*
X0201679Y0046500D01*
X0201615Y0046355D01*
X0201547Y0046212D01*
X0201476Y0046070D01*
X0201402Y0045930D01*
X0201324Y0045793D01*
X0201242Y0045657D01*
X0201158Y0045523D01*
X0201069Y0045392D01*
X0200978Y0045263D01*
X0200883Y0045136D01*
X0200786Y0045011D01*
X0200685Y0044889D01*
X0200581Y0044770D01*
X0200474Y0044653D01*
X0200364Y0044539D01*
X0200251Y0044428D01*
X0200136Y0044319D01*
X0200018Y0044214D01*
X0199897Y0044112D01*
X0199774Y0044012D01*
X0199648Y0043916D01*
X0199520Y0043823D01*
X0199390Y0043733D01*
X0199257Y0043647D01*
X0199122Y0043563D01*
X0198986Y0043484D01*
X0198847Y0043407D01*
X0198706Y0043335D01*
X0198564Y0043265D01*
X0198420Y0043200D01*
X0198274Y0043138D01*
X0198127Y0043080D01*
X0197978Y0043025D01*
X0197828Y0042974D01*
X0197677Y0042927D01*
X0197525Y0042884D01*
X0197372Y0042845D01*
X0197217Y0042809D01*
X0197062Y0042778D01*
X0196906Y0042750D01*
X0196750Y0042726D01*
X0196593Y0042706D01*
X0196435Y0042690D01*
X0196278Y0042678D01*
X0196119Y0042670D01*
X0195961Y0042666D01*
X0195803Y0042666D01*
X0195645Y0042670D01*
X0195486Y0042678D01*
X0195329Y0042690D01*
X0195171Y0042706D01*
X0195014Y0042726D01*
X0194858Y0042750D01*
X0194702Y0042778D01*
X0194547Y0042809D01*
X0194392Y0042845D01*
X0194239Y0042884D01*
X0194087Y0042927D01*
X0193936Y0042974D01*
X0193786Y0043025D01*
X0193637Y0043080D01*
X0193490Y0043138D01*
X0193344Y0043200D01*
X0193200Y0043265D01*
X0193058Y0043335D01*
X0192917Y0043407D01*
X0192778Y0043484D01*
X0192642Y0043563D01*
X0192507Y0043647D01*
X0192374Y0043733D01*
X0192244Y0043823D01*
X0192116Y0043916D01*
X0191990Y0044012D01*
X0191867Y0044112D01*
X0191746Y0044214D01*
X0191628Y0044319D01*
X0191513Y0044428D01*
X0191400Y0044539D01*
X0191290Y0044653D01*
X0191183Y0044770D01*
X0191079Y0044889D01*
X0190978Y0045011D01*
X0190881Y0045136D01*
X0190786Y0045263D01*
X0190695Y0045392D01*
X0190606Y0045523D01*
X0190522Y0045657D01*
X0190440Y0045793D01*
X0190362Y0045930D01*
X0190288Y0046070D01*
X0190217Y0046212D01*
X0190149Y0046355D01*
X0190085Y0046500D01*
X0190025Y0046646D01*
X0189969Y0046794D01*
X0189916Y0046943D01*
X0189867Y0047094D01*
X0189822Y0047246D01*
X0189781Y0047399D01*
X0189743Y0047552D01*
X0189710Y0047707D01*
X0189680Y0047863D01*
X0189654Y0048019D01*
X0189633Y0048176D01*
X0189615Y0048333D01*
X0189601Y0048491D01*
X0189591Y0048649D01*
X0189585Y0048807D01*
X0189583Y0048965D01*
X0170407Y0039791D02*
X0167026Y0039791D01*
X0165926Y0035848D02*
X0165926Y0033735D01*
X0167026Y0029791D02*
X0170407Y0029791D01*
X0169169Y0020500D02*
X0164169Y0020500D01*
X0161669Y0018000D01*
X0159169Y0020500D01*
X0154169Y0020500D01*
X0151669Y0018000D01*
X0149169Y0020500D01*
X0144169Y0020500D01*
X0141669Y0018000D01*
X0141669Y0013000D01*
X0144169Y0010500D01*
X0149169Y0010500D01*
X0151669Y0013000D01*
X0154169Y0010500D01*
X0159169Y0010500D01*
X0161669Y0013000D01*
X0164169Y0010500D01*
X0169169Y0010500D01*
X0171669Y0013000D01*
X0171669Y0018000D01*
X0169169Y0020500D01*
X0175134Y0018000D02*
X0177634Y0020500D01*
X0182634Y0020500D01*
X0185134Y0018000D01*
X0187634Y0020500D01*
X0192634Y0020500D01*
X0195134Y0018000D01*
X0197634Y0020500D01*
X0202634Y0020500D01*
X0205134Y0018000D01*
X0205134Y0013000D01*
X0202634Y0010500D01*
X0197634Y0010500D01*
X0195134Y0013000D01*
X0192634Y0010500D01*
X0187634Y0010500D01*
X0185134Y0013000D01*
X0182634Y0010500D01*
X0177634Y0010500D01*
X0175134Y0013000D01*
X0175134Y0018000D01*
X0138205Y0018000D02*
X0138205Y0013000D01*
X0135705Y0010500D01*
X0130705Y0010500D01*
X0128205Y0013000D01*
X0125705Y0010500D01*
X0120705Y0010500D01*
X0118205Y0013000D01*
X0115705Y0010500D01*
X0110705Y0010500D01*
X0108205Y0013000D01*
X0108205Y0018000D01*
X0110705Y0020500D01*
X0115705Y0020500D01*
X0118205Y0018000D01*
X0120705Y0020500D01*
X0125705Y0020500D01*
X0128205Y0018000D01*
X0130705Y0020500D01*
X0135705Y0020500D01*
X0138205Y0018000D01*
X0104740Y0018000D02*
X0104740Y0013000D01*
X0102240Y0010500D01*
X0097240Y0010500D01*
X0094740Y0013000D01*
X0092240Y0010500D01*
X0087240Y0010500D01*
X0084740Y0013000D01*
X0082240Y0010500D01*
X0077240Y0010500D01*
X0074740Y0013000D01*
X0074740Y0018000D01*
X0077240Y0020500D01*
X0082240Y0020500D01*
X0084740Y0018000D01*
X0087240Y0020500D01*
X0092240Y0020500D01*
X0094740Y0018000D01*
X0097240Y0020500D01*
X0102240Y0020500D01*
X0104740Y0018000D01*
X0071276Y0018000D02*
X0071276Y0013000D01*
X0068776Y0010500D01*
X0063776Y0010500D01*
X0061276Y0013000D01*
X0058776Y0010500D01*
X0053776Y0010500D01*
X0051276Y0013000D01*
X0048776Y0010500D01*
X0043776Y0010500D01*
X0041276Y0013000D01*
X0041276Y0018000D01*
X0043776Y0020500D01*
X0048776Y0020500D01*
X0051276Y0018000D01*
X0053776Y0020500D01*
X0058776Y0020500D01*
X0061276Y0018000D01*
X0063776Y0020500D01*
X0068776Y0020500D01*
X0071276Y0018000D01*
X0037811Y0018000D02*
X0037811Y0013000D01*
X0035311Y0010500D01*
X0030311Y0010500D01*
X0027811Y0013000D01*
X0025311Y0010500D01*
X0020311Y0010500D01*
X0017811Y0013000D01*
X0015311Y0010500D01*
X0010311Y0010500D01*
X0007811Y0013000D01*
X0007811Y0018000D01*
X0010311Y0020500D01*
X0015311Y0020500D01*
X0017811Y0018000D01*
X0020311Y0020500D01*
X0025311Y0020500D01*
X0027811Y0018000D01*
X0030311Y0020500D01*
X0035311Y0020500D01*
X0037811Y0018000D01*
X0036040Y0048965D02*
X0036042Y0049123D01*
X0036048Y0049281D01*
X0036058Y0049439D01*
X0036072Y0049597D01*
X0036090Y0049754D01*
X0036111Y0049911D01*
X0036137Y0050067D01*
X0036167Y0050223D01*
X0036200Y0050378D01*
X0036238Y0050531D01*
X0036279Y0050684D01*
X0036324Y0050836D01*
X0036373Y0050987D01*
X0036426Y0051136D01*
X0036482Y0051284D01*
X0036542Y0051430D01*
X0036606Y0051575D01*
X0036674Y0051718D01*
X0036745Y0051860D01*
X0036819Y0052000D01*
X0036897Y0052137D01*
X0036979Y0052273D01*
X0037063Y0052407D01*
X0037152Y0052538D01*
X0037243Y0052667D01*
X0037338Y0052794D01*
X0037435Y0052919D01*
X0037536Y0053041D01*
X0037640Y0053160D01*
X0037747Y0053277D01*
X0037857Y0053391D01*
X0037970Y0053502D01*
X0038085Y0053611D01*
X0038203Y0053716D01*
X0038324Y0053818D01*
X0038447Y0053918D01*
X0038573Y0054014D01*
X0038701Y0054107D01*
X0038831Y0054197D01*
X0038964Y0054283D01*
X0039099Y0054367D01*
X0039235Y0054446D01*
X0039374Y0054523D01*
X0039515Y0054595D01*
X0039657Y0054665D01*
X0039801Y0054730D01*
X0039947Y0054792D01*
X0040094Y0054850D01*
X0040243Y0054905D01*
X0040393Y0054956D01*
X0040544Y0055003D01*
X0040696Y0055046D01*
X0040849Y0055085D01*
X0041004Y0055121D01*
X0041159Y0055152D01*
X0041315Y0055180D01*
X0041471Y0055204D01*
X0041628Y0055224D01*
X0041786Y0055240D01*
X0041943Y0055252D01*
X0042102Y0055260D01*
X0042260Y0055264D01*
X0042418Y0055264D01*
X0042576Y0055260D01*
X0042735Y0055252D01*
X0042892Y0055240D01*
X0043050Y0055224D01*
X0043207Y0055204D01*
X0043363Y0055180D01*
X0043519Y0055152D01*
X0043674Y0055121D01*
X0043829Y0055085D01*
X0043982Y0055046D01*
X0044134Y0055003D01*
X0044285Y0054956D01*
X0044435Y0054905D01*
X0044584Y0054850D01*
X0044731Y0054792D01*
X0044877Y0054730D01*
X0045021Y0054665D01*
X0045163Y0054595D01*
X0045304Y0054523D01*
X0045443Y0054446D01*
X0045579Y0054367D01*
X0045714Y0054283D01*
X0045847Y0054197D01*
X0045977Y0054107D01*
X0046105Y0054014D01*
X0046231Y0053918D01*
X0046354Y0053818D01*
X0046475Y0053716D01*
X0046593Y0053611D01*
X0046708Y0053502D01*
X0046821Y0053391D01*
X0046931Y0053277D01*
X0047038Y0053160D01*
X0047142Y0053041D01*
X0047243Y0052919D01*
X0047340Y0052794D01*
X0047435Y0052667D01*
X0047526Y0052538D01*
X0047615Y0052407D01*
X0047699Y0052273D01*
X0047781Y0052137D01*
X0047859Y0052000D01*
X0047933Y0051860D01*
X0048004Y0051718D01*
X0048072Y0051575D01*
X0048136Y0051430D01*
X0048196Y0051284D01*
X0048252Y0051136D01*
X0048305Y0050987D01*
X0048354Y0050836D01*
X0048399Y0050684D01*
X0048440Y0050531D01*
X0048478Y0050378D01*
X0048511Y0050223D01*
X0048541Y0050067D01*
X0048567Y0049911D01*
X0048588Y0049754D01*
X0048606Y0049597D01*
X0048620Y0049439D01*
X0048630Y0049281D01*
X0048636Y0049123D01*
X0048638Y0048965D01*
X0048636Y0048807D01*
X0048630Y0048649D01*
X0048620Y0048491D01*
X0048606Y0048333D01*
X0048588Y0048176D01*
X0048567Y0048019D01*
X0048541Y0047863D01*
X0048511Y0047707D01*
X0048478Y0047552D01*
X0048440Y0047399D01*
X0048399Y0047246D01*
X0048354Y0047094D01*
X0048305Y0046943D01*
X0048252Y0046794D01*
X0048196Y0046646D01*
X0048136Y0046500D01*
X0048072Y0046355D01*
X0048004Y0046212D01*
X0047933Y0046070D01*
X0047859Y0045930D01*
X0047781Y0045793D01*
X0047699Y0045657D01*
X0047615Y0045523D01*
X0047526Y0045392D01*
X0047435Y0045263D01*
X0047340Y0045136D01*
X0047243Y0045011D01*
X0047142Y0044889D01*
X0047038Y0044770D01*
X0046931Y0044653D01*
X0046821Y0044539D01*
X0046708Y0044428D01*
X0046593Y0044319D01*
X0046475Y0044214D01*
X0046354Y0044112D01*
X0046231Y0044012D01*
X0046105Y0043916D01*
X0045977Y0043823D01*
X0045847Y0043733D01*
X0045714Y0043647D01*
X0045579Y0043563D01*
X0045443Y0043484D01*
X0045304Y0043407D01*
X0045163Y0043335D01*
X0045021Y0043265D01*
X0044877Y0043200D01*
X0044731Y0043138D01*
X0044584Y0043080D01*
X0044435Y0043025D01*
X0044285Y0042974D01*
X0044134Y0042927D01*
X0043982Y0042884D01*
X0043829Y0042845D01*
X0043674Y0042809D01*
X0043519Y0042778D01*
X0043363Y0042750D01*
X0043207Y0042726D01*
X0043050Y0042706D01*
X0042892Y0042690D01*
X0042735Y0042678D01*
X0042576Y0042670D01*
X0042418Y0042666D01*
X0042260Y0042666D01*
X0042102Y0042670D01*
X0041943Y0042678D01*
X0041786Y0042690D01*
X0041628Y0042706D01*
X0041471Y0042726D01*
X0041315Y0042750D01*
X0041159Y0042778D01*
X0041004Y0042809D01*
X0040849Y0042845D01*
X0040696Y0042884D01*
X0040544Y0042927D01*
X0040393Y0042974D01*
X0040243Y0043025D01*
X0040094Y0043080D01*
X0039947Y0043138D01*
X0039801Y0043200D01*
X0039657Y0043265D01*
X0039515Y0043335D01*
X0039374Y0043407D01*
X0039235Y0043484D01*
X0039099Y0043563D01*
X0038964Y0043647D01*
X0038831Y0043733D01*
X0038701Y0043823D01*
X0038573Y0043916D01*
X0038447Y0044012D01*
X0038324Y0044112D01*
X0038203Y0044214D01*
X0038085Y0044319D01*
X0037970Y0044428D01*
X0037857Y0044539D01*
X0037747Y0044653D01*
X0037640Y0044770D01*
X0037536Y0044889D01*
X0037435Y0045011D01*
X0037338Y0045136D01*
X0037243Y0045263D01*
X0037152Y0045392D01*
X0037063Y0045523D01*
X0036979Y0045657D01*
X0036897Y0045793D01*
X0036819Y0045930D01*
X0036745Y0046070D01*
X0036674Y0046212D01*
X0036606Y0046355D01*
X0036542Y0046500D01*
X0036482Y0046646D01*
X0036426Y0046794D01*
X0036373Y0046943D01*
X0036324Y0047094D01*
X0036279Y0047246D01*
X0036238Y0047399D01*
X0036200Y0047552D01*
X0036167Y0047707D01*
X0036137Y0047863D01*
X0036111Y0048019D01*
X0036090Y0048176D01*
X0036072Y0048333D01*
X0036058Y0048491D01*
X0036048Y0048649D01*
X0036042Y0048807D01*
X0036040Y0048965D01*
D13*
X0036433Y0048965D02*
X0036435Y0049118D01*
X0036441Y0049272D01*
X0036451Y0049425D01*
X0036465Y0049577D01*
X0036483Y0049730D01*
X0036505Y0049881D01*
X0036530Y0050032D01*
X0036560Y0050183D01*
X0036594Y0050333D01*
X0036631Y0050481D01*
X0036672Y0050629D01*
X0036717Y0050775D01*
X0036766Y0050921D01*
X0036819Y0051065D01*
X0036875Y0051207D01*
X0036935Y0051348D01*
X0036999Y0051488D01*
X0037066Y0051626D01*
X0037137Y0051762D01*
X0037212Y0051896D01*
X0037289Y0052028D01*
X0037371Y0052158D01*
X0037455Y0052286D01*
X0037543Y0052412D01*
X0037634Y0052535D01*
X0037728Y0052656D01*
X0037826Y0052774D01*
X0037926Y0052890D01*
X0038030Y0053003D01*
X0038136Y0053114D01*
X0038245Y0053222D01*
X0038357Y0053327D01*
X0038471Y0053428D01*
X0038589Y0053527D01*
X0038708Y0053623D01*
X0038830Y0053716D01*
X0038955Y0053805D01*
X0039082Y0053892D01*
X0039211Y0053974D01*
X0039342Y0054054D01*
X0039475Y0054130D01*
X0039610Y0054203D01*
X0039747Y0054272D01*
X0039886Y0054337D01*
X0040026Y0054399D01*
X0040168Y0054457D01*
X0040311Y0054512D01*
X0040456Y0054563D01*
X0040602Y0054610D01*
X0040749Y0054653D01*
X0040897Y0054692D01*
X0041046Y0054728D01*
X0041196Y0054759D01*
X0041347Y0054787D01*
X0041498Y0054811D01*
X0041651Y0054831D01*
X0041803Y0054847D01*
X0041956Y0054859D01*
X0042109Y0054867D01*
X0042262Y0054871D01*
X0042416Y0054871D01*
X0042569Y0054867D01*
X0042722Y0054859D01*
X0042875Y0054847D01*
X0043027Y0054831D01*
X0043180Y0054811D01*
X0043331Y0054787D01*
X0043482Y0054759D01*
X0043632Y0054728D01*
X0043781Y0054692D01*
X0043929Y0054653D01*
X0044076Y0054610D01*
X0044222Y0054563D01*
X0044367Y0054512D01*
X0044510Y0054457D01*
X0044652Y0054399D01*
X0044792Y0054337D01*
X0044931Y0054272D01*
X0045068Y0054203D01*
X0045203Y0054130D01*
X0045336Y0054054D01*
X0045467Y0053974D01*
X0045596Y0053892D01*
X0045723Y0053805D01*
X0045848Y0053716D01*
X0045970Y0053623D01*
X0046089Y0053527D01*
X0046207Y0053428D01*
X0046321Y0053327D01*
X0046433Y0053222D01*
X0046542Y0053114D01*
X0046648Y0053003D01*
X0046752Y0052890D01*
X0046852Y0052774D01*
X0046950Y0052656D01*
X0047044Y0052535D01*
X0047135Y0052412D01*
X0047223Y0052286D01*
X0047307Y0052158D01*
X0047389Y0052028D01*
X0047466Y0051896D01*
X0047541Y0051762D01*
X0047612Y0051626D01*
X0047679Y0051488D01*
X0047743Y0051348D01*
X0047803Y0051207D01*
X0047859Y0051065D01*
X0047912Y0050921D01*
X0047961Y0050775D01*
X0048006Y0050629D01*
X0048047Y0050481D01*
X0048084Y0050333D01*
X0048118Y0050183D01*
X0048148Y0050032D01*
X0048173Y0049881D01*
X0048195Y0049730D01*
X0048213Y0049577D01*
X0048227Y0049425D01*
X0048237Y0049272D01*
X0048243Y0049118D01*
X0048245Y0048965D01*
X0048243Y0048812D01*
X0048237Y0048658D01*
X0048227Y0048505D01*
X0048213Y0048353D01*
X0048195Y0048200D01*
X0048173Y0048049D01*
X0048148Y0047898D01*
X0048118Y0047747D01*
X0048084Y0047597D01*
X0048047Y0047449D01*
X0048006Y0047301D01*
X0047961Y0047155D01*
X0047912Y0047009D01*
X0047859Y0046865D01*
X0047803Y0046723D01*
X0047743Y0046582D01*
X0047679Y0046442D01*
X0047612Y0046304D01*
X0047541Y0046168D01*
X0047466Y0046034D01*
X0047389Y0045902D01*
X0047307Y0045772D01*
X0047223Y0045644D01*
X0047135Y0045518D01*
X0047044Y0045395D01*
X0046950Y0045274D01*
X0046852Y0045156D01*
X0046752Y0045040D01*
X0046648Y0044927D01*
X0046542Y0044816D01*
X0046433Y0044708D01*
X0046321Y0044603D01*
X0046207Y0044502D01*
X0046089Y0044403D01*
X0045970Y0044307D01*
X0045848Y0044214D01*
X0045723Y0044125D01*
X0045596Y0044038D01*
X0045467Y0043956D01*
X0045336Y0043876D01*
X0045203Y0043800D01*
X0045068Y0043727D01*
X0044931Y0043658D01*
X0044792Y0043593D01*
X0044652Y0043531D01*
X0044510Y0043473D01*
X0044367Y0043418D01*
X0044222Y0043367D01*
X0044076Y0043320D01*
X0043929Y0043277D01*
X0043781Y0043238D01*
X0043632Y0043202D01*
X0043482Y0043171D01*
X0043331Y0043143D01*
X0043180Y0043119D01*
X0043027Y0043099D01*
X0042875Y0043083D01*
X0042722Y0043071D01*
X0042569Y0043063D01*
X0042416Y0043059D01*
X0042262Y0043059D01*
X0042109Y0043063D01*
X0041956Y0043071D01*
X0041803Y0043083D01*
X0041651Y0043099D01*
X0041498Y0043119D01*
X0041347Y0043143D01*
X0041196Y0043171D01*
X0041046Y0043202D01*
X0040897Y0043238D01*
X0040749Y0043277D01*
X0040602Y0043320D01*
X0040456Y0043367D01*
X0040311Y0043418D01*
X0040168Y0043473D01*
X0040026Y0043531D01*
X0039886Y0043593D01*
X0039747Y0043658D01*
X0039610Y0043727D01*
X0039475Y0043800D01*
X0039342Y0043876D01*
X0039211Y0043956D01*
X0039082Y0044038D01*
X0038955Y0044125D01*
X0038830Y0044214D01*
X0038708Y0044307D01*
X0038589Y0044403D01*
X0038471Y0044502D01*
X0038357Y0044603D01*
X0038245Y0044708D01*
X0038136Y0044816D01*
X0038030Y0044927D01*
X0037926Y0045040D01*
X0037826Y0045156D01*
X0037728Y0045274D01*
X0037634Y0045395D01*
X0037543Y0045518D01*
X0037455Y0045644D01*
X0037371Y0045772D01*
X0037289Y0045902D01*
X0037212Y0046034D01*
X0037137Y0046168D01*
X0037066Y0046304D01*
X0036999Y0046442D01*
X0036935Y0046582D01*
X0036875Y0046723D01*
X0036819Y0046865D01*
X0036766Y0047009D01*
X0036717Y0047155D01*
X0036672Y0047301D01*
X0036631Y0047449D01*
X0036594Y0047597D01*
X0036560Y0047747D01*
X0036530Y0047898D01*
X0036505Y0048049D01*
X0036483Y0048200D01*
X0036465Y0048353D01*
X0036451Y0048505D01*
X0036441Y0048658D01*
X0036435Y0048812D01*
X0036433Y0048965D01*
X0189976Y0048965D02*
X0189978Y0049118D01*
X0189984Y0049272D01*
X0189994Y0049425D01*
X0190008Y0049577D01*
X0190026Y0049730D01*
X0190048Y0049881D01*
X0190073Y0050032D01*
X0190103Y0050183D01*
X0190137Y0050333D01*
X0190174Y0050481D01*
X0190215Y0050629D01*
X0190260Y0050775D01*
X0190309Y0050921D01*
X0190362Y0051065D01*
X0190418Y0051207D01*
X0190478Y0051348D01*
X0190542Y0051488D01*
X0190609Y0051626D01*
X0190680Y0051762D01*
X0190755Y0051896D01*
X0190832Y0052028D01*
X0190914Y0052158D01*
X0190998Y0052286D01*
X0191086Y0052412D01*
X0191177Y0052535D01*
X0191271Y0052656D01*
X0191369Y0052774D01*
X0191469Y0052890D01*
X0191573Y0053003D01*
X0191679Y0053114D01*
X0191788Y0053222D01*
X0191900Y0053327D01*
X0192014Y0053428D01*
X0192132Y0053527D01*
X0192251Y0053623D01*
X0192373Y0053716D01*
X0192498Y0053805D01*
X0192625Y0053892D01*
X0192754Y0053974D01*
X0192885Y0054054D01*
X0193018Y0054130D01*
X0193153Y0054203D01*
X0193290Y0054272D01*
X0193429Y0054337D01*
X0193569Y0054399D01*
X0193711Y0054457D01*
X0193854Y0054512D01*
X0193999Y0054563D01*
X0194145Y0054610D01*
X0194292Y0054653D01*
X0194440Y0054692D01*
X0194589Y0054728D01*
X0194739Y0054759D01*
X0194890Y0054787D01*
X0195041Y0054811D01*
X0195194Y0054831D01*
X0195346Y0054847D01*
X0195499Y0054859D01*
X0195652Y0054867D01*
X0195805Y0054871D01*
X0195959Y0054871D01*
X0196112Y0054867D01*
X0196265Y0054859D01*
X0196418Y0054847D01*
X0196570Y0054831D01*
X0196723Y0054811D01*
X0196874Y0054787D01*
X0197025Y0054759D01*
X0197175Y0054728D01*
X0197324Y0054692D01*
X0197472Y0054653D01*
X0197619Y0054610D01*
X0197765Y0054563D01*
X0197910Y0054512D01*
X0198053Y0054457D01*
X0198195Y0054399D01*
X0198335Y0054337D01*
X0198474Y0054272D01*
X0198611Y0054203D01*
X0198746Y0054130D01*
X0198879Y0054054D01*
X0199010Y0053974D01*
X0199139Y0053892D01*
X0199266Y0053805D01*
X0199391Y0053716D01*
X0199513Y0053623D01*
X0199632Y0053527D01*
X0199750Y0053428D01*
X0199864Y0053327D01*
X0199976Y0053222D01*
X0200085Y0053114D01*
X0200191Y0053003D01*
X0200295Y0052890D01*
X0200395Y0052774D01*
X0200493Y0052656D01*
X0200587Y0052535D01*
X0200678Y0052412D01*
X0200766Y0052286D01*
X0200850Y0052158D01*
X0200932Y0052028D01*
X0201009Y0051896D01*
X0201084Y0051762D01*
X0201155Y0051626D01*
X0201222Y0051488D01*
X0201286Y0051348D01*
X0201346Y0051207D01*
X0201402Y0051065D01*
X0201455Y0050921D01*
X0201504Y0050775D01*
X0201549Y0050629D01*
X0201590Y0050481D01*
X0201627Y0050333D01*
X0201661Y0050183D01*
X0201691Y0050032D01*
X0201716Y0049881D01*
X0201738Y0049730D01*
X0201756Y0049577D01*
X0201770Y0049425D01*
X0201780Y0049272D01*
X0201786Y0049118D01*
X0201788Y0048965D01*
X0201786Y0048812D01*
X0201780Y0048658D01*
X0201770Y0048505D01*
X0201756Y0048353D01*
X0201738Y0048200D01*
X0201716Y0048049D01*
X0201691Y0047898D01*
X0201661Y0047747D01*
X0201627Y0047597D01*
X0201590Y0047449D01*
X0201549Y0047301D01*
X0201504Y0047155D01*
X0201455Y0047009D01*
X0201402Y0046865D01*
X0201346Y0046723D01*
X0201286Y0046582D01*
X0201222Y0046442D01*
X0201155Y0046304D01*
X0201084Y0046168D01*
X0201009Y0046034D01*
X0200932Y0045902D01*
X0200850Y0045772D01*
X0200766Y0045644D01*
X0200678Y0045518D01*
X0200587Y0045395D01*
X0200493Y0045274D01*
X0200395Y0045156D01*
X0200295Y0045040D01*
X0200191Y0044927D01*
X0200085Y0044816D01*
X0199976Y0044708D01*
X0199864Y0044603D01*
X0199750Y0044502D01*
X0199632Y0044403D01*
X0199513Y0044307D01*
X0199391Y0044214D01*
X0199266Y0044125D01*
X0199139Y0044038D01*
X0199010Y0043956D01*
X0198879Y0043876D01*
X0198746Y0043800D01*
X0198611Y0043727D01*
X0198474Y0043658D01*
X0198335Y0043593D01*
X0198195Y0043531D01*
X0198053Y0043473D01*
X0197910Y0043418D01*
X0197765Y0043367D01*
X0197619Y0043320D01*
X0197472Y0043277D01*
X0197324Y0043238D01*
X0197175Y0043202D01*
X0197025Y0043171D01*
X0196874Y0043143D01*
X0196723Y0043119D01*
X0196570Y0043099D01*
X0196418Y0043083D01*
X0196265Y0043071D01*
X0196112Y0043063D01*
X0195959Y0043059D01*
X0195805Y0043059D01*
X0195652Y0043063D01*
X0195499Y0043071D01*
X0195346Y0043083D01*
X0195194Y0043099D01*
X0195041Y0043119D01*
X0194890Y0043143D01*
X0194739Y0043171D01*
X0194589Y0043202D01*
X0194440Y0043238D01*
X0194292Y0043277D01*
X0194145Y0043320D01*
X0193999Y0043367D01*
X0193854Y0043418D01*
X0193711Y0043473D01*
X0193569Y0043531D01*
X0193429Y0043593D01*
X0193290Y0043658D01*
X0193153Y0043727D01*
X0193018Y0043800D01*
X0192885Y0043876D01*
X0192754Y0043956D01*
X0192625Y0044038D01*
X0192498Y0044125D01*
X0192373Y0044214D01*
X0192251Y0044307D01*
X0192132Y0044403D01*
X0192014Y0044502D01*
X0191900Y0044603D01*
X0191788Y0044708D01*
X0191679Y0044816D01*
X0191573Y0044927D01*
X0191469Y0045040D01*
X0191369Y0045156D01*
X0191271Y0045274D01*
X0191177Y0045395D01*
X0191086Y0045518D01*
X0190998Y0045644D01*
X0190914Y0045772D01*
X0190832Y0045902D01*
X0190755Y0046034D01*
X0190680Y0046168D01*
X0190609Y0046304D01*
X0190542Y0046442D01*
X0190478Y0046582D01*
X0190418Y0046723D01*
X0190362Y0046865D01*
X0190309Y0047009D01*
X0190260Y0047155D01*
X0190215Y0047301D01*
X0190174Y0047449D01*
X0190137Y0047597D01*
X0190103Y0047747D01*
X0190073Y0047898D01*
X0190048Y0048049D01*
X0190026Y0048200D01*
X0190008Y0048353D01*
X0189994Y0048505D01*
X0189984Y0048658D01*
X0189978Y0048812D01*
X0189976Y0048965D01*
D14*
X0185793Y0027454D02*
X0184292Y0025953D01*
X0185793Y0027454D02*
X0185793Y0022950D01*
X0184292Y0022950D02*
X0187294Y0022950D01*
X0182690Y0022950D02*
X0182690Y0027454D01*
X0179688Y0027454D02*
X0179688Y0022950D01*
X0181189Y0024451D01*
X0182690Y0022950D01*
X0178086Y0025202D02*
X0178086Y0026703D01*
X0177336Y0027454D01*
X0175084Y0027454D01*
X0175084Y0022950D01*
X0175084Y0024451D02*
X0177336Y0024451D01*
X0178086Y0025202D01*
X0149226Y0025202D02*
X0149226Y0023701D01*
X0148475Y0022950D01*
X0146974Y0022950D01*
X0146223Y0023701D01*
X0146223Y0025202D02*
X0147724Y0025953D01*
X0148475Y0025953D01*
X0149226Y0025202D01*
X0149226Y0027454D02*
X0146223Y0027454D01*
X0146223Y0025202D01*
X0144622Y0027454D02*
X0143121Y0025953D01*
X0141619Y0027454D01*
X0141619Y0022950D01*
X0144622Y0022950D02*
X0144622Y0027454D01*
X0115761Y0025202D02*
X0112759Y0025202D01*
X0115011Y0027454D01*
X0115011Y0022950D01*
X0111157Y0022950D02*
X0111157Y0027454D01*
X0109656Y0025953D01*
X0108155Y0027454D01*
X0108155Y0022950D01*
X0082297Y0023701D02*
X0081546Y0022950D01*
X0080045Y0022950D01*
X0079294Y0023701D01*
X0077693Y0022950D02*
X0077693Y0027454D01*
X0076191Y0025953D01*
X0074690Y0027454D01*
X0074690Y0022950D01*
X0079294Y0026703D02*
X0080045Y0027454D01*
X0081546Y0027454D01*
X0082297Y0026703D01*
X0082297Y0025953D01*
X0081546Y0025202D01*
X0082297Y0024451D01*
X0082297Y0023701D01*
X0081546Y0025202D02*
X0080795Y0025202D01*
X0048832Y0025953D02*
X0048832Y0026703D01*
X0048081Y0027454D01*
X0046580Y0027454D01*
X0045830Y0026703D01*
X0044228Y0027454D02*
X0044228Y0022950D01*
X0045830Y0022950D02*
X0048832Y0025953D01*
X0048832Y0022950D02*
X0045830Y0022950D01*
X0042727Y0025953D02*
X0041226Y0027454D01*
X0041226Y0022950D01*
X0042727Y0025953D02*
X0044228Y0027454D01*
X0015368Y0022950D02*
X0012365Y0022950D01*
X0013866Y0022950D02*
X0013866Y0027454D01*
X0012365Y0025953D01*
X0010764Y0027454D02*
X0010764Y0022950D01*
X0007761Y0022950D02*
X0007761Y0027454D01*
X0009262Y0025953D01*
X0010764Y0027454D01*
X0170753Y0090630D02*
X0171504Y0089879D01*
X0173005Y0089879D01*
X0173756Y0090630D01*
X0175357Y0090630D02*
X0176108Y0089879D01*
X0177609Y0089879D01*
X0178360Y0090630D01*
X0178360Y0093632D01*
X0177609Y0094383D01*
X0176108Y0094383D01*
X0175357Y0093632D01*
X0175357Y0090630D01*
X0173756Y0093632D02*
X0173005Y0094383D01*
X0171504Y0094383D01*
X0170753Y0093632D01*
X0170753Y0090630D01*
X0179961Y0089879D02*
X0179961Y0094383D01*
X0182964Y0089879D01*
X0182964Y0094383D01*
X0184565Y0092882D02*
X0186066Y0094383D01*
X0186066Y0089879D01*
X0184565Y0089879D02*
X0187567Y0089879D01*
X0101213Y0165335D02*
X0100463Y0164585D01*
X0098961Y0164585D01*
X0098211Y0165335D01*
X0096609Y0165335D02*
X0095859Y0164585D01*
X0094357Y0164585D01*
X0093607Y0165335D01*
X0093607Y0168338D01*
X0094357Y0169088D01*
X0095859Y0169088D01*
X0096609Y0168338D01*
X0098211Y0168338D02*
X0098961Y0169088D01*
X0100463Y0169088D01*
X0101213Y0168338D01*
X0101213Y0167587D01*
X0100463Y0166837D01*
X0101213Y0166086D01*
X0101213Y0165335D01*
X0100463Y0166837D02*
X0099712Y0166837D01*
X0092039Y0169088D02*
X0090537Y0169088D01*
X0091288Y0169088D02*
X0091288Y0164585D01*
X0090537Y0164585D02*
X0092039Y0164585D01*
D15*
X0125846Y0068187D02*
X0126814Y0068187D01*
X0126330Y0068187D02*
X0126330Y0065285D01*
X0125846Y0065285D02*
X0126814Y0065285D01*
X0127811Y0065768D02*
X0128294Y0065285D01*
X0129262Y0065285D01*
X0129745Y0065768D01*
X0130757Y0065285D02*
X0132692Y0065285D01*
X0131725Y0065285D02*
X0131725Y0068187D01*
X0130757Y0067220D01*
X0129745Y0067703D02*
X0129262Y0068187D01*
X0128294Y0068187D01*
X0127811Y0067703D01*
X0127811Y0065768D01*
D16*
X0158665Y0033315D02*
X0160167Y0033315D01*
X0160167Y0032815D02*
X0160167Y0033815D01*
X0159166Y0032815D02*
X0158665Y0033315D01*
X0158665Y0032342D02*
X0159916Y0032342D01*
X0160167Y0032092D01*
X0160167Y0031592D01*
X0159916Y0031341D01*
X0158665Y0031341D01*
D17*
X0172717Y0028491D03*
D18*
X0173606Y0022253D02*
X0172839Y0021485D01*
X0172839Y0018416D01*
X0173606Y0017649D01*
X0175141Y0017649D01*
X0175908Y0018416D01*
X0177443Y0017649D02*
X0180512Y0017649D01*
X0178977Y0017649D02*
X0178977Y0022253D01*
X0177443Y0020718D01*
X0175908Y0021485D02*
X0175141Y0022253D01*
X0173606Y0022253D01*
X0151056Y0033259D02*
X0151056Y0034793D01*
X0150289Y0035561D01*
X0151056Y0037095D02*
X0147987Y0040165D01*
X0147219Y0040165D01*
X0146452Y0039397D01*
X0146452Y0037863D01*
X0147219Y0037095D01*
X0147219Y0035561D02*
X0146452Y0034793D01*
X0146452Y0033259D01*
X0147219Y0032491D01*
X0150289Y0032491D01*
X0151056Y0033259D01*
X0151056Y0037095D02*
X0151056Y0040165D01*
X0162602Y0039696D02*
X0162602Y0044300D01*
X0164904Y0044300D01*
X0165672Y0043533D01*
X0165672Y0041998D01*
X0164904Y0041231D01*
X0162602Y0041231D01*
X0164137Y0041231D02*
X0165672Y0039696D01*
X0167206Y0039696D02*
X0170276Y0039696D01*
X0168741Y0039696D02*
X0168741Y0044300D01*
X0167206Y0042765D01*
M02*
