G75*
%MOIN*%
%OFA0B0*%
%FSLAX25Y25*%
%IPPOS*%
%LPD*%
%AMOC8*
5,1,8,0,0,1.08239X$1,22.5*
%
%ADD10C,0.01600*%
%ADD11C,0.00000*%
%ADD12C,0.12211*%
%ADD13C,0.07800*%
%ADD14R,0.05400X0.02600*%
%ADD15R,0.02600X0.05400*%
%ADD16R,0.05124X0.02565*%
%ADD17R,0.04731X0.04337*%
%ADD18R,0.04337X0.04731*%
%ADD19R,0.07800X0.07800*%
%ADD20R,0.06306X0.06306*%
%ADD21R,0.03500X0.03900*%
%ADD22R,0.03900X0.03500*%
%ADD23R,0.05400X0.02900*%
D10*
X0017567Y0009299D02*
X0332528Y0009299D01*
X0332528Y0320323D01*
X0017567Y0320323D01*
X0017567Y0009299D01*
D11*
X0105755Y0075835D02*
X0105757Y0075988D01*
X0105763Y0076142D01*
X0105773Y0076295D01*
X0105787Y0076447D01*
X0105805Y0076600D01*
X0105827Y0076751D01*
X0105852Y0076902D01*
X0105882Y0077053D01*
X0105916Y0077203D01*
X0105953Y0077351D01*
X0105994Y0077499D01*
X0106039Y0077645D01*
X0106088Y0077791D01*
X0106141Y0077935D01*
X0106197Y0078077D01*
X0106257Y0078218D01*
X0106321Y0078358D01*
X0106388Y0078496D01*
X0106459Y0078632D01*
X0106534Y0078766D01*
X0106611Y0078898D01*
X0106693Y0079028D01*
X0106777Y0079156D01*
X0106865Y0079282D01*
X0106956Y0079405D01*
X0107050Y0079526D01*
X0107148Y0079644D01*
X0107248Y0079760D01*
X0107352Y0079873D01*
X0107458Y0079984D01*
X0107567Y0080092D01*
X0107679Y0080197D01*
X0107793Y0080298D01*
X0107911Y0080397D01*
X0108030Y0080493D01*
X0108152Y0080586D01*
X0108277Y0080675D01*
X0108404Y0080762D01*
X0108533Y0080844D01*
X0108664Y0080924D01*
X0108797Y0081000D01*
X0108932Y0081073D01*
X0109069Y0081142D01*
X0109208Y0081207D01*
X0109348Y0081269D01*
X0109490Y0081327D01*
X0109633Y0081382D01*
X0109778Y0081433D01*
X0109924Y0081480D01*
X0110071Y0081523D01*
X0110219Y0081562D01*
X0110368Y0081598D01*
X0110518Y0081629D01*
X0110669Y0081657D01*
X0110820Y0081681D01*
X0110973Y0081701D01*
X0111125Y0081717D01*
X0111278Y0081729D01*
X0111431Y0081737D01*
X0111584Y0081741D01*
X0111738Y0081741D01*
X0111891Y0081737D01*
X0112044Y0081729D01*
X0112197Y0081717D01*
X0112349Y0081701D01*
X0112502Y0081681D01*
X0112653Y0081657D01*
X0112804Y0081629D01*
X0112954Y0081598D01*
X0113103Y0081562D01*
X0113251Y0081523D01*
X0113398Y0081480D01*
X0113544Y0081433D01*
X0113689Y0081382D01*
X0113832Y0081327D01*
X0113974Y0081269D01*
X0114114Y0081207D01*
X0114253Y0081142D01*
X0114390Y0081073D01*
X0114525Y0081000D01*
X0114658Y0080924D01*
X0114789Y0080844D01*
X0114918Y0080762D01*
X0115045Y0080675D01*
X0115170Y0080586D01*
X0115292Y0080493D01*
X0115411Y0080397D01*
X0115529Y0080298D01*
X0115643Y0080197D01*
X0115755Y0080092D01*
X0115864Y0079984D01*
X0115970Y0079873D01*
X0116074Y0079760D01*
X0116174Y0079644D01*
X0116272Y0079526D01*
X0116366Y0079405D01*
X0116457Y0079282D01*
X0116545Y0079156D01*
X0116629Y0079028D01*
X0116711Y0078898D01*
X0116788Y0078766D01*
X0116863Y0078632D01*
X0116934Y0078496D01*
X0117001Y0078358D01*
X0117065Y0078218D01*
X0117125Y0078077D01*
X0117181Y0077935D01*
X0117234Y0077791D01*
X0117283Y0077645D01*
X0117328Y0077499D01*
X0117369Y0077351D01*
X0117406Y0077203D01*
X0117440Y0077053D01*
X0117470Y0076902D01*
X0117495Y0076751D01*
X0117517Y0076600D01*
X0117535Y0076447D01*
X0117549Y0076295D01*
X0117559Y0076142D01*
X0117565Y0075988D01*
X0117567Y0075835D01*
X0117565Y0075682D01*
X0117559Y0075528D01*
X0117549Y0075375D01*
X0117535Y0075223D01*
X0117517Y0075070D01*
X0117495Y0074919D01*
X0117470Y0074768D01*
X0117440Y0074617D01*
X0117406Y0074467D01*
X0117369Y0074319D01*
X0117328Y0074171D01*
X0117283Y0074025D01*
X0117234Y0073879D01*
X0117181Y0073735D01*
X0117125Y0073593D01*
X0117065Y0073452D01*
X0117001Y0073312D01*
X0116934Y0073174D01*
X0116863Y0073038D01*
X0116788Y0072904D01*
X0116711Y0072772D01*
X0116629Y0072642D01*
X0116545Y0072514D01*
X0116457Y0072388D01*
X0116366Y0072265D01*
X0116272Y0072144D01*
X0116174Y0072026D01*
X0116074Y0071910D01*
X0115970Y0071797D01*
X0115864Y0071686D01*
X0115755Y0071578D01*
X0115643Y0071473D01*
X0115529Y0071372D01*
X0115411Y0071273D01*
X0115292Y0071177D01*
X0115170Y0071084D01*
X0115045Y0070995D01*
X0114918Y0070908D01*
X0114789Y0070826D01*
X0114658Y0070746D01*
X0114525Y0070670D01*
X0114390Y0070597D01*
X0114253Y0070528D01*
X0114114Y0070463D01*
X0113974Y0070401D01*
X0113832Y0070343D01*
X0113689Y0070288D01*
X0113544Y0070237D01*
X0113398Y0070190D01*
X0113251Y0070147D01*
X0113103Y0070108D01*
X0112954Y0070072D01*
X0112804Y0070041D01*
X0112653Y0070013D01*
X0112502Y0069989D01*
X0112349Y0069969D01*
X0112197Y0069953D01*
X0112044Y0069941D01*
X0111891Y0069933D01*
X0111738Y0069929D01*
X0111584Y0069929D01*
X0111431Y0069933D01*
X0111278Y0069941D01*
X0111125Y0069953D01*
X0110973Y0069969D01*
X0110820Y0069989D01*
X0110669Y0070013D01*
X0110518Y0070041D01*
X0110368Y0070072D01*
X0110219Y0070108D01*
X0110071Y0070147D01*
X0109924Y0070190D01*
X0109778Y0070237D01*
X0109633Y0070288D01*
X0109490Y0070343D01*
X0109348Y0070401D01*
X0109208Y0070463D01*
X0109069Y0070528D01*
X0108932Y0070597D01*
X0108797Y0070670D01*
X0108664Y0070746D01*
X0108533Y0070826D01*
X0108404Y0070908D01*
X0108277Y0070995D01*
X0108152Y0071084D01*
X0108030Y0071177D01*
X0107911Y0071273D01*
X0107793Y0071372D01*
X0107679Y0071473D01*
X0107567Y0071578D01*
X0107458Y0071686D01*
X0107352Y0071797D01*
X0107248Y0071910D01*
X0107148Y0072026D01*
X0107050Y0072144D01*
X0106956Y0072265D01*
X0106865Y0072388D01*
X0106777Y0072514D01*
X0106693Y0072642D01*
X0106611Y0072772D01*
X0106534Y0072904D01*
X0106459Y0073038D01*
X0106388Y0073174D01*
X0106321Y0073312D01*
X0106257Y0073452D01*
X0106197Y0073593D01*
X0106141Y0073735D01*
X0106088Y0073879D01*
X0106039Y0074025D01*
X0105994Y0074171D01*
X0105953Y0074319D01*
X0105916Y0074467D01*
X0105882Y0074617D01*
X0105852Y0074768D01*
X0105827Y0074919D01*
X0105805Y0075070D01*
X0105787Y0075223D01*
X0105773Y0075375D01*
X0105763Y0075528D01*
X0105757Y0075682D01*
X0105755Y0075835D01*
X0105755Y0162449D02*
X0105757Y0162602D01*
X0105763Y0162756D01*
X0105773Y0162909D01*
X0105787Y0163061D01*
X0105805Y0163214D01*
X0105827Y0163365D01*
X0105852Y0163516D01*
X0105882Y0163667D01*
X0105916Y0163817D01*
X0105953Y0163965D01*
X0105994Y0164113D01*
X0106039Y0164259D01*
X0106088Y0164405D01*
X0106141Y0164549D01*
X0106197Y0164691D01*
X0106257Y0164832D01*
X0106321Y0164972D01*
X0106388Y0165110D01*
X0106459Y0165246D01*
X0106534Y0165380D01*
X0106611Y0165512D01*
X0106693Y0165642D01*
X0106777Y0165770D01*
X0106865Y0165896D01*
X0106956Y0166019D01*
X0107050Y0166140D01*
X0107148Y0166258D01*
X0107248Y0166374D01*
X0107352Y0166487D01*
X0107458Y0166598D01*
X0107567Y0166706D01*
X0107679Y0166811D01*
X0107793Y0166912D01*
X0107911Y0167011D01*
X0108030Y0167107D01*
X0108152Y0167200D01*
X0108277Y0167289D01*
X0108404Y0167376D01*
X0108533Y0167458D01*
X0108664Y0167538D01*
X0108797Y0167614D01*
X0108932Y0167687D01*
X0109069Y0167756D01*
X0109208Y0167821D01*
X0109348Y0167883D01*
X0109490Y0167941D01*
X0109633Y0167996D01*
X0109778Y0168047D01*
X0109924Y0168094D01*
X0110071Y0168137D01*
X0110219Y0168176D01*
X0110368Y0168212D01*
X0110518Y0168243D01*
X0110669Y0168271D01*
X0110820Y0168295D01*
X0110973Y0168315D01*
X0111125Y0168331D01*
X0111278Y0168343D01*
X0111431Y0168351D01*
X0111584Y0168355D01*
X0111738Y0168355D01*
X0111891Y0168351D01*
X0112044Y0168343D01*
X0112197Y0168331D01*
X0112349Y0168315D01*
X0112502Y0168295D01*
X0112653Y0168271D01*
X0112804Y0168243D01*
X0112954Y0168212D01*
X0113103Y0168176D01*
X0113251Y0168137D01*
X0113398Y0168094D01*
X0113544Y0168047D01*
X0113689Y0167996D01*
X0113832Y0167941D01*
X0113974Y0167883D01*
X0114114Y0167821D01*
X0114253Y0167756D01*
X0114390Y0167687D01*
X0114525Y0167614D01*
X0114658Y0167538D01*
X0114789Y0167458D01*
X0114918Y0167376D01*
X0115045Y0167289D01*
X0115170Y0167200D01*
X0115292Y0167107D01*
X0115411Y0167011D01*
X0115529Y0166912D01*
X0115643Y0166811D01*
X0115755Y0166706D01*
X0115864Y0166598D01*
X0115970Y0166487D01*
X0116074Y0166374D01*
X0116174Y0166258D01*
X0116272Y0166140D01*
X0116366Y0166019D01*
X0116457Y0165896D01*
X0116545Y0165770D01*
X0116629Y0165642D01*
X0116711Y0165512D01*
X0116788Y0165380D01*
X0116863Y0165246D01*
X0116934Y0165110D01*
X0117001Y0164972D01*
X0117065Y0164832D01*
X0117125Y0164691D01*
X0117181Y0164549D01*
X0117234Y0164405D01*
X0117283Y0164259D01*
X0117328Y0164113D01*
X0117369Y0163965D01*
X0117406Y0163817D01*
X0117440Y0163667D01*
X0117470Y0163516D01*
X0117495Y0163365D01*
X0117517Y0163214D01*
X0117535Y0163061D01*
X0117549Y0162909D01*
X0117559Y0162756D01*
X0117565Y0162602D01*
X0117567Y0162449D01*
X0117565Y0162296D01*
X0117559Y0162142D01*
X0117549Y0161989D01*
X0117535Y0161837D01*
X0117517Y0161684D01*
X0117495Y0161533D01*
X0117470Y0161382D01*
X0117440Y0161231D01*
X0117406Y0161081D01*
X0117369Y0160933D01*
X0117328Y0160785D01*
X0117283Y0160639D01*
X0117234Y0160493D01*
X0117181Y0160349D01*
X0117125Y0160207D01*
X0117065Y0160066D01*
X0117001Y0159926D01*
X0116934Y0159788D01*
X0116863Y0159652D01*
X0116788Y0159518D01*
X0116711Y0159386D01*
X0116629Y0159256D01*
X0116545Y0159128D01*
X0116457Y0159002D01*
X0116366Y0158879D01*
X0116272Y0158758D01*
X0116174Y0158640D01*
X0116074Y0158524D01*
X0115970Y0158411D01*
X0115864Y0158300D01*
X0115755Y0158192D01*
X0115643Y0158087D01*
X0115529Y0157986D01*
X0115411Y0157887D01*
X0115292Y0157791D01*
X0115170Y0157698D01*
X0115045Y0157609D01*
X0114918Y0157522D01*
X0114789Y0157440D01*
X0114658Y0157360D01*
X0114525Y0157284D01*
X0114390Y0157211D01*
X0114253Y0157142D01*
X0114114Y0157077D01*
X0113974Y0157015D01*
X0113832Y0156957D01*
X0113689Y0156902D01*
X0113544Y0156851D01*
X0113398Y0156804D01*
X0113251Y0156761D01*
X0113103Y0156722D01*
X0112954Y0156686D01*
X0112804Y0156655D01*
X0112653Y0156627D01*
X0112502Y0156603D01*
X0112349Y0156583D01*
X0112197Y0156567D01*
X0112044Y0156555D01*
X0111891Y0156547D01*
X0111738Y0156543D01*
X0111584Y0156543D01*
X0111431Y0156547D01*
X0111278Y0156555D01*
X0111125Y0156567D01*
X0110973Y0156583D01*
X0110820Y0156603D01*
X0110669Y0156627D01*
X0110518Y0156655D01*
X0110368Y0156686D01*
X0110219Y0156722D01*
X0110071Y0156761D01*
X0109924Y0156804D01*
X0109778Y0156851D01*
X0109633Y0156902D01*
X0109490Y0156957D01*
X0109348Y0157015D01*
X0109208Y0157077D01*
X0109069Y0157142D01*
X0108932Y0157211D01*
X0108797Y0157284D01*
X0108664Y0157360D01*
X0108533Y0157440D01*
X0108404Y0157522D01*
X0108277Y0157609D01*
X0108152Y0157698D01*
X0108030Y0157791D01*
X0107911Y0157887D01*
X0107793Y0157986D01*
X0107679Y0158087D01*
X0107567Y0158192D01*
X0107458Y0158300D01*
X0107352Y0158411D01*
X0107248Y0158524D01*
X0107148Y0158640D01*
X0107050Y0158758D01*
X0106956Y0158879D01*
X0106865Y0159002D01*
X0106777Y0159128D01*
X0106693Y0159256D01*
X0106611Y0159386D01*
X0106534Y0159518D01*
X0106459Y0159652D01*
X0106388Y0159788D01*
X0106321Y0159926D01*
X0106257Y0160066D01*
X0106197Y0160207D01*
X0106141Y0160349D01*
X0106088Y0160493D01*
X0106039Y0160639D01*
X0105994Y0160785D01*
X0105953Y0160933D01*
X0105916Y0161081D01*
X0105882Y0161231D01*
X0105852Y0161382D01*
X0105827Y0161533D01*
X0105805Y0161684D01*
X0105787Y0161837D01*
X0105773Y0161989D01*
X0105763Y0162142D01*
X0105757Y0162296D01*
X0105755Y0162449D01*
X0105755Y0249063D02*
X0105757Y0249216D01*
X0105763Y0249370D01*
X0105773Y0249523D01*
X0105787Y0249675D01*
X0105805Y0249828D01*
X0105827Y0249979D01*
X0105852Y0250130D01*
X0105882Y0250281D01*
X0105916Y0250431D01*
X0105953Y0250579D01*
X0105994Y0250727D01*
X0106039Y0250873D01*
X0106088Y0251019D01*
X0106141Y0251163D01*
X0106197Y0251305D01*
X0106257Y0251446D01*
X0106321Y0251586D01*
X0106388Y0251724D01*
X0106459Y0251860D01*
X0106534Y0251994D01*
X0106611Y0252126D01*
X0106693Y0252256D01*
X0106777Y0252384D01*
X0106865Y0252510D01*
X0106956Y0252633D01*
X0107050Y0252754D01*
X0107148Y0252872D01*
X0107248Y0252988D01*
X0107352Y0253101D01*
X0107458Y0253212D01*
X0107567Y0253320D01*
X0107679Y0253425D01*
X0107793Y0253526D01*
X0107911Y0253625D01*
X0108030Y0253721D01*
X0108152Y0253814D01*
X0108277Y0253903D01*
X0108404Y0253990D01*
X0108533Y0254072D01*
X0108664Y0254152D01*
X0108797Y0254228D01*
X0108932Y0254301D01*
X0109069Y0254370D01*
X0109208Y0254435D01*
X0109348Y0254497D01*
X0109490Y0254555D01*
X0109633Y0254610D01*
X0109778Y0254661D01*
X0109924Y0254708D01*
X0110071Y0254751D01*
X0110219Y0254790D01*
X0110368Y0254826D01*
X0110518Y0254857D01*
X0110669Y0254885D01*
X0110820Y0254909D01*
X0110973Y0254929D01*
X0111125Y0254945D01*
X0111278Y0254957D01*
X0111431Y0254965D01*
X0111584Y0254969D01*
X0111738Y0254969D01*
X0111891Y0254965D01*
X0112044Y0254957D01*
X0112197Y0254945D01*
X0112349Y0254929D01*
X0112502Y0254909D01*
X0112653Y0254885D01*
X0112804Y0254857D01*
X0112954Y0254826D01*
X0113103Y0254790D01*
X0113251Y0254751D01*
X0113398Y0254708D01*
X0113544Y0254661D01*
X0113689Y0254610D01*
X0113832Y0254555D01*
X0113974Y0254497D01*
X0114114Y0254435D01*
X0114253Y0254370D01*
X0114390Y0254301D01*
X0114525Y0254228D01*
X0114658Y0254152D01*
X0114789Y0254072D01*
X0114918Y0253990D01*
X0115045Y0253903D01*
X0115170Y0253814D01*
X0115292Y0253721D01*
X0115411Y0253625D01*
X0115529Y0253526D01*
X0115643Y0253425D01*
X0115755Y0253320D01*
X0115864Y0253212D01*
X0115970Y0253101D01*
X0116074Y0252988D01*
X0116174Y0252872D01*
X0116272Y0252754D01*
X0116366Y0252633D01*
X0116457Y0252510D01*
X0116545Y0252384D01*
X0116629Y0252256D01*
X0116711Y0252126D01*
X0116788Y0251994D01*
X0116863Y0251860D01*
X0116934Y0251724D01*
X0117001Y0251586D01*
X0117065Y0251446D01*
X0117125Y0251305D01*
X0117181Y0251163D01*
X0117234Y0251019D01*
X0117283Y0250873D01*
X0117328Y0250727D01*
X0117369Y0250579D01*
X0117406Y0250431D01*
X0117440Y0250281D01*
X0117470Y0250130D01*
X0117495Y0249979D01*
X0117517Y0249828D01*
X0117535Y0249675D01*
X0117549Y0249523D01*
X0117559Y0249370D01*
X0117565Y0249216D01*
X0117567Y0249063D01*
X0117565Y0248910D01*
X0117559Y0248756D01*
X0117549Y0248603D01*
X0117535Y0248451D01*
X0117517Y0248298D01*
X0117495Y0248147D01*
X0117470Y0247996D01*
X0117440Y0247845D01*
X0117406Y0247695D01*
X0117369Y0247547D01*
X0117328Y0247399D01*
X0117283Y0247253D01*
X0117234Y0247107D01*
X0117181Y0246963D01*
X0117125Y0246821D01*
X0117065Y0246680D01*
X0117001Y0246540D01*
X0116934Y0246402D01*
X0116863Y0246266D01*
X0116788Y0246132D01*
X0116711Y0246000D01*
X0116629Y0245870D01*
X0116545Y0245742D01*
X0116457Y0245616D01*
X0116366Y0245493D01*
X0116272Y0245372D01*
X0116174Y0245254D01*
X0116074Y0245138D01*
X0115970Y0245025D01*
X0115864Y0244914D01*
X0115755Y0244806D01*
X0115643Y0244701D01*
X0115529Y0244600D01*
X0115411Y0244501D01*
X0115292Y0244405D01*
X0115170Y0244312D01*
X0115045Y0244223D01*
X0114918Y0244136D01*
X0114789Y0244054D01*
X0114658Y0243974D01*
X0114525Y0243898D01*
X0114390Y0243825D01*
X0114253Y0243756D01*
X0114114Y0243691D01*
X0113974Y0243629D01*
X0113832Y0243571D01*
X0113689Y0243516D01*
X0113544Y0243465D01*
X0113398Y0243418D01*
X0113251Y0243375D01*
X0113103Y0243336D01*
X0112954Y0243300D01*
X0112804Y0243269D01*
X0112653Y0243241D01*
X0112502Y0243217D01*
X0112349Y0243197D01*
X0112197Y0243181D01*
X0112044Y0243169D01*
X0111891Y0243161D01*
X0111738Y0243157D01*
X0111584Y0243157D01*
X0111431Y0243161D01*
X0111278Y0243169D01*
X0111125Y0243181D01*
X0110973Y0243197D01*
X0110820Y0243217D01*
X0110669Y0243241D01*
X0110518Y0243269D01*
X0110368Y0243300D01*
X0110219Y0243336D01*
X0110071Y0243375D01*
X0109924Y0243418D01*
X0109778Y0243465D01*
X0109633Y0243516D01*
X0109490Y0243571D01*
X0109348Y0243629D01*
X0109208Y0243691D01*
X0109069Y0243756D01*
X0108932Y0243825D01*
X0108797Y0243898D01*
X0108664Y0243974D01*
X0108533Y0244054D01*
X0108404Y0244136D01*
X0108277Y0244223D01*
X0108152Y0244312D01*
X0108030Y0244405D01*
X0107911Y0244501D01*
X0107793Y0244600D01*
X0107679Y0244701D01*
X0107567Y0244806D01*
X0107458Y0244914D01*
X0107352Y0245025D01*
X0107248Y0245138D01*
X0107148Y0245254D01*
X0107050Y0245372D01*
X0106956Y0245493D01*
X0106865Y0245616D01*
X0106777Y0245742D01*
X0106693Y0245870D01*
X0106611Y0246000D01*
X0106534Y0246132D01*
X0106459Y0246266D01*
X0106388Y0246402D01*
X0106321Y0246540D01*
X0106257Y0246680D01*
X0106197Y0246821D01*
X0106141Y0246963D01*
X0106088Y0247107D01*
X0106039Y0247253D01*
X0105994Y0247399D01*
X0105953Y0247547D01*
X0105916Y0247695D01*
X0105882Y0247845D01*
X0105852Y0247996D01*
X0105827Y0248147D01*
X0105805Y0248298D01*
X0105787Y0248451D01*
X0105773Y0248603D01*
X0105763Y0248756D01*
X0105757Y0248910D01*
X0105755Y0249063D01*
X0259299Y0249063D02*
X0259301Y0249216D01*
X0259307Y0249370D01*
X0259317Y0249523D01*
X0259331Y0249675D01*
X0259349Y0249828D01*
X0259371Y0249979D01*
X0259396Y0250130D01*
X0259426Y0250281D01*
X0259460Y0250431D01*
X0259497Y0250579D01*
X0259538Y0250727D01*
X0259583Y0250873D01*
X0259632Y0251019D01*
X0259685Y0251163D01*
X0259741Y0251305D01*
X0259801Y0251446D01*
X0259865Y0251586D01*
X0259932Y0251724D01*
X0260003Y0251860D01*
X0260078Y0251994D01*
X0260155Y0252126D01*
X0260237Y0252256D01*
X0260321Y0252384D01*
X0260409Y0252510D01*
X0260500Y0252633D01*
X0260594Y0252754D01*
X0260692Y0252872D01*
X0260792Y0252988D01*
X0260896Y0253101D01*
X0261002Y0253212D01*
X0261111Y0253320D01*
X0261223Y0253425D01*
X0261337Y0253526D01*
X0261455Y0253625D01*
X0261574Y0253721D01*
X0261696Y0253814D01*
X0261821Y0253903D01*
X0261948Y0253990D01*
X0262077Y0254072D01*
X0262208Y0254152D01*
X0262341Y0254228D01*
X0262476Y0254301D01*
X0262613Y0254370D01*
X0262752Y0254435D01*
X0262892Y0254497D01*
X0263034Y0254555D01*
X0263177Y0254610D01*
X0263322Y0254661D01*
X0263468Y0254708D01*
X0263615Y0254751D01*
X0263763Y0254790D01*
X0263912Y0254826D01*
X0264062Y0254857D01*
X0264213Y0254885D01*
X0264364Y0254909D01*
X0264517Y0254929D01*
X0264669Y0254945D01*
X0264822Y0254957D01*
X0264975Y0254965D01*
X0265128Y0254969D01*
X0265282Y0254969D01*
X0265435Y0254965D01*
X0265588Y0254957D01*
X0265741Y0254945D01*
X0265893Y0254929D01*
X0266046Y0254909D01*
X0266197Y0254885D01*
X0266348Y0254857D01*
X0266498Y0254826D01*
X0266647Y0254790D01*
X0266795Y0254751D01*
X0266942Y0254708D01*
X0267088Y0254661D01*
X0267233Y0254610D01*
X0267376Y0254555D01*
X0267518Y0254497D01*
X0267658Y0254435D01*
X0267797Y0254370D01*
X0267934Y0254301D01*
X0268069Y0254228D01*
X0268202Y0254152D01*
X0268333Y0254072D01*
X0268462Y0253990D01*
X0268589Y0253903D01*
X0268714Y0253814D01*
X0268836Y0253721D01*
X0268955Y0253625D01*
X0269073Y0253526D01*
X0269187Y0253425D01*
X0269299Y0253320D01*
X0269408Y0253212D01*
X0269514Y0253101D01*
X0269618Y0252988D01*
X0269718Y0252872D01*
X0269816Y0252754D01*
X0269910Y0252633D01*
X0270001Y0252510D01*
X0270089Y0252384D01*
X0270173Y0252256D01*
X0270255Y0252126D01*
X0270332Y0251994D01*
X0270407Y0251860D01*
X0270478Y0251724D01*
X0270545Y0251586D01*
X0270609Y0251446D01*
X0270669Y0251305D01*
X0270725Y0251163D01*
X0270778Y0251019D01*
X0270827Y0250873D01*
X0270872Y0250727D01*
X0270913Y0250579D01*
X0270950Y0250431D01*
X0270984Y0250281D01*
X0271014Y0250130D01*
X0271039Y0249979D01*
X0271061Y0249828D01*
X0271079Y0249675D01*
X0271093Y0249523D01*
X0271103Y0249370D01*
X0271109Y0249216D01*
X0271111Y0249063D01*
X0271109Y0248910D01*
X0271103Y0248756D01*
X0271093Y0248603D01*
X0271079Y0248451D01*
X0271061Y0248298D01*
X0271039Y0248147D01*
X0271014Y0247996D01*
X0270984Y0247845D01*
X0270950Y0247695D01*
X0270913Y0247547D01*
X0270872Y0247399D01*
X0270827Y0247253D01*
X0270778Y0247107D01*
X0270725Y0246963D01*
X0270669Y0246821D01*
X0270609Y0246680D01*
X0270545Y0246540D01*
X0270478Y0246402D01*
X0270407Y0246266D01*
X0270332Y0246132D01*
X0270255Y0246000D01*
X0270173Y0245870D01*
X0270089Y0245742D01*
X0270001Y0245616D01*
X0269910Y0245493D01*
X0269816Y0245372D01*
X0269718Y0245254D01*
X0269618Y0245138D01*
X0269514Y0245025D01*
X0269408Y0244914D01*
X0269299Y0244806D01*
X0269187Y0244701D01*
X0269073Y0244600D01*
X0268955Y0244501D01*
X0268836Y0244405D01*
X0268714Y0244312D01*
X0268589Y0244223D01*
X0268462Y0244136D01*
X0268333Y0244054D01*
X0268202Y0243974D01*
X0268069Y0243898D01*
X0267934Y0243825D01*
X0267797Y0243756D01*
X0267658Y0243691D01*
X0267518Y0243629D01*
X0267376Y0243571D01*
X0267233Y0243516D01*
X0267088Y0243465D01*
X0266942Y0243418D01*
X0266795Y0243375D01*
X0266647Y0243336D01*
X0266498Y0243300D01*
X0266348Y0243269D01*
X0266197Y0243241D01*
X0266046Y0243217D01*
X0265893Y0243197D01*
X0265741Y0243181D01*
X0265588Y0243169D01*
X0265435Y0243161D01*
X0265282Y0243157D01*
X0265128Y0243157D01*
X0264975Y0243161D01*
X0264822Y0243169D01*
X0264669Y0243181D01*
X0264517Y0243197D01*
X0264364Y0243217D01*
X0264213Y0243241D01*
X0264062Y0243269D01*
X0263912Y0243300D01*
X0263763Y0243336D01*
X0263615Y0243375D01*
X0263468Y0243418D01*
X0263322Y0243465D01*
X0263177Y0243516D01*
X0263034Y0243571D01*
X0262892Y0243629D01*
X0262752Y0243691D01*
X0262613Y0243756D01*
X0262476Y0243825D01*
X0262341Y0243898D01*
X0262208Y0243974D01*
X0262077Y0244054D01*
X0261948Y0244136D01*
X0261821Y0244223D01*
X0261696Y0244312D01*
X0261574Y0244405D01*
X0261455Y0244501D01*
X0261337Y0244600D01*
X0261223Y0244701D01*
X0261111Y0244806D01*
X0261002Y0244914D01*
X0260896Y0245025D01*
X0260792Y0245138D01*
X0260692Y0245254D01*
X0260594Y0245372D01*
X0260500Y0245493D01*
X0260409Y0245616D01*
X0260321Y0245742D01*
X0260237Y0245870D01*
X0260155Y0246000D01*
X0260078Y0246132D01*
X0260003Y0246266D01*
X0259932Y0246402D01*
X0259865Y0246540D01*
X0259801Y0246680D01*
X0259741Y0246821D01*
X0259685Y0246963D01*
X0259632Y0247107D01*
X0259583Y0247253D01*
X0259538Y0247399D01*
X0259497Y0247547D01*
X0259460Y0247695D01*
X0259426Y0247845D01*
X0259396Y0247996D01*
X0259371Y0248147D01*
X0259349Y0248298D01*
X0259331Y0248451D01*
X0259317Y0248603D01*
X0259307Y0248756D01*
X0259301Y0248910D01*
X0259299Y0249063D01*
X0259299Y0162449D02*
X0259301Y0162602D01*
X0259307Y0162756D01*
X0259317Y0162909D01*
X0259331Y0163061D01*
X0259349Y0163214D01*
X0259371Y0163365D01*
X0259396Y0163516D01*
X0259426Y0163667D01*
X0259460Y0163817D01*
X0259497Y0163965D01*
X0259538Y0164113D01*
X0259583Y0164259D01*
X0259632Y0164405D01*
X0259685Y0164549D01*
X0259741Y0164691D01*
X0259801Y0164832D01*
X0259865Y0164972D01*
X0259932Y0165110D01*
X0260003Y0165246D01*
X0260078Y0165380D01*
X0260155Y0165512D01*
X0260237Y0165642D01*
X0260321Y0165770D01*
X0260409Y0165896D01*
X0260500Y0166019D01*
X0260594Y0166140D01*
X0260692Y0166258D01*
X0260792Y0166374D01*
X0260896Y0166487D01*
X0261002Y0166598D01*
X0261111Y0166706D01*
X0261223Y0166811D01*
X0261337Y0166912D01*
X0261455Y0167011D01*
X0261574Y0167107D01*
X0261696Y0167200D01*
X0261821Y0167289D01*
X0261948Y0167376D01*
X0262077Y0167458D01*
X0262208Y0167538D01*
X0262341Y0167614D01*
X0262476Y0167687D01*
X0262613Y0167756D01*
X0262752Y0167821D01*
X0262892Y0167883D01*
X0263034Y0167941D01*
X0263177Y0167996D01*
X0263322Y0168047D01*
X0263468Y0168094D01*
X0263615Y0168137D01*
X0263763Y0168176D01*
X0263912Y0168212D01*
X0264062Y0168243D01*
X0264213Y0168271D01*
X0264364Y0168295D01*
X0264517Y0168315D01*
X0264669Y0168331D01*
X0264822Y0168343D01*
X0264975Y0168351D01*
X0265128Y0168355D01*
X0265282Y0168355D01*
X0265435Y0168351D01*
X0265588Y0168343D01*
X0265741Y0168331D01*
X0265893Y0168315D01*
X0266046Y0168295D01*
X0266197Y0168271D01*
X0266348Y0168243D01*
X0266498Y0168212D01*
X0266647Y0168176D01*
X0266795Y0168137D01*
X0266942Y0168094D01*
X0267088Y0168047D01*
X0267233Y0167996D01*
X0267376Y0167941D01*
X0267518Y0167883D01*
X0267658Y0167821D01*
X0267797Y0167756D01*
X0267934Y0167687D01*
X0268069Y0167614D01*
X0268202Y0167538D01*
X0268333Y0167458D01*
X0268462Y0167376D01*
X0268589Y0167289D01*
X0268714Y0167200D01*
X0268836Y0167107D01*
X0268955Y0167011D01*
X0269073Y0166912D01*
X0269187Y0166811D01*
X0269299Y0166706D01*
X0269408Y0166598D01*
X0269514Y0166487D01*
X0269618Y0166374D01*
X0269718Y0166258D01*
X0269816Y0166140D01*
X0269910Y0166019D01*
X0270001Y0165896D01*
X0270089Y0165770D01*
X0270173Y0165642D01*
X0270255Y0165512D01*
X0270332Y0165380D01*
X0270407Y0165246D01*
X0270478Y0165110D01*
X0270545Y0164972D01*
X0270609Y0164832D01*
X0270669Y0164691D01*
X0270725Y0164549D01*
X0270778Y0164405D01*
X0270827Y0164259D01*
X0270872Y0164113D01*
X0270913Y0163965D01*
X0270950Y0163817D01*
X0270984Y0163667D01*
X0271014Y0163516D01*
X0271039Y0163365D01*
X0271061Y0163214D01*
X0271079Y0163061D01*
X0271093Y0162909D01*
X0271103Y0162756D01*
X0271109Y0162602D01*
X0271111Y0162449D01*
X0271109Y0162296D01*
X0271103Y0162142D01*
X0271093Y0161989D01*
X0271079Y0161837D01*
X0271061Y0161684D01*
X0271039Y0161533D01*
X0271014Y0161382D01*
X0270984Y0161231D01*
X0270950Y0161081D01*
X0270913Y0160933D01*
X0270872Y0160785D01*
X0270827Y0160639D01*
X0270778Y0160493D01*
X0270725Y0160349D01*
X0270669Y0160207D01*
X0270609Y0160066D01*
X0270545Y0159926D01*
X0270478Y0159788D01*
X0270407Y0159652D01*
X0270332Y0159518D01*
X0270255Y0159386D01*
X0270173Y0159256D01*
X0270089Y0159128D01*
X0270001Y0159002D01*
X0269910Y0158879D01*
X0269816Y0158758D01*
X0269718Y0158640D01*
X0269618Y0158524D01*
X0269514Y0158411D01*
X0269408Y0158300D01*
X0269299Y0158192D01*
X0269187Y0158087D01*
X0269073Y0157986D01*
X0268955Y0157887D01*
X0268836Y0157791D01*
X0268714Y0157698D01*
X0268589Y0157609D01*
X0268462Y0157522D01*
X0268333Y0157440D01*
X0268202Y0157360D01*
X0268069Y0157284D01*
X0267934Y0157211D01*
X0267797Y0157142D01*
X0267658Y0157077D01*
X0267518Y0157015D01*
X0267376Y0156957D01*
X0267233Y0156902D01*
X0267088Y0156851D01*
X0266942Y0156804D01*
X0266795Y0156761D01*
X0266647Y0156722D01*
X0266498Y0156686D01*
X0266348Y0156655D01*
X0266197Y0156627D01*
X0266046Y0156603D01*
X0265893Y0156583D01*
X0265741Y0156567D01*
X0265588Y0156555D01*
X0265435Y0156547D01*
X0265282Y0156543D01*
X0265128Y0156543D01*
X0264975Y0156547D01*
X0264822Y0156555D01*
X0264669Y0156567D01*
X0264517Y0156583D01*
X0264364Y0156603D01*
X0264213Y0156627D01*
X0264062Y0156655D01*
X0263912Y0156686D01*
X0263763Y0156722D01*
X0263615Y0156761D01*
X0263468Y0156804D01*
X0263322Y0156851D01*
X0263177Y0156902D01*
X0263034Y0156957D01*
X0262892Y0157015D01*
X0262752Y0157077D01*
X0262613Y0157142D01*
X0262476Y0157211D01*
X0262341Y0157284D01*
X0262208Y0157360D01*
X0262077Y0157440D01*
X0261948Y0157522D01*
X0261821Y0157609D01*
X0261696Y0157698D01*
X0261574Y0157791D01*
X0261455Y0157887D01*
X0261337Y0157986D01*
X0261223Y0158087D01*
X0261111Y0158192D01*
X0261002Y0158300D01*
X0260896Y0158411D01*
X0260792Y0158524D01*
X0260692Y0158640D01*
X0260594Y0158758D01*
X0260500Y0158879D01*
X0260409Y0159002D01*
X0260321Y0159128D01*
X0260237Y0159256D01*
X0260155Y0159386D01*
X0260078Y0159518D01*
X0260003Y0159652D01*
X0259932Y0159788D01*
X0259865Y0159926D01*
X0259801Y0160066D01*
X0259741Y0160207D01*
X0259685Y0160349D01*
X0259632Y0160493D01*
X0259583Y0160639D01*
X0259538Y0160785D01*
X0259497Y0160933D01*
X0259460Y0161081D01*
X0259426Y0161231D01*
X0259396Y0161382D01*
X0259371Y0161533D01*
X0259349Y0161684D01*
X0259331Y0161837D01*
X0259317Y0161989D01*
X0259307Y0162142D01*
X0259301Y0162296D01*
X0259299Y0162449D01*
X0259299Y0075835D02*
X0259301Y0075988D01*
X0259307Y0076142D01*
X0259317Y0076295D01*
X0259331Y0076447D01*
X0259349Y0076600D01*
X0259371Y0076751D01*
X0259396Y0076902D01*
X0259426Y0077053D01*
X0259460Y0077203D01*
X0259497Y0077351D01*
X0259538Y0077499D01*
X0259583Y0077645D01*
X0259632Y0077791D01*
X0259685Y0077935D01*
X0259741Y0078077D01*
X0259801Y0078218D01*
X0259865Y0078358D01*
X0259932Y0078496D01*
X0260003Y0078632D01*
X0260078Y0078766D01*
X0260155Y0078898D01*
X0260237Y0079028D01*
X0260321Y0079156D01*
X0260409Y0079282D01*
X0260500Y0079405D01*
X0260594Y0079526D01*
X0260692Y0079644D01*
X0260792Y0079760D01*
X0260896Y0079873D01*
X0261002Y0079984D01*
X0261111Y0080092D01*
X0261223Y0080197D01*
X0261337Y0080298D01*
X0261455Y0080397D01*
X0261574Y0080493D01*
X0261696Y0080586D01*
X0261821Y0080675D01*
X0261948Y0080762D01*
X0262077Y0080844D01*
X0262208Y0080924D01*
X0262341Y0081000D01*
X0262476Y0081073D01*
X0262613Y0081142D01*
X0262752Y0081207D01*
X0262892Y0081269D01*
X0263034Y0081327D01*
X0263177Y0081382D01*
X0263322Y0081433D01*
X0263468Y0081480D01*
X0263615Y0081523D01*
X0263763Y0081562D01*
X0263912Y0081598D01*
X0264062Y0081629D01*
X0264213Y0081657D01*
X0264364Y0081681D01*
X0264517Y0081701D01*
X0264669Y0081717D01*
X0264822Y0081729D01*
X0264975Y0081737D01*
X0265128Y0081741D01*
X0265282Y0081741D01*
X0265435Y0081737D01*
X0265588Y0081729D01*
X0265741Y0081717D01*
X0265893Y0081701D01*
X0266046Y0081681D01*
X0266197Y0081657D01*
X0266348Y0081629D01*
X0266498Y0081598D01*
X0266647Y0081562D01*
X0266795Y0081523D01*
X0266942Y0081480D01*
X0267088Y0081433D01*
X0267233Y0081382D01*
X0267376Y0081327D01*
X0267518Y0081269D01*
X0267658Y0081207D01*
X0267797Y0081142D01*
X0267934Y0081073D01*
X0268069Y0081000D01*
X0268202Y0080924D01*
X0268333Y0080844D01*
X0268462Y0080762D01*
X0268589Y0080675D01*
X0268714Y0080586D01*
X0268836Y0080493D01*
X0268955Y0080397D01*
X0269073Y0080298D01*
X0269187Y0080197D01*
X0269299Y0080092D01*
X0269408Y0079984D01*
X0269514Y0079873D01*
X0269618Y0079760D01*
X0269718Y0079644D01*
X0269816Y0079526D01*
X0269910Y0079405D01*
X0270001Y0079282D01*
X0270089Y0079156D01*
X0270173Y0079028D01*
X0270255Y0078898D01*
X0270332Y0078766D01*
X0270407Y0078632D01*
X0270478Y0078496D01*
X0270545Y0078358D01*
X0270609Y0078218D01*
X0270669Y0078077D01*
X0270725Y0077935D01*
X0270778Y0077791D01*
X0270827Y0077645D01*
X0270872Y0077499D01*
X0270913Y0077351D01*
X0270950Y0077203D01*
X0270984Y0077053D01*
X0271014Y0076902D01*
X0271039Y0076751D01*
X0271061Y0076600D01*
X0271079Y0076447D01*
X0271093Y0076295D01*
X0271103Y0076142D01*
X0271109Y0075988D01*
X0271111Y0075835D01*
X0271109Y0075682D01*
X0271103Y0075528D01*
X0271093Y0075375D01*
X0271079Y0075223D01*
X0271061Y0075070D01*
X0271039Y0074919D01*
X0271014Y0074768D01*
X0270984Y0074617D01*
X0270950Y0074467D01*
X0270913Y0074319D01*
X0270872Y0074171D01*
X0270827Y0074025D01*
X0270778Y0073879D01*
X0270725Y0073735D01*
X0270669Y0073593D01*
X0270609Y0073452D01*
X0270545Y0073312D01*
X0270478Y0073174D01*
X0270407Y0073038D01*
X0270332Y0072904D01*
X0270255Y0072772D01*
X0270173Y0072642D01*
X0270089Y0072514D01*
X0270001Y0072388D01*
X0269910Y0072265D01*
X0269816Y0072144D01*
X0269718Y0072026D01*
X0269618Y0071910D01*
X0269514Y0071797D01*
X0269408Y0071686D01*
X0269299Y0071578D01*
X0269187Y0071473D01*
X0269073Y0071372D01*
X0268955Y0071273D01*
X0268836Y0071177D01*
X0268714Y0071084D01*
X0268589Y0070995D01*
X0268462Y0070908D01*
X0268333Y0070826D01*
X0268202Y0070746D01*
X0268069Y0070670D01*
X0267934Y0070597D01*
X0267797Y0070528D01*
X0267658Y0070463D01*
X0267518Y0070401D01*
X0267376Y0070343D01*
X0267233Y0070288D01*
X0267088Y0070237D01*
X0266942Y0070190D01*
X0266795Y0070147D01*
X0266647Y0070108D01*
X0266498Y0070072D01*
X0266348Y0070041D01*
X0266197Y0070013D01*
X0266046Y0069989D01*
X0265893Y0069969D01*
X0265741Y0069953D01*
X0265588Y0069941D01*
X0265435Y0069933D01*
X0265282Y0069929D01*
X0265128Y0069929D01*
X0264975Y0069933D01*
X0264822Y0069941D01*
X0264669Y0069953D01*
X0264517Y0069969D01*
X0264364Y0069989D01*
X0264213Y0070013D01*
X0264062Y0070041D01*
X0263912Y0070072D01*
X0263763Y0070108D01*
X0263615Y0070147D01*
X0263468Y0070190D01*
X0263322Y0070237D01*
X0263177Y0070288D01*
X0263034Y0070343D01*
X0262892Y0070401D01*
X0262752Y0070463D01*
X0262613Y0070528D01*
X0262476Y0070597D01*
X0262341Y0070670D01*
X0262208Y0070746D01*
X0262077Y0070826D01*
X0261948Y0070908D01*
X0261821Y0070995D01*
X0261696Y0071084D01*
X0261574Y0071177D01*
X0261455Y0071273D01*
X0261337Y0071372D01*
X0261223Y0071473D01*
X0261111Y0071578D01*
X0261002Y0071686D01*
X0260896Y0071797D01*
X0260792Y0071910D01*
X0260692Y0072026D01*
X0260594Y0072144D01*
X0260500Y0072265D01*
X0260409Y0072388D01*
X0260321Y0072514D01*
X0260237Y0072642D01*
X0260155Y0072772D01*
X0260078Y0072904D01*
X0260003Y0073038D01*
X0259932Y0073174D01*
X0259865Y0073312D01*
X0259801Y0073452D01*
X0259741Y0073593D01*
X0259685Y0073735D01*
X0259632Y0073879D01*
X0259583Y0074025D01*
X0259538Y0074171D01*
X0259497Y0074319D01*
X0259460Y0074467D01*
X0259426Y0074617D01*
X0259396Y0074768D01*
X0259371Y0074919D01*
X0259349Y0075070D01*
X0259331Y0075223D01*
X0259317Y0075375D01*
X0259307Y0075528D01*
X0259301Y0075682D01*
X0259299Y0075835D01*
D12*
X0265205Y0075835D03*
X0265205Y0162449D03*
X0265205Y0249063D03*
X0111661Y0249063D03*
X0111661Y0162449D03*
X0111661Y0075835D03*
D13*
X0080953Y0074181D03*
X0080953Y0084181D03*
X0080953Y0094181D03*
X0080953Y0104181D03*
X0105126Y0111268D03*
X0115126Y0111268D03*
X0125126Y0111268D03*
X0125598Y0128984D03*
X0115598Y0128984D03*
X0102134Y0128984D03*
X0092134Y0128984D03*
X0082134Y0128984D03*
X0080953Y0140795D03*
X0080953Y0150795D03*
X0080953Y0160795D03*
X0080953Y0170795D03*
X0080953Y0180795D03*
X0080953Y0190795D03*
X0082134Y0215598D03*
X0092134Y0215598D03*
X0102134Y0215598D03*
X0115598Y0215598D03*
X0125598Y0215598D03*
X0135598Y0215598D03*
X0149063Y0215598D03*
X0159063Y0215598D03*
X0169063Y0215598D03*
X0182528Y0215598D03*
X0192528Y0215598D03*
X0202528Y0215598D03*
X0215992Y0215598D03*
X0225992Y0215598D03*
X0235992Y0215598D03*
X0249457Y0215598D03*
X0259457Y0215598D03*
X0269457Y0215598D03*
X0265126Y0195913D03*
X0275126Y0195913D03*
X0255126Y0195913D03*
X0259457Y0128984D03*
X0269457Y0128984D03*
X0249457Y0128984D03*
X0235992Y0128984D03*
X0225992Y0128984D03*
X0215992Y0128984D03*
X0202528Y0128984D03*
X0192528Y0128984D03*
X0182528Y0128984D03*
X0169063Y0128984D03*
X0159063Y0128984D03*
X0149063Y0128984D03*
X0135598Y0128984D03*
X0125126Y0197882D03*
X0115126Y0197882D03*
X0105126Y0197882D03*
X0080953Y0227409D03*
X0080953Y0237409D03*
X0080953Y0247409D03*
X0080953Y0257409D03*
X0080953Y0267409D03*
X0080953Y0277409D03*
X0105126Y0284496D03*
X0115126Y0284496D03*
X0125126Y0284496D03*
X0255126Y0282528D03*
X0265126Y0282528D03*
X0275126Y0282528D03*
X0275126Y0109299D03*
X0265126Y0109299D03*
X0255126Y0109299D03*
X0259457Y0042370D03*
X0269457Y0042370D03*
X0249457Y0042370D03*
X0235992Y0042370D03*
X0225992Y0042370D03*
X0215992Y0042370D03*
X0202528Y0042370D03*
X0192528Y0042370D03*
X0182528Y0042370D03*
X0169063Y0042370D03*
X0159063Y0042370D03*
X0149063Y0042370D03*
X0135598Y0042370D03*
X0125598Y0042370D03*
X0115598Y0042370D03*
X0102134Y0042370D03*
X0092134Y0042370D03*
X0082134Y0042370D03*
X0080953Y0054181D03*
X0080953Y0064181D03*
D14*
X0177045Y0074654D03*
X0177045Y0077803D03*
X0177045Y0080953D03*
X0177045Y0084102D03*
X0177045Y0087252D03*
X0177045Y0090402D03*
X0177045Y0093551D03*
X0177045Y0096701D03*
X0210845Y0096701D03*
X0210845Y0093551D03*
X0210845Y0090402D03*
X0210845Y0087252D03*
X0210845Y0084102D03*
X0210845Y0080953D03*
X0210845Y0077803D03*
X0210845Y0074654D03*
X0210845Y0161268D03*
X0210845Y0164417D03*
X0210845Y0167567D03*
X0210845Y0170717D03*
X0210845Y0173866D03*
X0210845Y0177016D03*
X0210845Y0180165D03*
X0210845Y0183315D03*
X0177045Y0183315D03*
X0177045Y0180165D03*
X0177045Y0177016D03*
X0177045Y0173866D03*
X0177045Y0170717D03*
X0177045Y0167567D03*
X0177045Y0164417D03*
X0177045Y0161268D03*
X0177045Y0247882D03*
X0177045Y0251031D03*
X0177045Y0254181D03*
X0177045Y0257331D03*
X0177045Y0260480D03*
X0177045Y0263630D03*
X0177045Y0266780D03*
X0177045Y0269929D03*
X0210845Y0269929D03*
X0210845Y0266780D03*
X0210845Y0263630D03*
X0210845Y0260480D03*
X0210845Y0257331D03*
X0210845Y0254181D03*
X0210845Y0251031D03*
X0210845Y0247882D03*
D15*
X0204969Y0242006D03*
X0201819Y0242006D03*
X0198669Y0242006D03*
X0195520Y0242006D03*
X0192370Y0242006D03*
X0189220Y0242006D03*
X0186071Y0242006D03*
X0182921Y0242006D03*
X0182921Y0275806D03*
X0186071Y0275806D03*
X0189220Y0275806D03*
X0192370Y0275806D03*
X0195520Y0275806D03*
X0198669Y0275806D03*
X0201819Y0275806D03*
X0204969Y0275806D03*
X0204969Y0189191D03*
X0201819Y0189191D03*
X0198669Y0189191D03*
X0195520Y0189191D03*
X0192370Y0189191D03*
X0189220Y0189191D03*
X0186071Y0189191D03*
X0182921Y0189191D03*
X0182921Y0155391D03*
X0186071Y0155391D03*
X0189220Y0155391D03*
X0192370Y0155391D03*
X0195520Y0155391D03*
X0198669Y0155391D03*
X0201819Y0155391D03*
X0204969Y0155391D03*
X0204969Y0102577D03*
X0201819Y0102577D03*
X0198669Y0102577D03*
X0195520Y0102577D03*
X0192370Y0102577D03*
X0189220Y0102577D03*
X0186071Y0102577D03*
X0182921Y0102577D03*
X0182921Y0068777D03*
X0186071Y0068777D03*
X0189220Y0068777D03*
X0192370Y0068777D03*
X0195520Y0068777D03*
X0198669Y0068777D03*
X0201819Y0068777D03*
X0204969Y0068777D03*
D16*
X0232921Y0065402D03*
X0232921Y0057921D03*
X0243158Y0057921D03*
X0243158Y0061661D03*
X0243158Y0065402D03*
X0243158Y0144535D03*
X0243158Y0148276D03*
X0243158Y0152016D03*
X0232921Y0152016D03*
X0232921Y0144535D03*
X0232921Y0231150D03*
X0232921Y0238630D03*
X0243158Y0238630D03*
X0243158Y0234890D03*
X0243158Y0231150D03*
D17*
X0245323Y0225047D03*
X0252016Y0225047D03*
X0232921Y0243748D03*
X0232921Y0250441D03*
X0232921Y0163827D03*
X0232921Y0157134D03*
X0245323Y0138433D03*
X0252016Y0138433D03*
X0232921Y0077213D03*
X0232921Y0070520D03*
X0245323Y0051819D03*
X0252016Y0051819D03*
X0103394Y0093354D03*
X0093945Y0093354D03*
X0093945Y0100047D03*
X0103394Y0100047D03*
X0103394Y0179969D03*
X0103394Y0186661D03*
X0093945Y0186661D03*
X0093945Y0179969D03*
X0093945Y0266583D03*
X0093945Y0273276D03*
X0103394Y0273276D03*
X0103394Y0266583D03*
D18*
X0150835Y0249063D03*
X0157528Y0249063D03*
X0171307Y0237252D03*
X0171307Y0230953D03*
X0178000Y0230953D03*
X0178000Y0237252D03*
X0204772Y0197882D03*
X0211465Y0197882D03*
X0223079Y0231543D03*
X0223079Y0238236D03*
X0211465Y0284496D03*
X0204772Y0284496D03*
X0157528Y0162449D03*
X0150835Y0162449D03*
X0171307Y0150638D03*
X0171307Y0144339D03*
X0178000Y0144339D03*
X0178000Y0150638D03*
X0204772Y0111268D03*
X0211465Y0111268D03*
X0223079Y0144929D03*
X0223079Y0151622D03*
X0157528Y0075835D03*
X0150835Y0075835D03*
X0171307Y0064024D03*
X0171307Y0057724D03*
X0178000Y0057724D03*
X0178000Y0064024D03*
X0223079Y0065008D03*
X0223079Y0058315D03*
D19*
X0245126Y0109299D03*
X0245126Y0195913D03*
X0245126Y0282528D03*
X0095126Y0284496D03*
X0095126Y0197882D03*
X0095126Y0111268D03*
D20*
X0150441Y0145126D03*
X0150441Y0154575D03*
X0164220Y0154575D03*
X0164220Y0145126D03*
X0215795Y0104181D03*
X0229575Y0104181D03*
X0164220Y0067961D03*
X0164220Y0058512D03*
X0150441Y0058512D03*
X0150441Y0067961D03*
X0215795Y0190795D03*
X0229575Y0190795D03*
X0164220Y0231740D03*
X0164220Y0241189D03*
X0150441Y0241189D03*
X0150441Y0231740D03*
X0215795Y0277409D03*
X0229575Y0277409D03*
D21*
X0137215Y0257000D03*
X0133415Y0249000D03*
X0129615Y0257000D03*
X0129615Y0170386D03*
X0133415Y0162386D03*
X0137215Y0170386D03*
X0137215Y0083772D03*
X0129615Y0083772D03*
X0133415Y0075772D03*
D22*
X0138370Y0091820D03*
X0138370Y0099420D03*
X0146370Y0095620D03*
X0151362Y0099420D03*
X0151362Y0091820D03*
X0159362Y0095620D03*
X0151362Y0178434D03*
X0146370Y0182234D03*
X0151362Y0186034D03*
X0159362Y0182234D03*
X0138370Y0186034D03*
X0138370Y0178434D03*
X0138370Y0265048D03*
X0138370Y0272648D03*
X0146370Y0268848D03*
X0151362Y0265048D03*
X0151362Y0272648D03*
X0159362Y0268848D03*
D23*
X0090795Y0229016D03*
X0090795Y0225016D03*
X0090795Y0142402D03*
X0090795Y0138402D03*
X0090795Y0055787D03*
X0090795Y0051787D03*
M02*
