%
M48
M72
T01C0.02362
T02C0.04000
T03C0.11811
%
T01
X90008Y68354
X91189Y77016
X97882Y95126
X108512Y95913
X115598Y95913
X129772Y91583
X139220Y84890
X129772Y79772
X137646Y62843
X143157Y61661
X171110Y69929
X184693Y62843
X194142Y56543
X188039Y75441
X186071Y80953
X190795Y91976
X186858Y95520
X177016Y103394
X168748Y98669
X165205Y94732
X166386Y104575
X160480Y110087
X165205Y113236
X141189Y96701
X95126Y56937
X95126Y143551
X90008Y154969
X91189Y163630
X97882Y181740
X108512Y182528
X115598Y182528
X129772Y178197
X139220Y171504
X129772Y166386
X137646Y149457
X143157Y148276
X171110Y156543
X184693Y149457
X194142Y143157
X188039Y162055
X186071Y167567
X190795Y178591
X186858Y182134
X177016Y190008
X168748Y185283
X165205Y181346
X166386Y191189
X160480Y196701
X165205Y199850
X141189Y183315
X95126Y230165
X90008Y241583
X91189Y250244
X97882Y268354
X108512Y269142
X115598Y269142
X129772Y264811
X139220Y258118
X129772Y253000
X137646Y236071
X143157Y234890
X171110Y243157
X184693Y236071
X194142Y229772
X188039Y248669
X186071Y254181
X190795Y265205
X186858Y268748
X177016Y276622
X168748Y271898
X165205Y267961
X166386Y277803
X160480Y283315
X165205Y286465
X141189Y269929
X198669Y265598
X203787Y267173
X223394Y246780
X226228Y262843
X243157Y259693
X245520Y265205
X232134Y284890
X238039Y238433
X240795Y229772
X232134Y198276
X245520Y178591
X243157Y173079
X226228Y176228
X223394Y160165
X238039Y151819
X240795Y143157
X232134Y111661
X245520Y91976
X243157Y86465
X226228Y89614
X223394Y73551
X238039Y65205
X240795Y56543
X275441Y49850
X203787Y93945
X198669Y92370
X275441Y136465
X203787Y180559
X198669Y178984
X275441Y223079
T02
X82134Y42370
X92134Y42370
X102134Y42370
X115598Y42370
X125598Y42370
X135598Y42370
X149063Y42370
X159063Y42370
X169063Y42370
X182528Y42370
X192528Y42370
X202528Y42370
X215992Y42370
X225992Y42370
X235992Y42370
X249457Y42370
X259457Y42370
X269457Y42370
X265126Y109299
X275126Y109299
X255126Y109299
X245126Y109299
X249457Y128984
X259457Y128984
X269457Y128984
X235992Y128984
X225992Y128984
X215992Y128984
X202528Y128984
X192528Y128984
X182528Y128984
X169063Y128984
X159063Y128984
X149063Y128984
X135598Y128984
X125598Y128984
X115598Y128984
X102134Y128984
X92134Y128984
X82134Y128984
X80953Y140795
X80953Y150795
X80953Y160795
X80953Y170795
X80953Y180795
X80953Y190795
X95126Y197882
X105126Y197882
X115126Y197882
X125126Y197882
X125598Y215598
X115598Y215598
X102134Y215598
X92134Y215598
X82134Y215598
X80953Y227409
X80953Y237409
X80953Y247409
X80953Y257409
X80953Y267409
X80953Y277409
X95126Y284496
X105126Y284496
X115126Y284496
X125126Y284496
X135598Y215598
X149063Y215598
X159063Y215598
X169063Y215598
X182528Y215598
X192528Y215598
X202528Y215598
X215992Y215598
X225992Y215598
X235992Y215598
X249457Y215598
X259457Y215598
X269457Y215598
X265126Y195913
X275126Y195913
X255126Y195913
X245126Y195913
X245126Y282528
X255126Y282528
X265126Y282528
X275126Y282528
X125126Y111268
X115126Y111268
X105126Y111268
X95126Y111268
X80953Y104181
X80953Y94181
X80953Y84181
X80953Y74181
X80953Y64181
X80953Y54181
T03
X111661Y75835
X111661Y162449
X111661Y249063
X265205Y249063
X265205Y162449
X265205Y75835
M30
